<svg width="20" height="21" viewBox="0 0 20 21" fill="none" xmlns="http://www.w3.org/2000/svg">
<path d="M2.36782 10.0105C2.4572 10.4595 2.85535 10.7865 3.33273 10.8068C3.48305 10.8129 3.61102 10.9226 3.63948 11.0709C3.66996 11.2192 3.59479 11.3695 3.45869 11.4325C3.02601 11.6356 2.78428 12.0907 2.87569 12.5396L2.96101 12.9662C3.07273 13.5289 3.69435 13.8803 4.23874 13.7462C4.39109 13.7097 4.54751 13.6812 4.70189 13.6508C4.92941 13.6061 5.15692 13.5593 5.38443 13.5146C5.6851 13.4537 5.98574 13.3948 6.28636 13.3339C6.64389 13.2628 7.00344 13.1896 7.36096 13.1185C7.76112 13.0373 8.1613 12.9581 8.5615 12.8768C8.98809 12.7915 9.41671 12.7062 9.8433 12.6188C10.2821 12.5315 10.7208 12.4421 11.1576 12.3548C11.5923 12.2674 12.025 12.18 12.4597 12.0927C12.8741 12.0094 13.2885 11.9261 13.7029 11.8429C14.0828 11.7677 14.4606 11.6905 14.8405 11.6153C15.1696 11.5503 15.4986 11.4833 15.8257 11.4183C16.0877 11.3655 16.3498 11.3127 16.6139 11.2598C16.7947 11.2233 16.9755 11.1867 17.1562 11.1502C17.2395 11.1339 17.3228 11.1156 17.4061 11.0994C17.4102 11.0994 17.4142 11.0973 17.4183 11.0973C17.3736 11.3086 17.3939 11.5341 17.4914 11.7453C17.6966 12.1882 18.174 12.4198 18.6331 12.3304C18.7692 12.304 18.9175 12.3548 18.9764 12.4807L19.1592 12.8768C19.2181 13.0027 19.1592 13.149 19.0515 13.2364C19.0312 13.2526 4.38906 20.0029 4.36471 20.0089C4.2286 20.0353 4.08031 19.9846 4.0214 19.8586L3.83858 19.4625C3.77967 19.3366 3.83858 19.1903 3.94624 19.103C4.31189 18.8125 4.44598 18.2985 4.24079 17.8557C4.03562 17.4129 3.55825 17.1813 3.09916 17.2707C2.96308 17.2971 2.81477 17.2463 2.75588 17.1204L2.57306 16.7242C2.51414 16.5983 2.57306 16.4521 2.68072 16.3647C3.04636 16.0742 3.18044 15.5603 2.97527 15.1174C2.7701 14.6746 2.29272 14.443 1.83364 14.5324C1.69753 14.5588 1.54924 14.508 1.49033 14.3821L1.30751 13.986C1.24862 13.86 1.30751 13.7138 1.41519 13.6264C1.78084 13.3359 1.91491 12.822 1.70974 12.3792C1.50455 11.9363 1.02718 11.7048 0.56811 11.7941C0.432007 11.8205 0.283718 11.7697 0.224808 11.6438L0.0237217 11.205C-0.0351887 11.0791 0.019659 10.9308 0.145603 10.8719L2.33337 9.8623L2.36782 10.0105Z" fill="white"/>
<path d="M19.8078 9.87045C19.7834 9.88264 3.97733 13.0536 3.95093 13.0536C3.81277 13.0475 3.67872 12.9622 3.65232 12.8281L3.567 12.4015C3.54059 12.2654 3.62997 12.1354 3.75591 12.0765C4.17844 11.8774 4.42832 11.4102 4.33282 10.9308C4.23735 10.4514 3.82498 10.1162 3.35777 10.0959C3.21963 10.0898 3.08556 10.0045 3.05915 9.87043L2.99618 9.5576L2.97382 9.44181C2.94741 9.30571 3.03681 9.1757 3.16273 9.11679C3.58528 8.91772 3.83514 8.4505 3.73964 7.97112C3.64417 7.4917 3.2318 7.15652 2.76458 7.13621C2.62645 7.13011 2.49238 7.04479 2.46597 6.91072L2.38066 6.48414C2.35425 6.34803 2.44365 6.21803 2.56959 6.15912C2.99212 5.96004 3.24198 5.49283 3.14648 5.01342C3.05101 4.53402 2.63864 4.19884 2.17142 4.17853C2.03329 4.17244 1.89924 4.08712 1.87281 3.95305L1.77736 3.47974C1.75093 3.34364 1.8383 3.2116 1.97438 3.18519C1.97438 3.18519 17.8577 0 17.8739 0C17.9918 0 18.0954 0.0832862 18.1197 0.201106L18.2152 0.674415C18.2416 0.810517 18.1522 0.940525 18.0263 0.999434C17.6038 1.19851 17.3539 1.66572 17.4494 2.14513C17.5449 2.62453 17.9572 2.95971 18.4244 2.98002C18.5626 2.98612 18.6966 3.07143 18.7231 3.2055L18.8084 3.63209C18.8348 3.76819 18.7454 3.8982 18.6195 3.95711C18.1969 4.15618 17.947 4.6234 18.0425 5.1028C18.138 5.58221 18.5504 5.91738 19.0176 5.9377C19.1557 5.94379 19.2898 6.02911 19.3162 6.16318L19.4015 6.58977C19.4279 6.72587 19.3385 6.85588 19.2126 6.91479C18.7901 7.11386 18.5402 7.58108 18.6357 8.06048C18.7312 8.5399 19.1435 8.87508 19.6108 8.89539C19.7489 8.90149 19.883 8.9868 19.9094 9.12088L19.9947 9.54746C20.0232 9.68357 19.9338 9.81154 19.8078 9.87045ZM6.26872 4.66405C6.21388 4.38981 5.94573 4.21105 5.6715 4.2659C5.39726 4.32075 5.2185 4.58889 5.27335 4.86312L5.9437 8.19863L6.35607 10.2544C6.40483 10.4961 6.61609 10.6627 6.85376 10.6627C6.88628 10.6627 6.92079 10.6586 6.9533 10.6525C7.22753 10.5977 7.40629 10.3296 7.35145 10.0553L6.89032 7.76191L6.26872 4.66405ZM15.4262 2.82566C15.3713 2.55142 15.1032 2.37266 14.8289 2.42751C14.5547 2.48236 14.3759 2.7505 14.4308 3.02473L14.6624 4.17652L14.9244 5.48269L15.1356 6.53494L15.5115 8.41599C15.5602 8.65772 15.7715 8.82432 16.0091 8.82432C16.0416 8.82432 16.0762 8.82025 16.1087 8.81416C16.1229 8.81211 16.1371 8.80804 16.1493 8.804C16.4012 8.73085 16.5576 8.47693 16.5048 8.21694L16.4296 7.83707L16.2326 6.85389L15.4262 2.82566Z" fill="white"/>
</svg>
