<svg width="22" height="25" viewBox="0 0 22 25" fill="none" xmlns="http://www.w3.org/2000/svg">
<path d="M17.1327 9.20695C16.055 9.20695 15.1814 8.43101 15.1814 7.47384C15.1814 6.51667 16.055 5.74072 17.1327 5.74072C18.2104 5.74072 19.084 6.51667 19.084 7.47384C19.084 8.43101 18.2104 9.20695 17.1327 9.20695Z" fill="white"/>
<path d="M15.4762 14.0361C15.3565 13.231 14.6782 12.7438 13.9758 12.9995L12.4728 13.548C12.7775 12.9824 13.055 12.402 13.2742 11.7907C13.3045 11.7081 13.3429 11.6368 13.3851 11.5709L13.6941 10.6359C12.8363 11.0074 11.9907 11.4099 11.1605 11.8582C11.1064 11.8871 11.0534 11.9072 11 11.9236C11.6525 11.4518 12.0172 10.5805 11.859 9.69072C11.8464 9.62069 11.8241 9.5557 11.8053 9.48819C12.8447 8.9892 13.9018 8.53634 14.9788 8.13798C15.0183 8.12289 15.0559 8.11744 15.0935 8.10905C15.2973 8.02519 15.5265 7.98577 15.7825 8.00464C16.2489 8.03986 16.7451 8.351 17.0518 8.79254C17.5289 9.28356 18.0064 9.77542 18.4839 10.2669C19.3072 9.96663 20.1312 9.6664 20.9545 9.36658C22.0012 8.98584 22.4457 10.7851 21.4086 11.1629C20.4375 11.5164 19.4668 11.8703 18.4958 12.223C18.2056 12.3286 17.8805 12.2041 17.6671 11.9844C17.4518 11.7626 17.2368 11.5412 17.0219 11.3198C16.7494 12.3404 16.4976 12.8742 16.4976 12.8742C16.4976 12.8742 16.3536 13.1836 16.1038 13.5027C16.6695 15.3578 17.312 17.1827 17.955 19.0088C18.3507 20.1313 16.7018 20.6118 16.311 19.5048C15.832 18.1471 15.3538 16.7881 14.9074 15.419C15.3925 15.1079 15.5499 14.5288 15.4762 14.0361Z" fill="white"/>
<path d="M10.0371 13.0195C8.95943 13.0195 8.0858 12.2435 8.0858 11.2863C8.0858 10.3292 8.95943 9.55322 10.0371 9.55322C11.1148 9.55322 11.9884 10.3292 11.9884 11.2863C11.9884 12.2435 11.1148 13.0195 10.0371 13.0195Z" fill="white"/>
<path d="M3.63465 18.0911C4.03014 18.416 4.39489 18.7431 4.78634 19.0433C5.39009 18.1183 5.94976 17.1569 6.34484 16.1157C6.37638 16.0331 6.41723 15.961 6.46171 15.8965L6.78724 14.961C5.88344 15.3333 4.99217 15.7363 4.11749 16.1837C3.08185 16.7132 2.17158 15.1073 3.21085 14.5748C4.80777 13.758 6.45443 13.0553 8.13991 12.4637C8.18237 12.449 8.22119 12.4431 8.26163 12.4343C8.47595 12.3509 8.71737 12.3115 8.9875 12.3312C9.47883 12.3664 10.0017 12.6767 10.3248 13.119C10.8279 13.6096 11.3301 14.1019 11.834 14.5933C12.7018 14.2931 13.5696 13.9928 14.4366 13.6935C15.5394 13.3119 16.0076 15.112 14.915 15.4889C13.8915 15.8432 12.8692 16.1967 11.8461 16.5497C11.5404 16.6558 11.1975 16.5304 10.973 16.3103C10.7458 16.0898 10.5201 15.8671 10.2929 15.6457C10.0057 16.6671 9.74087 17.2001 9.74087 17.2001C9.74087 17.2001 9.58923 17.5099 9.32678 17.8294C9.92244 19.6848 10.599 21.5092 11.2763 23.3348C11.6932 24.4577 9.95601 24.9382 9.54475 23.8304C8.87185 22.0195 8.20057 20.2081 7.60814 18.3686C7.57256 18.3502 7.53859 18.3372 7.50219 18.3145C7.44801 18.2944 7.39746 18.2684 7.34853 18.2387C6.89198 19.1238 6.36304 19.9649 5.7973 20.7939C5.511 21.2123 5.02331 21.3934 4.56878 21.1276C3.74909 20.6488 3.09722 20.0127 2.36609 19.4106C1.45743 18.6621 2.73772 17.3535 3.63465 18.0911Z" fill="white"/>
<path d="M8.61791 4.00725C7.54024 4.00725 6.66661 3.23131 6.66661 2.27413C6.66661 1.31696 7.54024 0.541016 8.61791 0.541016C9.69559 0.541016 10.5692 1.31696 10.5692 2.27413C10.5692 3.23131 9.69559 4.00725 8.61791 4.00725Z" fill="white"/>
<path d="M2.57028 9.72748C2.96576 10.0307 3.33051 10.3351 3.72195 10.6157C4.32609 9.75288 4.88575 8.85722 5.28002 7.88692C5.31156 7.80916 5.35281 7.74311 5.39769 7.68215L5.72282 6.81033C4.81903 7.15656 3.92818 7.53249 3.0527 7.94944C2.01749 8.44299 1.10683 6.94593 2.14689 6.45082C3.74378 5.6888 5.39001 5.03425 7.07546 4.48287C7.11752 4.46919 7.15674 4.46333 7.19759 4.4559C7.4115 4.37775 7.65332 4.34023 7.92264 4.3586C8.41477 4.39104 8.93682 4.68138 9.26032 5.09287C9.76337 5.55047 10.266 6.00846 10.7691 6.46684C11.6369 6.18704 12.5047 5.90764 13.3721 5.62784C14.4752 5.27302 14.9431 6.94945 13.8504 7.30154C12.8274 7.63135 11.8051 7.96117 10.7816 8.2902C10.4759 8.38868 10.133 8.27223 9.90935 8.06668C9.68169 7.86074 9.45524 7.65402 9.22878 7.44808C8.94127 8.39923 8.676 8.89669 8.676 8.89669C8.676 8.89669 8.52435 9.18508 8.26272 9.48285C8.2793 9.53248 8.29831 9.58133 8.31489 9.63056C7.90889 10.1214 7.71762 10.7744 7.85147 11.4379C7.91859 11.7724 8.06902 12.0714 8.26919 12.3312C8.24088 12.3394 8.21136 12.3461 8.18387 12.3554C8.12685 12.3664 8.08115 12.3777 8.03303 12.3934C7.85389 12.452 7.67597 12.5168 7.49723 12.5782C7.16604 11.7185 6.84537 10.8556 6.5437 9.98539C6.50893 9.96819 6.47496 9.95608 6.43857 9.93459C6.38478 9.91622 6.33424 9.8916 6.28612 9.86464C5.82836 10.6896 5.30024 11.4735 4.7337 12.2452C4.4474 12.6356 3.96013 12.8044 3.5052 12.5567C2.68552 12.1104 2.03407 11.5172 1.30174 10.9565C0.393099 10.2597 1.67255 9.04049 2.57028 9.72748Z" fill="white"/>
</svg>
