<svg width="19" height="22" viewBox="0 0 19 22" fill="none" xmlns="http://www.w3.org/2000/svg">
<path d="M11.2487 5.14299C12.537 5.14299 13.5815 4.08373 13.5815 2.77706C13.5815 1.47039 12.537 0.411133 11.2487 0.411133C9.96032 0.411133 8.91589 1.47039 8.91589 2.77706C8.91589 4.08373 9.96032 5.14299 11.2487 5.14299Z" fill="white"/>
<path fill-rule="evenodd" clip-rule="evenodd" d="M13.3776 6.07848C14.2418 6.85475 15.8187 8.27137 17.4339 8.4404C17.9314 8.49246 18.2927 8.94495 18.2424 9.45129C18.1943 9.92485 17.8009 10.2771 17.3434 10.2771C17.3119 10.2771 17.2809 10.2756 17.2488 10.2721C15.5213 10.0903 14.5095 9.55965 13.7341 8.92973L14.0018 12.062C14.041 12.5255 13.8912 12.9205 13.6424 13.2382C14.2718 14.2759 15.4079 16.2463 16.9508 19.7957C17.2087 20.3872 16.9456 21.0792 16.3642 21.341C16.2123 21.4096 16.0546 21.4416 15.8981 21.4416C15.4556 21.4416 15.034 21.1818 14.8438 20.7435C13.5354 17.7358 12.5041 15.8523 11.8988 14.8288C11.5064 15.5191 10.8529 16.8051 10.223 18.0446C9.64106 19.1898 9.07931 20.2952 8.76235 20.8543C8.56411 21.2042 8.21523 21.4115 7.84651 21.4386C7.62483 21.4549 7.39592 21.4052 7.18907 21.2846C6.63812 20.9613 6.44949 20.2446 6.76683 19.6837C7.27009 18.7957 8.40609 16.682 9.28324 15.0498C9.64081 14.3845 9.95537 13.7992 10.1665 13.4096C9.93076 13.1524 9.77171 12.8265 9.73894 12.438L9.45614 9.13114C8.85603 9.95191 8.23463 10.9424 7.83336 11.9704C7.71078 12.2836 7.43797 12.49 7.13357 12.5393L5.72584 15.0224L4.59013 17.0815L2.96899 19.9755C3.24537 20.3339 3.21873 20.8537 2.89258 21.1811C2.54167 21.5325 1.97593 21.5281 1.63159 21.1705C1.34601 20.876 1.30051 20.4331 1.48955 20.0907L0.302078 19.4113C0.114381 19.3052 0.0478801 19.0623 0.152987 18.8718L3.1219 13.5339C3.22709 13.3431 3.46474 13.2762 3.65198 13.3834L5.22056 14.28L6.33405 12.2612C6.10065 12.0088 6.01562 11.6346 6.14963 11.2901C7.09778 8.8648 9.00256 6.72089 9.68996 5.99591C9.77893 5.887 10.0611 5.63708 10.1011 5.61177C10.6154 5.22165 10.9779 5.18355 11.2257 5.15751C11.2439 5.15558 11.2616 5.15373 11.2786 5.1518C11.5378 5.12269 11.7886 5.17565 11.7886 5.17565C12.1414 5.23165 12.5103 5.38168 12.8222 5.61079C12.9365 5.68219 13.1271 5.85342 13.3776 6.07848ZM1.92418 20.5635C1.92418 20.7459 2.06966 20.8939 2.24904 20.8939C2.42825 20.8939 2.57364 20.746 2.57373 20.5635C2.57373 20.3811 2.42821 20.2331 2.24904 20.2331C2.06966 20.2331 1.92418 20.3811 1.92418 20.5635Z" fill="white"/>
</svg>
