<svg width="20" height="24" viewBox="0 0 20 24" fill="none" xmlns="http://www.w3.org/2000/svg">
<path d="M3.00513 4.9458V9.33974L9.49917 7.12955L10 6.95908L10.5008 7.12955L16.9947 9.3397V4.9458H3.00513Z" fill="white"/>
<path d="M18.2994 21.9789C18.0268 22.1728 17.8765 22.2796 17.4997 22.2796C17.1228 22.2796 16.9726 22.1728 16.6999 21.9789C16.3508 21.7306 15.8726 21.3907 14.9994 21.3907C14.1263 21.3907 13.6481 21.7307 13.299 21.979C13.0264 22.1728 12.8763 22.2796 12.4995 22.2796C12.1227 22.2796 11.9725 22.1728 11.6999 21.979C11.3507 21.7307 10.8726 21.3907 9.99946 21.3907C9.12631 21.3907 8.64823 21.7307 8.2991 21.979C8.0265 22.1728 7.87642 22.2796 7.49959 22.2796C7.1228 22.2796 6.97263 22.1728 6.70012 21.979C6.35099 21.7307 5.87291 21.3907 4.99976 21.3907C4.1266 21.3907 3.64848 21.7307 3.29939 21.979C3.02679 22.1728 2.87671 22.2796 2.49988 22.2796C2.12309 22.2796 1.97292 22.1728 1.70041 21.979C1.35128 21.7307 0.873156 21.3907 0 21.3907V22.9451C0.376783 22.9451 0.526956 23.0518 0.799512 23.2457C1.1486 23.4939 1.62672 23.8339 2.49988 23.8339C3.37303 23.8339 3.85116 23.4939 4.20029 23.2456C4.47289 23.0518 4.62302 22.945 4.9999 22.945C5.37668 22.945 5.52685 23.0518 5.79936 23.2456C6.14849 23.4939 6.62657 23.8339 7.49973 23.8339C8.37288 23.8339 8.85101 23.4939 9.20009 23.2456C9.47265 23.0518 9.62277 22.945 9.99956 22.945C10.3764 22.945 10.5266 23.0518 10.7992 23.2456C11.1483 23.4939 11.6264 23.8339 12.4996 23.8339C13.3727 23.8339 13.8509 23.4939 14.1999 23.2456C14.4725 23.0518 14.6227 22.945 14.9995 22.945C15.3764 22.945 15.5266 23.0518 15.7992 23.2457C16.1484 23.4939 16.6265 23.8339 17.4998 23.8339C18.373 23.8339 18.8511 23.4939 19.2003 23.2457C19.4729 23.0518 19.6231 22.945 20 22.945V21.3906C19.1267 21.3906 18.6485 21.7306 18.2994 21.9789Z" fill="white"/>
<path d="M10.7772 1.1917V0H9.2228V1.1917H5.54407V3.39137H14.5077V1.1917H10.7772Z" fill="white"/>
<path d="M0.314331 11.8977L3.60357 20.0613C3.98464 19.9299 4.44568 19.8366 4.99982 19.8366C6.26824 19.8366 7.04923 20.3254 7.49965 20.6408C7.84953 20.3958 8.40027 20.0471 9.22274 19.9032V8.86572L0.314331 11.8977Z" fill="white"/>
<path d="M10.7771 8.86572V19.9034C11.5992 20.0473 12.1497 20.396 12.4994 20.6409C12.9498 20.3255 13.7308 19.8366 14.9994 19.8366C15.5384 19.8366 15.9887 19.9253 16.3638 20.051L19.689 11.8988L10.7771 8.86572Z" fill="white"/>
</svg>
