<?xml version="1.0" encoding="utf-8"?>
<!-- Generator: Adobe Illustrator 23.1.1, SVG Export Plug-In . SVG Version: 6.00 Build 0)  -->
<svg version="1.1" xmlns="http://www.w3.org/2000/svg" xmlns:xlink="http://www.w3.org/1999/xlink" x="0px" y="0px"
	 viewBox="0 0 24 21.8" style="enable-background:new 0 0 24 21.8;" xml:space="preserve">
<style type="text/css">
	.st0{display:none;}
	.st1{display:inline;}
	.st2{fill-rule:evenodd;clip-rule:evenodd;fill:#7C7C7C;}
	.st3{fill-rule:evenodd;clip-rule:evenodd;fill:#071E3D;}
	.st4{fill-rule:evenodd;clip-rule:evenodd;fill:#21E6C1;}
	.st5{fill:#7C7C7C;}
	.st6{fill:#21E6C1;}
	.st7{display:inline;fill-rule:evenodd;clip-rule:evenodd;fill:#7C7C7C;}
</style>
<g id="圖層_1_拷貝" class="st0">
	<g class="st1">
		<path class="st2" d="M22.7,8.9L12.4,1.4c-0.2-0.1-0.5-0.1-0.7,0L1.5,8.9C1.2,9.1,1.2,9.5,1.3,9.7C1.5,10,1.9,10,2.1,9.8l9.9-7.3
			L22,9.8c0.1,0.1,0.2,0.1,0.3,0.1c0.2,0,0.3-0.1,0.5-0.2C23,9.5,22.9,9.1,22.7,8.9z"/>
		<path class="st2" d="M19.9,10c-0.3,0-0.6,0.3-0.6,0.6v9h-4.5v-4.9c0-1.6-1.3-2.8-2.8-2.8c-1.6,0-2.8,1.3-2.8,2.8v4.9H4.7v-9
			c0-0.3-0.3-0.6-0.6-0.6c-0.3,0-0.6,0.3-0.6,0.6v9.5c0,0.3,0.3,0.6,0.6,0.6h5.6c0.3,0,0.5-0.2,0.6-0.5c0,0,0,0,0,0v-5.5
			c0-0.9,0.8-1.7,1.7-1.7c0.9,0,1.7,0.8,1.7,1.7v5.5c0,0,0,0,0,0c0,0.3,0.3,0.5,0.6,0.5h5.6c0.3,0,0.6-0.3,0.6-0.6v-9.5
			C20.5,10.2,20.3,10,19.9,10z"/>
		<path class="st2" d="M13,19.2h-1.8v-4.5c0-0.5,0.4-1,0.9-1c0.5,0,0.9,0.4,0.9,1V19.2z"/>
	</g>
</g>
<g id="圖層_1" class="st0">
	<g class="st1">
		<path class="st3" d="M22.7,8.9L12.4,1.4c-0.2-0.1-0.5-0.1-0.7,0L1.5,8.9C1.2,9.1,1.2,9.5,1.3,9.7C1.5,10,1.9,10,2.1,9.8l9.9-7.3
			L22,9.8c0.1,0.1,0.2,0.1,0.3,0.1c0.2,0,0.3-0.1,0.5-0.2C23,9.5,22.9,9.1,22.7,8.9z"/>
		<path class="st3" d="M19.9,10c-0.3,0-0.6,0.3-0.6,0.6v9h-4.5v-4.9c0-1.6-1.3-2.8-2.8-2.8c-1.6,0-2.8,1.3-2.8,2.8v4.9H4.7v-9
			c0-0.3-0.3-0.6-0.6-0.6c-0.3,0-0.6,0.3-0.6,0.6v9.5c0,0.3,0.3,0.6,0.6,0.6h5.6c0.3,0,0.5-0.2,0.6-0.5c0,0,0,0,0,0v-5.5
			c0-0.9,0.8-1.7,1.7-1.7c0.9,0,1.7,0.8,1.7,1.7v5.5c0,0,0,0,0,0c0,0.3,0.3,0.5,0.6,0.5h5.6c0.3,0,0.6-0.3,0.6-0.6v-9.5
			C20.5,10.2,20.3,10,19.9,10z"/>
		<path class="st4" d="M13,19.2h-1.8v-4.5c0-0.5,0.4-1,0.9-1c0.5,0,0.9,0.4,0.9,1V19.2z"/>
	</g>
</g>
<g id="圖層_2" class="st0">
	<g class="st1">
		<path class="st5" d="M23,8.1l-3.2-0.8c0.2-0.8,0.4-1.4,0.4-1.8c0-2.6-2.1-4.7-4.7-4.7c-2.6,0-4.7,2.1-4.7,4.7
			c0,0.5,0.2,1.2,0.5,2.1L9.7,8.1c-1.3,0.3-1.5,0.3-2.8,0L1.3,6.7c-0.1,0-0.2,0-0.3,0c-0.1,0-0.2,0.1-0.2,0.1C0.7,6.9,0.6,6.9,0.6,7
			c0,0.1-0.1,0.2-0.1,0.3v11.2c0,0.1,0,0.3,0.1,0.4C0.7,18.9,0.8,19,1,19l5.6,1.8c0.7,0.2,1.2,0.3,1.7,0.3s1-0.1,1.7-0.3
			c0,0,0.1,0,0.1,0l4.2-1.8c0.9-0.3,1.5-0.3,2.8,0l5.6,1.4c0.1,0,0.2,0,0.3,0c0.1,0,0.2-0.1,0.2-0.1c0.1-0.1,0.1-0.1,0.2-0.2
			c0-0.1,0.1-0.2,0.1-0.3V8.7c0-0.1,0-0.3-0.1-0.4C23.2,8.2,23.1,8.1,23,8.1z M12,5.4C12,3.5,13.6,2,15.5,2c1.9,0,3.5,1.6,3.5,3.5
			c0,1.2-2,5.9-3.3,8.5c0,0.1-0.1,0.1-0.2,0.1s-0.1,0-0.1-0.1C14,11.3,12,6.7,12,5.4z M22.2,19.1l-4.8-1.2c-1.5-0.4-2.3-0.4-3.5,0
			c0,0,0,0,0,0l-4.2,1.7c-1.3,0.3-1.5,0.3-2.8,0L1.7,18V8.1l4.8,1.2c1.5,0.4,2,0.4,3.4,0c0,0,0,0,0,0l1.6-0.5
			c0.9,2.5,2.3,5.3,2.5,5.8c0.2,0.5,0.7,0.8,1.2,0.8c0.3,0,0.5-0.1,0.7-0.2c0.2-0.1,0.4-0.3,0.5-0.6C17,14,18.4,11,19.3,8.5l2.9,0.7
			L22.2,19.1z"/>
		<path class="st5" d="M15.5,6.5c0.7,0,1.3-0.6,1.3-1.4s-0.6-1.4-1.3-1.4c-0.7,0-1.3,0.6-1.3,1.4S14.7,6.5,15.5,6.5z"/>
		<path class="st5" d="M10.9,12.6c0,0-1.8,1.1-3.2,1.1c-1.4,0-3.3-1.1-3.3-1.1c-0.1-0.1-0.3-0.1-0.5-0.1c-0.2,0-0.3,0.1-0.4,0.3
			c-0.1,0.1-0.1,0.3-0.1,0.5c0,0.2,0.1,0.3,0.3,0.4c0.1,0.1,2.2,1.3,4,1.3c1.8,0,3.7-1.3,3.8-1.3c0.1-0.1,0.2-0.2,0.3-0.4
			s0-0.3-0.1-0.5c-0.1-0.1-0.2-0.2-0.4-0.3C11.2,12.5,11,12.5,10.9,12.6z"/>
		<path class="st5" d="M19.2,12.4c-0.1,0-0.2,0-0.2,0c-0.1,0-0.2,0-0.2,0.1c-0.1,0-0.1,0.1-0.2,0.2c-0.1,0.1-0.1,0.1-0.1,0.2
			c0,0.1,0,0.2,0,0.2c0,0.1,0,0.2,0.1,0.2c0,0.1,0.1,0.1,0.2,0.2s0.1,0.1,0.2,0.1l1.6,0.4c0.2,0,0.3,0,0.5-0.1
			c0.1-0.1,0.2-0.2,0.3-0.4c0-0.2,0-0.3-0.1-0.5s-0.2-0.2-0.4-0.3L19.2,12.4z"/>
	</g>
</g>
<g id="圖層_4" class="st0">
	<g class="st1">
		<path class="st5" d="M23,8.1l-3.2-0.8c0.2-0.8,0.4-1.4,0.4-1.8c0-2.6-2.1-4.7-4.7-4.7c-2.6,0-4.7,2.1-4.7,4.7
			c0,0.5,0.2,1.2,0.5,2.1L9.7,8.1c-1.3,0.3-1.5,0.3-2.8,0L1.3,6.7c-0.1,0-0.2,0-0.3,0c-0.1,0-0.2,0.1-0.2,0.1C0.7,6.9,0.6,6.9,0.6,7
			c0,0.1-0.1,0.2-0.1,0.3v11.2c0,0.1,0,0.3,0.1,0.4C0.7,18.9,0.8,19,1,19l5.6,1.8c0.7,0.2,1.2,0.3,1.7,0.3s1-0.1,1.7-0.3
			c0,0,0.1,0,0.1,0l4.2-1.8c0.9-0.3,1.5-0.3,2.8,0l5.6,1.4c0.1,0,0.2,0,0.3,0c0.1,0,0.2-0.1,0.2-0.1c0.1-0.1,0.1-0.1,0.2-0.2
			c0-0.1,0.1-0.2,0.1-0.3V8.7c0-0.1,0-0.3-0.1-0.4C23.2,8.2,23.1,8.1,23,8.1z M12,5.4C12,3.5,13.6,2,15.5,2c1.9,0,3.5,1.6,3.5,3.5
			c0,1.2-2,5.9-3.3,8.5c0,0.1-0.1,0.1-0.2,0.1s-0.1,0-0.1-0.1C14,11.3,12,6.7,12,5.4z M22.2,19.1l-4.8-1.2c-1.5-0.4-2.3-0.4-3.5,0
			c0,0,0,0,0,0l-4.2,1.7c-1.3,0.3-1.5,0.3-2.8,0L1.7,18V8.1l4.8,1.2c1.5,0.4,2,0.4,3.4,0c0,0,0,0,0,0l1.6-0.5
			c0.9,2.5,2.3,5.3,2.5,5.8c0.2,0.5,0.7,0.8,1.2,0.8c0.3,0,0.5-0.1,0.7-0.2c0.2-0.1,0.4-0.3,0.5-0.6C17,14,18.4,11,19.3,8.5l2.9,0.7
			L22.2,19.1z"/>
		<path class="st6" d="M15.5,6.5c0.7,0,1.3-0.6,1.3-1.4s-0.6-1.4-1.3-1.4c-0.7,0-1.3,0.6-1.3,1.4S14.7,6.5,15.5,6.5z"/>
		<path class="st6" d="M10.9,12.6c0,0-1.8,1.1-3.2,1.1c-1.4,0-3.3-1.1-3.3-1.1c-0.1-0.1-0.3-0.1-0.5-0.1c-0.2,0-0.3,0.1-0.4,0.3
			c-0.1,0.1-0.1,0.3-0.1,0.5c0,0.2,0.1,0.3,0.3,0.4c0.1,0.1,2.2,1.3,4,1.3c1.8,0,3.7-1.3,3.8-1.3c0.1-0.1,0.2-0.2,0.3-0.4
			s0-0.3-0.1-0.5c-0.1-0.1-0.2-0.2-0.4-0.3C11.2,12.5,11,12.5,10.9,12.6z"/>
		<path class="st6" d="M19.2,12.4c-0.1,0-0.2,0-0.2,0c-0.1,0-0.2,0-0.2,0.1c-0.1,0-0.1,0.1-0.2,0.2c-0.1,0.1-0.1,0.1-0.1,0.2
			c0,0.1,0,0.2,0,0.2c0,0.1,0,0.2,0.1,0.2c0,0.1,0.1,0.1,0.2,0.2s0.1,0.1,0.2,0.1l1.6,0.4c0.2,0,0.3,0,0.5-0.1
			c0.1-0.1,0.2-0.2,0.3-0.4c0-0.2,0-0.3-0.1-0.5s-0.2-0.2-0.4-0.3L19.2,12.4z"/>
	</g>
</g>
<g id="圖層_5">
	<g>
		<path class="st2" d="M12,17.5l3.3,2.2v-5.3l0.3-0.2c1.9-1.2,3.1-3.3,3.1-5.6C18.7,5,15.7,2,12,2C8.3,2,5.3,5,5.3,8.6
			c0,2.3,1.2,4.4,3.1,5.6l0.3,0.2v5.3L12,17.5z M15.4,21c-0.2,0-0.5-0.1-0.7-0.2L12,19.1l-2.7,1.8c-0.4,0.2-0.8,0.3-1.2,0.1
			c-0.4-0.2-0.6-0.6-0.6-1v-4.8C5.2,13.6,4,11.2,4,8.6c0-4.3,3.6-7.9,8-7.9c4.4,0,8,3.5,8,7.9c0,2.6-1.3,5-3.4,6.4v4.8
			c0,0.4-0.2,0.8-0.6,1C15.8,21,15.6,21,15.4,21z"/>
		<path class="st2" d="M16,7.4C16,7.2,15.8,7.1,15.6,7l-2.2-0.3l-1-1.9c-0.1-0.2-0.3-0.3-0.5-0.3c-0.2,0-0.4,0.1-0.5,0.3l-1,1.9
			L8.4,7C8.2,7.1,8,7.2,8,7.4c-0.1,0.2,0,0.4,0.1,0.5l1.6,1.5l-0.4,2.1c0,0.2,0,0.4,0.2,0.5c0.2,0.1,0.4,0.1,0.5,0l2-1l2,1
			c0.2,0.1,0.4,0.1,0.5,0c0.2-0.1,0.2-0.3,0.2-0.5l-0.4-2.1l1.6-1.5C16,7.7,16.1,7.5,16,7.4z"/>
	</g>
</g>
<g id="圖層_5_拷貝" class="st0">
	<g class="st1">
		<path class="st2" d="M12,17.5l3.3,2.2v-5.3l0.3-0.2c1.9-1.2,3.1-3.3,3.1-5.6C18.7,5,15.7,2,12,2C8.3,2,5.3,5,5.3,8.6
			c0,2.3,1.2,4.4,3.1,5.6l0.3,0.2v5.3L12,17.5z M15.4,21c-0.2,0-0.5-0.1-0.7-0.2L12,19.1l-2.7,1.8c-0.4,0.2-0.8,0.3-1.2,0.1
			c-0.4-0.2-0.6-0.6-0.6-1v-4.8C5.2,13.6,4,11.2,4,8.6c0-4.3,3.6-7.9,8-7.9c4.4,0,8,3.5,8,7.9c0,2.6-1.3,5-3.4,6.4v4.8
			c0,0.4-0.2,0.8-0.6,1C15.8,21,15.6,21,15.4,21z"/>
		<path class="st2" d="M16,7.4C16,7.2,15.8,7.1,15.6,7l-2.2-0.3l-1-1.9c-0.1-0.2-0.3-0.3-0.5-0.3c-0.2,0-0.4,0.1-0.5,0.3l-1,1.9
			L8.4,7C8.2,7.1,8,7.2,8,7.4c-0.1,0.2,0,0.4,0.1,0.5l1.6,1.5l-0.4,2.1c0,0.2,0,0.4,0.2,0.5c0.2,0.1,0.4,0.1,0.5,0l2-1l2,1
			c0.2,0.1,0.4,0.1,0.5,0c0.2-0.1,0.2-0.3,0.2-0.5l-0.4-2.1l1.6-1.5C16,7.7,16.1,7.5,16,7.4z"/>
	</g>
</g>
<g id="圖層_7" class="st0">
	<path class="st7" d="M7.6,7.9c0-2.4,2-4.4,4.4-4.4c2.4,0,4.4,2,4.4,4.4s-2,4.4-4.4,4.4C9.6,12.4,7.6,10.4,7.6,7.9z M15.1,13
		c1.7-1,2.8-2.9,2.8-5C17.8,4.7,15.2,2,12,2C8.8,2,6.1,4.7,6.1,7.9c0,2.1,1.1,4,2.8,5c-2.9,1.1-5.1,3.7-5.7,6.8h1.5
		c0.7-3.4,3.7-5.9,7.3-5.9c3.6,0,6.6,2.5,7.3,5.9h1.5C20.2,16.6,18,14,15.1,13z"/>
</g>
<g id="圖層_7_拷貝" class="st0">
	<path class="st7" d="M7.6,7.9c0-2.4,2-4.4,4.4-4.4c2.4,0,4.4,2,4.4,4.4s-2,4.4-4.4,4.4C9.6,12.4,7.6,10.4,7.6,7.9z M15.1,13
		c1.7-1,2.8-2.9,2.8-5C17.8,4.7,15.2,2,12,2C8.8,2,6.1,4.7,6.1,7.9c0,2.1,1.1,4,2.8,5c-2.9,1.1-5.1,3.7-5.7,6.8h1.5
		c0.7-3.4,3.7-5.9,7.3-5.9c3.6,0,6.6,2.5,7.3,5.9h1.5C20.2,16.6,18,14,15.1,13z"/>
</g>
</svg>
