<?xml version="1.0" encoding="utf-8"?>
<!-- Generator: Adobe Illustrator 23.1.1, SVG Export Plug-In . SVG Version: 6.00 Build 0)  -->
<svg version="1.1" id="圖層_1" xmlns="http://www.w3.org/2000/svg" xmlns:xlink="http://www.w3.org/1999/xlink" x="0px" y="0px"
	 viewBox="0 0 22 20" style="enable-background:new 0 0 22 20;" xml:space="preserve">
<style type="text/css">
	.st0{fill-rule:evenodd;clip-rule:evenodd;fill:#FFFFFF;filter:url(#Adobe_OpacityMaskFilter);}
	.st1{mask:url(#mask0_2_);}
	.st2{fill-rule:evenodd;clip-rule:evenodd;fill:url(#SVGID_1_);}
</style>
<defs>
	<filter id="Adobe_OpacityMaskFilter" filterUnits="userSpaceOnUse" x="4" y="5.6" width="13.9" height="8.9">
		<feColorMatrix  type="matrix" values="1 0 0 0 0  0 1 0 0 0  0 0 1 0 0  0 0 0 1 0"/>
	</filter>
</defs>
<mask maskUnits="userSpaceOnUse" x="4" y="5.6" width="13.9" height="8.9" id="mask0_2_">
	<path class="st0" d="M5.9,6l3.6,2.8c0,0-2.9,1.7-4.2,3.1c-1.3,1.4,0.5,0.7,1.8,0.4c1.3-0.3,6.5-2,9-3.6c2.5-1.6,1.8-2.3,1.8-2.3
		S17.5,6.1,16.6,6c-0.4,0.6-0.9,1.2-1.3,1.3c-0.4,0.1-0.3-0.6,0-1.2c-0.3,0.1-0.6,0.1-0.9,0.3c0,0-1.3,0.5-2.2,0.9l-5-1.6
		c0,0-0.2-0.1-0.4-0.1C6.6,5.6,6.3,5.7,5.9,6z M4,9.4l0.9,2c0,0,0.5-0.6,1.4-1.1L5,9.3c0,0-0.2-0.1-0.5-0.1C4.4,9.2,4.2,9.3,4,9.4z
		 M12.2,11.2l2.2,3.2c0.9-0.4,0.7-1.4,0.7-1.4l-0.2-3C14.1,10.5,12.2,11.2,12.2,11.2z"/>
</mask>
<g class="st1">
	
		<radialGradient id="SVGID_1_" cx="-366.8827" cy="510.5346" r="0.5917" gradientTransform="matrix(9.6929 0 0 -6.1812 3567.157 3165.9673)" gradientUnits="userSpaceOnUse">
		<stop  offset="0" style="stop-color:#642A72"/>
		<stop  offset="1" style="stop-color:#C6426E"/>
	</radialGradient>
	<path class="st2" d="M5.9,6l3.6,2.8c0,0-2.9,1.7-4.2,3.1c-1.3,1.4,0.5,0.7,1.8,0.4c1.3-0.3,6.5-2,9-3.6c2.5-1.6,1.8-2.3,1.8-2.3
		S17.5,6.1,16.6,6c-0.4,0.6-0.9,1.2-1.3,1.3c-0.4,0.1-0.3-0.6,0-1.2c-0.3,0.1-0.6,0.1-0.9,0.3c0,0-1.3,0.5-2.2,0.9l-5-1.6
		c0,0-0.2-0.1-0.4-0.1C6.6,5.6,6.3,5.7,5.9,6z M4,9.4l0.9,2c0,0,0.5-0.6,1.4-1.1L5,9.3c0,0-0.2-0.1-0.5-0.1C4.4,9.2,4.2,9.3,4,9.4z
		 M12.2,11.2l2.2,3.2c0.9-0.4,0.7-1.4,0.7-1.4l-0.2-3C14.1,10.5,12.2,11.2,12.2,11.2z"/>
</g>
</svg>
