<?xml version="1.0" encoding="utf-8"?>
<!-- Generator: Adobe Illustrator 23.1.1, SVG Export Plug-In . SVG Version: 6.00 Build 0)  -->
<svg version="1.1" xmlns="http://www.w3.org/2000/svg" xmlns:xlink="http://www.w3.org/1999/xlink" x="0px" y="0px"
	 viewBox="0 0 26.7 26.7" style="enable-background:new 0 0 26.7 26.7;" xml:space="preserve">
<style type="text/css">
	.st0{display:none;}
	.st1{display:inline;}
	.st2{fill-rule:evenodd;clip-rule:evenodd;fill:#FFFFFF;}
	.st3{fill:#FFFFFF;}
	.st4{fill:#B46660;}
</style>
<g id="圖層_1" class="st0">
	<rect x="-1.6" y="-1.6" class="st1" width="30" height="30"/>
</g>
<g id="圖層_2">
	<path class="st3" d="M21.8,20.5L20.4,8.3c0-0.1-0.1-0.3-0.2-0.4c-0.1-0.1-0.3-0.2-0.4-0.1h-2.4V7.3c0-1-0.5-1.9-1.2-2.5
		c-0.7-0.7-1.7-1-2.8-1s-2,0.4-2.8,1C9.8,5.5,9.4,6.4,9.4,7.3v0.4H7c-0.2,0-0.3,0.1-0.4,0.2C6.5,8,6.4,8.1,6.4,8.3L4.9,20.5
		c0,0.3,0,0.6,0.1,0.9c0.1,0.3,0.3,0.6,0.5,0.8c0.2,0.2,0.5,0.4,0.8,0.6C6.7,22.9,7,23,7.3,23h12c0.3,0,0.7-0.1,1-0.2
		c0.3-0.1,0.6-0.3,0.8-0.6c0.2-0.2,0.4-0.5,0.5-0.8C21.8,21.1,21.8,20.8,21.8,20.5z M16.1,7.7h-5.4V7.3c0-0.6,0.3-1.3,0.8-1.7
		c0.5-0.5,1.2-0.7,1.9-0.7s1.4,0.3,1.9,0.7c0.5,0.5,0.8,1.1,0.8,1.7L16.1,7.7z"/>
</g>
</svg>
