<?xml version="1.0" encoding="utf-8"?>
<!-- Generator: Adobe Illustrator 23.1.1, SVG Export Plug-In . SVG Version: 6.00 Build 0)  -->
<svg version="1.1" id="圖層_1" xmlns="http://www.w3.org/2000/svg" xmlns:xlink="http://www.w3.org/1999/xlink" x="0px" y="0px"
	 viewBox="0 0 37.3 38.8" style="enable-background:new 0 0 37.3 38.8;" xml:space="preserve">
<style type="text/css">
	.st0{fill:url(#SVGID_1_);}
	.st1{fill:url(#SVGID_2_);}
	.st2{fill:url(#SVGID_3_);}
	.st3{fill:url(#SVGID_4_);}
	.st4{fill:url(#SVGID_5_);}
	.st5{fill:url(#SVGID_6_);}
	.st6{fill:url(#SVGID_7_);}
	.st7{fill:url(#SVGID_8_);}
	.st8{fill:url(#SVGID_9_);}
	.st9{fill:url(#SVGID_10_);}
	.st10{fill:url(#SVGID_11_);}
	.st11{fill:url(#SVGID_12_);}
	.st12{fill:url(#SVGID_13_);}
	.st13{fill:url(#SVGID_14_);}
	.st14{fill:url(#SVGID_15_);}
	.st15{fill:url(#SVGID_16_);}
	.st16{fill:url(#SVGID_17_);}
	.st17{fill:url(#SVGID_18_);}
	.st18{fill:#C4C4C4;}
</style>
<g>
	
		<radialGradient id="SVGID_1_" cx="-361.0961" cy="558.4224" r="1.0001" gradientTransform="matrix(10.1436 0 0 -10.205 3681.4617 5714.5386)" gradientUnits="userSpaceOnUse">
		<stop  offset="0" style="stop-color:#CB356B"/>
		<stop  offset="0.49" style="stop-color:#D76D77"/>
		<stop  offset="1" style="stop-color:#FFAF7B"/>
	</radialGradient>
	<path class="st0" d="M25.8,7.4l-0.6,2.7H7l1.7,10.6H23l-0.4,1.9H9.4v1.6h14.5L27.1,9h3.2V7.4H25.8z"/>
	
		<linearGradient id="SVGID_2_" gradientUnits="userSpaceOnUse" x1="15.5153" y1="11.768" x2="121.4018" y2="11.768" gradientTransform="matrix(1 0 0 -1 0 40.3988)">
		<stop  offset="0" style="stop-color:#CB356B"/>
		<stop  offset="0.49" style="stop-color:#D76D77"/>
		<stop  offset="1" style="stop-color:#FFAF7B"/>
	</linearGradient>
	<path class="st1" d="M10.2,25.8c-0.6,0-1.1,0.2-1.5,0.5c-0.5,0.3-0.8,0.7-1,1.3s-0.3,1.1-0.2,1.6c0.1,0.5,0.4,1,0.8,1.4
		c0.4,0.4,0.9,0.7,1.4,0.8c0.5,0.1,1.1,0.1,1.6-0.2c0.5-0.2,0.9-0.6,1.3-1c0.3-0.5,0.5-1,0.5-1.6c0-0.7-0.3-1.5-0.8-2
		C11.7,26.1,11,25.8,10.2,25.8z M10.2,29.9c-0.2,0-0.5-0.1-0.7-0.2c-0.2-0.1-0.4-0.3-0.5-0.6S9,28.6,9,28.4c0-0.2,0.2-0.5,0.3-0.6
		s0.4-0.3,0.6-0.3c0.2,0,0.5,0,0.7,0.1c0.2,0.1,0.4,0.3,0.6,0.5c0.1,0.2,0.2,0.4,0.2,0.7c0,0.3-0.1,0.6-0.4,0.9
		C10.9,29.7,10.5,29.9,10.2,29.9z"/>
	
		<linearGradient id="SVGID_3_" gradientUnits="userSpaceOnUse" x1="256.2368" y1="11.768" x2="362.0668" y2="11.768" gradientTransform="matrix(1 0 0 -1 0 40.3988)">
		<stop  offset="0" style="stop-color:#CB356B"/>
		<stop  offset="0.49" style="stop-color:#D76D77"/>
		<stop  offset="1" style="stop-color:#FFAF7B"/>
	</linearGradient>
	<path class="st2" d="M22.3,25.8c-0.6,0-1.1,0.2-1.6,0.5c-0.5,0.3-0.8,0.7-1,1.3c-0.2,0.5-0.3,1.1-0.2,1.6c0.1,0.5,0.4,1,0.8,1.4
		c0.4,0.4,0.9,0.7,1.4,0.8c0.5,0.1,1.1,0.1,1.6-0.2c0.5-0.2,0.9-0.6,1.3-1c0.3-0.5,0.5-1,0.5-1.6c0-0.7-0.3-1.5-0.8-2
		C23.7,26.1,23,25.8,22.3,25.8z M22.3,29.9c-0.2,0-0.5-0.1-0.7-0.2c-0.2-0.1-0.4-0.3-0.5-0.6c-0.1-0.2-0.1-0.5-0.1-0.7
		c0-0.2,0.2-0.5,0.3-0.6c0.2-0.2,0.4-0.3,0.6-0.3s0.5,0,0.7,0.1c0.2,0.1,0.4,0.3,0.6,0.5c0.1,0.2,0.2,0.4,0.2,0.7
		c0,0.3-0.1,0.6-0.4,0.9C22.9,29.7,22.6,29.9,22.3,29.9z"/>
</g>
</svg>
