<?xml version="1.0" encoding="utf-8"?>
<!-- Generator: Adobe Illustrator 23.1.1, SVG Export Plug-In . SVG Version: 6.00 Build 0)  -->
<svg version="1.1" id="圖層_1" xmlns="http://www.w3.org/2000/svg" xmlns:xlink="http://www.w3.org/1999/xlink" x="0px" y="0px"
	 viewBox="0 0 37.3 38.8" style="enable-background:new 0 0 37.3 38.8;" xml:space="preserve">
<style type="text/css">
	.st0{fill-rule:evenodd;clip-rule:evenodd;fill:#FFFFFF;filter:url(#Adobe_OpacityMaskFilter);}
	.st1{mask:url(#mask0_2_);}
	.st2{fill-rule:evenodd;clip-rule:evenodd;fill:url(#SVGID_1_);}
	.st3{fill-rule:evenodd;clip-rule:evenodd;fill:#FFFFFF;filter:url(#Adobe_OpacityMaskFilter_1_);}
	.st4{mask:url(#mask1_2_);}
	.st5{fill-rule:evenodd;clip-rule:evenodd;fill:url(#SVGID_2_);}
</style>
<g>
	<defs>
		<filter id="Adobe_OpacityMaskFilter" filterUnits="userSpaceOnUse" x="22.5" y="8.4" width="4.5" height="21.8">
			<feColorMatrix  type="matrix" values="1 0 0 0 0  0 1 0 0 0  0 0 1 0 0  0 0 0 1 0"/>
		</filter>
	</defs>
	<mask maskUnits="userSpaceOnUse" x="22.5" y="8.4" width="4.5" height="21.8" id="mask0_2_">
		<path class="st0" d="M25.3,8.5L25.3,8.5C25.3,8.5,25.3,8.5,25.3,8.5c-0.1,0.1-0.2,0.1-0.3,0.2c-0.6,0.5-2.4,2.4-2.6,5
			c-0.2,4,1.7,5.6,2.4,7.1l-0.5,8.7c0,0.4,0.9,0.8,1.3,0.8c0.4,0,1.3-0.4,1.3-0.8L26.5,9.2c0-0.4-0.4-0.8-0.8-0.8
			C25.6,8.4,25.4,8.4,25.3,8.5z"/>
	</mask>
	<g class="st1">
		
			<radialGradient id="SVGID_1_" cx="-348.6331" cy="600.2832" r="1" gradientTransform="matrix(7.8546 0 0 -38.2107 2763.104 22956.5234)" gradientUnits="userSpaceOnUse">
			<stop  offset="0" style="stop-color:#DBE25B"/>
			<stop  offset="1" style="stop-color:#44B649"/>
		</radialGradient>
		<path class="st2" d="M25.3,8.5L25.3,8.5C25.3,8.5,25.3,8.5,25.3,8.5c-0.1,0.1-0.2,0.1-0.3,0.2c-0.6,0.5-2.4,2.4-2.6,5
			c-0.2,4,1.7,5.6,2.4,7.1l-0.5,8.7c0,0.4,0.9,0.8,1.3,0.8c0.4,0,1.3-0.4,1.3-0.8L26.5,9.2c0-0.4-0.4-0.8-0.8-0.8
			C25.6,8.4,25.4,8.4,25.3,8.5z"/>
	</g>
	<defs>
		<filter id="Adobe_OpacityMaskFilter_1_" filterUnits="userSpaceOnUse" x="10.3" y="8.7" width="7.6" height="21.7">
			<feColorMatrix  type="matrix" values="1 0 0 0 0  0 1 0 0 0  0 0 1 0 0  0 0 0 1 0"/>
		</filter>
	</defs>
	<mask maskUnits="userSpaceOnUse" x="10.3" y="8.7" width="7.6" height="21.7" id="mask1_2_">
		<path class="st3" d="M16.4,9.5v4.8h-0.4V9.5c0-0.4-0.4-0.8-0.8-0.8c-0.4,0-0.8,0.4-0.8,0.8v4.8h-0.4V9.5c0-0.4-0.4-0.8-0.8-0.8
			c-0.4,0-0.8,0.4-0.8,0.8v4.8h-0.4V9.6c0-0.4-0.4-0.8-0.8-0.8c-0.4,0-0.8,0.4-0.8,0.8v5.2c0,0.9,0.6,1.8,1.4,2.2l1.4,0.7
			c0.2,0.1,0.3,0.1,0.5,0.2L13,29.7c0,0.4,0.9,0.7,1.3,0.7c0.4,0,1.3-0.3,1.3-0.7l-0.5-11.9c0.2-0.1,0.4-0.1,0.5-0.2l1-0.6
			c0.7-0.4,1.3-1.4,1.3-2.3V9.5c0-0.4-0.4-0.8-0.8-0.8C16.7,8.7,16.4,9,16.4,9.5z"/>
	</mask>
	<g class="st4">
		
			<radialGradient id="SVGID_2_" cx="-350.4346" cy="590.4156" r="1" gradientTransform="matrix(8.1344 0 0 -23.2101 2864.6951 13723.1484)" gradientUnits="userSpaceOnUse">
			<stop  offset="0" style="stop-color:#DBE25B"/>
			<stop  offset="1" style="stop-color:#44B649"/>
		</radialGradient>
		<path class="st5" d="M16.4,9.5v4.8h-0.4V9.5c0-0.4-0.4-0.8-0.8-0.8c-0.4,0-0.8,0.4-0.8,0.8v4.8h-0.4V9.5c0-0.4-0.4-0.8-0.8-0.8
			c-0.4,0-0.8,0.4-0.8,0.8v4.8h-0.4V9.6c0-0.4-0.4-0.8-0.8-0.8c-0.4,0-0.8,0.4-0.8,0.8v5.2c0,0.9,0.6,1.8,1.4,2.2l1.4,0.7
			c0.2,0.1,0.3,0.1,0.5,0.2L13,29.7c0,0.4,0.9,0.7,1.3,0.7c0.4,0,1.3-0.3,1.3-0.7l-0.5-11.9c0.2-0.1,0.4-0.1,0.5-0.2l1-0.6
			c0.7-0.4,1.3-1.4,1.3-2.3V9.5c0-0.4-0.4-0.8-0.8-0.8C16.7,8.7,16.4,9,16.4,9.5z"/>
	</g>
</g>
</svg>
