<?xml version="1.0" encoding="utf-8"?>
<!-- Generator: Adobe Illustrator 23.1.1, SVG Export Plug-In . SVG Version: 6.00 Build 0)  -->
<svg version="1.1" id="圖層_1" xmlns="http://www.w3.org/2000/svg" xmlns:xlink="http://www.w3.org/1999/xlink" x="0px" y="0px"
	 viewBox="0 0 22 20" style="enable-background:new 0 0 22 20;" xml:space="preserve">
<style type="text/css">
	.st0{fill:url(#SVGID_1_);}
	.st1{fill:url(#SVGID_2_);}
</style>
<g>
	
		<radialGradient id="SVGID_1_" cx="-329.3315" cy="493.9462" r="0.667" gradientTransform="matrix(5.1522 0 0 -5.2475 1707.8519 2598.5149)" gradientUnits="userSpaceOnUse">
		<stop  offset="0" style="stop-color:#E44D26"/>
		<stop  offset="1" style="stop-color:#F16529"/>
	</radialGradient>
	<path class="st0" d="M13.6,4.3h-1.3V3.9c0-0.3-0.1-0.7-0.4-0.9c-0.2-0.2-0.6-0.4-0.9-0.4c-0.3,0-0.7,0.1-0.9,0.4
		C9.9,3.2,9.8,3.6,9.8,3.9v0.4H8.5c-0.1,0-0.2,0-0.3,0.1C8.1,4.5,8.1,4.7,8.1,4.8V10c0,0.1,0,0.2,0.1,0.3c0.1,0.1,0.2,0.1,0.3,0.1
		h5.1c0.1,0,0.2,0,0.3-0.1c0.1-0.1,0.1-0.2,0.1-0.3V4.8c0-0.1,0-0.2-0.1-0.3C13.9,4.4,13.8,4.3,13.6,4.3z M11.5,4.3h-0.9V3.9
		c0-0.1,0-0.2,0.1-0.3c0.1-0.1,0.2-0.1,0.3-0.1c0.1,0,0.2,0,0.3,0.1c0.1,0.1,0.1,0.2,0.1,0.3L11.5,4.3z"/>
	
		<radialGradient id="SVGID_2_" cx="-356.7492" cy="532.7941" r="0.6674" gradientTransform="matrix(7.8563 0 0 -8.0017 2813.7429 4276.7681)" gradientUnits="userSpaceOnUse">
		<stop  offset="0" style="stop-color:#F28F4A"/>
		<stop  offset="1" style="stop-color:#FFDE25"/>
	</radialGradient>
	<path class="st1" d="M17.3,9.8c0-0.1-0.1-0.1-0.2-0.2S17,9.6,16.9,9.6c-0.4,0-0.7,0.1-1,0.3c-0.3,0.2-0.6,0.5-0.7,0.8l-1.3,2.5
		c-0.1,0.2-0.3,0.4-0.5,0.5c-0.2,0.1-0.4,0.2-0.7,0.2H9.8c-0.1,0-0.2,0-0.3-0.1c-0.1-0.1-0.1-0.2-0.1-0.3c0-0.1,0-0.2,0.1-0.3
		C9.6,13.1,9.7,13,9.8,13h2.9c0.1,0,0.2,0,0.2-0.1c0.1,0,0.1-0.1,0.2-0.2l0.5-0.9c0-0.1,0-0.1,0-0.2c0-0.1,0-0.1-0.1-0.2
		c0-0.1-0.1-0.1-0.1-0.1c-0.1,0-0.1,0-0.2,0H8.8c-0.3,0-0.6,0.1-0.8,0.2c-0.3,0.1-0.5,0.3-0.7,0.5l-2.5,2.6c0,0-0.1,0.1-0.1,0.1
		c0,0.1,0,0.1,0,0.2c0,0.1,0,0.1,0,0.2c0,0.1,0.1,0.1,0.1,0.1l2.1,2.2c0,0,0.1,0.1,0.1,0.1s0.1,0,0.2,0c0.1,0,0.1,0,0.2,0
		c0.1,0,0.1-0.1,0.1-0.1l1.6-1.6h3.6c0.5,0,1.1-0.2,1.5-0.4c0.5-0.3,0.8-0.7,1.1-1.2l2-3.8c0-0.1,0.1-0.1,0-0.2
		C17.3,9.9,17.3,9.8,17.3,9.8z"/>
</g>
</svg>
