<svg width="24" height="24" viewBox="0 0 24 24" fill="none" xmlns="http://www.w3.org/2000/svg">
<g clip-path="url(#clip0)">
<path d="M5.51602 13.4054H12.268C12.4033 13.4054 12.5331 13.3517 12.6289 13.2559C12.7246 13.1602 12.7784 13.0304 12.7784 12.895C12.7784 10.5909 11.6117 9.5628 8.99042 9.5628C6.19778 9.5628 5.00562 10.5581 5.00562 12.895C5.00562 13.0304 5.05939 13.1602 5.15511 13.2559C5.25083 13.3517 5.38065 13.4054 5.51602 13.4054ZM8.99042 10.5836C11.0393 10.5836 11.6263 11.2143 11.7393 12.3846H6.0483C6.17226 11.1888 6.7811 10.5836 8.99042 10.5836V10.5836Z" fill="white"/>
<path d="M12.2679 15.8189H5.51599C5.44771 15.8189 5.38013 15.8326 5.31723 15.8591C5.25434 15.8857 5.19741 15.9246 5.14982 15.9735C5.10223 16.0225 5.06494 16.0805 5.04017 16.1441C5.01539 16.2077 5.00363 16.2757 5.00558 16.3439C5.00558 18.3965 6.92325 18.6699 8.79717 18.6699C10.8643 18.6699 12.7783 18.3892 12.7783 16.3439C12.7803 16.2757 12.7685 16.2077 12.7437 16.1441C12.719 16.0805 12.6817 16.0225 12.6341 15.9735C12.5865 15.9246 12.5296 15.8857 12.4667 15.8591C12.4038 15.8326 12.3362 15.8189 12.2679 15.8189V15.8189ZM8.79717 17.6418C6.83575 17.6418 6.24514 17.2772 6.09566 16.8434H11.6846C11.506 17.259 10.9117 17.6382 8.79717 17.6382V17.6418Z" fill="white"/>
<path d="M12.8293 14.1564H4.95816C4.8373 14.1564 4.72138 14.2045 4.63592 14.2899C4.55045 14.3754 4.50244 14.4913 4.50244 14.6122C4.50244 14.733 4.55045 14.8489 4.63592 14.9344C4.72138 15.0199 4.8373 15.0679 4.95816 15.0679H12.8293C12.9502 15.0679 13.0661 15.0199 13.1516 14.9344C13.2371 14.8489 13.2851 14.733 13.2851 14.6122C13.2851 14.4913 13.2371 14.3754 13.1516 14.2899C13.0661 14.2045 12.9502 14.1564 12.8293 14.1564V14.1564Z" fill="white"/>
<path d="M18.2579 6.50038H15.3705L15.4908 5.90977L17.3137 5.52332C17.4321 5.49867 17.5359 5.42797 17.6022 5.32678C17.6685 5.22559 17.6919 5.1022 17.6673 4.98375C17.6426 4.8653 17.5719 4.7615 17.4707 4.69518C17.3696 4.62886 17.2462 4.60546 17.1277 4.63011L15.0022 5.07854C14.9116 5.09491 14.8281 5.1386 14.7629 5.20376C14.6977 5.26892 14.654 5.35243 14.6377 5.44311L14.4408 6.50038H11.2763C11.2091 6.4999 11.1425 6.51277 11.0804 6.53825C11.0182 6.56373 10.9618 6.6013 10.9143 6.6488C10.8668 6.69629 10.8292 6.75275 10.8037 6.81489C10.7783 6.87704 10.7654 6.94363 10.7659 7.01079V8.86648C10.7659 9.00185 10.8197 9.13167 10.9154 9.22739C11.0111 9.32311 11.1409 9.37688 11.2763 9.37688H17.135L16.3147 16.8142H14.0142C13.9472 16.8142 13.8809 16.8274 13.8189 16.8531C13.757 16.8787 13.7007 16.9163 13.6533 16.9637C13.6059 17.0111 13.5683 17.0674 13.5427 17.1293C13.517 17.1912 13.5038 17.2576 13.5038 17.3246C13.5038 17.3917 13.517 17.458 13.5427 17.52C13.5683 17.5819 13.6059 17.6381 13.6533 17.6855C13.7007 17.7329 13.757 17.7705 13.8189 17.7962C13.8809 17.8218 13.9472 17.835 14.0142 17.835H16.7741C16.8996 17.8341 17.0205 17.7872 17.1138 17.7032C17.2072 17.6193 17.2666 17.5041 17.2808 17.3793L18.1631 9.35865H18.2579C18.3933 9.35865 18.5231 9.30488 18.6188 9.20916C18.7145 9.11344 18.7683 8.98362 18.7683 8.84825V6.99985C18.7655 6.86639 18.7104 6.73936 18.615 6.64599C18.5196 6.55262 18.3914 6.50035 18.2579 6.50038ZM11.7721 7.52119H17.7475V8.35607H11.7721V7.52119Z" fill="white"/>
</g>
<defs>
<clipPath id="clip0">
<path d="M0 0H24V24H0V0Z" fill="white"/>
</clipPath>
</defs>
</svg>
