<svg width="24" height="24" viewBox="0 0 24 24" fill="none" xmlns="http://www.w3.org/2000/svg">
<g clip-path="url(#clip0)">
<path d="M18.8668 8.78261C18.7217 8.78261 18.5826 8.84023 18.4801 8.94278C18.3775 9.04534 18.3199 9.18444 18.3199 9.32947V12.3336H5.9863V6.70089C5.9863 6.55585 5.92869 6.41675 5.82613 6.31419C5.72357 6.21164 5.58448 6.15402 5.43944 6.15402C5.2944 6.15402 5.15531 6.21164 5.05275 6.31419C4.95019 6.41675 4.89258 6.55585 4.89258 6.70089V16.5663C4.89258 16.7113 4.95019 16.8504 5.05275 16.953C5.15531 17.0555 5.2944 17.1132 5.43944 17.1132C5.58448 17.1132 5.72357 17.0555 5.82613 16.953C5.92869 16.8504 5.9863 16.7113 5.9863 16.5663V15.6366H18.3199V16.5663C18.3199 16.7113 18.3775 16.8504 18.4801 16.953C18.5826 17.0555 18.7217 17.1132 18.8668 17.1132C19.0118 17.1132 19.1509 17.0555 19.2534 16.953C19.356 16.8504 19.4136 16.7113 19.4136 16.5663V9.32947C19.4136 9.18444 19.356 9.04534 19.2534 8.94278C19.1509 8.84023 19.0118 8.78261 18.8668 8.78261ZM5.9863 14.5429V13.4273H18.3199V14.521L5.9863 14.5429Z" fill="#FD5F00"/>
<path d="M7.99508 10.9263C8.29881 10.927 8.59591 10.8376 8.8488 10.6694C9.10168 10.5012 9.29898 10.2617 9.41571 9.98134C9.53244 9.70094 9.56335 9.39222 9.50454 9.09425C9.44573 8.79627 9.29984 8.52244 9.08533 8.30743C8.87082 8.09241 8.59734 7.94586 8.29951 7.88634C8.00168 7.82682 7.69288 7.85701 7.41221 7.97307C7.13154 8.08913 6.89161 8.28585 6.72279 8.53834C6.55398 8.79082 6.46387 9.08772 6.46387 9.39144C6.46483 9.79759 6.62634 10.1869 6.91319 10.4744C7.20004 10.7619 7.58894 10.9244 7.99508 10.9263ZM7.99508 8.95395C8.08264 8.95323 8.16843 8.97858 8.24153 9.02677C8.31463 9.07497 8.37173 9.14383 8.40557 9.22458C8.43941 9.30534 8.44846 9.39433 8.43155 9.48024C8.41465 9.56615 8.37256 9.64509 8.31065 9.707C8.24873 9.76892 8.1698 9.811 8.08389 9.82791C7.99798 9.84481 7.90898 9.83577 7.82822 9.80193C7.74747 9.76809 7.67861 9.71099 7.63042 9.63789C7.58222 9.56479 7.55687 9.479 7.55759 9.39144C7.55855 9.27571 7.60494 9.16498 7.68678 9.08314C7.76862 9.0013 7.87935 8.9549 7.99508 8.95395V8.95395Z" fill="#FD5F00"/>
<path d="M11.0685 11.743H16.6575C16.8117 11.7454 16.9649 11.7171 17.1081 11.6597C17.2513 11.6024 17.3817 11.5171 17.4916 11.4089C17.6016 11.3006 17.6889 11.1716 17.7485 11.0293C17.808 10.887 17.8387 10.7342 17.8387 10.58V9.94197C17.8387 9.78942 17.8086 9.63836 17.7501 9.49746C17.6916 9.35657 17.6059 9.2286 17.4978 9.1209C17.3898 9.01319 17.2616 8.92787 17.1205 8.86982C16.9794 8.81178 16.8283 8.78214 16.6757 8.78262H11.0685C10.7611 8.78262 10.4662 8.90477 10.2487 9.12219C10.0313 9.33961 9.90918 9.63449 9.90918 9.94197V10.58C9.90918 10.8878 10.0312 11.1831 10.2485 11.4011C10.4658 11.6191 10.7607 11.742 11.0685 11.743V11.743ZM11.0029 9.94197C11.0029 9.92457 11.0098 9.90788 11.0221 9.89557C11.0344 9.88326 11.0511 9.87635 11.0685 9.87635H16.6575C16.6752 9.87632 16.6923 9.88312 16.7052 9.89533C16.7181 9.90754 16.7258 9.92424 16.7267 9.94197V10.58C16.7259 10.5981 16.7183 10.6152 16.7055 10.628C16.6927 10.6408 16.6756 10.6484 16.6575 10.6492H11.0685C11.0508 10.6483 11.0341 10.6406 11.0219 10.6277C11.0097 10.6148 11.0029 10.5977 11.0029 10.58V9.94197Z" fill="#FD5F00"/>
</g>
<defs>
<clipPath id="clip0">
<path d="M0 0H24V24H0V0Z" fill="white"/>
</clipPath>
</defs>
</svg>
