<svg width="24" height="24" viewBox="0 0 24 24" fill="none" xmlns="http://www.w3.org/2000/svg">
<g clip-path="url(#clip0)">
<path d="M9.36228 10.5107H8.54563V9.69405C8.54563 9.59736 8.50722 9.50463 8.43885 9.43626C8.37048 9.36789 8.27774 9.32948 8.18105 9.32948C8.08436 9.32948 7.99163 9.36789 7.92326 9.43626C7.85489 9.50463 7.81648 9.59736 7.81648 9.69405V10.5107H6.99983C6.90314 10.5107 6.81041 10.5491 6.74204 10.6175C6.67366 10.6859 6.63525 10.7786 6.63525 10.8753C6.63525 10.972 6.67366 11.0647 6.74204 11.1331C6.81041 11.2014 6.90314 11.2399 6.99983 11.2399H7.81648V12.0565C7.81648 12.1532 7.85489 12.2459 7.92326 12.3143C7.99163 12.3827 8.08436 12.4211 8.18105 12.4211C8.27774 12.4211 8.37048 12.3827 8.43885 12.3143C8.50722 12.2459 8.54563 12.1532 8.54563 12.0565V11.2399H9.36228C9.45897 11.2399 9.5517 11.2014 9.62007 11.1331C9.68844 11.0647 9.72685 10.972 9.72685 10.8753C9.72685 10.7786 9.68844 10.6859 9.62007 10.6175C9.5517 10.5491 9.45897 10.5107 9.36228 10.5107V10.5107Z" fill="#FD5F00"/>
<path d="M17.2263 10.6165C17.1851 10.5739 17.1358 10.5401 17.0814 10.5169C17.0269 10.4938 16.9683 10.4819 16.9091 10.4819C16.8499 10.4819 16.7913 10.4938 16.7368 10.5169C16.6823 10.5401 16.633 10.5739 16.5919 10.6165C16.5072 10.7047 16.46 10.8223 16.46 10.9446C16.46 11.0669 16.5072 11.1844 16.5919 11.2727C16.6337 11.3155 16.6836 11.3495 16.7387 11.3727C16.7938 11.3959 16.8529 11.4078 16.9127 11.4078C16.9725 11.4078 17.0317 11.3959 17.0868 11.3727C17.1419 11.3495 17.1918 11.3155 17.2336 11.2727C17.276 11.2304 17.3097 11.1801 17.3326 11.1247C17.3556 11.0693 17.3674 11.01 17.3674 10.95C17.3674 10.8901 17.3556 10.8307 17.3326 10.7754C17.3097 10.72 17.276 10.6697 17.2336 10.6274L17.2263 10.6165Z" fill="#FD5F00"/>
<path d="M14.8747 10.6164C14.8339 10.574 14.7849 10.5402 14.7307 10.5171C14.6765 10.4941 14.6182 10.4822 14.5593 10.4822C14.5004 10.4822 14.4421 10.4941 14.388 10.5171C14.3338 10.5402 14.2848 10.574 14.244 10.6164C14.1585 10.7042 14.1106 10.822 14.1106 10.9446C14.1106 11.0671 14.1585 11.1849 14.244 11.2727C14.2855 11.3157 14.3354 11.3499 14.3905 11.3731C14.4457 11.3963 14.505 11.408 14.5648 11.4076C14.6548 11.4067 14.7426 11.3795 14.8172 11.3292C14.8919 11.2789 14.9501 11.2077 14.9847 11.1246C15.0192 11.0415 15.0286 10.9501 15.0117 10.8617C14.9947 10.7733 14.9521 10.6918 14.8893 10.6274L14.8747 10.6164Z" fill="#FD5F00"/>
<path d="M15.407 11.8159C15.3647 11.8579 15.3311 11.9079 15.3082 11.963C15.2852 12.018 15.2734 12.0771 15.2734 12.1367C15.2734 12.1964 15.2852 12.2554 15.3082 12.3105C15.3311 12.3656 15.3647 12.4155 15.407 12.4576C15.4485 12.5006 15.4984 12.5348 15.5536 12.558C15.6087 12.5812 15.668 12.5929 15.7278 12.5924C15.7882 12.5926 15.8479 12.5807 15.9036 12.5575C15.9593 12.5344 16.0098 12.5004 16.0523 12.4576L16.0742 12.4357C16.1167 12.3945 16.1506 12.3453 16.1737 12.2908C16.1968 12.2363 16.2087 12.1777 16.2087 12.1185C16.2087 12.0593 16.1968 12.0007 16.1737 11.9462C16.1506 11.8917 16.1167 11.8425 16.0742 11.8013C15.9835 11.7153 15.8626 11.6686 15.7376 11.6713C15.6126 11.674 15.4938 11.726 15.407 11.8159V11.8159Z" fill="#FD5F00"/>
<path d="M15.407 9.46436C15.3438 9.52808 15.3009 9.60903 15.2835 9.69706C15.2662 9.78509 15.2752 9.87628 15.3094 9.95921C15.3437 10.0421 15.4017 10.1131 15.4761 10.1632C15.5505 10.2133 15.6381 10.2403 15.7278 10.2409C15.8489 10.2409 15.9652 10.1938 16.0523 10.1097L16.0741 10.0841C16.1166 10.0433 16.1504 9.99434 16.1734 9.94015C16.1965 9.88596 16.2084 9.82767 16.2084 9.76878C16.2084 9.70988 16.1965 9.65159 16.1734 9.5974C16.1504 9.54321 16.1166 9.49424 16.0741 9.45342C16.0297 9.41015 15.9772 9.37609 15.9195 9.3532C15.8619 9.33032 15.8003 9.31906 15.7383 9.32008C15.6763 9.32109 15.6151 9.33437 15.5582 9.35913C15.5014 9.38389 15.45 9.41965 15.407 9.46436Z" fill="#FD5F00"/>
<path d="M18.6627 8.93574C18.2106 7.09099 17.1315 6.71183 15.655 6.71183C15.1099 6.72719 14.5754 6.8665 14.0922 7.11917C13.6089 7.37184 13.1896 7.73125 12.866 8.17013H11.0066C10.6826 7.73165 10.2632 7.37253 9.78001 7.1199C9.29685 6.86726 8.7626 6.72773 8.21762 6.71183C6.75932 6.71183 5.66559 7.07641 5.20987 8.93574C4.90727 9.90551 4.33124 14.6632 5.65465 16.4861C5.82089 16.7308 6.04417 16.9313 6.30522 17.0704C6.56628 17.2095 6.85726 17.283 7.15306 17.2845C8.80458 17.2845 9.953 15.52 10.4342 13.6388H13.1649C13.8612 15.4179 14.7144 17.2845 16.7268 17.2845C17.0557 17.2888 17.3807 17.2123 17.6731 17.0616C17.9655 16.911 18.2164 16.6908 18.4039 16.4205C19.8476 14.4226 18.8705 9.61385 18.6627 8.93574ZM17.5106 15.7752C17.4258 15.9068 17.3084 16.0142 17.1698 16.0871C17.0311 16.1599 16.876 16.1956 16.7195 16.1908C15.418 16.1908 14.8128 14.8856 14.0399 12.9096C14.0025 12.8038 13.9335 12.7121 13.8421 12.6469C13.7508 12.5817 13.6417 12.5461 13.5295 12.545H9.98581C9.86004 12.5467 9.73863 12.5914 9.64179 12.6716C9.54495 12.7519 9.47851 12.8629 9.45353 12.9862C9.15093 14.5393 8.24314 16.1908 7.1567 16.1908C7.03148 16.1897 6.90879 16.1554 6.80118 16.0913C6.69356 16.0272 6.60489 15.9358 6.54422 15.8262C5.51976 14.419 5.98277 10.0951 6.25985 9.23469V9.19459C6.52963 8.07899 6.93067 7.79097 8.21033 7.79097C8.61065 7.80507 9.00135 7.91755 9.34789 8.11848C9.69443 8.31941 9.98614 8.6026 10.1973 8.94303C10.2424 9.03507 10.3124 9.11258 10.3994 9.16673C10.4865 9.22088 10.5869 9.24948 10.6894 9.24927H13.1686C13.271 9.24906 13.3713 9.22028 13.4582 9.16618C13.5452 9.11208 13.6153 9.0348 13.6607 8.94303C13.8739 8.60481 14.1669 8.32418 14.514 8.12583C14.8611 7.92748 15.2517 7.81749 15.6513 7.80556C16.931 7.80556 17.332 8.09357 17.6018 9.20917V9.24927C17.9007 10.1243 18.5679 14.346 17.5106 15.7752Z" fill="#FD5F00"/>
</g>
<defs>
<clipPath id="clip0">
<path d="M0 0H24V24H0V0Z" fill="white"/>
</clipPath>
</defs>
</svg>
