<svg width="25" height="24" viewBox="0 0 25 24" fill="none" xmlns="http://www.w3.org/2000/svg">
<path d="M17.55 6.02158C16.7523 5.3113 15.7271 4.9509 14.6529 5.00689C13.5787 5.06637 12.599 5.53873 11.8852 6.33299L7.01818 11.7669C5.54512 13.4149 5.68508 15.9551 7.33309 17.4317C8.09586 18.114 9.05108 18.4499 10.0063 18.4499C11.105 18.4499 12.2036 18.002 12.9944 17.1168L17.858 11.6864C18.5158 10.9551 18.8797 10.0069 18.8797 9.0132C18.8797 7.86904 18.3968 6.77736 17.55 6.02158ZM17.0777 10.9866L14.9608 13.3519L10.5486 9.39808L12.669 7.03278C13.1938 6.44846 13.9181 6.09856 14.7089 6.05657C14.7649 6.05308 14.8209 6.05308 14.8768 6.05308C15.6081 6.05308 16.3044 6.3155 16.8503 6.80535C17.4731 7.36169 17.83 8.16645 17.83 9.0132C17.83 9.74798 17.564 10.4478 17.0777 10.9866Z" fill="white"/>
</svg>
