<svg width="24" height="24" viewBox="0 0 24 24" fill="none" xmlns="http://www.w3.org/2000/svg">
<path d="M18.5583 10.79C18.4417 10.4627 18.125 10.25 17.75 10.25H11.7583C11.375 10.25 11.0667 10.4627 10.9417 10.79L9.75 14.1527L9.75833 18.6609C9.75833 18.9718 10.0167 19.25 10.3333 19.25H10.85C11.1667 19.25 11.4167 18.9391 11.4167 18.6282V17.6136H18.0833V18.6282C18.0833 18.9391 18.3417 19.25 18.6583 19.25H19.1667C19.4833 19.25 19.7417 18.9718 19.7417 18.6609L19.75 17.54V14.1527L18.5583 10.79V10.79ZM11.7583 11.0682H17.75L18.6083 13.5227H10.9L11.7583 11.0682V11.0682ZM11.4167 15.9773C10.9583 15.9773 10.5833 15.6091 10.5833 15.1591C10.5833 14.7091 10.9583 14.3409 11.4167 14.3409C11.875 14.3409 12.25 14.7091 12.25 15.1591C12.25 15.6091 11.875 15.9773 11.4167 15.9773ZM18.0833 15.9773C17.625 15.9773 17.25 15.6091 17.25 15.1591C17.25 14.7091 17.625 14.3409 18.0833 14.3409C18.5417 14.3409 18.9167 14.7091 18.9167 15.1591C18.9167 15.6091 18.5417 15.9773 18.0833 15.9773Z" fill="#FD5F00"/>
<path d="M14.1467 9.91667H15.25V4.75H8.25V8.75H4.25V19.25H5.51923V9.91667H9.36538V6.02778H14.1467V9.91667Z" fill="#FD5F00"/>
<path d="M6.75 11.125H8.46429V12.75H6.75V11.125ZM11.0357 7.25H12.75V8.875H11.0357V7.25ZM6.75 14.375H8.46429V16H6.75V14.375ZM6.75 17.625H8.46429V19.25H6.75V17.625Z" fill="#FD5F00"/>
</svg>
