<svg width="64" height="65" viewBox="0 0 64 65" fill="none" xmlns="http://www.w3.org/2000/svg">
<g filter="url(#filter0_d)">
<path d="M32 60C47.464 60 60 47.464 60 32C60 16.536 47.464 4 32 4C16.536 4 4 16.536 4 32C4 47.464 16.536 60 32 60Z" fill="#FD5F00"/>
</g>
<path d="M21.552 35.728L20.224 36.384C20.704 36.864 21.36 37.312 22.16 37.712C20.736 38.032 19.088 38.208 17.216 38.208L17.776 39.68C20.368 39.68 22.56 39.312 24.368 38.576C26.016 39.072 28.08 39.456 30.544 39.728L31.136 38.256C29.248 38.096 27.616 37.856 26.24 37.568C27.072 37.008 27.792 36.304 28.4 35.456H30.016V34.048H21.52C21.616 33.824 21.728 33.616 21.824 33.392L20.24 33.12C19.712 34.368 18.688 35.344 17.184 36.08L18.128 37.264C19.088 36.768 19.904 36.16 20.544 35.456H26.656C26.016 36.096 25.2 36.64 24.224 37.056C23.04 36.672 22.144 36.24 21.552 35.728ZM21.744 25.92V27.088H26.24V25.92H24.768C24.64 25.488 24.528 25.104 24.4 24.768L22.848 25.024C22.976 25.296 23.104 25.6 23.232 25.92H21.744ZM22.176 27.568V28.528H25.824V27.568H22.176ZM22.176 28.976V29.92H25.824V28.976H22.176ZM22.096 30.464V33.2H25.936V30.464H22.096ZM24.704 32.176H23.328V31.376H24.704V32.176ZM26.72 30.976C26.624 31.68 26.448 32.368 26.192 33.008L27.328 33.392C27.552 32.72 27.712 32 27.792 31.248L26.72 30.976ZM29.152 31.088L28.144 31.216C28.176 31.696 28.208 32.4 28.224 33.296L29.392 33.168C29.344 32.288 29.264 31.6 29.152 31.088ZM30.56 30.928L29.552 31.216C29.776 31.888 29.984 32.56 30.16 33.264L31.2 32.88C31.056 32.288 30.848 31.632 30.56 30.928ZM30.384 28.128L29.328 28.496C29.424 28.784 29.536 29.072 29.632 29.376C29.12 29.456 28.592 29.52 28.08 29.584C28.784 28.976 29.664 28 30.736 26.656L29.568 26.224C29.328 26.544 29.104 26.832 28.88 27.12L27.728 27.264C28.24 26.784 28.752 26.16 29.264 25.424L28.016 24.944C27.664 25.6 27.232 26.208 26.752 26.768C26.592 26.992 26.416 27.152 26.224 27.248L26.528 28.352C27.024 28.304 27.52 28.256 28 28.192C27.536 28.72 27.136 29.104 26.816 29.328C26.672 29.472 26.496 29.584 26.304 29.68L26.592 30.72C27.632 30.656 28.752 30.56 29.952 30.416C29.984 30.528 30.016 30.656 30.048 30.8L31.136 30.528C30.928 29.632 30.672 28.832 30.384 28.128ZM17.408 31.104C17.296 31.856 17.12 32.56 16.864 33.232L18 33.632C18.224 32.912 18.368 32.16 18.464 31.376L17.408 31.104ZM19.84 31.168L18.816 31.28C18.864 31.744 18.896 32.4 18.912 33.264L20.032 33.136C20 32.304 19.936 31.648 19.84 31.168ZM21.232 30.976L20.288 31.248C20.464 31.792 20.624 32.368 20.752 32.976L21.744 32.592C21.616 32.112 21.456 31.568 21.232 30.976ZM21.056 28.224L20 28.576C20.096 28.816 20.208 29.072 20.304 29.344C19.824 29.472 19.328 29.568 18.832 29.648C19.536 29.008 20.416 28 21.472 26.624L20.272 26.176C20.048 26.496 19.824 26.8 19.6 27.104C19.264 27.152 18.912 27.2 18.56 27.232C19.04 26.752 19.52 26.144 20 25.44L18.768 24.96C18.432 25.6 18.048 26.192 17.616 26.736C17.456 26.96 17.28 27.12 17.072 27.216L17.392 28.32C17.872 28.256 18.336 28.208 18.784 28.16C18.272 28.768 17.856 29.184 17.52 29.44C17.376 29.584 17.2 29.696 16.992 29.792L17.296 30.832C18.352 30.736 19.456 30.576 20.64 30.352C20.688 30.512 20.736 30.672 20.784 30.864L21.856 30.576C21.632 29.68 21.36 28.896 21.056 28.224ZM33.04 25.36V26.928H39.168V27.904H34.352V34.592H38.88C38.752 35.152 38.544 35.648 38.272 36.064C37.488 35.664 36.768 35.216 36.128 34.72L34.848 35.6C35.536 36.176 36.288 36.688 37.104 37.136C36.08 37.728 34.576 38.08 32.592 38.176L33.328 39.712C35.792 39.44 37.616 38.864 38.768 37.968C41.12 38.992 43.888 39.584 47.072 39.728L47.504 38.112C44.56 38.016 42.016 37.568 39.84 36.736C40.176 36.16 40.432 35.44 40.592 34.592H45.68V27.904H40.832V26.928H46.976V25.36H33.04ZM44.032 33.136H40.784L40.832 32.224V31.92H44.032V33.136ZM39.12 33.136H36.016V31.92H39.168V32.224C39.168 32.528 39.152 32.832 39.12 33.136ZM36.016 30.56V29.344H39.168V30.56H36.016ZM40.832 29.344H44.032V30.56H40.832V29.344Z" fill="white"/>
<defs>
<filter id="filter0_d" x="0" y="1" width="64" height="64" filterUnits="userSpaceOnUse" color-interpolation-filters="sRGB">
<feFlood flood-opacity="0" result="BackgroundImageFix"/>
<feColorMatrix in="SourceAlpha" type="matrix" values="0 0 0 0 0 0 0 0 0 0 0 0 0 0 0 0 0 0 127 0"/>
<feOffset dy="1"/>
<feGaussianBlur stdDeviation="2"/>
<feColorMatrix type="matrix" values="0 0 0 0 0 0 0 0 0 0 0 0 0 0 0 0 0 0 0.25 0"/>
<feBlend mode="normal" in2="BackgroundImageFix" result="effect1_dropShadow"/>
<feBlend mode="normal" in="SourceGraphic" in2="effect1_dropShadow" result="shape"/>
</filter>
</defs>
</svg>
