<svg width="32" height="24" viewBox="0 0 32 24" fill="none" xmlns="http://www.w3.org/2000/svg">
<path d="M32 19.081C32 21.7364 29.7701 23.8987 27.0317 23.8987H0V4.8177C0 2.1623 2.22987 0 4.96825 0H32V19.081Z" fill="white"/>
<path d="M23.1982 14.1873H25.252C25.3107 14.1873 25.4476 14.1684 25.5064 14.1684C25.8976 14.0925 26.2301 13.7511 26.2301 13.2769C26.2301 12.8217 25.8976 12.4803 25.5064 12.3855C25.4476 12.3665 25.3304 12.3665 25.2521 12.3665H23.1984V14.1873H23.1982Z" fill="url(#paint0_linear)"/>
<path d="M25.017 1.61218C23.061 1.61218 21.457 3.14867 21.457 5.0643V8.64915H26.484C26.6014 8.64915 26.7382 8.64915 26.836 8.66806C27.9705 8.72503 28.8116 9.294 28.8116 10.2802C28.8116 11.0579 28.2444 11.7218 27.1881 11.8546V11.8924C28.3421 11.9683 29.2224 12.5942 29.2224 13.5615C29.2224 14.6048 28.2444 15.2876 26.9534 15.2876H21.4375V22.3055H26.66C28.616 22.3055 30.22 20.7691 30.22 18.8534V1.61218H25.017Z" fill="url(#paint1_linear)"/>
<path d="M25.9757 10.508C25.9757 10.0527 25.6432 9.74922 25.252 9.69225C25.213 9.69225 25.1151 9.67334 25.0565 9.67334H23.1982V11.3424H25.0565C25.1152 11.3424 25.2325 11.3424 25.2521 11.3235C25.6434 11.2665 25.9759 10.9632 25.9759 10.5079L25.9757 10.508Z" fill="url(#paint2_linear)"/>
<path d="M5.34024 1.61218C3.38424 1.61218 1.78024 3.14867 1.78024 5.0643V13.5807C2.77787 14.0547 3.81449 14.3582 4.85124 14.3582C6.08349 14.3582 6.74849 13.6375 6.74849 12.6512V8.63012H9.79987V12.6322C9.79987 14.1875 8.80237 15.4584 5.41849 15.4584C3.36474 15.4584 1.76074 15.022 1.76074 15.022V22.2865H6.98324C8.93924 22.2865 10.5432 20.7501 10.5432 18.8344V1.61243H5.34012L5.34024 1.61218Z" fill="url(#paint3_linear)"/>
<path d="M15.1787 1.61218C13.2227 1.61218 11.6187 3.14867 11.6187 5.0643V9.57849C12.5185 8.83873 14.0833 8.36455 16.6065 8.47836C17.9562 8.53533 19.4035 8.8957 19.4035 8.8957V10.3562C18.6798 9.99582 17.8193 9.67327 16.7043 9.59739C14.7874 9.46467 13.6334 10.3751 13.6334 11.9683C13.6334 13.5805 14.7874 14.491 16.7043 14.3392C17.8193 14.2633 18.6799 13.922 19.4035 13.5805V15.041C19.4035 15.041 17.9757 15.4014 16.6065 15.4584C14.0833 15.5721 12.5185 15.0979 11.6188 14.3582V22.3244H16.8413C18.7973 22.3244 20.4012 20.7881 20.4012 18.8723V1.61243H15.1787V1.61218Z" fill="url(#paint4_linear)"/>
<defs>
<linearGradient id="paint0_linear" x1="21.4541" y1="13.2791" x2="30.2441" y2="13.2791" gradientUnits="userSpaceOnUse">
<stop stop-color="#007940"/>
<stop offset="0.2285" stop-color="#00873F"/>
<stop offset="0.7433" stop-color="#40A737"/>
<stop offset="1" stop-color="#5CB531"/>
</linearGradient>
<linearGradient id="paint1_linear" x1="21.4536" y1="11.9506" x2="30.244" y2="11.9506" gradientUnits="userSpaceOnUse">
<stop stop-color="#007940"/>
<stop offset="0.2285" stop-color="#00873F"/>
<stop offset="0.7433" stop-color="#40A737"/>
<stop offset="1" stop-color="#5CB531"/>
</linearGradient>
<linearGradient id="paint2_linear" x1="21.4538" y1="10.5055" x2="30.2443" y2="10.5055" gradientUnits="userSpaceOnUse">
<stop stop-color="#007940"/>
<stop offset="0.2285" stop-color="#00873F"/>
<stop offset="0.7433" stop-color="#40A737"/>
<stop offset="1" stop-color="#5CB531"/>
</linearGradient>
<linearGradient id="paint3_linear" x1="1.7762" y1="11.9506" x2="10.702" y2="11.9506" gradientUnits="userSpaceOnUse">
<stop stop-color="#1F286F"/>
<stop offset="0.4751" stop-color="#004E94"/>
<stop offset="0.8261" stop-color="#0066B1"/>
<stop offset="1" stop-color="#006FBC"/>
</linearGradient>
<linearGradient id="paint4_linear" x1="11.5681" y1="11.9505" x2="20.2372" y2="11.9505" gradientUnits="userSpaceOnUse">
<stop stop-color="#6C2C2F"/>
<stop offset="0.1735" stop-color="#882730"/>
<stop offset="0.5731" stop-color="#BE1833"/>
<stop offset="0.8585" stop-color="#DC0436"/>
<stop offset="1" stop-color="#E60039"/>
</linearGradient>
</defs>
</svg>
