<svg width="30" height="19" viewBox="0 0 30 19" fill="none" xmlns="http://www.w3.org/2000/svg">
<path d="M11.5873 9.20689C11.5873 6.31799 12.918 3.74013 14.9999 2.0521C13.418 0.769338 11.4016 0 9.20609 0C4.12135 0 0 4.12183 0 9.20674C0 14.2915 4.12135 18.413 9.20609 18.413C11.4019 18.413 13.418 17.6441 14.9999 16.3609C12.918 14.6733 11.5873 12.0956 11.5873 9.20689Z" fill="#EA001B"/>
<path d="M20.7933 0C18.5975 0 16.5821 0.769338 14.9995 2.0521C17.0817 3.74013 18.4124 6.31799 18.4124 9.2069C18.4124 12.0956 17.0817 14.6733 14.9995 16.361C16.5821 17.6441 18.5978 18.4131 20.7933 18.4131C25.8784 18.4131 29.9998 14.2916 29.9998 9.2069C29.9998 4.12183 25.8781 0 20.7933 0Z" fill="#F79F1A"/>
<path d="M18.4129 9.2068C18.4129 6.31789 17.0822 3.74003 15 2.052C12.9182 3.74003 11.5874 6.31789 11.5874 9.2068C11.5874 12.0955 12.9181 14.6732 15 16.3609C17.0821 14.6732 18.4129 12.0955 18.4129 9.2068Z" fill="#FF5F01"/>
</svg>
