<svg width="32" height="10" viewBox="0 0 32 10" fill="none" xmlns="http://www.w3.org/2000/svg">
<path d="M16.5496 3.18418C16.5314 4.57165 17.8325 5.34587 18.8126 5.80623C19.8196 6.27852 20.1579 6.58141 20.1539 7.00382C20.1464 7.6502 19.3506 7.9355 18.606 7.94659C17.3069 7.96599 16.5515 7.60852 15.951 7.33816L15.483 9.44888C16.0855 9.71647 17.2011 9.94984 18.358 9.96008C21.0736 9.96008 22.8503 8.66803 22.8599 6.66478C22.8705 4.12237 19.2114 3.98165 19.2364 2.84526C19.245 2.50069 19.5861 2.13297 20.3336 2.03948C20.7036 1.99225 21.725 1.95611 22.883 2.47008L23.3375 0.427915C22.7148 0.20936 21.9144 8.29697e-05 20.9179 8.29697e-05C18.3619 8.29697e-05 16.5641 1.30972 16.5496 3.18418ZM27.7048 0.175986C27.2089 0.175986 26.791 0.454782 26.6045 0.882612L22.7254 9.81008H25.439L25.979 8.37165H29.295L29.6082 9.81008H32L29.9129 0.175986H27.7048ZM28.0844 2.77852L28.8675 6.39623H26.7227L28.0844 2.77852ZM13.2595 0.176106L11.1205 9.80996H13.7064L15.8444 0.175866H13.2595V0.176106ZM9.43412 0.175866L6.74263 6.73334L5.65387 1.15779C5.52612 0.535384 5.02163 0.175986 4.46138 0.175986H0.061625L0 0.455746C0.90325 0.644661 1.9295 0.94936 2.55125 1.27538C2.93175 1.47454 3.04025 1.64864 3.16525 2.12189L5.22738 9.81008H7.96L12.1495 0.175986H9.43412" fill="url(#paint0_linear)"/>
<defs>
<linearGradient id="paint0_linear" x1="14.7117" y1="10.1599" x2="14.9896" y2="-0.0697617" gradientUnits="userSpaceOnUse">
<stop stop-color="#222357"/>
<stop offset="1" stop-color="#254AA5"/>
</linearGradient>
</defs>
</svg>
