<svg width="96" height="96" viewBox="0 0 96 96" fill="none" xmlns="http://www.w3.org/2000/svg">
<g clip-path="url(#clip0)">
<path d="M75.467 35.1304C74.8869 35.1304 74.3305 35.3609 73.9202 35.7711C73.51 36.1814 73.2796 36.7377 73.2796 37.3179V49.3343H23.9452V26.8035C23.9452 26.2234 23.7148 25.667 23.3045 25.2568C22.8943 24.8466 22.3379 24.6161 21.7578 24.6161C21.1776 24.6161 20.6212 24.8466 20.211 25.2568C19.8008 25.667 19.5703 26.2234 19.5703 26.8035V66.2652C19.5703 66.8453 19.8008 67.4017 20.211 67.8119C20.6212 68.2222 21.1776 68.4526 21.7578 68.4526C22.3379 68.4526 22.8943 68.2222 23.3045 67.8119C23.7148 67.4017 23.9452 66.8453 23.9452 66.2652V62.5465H73.2796V66.2652C73.2796 66.8453 73.51 67.4017 73.9202 67.8119C74.3305 68.2222 74.8869 68.4526 75.467 68.4526C76.0472 68.4526 76.6036 68.2222 77.0138 67.8119C77.424 67.4017 77.6545 66.8453 77.6545 66.2652V37.3179C77.6545 36.7377 77.424 36.1814 77.0138 35.7711C76.6036 35.3609 76.0472 35.1304 75.467 35.1304ZM23.9452 58.1716V53.7092H73.2796V58.0841L23.9452 58.1716Z" fill="#E473FF"/>
<path d="M31.9803 43.7053C33.1952 43.7081 34.3837 43.3505 35.3952 42.6777C36.4067 42.0048 37.1959 41.047 37.6628 39.9254C38.1298 38.8038 38.2534 37.5689 38.0182 36.377C37.7829 35.1851 37.1994 34.0898 36.3413 33.2297C35.4833 32.3697 34.3894 31.7835 33.198 31.5454C32.0067 31.3073 30.7715 31.4281 29.6488 31.8923C28.5261 32.3566 27.5664 33.1435 26.8912 34.1534C26.2159 35.1633 25.8555 36.3509 25.8555 37.5658C25.8593 39.1904 26.5054 40.7476 27.6528 41.8977C28.8001 43.0478 30.3558 43.6976 31.9803 43.7053ZM31.9803 35.8158C32.3306 35.813 32.6737 35.9144 32.9661 36.1071C33.2585 36.2999 33.4869 36.5754 33.6223 36.8984C33.7577 37.2214 33.7938 37.5774 33.7262 37.921C33.6586 38.2647 33.4902 38.5804 33.2426 38.8281C32.9949 39.0757 32.6792 39.2441 32.3355 39.3117C31.9919 39.3793 31.6359 39.3431 31.3129 39.2078C30.9899 39.0724 30.7145 38.844 30.5217 38.5516C30.3289 38.2592 30.2275 37.916 30.2304 37.5658C30.2342 37.1029 30.4198 36.66 30.7471 36.3326C31.0745 36.0053 31.5174 35.8197 31.9803 35.8158V35.8158Z" fill="#E473FF"/>
<path d="M44.2741 46.9719H66.6299C67.2469 46.9816 67.8597 46.8684 68.4325 46.639C69.0054 46.4095 69.5268 46.0684 69.9666 45.6354C70.4063 45.2025 70.7555 44.6864 70.9938 44.1172C71.2321 43.548 71.3549 42.937 71.3548 42.3199V39.7679C71.3548 39.1577 71.2343 38.5535 71.0004 37.9899C70.7664 37.4263 70.4235 36.9144 69.9914 36.4836C69.5592 36.0528 69.0462 35.7115 68.4819 35.4793C67.9176 35.2471 67.313 35.1286 66.7028 35.1305H44.2741C43.0442 35.1305 41.8647 35.6191 40.995 36.4888C40.1253 37.3585 39.6367 38.538 39.6367 39.7679V42.3199C39.6367 43.5512 40.1248 44.7322 40.9941 45.6042C41.8634 46.4762 43.0429 46.9681 44.2741 46.9719V46.9719ZM44.0116 39.7679C44.0116 39.6983 44.0393 39.6315 44.0885 39.5823C44.1377 39.5331 44.2045 39.5054 44.2741 39.5054H66.6299C66.7009 39.5053 66.7693 39.5325 66.8208 39.5814C66.8724 39.6302 66.9032 39.697 66.907 39.7679V42.3199C66.9034 42.3923 66.8731 42.4607 66.8219 42.5119C66.7707 42.5632 66.7022 42.5935 66.6299 42.597H44.2741C44.2032 42.5933 44.1364 42.5624 44.0876 42.5109C44.0387 42.4593 44.0115 42.391 44.0116 42.3199V39.7679Z" fill="#E473FF"/>
</g>
<defs>
<clipPath id="clip0">
<path d="M0 0H96V96H0V0Z" fill="white"/>
</clipPath>
</defs>
</svg>
