<svg width="96" height="96" viewBox="0 0 96 96" fill="none" xmlns="http://www.w3.org/2000/svg">
<g clip-path="url(#clip0)">
<path d="M22.0641 53.6217H49.0718C49.6133 53.6217 50.1326 53.4066 50.5155 53.0237C50.8983 52.6409 51.1134 52.1216 51.1134 51.5801C51.1134 42.3636 46.4469 38.2512 35.9617 38.2512C24.7911 38.2512 20.0225 42.2324 20.0225 51.5801C20.0225 52.1216 20.2376 52.6409 20.6204 53.0237C21.0033 53.4066 21.5226 53.6217 22.0641 53.6217ZM35.9617 42.3345C44.1573 42.3345 46.5052 44.8573 46.9573 49.5385H24.1932C24.689 44.7552 27.1244 42.3345 35.9617 42.3345V42.3345Z" fill="#E473FF"/>
<path d="M49.0717 63.2757H22.0639C21.7909 63.2755 21.5205 63.3302 21.2689 63.4364C21.0174 63.5427 20.7896 63.6983 20.5993 63.8941C20.4089 64.0899 20.2598 64.3219 20.1607 64.5764C20.0616 64.8309 20.0145 65.1026 20.0223 65.3756C20.0223 73.5859 27.693 74.6796 35.1887 74.6796C43.4572 74.6796 51.1133 73.5567 51.1133 65.3756C51.1211 65.1026 51.0741 64.8309 50.975 64.5764C50.8759 64.3219 50.7267 64.0899 50.5364 63.8941C50.346 63.6983 50.1183 63.5427 49.8667 63.4364C49.6151 63.3302 49.3448 63.2755 49.0717 63.2757V63.2757ZM35.1887 70.5672C27.343 70.5672 24.9805 69.1089 24.3826 67.3735H46.7384C46.0238 69.0359 43.6468 70.5526 35.1887 70.5526V70.5672Z" fill="#E473FF"/>
<path d="M51.3174 56.6257H19.8326C19.3492 56.6257 18.8855 56.8178 18.5437 57.1597C18.2018 57.5015 18.0098 57.9652 18.0098 58.4486C18.0098 58.9321 18.2018 59.3957 18.5437 59.7376C18.8855 60.0794 19.3492 60.2715 19.8326 60.2715H51.3174C51.8008 60.2715 52.2645 60.0794 52.6064 59.7376C52.9482 59.3957 53.1403 58.9321 53.1403 58.4486C53.1403 57.9652 52.9482 57.5015 52.6064 57.1597C52.2645 56.8178 51.8008 56.6257 51.3174 56.6257V56.6257Z" fill="#E473FF"/>
<path d="M73.0316 26.0016H61.4819L61.9631 23.6391L69.2546 22.0933C69.7284 21.9947 70.1436 21.7119 70.4089 21.3071C70.6742 20.9024 70.7678 20.4088 70.6692 19.935C70.5705 19.4612 70.2877 19.046 69.883 18.7808C69.4782 18.5155 68.9847 18.4219 68.5109 18.5205L60.009 20.3142C59.6463 20.3797 59.3122 20.5544 59.0516 20.8151C58.7909 21.0757 58.6162 21.4098 58.5507 21.7725L57.7632 26.0016H45.1052C44.8365 25.9996 44.5701 26.0511 44.3216 26.153C44.073 26.2549 43.8472 26.4052 43.6572 26.5952C43.4672 26.7852 43.3169 27.011 43.215 27.2596C43.1131 27.5082 43.0616 27.7745 43.0635 28.0432V35.4659C43.0635 36.0074 43.2786 36.5267 43.6615 36.9096C44.0444 37.2925 44.5637 37.5076 45.1052 37.5076H68.5401L65.2589 67.2569H56.057C55.7889 67.2569 55.5234 67.3097 55.2757 67.4123C55.028 67.5149 54.8029 67.6653 54.6134 67.8549C54.4238 68.0445 54.2734 68.2695 54.1708 68.5172C54.0682 68.7649 54.0154 69.0304 54.0154 69.2985C54.0154 69.5667 54.0682 69.8321 54.1708 70.0798C54.2734 70.3275 54.4238 70.5526 54.6134 70.7422C54.8029 70.9318 55.028 71.0821 55.2757 71.1847C55.5234 71.2874 55.7889 71.3402 56.057 71.3402H67.0963C67.5985 71.3363 68.0819 71.1487 68.4554 70.8129C68.8288 70.4771 69.0664 70.0162 69.1234 69.5173L72.6525 37.4346H73.0316C73.5731 37.4346 74.0924 37.2196 74.4753 36.8367C74.8581 36.4538 75.0732 35.9345 75.0732 35.393V27.9994C75.0618 27.4656 74.8417 26.9575 74.46 26.584C74.0784 26.2105 73.5656 26.0014 73.0316 26.0016ZM47.0884 30.0848H70.99V33.4243H47.0884V30.0848Z" fill="#E473FF"/>
</g>
<defs>
<clipPath id="clip0">
<path d="M0 0H96V96H0V0Z" fill="white"/>
</clipPath>
</defs>
</svg>
