<svg width="96" height="96" viewBox="0 0 96 96" fill="none" xmlns="http://www.w3.org/2000/svg">
<g clip-path="url(#clip0)">
<path d="M67.9568 53.1989C69.0171 51.316 69.8075 49.2935 70.3047 47.1907C71.5452 46.9472 72.6627 46.2803 73.466 45.3041C74.2692 44.3279 74.7084 43.1029 74.7084 41.8387C74.7084 40.5745 74.2692 39.3495 73.466 38.3733C72.6627 37.397 71.5452 36.7302 70.3047 36.4867C69.2879 32.1437 67.0278 28.1911 63.8006 25.112C64.1959 23.9297 64.1731 22.6476 63.736 21.4802C63.299 20.3127 62.4742 19.3308 61.3998 18.6988C60.3253 18.0667 59.0664 17.8229 57.8336 18.0082C56.6009 18.1934 55.4692 18.7964 54.6279 19.7163C50.4338 18.4168 45.9551 18.3459 41.7219 19.5121L41.2699 19.6579C40.4317 18.7773 39.3226 18.203 38.1197 18.0265C36.9169 17.85 35.6896 18.0815 34.6337 18.6841C33.5778 19.2868 32.7543 20.2257 32.2945 21.3512C31.8348 22.4766 31.7653 23.7237 32.0972 24.8932C30.3636 26.4833 28.8877 28.3331 27.7223 30.3764C26.6133 32.3181 25.7929 34.4108 25.2869 36.5888C24.3259 36.8394 23.4497 37.343 22.7494 38.0471C22.0713 38.7336 21.5879 39.5882 21.349 40.5231C21.1101 41.4581 21.1242 42.4398 21.3899 43.3675C21.6556 44.2952 22.1633 45.1355 22.861 45.8022C23.5586 46.4689 24.421 46.9381 25.3598 47.1615C25.3598 47.424 25.4619 47.6719 25.5348 47.9344C26.6645 52.0651 28.9335 55.7946 32.0826 58.6967C31.8293 59.5116 31.7708 60.3746 31.9117 61.2162C32.0527 62.0579 32.3892 62.8547 32.8941 63.5427C33.3991 64.2306 34.0585 64.7905 34.8192 65.1772C35.5799 65.564 36.4208 65.7668 37.2741 65.7694C38.0537 65.7692 38.8245 65.6041 39.5358 65.2849C40.247 64.9658 40.8827 64.4997 41.4011 63.9174C42.1594 64.1361 42.8594 64.3257 43.7052 64.4715L42.9178 70.6985H27.8389C27.2588 70.6985 26.7024 70.9289 26.2922 71.3392C25.8819 71.7494 25.6515 72.3058 25.6515 72.8859C25.6515 73.4661 25.8819 74.0225 26.2922 74.4327C26.7024 74.8429 27.2588 75.0734 27.8389 75.0734H68.1464C68.7265 75.0734 69.2829 74.8429 69.6931 74.4327C70.1034 74.0225 70.3338 73.4661 70.3338 72.8859C70.3338 72.3058 70.1034 71.7494 69.6931 71.3392C69.2829 70.9289 68.7265 70.6985 68.1464 70.6985H53.0675L52.28 64.4132C53.0529 64.2674 53.7384 64.0632 54.555 63.8445C55.3904 64.7896 56.5276 65.4159 57.773 65.6168C59.0183 65.8176 60.2947 65.5806 61.3849 64.9461C62.4752 64.3116 63.3117 63.3188 63.7522 62.1367C64.1926 60.9547 64.2098 59.6566 63.8006 58.4633C65.4365 56.9216 66.8368 55.1478 67.9568 53.1989V53.1989ZM71.8213 41.8241C71.8271 42.1584 71.7661 42.4905 71.6417 42.8008C71.5174 43.1112 71.3322 43.3935 71.0972 43.6313C70.8621 43.8691 70.5819 44.0574 70.273 44.1854C69.9641 44.3133 69.6328 44.3781 69.2984 44.3761V44.3761C68.9683 44.3792 68.6408 44.3163 68.3353 44.1911C68.0298 44.0659 67.7524 43.8809 67.5193 43.647C67.0416 43.1773 66.769 42.5378 66.761 41.8679C66.7571 41.5334 66.8194 41.2015 66.9443 40.8912C67.0692 40.5809 67.2542 40.2984 67.4887 40.0599C67.7231 39.8214 68.0024 39.6315 68.3105 39.5014C68.6186 39.3712 68.9494 39.3031 69.2838 39.3012V39.3012C69.952 39.3087 70.5909 39.5765 71.0647 40.0476C71.5385 40.5187 71.8099 41.156 71.8213 41.8241ZM58.6966 20.8683C59.1362 20.8727 59.5676 20.9881 59.9507 21.2037C60.5199 21.5205 60.9474 22.0418 61.1465 22.662C61.3222 23.3112 61.2331 24.0035 60.8986 24.587C60.5903 25.1632 60.0657 25.5933 59.4403 25.7828C59.1199 25.8728 58.7849 25.8985 58.4545 25.8585C58.1242 25.8184 57.805 25.7134 57.5154 25.5495V25.5495C57.023 25.2752 56.636 24.8448 56.4154 24.3263C56.1947 23.8077 56.153 23.2304 56.2967 22.6855C56.4405 22.1406 56.7615 21.6591 57.2093 21.3168C57.657 20.9746 58.2059 20.7911 58.7695 20.7954L58.6966 20.8683ZM36.1221 21.2329C36.7007 20.9182 37.3791 20.8409 38.0137 21.0173C38.6484 21.1937 39.1895 21.61 39.5228 22.1781C39.8561 22.7462 39.9555 23.4217 39.7998 24.0617C39.6441 24.7018 39.2457 25.2562 38.6887 25.6078V25.6078C38.401 25.7894 38.0798 25.9113 37.7441 25.9662C37.4084 26.0212 37.0651 26.008 36.7346 25.9277C36.404 25.8473 36.093 25.7012 35.8201 25.4983C35.5471 25.2953 35.3177 25.0395 35.1456 24.7461C34.9735 24.4527 34.8621 24.1277 34.8181 23.7903C34.7741 23.453 34.7984 23.1103 34.8895 22.7826C34.9805 22.4548 35.1366 22.1488 35.3484 21.8825C35.5601 21.6163 35.8232 21.3954 36.1221 21.2329V21.2329ZM24.164 41.8824C24.1622 41.5468 24.227 41.2142 24.3547 40.9038C24.4824 40.5934 24.6703 40.3114 24.9077 40.0741C25.1391 39.837 25.4158 39.6488 25.7215 39.521C26.0272 39.3933 26.3555 39.3284 26.6869 39.3304V39.3304C27.0182 39.3285 27.3466 39.3918 27.6534 39.5169C27.9603 39.6419 28.2394 39.8261 28.4751 40.059C28.7107 40.2919 28.8981 40.569 29.0267 40.8743C29.1552 41.1797 29.2224 41.5074 29.2243 41.8387C29.2321 42.1739 29.1715 42.5071 29.0462 42.818C28.9208 43.1289 28.7333 43.411 28.4952 43.647C28.0255 44.1247 27.3859 44.3973 26.716 44.4053C26.0442 44.4053 25.3995 44.1405 24.9217 43.6682C24.4439 43.1959 24.1717 42.5542 24.164 41.8824ZM36.1075 62.4591C35.6226 62.1814 35.2428 61.7515 35.0273 61.2359C34.8117 60.7204 34.7723 60.1481 34.9153 59.6079C35.0582 59.0677 35.3755 58.5898 35.8178 58.2484C36.2602 57.9069 36.8028 57.7211 37.3616 57.7196C37.8001 57.7189 38.2315 57.8293 38.6158 58.0404C39.1187 58.4093 39.4682 58.9506 39.5974 59.5608C39.7266 60.171 39.6266 60.8074 39.3163 61.3486C39.0061 61.8897 38.5074 62.2976 37.9155 62.4944C37.3236 62.6911 36.68 62.663 36.1075 62.4153V62.4591ZM50.1363 70.6839H45.8635L46.5927 64.8507H47.8322C48.3572 64.8507 48.8822 64.8507 49.3926 64.8507L50.1363 70.6839ZM49.4801 41.6783C49.4801 41.2915 49.3265 40.9206 49.053 40.6471C48.7795 40.3736 48.4086 40.22 48.0218 40.22C47.635 40.22 47.2641 40.3736 46.9906 40.6471C46.7172 40.9206 46.5635 41.2915 46.5635 41.6783L45.951 46.4178C44.8528 45.946 43.9509 45.1097 43.3977 44.0501C42.8446 42.9905 42.674 41.7725 42.9148 40.6017C43.1556 39.4309 43.7931 38.3791 44.7195 37.6238C45.6459 36.8685 46.8046 36.4561 47.9999 36.4561C49.1952 36.4561 50.3539 36.8685 51.2804 37.6238C52.2068 38.3791 52.8442 39.4309 53.085 40.6017C53.3259 41.7725 53.1553 42.9905 52.6021 44.0501C52.049 45.1097 51.1471 45.946 50.0488 46.4178L49.4801 41.6783ZM48.8822 60.4612C48.3135 60.4612 47.7447 60.4612 47.176 60.4612L48.0218 53.6072L48.8822 60.4612ZM50.6322 50.9093C52.8586 50.2808 54.7824 48.8679 56.0483 46.9316C57.3143 44.9953 57.8369 42.6663 57.5196 40.3747C57.2024 38.0832 56.0667 35.9838 54.3222 34.4642C52.5778 32.9447 50.3425 32.1076 48.0291 32.1076C45.7157 32.1076 43.4804 32.9447 41.736 34.4642C39.9915 35.9838 38.8558 38.0832 38.5386 40.3747C38.2213 42.6663 38.7439 44.9953 40.0099 46.9316C41.2758 48.8679 43.1996 50.2808 45.426 50.9093L44.274 60.1404C43.7782 60.0383 43.2969 59.9216 42.8157 59.7758C42.7358 58.907 42.4475 58.0702 41.9753 57.3365C41.5031 56.6029 40.8609 55.9939 40.1032 55.5613C39.3396 55.1312 38.4833 54.892 37.6073 54.8641C36.7313 54.8362 35.8616 55.0203 35.0721 55.4009C32.5724 53.0595 30.7704 50.0712 29.866 46.7678C29.866 46.6511 29.866 46.5344 29.7785 46.4032C30.0875 46.1987 30.3757 45.9642 30.6389 45.7032C31.1428 45.1952 31.5404 44.5917 31.8084 43.9281C32.0763 43.2646 32.2092 42.5542 32.1992 41.8387C32.1915 40.9423 31.9641 40.0615 31.537 39.2733C31.1099 38.4852 30.4961 37.8138 29.7493 37.318C30.1555 35.6499 30.7884 34.0454 31.6305 32.5493C32.5155 30.9801 33.6149 29.542 34.8971 28.2765C35.6568 28.6619 36.4952 28.8666 37.347 28.8744C38.3173 28.8747 39.2697 28.6127 40.1032 28.1161V28.1161C40.876 27.664 41.5252 27.0281 41.9933 26.265C42.4614 25.5018 42.7338 24.6349 42.7865 23.7412H42.9032C44.5336 23.2995 46.216 23.0788 47.9051 23.0849C49.6991 23.0961 51.482 23.3663 53.1988 23.887C53.2728 24.7707 53.5612 25.623 54.0389 26.3701C54.5166 27.1172 55.1693 27.7365 55.9404 28.1744C56.7558 28.6458 57.6818 28.8924 58.6237 28.889C59.41 28.9007 60.1885 28.731 60.8986 28.3931C63.451 30.8728 65.2421 34.0299 66.061 37.493C65.8293 37.6617 65.61 37.8469 65.4048 38.0471C64.8964 38.5526 64.4929 39.1536 64.2176 39.8156C63.9423 40.4775 63.8006 41.1874 63.8006 41.9043C63.8006 42.6212 63.9423 43.3311 64.2176 43.9931C64.4929 44.655 64.8964 45.256 65.4048 45.7615C65.5896 45.9333 65.7843 46.094 65.9881 46.2428C65.1585 49.7138 63.3399 52.8697 60.7528 55.328C59.9695 54.9821 59.115 54.8281 58.2602 54.8788C57.4055 54.9296 56.5752 55.1835 55.8383 55.6196V55.6196C55.216 55.976 54.6719 56.454 54.2384 57.0253C53.8049 57.5965 53.491 58.2493 53.3154 58.9446C53.2493 59.1979 53.2054 59.4565 53.1842 59.7175C52.6884 59.8633 52.1926 59.9945 51.7259 60.0966L50.6322 50.9093ZM59.9361 62.4591C59.5023 62.7084 59.0047 62.8246 58.5052 62.7933C58.0058 62.762 57.5266 62.5846 57.1272 62.2831C56.7279 61.9816 56.4259 61.5694 56.259 61.0977C56.092 60.626 56.0675 60.1156 56.1883 59.63C56.3196 59.1471 56.59 58.7134 56.9659 58.383C57.3417 58.0525 57.8064 57.8399 58.3022 57.7715C58.798 57.7031 59.3029 57.782 59.7542 57.9984C60.2054 58.2147 60.5831 58.559 60.8403 58.9883C61.0275 59.2844 61.1514 59.6161 61.2041 59.9625C61.2568 60.3088 61.2372 60.6624 61.1465 61.0008C60.9493 61.6265 60.5148 62.15 59.9361 62.4591V62.4591Z" fill="#E473FF"/>
</g>
<defs>
<clipPath id="clip0">
<path d="M0 0H96V96H0V0Z" fill="white"/>
</clipPath>
</defs>
</svg>
