<svg width="32" height="32" viewBox="0 0 32 32" fill="none" xmlns="http://www.w3.org/2000/svg">
<g clip-path="url(#clip0)">
<path d="M28.427 0H23.1902C23.0125 0 22.842 0.0705771 22.7163 0.196212C22.5906 0.321847 22.52 0.492249 22.52 0.669923C22.4962 1.16499 22.2826 1.63188 21.9236 1.97382C21.5647 2.31575 21.0878 2.5065 20.592 2.5065C20.0961 2.5065 19.6192 2.31575 19.2603 1.97382C18.9013 1.63188 18.6877 1.16499 18.6639 0.669923C18.6639 0.492249 18.5933 0.321847 18.4676 0.196212C18.3419 0.0705771 18.1714 0 17.9937 0H12.7524C12.054 0.00118319 11.3846 0.279322 10.8912 0.773359C10.3977 1.26739 10.1206 1.93695 10.1206 2.63503V9.51291C3.59695 9.63796 0 12.5946 0 17.8869V24.1798C0 26.2029 0.201081 28.4092 2.45308 29.2622V31.3345C2.45308 31.5122 2.52369 31.6826 2.64938 31.8082C2.77508 31.9339 2.94556 32.0045 3.12332 32.0045C3.30108 32.0045 3.47154 31.9339 3.59724 31.8082C3.72293 31.6826 3.79356 31.5122 3.79356 31.3345V28.7754C3.79368 28.6268 3.74468 28.4823 3.65418 28.3644C3.56368 28.2465 3.43674 28.1618 3.2931 28.1234C1.81411 27.7438 1.34048 26.7835 1.34048 24.1798V17.8869C1.34048 12.2596 6.01428 10.9287 10.1206 10.8438V16.0648H7.64071C7.46296 16.0648 7.29247 16.1353 7.16678 16.261C7.04109 16.3866 6.97048 16.557 6.97048 16.7347C6.97048 16.9124 7.04109 17.0827 7.16678 17.2084C7.29247 17.334 7.46296 17.4046 7.64071 17.4046H15.1116C15.6959 17.4046 16.2562 17.6366 16.6693 18.0495C17.0824 18.4624 17.3145 19.0225 17.3145 19.6064C17.3145 20.1904 17.0824 20.7504 16.6693 21.1633C16.2562 21.5763 15.6959 21.8082 15.1116 21.8082H12.3547C12.183 21.808 12.0177 21.8736 11.893 21.9916C11.7683 22.1097 11.6937 22.271 11.6845 22.4424C11.6845 22.5987 11.4521 26.3057 8.58798 26.3057C8.41022 26.3057 8.23976 26.3762 8.11406 26.5019C7.98837 26.6275 7.91774 26.7979 7.91774 26.9756C7.91774 27.1533 7.98837 27.3236 8.11406 27.4493C8.23976 27.5749 8.41022 27.6455 8.58798 27.6455C9.1125 27.6497 9.6329 27.5526 10.1206 27.3597V29.1863C10.1206 29.884 10.3979 30.5531 10.8914 31.0464C11.385 31.5397 12.0544 31.8169 12.7524 31.8169H28.427C29.1254 31.8169 29.7953 31.5399 30.2896 31.0467C30.7838 30.5535 31.0621 29.8844 31.0633 29.1863V2.63503C31.0621 1.93654 30.784 1.26699 30.2899 0.773086C29.7957 0.279177 29.1258 0.00118088 28.427 0ZM28.427 30.477H12.7524C12.4103 30.4759 12.0825 30.3395 11.8406 30.0977C11.5987 29.8559 11.4623 29.5283 11.4611 29.1863V26.4396C12.2734 25.5137 12.7942 24.3687 12.9579 23.1481H15.1116C16.0514 23.1481 16.9526 22.7749 17.6171 22.1108C18.2816 21.4466 18.655 20.5457 18.655 19.6064C18.655 18.6671 18.2816 17.7663 17.6171 17.1021C16.9526 16.4379 16.0514 16.0648 15.1116 16.0648H11.4611V8.53929H13.999C14.1768 8.53929 14.3473 8.4687 14.473 8.34306C14.5987 8.21743 14.6693 8.04704 14.6693 7.86936C14.6693 7.69169 14.5987 7.52129 14.473 7.39565C14.3473 7.27002 14.1768 7.19944 13.999 7.19944H11.4611V2.63503C11.4611 2.2923 11.597 1.96353 11.839 1.72077C12.0811 1.478 12.4095 1.34103 12.7524 1.33985H17.3949C17.5486 2.07369 17.9502 2.73232 18.5324 3.20506C19.1146 3.67781 19.8419 3.93585 20.592 3.93585C21.342 3.93585 22.0693 3.67781 22.6515 3.20506C23.2337 2.73232 23.6353 2.07369 23.789 1.33985H28.427C28.7707 1.33985 29.1003 1.47629 29.3433 1.71919C29.5863 1.96208 29.7228 2.29152 29.7228 2.63503V7.19944H27.2519C27.0741 7.19944 26.9036 7.27002 26.7779 7.39565C26.6523 7.52129 26.5816 7.69169 26.5816 7.86936C26.5816 8.04704 26.6523 8.21743 26.7779 8.34306C26.9036 8.4687 27.0741 8.53929 27.2519 8.53929H29.7228V29.1863C29.7216 29.529 29.5846 29.8573 29.3417 30.0993C29.0988 30.3412 28.7699 30.477 28.427 30.477Z" fill="#231815"/>
<path d="M23.5029 7.86914C23.5029 7.69147 23.4322 7.52107 23.3066 7.39543C23.1809 7.2698 23.0104 7.19922 22.8326 7.19922H18.4359C18.2581 7.19922 18.0876 7.2698 17.9619 7.39543C17.8362 7.52107 17.7656 7.69147 17.7656 7.86914C17.7656 8.04682 17.8362 8.2172 17.9619 8.34284C18.0876 8.46847 18.2581 8.53907 18.4359 8.53907H22.8505C23.0251 8.53441 23.1911 8.46177 23.3129 8.33664C23.4348 8.2115 23.5029 8.04376 23.5029 7.86914Z" fill="#231815"/>
<path d="M24.0392 22.2236C23.4401 22.2236 22.8543 22.4012 22.3561 22.734C21.858 23.0667 21.4697 23.5396 21.2404 24.0929C21.0111 24.6462 20.9511 25.255 21.068 25.8424C21.1849 26.4298 21.4734 26.9694 21.8971 27.3928C22.3208 27.8163 22.8606 28.1047 23.4482 28.2216C24.0359 28.3384 24.645 28.2784 25.1986 28.0492C25.7521 27.8201 26.2253 27.4319 26.5582 26.934C26.891 26.436 27.0687 25.8506 27.0687 25.2517C27.0675 24.449 26.748 23.6794 26.1801 23.1118C25.6122 22.5442 24.8423 22.2248 24.0392 22.2236ZM24.0392 26.9399C23.7052 26.9399 23.3786 26.8409 23.1009 26.6554C22.8231 26.4699 22.6066 26.2062 22.4788 25.8977C22.351 25.5893 22.3175 25.2498 22.3827 24.9223C22.4479 24.5949 22.6087 24.294 22.8449 24.0579C23.0811 23.8218 23.3821 23.6611 23.7097 23.5959C24.0374 23.5308 24.377 23.5642 24.6856 23.692C24.9942 23.8198 25.258 24.0362 25.4436 24.3138C25.6292 24.5914 25.7282 24.9178 25.7282 25.2517C25.7271 25.6991 25.5487 26.1278 25.2322 26.4441C24.9157 26.7605 24.4868 26.9387 24.0392 26.9399Z" fill="#231815"/>
<path d="M23.3511 18.8828C23.3511 19.0605 23.4217 19.2309 23.5474 19.3565C23.6731 19.4822 23.8436 19.5527 24.0213 19.5527C24.1991 19.5527 24.3696 19.4822 24.4952 19.3565C24.6209 19.2309 24.6915 19.0605 24.6915 18.8828V11.8799C24.6915 11.7022 24.6209 11.5318 24.4952 11.4062C24.3696 11.2806 24.1991 11.21 24.0213 11.21C23.8436 11.21 23.6731 11.2806 23.5474 11.4062C23.4217 11.5318 23.3511 11.7022 23.3511 11.8799V18.8828Z" fill="#231815"/>
</g>
<defs>
<clipPath id="clip0">
<rect width="31.0588" height="32" fill="white"/>
</clipPath>
</defs>
</svg>
