<svg width="32" height="32" viewBox="0 0 32 32" fill="none" xmlns="http://www.w3.org/2000/svg">
<g clip-path="url(#clip0)">
<path d="M31.0521 10.5979C28.0685 2.28325 18.9125 -2.03668 10.5979 0.939897C2.28325 3.92355 -2.03668 13.0866 0.939897 21.4012C3.92355 29.7159 13.0795 34.0358 21.3942 31.0521H21.4012C29.7159 28.0685 34.0358 18.9125 31.0521 10.5979ZM20.9346 29.7229C13.3553 32.445 5.0053 28.4998 2.28325 20.9205C-0.438804 13.3411 3.5064 4.99116 11.0857 2.26911C18.665 -0.445875 27.015 3.49226 29.7371 11.0716C32.4874 18.5873 28.627 26.909 21.1114 29.6593C21.0548 29.6805 20.9912 29.7017 20.9346 29.7229Z" fill="#221714"/>
<path d="M24.484 23.3458C23.2184 24.8023 21.5993 25.9123 19.7823 26.5628C19.2096 26.7608 18.6227 26.9234 18.0218 27.0365C17.7602 27.0577 17.5693 27.291 17.5905 27.5526C17.6117 27.8142 17.845 28.0051 18.1066 27.9839C18.1349 27.991 18.1632 27.991 18.1914 27.9839C18.8419 27.8637 19.4782 27.694 20.1004 27.4678C22.066 26.7608 23.8194 25.5659 25.191 23.9822C25.3678 23.7913 25.3536 23.4943 25.1627 23.3175C24.9718 23.1408 24.6749 23.1549 24.4981 23.3458C24.4911 23.3529 24.484 23.36 24.4769 23.367L24.484 23.3458Z" fill="#221714"/>
<path d="M26.9514 20.1076C26.711 20.0086 26.4353 20.1217 26.3363 20.3621C26.1949 20.7015 26.0393 21.0338 25.8626 21.359C25.7353 21.5853 25.8201 21.8751 26.0464 21.9953C26.1171 22.0307 26.1949 22.0519 26.2726 22.0519C26.4423 22.0519 26.6049 21.96 26.6898 21.8044C26.8807 21.4509 27.0574 21.0833 27.213 20.7156C27.312 20.4823 27.1988 20.2066 26.9514 20.1076Z" fill="#221714"/>
<path d="M16.3677 15.6396H15.6536C15.0809 15.6396 14.8758 15.3214 14.8051 14.6992C14.487 11.7439 13.4264 11.4186 12.4649 11.4186C11.3902 11.4186 10.8599 12.1327 10.6549 13.0943C10.4004 14.2609 10.3367 16.5092 10.3367 18.8C10.3367 19.5777 9.85596 19.9949 9.02874 19.9949C8.40656 19.9949 7.92578 19.5848 7.92578 18.8C7.92578 15.9577 7.99648 13.5751 8.40656 12.1964C8.97925 10.245 10.4004 9.26221 12.4154 9.26221C14.2254 9.26221 15.5122 9.99751 15.9717 11.6237C16.5232 9.99751 17.6686 9.26221 19.6624 9.26221C21.7694 9.26221 22.9642 10.245 23.5581 12.1964C24.0177 13.6882 24.0601 16.1628 24.0601 18.7788C24.0601 19.5353 23.6218 19.9454 22.9854 19.9737C22.1158 19.9949 21.6562 19.5636 21.6562 18.7788C21.6562 16.3749 21.5219 14.2821 21.3381 13.0943C21.1755 12.0832 20.7159 11.4186 19.62 11.4186C18.6372 11.4186 17.5343 11.6732 17.1878 14.7204C17.1242 15.3143 16.9404 15.6396 16.3677 15.6396Z" fill="black"/>
<path d="M18.8564 16.0073C17.7959 16.0073 17.7959 16.6578 17.7959 17.987C17.7959 19.3445 17.7959 19.995 18.8564 19.995C19.8958 19.995 19.8958 19.3162 19.8958 17.987C19.8958 16.5942 19.8958 16.0073 18.8564 16.0073Z" fill="black"/>
<path d="M13.2002 16.0073C12.1396 16.0073 12.1396 16.6578 12.1396 17.987C12.1396 19.3445 12.1396 19.995 13.2002 19.995C14.2395 19.995 14.2395 19.3162 14.2395 17.987C14.2395 16.5942 14.2395 16.0073 13.2002 16.0073Z" fill="black"/>
</g>
<defs>
<clipPath id="clip0">
<rect width="32" height="32" fill="white"/>
</clipPath>
</defs>
</svg>
