<svg width="32" height="32" viewBox="0 0 32 32" fill="none" xmlns="http://www.w3.org/2000/svg">
<g clip-path="url(#clip0)">
<path d="M27.5086 9.74113H25.9371V4.63534C25.9371 2.08013 23.6327 0 20.7984 0H10.2169C7.38251 0 5.07817 2.08013 5.07817 4.63534V9.74113H3.5066C2.57234 9.74113 1.67628 10.1122 1.01523 10.7729C0.354171 11.4336 -0.0178217 12.3299 -0.019043 13.2649V28.4854C-0.0178217 29.4204 0.354171 30.3167 1.01523 30.9774C1.67628 31.6381 2.57234 32.0092 3.5066 32.0092H27.4718C28.406 32.0092 29.3021 31.6381 29.9632 30.9774C30.6242 30.3167 30.9962 29.4204 30.9974 28.4854V13.2649C30.9963 12.3363 30.6293 11.4455 29.9762 10.7859C29.3231 10.1262 28.4365 9.75084 27.5086 9.74113ZM24.5545 4.63534V9.74113H22.9046V1.94638C23.3913 2.21018 23.8 2.59756 24.0896 3.06958C24.3792 3.54161 24.5395 4.08162 24.5545 4.63534ZM9.58546 4.35861H21.522V9.74113H9.58546V4.35861ZM20.8168 1.38368C21.0592 1.38475 21.3011 1.4048 21.5404 1.44365V2.97493H9.6039V1.43443C9.81892 1.40114 10.0361 1.38417 10.2537 1.38368H20.8168ZM6.49764 4.63534C6.51343 4.06724 6.68183 3.5139 6.98513 3.03344C7.28843 2.55297 7.71544 2.16313 8.22129 1.90487V9.74575H6.49764V4.63534ZM29.6701 28.4762C29.6689 29.0442 29.4426 29.5886 29.0408 29.9898C28.639 30.391 28.0947 30.6163 27.5271 30.6163H3.5619C2.99433 30.6163 2.44994 30.391 2.04817 29.9898C1.64641 29.5886 1.42009 29.0442 1.41887 28.4762V13.2557C1.42009 12.6877 1.64641 12.1433 2.04817 11.7421C2.44994 11.3409 2.99433 11.1156 3.5619 11.1156H27.5271C28.0947 11.1156 28.639 11.3409 29.0408 11.7421C29.4426 12.1433 29.6689 12.6877 29.6701 13.2557V28.4762Z" fill="#231815"/>
<path d="M18.0938 15.3357C17.1423 15.3455 16.2281 15.7069 15.5267 16.3504C15.0575 15.9569 14.5047 15.6759 13.9105 15.5288C13.3162 15.3818 12.6963 15.3725 12.0979 15.5017C11.4943 15.6311 10.9329 15.91 10.4651 16.3129C9.99727 16.7159 9.638 17.2299 9.42023 17.8079C8.85797 19.2607 9.13449 20.7274 10.2406 22.1665C11.4711 23.7715 13.0058 24.9615 14.9368 26.2529C15.1047 26.3595 15.3003 26.414 15.4991 26.4098C15.7254 26.412 15.9476 26.3496 16.1397 26.2299C17.5354 25.3402 18.8277 24.2975 19.9926 23.1212C20.8638 22.2864 21.4902 21.2289 21.8038 20.0633C21.9227 19.5022 21.9172 18.9218 21.7876 18.363C21.658 17.8043 21.4075 17.2808 21.0537 16.8296C20.6999 16.3783 20.2515 16.0102 19.74 15.7513C19.2286 15.4924 18.6666 15.3489 18.0938 15.3311V15.3357ZM20.458 19.7588C20.2065 20.6827 19.7002 21.5171 18.9971 22.1665C17.9442 23.229 16.779 24.1739 15.5221 24.9846C13.9359 24.002 12.5208 22.7665 11.3328 21.327C10.5217 20.2708 10.3235 19.3115 10.7107 18.3152C10.8451 17.9485 11.0704 17.6219 11.3654 17.3662C11.6605 17.1104 12.0156 16.9339 12.3975 16.8531C12.5758 16.8124 12.7583 16.7923 12.9413 16.7932C13.6464 16.7962 14.3226 17.0741 14.8262 17.568C15.0134 17.7441 15.2606 17.8421 15.5175 17.8421C15.7744 17.8421 16.0217 17.7441 16.2088 17.568C16.6968 17.0467 17.3672 16.7343 18.08 16.6963C18.4443 16.7035 18.8024 16.7931 19.1272 16.9584C19.4521 17.1238 19.7353 17.3606 19.9557 17.651C20.1939 17.9411 20.3629 18.2817 20.4499 18.6469C20.537 19.0121 20.5397 19.3924 20.458 19.7588Z" fill="#231815"/>
</g>
<defs>
<clipPath id="clip0">
<rect width="31.0303" height="32" fill="white"/>
</clipPath>
</defs>
</svg>
