<svg width="48" height="49" viewBox="0 0 48 49" fill="none" xmlns="http://www.w3.org/2000/svg">
<path d="M39.0521 19.0979C36.0685 10.7832 26.9125 6.46332 18.5979 9.4399C10.2832 12.4235 5.96332 21.5866 8.9399 29.9012C11.9235 38.2159 21.0795 42.5358 29.3942 39.5521H29.4012C37.7159 36.5685 42.0358 27.4125 39.0521 19.0979ZM28.9346 38.2229C21.3553 40.945 13.0053 36.9998 10.2832 29.4205C7.5612 21.8411 11.5064 13.4912 19.0857 10.7691C26.665 8.05413 35.015 11.9923 37.7371 19.5716C40.4874 27.0873 36.627 35.409 29.1114 38.1593C29.0548 38.1805 28.9912 38.2017 28.9346 38.2229Z" fill="#445375"/>
<path d="M22.9712 15.5L21.5588 15.6228C21.5635 15.6748 21.9981 20.6818 22.0784 22.335C22.1162 23.1097 21.965 23.6765 21.6297 24.0308C21.2943 24.3804 20.7275 24.5598 19.9575 24.574V15.5614H18.5404V24.574C17.7658 24.5598 17.1989 24.3804 16.8683 24.0308C16.5329 23.6813 16.3818 23.1097 16.4195 22.335C16.4998 20.6818 16.9391 15.67 16.9391 15.6228L15.5315 15.5C15.5126 15.7078 15.0875 20.5826 15.0072 22.2689C14.9505 23.4451 15.2292 24.3662 15.8433 25.0133C16.4526 25.651 17.3595 25.9816 18.5404 25.9958V33H19.9575V25.9958C21.1384 25.9816 22.0453 25.651 22.6594 25.0086C23.2735 24.3662 23.5522 23.4404 23.4955 22.2642C23.4105 20.5826 22.9901 15.7078 22.9712 15.5Z" fill="#445375"/>
<path d="M30.9589 15.5C26.6463 15.5 25.8291 17.3375 25.8291 20.7243V26.7988H29.1545V25.3818H27.2462V20.7243C27.2462 18.1169 27.5579 16.9974 30.6047 16.9218V33H32.0217V15.5H30.9589Z" fill="#445375"/>
</svg>
