<svg width="24" height="18" viewBox="0 0 24 18" fill="none" xmlns="http://www.w3.org/2000/svg">
<path fill-rule="evenodd" clip-rule="evenodd" d="M0.75 2.5C0.75 1.39543 1.64543 0.5 2.75 0.5H21.4643C22.5689 0.5 23.4643 1.39543 23.4643 2.5V15.4C23.4643 16.5046 22.5689 17.4 21.4643 17.4H2.75C1.64543 17.4 0.75 16.5046 0.75 15.4V2.5ZM2.2627 3.10952C2.2627 2.55724 2.71041 2.10952 3.2627 2.10952H20.9484C21.5007 2.10952 21.9484 2.55724 21.9484 3.10952V5.04291H2.2627V3.10952ZM2.2627 6.5572V14.7905C2.2627 15.3428 2.71041 15.7905 3.2627 15.7905H20.9484C21.5007 15.7905 21.9484 15.3428 21.9484 14.7905V6.5572H2.2627ZM4.5355 12.8571C4.11734 12.8571 3.77835 13.1961 3.77835 13.6142C3.77835 14.0324 4.11734 14.3714 4.5355 14.3714H6.04978C6.46794 14.3714 6.80693 14.0324 6.80693 13.6142C6.80693 13.1961 6.46795 12.8571 6.04979 12.8571H4.5355ZM9.07907 12.8571C8.66091 12.8571 8.32192 13.1961 8.32192 13.6142C8.32192 14.0324 8.66091 14.3714 9.07907 14.3714H12.1076C12.5258 14.3714 12.8648 14.0324 12.8648 13.6142C12.8648 13.1961 12.5258 12.8571 12.1076 12.8571H9.07907Z" fill="#F4246A"/>
</svg>
