<svg width="48" height="49" viewBox="0 0 48 49" fill="none" xmlns="http://www.w3.org/2000/svg">
<g clip-path="url(#clip0)">
<path d="M36.6823 9.48633H16.4233C15.5437 9.48753 14.7005 9.84029 14.0786 10.4672C13.4566 11.0942 13.1067 11.9442 13.1055 12.8308V17.7769C13.1055 17.958 13.1768 18.1316 13.3038 18.2596C13.4308 18.3876 13.603 18.4595 13.7826 18.4595C13.9622 18.4595 14.1344 18.3876 14.2614 18.2596C14.3883 18.1316 14.4597 17.958 14.4597 17.7769V16.0023H38.6414V25.1848C38.6414 26.7046 37.8108 27.1232 36.6417 27.5464C36.4924 27.601 36.3669 27.7067 36.2871 27.8451C36.2074 27.9836 36.1784 28.1458 36.2053 28.3036C36.2322 28.4613 36.3132 28.6046 36.4342 28.7082C36.5553 28.8118 36.7086 28.8693 36.8674 28.8705C36.9461 28.8728 37.0244 28.8589 37.0976 28.8296C38.1132 28.4656 39.9956 27.7785 39.9956 25.1894V12.8444C39.9974 12.4045 39.913 11.9685 39.7474 11.5614C39.5817 11.1544 39.338 10.7843 39.0302 10.4723C38.7224 10.1604 38.3566 9.91271 37.9537 9.74352C37.5508 9.57432 37.1187 9.48692 36.6823 9.48633ZM14.4597 14.6372V12.8171C14.4597 12.2922 14.6666 11.7887 15.0348 11.4175C15.4031 11.0463 15.9025 10.8378 16.4233 10.8378H36.6823C37.2023 10.839 37.7006 11.048 38.0678 11.4191C38.4351 11.7902 38.6414 12.293 38.6414 12.8171V14.6372H14.4597Z" fill="#182B56" fill-opacity="0.8"/>
<path d="M31.5723 20.1204H11.3133C10.4346 20.1204 9.59184 20.4722 8.97047 21.0986C8.34911 21.725 8.00003 22.5745 8.00003 23.4603V36.1601C7.99825 36.6001 8.0826 37.0361 8.24825 37.4431C8.41391 37.8502 8.65762 38.2203 8.9654 38.5322C9.27319 38.8442 9.63901 39.0918 10.0419 39.261C10.4448 39.4302 10.8769 39.5176 11.3133 39.5182H31.5723C32.4519 39.517 33.2951 39.1643 33.9171 38.5373C34.539 37.9104 34.889 37.0604 34.8901 36.1738V23.4603C34.8889 22.574 34.5389 21.7245 33.9168 21.0983C33.2947 20.4721 32.4515 20.1204 31.5723 20.1204ZM33.5359 36.1601C33.5359 36.6851 33.3291 37.1885 32.9608 37.5597C32.5926 37.9309 32.0931 38.1395 31.5723 38.1395H11.3133C10.7933 38.1383 10.295 37.9292 9.92776 37.5581C9.56049 37.187 9.35424 36.6843 9.35424 36.1601V23.4603C9.35543 22.9369 9.56222 22.4353 9.92936 22.0652C10.2965 21.6951 10.7941 21.4866 11.3133 21.4854H31.5723C32.0923 21.4854 32.5911 21.6934 32.9592 22.0636C33.3273 22.4338 33.5347 22.9361 33.5359 23.4603V36.1601Z" fill="#182B56" fill-opacity="0.8"/>
<path d="M24.4042 28.6795C24.5837 28.6795 24.756 28.6076 24.8829 28.4796C25.0099 28.3516 25.0813 28.178 25.0813 27.9969V25.3669C25.0813 25.1858 25.0099 25.0122 24.8829 24.8842C24.756 24.7562 24.5837 24.6843 24.4042 24.6843C24.2246 24.6843 24.0523 24.7562 23.9254 24.8842C23.7984 25.0122 23.7271 25.1858 23.7271 25.3669V27.9969C23.7271 28.178 23.7984 28.3516 23.9254 28.4796C24.0523 28.6076 24.2246 28.6795 24.4042 28.6795Z" fill="#182B56" fill-opacity="0.8"/>
<path d="M29.1029 28.6795C29.2825 28.6795 29.4547 28.6076 29.5817 28.4796C29.7087 28.3516 29.78 28.178 29.78 27.9969V25.3669C29.78 25.1858 29.7087 25.0122 29.5817 24.8842C29.4547 24.7562 29.2825 24.6843 29.1029 24.6843C28.9233 24.6843 28.7511 24.7562 28.6241 24.8842C28.4971 25.0122 28.4258 25.1858 28.4258 25.3669V27.9969C28.4258 28.178 28.4971 28.3516 28.6241 28.4796C28.7511 28.6076 28.9233 28.6795 29.1029 28.6795Z" fill="#182B56" fill-opacity="0.8"/>
<path d="M30.6109 31.992C30.4507 31.914 30.2666 31.9022 30.0979 31.9592C29.9292 32.0161 29.7893 32.1373 29.7081 32.2968C29.681 32.356 28.9678 33.7165 26.7604 33.7165C24.553 33.7165 23.8443 32.3514 23.8082 32.2968C23.7298 32.1339 23.5904 32.0091 23.4207 31.9498C23.2509 31.8905 23.0648 31.9015 22.9032 31.9806C22.7415 32.0596 22.6177 32.2002 22.5588 32.3713C22.5 32.5424 22.511 32.73 22.5894 32.8929C22.6346 32.9839 23.6638 35.0816 26.7604 35.0816C29.857 35.0816 30.8817 32.9839 30.9268 32.8929C31.0029 32.7311 31.0123 32.5456 30.9531 32.3768C30.8939 32.208 30.7709 32.0697 30.6109 31.992Z" fill="#182B56" fill-opacity="0.8"/>
<path d="M18.4137 33.4753H12.2611C12.0815 33.4753 11.9093 33.5472 11.7823 33.6752C11.6553 33.8033 11.584 33.9769 11.584 34.1579C11.584 34.3389 11.6553 34.5125 11.7823 34.6405C11.9093 34.7685 12.0815 34.8404 12.2611 34.8404H18.4137C18.5933 34.8404 18.7655 34.7685 18.8925 34.6405C19.0195 34.5125 19.0908 34.3389 19.0908 34.1579C19.0908 33.9769 19.0195 33.8033 18.8925 33.6752C18.7655 33.5472 18.5933 33.4753 18.4137 33.4753Z" fill="#182B56" fill-opacity="0.8"/>
<path d="M12.7127 29.6122H17.3577C17.5373 29.6122 17.7095 29.5403 17.8365 29.4123C17.9635 29.2843 18.0348 29.1107 18.0348 28.9297V24.8344C18.0348 24.6534 17.9635 24.4798 17.8365 24.3518C17.7095 24.2238 17.5373 24.1519 17.3577 24.1519H12.7127C12.5332 24.1519 12.3609 24.2238 12.234 24.3518C12.107 24.4798 12.0356 24.6534 12.0356 24.8344V28.9297C12.0356 29.1107 12.107 29.2843 12.234 29.4123C12.3609 29.5403 12.5332 29.6122 12.7127 29.6122ZM13.3899 25.5169H16.6806V28.2471H13.3899V25.5169Z" fill="#182B56" fill-opacity="0.8"/>
</g>
<defs>
<clipPath id="clip0">
<rect width="32" height="30" fill="white" transform="translate(8 9.5)"/>
</clipPath>
</defs>
</svg>
