<svg width="36" height="36" viewBox="0 0 36 36" fill="none" xmlns="http://www.w3.org/2000/svg">
<path d="M28.1381 23.2968C26.78 21.6346 25.8212 20.7885 25.8212 16.206C25.8212 12.0096 23.6784 10.5146 21.9147 9.78846C21.6804 9.69221 21.4599 9.47115 21.3885 9.23053C21.0791 8.1776 20.2118 7.25 19.0589 7.25C17.906 7.25 17.0382 8.17813 16.732 9.23159C16.6606 9.47486 16.44 9.69221 16.2058 9.78846C14.44 10.5156 12.2992 12.0054 12.2992 16.206C12.2965 20.7885 11.3377 21.6346 9.97966 23.2968C9.41697 23.9853 9.90985 25.0192 10.894 25.0192H27.229C28.2079 25.0192 28.6976 23.9822 28.1381 23.2968Z" stroke="white" stroke-width="1.5" stroke-linecap="round" stroke-linejoin="round"/>
<path d="M22.4431 25.019V25.8652C22.4431 26.7629 22.0865 27.6237 21.4517 28.2585C20.817 28.8932 19.9561 29.2498 19.0584 29.2498C18.1608 29.2498 17.2999 28.8932 16.6652 28.2585C16.0304 27.6237 15.6738 26.7629 15.6738 25.8652V25.019" stroke="white" stroke-width="1.5" stroke-linecap="round" stroke-linejoin="round"/>
</svg>
