<svg width="36" height="36" viewBox="0 0 36 36" fill="none" xmlns="http://www.w3.org/2000/svg">
<path d="M26.8753 19.078L26.1311 18.985L26.0783 19.4069L26.4133 19.6688L26.8753 19.078ZM29.1963 20.893L29.661 20.3043L29.6583 20.3022L29.1963 20.893ZM29.3283 21.597L29.9776 21.9723L29.9822 21.9643L29.9867 21.9561L29.3283 21.597ZM27.1283 25.403L26.4789 25.0277L26.4743 25.0357L26.4698 25.0439L27.1283 25.403ZM26.4573 25.645L26.1777 26.341L26.184 26.3434L26.4573 25.645ZM23.7183 24.545L23.9978 23.849L23.606 23.6917L23.2683 23.945L23.7183 24.545ZM21.8593 25.623L21.5748 24.929L21.1778 25.0918L21.1169 25.5165L21.8593 25.623ZM21.4413 28.538L20.6987 28.4315L20.6971 28.445L21.4413 28.538ZM15.9633 28.538L16.7076 28.445L16.7057 28.4315L15.9633 28.538ZM15.5453 25.623L16.2877 25.5165L16.2268 25.0918L15.8297 24.929L15.5453 25.623ZM13.6863 24.545L14.1435 23.9505L13.8041 23.6894L13.4068 23.849L13.6863 24.545ZM10.9473 25.645L11.2036 26.3498L11.2152 26.3456L11.2268 26.341L10.9473 25.645ZM10.2763 25.403L10.9347 25.0439L10.9302 25.0357L10.9256 25.0277L10.2763 25.403ZM8.07626 21.597L7.41784 21.9561L7.42229 21.9643L7.42694 21.9723L8.07626 21.597ZM8.20826 20.893L7.74626 20.3022L7.74353 20.3043L8.20826 20.893ZM10.5293 19.078L10.9913 19.6688L11.3262 19.4069L11.2735 18.985L10.5293 19.078ZM10.5293 16.922L11.2735 17.015L11.3262 16.5931L10.9913 16.3312L10.5293 16.922ZM8.20826 15.107L7.74353 15.6957L7.74626 15.6978L8.20826 15.107ZM8.07626 14.403L8.72199 14.7846L8.72559 14.7783L8.07626 14.403ZM10.2763 10.597L10.9256 10.9723L10.9302 10.9643L10.9347 10.9561L10.2763 10.597ZM10.9473 10.355L11.2268 9.659L11.2206 9.65657L10.9473 10.355ZM13.6863 11.455L13.4068 12.151L13.7985 12.3083L14.1363 12.055L13.6863 11.455ZM15.5453 10.377L15.8297 11.071L16.2268 10.9082L16.2877 10.4835L15.5453 10.377ZM15.9633 7.462L16.7058 7.56848L16.7075 7.55503L15.9633 7.462ZM21.4413 7.462L20.6969 7.55504L20.6989 7.56846L21.4413 7.462ZM21.8593 10.377L21.1169 10.4835L21.1778 10.9082L21.5748 11.071L21.8593 10.377ZM23.7183 11.455L23.261 12.0495L23.6004 12.3106L23.9978 12.151L23.7183 11.455ZM26.4573 10.355L26.201 9.65015L26.1893 9.6544L26.1778 9.65903L26.4573 10.355ZM27.1283 10.597L26.4698 10.9561L26.4743 10.9643L26.4789 10.9723L27.1283 10.597ZM29.3283 14.403L29.9867 14.0439L29.9822 14.0357L29.9776 14.0277L29.3283 14.403ZM29.1963 15.107L29.6583 15.6978L29.661 15.6957L29.1963 15.107ZM26.8753 16.922L26.4133 16.3312L26.0783 16.5931L26.1311 17.015L26.8753 16.922ZM27.6195 19.171C27.6653 18.8044 27.7023 18.418 27.7023 18H26.2023C26.2023 18.33 26.1732 18.6476 26.1311 18.985L27.6195 19.171ZM29.6583 20.3022L27.3373 18.4872L26.4133 19.6688L28.7343 21.4838L29.6583 20.3022ZM29.9867 21.9561C30.283 21.4128 30.1741 20.7094 29.661 20.3043L28.7315 21.4817C28.6364 21.4066 28.6375 21.2972 28.6698 21.2379L29.9867 21.9561ZM27.7776 25.7783L29.9776 21.9723L28.6789 21.2217L26.4789 25.0277L27.7776 25.7783ZM26.184 26.3434C26.78 26.5767 27.4694 26.3438 27.7867 25.7621L26.4698 25.0439C26.5231 24.9462 26.6405 24.9113 26.7306 24.9466L26.184 26.3434ZM23.4388 25.241L26.1778 26.341L26.7368 24.949L23.9978 23.849L23.4388 25.241ZM22.1437 26.317C22.8863 26.0126 23.5575 25.6031 24.1683 25.145L23.2683 23.945C22.735 24.3449 22.1743 24.6834 21.5748 24.929L22.1437 26.317ZM22.1837 28.6445L22.6017 25.7295L21.1169 25.5165L20.6989 28.4315L22.1837 28.6445ZM20.9023 29.75C21.5359 29.75 22.1032 29.2895 22.1855 28.631L20.6971 28.445C20.7134 28.3145 20.8187 28.25 20.9023 28.25V29.75ZM16.5023 29.75H20.9023V28.25H16.5023V29.75ZM15.2191 28.631C15.3014 29.2895 15.8687 29.75 16.5023 29.75V28.25C16.5859 28.25 16.6912 28.3145 16.7075 28.445L15.2191 28.631ZM14.8029 25.7295L15.2209 28.6445L16.7057 28.4315L16.2877 25.5165L14.8029 25.7295ZM13.229 25.1395C13.8499 25.6171 14.5235 26.0148 15.2608 26.317L15.8297 24.929C15.225 24.6812 14.6666 24.3529 14.1435 23.9505L13.229 25.1395ZM11.2268 26.341L13.9658 25.241L13.4068 23.849L10.6678 24.949L11.2268 26.341ZM9.61784 25.7621C9.94769 26.3669 10.6545 26.5495 11.2036 26.3498L10.691 24.9402C10.7353 24.924 10.7765 24.9256 10.8125 24.9379C10.8526 24.9515 10.9026 24.985 10.9347 25.0439L9.61784 25.7621ZM7.42694 21.9723L9.62694 25.7783L10.9256 25.0277L8.72559 21.2217L7.42694 21.9723ZM7.74353 20.3043C7.23044 20.7094 7.12149 21.4128 7.41784 21.9561L8.73469 21.2379C8.76704 21.2972 8.76809 21.4066 8.673 21.4817L7.74353 20.3043ZM10.0673 18.4872L7.74626 20.3022L8.67027 21.4838L10.9913 19.6688L10.0673 18.4872ZM9.70227 18C9.70227 18.4066 9.73914 18.8037 9.78506 19.171L11.2735 18.985C11.2314 18.6483 11.2023 18.3194 11.2023 18H9.70227ZM9.78506 16.829C9.73914 17.1963 9.70227 17.5934 9.70227 18H11.2023C11.2023 17.6806 11.2314 17.3517 11.2735 17.015L9.78506 16.829ZM7.74626 15.6978L10.0673 17.5128L10.9913 16.3312L8.67027 14.5162L7.74626 15.6978ZM7.43057 14.0215C7.08933 14.5989 7.25136 15.3071 7.74353 15.6957L8.673 14.5183C8.74717 14.5769 8.7772 14.6911 8.72196 14.7845L7.43057 14.0215ZM9.62694 10.2217L7.42694 14.0277L8.72559 14.7783L10.9256 10.9723L9.62694 10.2217ZM11.2206 9.65657C10.6245 9.42333 9.9351 9.65622 9.61784 10.2379L10.9347 10.9561C10.8814 11.0538 10.764 11.0887 10.674 11.0534L11.2206 9.65657ZM13.9658 10.759L11.2268 9.65903L10.6678 11.051L13.4068 12.151L13.9658 10.759ZM15.2608 9.68302C14.5183 9.98736 13.847 10.3969 13.2363 10.855L14.1363 12.055C14.6695 11.6551 15.2303 11.3166 15.8297 11.071L15.2608 9.68302ZM15.2209 7.35554L14.8029 10.2705L16.2877 10.4835L16.7057 7.56846L15.2209 7.35554ZM16.5023 6.25C15.8687 6.25 15.3014 6.7105 15.2191 7.36897L16.7075 7.55503C16.6912 7.6855 16.5859 7.75 16.5023 7.75V6.25ZM20.9023 6.25H16.5023V7.75H20.9023V6.25ZM22.1855 7.36897C22.1032 6.71049 21.5359 6.25 20.9023 6.25V7.75C20.8187 7.75 20.7134 7.68551 20.6971 7.55503L22.1855 7.36897ZM22.6017 10.2705L22.1837 7.35554L20.6989 7.56846L21.1169 10.4835L22.6017 10.2705ZM24.1756 10.8605C23.5546 10.3829 22.881 9.98519 22.1437 9.68302L21.5748 11.071C22.1795 11.3188 22.7379 11.6471 23.261 12.0495L24.1756 10.8605ZM26.1778 9.65903L23.4388 10.759L23.9978 12.151L26.7368 11.051L26.1778 9.65903ZM27.7867 10.2379C27.4568 9.63314 26.75 9.4505 26.201 9.65015L26.7136 11.0598C26.6692 11.076 26.6281 11.0744 26.592 11.0621C26.5519 11.0485 26.5019 11.015 26.4698 10.9561L27.7867 10.2379ZM29.9776 14.0277L27.7776 10.2217L26.4789 10.9723L28.6789 14.7783L29.9776 14.0277ZM29.661 15.6957C30.1741 15.2906 30.283 14.5872 29.9867 14.0439L28.6698 14.7621C28.6375 14.7028 28.6364 14.5934 28.7315 14.5183L29.661 15.6957ZM27.3373 17.5128L29.6583 15.6978L28.7343 14.5162L26.4133 16.3312L27.3373 17.5128ZM27.7023 18C27.7023 17.582 27.6653 17.1956 27.6195 16.829L26.1311 17.015C26.1732 17.3524 26.2023 17.67 26.2023 18H27.7023ZM18.7023 21.1C16.9935 21.1 15.6023 19.7088 15.6023 18H14.1023C14.1023 20.5372 16.1651 22.6 18.7023 22.6V21.1ZM21.8023 18C21.8023 19.7088 20.4111 21.1 18.7023 21.1V22.6C21.2395 22.6 23.3023 20.5372 23.3023 18H21.8023ZM18.7023 14.9C20.4111 14.9 21.8023 16.2912 21.8023 18H23.3023C23.3023 15.4628 21.2395 13.4 18.7023 13.4V14.9ZM15.6023 18C15.6023 16.2912 16.9935 14.9 18.7023 14.9V13.4C16.1651 13.4 14.1023 15.4628 14.1023 18H15.6023Z" fill="white"/>
</svg>
