<svg width="48" height="49" viewBox="0 0 48 49" fill="none" xmlns="http://www.w3.org/2000/svg">
<g clip-path="url(#clip0)">
<path d="M37.3531 23.1741H10.6515C9.94861 23.1753 9.27491 23.4553 8.77792 23.9527C8.28094 24.4502 8.00121 25.1245 8 25.828V37.2795C8.00121 37.983 8.28094 38.6573 8.77792 39.1548C9.27491 39.6522 9.94861 39.9322 10.6515 39.9334H37.3531C38.0559 39.9322 38.7297 39.6522 39.2266 39.1548C39.7236 38.6573 40.0034 37.983 40.0046 37.2795V25.828C40.0034 25.1245 39.7236 24.4502 39.2266 23.9527C38.7297 23.4553 38.0559 23.1753 37.3531 23.1741ZM38.6355 37.2795C38.6355 37.6199 38.5004 37.9464 38.2599 38.1871C38.0194 38.4279 37.6932 38.5631 37.3531 38.5631H24.6845V36.736C24.6845 36.5542 24.6124 36.38 24.484 36.2515C24.3557 36.123 24.1816 36.0508 24 36.0508C23.8184 36.0508 23.6443 36.123 23.516 36.2515C23.3876 36.38 23.3155 36.5542 23.3155 36.736V38.5631H10.6515C10.3113 38.5631 9.98517 38.4279 9.74468 38.1871C9.50419 37.9464 9.36908 37.6199 9.36908 37.2795V25.828C9.36908 25.4876 9.50419 25.1611 9.74468 24.9204C9.98517 24.6797 10.3113 24.5444 10.6515 24.5444H23.3155V26.3716C23.3155 26.5533 23.3876 26.7275 23.516 26.856C23.6443 26.9845 23.8184 27.0567 24 27.0567C24.1816 27.0567 24.3557 26.9845 24.484 26.856C24.6124 26.7275 24.6845 26.5533 24.6845 26.3716V24.5444H37.3531C37.6932 24.5444 38.0194 24.6797 38.2599 24.9204C38.5004 25.1611 38.6355 25.4876 38.6355 25.828V37.2795Z" fill="#182B56" fill-opacity="0.8"/>
<path d="M10.2452 21.9315C10.3332 21.9748 10.4301 21.9967 10.5281 21.9955C10.6598 21.9953 10.7887 21.9573 10.8995 21.8861C11.0103 21.8148 11.0984 21.7133 11.1534 21.5935L13.5949 16.2035C13.8607 15.6212 14.3454 15.1675 14.9435 14.9408C15.5417 14.7142 16.205 14.7329 16.7894 14.993L31.6348 21.7305C31.7175 21.7742 31.8082 21.8004 31.9014 21.8075C31.9946 21.8147 32.0882 21.8027 32.1766 21.7723C32.265 21.7419 32.3462 21.6937 32.4152 21.6307C32.4843 21.5676 32.5397 21.4911 32.5781 21.4058C32.6165 21.3206 32.637 21.2283 32.6384 21.1348C32.6398 21.0413 32.6221 20.9484 32.5863 20.862C32.5505 20.7756 32.4975 20.6975 32.4304 20.6324C32.3633 20.5673 32.2835 20.5166 32.1961 20.4835L17.3736 13.746C16.9199 13.5402 16.4302 13.4259 15.9324 13.4095C15.4345 13.3932 14.9384 13.4751 14.4722 13.6508C14.0061 13.8264 13.579 14.0922 13.2155 14.433C12.852 14.7738 12.5591 15.1829 12.3536 15.6371L9.91206 21.0271C9.87447 21.1084 9.85327 21.1962 9.84967 21.2857C9.84607 21.3752 9.86015 21.4645 9.8911 21.5485C9.92205 21.6325 9.96926 21.7096 10.03 21.7753C10.0908 21.8411 10.1639 21.8941 10.2452 21.9315Z" fill="#182B56" fill-opacity="0.8"/>
<path d="M21.4262 13.8282C21.4996 13.8805 21.5828 13.9176 21.6707 13.9373C21.7587 13.9571 21.8496 13.9592 21.9384 13.9435C22.0271 13.9278 22.1119 13.8945 22.1877 13.8457C22.2635 13.7969 22.3289 13.7335 22.38 13.6592C22.6054 13.3442 22.925 13.109 23.2927 12.9878L30.4667 10.4617C30.7088 10.3818 30.9643 10.3503 31.2185 10.3693C31.4728 10.3882 31.7208 10.4571 31.9484 10.5721C32.176 10.6871 32.3788 10.8458 32.545 11.0393C32.7113 11.2328 32.8378 11.4572 32.9173 11.6996L36.3765 21.557C36.4239 21.691 36.5117 21.807 36.6278 21.8888C36.7439 21.9707 36.8826 22.0143 37.0246 22.0138C37.1007 22.015 37.1764 22.0027 37.2482 21.9772C37.3333 21.948 37.4118 21.9022 37.4791 21.8424C37.5464 21.7825 37.6011 21.71 37.6402 21.6288C37.6792 21.5476 37.7018 21.4595 37.7066 21.3696C37.7114 21.2796 37.6983 21.1896 37.668 21.1048L34.2088 11.2474C33.9261 10.4155 33.3255 9.72956 32.5386 9.34C31.7516 8.95043 30.8425 8.88896 30.0103 9.16905L22.8181 11.7088C22.1935 11.928 21.6516 12.3348 21.2664 12.8736C21.1613 13.0214 21.1191 13.205 21.1491 13.384C21.179 13.5629 21.2787 13.7227 21.4262 13.8282Z" fill="#182B56" fill-opacity="0.8"/>
<path d="M20.9242 29.7836L18.2818 29.3953L17.0953 26.9972C17.0392 26.8826 16.9522 26.7859 16.8442 26.7182C16.7361 26.6504 16.6113 26.6141 16.4838 26.6135C16.3557 26.6143 16.2303 26.6506 16.1216 26.7183C16.0129 26.786 15.925 26.8826 15.8677 26.9972L14.6857 29.3953L12.0388 29.7836C11.9123 29.802 11.7935 29.8554 11.6958 29.9379C11.5981 30.0204 11.5254 30.1286 11.486 30.2503C11.4466 30.372 11.442 30.5024 11.4727 30.6265C11.5035 30.7507 11.5684 30.8638 11.66 30.953L13.5767 32.8212L13.1204 35.4568C13.0982 35.5828 13.1117 35.7124 13.1592 35.831C13.2068 35.9497 13.2866 36.0527 13.3896 36.1283C13.5066 36.2124 13.6472 36.2572 13.7912 36.2562C13.9026 36.2576 14.0124 36.2309 14.1107 36.1786L16.4792 34.9315L18.8432 36.1786C18.9562 36.2385 19.0838 36.2654 19.2114 36.2565C19.339 36.2475 19.4615 36.2029 19.5651 36.1278C19.6687 36.0526 19.7491 35.9499 19.7974 35.8314C19.8456 35.7128 19.8597 35.583 19.838 35.4568L19.3817 32.8212L21.2984 30.953C21.3883 30.8625 21.452 30.7492 21.4825 30.6253C21.5131 30.5014 21.5094 30.3715 21.4718 30.2495C21.4322 30.1289 21.3601 30.0216 21.2635 29.9394C21.1668 29.8572 21.0494 29.8033 20.9242 29.7836ZM18.186 32.0675C18.1071 32.1457 18.0481 32.2416 18.014 32.3474C17.9798 32.4531 17.9715 32.5654 17.9898 32.675L18.2681 34.2966L16.8169 33.5521C16.7181 33.5012 16.6086 33.4746 16.4975 33.4746C16.3863 33.4746 16.2768 33.5012 16.178 33.5521L14.7222 34.3195L15.0006 32.6979C15.0194 32.5879 15.011 32.475 14.976 32.369C14.941 32.2631 14.8805 32.1674 14.7998 32.0903L13.6224 30.9393L15.2516 30.7017C15.3614 30.6858 15.4658 30.6434 15.5556 30.5782C15.6455 30.5129 15.7181 30.4268 15.7673 30.3272L16.4975 28.8472L17.2231 30.3272C17.2729 30.4263 17.3457 30.512 17.4354 30.5772C17.5251 30.6424 17.6292 30.6851 17.7388 30.7017L19.3725 30.9393L18.186 32.0675Z" fill="#182B56" fill-opacity="0.8"/>
<path d="M24 29.1396C23.8184 29.1396 23.6443 29.2118 23.5159 29.3403C23.3876 29.4688 23.3154 29.6431 23.3154 29.8248V33.3009C23.3154 33.4827 23.3876 33.6569 23.5159 33.7854C23.6443 33.9139 23.8184 33.9861 24 33.9861C24.1815 33.9861 24.3556 33.9139 24.484 33.7854C24.6124 33.6569 24.6845 33.4827 24.6845 33.3009V29.8431C24.6869 29.7516 24.671 29.6605 24.6377 29.5753C24.6044 29.49 24.5544 29.4123 24.4906 29.3467C24.4268 29.2812 24.3505 29.2291 24.2662 29.1935C24.182 29.1579 24.0914 29.1396 24 29.1396Z" fill="#182B56" fill-opacity="0.8"/>
</g>
<defs>
<clipPath id="clip0">
<rect width="32" height="30.9333" fill="white" transform="translate(8 9)"/>
</clipPath>
</defs>
</svg>
