<svg width="27" height="33" viewBox="0 0 27 33" fill="none" xmlns="http://www.w3.org/2000/svg">
<g clip-path="url(#clip0)">
<path d="M23.6096 6.78664e-05H7.84921C7.20143 0.00127804 6.58052 0.261648 6.12247 0.724165C5.66442 1.18668 5.40655 1.81364 5.40535 2.46774V3.78627C5.40071 3.83958 5.40071 3.8932 5.40535 3.94651H2.46276C1.81581 3.94651 1.19536 4.20602 0.737901 4.66794C0.280441 5.12986 0.0234375 5.75636 0.0234375 6.40961V30.537C0.0258367 31.1886 0.283897 31.8128 0.741098 32.2727C1.1983 32.7327 1.81738 32.9909 2.46276 32.9909H18.6538C19.3012 32.9909 19.9221 32.7316 20.3803 32.2698C20.8385 31.808 21.0965 31.1815 21.0977 30.5278V28.4584H23.6322C24.28 28.4572 24.9009 28.1969 25.359 27.7343C25.817 27.2718 26.0749 26.6449 26.0761 25.9908V2.46774C26.0755 2.14191 26.0111 1.81942 25.8867 1.51881C25.7622 1.21819 25.5802 0.945373 25.3509 0.716048C25.1217 0.486722 24.8499 0.305413 24.551 0.182538C24.2522 0.0596636 23.9322 -0.00234618 23.6096 6.78664e-05ZM19.7148 30.537C19.7136 30.8264 19.5989 31.1035 19.3958 31.3077C19.1927 31.512 18.9178 31.6266 18.6312 31.6266H2.46276C2.17693 31.6254 1.90315 31.5102 1.70104 31.3061C1.49893 31.102 1.38484 30.8256 1.38365 30.537V6.40961C1.38484 6.121 1.49893 5.84454 1.70104 5.64046C1.90315 5.43637 2.17693 5.32119 2.46276 5.31999H18.6538C18.9404 5.31999 19.2154 5.43464 19.4185 5.63885C19.6216 5.84306 19.7363 6.12021 19.7375 6.40961L19.7148 30.537ZM24.7022 25.9908C24.7022 26.281 24.5881 26.5593 24.3849 26.7645C24.1816 26.9697 23.906 27.085 23.6186 27.085H21.0841V6.40961C21.0829 5.75594 20.8249 5.12945 20.3667 4.66766C19.9085 4.20587 19.2876 3.94651 18.6402 3.94651H6.74744C6.75207 3.8932 6.75207 3.83958 6.74744 3.78627V2.46774C6.74744 2.17754 6.8616 1.89923 7.06483 1.69402C7.26805 1.48882 7.54367 1.37354 7.83107 1.37354H23.5914C23.8788 1.37354 24.1544 1.48882 24.3577 1.69402C24.5609 1.89923 24.675 2.17754 24.675 2.46774L24.7022 25.9908Z" fill="#231815"/>
<path d="M16.871 15.6392H8.22454C8.04416 15.6392 7.87119 15.7115 7.74364 15.8403C7.6161 15.9691 7.54443 16.1438 7.54443 16.3259C7.54443 16.508 7.6161 16.6827 7.74364 16.8115C7.87119 16.9403 8.04416 17.0126 8.22454 17.0126H16.871C17.0513 17.0126 17.2243 16.9403 17.3519 16.8115C17.4794 16.6827 17.5511 16.508 17.5511 16.3259C17.5511 16.1438 17.4794 15.9691 17.3519 15.8403C17.2243 15.7115 17.0513 15.6392 16.871 15.6392Z" fill="#231815"/>
<path d="M16.871 9.79297H8.22454C8.04416 9.79297 7.87119 9.86532 7.74364 9.99411C7.6161 10.1229 7.54443 10.2976 7.54443 10.4797C7.54443 10.6618 7.6161 10.8365 7.74364 10.9653C7.87119 11.0941 8.04416 11.1664 8.22454 11.1664H16.871C17.0513 11.1664 17.2243 11.0941 17.3519 10.9653C17.4794 10.8365 17.5511 10.6618 17.5511 10.4797C17.5511 10.2976 17.4794 10.1229 17.3519 9.99411C17.2243 9.86532 17.0513 9.79297 16.871 9.79297Z" fill="#231815"/>
<path d="M16.871 21.4902H8.22454C8.04416 21.4902 7.87119 21.5626 7.74364 21.6914C7.6161 21.8202 7.54443 21.9948 7.54443 22.177C7.54443 22.3591 7.6161 22.5338 7.74364 22.6626C7.87119 22.7914 8.04416 22.8637 8.22454 22.8637H16.871C17.0513 22.8637 17.2243 22.7914 17.3519 22.6626C17.4794 22.5338 17.5511 22.3591 17.5511 22.177C17.5511 21.9948 17.4794 21.8202 17.3519 21.6914C17.2243 21.5626 17.0513 21.4902 16.871 21.4902Z" fill="#231815"/>
<path d="M4.60652 9.54541C4.42717 9.54541 4.25185 9.59913 4.10272 9.69974C3.9536 9.80035 3.83736 9.94336 3.76873 10.1107C3.7001 10.278 3.68214 10.4621 3.71713 10.6397C3.75212 10.8173 3.83849 10.9805 3.96531 11.1085C4.09213 11.2366 4.2537 11.3238 4.4296 11.3591C4.60551 11.3945 4.78784 11.3763 4.95353 11.307C5.11923 11.2377 5.26086 11.1203 5.3605 10.9698C5.46014 10.8192 5.51333 10.6422 5.51333 10.4611C5.51333 10.2182 5.41779 9.98533 5.24773 9.81361C5.07767 9.64189 4.84702 9.54541 4.60652 9.54541Z" fill="#231815"/>
<path d="M4.60652 15.3921C4.42717 15.3921 4.25185 15.4458 4.10272 15.5464C3.9536 15.647 3.83736 15.79 3.76873 15.9573C3.7001 16.1246 3.68214 16.3088 3.71713 16.4864C3.75212 16.664 3.83849 16.8272 3.96531 16.9552C4.09213 17.0833 4.2537 17.1705 4.4296 17.2058C4.60551 17.2411 4.78784 17.223 4.95353 17.1537C5.11923 17.0844 5.26086 16.967 5.3605 16.8164C5.46014 16.6659 5.51333 16.4888 5.51333 16.3077C5.51333 16.0649 5.41779 15.832 5.24773 15.6603C5.07767 15.4886 4.84702 15.3921 4.60652 15.3921Z" fill="#231815"/>
<path d="M4.60652 21.2432C4.42717 21.2432 4.25185 21.2969 4.10272 21.3975C3.9536 21.4981 3.83736 21.6411 3.76873 21.8084C3.7001 21.9757 3.68214 22.1598 3.71713 22.3374C3.75212 22.515 3.83849 22.6782 3.96531 22.8063C4.09213 22.9343 4.2537 23.0215 4.4296 23.0569C4.60551 23.0922 4.78784 23.074 4.95353 23.0047C5.11923 22.9354 5.26086 22.8181 5.3605 22.6675C5.46014 22.5169 5.51333 22.3399 5.51333 22.1588C5.51333 21.916 5.41779 21.6831 5.24773 21.5113C5.07767 21.3396 4.84702 21.2432 4.60652 21.2432Z" fill="#231815"/>
</g>
<defs>
<clipPath id="clip0">
<rect width="26.0526" height="33" fill="white"/>
</clipPath>
</defs>
</svg>
