<svg width="32" height="31" viewBox="0 0 32 31" fill="none" xmlns="http://www.w3.org/2000/svg">
<g clip-path="url(#clip0)">
<path d="M29.3531 14.1738H2.65145C1.94861 14.175 1.27491 14.455 0.777925 14.9525C0.280942 15.4499 0.00120659 16.1242 0 16.8277V28.2793C0.00120659 28.9828 0.280942 29.6571 0.777925 30.1545C1.27491 30.652 1.94861 30.932 2.65145 30.9332H29.3531C30.0559 30.932 30.7297 30.652 31.2266 30.1545C31.7236 29.6571 32.0034 28.9828 32.0046 28.2793V16.8277C32.0034 16.1242 31.7236 15.4499 31.2266 14.9525C30.7297 14.455 30.0559 14.175 29.3531 14.1738ZM30.6355 28.2793C30.6355 28.6197 30.5004 28.9462 30.2599 29.1869C30.0194 29.4276 29.6932 29.5628 29.3531 29.5628H16.6845V27.7357C16.6845 27.554 16.6124 27.3797 16.484 27.2512C16.3557 27.1227 16.1816 27.0505 16 27.0505C15.8184 27.0505 15.6443 27.1227 15.516 27.2512C15.3876 27.3797 15.3155 27.554 15.3155 27.7357V29.5628H2.65145C2.31135 29.5628 1.98517 29.4276 1.74468 29.1869C1.50419 28.9462 1.36908 28.6197 1.36908 28.2793V16.8277C1.36908 16.4873 1.50419 16.1608 1.74468 15.9201C1.98517 15.6794 2.31135 15.5442 2.65145 15.5442H15.3155V17.3713C15.3155 17.553 15.3876 17.7273 15.516 17.8558C15.6443 17.9843 15.8184 18.0565 16 18.0565C16.1816 18.0565 16.3557 17.9843 16.484 17.8558C16.6124 17.7273 16.6845 17.553 16.6845 17.3713V15.5442H29.3531C29.6932 15.5442 30.0194 15.6794 30.2599 15.9201C30.5004 16.1608 30.6355 16.4873 30.6355 16.8277V28.2793Z" fill="black"/>
<path d="M2.2452 12.9313C2.3332 12.9745 2.43013 12.9964 2.52815 12.9952C2.65984 12.995 2.78872 12.9571 2.89952 12.8858C3.01032 12.8146 3.09841 12.7131 3.15336 12.5933L5.59489 7.20323C5.86072 6.62098 6.34536 6.16724 6.94351 5.94059C7.54165 5.71394 8.205 5.73269 8.78941 5.99276L23.6348 12.7303C23.7175 12.7739 23.8082 12.8001 23.9014 12.8073C23.9946 12.8145 24.0882 12.8025 24.1766 12.7721C24.265 12.7417 24.3462 12.6934 24.4152 12.6304C24.4843 12.5674 24.5397 12.4909 24.5781 12.4056C24.6165 12.3203 24.637 12.2281 24.6384 12.1346C24.6398 12.041 24.6221 11.9482 24.5863 11.8618C24.5505 11.7754 24.4975 11.6972 24.4304 11.6321C24.3633 11.567 24.2835 11.5164 24.1961 11.4833L9.37355 4.74574C8.91989 4.53994 8.43017 4.42561 7.93235 4.40927C7.43454 4.39293 6.93838 4.4749 6.47222 4.65051C6.00606 4.82611 5.57903 5.09192 5.21551 5.43273C4.85199 5.77355 4.55911 6.1827 4.35359 6.63682L1.91206 12.0269C1.87447 12.1081 1.85327 12.196 1.84967 12.2855C1.84607 12.375 1.86015 12.4643 1.8911 12.5483C1.92205 12.6323 1.96926 12.7094 2.03002 12.7751C2.09078 12.8408 2.16391 12.8939 2.2452 12.9313Z" fill="black"/>
<path d="M13.4262 4.82799C13.4996 4.88022 13.5828 4.91731 13.6707 4.93709C13.7587 4.95688 13.8496 4.95898 13.9384 4.94325C14.0271 4.92752 14.1119 4.89429 14.1877 4.84549C14.2635 4.79669 14.3289 4.73329 14.38 4.65898C14.6054 4.34395 14.925 4.1088 15.2927 3.98751L22.4667 1.4615C22.7088 1.38151 22.9643 1.35009 23.2185 1.36903C23.4728 1.38797 23.7208 1.45689 23.9484 1.57187C24.176 1.68684 24.3788 1.8456 24.545 2.03907C24.7113 2.23254 24.8378 2.45692 24.9173 2.69938L28.3765 12.5568C28.4239 12.6908 28.5117 12.8067 28.6278 12.8886C28.7439 12.9704 28.8826 13.0141 29.0246 13.0135C29.1007 13.0148 29.1764 13.0024 29.2482 12.977C29.3333 12.9478 29.4118 12.9019 29.4791 12.8421C29.5464 12.7823 29.6011 12.7097 29.6402 12.6286C29.6792 12.5474 29.7018 12.4593 29.7066 12.3693C29.7114 12.2794 29.6983 12.1894 29.668 12.1045L26.2088 2.24717C25.9261 1.41521 25.3255 0.729316 24.5386 0.339752C23.7516 -0.0498113 22.8425 -0.111283 22.0103 0.168804L14.8181 2.70852C14.1935 2.92778 13.6516 3.33454 13.2664 3.87331C13.1613 4.02117 13.1191 4.20473 13.1491 4.38371C13.179 4.56269 13.2787 4.72247 13.4262 4.82799Z" fill="black"/>
<path d="M12.9242 20.7838L10.2818 20.3956L9.09529 17.9975C9.03918 17.8828 8.9522 17.7862 8.84415 17.7184C8.73611 17.6506 8.61128 17.6144 8.48376 17.6138C8.35569 17.6146 8.23034 17.6508 8.1216 17.7186C8.01286 17.7863 7.92497 17.8828 7.86768 17.9975L6.68571 20.3956L4.03881 20.7838C3.91232 20.8022 3.7935 20.8557 3.6958 20.9382C3.5981 21.0207 3.52543 21.1289 3.48601 21.2506C3.44659 21.3723 3.44199 21.5026 3.47275 21.6268C3.50351 21.751 3.56838 21.864 3.66003 21.9532L5.57675 23.8214L5.12039 26.4571C5.0982 26.583 5.11166 26.7126 5.15925 26.8313C5.20683 26.95 5.28663 27.0529 5.38964 27.1286C5.5066 27.2127 5.64722 27.2575 5.79124 27.2565C5.90255 27.2579 6.01243 27.2312 6.11069 27.1788L8.4792 25.9318L10.8432 27.1788C10.9562 27.2387 11.0838 27.2657 11.2114 27.2567C11.339 27.2477 11.4615 27.2031 11.5651 27.128C11.6687 27.0529 11.7491 26.9502 11.7974 26.8316C11.8456 26.713 11.8597 26.5833 11.838 26.4571L11.3817 23.8214L13.2984 21.9532C13.3883 21.8627 13.452 21.7495 13.4825 21.6255C13.5131 21.5016 13.5094 21.3717 13.4718 21.2498C13.4322 21.1292 13.3601 21.0219 13.2635 20.9397C13.1668 20.8575 13.0494 20.8035 12.9242 20.7838ZM10.186 23.0678C10.1071 23.1459 10.0481 23.2419 10.014 23.3476C9.97982 23.4533 9.97152 23.5657 9.98976 23.6753L10.2681 25.2969L8.81691 24.5523C8.7181 24.5014 8.60858 24.4749 8.49746 24.4749C8.38633 24.4749 8.27681 24.5014 8.178 24.5523L6.72222 25.3197L7.00059 23.6981C7.01944 23.5881 7.01099 23.4752 6.97598 23.3693C6.94096 23.2633 6.88046 23.1676 6.7998 23.0906L5.62239 21.9395L7.25159 21.702C7.36145 21.6861 7.46579 21.6437 7.55563 21.5784C7.64547 21.5132 7.7181 21.427 7.76728 21.3274L8.49746 19.8474L9.22307 21.3274C9.27287 21.4265 9.34568 21.5123 9.4354 21.5775C9.52513 21.6426 9.62915 21.6853 9.73876 21.702L11.3725 21.9395L10.186 23.0678Z" fill="black"/>
<path d="M16 20.1396C15.8184 20.1396 15.6443 20.2118 15.5159 20.3403C15.3876 20.4688 15.3154 20.6431 15.3154 20.8248V24.3009C15.3154 24.4827 15.3876 24.6569 15.5159 24.7854C15.6443 24.9139 15.8184 24.9861 16 24.9861C16.1815 24.9861 16.3556 24.9139 16.484 24.7854C16.6124 24.6569 16.6845 24.4827 16.6845 24.3009V20.8431C16.6869 20.7516 16.671 20.6605 16.6377 20.5753C16.6044 20.49 16.5544 20.4123 16.4906 20.3467C16.4268 20.2812 16.3505 20.2291 16.2662 20.1935C16.182 20.1579 16.0914 20.1396 16 20.1396Z" fill="black"/>
</g>
<defs>
<clipPath id="clip0">
<rect width="32" height="30.9333" fill="white"/>
</clipPath>
</defs>
</svg>
