<svg width="49" height="49" viewBox="0 0 49 49" fill="none" xmlns="http://www.w3.org/2000/svg">
<g clip-path="url(#clip0)">
<path d="M37.427 8.5H32.1902C32.0125 8.5 31.842 8.57058 31.7163 8.69621C31.5906 8.82185 31.52 8.99225 31.52 9.16992C31.4962 9.66499 31.2826 10.1319 30.9236 10.4738C30.5647 10.8158 30.0878 11.0065 29.592 11.0065C29.0961 11.0065 28.6192 10.8158 28.2603 10.4738C27.9013 10.1319 27.6877 9.66499 27.6639 9.16992C27.6639 8.99225 27.5933 8.82185 27.4676 8.69621C27.3419 8.57058 27.1714 8.5 26.9937 8.5H21.7524C21.054 8.50118 20.3846 8.77932 19.8912 9.27336C19.3977 9.76739 19.1206 10.4369 19.1206 11.135V18.0129C12.597 18.138 9 21.0946 9 26.3869V32.6798C9 34.7029 9.20108 36.9092 11.4531 37.7622V39.8345C11.4531 40.0122 11.5237 40.1826 11.6494 40.3082C11.7751 40.4339 11.9456 40.5045 12.1233 40.5045C12.3011 40.5045 12.4715 40.4339 12.5972 40.3082C12.7229 40.1826 12.7936 40.0122 12.7936 39.8345V37.2754C12.7937 37.1268 12.7447 36.9823 12.6542 36.8644C12.5637 36.7465 12.4367 36.6618 12.2931 36.6234C10.8141 36.2438 10.3405 35.2835 10.3405 32.6798V26.3869C10.3405 20.7596 15.0143 19.4287 19.1206 19.3438V24.5648H16.6407C16.463 24.5648 16.2925 24.6353 16.1668 24.761C16.0411 24.8866 15.9705 25.057 15.9705 25.2347C15.9705 25.4124 16.0411 25.5827 16.1668 25.7084C16.2925 25.834 16.463 25.9046 16.6407 25.9046H24.1116C24.6959 25.9046 25.2562 26.1366 25.6693 26.5495C26.0824 26.9624 26.3145 27.5225 26.3145 28.1064C26.3145 28.6904 26.0824 29.2504 25.6693 29.6633C25.2562 30.0763 24.6959 30.3082 24.1116 30.3082H21.3547C21.183 30.308 21.0177 30.3736 20.893 30.4916C20.7683 30.6097 20.6937 30.771 20.6845 30.9424C20.6845 31.0987 20.4521 34.8057 17.588 34.8057C17.4102 34.8057 17.2398 34.8762 17.1141 35.0019C16.9884 35.1275 16.9177 35.2979 16.9177 35.4756C16.9177 35.6533 16.9884 35.8236 17.1141 35.9493C17.2398 36.0749 17.4102 36.1455 17.588 36.1455C18.1125 36.1497 18.6329 36.0526 19.1206 35.8597V37.6863C19.1206 38.384 19.3979 39.0531 19.8914 39.5464C20.385 40.0397 21.0544 40.3169 21.7524 40.3169H37.427C38.1254 40.3169 38.7953 40.0399 39.2896 39.5467C39.7838 39.0535 40.0621 38.3844 40.0633 37.6863V11.135C40.0621 10.4365 39.784 9.76699 39.2899 9.27309C38.7957 8.77918 38.1258 8.50118 37.427 8.5ZM37.427 38.977H21.7524C21.4103 38.9759 21.0825 38.8395 20.8406 38.5977C20.5987 38.3559 20.4623 38.0283 20.4611 37.6863V34.9396C21.2734 34.0137 21.7942 32.8687 21.9579 31.6481H24.1116C25.0514 31.6481 25.9526 31.2749 26.6171 30.6108C27.2816 29.9466 27.655 29.0457 27.655 28.1064C27.655 27.1671 27.2816 26.2663 26.6171 25.6021C25.9526 24.9379 25.0514 24.5648 24.1116 24.5648H20.4611V17.0393H22.999C23.1768 17.0393 23.3473 16.9687 23.473 16.8431C23.5987 16.7174 23.6693 16.547 23.6693 16.3694C23.6693 16.1917 23.5987 16.0213 23.473 15.8957C23.3473 15.77 23.1768 15.6994 22.999 15.6994H20.4611V11.135C20.4611 10.7923 20.597 10.4635 20.839 10.2208C21.0811 9.978 21.4095 9.84103 21.7524 9.83985H26.3949C26.5486 10.5737 26.9502 11.2323 27.5324 11.7051C28.1146 12.1778 28.8419 12.4359 29.592 12.4359C30.342 12.4359 31.0693 12.1778 31.6515 11.7051C32.2337 11.2323 32.6353 10.5737 32.789 9.83985H37.427C37.7707 9.83985 38.1003 9.97629 38.3433 10.2192C38.5863 10.4621 38.7228 10.7915 38.7228 11.135V15.6994H36.2519C36.0741 15.6994 35.9036 15.77 35.7779 15.8957C35.6523 16.0213 35.5816 16.1917 35.5816 16.3694C35.5816 16.547 35.6523 16.7174 35.7779 16.8431C35.9036 16.9687 36.0741 17.0393 36.2519 17.0393H38.7228V37.6863C38.7216 38.029 38.5846 38.3573 38.3417 38.5993C38.0988 38.8412 37.7699 38.977 37.427 38.977Z" fill="#182B56" fill-opacity="0.8"/>
<path d="M32.5029 16.3694C32.5029 16.1917 32.4322 16.0213 32.3066 15.8957C32.1809 15.77 32.0104 15.6995 31.8326 15.6995H27.4359C27.2581 15.6995 27.0876 15.77 26.9619 15.8957C26.8362 16.0213 26.7656 16.1917 26.7656 16.3694C26.7656 16.5471 26.8362 16.7174 26.9619 16.8431C27.0876 16.9687 27.2581 17.0393 27.4359 17.0393H31.8505C32.0251 17.0347 32.1911 16.962 32.3129 16.8369C32.4348 16.7117 32.5029 16.544 32.5029 16.3694Z" fill="#182B56" fill-opacity="0.8"/>
<path d="M33.0392 30.7236C32.4401 30.7236 31.8543 30.9012 31.3561 31.234C30.858 31.5667 30.4697 32.0396 30.2404 32.5929C30.0111 33.1462 29.9511 33.755 30.068 34.3424C30.1849 34.9298 30.4734 35.4694 30.8971 35.8928C31.3208 36.3163 31.8606 36.6047 32.4482 36.7216C33.0359 36.8384 33.645 36.7784 34.1986 36.5492C34.7521 36.3201 35.2253 35.9319 35.5582 35.434C35.891 34.936 36.0687 34.3506 36.0687 33.7517C36.0675 32.949 35.748 32.1794 35.1801 31.6118C34.6122 31.0442 33.8423 30.7248 33.0392 30.7236ZM33.0392 35.4399C32.7052 35.4399 32.3786 35.3409 32.1009 35.1554C31.8231 34.9699 31.6066 34.7062 31.4788 34.3977C31.351 34.0893 31.3175 33.7498 31.3827 33.4223C31.4479 33.0949 31.6087 32.794 31.8449 32.5579C32.0811 32.3218 32.3821 32.1611 32.7097 32.0959C33.0374 32.0308 33.377 32.0642 33.6856 32.192C33.9942 32.3198 34.258 32.5362 34.4436 32.8138C34.6292 33.0914 34.7282 33.4178 34.7282 33.7517C34.7271 34.1991 34.5487 34.6278 34.2322 34.9441C33.9157 35.2605 33.4868 35.4387 33.0392 35.4399Z" fill="#182B56" fill-opacity="0.8"/>
<path d="M32.3511 27.3828C32.3511 27.5605 32.4217 27.7309 32.5474 27.8565C32.6731 27.9822 32.8436 28.0527 33.0213 28.0527C33.1991 28.0527 33.3696 27.9822 33.4952 27.8565C33.6209 27.7309 33.6915 27.5605 33.6915 27.3828V20.3799C33.6915 20.2022 33.6209 20.0318 33.4952 19.9062C33.3696 19.7806 33.1991 19.71 33.0213 19.71C32.8436 19.71 32.6731 19.7806 32.5474 19.9062C32.4217 20.0318 32.3511 20.2022 32.3511 20.3799V27.3828Z" fill="#182B56" fill-opacity="0.8"/>
</g>
<defs>
<clipPath id="clip0">
<rect width="31.0588" height="32" fill="white" transform="translate(9 8.5)"/>
</clipPath>
</defs>
</svg>
