<svg width="48" height="49" viewBox="0 0 48 49" fill="none" xmlns="http://www.w3.org/2000/svg">
<path d="M34.6096 8.00007H18.8492C18.2014 8.00128 17.5805 8.26165 17.1225 8.72417C16.6644 9.18668 16.4065 9.81364 16.4053 10.4677V11.7863C16.4007 11.8396 16.4007 11.8932 16.4053 11.9465H13.4628C12.8158 11.9465 12.1954 12.206 11.7379 12.6679C11.2804 13.1299 11.0234 13.7564 11.0234 14.4096V38.537C11.0258 39.1886 11.2839 39.8128 11.7411 40.2727C12.1983 40.7327 12.8174 40.9909 13.4628 40.9909H29.6538C30.3012 40.9909 30.9221 40.7316 31.3803 40.2698C31.8385 39.808 32.0965 39.1815 32.0977 38.5278V36.4584H34.6322C35.28 36.4572 35.9009 36.1969 36.359 35.7343C36.817 35.2718 37.0749 34.6449 37.0761 33.9908V10.4677C37.0755 10.1419 37.0111 9.81942 36.8867 9.51881C36.7622 9.21819 36.5802 8.94537 36.3509 8.71605C36.1217 8.48672 35.8499 8.30541 35.551 8.18254C35.2522 8.05966 34.9322 7.99765 34.6096 8.00007ZM30.7148 38.537C30.7136 38.8264 30.5989 39.1035 30.3958 39.3077C30.1927 39.512 29.9178 39.6266 29.6312 39.6266H13.4628C13.1769 39.6254 12.9032 39.5102 12.701 39.3061C12.4989 39.102 12.3848 38.8256 12.3837 38.537V14.4096C12.3848 14.121 12.4989 13.8445 12.701 13.6405C12.9032 13.4364 13.1769 13.3212 13.4628 13.32H29.6538C29.9404 13.32 30.2154 13.4346 30.4185 13.6388C30.6216 13.8431 30.7363 14.1202 30.7375 14.4096L30.7148 38.537ZM35.7022 33.9908C35.7022 34.281 35.5881 34.5593 35.3849 34.7645C35.1816 34.9697 34.906 35.085 34.6186 35.085H32.0841V14.4096C32.0829 13.7559 31.8249 13.1295 31.3667 12.6677C30.9085 12.2059 30.2876 11.9465 29.6402 11.9465H17.7474C17.7521 11.8932 17.7521 11.8396 17.7474 11.7863V10.4677C17.7474 10.1775 17.8616 9.89923 18.0648 9.69402C18.268 9.48882 18.5437 9.37354 18.8311 9.37354H34.5914C34.8788 9.37354 35.1544 9.48882 35.3577 9.69402C35.5609 9.89923 35.675 10.1775 35.675 10.4677L35.7022 33.9908Z" fill="#13334C"/>
<path d="M27.8715 23.6394H19.225C19.0447 23.6394 18.8717 23.7118 18.7441 23.8406C18.6166 23.9694 18.5449 24.144 18.5449 24.3261C18.5449 24.5083 18.6166 24.683 18.7441 24.8117C18.8717 24.9405 19.0447 25.0129 19.225 25.0129H27.8715C28.0518 25.0129 28.2248 24.9405 28.3524 24.8117C28.4799 24.683 28.5516 24.5083 28.5516 24.3261C28.5516 24.144 28.4799 23.9694 28.3524 23.8406C28.2248 23.7118 28.0518 23.6394 27.8715 23.6394Z" fill="#13334C"/>
<path d="M27.8715 17.793H19.225C19.0447 17.793 18.8717 17.8653 18.7441 17.9941C18.6166 18.1229 18.5449 18.2976 18.5449 18.4797C18.5449 18.6618 18.6166 18.8365 18.7441 18.9653C18.8717 19.0941 19.0447 19.1664 19.225 19.1664H27.8715C28.0518 19.1664 28.2248 19.0941 28.3524 18.9653C28.4799 18.8365 28.5516 18.6618 28.5516 18.4797C28.5516 18.2976 28.4799 18.1229 28.3524 17.9941C28.2248 17.8653 28.0518 17.793 27.8715 17.793Z" fill="#13334C"/>
<path d="M27.8715 29.4905H19.225C19.0447 29.4905 18.8717 29.5628 18.7441 29.6916C18.6166 29.8204 18.5449 29.9951 18.5449 30.1772C18.5449 30.3593 18.6166 30.534 18.7441 30.6628C18.8717 30.7916 19.0447 30.864 19.225 30.864H27.8715C28.0518 30.864 28.2248 30.7916 28.3524 30.6628C28.4799 30.534 28.5516 30.3593 28.5516 30.1772C28.5516 29.9951 28.4799 29.8204 28.3524 29.6916C28.2248 29.5628 28.0518 29.4905 27.8715 29.4905Z" fill="#13334C"/>
<path d="M15.6065 17.5457C15.4272 17.5457 15.2518 17.5994 15.1027 17.7C14.9536 17.8006 14.8374 17.9436 14.7687 18.1109C14.7001 18.2782 14.6821 18.4623 14.7171 18.6399C14.7521 18.8176 14.8385 18.9807 14.9653 19.1088C15.0921 19.2368 15.2537 19.324 15.4296 19.3594C15.6055 19.3947 15.7878 19.3766 15.9535 19.3073C16.1192 19.238 16.2609 19.1206 16.3605 18.97C16.4601 18.8194 16.5133 18.6424 16.5133 18.4613C16.5133 18.2185 16.4178 17.9856 16.2477 17.8139C16.0777 17.6421 15.847 17.5457 15.6065 17.5457Z" fill="#13334C"/>
<path d="M15.6065 23.3921C15.4272 23.3921 15.2518 23.4458 15.1027 23.5464C14.9536 23.647 14.8374 23.79 14.7687 23.9573C14.7001 24.1246 14.6821 24.3088 14.7171 24.4864C14.7521 24.664 14.8385 24.8272 14.9653 24.9552C15.0921 25.0833 15.2537 25.1705 15.4296 25.2058C15.6055 25.2411 15.7878 25.223 15.9535 25.1537C16.1192 25.0844 16.2609 24.967 16.3605 24.8164C16.4601 24.6659 16.5133 24.4888 16.5133 24.3077C16.5133 24.0649 16.4178 23.832 16.2477 23.6603C16.0777 23.4886 15.847 23.3921 15.6065 23.3921Z" fill="#13334C"/>
<path d="M15.6065 29.2432C15.4272 29.2432 15.2518 29.2969 15.1027 29.3975C14.9536 29.4981 14.8374 29.6411 14.7687 29.8084C14.7001 29.9757 14.6821 30.1598 14.7171 30.3374C14.7521 30.515 14.8385 30.6782 14.9653 30.8063C15.0921 30.9343 15.2537 31.0215 15.4296 31.0569C15.6055 31.0922 15.7878 31.074 15.9535 31.0047C16.1192 30.9354 16.2609 30.8181 16.3605 30.6675C16.4601 30.5169 16.5133 30.3399 16.5133 30.1588C16.5133 29.916 16.4178 29.6831 16.2477 29.5113C16.0777 29.3396 15.847 29.2432 15.6065 29.2432Z" fill="#13334C"/>
</svg>
