<svg width="48" height="48" viewBox="0 0 48 48" fill="none" xmlns="http://www.w3.org/2000/svg">
<path d="M39.0521 18.5979C36.0685 10.2832 26.9125 5.96332 18.5979 8.9399C10.2832 11.9235 5.96332 21.0866 8.9399 29.4012C11.9235 37.7159 21.0795 42.0358 29.3942 39.0521H29.4012C37.7159 36.0685 42.0358 26.9125 39.0521 18.5979ZM28.9346 37.7229C21.3553 40.445 13.0053 36.4998 10.2832 28.9205C7.5612 21.3411 11.5064 12.9912 19.0857 10.2691C26.665 7.55413 35.015 11.4923 37.7371 19.0716C40.4874 26.5873 36.627 34.909 29.1114 37.6593C29.0548 37.6805 28.9912 37.7017 28.9346 37.7229Z" fill="#182B56" fill-opacity="0.8"/>
<path d="M32.4841 31.3458C31.2185 32.8023 29.5994 33.9123 27.7824 34.5628C27.2097 34.7608 26.6229 34.9234 26.0219 35.0365C25.7603 35.0577 25.5694 35.291 25.5906 35.5526C25.6118 35.8142 25.8451 36.0051 26.1067 35.9839C26.135 35.991 26.1633 35.991 26.1916 35.9839C26.842 35.8637 27.4784 35.694 28.1005 35.4678C30.0661 34.7608 31.8195 33.5659 33.1911 31.9822C33.3679 31.7913 33.3537 31.4943 33.1628 31.3175C32.972 31.1408 32.675 31.1549 32.4982 31.3458C32.4912 31.3529 32.4841 31.36 32.477 31.367L32.4841 31.3458Z" fill="#182B56" fill-opacity="0.8"/>
<path d="M34.9516 28.1081C34.7112 28.0091 34.4355 28.1222 34.3365 28.3626C34.1951 28.702 34.0396 29.0343 33.8628 29.3595C33.7355 29.5858 33.8204 29.8756 34.0466 29.9958C34.1173 30.0312 34.1951 30.0524 34.2729 30.0524C34.4426 30.0524 34.6052 29.9605 34.69 29.8049C34.8809 29.4514 35.0577 29.0838 35.2132 28.7161C35.3122 28.4828 35.1991 28.2071 34.9516 28.1081Z" fill="#182B56" fill-opacity="0.8"/>
<path d="M24.3674 23.6391H23.6533C23.0806 23.6391 22.8756 23.3209 22.8049 22.6987C22.4867 19.7434 21.4262 19.4181 20.4646 19.4181C19.39 19.4181 18.8597 20.1322 18.6547 21.0938C18.4001 22.2604 18.3365 24.5087 18.3365 26.7995C18.3365 27.5772 17.8557 27.9944 17.0285 27.9944C16.4063 27.9944 15.9255 27.5843 15.9255 26.7995C15.9255 23.9573 15.9962 21.5746 16.4063 20.1959C16.979 18.2445 18.4001 17.2617 20.4152 17.2617C22.2251 17.2617 23.5119 17.997 23.9715 19.6232C24.523 17.997 25.6684 17.2617 27.6622 17.2617C29.7691 17.2617 30.964 18.2445 31.5579 20.1959C32.0175 21.6877 32.0599 24.1623 32.0599 26.7783C32.0599 27.5348 31.6215 27.9449 30.9852 27.9732C30.1155 27.9944 29.656 27.5631 29.656 26.7783C29.656 24.3744 29.5216 22.2816 29.3378 21.0938C29.1752 20.0828 28.7156 19.4181 27.6197 19.4181C26.637 19.4181 25.534 19.6727 25.1876 22.72C25.1239 23.3139 24.9401 23.6391 24.3674 23.6391Z" fill="#182B56" fill-opacity="0.8"/>
<path d="M26.8562 24.0068C25.7957 24.0068 25.7957 24.6573 25.7957 25.9865C25.7957 27.344 25.7957 27.9945 26.8562 27.9945C27.8955 27.9945 27.8955 27.3157 27.8955 25.9865C27.8955 24.5937 27.8955 24.0068 26.8562 24.0068Z" fill="#182B56" fill-opacity="0.8"/>
<path d="M21.1999 24.0068C20.1394 24.0068 20.1394 24.6573 20.1394 25.9865C20.1394 27.344 20.1394 27.9945 21.1999 27.9945C22.2393 27.9945 22.2393 27.3157 22.2393 25.9865C22.2393 24.5937 22.2393 24.0068 21.1999 24.0068Z" fill="#182B56" fill-opacity="0.8"/>
</svg>
