<svg width="32" height="30" viewBox="0 0 32 30" fill="none" xmlns="http://www.w3.org/2000/svg">
<g clip-path="url(#clip0)">
<path d="M28.6823 -0.0136719H8.42329C7.54372 -0.012468 6.70051 0.340286 6.07856 0.967232C5.45661 1.59418 5.10666 2.44415 5.10547 3.33079V8.27694C5.10547 8.45796 5.1768 8.63157 5.30378 8.75957C5.43077 8.88758 5.60299 8.95948 5.78257 8.95948C5.96215 8.95948 6.13438 8.88758 6.26136 8.75957C6.38835 8.63157 6.45968 8.45796 6.45968 8.27694V6.50233H30.6414V15.6848C30.6414 17.2046 29.8108 17.6232 28.6417 18.0464C28.4924 18.101 28.3669 18.2067 28.2871 18.3451C28.2074 18.4836 28.1784 18.6458 28.2053 18.8036C28.2322 18.9613 28.3132 19.1046 28.4342 19.2082C28.5553 19.3118 28.7086 19.3693 28.8674 19.3705C28.9461 19.3728 29.0244 19.3589 29.0976 19.3296C30.1132 18.9656 31.9956 18.2785 31.9956 15.6894V3.34444C31.9974 2.90447 31.913 2.46847 31.7474 2.06142C31.5817 1.65437 31.338 1.28428 31.0302 0.972329C30.7224 0.66038 30.3566 0.412713 29.9537 0.243517C29.5508 0.0743218 29.1187 -0.0130769 28.6823 -0.0136719ZM6.45968 5.13725V3.31714C6.45968 2.79217 6.66656 2.28871 7.0348 1.9175C7.40305 1.5463 7.90251 1.33776 8.42329 1.33776H28.6823C29.2023 1.33897 29.7006 1.54804 30.0678 1.91911C30.4351 2.29019 30.6414 2.79296 30.6414 3.31714V5.13725H6.45968Z" fill="#231815"/>
<path d="M23.5723 10.6206H3.31333C2.43459 10.6206 1.59184 10.9725 0.970474 11.5988C0.349109 12.2252 2.76524e-05 13.0747 2.76524e-05 13.9605V26.6603C-0.00175423 27.1003 0.0825972 27.5363 0.248253 27.9434C0.413908 28.3504 0.657617 28.7205 0.965404 29.0325C1.27319 29.3444 1.63901 29.5921 2.04191 29.7613C2.44481 29.9305 2.87686 30.0179 3.31333 30.0185H23.5723C24.4519 30.0173 25.2951 29.6645 25.9171 29.0375C26.539 28.4106 26.889 27.5606 26.8901 26.674V13.9605C26.8889 13.0743 26.5389 12.2248 25.9168 11.5986C25.2947 10.9723 24.4515 10.6206 23.5723 10.6206ZM25.5359 26.6603C25.5359 27.1853 25.3291 27.6888 24.9608 28.06C24.5926 28.4312 24.0931 28.6397 23.5723 28.6397H3.31333C2.79333 28.6385 2.29504 28.4294 1.92776 28.0584C1.56049 27.6873 1.35424 27.1845 1.35424 26.6603V13.9605C1.35543 13.4371 1.56222 12.9355 1.92936 12.5654C2.2965 12.1953 2.79411 11.9869 3.31333 11.9857H23.5723C24.0923 11.9857 24.5911 12.1936 24.9592 12.5638C25.3273 12.934 25.5347 13.4363 25.5359 13.9605V26.6603Z" fill="#231815"/>
<path d="M16.4042 19.1792C16.5837 19.1792 16.756 19.1073 16.8829 18.9793C17.0099 18.8513 17.0813 18.6777 17.0813 18.4967V15.8666C17.0813 15.6856 17.0099 15.512 16.8829 15.384C16.756 15.256 16.5837 15.1841 16.4042 15.1841C16.2246 15.1841 16.0523 15.256 15.9254 15.384C15.7984 15.512 15.7271 15.6856 15.7271 15.8666V18.4967C15.7271 18.6777 15.7984 18.8513 15.9254 18.9793C16.0523 19.1073 16.2246 19.1792 16.4042 19.1792Z" fill="#231815"/>
<path d="M21.1029 19.1792C21.2825 19.1792 21.4547 19.1073 21.5817 18.9793C21.7087 18.8513 21.78 18.6777 21.78 18.4967V15.8666C21.78 15.6856 21.7087 15.512 21.5817 15.384C21.4547 15.256 21.2825 15.1841 21.1029 15.1841C20.9233 15.1841 20.7511 15.256 20.6241 15.384C20.4971 15.512 20.4258 15.6856 20.4258 15.8666V18.4967C20.4258 18.6777 20.4971 18.8513 20.6241 18.9793C20.7511 19.1073 20.9233 19.1792 21.1029 19.1792Z" fill="#231815"/>
<path d="M22.6109 22.492C22.4507 22.414 22.2666 22.4022 22.0979 22.4592C21.9292 22.5161 21.7893 22.6373 21.7081 22.7968C21.681 22.856 20.9678 24.2165 18.7604 24.2165C16.553 24.2165 15.8443 22.8514 15.8082 22.7968C15.7298 22.6339 15.5904 22.5091 15.4207 22.4498C15.2509 22.3905 15.0648 22.4015 14.9032 22.4806C14.7415 22.5596 14.6177 22.7002 14.5588 22.8713C14.5 23.0424 14.511 23.23 14.5894 23.3929C14.6346 23.4839 15.6638 25.5816 18.7604 25.5816C21.857 25.5816 22.8817 23.4839 22.9268 23.3929C23.0029 23.2311 23.0123 23.0456 22.9531 22.8768C22.8939 22.708 22.7709 22.5697 22.6109 22.492Z" fill="#231815"/>
<path d="M10.4137 23.9756H4.26109C4.08151 23.9756 3.90928 24.0475 3.7823 24.1755C3.65532 24.3035 3.58398 24.4771 3.58398 24.6581C3.58398 24.8391 3.65532 25.0128 3.7823 25.1408C3.90928 25.2688 4.08151 25.3407 4.26109 25.3407H10.4137C10.5933 25.3407 10.7655 25.2688 10.8925 25.1408C11.0195 25.0128 11.0908 24.8391 11.0908 24.6581C11.0908 24.4771 11.0195 24.3035 10.8925 24.1755C10.7655 24.0475 10.5933 23.9756 10.4137 23.9756Z" fill="#231815"/>
<path d="M4.71275 20.1122H9.3577C9.53728 20.1122 9.70949 20.0403 9.83647 19.9123C9.96346 19.7843 10.0348 19.6107 10.0348 19.4297V15.3344C10.0348 15.1534 9.96346 14.9798 9.83647 14.8518C9.70949 14.7238 9.53728 14.6519 9.3577 14.6519H4.71275C4.53317 14.6519 4.36094 14.7238 4.23396 14.8518C4.10698 14.9798 4.03564 15.1534 4.03564 15.3344V19.4297C4.03564 19.6107 4.10698 19.7843 4.23396 19.9123C4.36094 20.0403 4.53317 20.1122 4.71275 20.1122ZM5.38986 16.0169H8.68059V18.7471H5.38986V16.0169Z" fill="#231815"/>
</g>
<defs>
<clipPath id="clip0">
<rect width="32" height="30" fill="white"/>
</clipPath>
</defs>
</svg>
