<svg width="48" height="49" viewBox="0 0 48 49" fill="none" xmlns="http://www.w3.org/2000/svg">
<g clip-path="url(#clip0)">
<path d="M36.0086 18.2411H34.4371V13.1353C34.4371 10.5801 32.1327 8.5 29.2984 8.5H18.7169C15.8825 8.5 13.5782 10.5801 13.5782 13.1353V18.2411H12.0066C11.0723 18.2411 10.1763 18.6122 9.51523 19.2729C8.85417 19.9336 8.48218 20.8299 8.48096 21.7649V36.9854C8.48218 37.9204 8.85417 38.8167 9.51523 39.4774C10.1763 40.1381 11.0723 40.5092 12.0066 40.5092H35.9718C36.906 40.5092 37.8021 40.1381 38.4632 39.4774C39.1242 38.8167 39.4962 37.9204 39.4974 36.9854V21.7649C39.4963 20.8363 39.1293 19.9455 38.4762 19.2859C37.8231 18.6262 36.9365 18.2508 36.0086 18.2411ZM33.0545 13.1353V18.2411H31.4046V10.4464C31.8913 10.7102 32.3 11.0976 32.5896 11.5696C32.8792 12.0416 33.0395 12.5816 33.0545 13.1353ZM18.0855 12.8586H30.022V18.2411H18.0855V12.8586ZM29.3168 9.88368C29.5592 9.88475 29.8011 9.9048 30.0404 9.94365V11.4749H18.1039V9.93443C18.3189 9.90114 18.5361 9.88417 18.7537 9.88368H29.3168ZM14.9976 13.1353C15.0134 12.5672 15.1818 12.0139 15.4851 11.5334C15.7884 11.053 16.2154 10.6631 16.7213 10.4049V18.2458H14.9976V13.1353ZM38.1701 36.9762C38.1689 37.5442 37.9426 38.0886 37.5408 38.4898C37.139 38.891 36.5947 39.1163 36.0271 39.1163H12.0619C11.4943 39.1163 10.9499 38.891 10.5482 38.4898C10.1464 38.0886 9.92009 37.5442 9.91887 36.9762V21.7557C9.92009 21.1877 10.1464 20.6433 10.5482 20.2421C10.9499 19.8409 11.4943 19.6156 12.0619 19.6156H36.0271C36.5947 19.6156 37.139 19.8409 37.5408 20.2421C37.9426 20.6433 38.1689 21.1877 38.1701 21.7557V36.9762Z" fill="#182B56" fill-opacity="0.8"/>
<path d="M26.5938 23.8359C25.6423 23.8457 24.7281 24.2071 24.0267 24.8506C23.5575 24.4572 23.0047 24.1762 22.4105 24.0291C21.8162 23.882 21.1963 23.8727 20.5979 24.002C19.9943 24.1313 19.4329 24.4103 18.9651 24.8132C18.4973 25.2161 18.138 25.7301 17.9202 26.3081C17.358 27.761 17.6345 29.2277 18.7406 30.6667C19.9711 32.2718 21.5058 33.4618 23.4368 34.7532C23.6047 34.8597 23.8003 34.9143 23.9991 34.91C24.2254 34.9123 24.4476 34.8499 24.6397 34.7301C26.0354 33.8404 27.3277 32.7977 28.4926 31.6214C29.3638 30.7866 29.9902 29.7291 30.3038 28.5635C30.4227 28.0024 30.4172 27.422 30.2876 26.8633C30.158 26.3046 29.9075 25.7811 29.5537 25.3298C29.1999 24.8786 28.7515 24.5105 28.24 24.2516C27.7286 23.9926 27.1666 23.8492 26.5938 23.8313V23.8359ZM28.958 28.2591C28.7065 29.1829 28.2002 30.0173 27.4971 30.6667C26.4442 31.7292 25.279 32.6741 24.0221 33.4848C22.4359 32.5022 21.0208 31.2668 19.8328 29.8273C19.0217 28.7711 18.8235 27.8117 19.2107 26.8154C19.3451 26.4487 19.5704 26.1222 19.8654 25.8664C20.1605 25.6107 20.5156 25.4342 20.8975 25.3534C21.0758 25.3127 21.2583 25.2925 21.4413 25.2934C22.1464 25.2964 22.8226 25.5744 23.3262 26.0683C23.5134 26.2444 23.7606 26.3424 24.0175 26.3424C24.2744 26.3424 24.5217 26.2444 24.7088 26.0683C25.1968 25.5469 25.8672 25.2345 26.58 25.1965C26.9443 25.2037 27.3024 25.2933 27.6272 25.4587C27.9521 25.624 28.2353 25.8608 28.4557 26.1513C28.6939 26.4414 28.8629 26.7819 28.9499 27.1472C29.037 27.5124 29.0397 27.8926 28.958 28.2591Z" fill="#182B56" fill-opacity="0.8"/>
</g>
<defs>
<clipPath id="clip0">
<rect width="31.0303" height="32" fill="white" transform="translate(8.5 8.5)"/>
</clipPath>
</defs>
</svg>
