<svg width="128" height="90" viewBox="0 0 128 90" fill="none" xmlns="http://www.w3.org/2000/svg">
<g opacity="0.3">
<path d="M116.75 90H11.25C5.04688 90 0 84.9531 0 78.75V11.25C0 5.04688 5.04688 0 11.25 0H116.75C122.953 0 128 5.04688 128 11.25V78.75C128 84.9531 122.953 90 116.75 90Z" fill="#F5EED7"/>
<path d="M114.013 0.0270996H48.4324V89.973H114.013C121.725 89.973 128 84.9292 128 78.7298V11.2703C128 5.07094 121.725 0.0270996 114.013 0.0270996Z" fill="#EBE2C3"/>
<path d="M37.0366 55.3785H11.3959C9.87849 55.3785 8.64868 54.1642 8.64868 52.6659V50.8576C8.64868 42.3823 15.6326 35.4866 24.2163 35.4866C32.7999 35.4866 39.7838 42.3823 39.7838 50.8576V52.6659C39.7838 54.1642 38.554 55.3785 37.0366 55.3785Z" fill="#0093FF"/>
<path d="M24.2163 35.4866V55.3785H37.0367C38.5541 55.3785 39.7839 54.1642 39.7839 52.6659V50.8576C39.7839 42.3823 32.7999 35.4866 24.2163 35.4866Z" fill="#007DEF"/>
<path d="M24.6486 41.5406C19.1642 41.5406 14.7026 37.079 14.7026 31.5946C14.7026 26.1102 19.1642 21.6487 24.6486 21.6487C30.133 21.6487 34.5945 26.1102 34.5945 31.5946C34.5945 37.079 30.133 41.5406 24.6486 41.5406Z" fill="#FFBEAA"/>
<path d="M24.2163 21.6487V41.5406C29.9392 41.5406 34.5947 37.079 34.5947 31.5946C34.5947 26.1102 29.9392 21.6487 24.2163 21.6487Z" fill="#FAA68F"/>
<path d="M109.25 63.75H69.25C67.1787 63.75 65.5 62.0713 65.5 60C65.5 57.9287 67.1787 56.25 69.25 56.25H109.25C111.321 56.25 113 57.9287 113 60C113 62.0713 111.321 63.75 109.25 63.75Z" fill="#47435C"/>
<path d="M109.25 48.75H69.25C67.1787 48.75 65.5 47.0713 65.5 45C65.5 42.9287 67.1787 41.25 69.25 41.25H109.25C111.321 41.25 113 42.9287 113 45C113 47.0713 111.321 48.75 109.25 48.75Z" fill="#47435C"/>
<path d="M84.25 33.75H69.25C67.1787 33.75 65.5 32.0713 65.5 30C65.5 27.9287 67.1787 26.25 69.25 26.25H84.25C86.3213 26.25 88 27.9287 88 30C88 32.0713 86.3213 33.75 84.25 33.75Z" fill="#47435C"/>
</g>
</svg>
