<?xml version="1.0" encoding="utf-8"?>
<!-- Generator: Adobe Illustrator 22.0.1, SVG Export Plug-In . SVG Version: 6.00 Build 0)  -->
<svg version="1.1" id="圖層_1" xmlns="http://www.w3.org/2000/svg" xmlns:xlink="http://www.w3.org/1999/xlink" x="0px" y="0px"
	 viewBox="0 0 128 98" style="enable-background:new 0 0 128 98;" xml:space="preserve">
<style type="text/css">
	.st0{fill:none;}
	.st1{fill:#C4DFF5;}
	.st2{fill:#F9F3B0;}
	.st3{fill:#B8D2EC;}
	.st4{fill:#B6D1EC;}
	.st5{fill:#D1E5E8;}
	.st6{fill:#F0F1BE;}
</style>
<rect x="-3.5" y="-18.5" class="st0" width="133" height="133"/>
<g>
	<path class="st1" d="M64.5,9.6c16.9,0,34,0,50.9,0c6.3,0,10,3.4,10,9.9c0.1,21.1,0.1,42.3,0,63.4c0,6.4-3.6,9.9-10,9.9
		c-34.3,0-68.6,0-102.9,0c-6,0-9.7-3.5-9.7-9.6c-0.1-21.3-0.1-42.6,0-63.9C2.8,13,6.6,9.6,13,9.6C30.2,9.6,47.3,9.6,64.5,9.6z"/>
	<path class="st2" d="M26.6,56.3c-3.2-3.2-6.5-6.4-9.9-9.6c-1.6-1.5-1.8-2.4,0.7-3c2.7-0.7,5.3-1,8.1-1c2.9-1.9,7.5,0.1,9.4-4.1
		c1.9-3.4,3.8-7,5.7-10.4c0.6-1.1,0.9-2.9,2.7-2.8c1.7,0.1,1.9,1.8,2.6,2.9c1.4,2.4,3,4.7,3.9,7.3c2.2,6,7,7.1,12.4,7.2
		c2.9,0.1,7.2-0.5,8.1,1.9c0.9,2.5-2.7,4.9-5,6.2c-9.6,5.9-5.4,14.8-5,22.8c0.1,1.1,0.8,2.3,0.1,3.7c-4.5-0.5-8.1-3.3-11.8-5.5
		c-3.9-2.3-7.3-2.2-11,0.2c-3.6,2.3-7.3,4.7-11.8,5.4c0.3-3.3,0.6-6.5,0.9-9.8C27.5,63.9,30,60.1,26.6,56.3z"/>
	<path class="st3" d="M94.2,70.9c-4.8,0-9.7,0-14.4,0c-2.1,0-4.2,0.2-4.3-3c0-3,1.7-3.2,3.9-3.2c10.2,0,20.4,0,30.5,0
		c2.3,0,4.1,0.2,3.9,3.2c-0.1,3.2-2.2,3-4.3,3C104.6,70.9,99.4,70.9,94.2,70.9z"/>
	<path class="st4" d="M89.1,81.3c-3.6,0-7.3,0-10.9,0c-1.6,0-2.6-0.5-2.7-2.3c0-2.1,0.8-2.9,2.8-2.9c7.3,0,14.4,0,21.7,0
		c1.8,0,2.5,0.9,2.5,2.6s-0.7,2.6-2.5,2.6C96.4,81.3,92.7,81.3,89.1,81.3z"/>
	<path class="st5" d="M34.9,38.6c-1.6,5-5.7,3.8-9.4,4.1C27.7,39.1,32.8,42.2,34.9,38.6z"/>
	<path class="st6" d="M26.6,56.3c4.1,3.7,2.4,7.6,0.1,11.4C25.8,63.9,29.1,60.1,26.6,56.3z"/>
</g>
</svg>
