<svg width="124" height="90" viewBox="0 0 124 90" fill="none" xmlns="http://www.w3.org/2000/svg">
<g opacity="0.3">
<path d="M112.35 54.391C112.35 54.6239 112.304 54.8545 112.214 55.0696C112.125 55.2848 111.994 55.4802 111.83 55.6447C111.665 55.8092 111.469 55.9396 111.254 56.0284C111.038 56.1172 110.808 56.1627 110.575 56.1622H66.909C66.4387 56.1622 65.9878 55.9754 65.6553 55.6429C65.3228 55.3104 65.136 54.8594 65.136 54.3892C65.136 53.919 65.3228 53.468 65.6553 53.1355C65.9878 52.803 66.4387 52.6162 66.909 52.6162H110.575C110.808 52.6157 111.038 52.6612 111.254 52.75C111.469 52.8388 111.665 52.9692 111.83 53.1337C111.994 53.2982 112.125 53.4936 112.214 53.7087C112.304 53.9239 112.35 54.1545 112.35 54.3874" fill="#78A4A4"/>
<path d="M112.35 61.8275C112.35 62.0604 112.304 62.2911 112.214 62.5062C112.125 62.7213 111.994 62.9167 111.83 63.0812C111.665 63.2458 111.469 63.3761 111.254 63.4649C111.038 63.5537 110.808 63.5992 110.575 63.5987H66.909C66.4387 63.5987 65.9878 63.4119 65.6553 63.0794C65.3228 62.7469 65.136 62.296 65.136 61.8257C65.136 61.3555 65.3228 60.9045 65.6553 60.572C65.9878 60.2395 66.4387 60.0527 66.909 60.0527H110.575C110.808 60.0523 111.038 60.0977 111.254 60.1865C111.469 60.2753 111.665 60.4057 111.83 60.5702C111.994 60.7347 112.125 60.9301 112.214 61.1453C112.304 61.3604 112.35 61.591 112.35 61.8239" fill="#78A4A4"/>
<path d="M112.35 69.6889C112.35 69.9218 112.304 70.1524 112.214 70.3675C112.125 70.5826 111.994 70.778 111.83 70.9426C111.665 71.1071 111.469 71.2375 111.254 71.3263C111.038 71.4151 110.808 71.4605 110.575 71.46H66.909C66.4387 71.46 65.9878 71.2732 65.6553 70.9407C65.3228 70.6082 65.136 70.1573 65.136 69.6871C65.136 69.2168 65.3228 68.7659 65.6553 68.4334C65.9878 68.1009 66.4387 67.9141 66.909 67.9141H110.575C110.808 67.9136 111.038 67.959 111.254 68.0478C111.469 68.1366 111.665 68.267 111.83 68.4315C111.994 68.5961 112.125 68.7915 112.214 69.0066C112.304 69.2217 112.35 69.4523 112.35 69.6852" fill="#78A4A4"/>
<path d="M123.985 81.8876C123.985 86.9289 121.419 88.9868 116.364 88.9868H57.3088V0H116.378C121.419 0 124 2.31196 124 7.35327L123.985 81.8876Z" fill="#09381F"/>
<path d="M64.281 85.564H113.845C118.498 85.564 119.619 85.0196 119.619 80.3667V9.37828C119.619 4.72533 118.498 3.42236 113.845 3.42236H64.281V85.564Z" fill="white"/>
<path d="M0.0145181 7.1617C0.0145181 2.12039 2.58054 0.0625 7.63636 0.0625H61.8748V89.0493H7.62184C2.58054 89.0493 0 86.7374 0 81.6997V7.1617H0.0145181Z" fill="#09381F"/>
<path d="M114.567 39.7933C114.567 40.4815 114.294 41.1416 113.807 41.6283C113.32 42.1149 112.66 42.3883 111.972 42.3883H93.2586C92.5704 42.3883 91.9103 42.1149 91.4236 41.6283C90.937 41.1416 90.6636 40.4815 90.6636 39.7933V16.6229C90.6636 15.9346 90.937 15.2746 91.4236 14.7879C91.9103 14.3012 92.5704 14.0278 93.2586 14.0278H111.972C112.313 14.0274 112.651 14.0942 112.966 14.2244C113.281 14.3546 113.567 14.5458 113.808 14.7868C114.049 15.0279 114.24 15.3142 114.371 15.6292C114.501 15.9443 114.568 16.282 114.567 16.6229V39.7933Z" fill="#90B9C0"/>
<path d="M104.532 34.1311V32.5959C106.778 31.6232 108.285 29.0753 108.553 25.9467C108.96 25.7689 109.279 25.1627 109.279 24.4042C109.279 23.5404 108.884 22.8472 108.39 22.8C107.7 19.7512 105.512 18.1797 102.525 18.1797C99.5377 18.1797 97.3165 19.7512 96.6196 22.8C96.126 22.8399 95.7304 23.5259 95.7304 24.4042C95.7304 25.1591 96.0317 25.7689 96.4563 25.9467C96.7285 29.0571 98.2384 31.5941 100.474 32.5813V34.1311C93.5782 34.2327 92.2534 35.024 92.2534 40.0798V43.8689H112.872V40.0834C112.84 35.0022 111.493 34.2255 104.532 34.1311Z" fill="white"/>
<path d="M61.9839 0.0654297H62.7606V89.0486L61.9839 89.0341V0.0654297Z" fill="#182B56"/>
<path opacity="0.15" d="M31.1987 0.0654297H61.8748V89.0486H31.1987C26.161 89.0486 26.161 0.0654297 31.1987 0.0654297Z" fill="white"/>
<path d="M34.0045 12.9683L33.6125 12.9175C33.3149 13.2115 33.0246 13.5091 32.7415 13.8176C34.5567 16.0542 35.9601 18.5956 36.8863 21.3233C37.7126 21.0819 38.5225 20.7873 39.3108 20.4413C38.0773 17.6105 36.2706 15.0659 34.0045 12.9683Z" fill="#F8E71C"/>
<path d="M31.1845 13.8138C30.8978 13.4907 30.6074 13.175 30.3062 12.8701C30.0061 12.8967 29.7073 12.9294 29.4097 12.9681C27.072 15.1321 25.2234 17.7702 23.9873 20.7061C24.9092 21.0757 25.8581 21.3742 26.8255 21.5989C27.7817 18.7554 29.26 16.1152 31.1845 13.8138Z" fill="#F8E71C"/>
<path d="M37.1547 13.7301C36.7917 13.5995 36.4288 13.4833 36.0295 13.3672C37.8243 15.2968 39.2808 17.5152 40.3377 19.9292C40.8603 19.6631 41.3697 19.3739 41.8657 19.0618C40.6258 17.0179 39.0304 15.2122 37.1547 13.7301Z" fill="#F8E71C"/>
<path d="M17.7042 26.9525C17.9802 24.4665 18.7019 22.0506 19.8347 19.8206C19.4717 19.5811 19.1088 19.3379 18.7713 19.0947C17.4077 20.8132 16.4031 22.7879 15.8169 24.9018C16.3989 25.6273 17.0294 26.3124 17.7042 26.9525Z" fill="#F8E71C"/>
<path d="M27.3771 13.3818C26.9948 13.4859 26.6197 13.6069 26.252 13.7448C24.2701 15.3143 22.6038 17.2454 21.3413 19.4358C21.8603 19.737 22.3866 20.0165 22.931 20.2705C23.9967 17.7308 25.5017 15.3989 27.3771 13.3818Z" fill="#F8E71C"/>
<path d="M40.5586 15.4033C41.4005 16.3506 42.1549 17.3723 42.8125 18.4557C43.0702 18.2706 43.3315 18.0927 43.5819 17.8786C42.6745 16.938 41.6598 16.1072 40.5586 15.4033Z" fill="#F8E71C"/>
<path d="M36.0875 22.7134C33.318 23.363 30.4447 23.4371 27.6454 22.9311C26.8048 25.8354 26.5506 28.8779 26.8977 31.8814C30.1854 32.6424 33.6135 32.5462 36.8533 31.6019C37.1823 28.6175 36.9221 25.5975 36.0875 22.7134Z" fill="#F8E71C"/>
<path d="M42.4248 20.0747C41.8877 20.411 41.3372 20.722 40.7734 21.0075C41.7521 23.5871 42.2634 26.3204 42.2833 29.0794C43.0987 28.5322 43.8726 27.9256 44.5989 27.2646C44.344 24.7504 43.6058 22.309 42.4248 20.0747Z" fill="#F8E71C"/>
<path d="M28.8903 41.4955C27.741 41.3609 26.6047 41.1315 25.4932 40.8096C26.5714 42.5794 27.8906 44.1906 29.413 45.5968L29.9501 45.6658C30.3131 45.3028 30.676 44.9399 31.039 44.5769C30.2441 43.607 29.5257 42.5767 28.8903 41.4955Z" fill="#F8E71C"/>
<path d="M34.8393 41.3396C34.1758 42.4738 33.4221 43.5528 32.5854 44.5662C32.9169 44.9364 33.2605 45.2993 33.6162 45.655L34.0082 45.6042C35.6127 44.1195 36.9909 42.4076 38.0986 40.5229C37.0358 40.882 35.9459 41.1551 34.8393 41.3396Z" fill="#F8E71C"/>
<path d="M27.0613 33.0933C27.4936 35.6663 28.364 38.146 29.6346 40.4248C30.1935 40.472 30.7597 40.501 31.3295 40.501C32.2475 40.4986 33.1643 40.4331 34.0734 40.305C35.3692 37.9816 36.251 35.4504 36.6793 32.8247C33.5362 33.6519 30.2442 33.7402 27.0613 33.0824V33.0933Z" fill="#F8E71C"/>
<path d="M22.8551 15.4033C21.6185 16.1909 20.492 17.1392 19.5051 18.2234C19.7906 18.4339 20.0822 18.6384 20.3798 18.8368C21.0882 17.6125 21.9175 16.4623 22.8551 15.4033Z" fill="#F8E71C"/>
<path d="M21.1236 29.2823C21.1208 26.5668 21.5937 23.8717 22.5209 21.3193C21.9354 21.0459 21.3643 20.7471 20.8078 20.4229C19.6408 22.7546 18.9476 25.2946 18.7681 27.8959C19.5144 28.5074 20.3041 29.0642 21.1308 29.5618C21.1308 29.4674 21.1236 29.3767 21.1236 29.2823Z" fill="#F8E71C"/>
<path d="M22.8547 43.1796C21.4653 41.6146 20.3178 39.8505 19.4503 37.946C18.3551 37.1904 17.3332 36.3337 16.3979 35.3872C17.6832 38.5955 19.9412 41.3206 22.8547 43.1796Z" fill="#F8E71C"/>
<path d="M23.8748 40.2688C23.0027 39.9366 22.1539 39.5462 21.3342 39.1001C22.5982 41.3082 24.2724 43.2546 26.2666 44.8346C26.6296 44.9653 26.9925 45.0814 27.3918 45.1976C26.0122 43.7129 24.8301 42.0563 23.8748 40.2688Z" fill="#F8E71C"/>
<path d="M48.0654 31.3041C48.1483 30.6346 48.1908 29.9607 48.1925 29.2861C48.1901 28.0337 48.0452 26.7856 47.7605 25.5659C47.1516 26.3372 46.4894 27.0648 45.7789 27.7436C45.8152 28.2553 45.8406 28.7707 45.8406 29.2897C45.8397 31.2114 45.5747 33.1239 45.053 34.9734C46.1968 33.872 47.2078 32.6405 48.0654 31.3041Z" fill="#F8E71C"/>
<path d="M42.4539 38.436C41.5869 38.9856 40.6808 39.4708 39.7427 39.8878C38.7586 41.8212 37.5102 43.6083 36.0334 45.1977C36.4145 45.0961 36.7884 44.9763 37.1586 44.8347C39.3518 43.0957 41.1558 40.9158 42.4539 38.436Z" fill="#F8E71C"/>
<path d="M47.4872 34.0225C46.5419 35.1633 45.4786 36.2011 44.3151 37.1184C43.4172 39.338 42.1468 41.3878 40.5586 43.1796C43.8896 41.0548 46.348 37.8057 47.4872 34.0225Z" fill="#F8E71C"/>
<path d="M44.7006 29.2827C44.7006 29.0904 44.7006 28.9198 44.7006 28.7129C43.9344 29.3466 43.1242 29.9251 42.2762 30.4441C42.1452 33.1251 41.5496 35.763 40.5159 38.2402C41.5218 37.7185 42.4811 37.1113 43.3831 36.4255C44.2618 34.1469 44.7085 31.7248 44.7006 29.2827Z" fill="#F8E71C"/>
<path d="M25.8204 32.7884C24.638 32.4679 23.4866 32.0428 22.3796 31.5181C22.6517 34.2522 23.4334 36.9113 24.6843 39.3577C25.8286 39.7663 27.0084 40.0676 28.2085 40.2578C27.0058 37.9168 26.1988 35.3929 25.8204 32.7884Z" fill="#F8E71C"/>
<path d="M18.6662 35.9099C17.9476 33.7741 17.5799 31.536 17.5774 29.2825C17.5774 28.9849 17.5774 28.6873 17.6028 28.3933C16.8569 27.7461 16.1571 27.0476 15.5086 26.3027C15.1166 28.4279 15.1462 30.6095 15.5957 32.7232C16.4972 33.8967 17.5271 34.9655 18.6662 35.9099Z" fill="#F8E71C"/>
<path d="M44.3485 18.7134C44.0327 18.9638 43.7133 19.2034 43.3794 19.4393C44.5207 21.5752 45.2798 23.8943 45.6224 26.2917C46.256 25.6341 46.843 24.9331 47.379 24.1938C46.7298 22.1895 45.7009 20.3288 44.3485 18.7134Z" fill="#F8E71C"/>
<path d="M37.9314 32.4621C37.5621 35.1052 36.7563 37.6686 35.5469 40.0476C36.6975 39.7962 37.8235 39.4427 38.9114 38.9915C40.1109 36.5264 40.8396 33.859 41.06 31.1265C40.0556 31.6568 39.0092 32.1035 37.9314 32.4621Z" fill="#F8E71C"/>
<path d="M41.1363 29.7831C41.1363 29.6161 41.1363 29.4492 41.1363 29.2822C41.1387 26.6236 40.6617 23.9864 39.7281 21.4971C38.9094 21.8537 38.0694 22.1592 37.2129 22.4117C37.8383 24.5839 38.156 26.8331 38.1565 29.0935C38.1565 29.8194 38.1202 30.509 38.0585 31.2095C39.123 30.822 40.1526 30.3448 41.1363 29.7831Z" fill="#F8E71C"/>
<path d="M31.3261 41.641C30.9995 41.641 30.6728 41.641 30.3462 41.6156C30.7934 42.3185 31.278 42.997 31.798 43.648C32.3436 42.9752 32.8513 42.2724 33.3187 41.543C32.669 41.6047 32.0012 41.641 31.3261 41.641Z" fill="#F8E71C"/>
<path d="M21.1887 30.9086C20.3278 30.4318 19.5018 29.8945 18.717 29.3008C18.7182 32.0123 19.2779 34.6946 20.3612 37.1803C21.2384 37.7634 22.1608 38.2756 23.1196 38.7119C22.0264 36.2431 21.373 33.6023 21.1887 30.9086Z" fill="#F8E71C"/>
<path d="M25.5627 29.2825C25.5624 27.0533 25.8727 24.835 26.4845 22.6914C25.4955 22.4552 24.5251 22.1471 23.581 21.7695C22.713 24.1792 22.2696 26.7212 22.2708 29.2825C22.2708 29.591 22.2708 29.8959 22.2962 30.2007C23.3794 30.7585 24.5118 31.2153 25.6788 31.5654C25.599 30.8105 25.5627 30.0519 25.5627 29.2825Z" fill="#F8E71C"/>
<path d="M35.7247 21.6206C34.8684 19.1222 33.5892 16.7896 31.9428 14.7246C30.2073 16.8379 28.8638 19.2447 27.9758 21.8311C30.5486 22.2753 33.184 22.2025 35.7283 21.6169L35.7247 21.6206Z" fill="#F8E71C"/>
<path d="M87.7961 15.9804C87.7961 16.2134 87.7502 16.4442 87.6611 16.6596C87.5719 16.8749 87.4411 17.0705 87.2763 17.2353C87.1115 17.4001 86.9159 17.5309 86.7005 17.6201C86.4852 17.7093 86.2544 17.7552 86.0213 17.7552H69.2243C68.7536 17.7552 68.3021 17.5682 67.9693 17.2353C67.6365 16.9025 67.4495 16.4511 67.4495 15.9804C67.4495 15.5097 67.6365 15.0582 67.9693 14.7254C68.3021 14.3926 68.7536 14.2056 69.2243 14.2056H86.0213C86.2545 14.2051 86.4856 14.2507 86.7011 14.3397C86.9166 14.4287 87.1125 14.5594 87.2774 14.7243C87.4423 14.8892 87.573 15.0851 87.662 15.3006C87.751 15.5162 87.7966 15.7472 87.7961 15.9804Z" fill="#78A4A4"/>
<path d="M87.7963 23.4208C87.7963 23.6537 87.7503 23.8843 87.6611 24.0994C87.5719 24.3146 87.4411 24.51 87.2762 24.6745C87.1114 24.839 86.9157 24.9694 86.7004 25.0582C86.4851 25.147 86.2544 25.1924 86.0215 25.192H69.2244C68.7542 25.192 68.3032 25.0052 67.9707 24.6727C67.6382 24.3402 67.4514 23.8892 67.4514 23.419C67.4514 22.9488 67.6382 22.4978 67.9707 22.1653C68.3032 21.8328 68.7542 21.646 69.2244 21.646H86.0215C86.2544 21.6455 86.4851 21.691 86.7004 21.7798C86.9157 21.8686 87.1114 21.999 87.2762 22.1635C87.4411 22.328 87.5719 22.5234 87.6611 22.7385C87.7503 22.9537 87.7963 23.1843 87.7963 23.4172" fill="#78A4A4"/>
<path d="M87.7963 31.2821C87.7963 31.515 87.7503 31.7456 87.6611 31.9608C87.5719 32.1759 87.4411 32.3713 87.2762 32.5358C87.1114 32.7003 86.9157 32.8307 86.7004 32.9195C86.4851 33.0083 86.2544 33.0538 86.0215 33.0533H69.2244C68.7542 33.0533 68.3032 32.8665 67.9707 32.534C67.6382 32.2015 67.4514 31.7505 67.4514 31.2803C67.4514 30.8101 67.6382 30.3591 67.9707 30.0266C68.3032 29.6941 68.7542 29.5073 69.2244 29.5073H86.0215C86.2547 29.5068 86.4857 29.5524 86.7012 29.6414C86.9168 29.7305 87.1126 29.8612 87.2775 30.0261C87.4424 30.191 87.5731 30.3868 87.6622 30.6024C87.7512 30.8179 87.7968 31.0489 87.7963 31.2821Z" fill="#78A4A4"/>
</g>
</svg>
