<svg width="40" height="40" viewBox="0 0 40 40" fill="none" xmlns="http://www.w3.org/2000/svg">
<path fill-rule="evenodd" clip-rule="evenodd" d="M21.4252 8.27142L22.0412 7.03928L22.6573 5.80714H28.7143V4H12.2857V5.80714H20.5L19.8839 7.03928L19.2678 8.27142C14.1257 8.41928 9 9.47071 9 14.0214V27.9857C9 30.45 10.8236 32.4707 13.1893 32.8321L10.6429 35.3786V36.2H13.9286L17.2143 32.9143H23.7857L27.0714 36.2H30.3571V35.3786L27.8107 32.8321C30.1764 32.4707 32 30.45 32 27.9857V14.0214C32 9.47071 26.5673 8.41928 21.4252 8.27142ZM18.9064 10.4071H20.5H22.0935C27.515 10.4071 28.8785 11.8857 29.8642 13.3643H20.5H11.1357C12.1214 10.4071 16.6721 10.4071 18.9064 10.4071ZM29.8644 27.9856C29.8644 28.7249 28.6157 30.4336 27.8928 30.6143H25.9094L25.9214 30.6143H13.5014C12.7786 30.4336 11.1357 28.725 11.1357 27.9857V25.1929H15.4811H19.5161L19.5143 25.1929L19.557 25.1927L19.5523 25.1929H19.6621C19.6383 25.1929 19.6151 25.1931 19.5925 25.1935L26.1597 25.2499L29.8644 25.1929V27.9856ZM19.6047 25.1916C19.6039 25.1913 19.5873 25.1915 19.557 25.1927C19.5903 25.1924 19.6055 25.1918 19.6047 25.1916ZM11.1357 23.0571V19.7714V15.3357H20.5H29.8642V19.7714V23.0571H11.1357ZM18.0357 27.9036C18.0357 26.5426 19.139 25.4393 20.5 25.4393C21.8609 25.4393 22.9642 26.5426 22.9642 27.9036C22.9642 29.2646 21.8609 30.3679 20.5 30.3679C19.139 30.3679 18.0357 29.2646 18.0357 27.9036Z" fill="#13334C"/>
</svg>
