<svg width="40" height="40" viewBox="0 0 40 40" fill="none" xmlns="http://www.w3.org/2000/svg">
<path fill-rule="evenodd" clip-rule="evenodd" d="M19.5 5C13.5 5 7.5 5.7579 7.5 11.0632V25.4632C7.5 28.3886 9.855 30.7684 12.75 30.7684L10.5 33.0421V33.8H13.5L16.5 30.7684H22.5L25.5 33.8H28.5V33.0421L26.25 30.7684C29.145 30.7684 31.5 28.3886 31.5 25.4632V11.0632C31.5 5.7579 25.5 5 19.5 5ZM25.9995 28.24H11.88C10.6516 28.24 9.66 27.2484 9.66 26.02V20.84H29.1074V23.43V26.02C29.1074 27.2484 27.2279 28.24 25.9995 28.24ZM13.5795 22.48C12.2595 22.48 11.1795 23.56 11.1795 24.88C11.1795 26.2 12.2595 27.28 13.5795 27.28C14.8995 27.28 15.9795 26.2 15.9795 24.88C15.9795 23.56 14.8995 22.48 13.5795 22.48ZM22.6995 24.88C22.6995 23.56 23.7795 22.48 25.0995 22.48C26.4195 22.48 27.4995 23.56 27.4995 24.88C27.4995 26.2 26.4195 27.28 25.0995 27.28C23.7795 27.28 22.6995 26.2 22.6995 24.88ZM29.268 10.52C29.268 9.336 28.38 6.92 19.5 6.92C10.62 6.92 9.73195 9.336 9.73195 10.52H29.268ZM18.54 12.2V15.88V18.92H14.1H9.66V16.04V12.2H14.1H18.54ZM29.34 15.88V12.2H24.9H20.46V16.04V18.92H24.9H29.34V15.88Z" fill="#13334C"/>
</svg>
