<svg width="40" height="40" viewBox="0 0 40 40" fill="none" xmlns="http://www.w3.org/2000/svg">
<path fill-rule="evenodd" clip-rule="evenodd" d="M19.0017 3.33333C12.1866 3.33333 6.66666 4.10427 6.66666 9.50083V25.6905C6.66666 28.6663 9.0874 31.0871 12.0632 31.0871L9.75041 33.3999V34.1708H28.2529V33.3999L25.9401 31.0871C28.9159 31.0871 31.3367 28.6663 31.3367 25.6905V9.50083C31.3367 4.10427 25.8167 3.33333 19.0017 3.33333ZM19.0017 5.75033C28.253 5.75033 29.178 8.26733 29.178 9.50083H8.82529C8.82529 8.26733 9.75047 5.75033 19.0017 5.75033ZM18.0016 15.0849V11.2511H13.3759H8.75031V15.2516V18.252H13.3759H18.0016V15.0849ZM29.2531 11.2511V15.0849V18.252H24.6275H20.0018V15.2516V11.2511H24.6275H29.2531ZM11.2303 28.0033H25.9401C27.2199 28.0033 29.178 26.9703 29.178 25.6905V22.9922V20.294H8.91753V25.6905C8.91753 26.9703 9.95058 28.0033 11.2303 28.0033ZM13.0009 21.5024C11.6257 21.5024 10.5006 22.6276 10.5006 24.0028C10.5006 25.378 11.6257 26.5031 13.0009 26.5031C14.3761 26.5031 15.5012 25.378 15.5012 24.0028C15.5012 22.6276 14.3761 21.5024 13.0009 21.5024ZM22.5022 24.0028C22.5022 22.6276 23.6273 21.5024 25.0025 21.5024C26.3777 21.5024 27.5028 22.6276 27.5028 24.0028C27.5028 25.378 26.3777 26.5031 25.0025 26.5031C23.6273 26.5031 22.5022 25.378 22.5022 24.0028Z" fill="#13334C"/>
</svg>
