<svg width="40" height="40" viewBox="0 0 40 40" fill="none" xmlns="http://www.w3.org/2000/svg">
<path fill-rule="evenodd" clip-rule="evenodd" d="M26.4878 10.3415C26.4878 11.6293 25.4341 12.6829 24.1463 12.6829C22.8585 12.6829 21.8049 11.6293 21.8049 10.3415C21.8049 9.05366 22.8585 8 24.1463 8C25.4341 8 26.4878 9.05366 26.4878 10.3415ZM6 26.1463C6 22.8683 8.57561 20.2927 11.8537 20.2927C15.1317 20.2927 17.7073 22.8683 17.7073 26.1463C17.7073 29.4244 15.1317 32 11.8537 32C8.57561 32 6 29.4244 6 26.1463ZM11.8537 30.2439C9.62927 30.2439 7.7561 28.3707 7.7561 26.1463C7.7561 23.922 9.62927 22.0488 11.8537 22.0488C14.078 22.0488 15.9512 23.922 15.9512 26.1463C15.9512 28.3707 14.078 30.2439 11.8537 30.2439ZM22.3902 16.6634L21.4537 15.7268L18.6439 18.5366L21.2195 21.2293V28.4878H18.8781V22.6341L15.1317 19.3561C14.6634 19.0049 14.4293 18.4195 14.4293 17.7171C14.4293 17.1317 14.6634 16.5463 15.1317 16.078L18.4098 12.8C18.761 12.3317 19.3463 12.0976 20.0488 12.0976C20.7512 12.0976 21.3366 12.3317 21.922 12.8L24.1463 15.0244C25.2 16.078 26.6049 16.7805 28.361 16.7805V19.122C25.9024 19.122 23.9122 18.1854 22.3902 16.6634ZM28.2439 20.2927C24.9659 20.2927 22.3902 22.8683 22.3902 26.1463C22.3902 29.4244 24.9659 32 28.2439 32C31.522 32 34.0976 29.4244 34.0976 26.1463C34.0976 22.8683 31.522 20.2927 28.2439 20.2927ZM24.1463 26.1463C24.1463 28.3707 26.0195 30.2439 28.2439 30.2439C30.4683 30.2439 32.3415 28.3707 32.3415 26.1463C32.3415 23.922 30.4683 22.0488 28.2439 22.0488C26.0195 22.0488 24.1463 23.922 24.1463 26.1463Z" fill="#13334C"/>
</svg>
