<svg width="40" height="40" viewBox="0 0 40 40" fill="none" xmlns="http://www.w3.org/2000/svg">
<path fill-rule="evenodd" clip-rule="evenodd" d="M20.1666 5.08334C13.5366 5.08334 8.16663 5.83334 8.16663 11.0833V26.8333C8.16663 29.7283 10.5216 32.0833 13.4166 32.0833L11.1666 34.3333V35.0833H29.1666V34.3333L26.9166 32.0833C29.8116 32.0833 32.1666 29.7283 32.1666 26.8333V11.0833C32.1666 5.83334 26.7966 5.08334 20.1666 5.08334ZM20.1667 7.43469C28.4369 7.43469 29.4099 8.40766 30.0666 11.0833H10.2666C10.4369 8.89415 12.3829 7.43469 20.1667 7.43469ZM30.0666 16.5766V13.1266H20.1666H10.2666V16.7266V19.4266H20.1666H30.0666V16.5766ZM26.9167 29.0834H12.6064C11.3614 29.0834 10.3564 28.0784 10.3564 26.8334V21.5834H30.0667V24.2084V26.8334C30.0667 28.0784 28.1617 29.0834 26.9167 29.0834ZM17.1666 25.3333C17.1666 23.6833 18.5166 22.3333 20.1666 22.3333C21.8166 22.3333 23.1666 23.6833 23.1666 25.3333C23.1666 26.9833 21.8166 28.3333 20.1666 28.3333C18.5166 28.3333 17.1666 26.9833 17.1666 25.3333Z" fill="#13334C"/>
</svg>
