<svg width="40" height="40" viewBox="0 0 40 40" fill="none" xmlns="http://www.w3.org/2000/svg">
<path fill-rule="evenodd" clip-rule="evenodd" d="M23.926 7H16.5768V10.6746H12.9023C11.5549 10.6746 10.4526 11.7769 10.4526 13.1243V18.7831L8.8725 19.2976C8.55404 19.3955 8.28457 19.616 8.13759 19.91C7.99061 20.2039 7.95386 20.5469 8.0641 20.8654L10.3913 29.0474H10.4526C12.4123 29.0474 14.1516 27.9695 15.352 26.5977C16.5523 27.9695 18.2916 29.0474 20.2514 29.0474C22.2112 29.0474 23.9505 27.9695 25.1508 26.5977C26.3512 27.9695 28.0905 29.0474 30.0503 29.0474H30.1115L32.4265 20.8654C32.5245 20.5469 32.5 20.2039 32.353 19.91C32.206 19.616 31.9365 19.3955 31.6181 19.2976L30.0503 18.7831V13.1243C30.0503 11.7769 28.9479 10.6746 27.6005 10.6746H23.926V7ZM20.2514 17.3858L26.1891 19.5731L30.542 20.945L29.8269 23.7744L29.1089 26.9468C28.4475 26.5793 27.2425 25.6729 26.9975 25.3912L25.148 23.6764L23.2984 25.7831C22.882 26.2731 21.7449 27.2683 20.2628 27.2683C18.7807 27.2683 17.6293 26.1414 17.2129 25.6515L15.3634 23.5447L13.5138 25.6515C13.2689 25.9332 12.3106 26.5027 11.6492 26.8702L10.8294 23.7744L9.95685 20.6204L13.3648 19.5731L20.2514 17.3858ZM22.1471 10.6746V9.04907H20.2515L18.5093 9.04907V9.86182V10.6746L22.1471 10.6746ZM12.4463 17.987V15.2219V12.4567H27.9801V15.2219V17.987L20.2514 15.574L12.4463 17.987ZM20.2514 31.4481C21.954 31.4481 23.6565 30.9214 25.1509 29.8803C26.6452 30.9214 28.3477 31.4971 30.0503 31.4971H32.5V33.9468H30.0503C28.36 33.9468 26.6942 33.5304 25.1509 32.7342C23.6075 33.5304 21.9295 33.9223 20.2514 33.9223C18.5734 33.9223 16.8953 33.5181 15.352 32.7342C13.8087 33.5181 12.1429 33.9468 10.4526 33.9468H8.00288V31.4971H10.4526C12.1551 31.4971 13.8577 30.9214 15.352 29.8803C16.8463 30.9214 18.5489 31.4481 20.2514 31.4481Z" fill="#13334C"/>
</svg>
