<svg width="40" height="40" viewBox="0 0 40 40" fill="none" xmlns="http://www.w3.org/2000/svg">
<path fill-rule="evenodd" clip-rule="evenodd" d="M8.25 11.67C8.25 6.42001 13.62 5.67001 20.25 5.67001C26.88 5.67001 32.25 6.42001 32.25 11.67V26.67C32.25 27.99 31.665 29.175 30.75 30V32.67C30.75 33.495 30.075 34.17 29.25 34.17H27.75C26.925 34.17 26.25 33.495 26.25 32.67V31.17H14.25V32.67C14.25 33.495 13.575 34.17 12.75 34.17H11.25C10.425 34.17 9.75 33.495 9.75 32.67V30C8.835 29.175 8.25 27.99 8.25 26.67V11.67ZM20.25 10.92H30.1973C28.3026 7.77 25.785 7.77 20.25 7.77C14.715 7.77 11.7236 7.77 10.3026 10.92H20.25ZM30.1973 12.72V14.97V18.57H20.25H10.3026V14.97V12.72H30.1973ZM29.2523 28.92L29.6873 28.515C29.8823 28.35 30.1973 27.225 30.1973 26.67V23.67V20.67H10.2638V26.67C10.2638 27.225 10.5788 28.35 10.7738 28.515L11.2088 28.92H29.2523ZM15 22.17C13.7574 22.17 12.75 23.1774 12.75 24.42C12.75 25.6626 13.7574 26.67 15 26.67C16.2426 26.67 17.25 25.6626 17.25 24.42C17.25 23.1774 16.2426 22.17 15 22.17ZM23.25 24.42C23.25 23.1774 24.2574 22.17 25.5 22.17C26.7427 22.17 27.75 23.1774 27.75 24.42C27.75 25.6626 26.7427 26.67 25.5 26.67C24.2574 26.67 23.25 25.6626 23.25 24.42Z" fill="#13334C"/>
</svg>
