<svg width="24" height="24" viewBox="0 0 24 24" fill="none" xmlns="http://www.w3.org/2000/svg">
<g clip-path="url(#clip0)">
<path d="M16.9892 13.2997C17.2543 12.829 17.4519 12.3234 17.5762 11.7977C17.8863 11.7368 18.1657 11.5701 18.3665 11.326C18.5673 11.082 18.6771 10.7757 18.6771 10.4597C18.6771 10.1436 18.5673 9.83737 18.3665 9.59331C18.1657 9.34926 17.8863 9.18254 17.5762 9.12168C17.322 8.03593 16.7569 7.04777 15.9502 6.27799C16.049 5.98243 16.0433 5.6619 15.934 5.37004C15.8247 5.07818 15.6186 4.8327 15.3499 4.67469C15.0813 4.51668 14.7666 4.45573 14.4584 4.50204C14.1502 4.54834 13.8673 4.69909 13.657 4.92906C12.6084 4.60419 11.4888 4.58647 10.4305 4.87802L10.3175 4.91448C10.1079 4.69433 9.83065 4.55074 9.52994 4.50661C9.22922 4.46248 8.92239 4.52037 8.65843 4.67103C8.39446 4.82169 8.18857 5.05643 8.07363 5.33779C7.95869 5.61916 7.94132 5.93091 8.02429 6.2233C7.59091 6.62082 7.22193 7.08327 6.93056 7.59411C6.65333 8.07952 6.44823 8.6027 6.32172 9.1472C6.08149 9.20985 5.86243 9.33574 5.68736 9.51177C5.51782 9.6834 5.39698 9.89704 5.33726 10.1308C5.27753 10.3645 5.28106 10.6099 5.34748 10.8419C5.4139 11.0738 5.54083 11.2839 5.71524 11.4505C5.88965 11.6172 6.10526 11.7345 6.33995 11.7904C6.33995 11.856 6.36547 11.918 6.3837 11.9836C6.66611 13.0163 7.23337 13.9486 8.02064 14.6742C7.95732 14.8779 7.94269 15.0936 7.97793 15.3041C8.01317 15.5145 8.09729 15.7137 8.22353 15.8857C8.34978 16.0577 8.51461 16.1976 8.70479 16.2943C8.89497 16.391 9.10519 16.4417 9.31853 16.4424C9.51344 16.4423 9.70612 16.401 9.88394 16.3212C10.0618 16.2414 10.2207 16.1249 10.3503 15.9793C10.5399 16.034 10.7149 16.0814 10.9263 16.1179L10.7294 17.6746H6.95973C6.81469 17.6746 6.67559 17.7322 6.57304 17.8348C6.47048 17.9373 6.41287 18.0764 6.41287 18.2215C6.41287 18.3665 6.47048 18.5056 6.57304 18.6082C6.67559 18.7107 6.81469 18.7683 6.95973 18.7683H17.0366C17.1816 18.7683 17.3207 18.7107 17.4233 18.6082C17.5258 18.5056 17.5835 18.3665 17.5835 18.2215C17.5835 18.0764 17.5258 17.9373 17.4233 17.8348C17.3207 17.7322 17.1816 17.6746 17.0366 17.6746H13.2669L13.07 16.1033C13.2632 16.0668 13.4346 16.0158 13.6388 15.9611C13.8476 16.1974 14.1319 16.354 14.4432 16.4042C14.7546 16.4544 15.0737 16.3951 15.3462 16.2365C15.6188 16.0779 15.8279 15.8297 15.938 15.5342C16.0482 15.2387 16.0524 14.9141 15.9502 14.6158C16.3591 14.2304 16.7092 13.787 16.9892 13.2997ZM17.9553 10.456C17.9568 10.5396 17.9415 10.6226 17.9104 10.7002C17.8793 10.7778 17.8331 10.8484 17.7743 10.9078C17.7155 10.9673 17.6455 11.0144 17.5683 11.0463C17.491 11.0783 17.4082 11.0945 17.3246 11.094C17.2421 11.0948 17.1602 11.0791 17.0838 11.0478C17.0074 11.0165 16.9381 10.9702 16.8798 10.9117C16.7604 10.7943 16.6922 10.6344 16.6902 10.467C16.6893 10.3833 16.7049 10.3004 16.7361 10.2228C16.7673 10.1452 16.8135 10.0746 16.8722 10.015C16.9308 9.95534 17.0006 9.90788 17.0776 9.87533C17.1546 9.84278 17.2373 9.82578 17.321 9.82531C17.488 9.82718 17.6477 9.89412 17.7662 10.0119C17.8846 10.1297 17.9525 10.289 17.9553 10.456ZM14.6741 5.21707C14.784 5.21818 14.8919 5.24702 14.9877 5.30093C15.13 5.38011 15.2369 5.51044 15.2866 5.6655C15.3306 5.82779 15.3083 6.00088 15.2247 6.14674C15.1476 6.29079 15.0164 6.39832 14.8601 6.44569C14.78 6.46819 14.6962 6.47462 14.6136 6.46461C14.531 6.4546 14.4512 6.42834 14.3788 6.38736C14.2558 6.3188 14.159 6.21121 14.1038 6.08157C14.0487 5.95192 14.0382 5.80761 14.0742 5.67138C14.1101 5.53515 14.1904 5.41476 14.3023 5.3292C14.4143 5.24364 14.5515 5.19778 14.6924 5.19885L14.6741 5.21707ZM9.03052 5.30822C9.17518 5.22955 9.34477 5.21023 9.50343 5.25432C9.66209 5.29842 9.79738 5.40249 9.88071 5.54452C9.96403 5.68655 9.98886 5.85543 9.94995 6.01543C9.91103 6.17544 9.81142 6.31404 9.67217 6.40194C9.60026 6.44734 9.51995 6.47781 9.43603 6.49155C9.3521 6.50528 9.26627 6.50201 9.18364 6.48191C9.10101 6.46181 9.02326 6.42531 8.95502 6.37456C8.88678 6.32381 8.82943 6.25986 8.7864 6.18651C8.74337 6.11316 8.71553 6.03191 8.70453 5.94758C8.69352 5.86326 8.69959 5.77758 8.72236 5.69564C8.74514 5.61371 8.78415 5.53719 8.83709 5.47063C8.89003 5.40408 8.95581 5.34884 9.03052 5.30822ZM6.041 10.4706C6.04055 10.3867 6.05676 10.3035 6.08867 10.2259C6.12059 10.1483 6.16758 10.0778 6.22693 10.0185C6.28477 9.95923 6.35396 9.91221 6.43038 9.88026C6.50681 9.84831 6.58888 9.8321 6.67171 9.8326C6.75454 9.83212 6.83665 9.84796 6.91336 9.87921C6.99006 9.91046 7.05986 9.95652 7.11877 10.0148C7.17767 10.073 7.22453 10.1422 7.25667 10.2186C7.28881 10.2949 7.3056 10.3768 7.30608 10.4597C7.30804 10.5435 7.29288 10.6268 7.26154 10.7045C7.2302 10.7822 7.18332 10.8527 7.12379 10.9117C7.00637 11.0312 6.84648 11.0993 6.67901 11.1013C6.51105 11.1013 6.34987 11.0351 6.23042 10.917C6.11098 10.799 6.04292 10.6385 6.041 10.4706ZM9.02687 15.6148C8.90564 15.5454 8.81071 15.4379 8.75682 15.309C8.70292 15.1801 8.69308 15.037 8.72882 14.902C8.76455 14.7669 8.84387 14.6475 8.95445 14.5621C9.06504 14.4767 9.20071 14.4303 9.34041 14.4299C9.45001 14.4297 9.55788 14.4573 9.65394 14.5101C9.77968 14.6023 9.86704 14.7376 9.89935 14.8902C9.93166 15.0427 9.90664 15.2019 9.82908 15.3371C9.75152 15.4724 9.62685 15.5744 9.47887 15.6236C9.3309 15.6728 9.16999 15.6657 9.02687 15.6038V15.6148ZM12.5341 17.671H11.4659L11.6482 16.2127H11.9581C12.0893 16.2127 12.2206 16.2127 12.3482 16.2127L12.5341 17.671ZM12.37 10.4196C12.37 10.3229 12.3316 10.2301 12.2632 10.1618C12.1949 10.0934 12.1021 10.055 12.0055 10.055C11.9088 10.055 11.816 10.0934 11.7477 10.1618C11.6793 10.2301 11.6409 10.3229 11.6409 10.4196L11.4878 11.6044C11.2132 11.4865 10.9877 11.2774 10.8494 11.0125C10.7111 10.7476 10.6685 10.4431 10.7287 10.1504C10.7889 9.85773 10.9483 9.59477 11.1799 9.40595C11.4115 9.21713 11.7012 9.11401 12 9.11401C12.2988 9.11401 12.5885 9.21713 12.8201 9.40595C13.0517 9.59477 13.2111 9.85773 13.2713 10.1504C13.3315 10.4431 13.2888 10.7476 13.1505 11.0125C13.0122 11.2774 12.7868 11.4865 12.5122 11.6044L12.37 10.4196ZM12.2206 15.1153C12.0784 15.1153 11.9362 15.1153 11.794 15.1153L12.0055 13.4018L12.2206 15.1153ZM12.658 12.7273C13.2146 12.5702 13.6956 12.217 14.0121 11.7329C14.3286 11.2488 14.4592 10.6666 14.3799 10.0937C14.3006 9.52078 14.0167 8.99594 13.5806 8.61605C13.1445 8.23617 12.5856 8.0269 12.0073 8.0269C11.4289 8.0269 10.8701 8.23617 10.434 8.61605C9.99789 8.99594 9.71396 9.52078 9.63465 10.0937C9.55533 10.6666 9.68598 11.2488 10.0025 11.7329C10.319 12.217 10.7999 12.5702 11.3565 12.7273L11.0685 15.0351C10.9445 15.0096 10.8242 14.9804 10.7039 14.9439C10.6839 14.7267 10.6119 14.5176 10.4938 14.3341C10.3758 14.1507 10.2152 13.9985 10.0258 13.8903C9.8349 13.7828 9.62083 13.723 9.40183 13.716C9.18284 13.709 8.9654 13.7551 8.76802 13.8502C8.1431 13.2649 7.69259 12.5178 7.46649 11.6919C7.46649 11.6628 7.46649 11.6336 7.44461 11.6008C7.52189 11.5497 7.59393 11.491 7.65971 11.4258C7.78571 11.2988 7.88511 11.1479 7.95209 10.982C8.01907 10.8161 8.05229 10.6386 8.04981 10.4597C8.04788 10.2356 7.99104 10.0154 7.88426 9.81833C7.77748 9.6213 7.62402 9.45345 7.43732 9.32948C7.53887 8.91247 7.69711 8.51135 7.90762 8.13732C8.12887 7.74503 8.40373 7.3855 8.72427 7.06912C8.91419 7.16548 9.12381 7.21663 9.33676 7.21859C9.57933 7.21868 9.81742 7.15317 10.0258 7.02901C10.219 6.91599 10.3813 6.75703 10.4983 6.56624C10.6153 6.37545 10.6835 6.15872 10.6966 5.93529H10.7258C11.1334 5.82488 11.554 5.7697 11.9763 5.77123C12.4248 5.77402 12.8705 5.84156 13.2997 5.97175C13.3182 6.19266 13.3903 6.40574 13.5097 6.59251C13.6292 6.77928 13.7923 6.93412 13.9851 7.0436C14.189 7.16145 14.4204 7.22309 14.6559 7.22224C14.8525 7.22516 15.0471 7.18274 15.2247 7.09828C15.8628 7.7182 16.3105 8.50747 16.5153 9.37323C16.4573 9.41543 16.4025 9.46173 16.3512 9.51177C16.2241 9.63815 16.1232 9.7884 16.0544 9.95389C15.9856 10.1194 15.9502 10.2968 15.9502 10.4761C15.9502 10.6553 15.9856 10.8328 16.0544 10.9983C16.1232 11.1638 16.2241 11.314 16.3512 11.4404C16.3974 11.4833 16.4461 11.5235 16.497 11.5607C16.2896 12.4285 15.835 13.2174 15.1882 13.832C14.9924 13.7455 14.7787 13.707 14.5651 13.7197C14.3514 13.7324 14.1438 13.7959 13.9596 13.9049C13.804 13.994 13.668 14.1135 13.5596 14.2563C13.4512 14.3991 13.3728 14.5623 13.3289 14.7361C13.3123 14.7995 13.3014 14.8641 13.2961 14.9294C13.1721 14.9658 13.0481 14.9986 12.9315 15.0242L12.658 12.7273ZM14.984 15.6148C14.8756 15.6771 14.7512 15.7061 14.6263 15.6983C14.5015 15.6905 14.3817 15.6461 14.2818 15.5708C14.182 15.4954 14.1065 15.3923 14.0647 15.2744C14.023 15.1565 14.0169 15.0289 14.0471 14.9075C14.0799 14.7868 14.1475 14.6783 14.2415 14.5957C14.3354 14.5131 14.4516 14.46 14.5756 14.4429C14.6995 14.4258 14.8257 14.4455 14.9385 14.4996C15.0514 14.5537 15.1458 14.6397 15.2101 14.7471C15.2569 14.8211 15.2878 14.904 15.301 14.9906C15.3142 15.0772 15.3093 15.1656 15.2866 15.2502C15.2373 15.4066 15.1287 15.5375 14.984 15.6148Z" fill="#182B56"/>
</g>
<defs>
<clipPath id="clip0">
<path d="M0 0H24V24H0V0Z" fill="white"/>
</clipPath>
</defs>
</svg>
