<svg width="24" height="24" viewBox="0 0 24 24" fill="none" xmlns="http://www.w3.org/2000/svg">
<g clip-path="url(#clip0)">
<path d="M5.51602 13.4054H12.268C12.4033 13.4054 12.5331 13.3517 12.6289 13.2559C12.7246 13.1602 12.7784 13.0304 12.7784 12.895C12.7784 10.5909 11.6117 9.56281 8.99042 9.56281C6.19778 9.56281 5.00562 10.5581 5.00562 12.895C5.00562 13.0304 5.05939 13.1602 5.15511 13.2559C5.25083 13.3517 5.38065 13.4054 5.51602 13.4054ZM8.99042 10.5836C11.0393 10.5836 11.6263 11.2143 11.7393 12.3846H6.0483C6.17226 11.1888 6.7811 10.5836 8.99042 10.5836Z" fill="#182B56"/>
<path d="M12.2679 15.8189H5.51599C5.44771 15.8189 5.38013 15.8325 5.31723 15.8591C5.25434 15.8857 5.19741 15.9246 5.14982 15.9735C5.10223 16.0225 5.06494 16.0805 5.04017 16.1441C5.01539 16.2077 5.00363 16.2757 5.00558 16.3439C5.00558 18.3965 6.92325 18.6699 8.79717 18.6699C10.8643 18.6699 12.7783 18.3892 12.7783 16.3439C12.7803 16.2757 12.7685 16.2077 12.7437 16.1441C12.719 16.0805 12.6817 16.0225 12.6341 15.9735C12.5865 15.9246 12.5296 15.8857 12.4667 15.8591C12.4038 15.8325 12.3362 15.8189 12.2679 15.8189ZM8.79717 17.6418C6.83575 17.6418 6.24514 17.2772 6.09566 16.8434H11.6846C11.506 17.259 10.9117 17.6381 8.79717 17.6381V17.6418Z" fill="#182B56"/>
<path d="M12.8293 14.1564H4.95816C4.8373 14.1564 4.72138 14.2044 4.63592 14.2899C4.55045 14.3754 4.50244 14.4913 4.50244 14.6122C4.50244 14.733 4.55045 14.8489 4.63592 14.9344C4.72138 15.0199 4.8373 15.0679 4.95816 15.0679H12.8293C12.9502 15.0679 13.0661 15.0199 13.1516 14.9344C13.2371 14.8489 13.2851 14.733 13.2851 14.6122C13.2851 14.4913 13.2371 14.3754 13.1516 14.2899C13.0661 14.2044 12.9502 14.1564 12.8293 14.1564Z" fill="#182B56"/>
<path d="M18.2579 6.50039H15.3705L15.4908 5.90978L17.3137 5.52333C17.4321 5.49867 17.5359 5.42797 17.6022 5.32678C17.6685 5.22559 17.6919 5.1022 17.6673 4.98376C17.6426 4.86531 17.5719 4.76151 17.4707 4.69519C17.3696 4.62887 17.2462 4.60546 17.1277 4.63012L15.0022 5.07855C14.9116 5.09492 14.8281 5.13861 14.7629 5.20377C14.6977 5.26893 14.654 5.35244 14.6377 5.44312L14.4408 6.50039H11.2763C11.2091 6.49991 11.1425 6.51278 11.0804 6.53826C11.0182 6.56373 10.9618 6.60131 10.9143 6.6488C10.8668 6.6963 10.8292 6.75276 10.8037 6.8149C10.7783 6.87705 10.7654 6.94363 10.7659 7.0108V8.86649C10.7659 9.00185 10.8197 9.13168 10.9154 9.2274C11.0111 9.32312 11.1409 9.37689 11.2763 9.37689H17.135L16.3147 16.8142H14.0142C13.9472 16.8142 13.8809 16.8274 13.8189 16.8531C13.757 16.8787 13.7007 16.9163 13.6533 16.9637C13.6059 17.0111 13.5683 17.0674 13.5427 17.1293C13.517 17.1912 13.5038 17.2576 13.5038 17.3246C13.5038 17.3917 13.517 17.458 13.5427 17.52C13.5683 17.5819 13.6059 17.6382 13.6533 17.6855C13.7007 17.7329 13.757 17.7705 13.8189 17.7962C13.8809 17.8218 13.9472 17.835 14.0142 17.835H16.7741C16.8996 17.8341 17.0205 17.7872 17.1138 17.7032C17.2072 17.6193 17.2666 17.5041 17.2808 17.3793L18.1631 9.35866H18.2579C18.3933 9.35866 18.5231 9.30489 18.6188 9.20917C18.7145 9.11345 18.7683 8.98362 18.7683 8.84826V6.99986C18.7655 6.8664 18.7104 6.73936 18.615 6.646C18.5196 6.55263 18.3914 6.50036 18.2579 6.50039ZM11.7721 7.5212H17.7475V8.35608H11.7721V7.5212Z" fill="#182B56"/>
</g>
<defs>
<clipPath id="clip0">
<path d="M0 0H24V24H0V0Z" fill="white"/>
</clipPath>
</defs>
</svg>
