<svg width="96" height="96" viewBox="0 0 96 96" fill="none" xmlns="http://www.w3.org/2000/svg">
<g clip-path="url(#clip0)">
<path d="M37.4491 42.0428H34.1825V38.7762C34.1825 38.3894 34.0289 38.0185 33.7554 37.745C33.4819 37.4715 33.111 37.3179 32.7242 37.3179C32.3374 37.3179 31.9665 37.4715 31.693 37.745C31.4196 38.0185 31.2659 38.3894 31.2659 38.7762V42.0428H27.9993C27.6126 42.0428 27.2416 42.1964 26.9681 42.4699C26.6947 42.7434 26.541 43.1143 26.541 43.5011C26.541 43.8878 26.6947 44.2588 26.9681 44.5323C27.2416 44.8057 27.6126 44.9594 27.9993 44.9594H31.2659V48.226C31.2659 48.6127 31.4196 48.9837 31.693 49.2572C31.9665 49.5306 32.3374 49.6843 32.7242 49.6843C33.111 49.6843 33.4819 49.5306 33.7554 49.2572C34.0289 48.9837 34.1825 48.6127 34.1825 48.226V44.9594H37.4491C37.8359 44.9594 38.2068 44.8057 38.4803 44.5323C38.7538 44.2588 38.9074 43.8878 38.9074 43.5011C38.9074 43.1143 38.7538 42.7434 38.4803 42.4699C38.2068 42.1964 37.8359 42.0428 37.4491 42.0428V42.0428Z" fill="#22C2D3"/>
<path d="M68.9051 42.4658C68.7405 42.2956 68.5434 42.1602 68.3254 42.0677C68.1075 41.9753 67.8731 41.9276 67.6364 41.9276C67.3996 41.9276 67.1652 41.9753 66.9473 42.0677C66.7293 42.1602 66.5322 42.2956 66.3676 42.4658C66.029 42.8188 65.8398 43.2891 65.8398 43.7783C65.8398 44.2675 66.029 44.7377 66.3676 45.0907C66.5347 45.2618 66.7343 45.3978 66.9547 45.4906C67.1751 45.5834 67.4118 45.6312 67.6509 45.6312C67.8901 45.6312 68.1268 45.5834 68.3472 45.4906C68.5676 45.3978 68.7672 45.2618 68.9342 45.0907C69.104 44.9214 69.2387 44.7203 69.3306 44.4988C69.4225 44.2773 69.4698 44.0399 69.4698 43.8001C69.4698 43.5604 69.4225 43.323 69.3306 43.1015C69.2387 42.88 69.104 42.6789 68.9342 42.5095L68.9051 42.4658Z" fill="#22C2D3"/>
<path d="M59.4987 42.4658C59.3354 42.2959 59.1396 42.1608 58.9228 42.0686C58.706 41.9763 58.4729 41.9287 58.2373 41.9287C58.0017 41.9287 57.7686 41.9763 57.5518 42.0686C57.335 42.1608 57.1392 42.2959 56.9759 42.4658C56.6338 42.817 56.4424 43.2879 56.4424 43.7782C56.4424 44.2685 56.6338 44.7395 56.9759 45.0907C57.142 45.263 57.3414 45.3996 57.5621 45.4924C57.7827 45.5852 58.0199 45.6321 58.2592 45.6303C58.6192 45.6269 58.9703 45.5179 59.2689 45.3167C59.5675 45.1154 59.8004 44.8309 59.9387 44.4985C60.0769 44.166 60.1145 43.8003 60.0466 43.4467C59.9788 43.0931 59.8085 42.7672 59.5571 42.5095L59.4987 42.4658Z" fill="#22C2D3"/>
<path d="M61.6281 47.2636C61.4587 47.4317 61.3244 47.6316 61.2327 47.8519C61.141 48.0721 61.0938 48.3083 61.0938 48.5469C61.0938 48.7855 61.141 49.0217 61.2327 49.242C61.3244 49.4622 61.4587 49.6621 61.6281 49.8302C61.7942 50.0025 61.9936 50.1391 62.2142 50.2319C62.4349 50.3247 62.672 50.3716 62.9114 50.3698C63.1526 50.3702 63.3916 50.3227 63.6144 50.2301C63.8372 50.1375 64.0394 50.0016 64.2092 49.8302L64.2967 49.7427C64.467 49.5782 64.6024 49.381 64.6948 49.1631C64.7873 48.9451 64.8349 48.7108 64.8349 48.474C64.8349 48.2372 64.7873 48.0029 64.6948 47.7849C64.6024 47.567 64.467 47.3698 64.2967 47.2053C63.9341 46.8612 63.4502 46.6742 62.9504 46.6851C62.4506 46.6961 61.9753 46.904 61.6281 47.2636V47.2636Z" fill="#22C2D3"/>
<path d="M61.6279 37.8574C61.3752 38.1123 61.2034 38.4361 61.134 38.7882C61.0646 39.1403 61.1007 39.5051 61.2377 39.8368C61.3748 40.1685 61.6067 40.4524 61.9044 40.6528C62.2021 40.8533 62.5523 40.9614 62.9112 40.9636C63.3956 40.9636 63.861 40.7754 64.2091 40.4386L64.2966 40.3365C64.4664 40.1732 64.6015 39.9774 64.6938 39.7606C64.7861 39.5438 64.8336 39.3107 64.8336 39.0751C64.8336 38.8395 64.7861 38.6064 64.6938 38.3896C64.6015 38.1728 64.4664 37.977 64.2966 37.8137C64.1189 37.6406 63.9087 37.5043 63.6781 37.4128C63.4476 37.3213 63.2012 37.2762 62.9532 37.2803C62.7051 37.2844 62.4603 37.3374 62.2329 37.4365C62.0055 37.5355 61.7999 37.6786 61.6279 37.8574Z" fill="#22C2D3"/>
<path d="M74.6508 35.7429C72.8425 28.3639 68.5259 26.8473 62.6198 26.8473C60.4394 26.9088 58.3017 27.466 56.3687 28.4767C54.4358 29.4874 52.7584 30.925 51.4638 32.6805H44.0265C42.7304 30.9266 41.0526 29.4901 39.12 28.4796C37.1874 27.469 35.0504 26.9109 32.8705 26.8473C27.0373 26.8473 22.6624 28.3056 20.8395 35.7429C19.6291 39.622 17.325 58.6529 22.6186 65.9444C23.2836 66.9231 24.1767 67.7252 25.2209 68.2816C26.2651 68.838 27.429 69.132 28.6122 69.1381C35.2183 69.1381 39.812 62.0799 41.7369 54.555H52.6596C55.445 61.6716 58.8574 69.1381 66.9072 69.1381C68.2229 69.1552 69.5226 68.8491 70.6923 68.2464C71.8619 67.6438 72.8657 66.7632 73.6154 65.6819C79.3903 57.6904 75.482 38.4554 74.6508 35.7429ZM70.0426 63.1007C69.7033 63.6272 69.2336 64.057 68.6791 64.3483C68.1246 64.6396 67.5041 64.7825 66.8781 64.7632C61.6719 64.7632 59.2511 59.5424 56.1595 51.6384C56.01 51.2153 55.7338 50.8484 55.3686 50.5875C55.0034 50.3266 54.5667 50.1844 54.1179 50.1801H39.9432C39.4402 50.1868 38.9545 50.3655 38.5672 50.6865C38.1798 51.0076 37.914 51.4516 37.8141 51.9447C36.6037 58.157 32.9726 64.7632 28.6268 64.7632C28.1259 64.7587 27.6351 64.6214 27.2047 64.3652C26.7743 64.109 26.4196 63.7431 26.1769 63.3048C22.079 57.6758 23.9311 40.3803 25.0394 36.9388V36.7783C26.1185 32.3159 27.7227 31.1639 32.8413 31.1639C34.4426 31.2203 36.0054 31.6702 37.3916 32.4739C38.7777 33.2776 39.9446 34.4104 40.789 35.7721C40.9694 36.1403 41.2496 36.4503 41.5977 36.6669C41.9458 36.8835 42.3478 36.9979 42.7578 36.9971H52.6742C53.0838 36.9962 53.4851 36.8811 53.8328 36.6647C54.1806 36.4483 54.4612 36.1392 54.6429 35.7721C55.4956 34.4192 56.6677 33.2967 58.0561 32.5033C59.4446 31.7099 61.0068 31.27 62.6052 31.2222C67.7239 31.2222 69.328 32.3743 70.4071 36.8367V36.9971C71.603 40.497 74.2716 57.3841 70.0426 63.1007Z" fill="#22C2D3"/>
</g>
<defs>
<clipPath id="clip0">
<path d="M0 0H96V96H0V0Z" fill="white"/>
</clipPath>
</defs>
</svg>
