<svg width="96" height="96" viewBox="0 0 96 96" fill="none" xmlns="http://www.w3.org/2000/svg">
<g clip-path="url(#clip0)">
<path d="M69.897 34.1389C69.4047 33.6261 68.8137 33.2183 68.1595 32.9401C67.5054 32.6619 66.8017 32.5191 66.0908 32.5202H61.4972C60.8699 29.3753 59.1969 26.5351 56.7504 24.4619C54.3038 22.3887 51.2277 21.2044 48.0224 21.1017C44.8147 21.2011 41.7352 22.384 39.2856 24.4575C36.8361 26.531 35.161 29.3729 34.5332 32.5202H29.8666C29.1545 32.5196 28.4497 32.663 27.7946 32.9419C27.1394 33.2208 26.5474 33.6293 26.0542 34.1429C25.561 34.6565 25.1769 35.2646 24.9248 35.9305C24.6728 36.5965 24.558 37.3065 24.5875 38.018L25.6667 66.0028C25.7536 68.3911 26.7649 70.6522 28.4871 72.3091C30.2094 73.966 32.5079 74.8892 34.8977 74.8838H61.1472C63.537 74.8892 65.8355 73.966 67.5577 72.3091C69.28 70.6522 70.2912 68.3911 70.3782 66.0028L71.4428 38.018C71.4642 37.3001 71.338 36.5854 71.0721 35.9181C70.8063 35.2509 70.4063 34.6454 69.897 34.1389ZM48.0224 25.4766C50.0697 25.5528 52.0403 26.2754 53.6515 27.5408C55.2627 28.8062 56.4317 30.5493 56.991 32.5202H39.0247C39.5876 30.5458 40.7616 28.8006 42.3781 27.5351C43.9947 26.2697 45.9707 25.549 48.0224 25.4766V25.4766ZM65.9887 65.8278C65.9471 67.0839 65.4187 68.2745 64.5152 69.1481C63.6117 70.0216 62.4039 70.5096 61.1472 70.5089H34.8977C33.6385 70.5134 32.427 70.0271 31.5204 69.1531C30.6138 68.2792 30.0833 67.0864 30.0416 65.8278L28.9624 37.843C28.9565 37.7206 28.9755 37.5983 29.0183 37.4835C29.0611 37.3687 29.1267 37.2638 29.2113 37.1752C29.2958 37.0865 29.3975 37.016 29.5102 36.9679C29.6228 36.9197 29.7441 36.8949 29.8666 36.8951H66.1783C66.3014 36.895 66.4233 36.9197 66.5368 36.9677C66.6502 37.0157 66.7528 37.086 66.8385 37.1744C66.9242 37.2628 66.9912 37.3676 67.0357 37.4824C67.0801 37.5973 67.1009 37.7199 67.097 37.843L65.9887 65.8278Z" fill="#22C2D3"/>
<path d="M58.2301 50.501C57.9993 50.4372 57.7581 50.4198 57.5206 50.4499C57.283 50.48 57.0538 50.5569 56.8463 50.6763C56.6387 50.7957 56.4569 50.9551 56.3114 51.1453C56.166 51.3355 56.0597 51.5527 55.9989 51.7843C55.3621 53.4967 54.2168 54.9733 52.7167 56.016C51.2165 57.0587 49.4333 57.6175 47.6064 57.6175C45.7794 57.6175 43.9962 57.0587 42.4961 56.016C40.9959 54.9733 39.8506 53.4967 39.2138 51.7843C39.0677 51.342 38.7577 50.9724 38.3475 50.7515C37.9373 50.5305 37.4582 50.475 37.0084 50.5963C36.5585 50.7177 36.1723 51.0066 35.9288 51.4038C35.6854 51.801 35.6033 52.2764 35.6993 52.7322C36.4724 55.2626 38.0561 57.4686 40.2064 59.0102C42.3568 60.5519 44.9544 61.3435 47.5991 61.2633C50.2451 61.3419 52.8438 60.5498 54.9961 59.0087C57.1484 57.4675 58.7354 55.2625 59.5134 52.7322C59.5773 52.5014 59.5946 52.2603 59.5646 52.0227C59.5345 51.7852 59.4575 51.556 59.3381 51.3484C59.2187 51.1408 59.0593 50.959 58.8691 50.8136C58.6789 50.6681 58.4617 50.5619 58.2301 50.501V50.501Z" fill="#22C2D3"/>
<path d="M39.3741 45.1491C39.3741 44.569 39.1437 44.0126 38.7334 43.6023C38.3232 43.1921 37.7668 42.9617 37.1867 42.9617V42.9617C36.9013 42.9636 36.6191 43.0217 36.3562 43.1326C36.0933 43.2436 35.8549 43.4052 35.6545 43.6084C35.454 43.8115 35.2956 44.0521 35.1882 44.3165C35.0808 44.5808 35.0264 44.8638 35.0284 45.1491C35.0904 45.6857 35.3476 46.1808 35.7509 46.5402C36.1543 46.8996 36.6756 47.0981 37.2158 47.0981C37.756 47.0981 38.2774 46.8996 38.6807 46.5402C39.0841 46.1808 39.3412 45.6857 39.4033 45.1491H39.3741Z" fill="#22C2D3"/>
<path d="M58.7698 42.9617C58.4839 42.9616 58.2008 43.0184 57.9371 43.1287C57.6733 43.239 57.4341 43.4006 57.2333 43.6041C57.0325 43.8076 56.8741 44.049 56.7674 44.3142C56.6606 44.5794 56.6077 44.8632 56.6115 45.1491C56.6086 45.5852 56.7353 46.0124 56.9755 46.3764C57.2157 46.7405 57.5586 47.025 57.9607 47.1939C58.3628 47.3628 58.806 47.4085 59.2341 47.3252C59.6623 47.2419 60.056 47.0333 60.3654 46.7259C60.6748 46.4186 60.886 46.0262 60.9721 45.5987C61.0583 45.1711 61.0156 44.7276 60.8493 44.3244C60.6831 43.9212 60.4009 43.5764 60.0384 43.3338C59.676 43.0912 59.2497 42.9617 58.8136 42.9617H58.7698Z" fill="#22C2D3"/>
</g>
<defs>
<clipPath id="clip0">
<path d="M0 0H96V96H0V0Z" fill="white"/>
</clipPath>
</defs>
</svg>
