<svg width="19" height="24" viewBox="0 0 19 24" fill="none" xmlns="http://www.w3.org/2000/svg">
<path d="M8.72911 19.2571C8.90356 19.3966 9.11678 19.46 9.33001 19.46C9.54323 19.46 9.75645 19.3902 9.93091 19.2571C13.924 16.1501 17.6134 12.6563 17.6134 8.13527C17.6198 3.64597 13.9046 0 9.33647 0C4.76187 0 1.04663 3.64597 1.04663 8.13527C1.04663 12.6499 4.74249 16.1501 8.72911 19.2571ZM9.33647 1.90225C12.8385 1.90225 15.6879 4.69855 15.6879 8.13527C15.6879 11.6417 12.7093 14.6092 9.33647 17.2914C5.96367 14.6092 2.98502 11.6354 2.98502 8.13527C2.98502 4.69855 5.83445 1.90225 9.33647 1.90225Z" fill="#040000"/>
<path d="M17.6975 22.0978H0.969194C0.432906 22.0978 0 22.5226 0 23.0489C0 23.5752 0.432906 24 0.969194 24H17.6975C18.2338 24 18.6667 23.5752 18.6667 23.0489C18.6667 22.5226 18.2338 22.0978 17.6975 22.0978Z" fill="#040000"/>
<path d="M9.3367 10.0185C10.5127 10.0185 11.4625 9.08641 11.4625 7.93238C11.4625 6.77835 10.5127 5.84625 9.3367 5.84625C8.16075 5.84625 7.21094 6.77835 7.21094 7.93238C7.21094 9.08641 8.16075 10.0185 9.3367 10.0185Z" fill="#040000"/>
</svg>
