<svg width="24" height="24" viewBox="0 0 24 24" fill="none" xmlns="http://www.w3.org/2000/svg">
<g clip-path="url(#clip0)">
<path d="M17.4742 8.53476C17.3512 8.40656 17.2034 8.30461 17.0399 8.23506C16.8763 8.1655 16.7004 8.12979 16.5227 8.13008H15.3743C15.2175 7.34385 14.7992 6.63381 14.1876 6.11551C13.576 5.5972 12.8069 5.30112 12.0056 5.27545C11.2037 5.30031 10.4338 5.59602 9.82141 6.1144C9.20902 6.63277 8.79024 7.34325 8.63329 8.13008H7.46665C7.28864 8.12992 7.11243 8.16579 6.94864 8.2355C6.78485 8.30522 6.63685 8.40735 6.51356 8.53576C6.39026 8.66416 6.29422 8.81618 6.2312 8.98267C6.16819 9.14915 6.13951 9.32667 6.14689 9.50453L6.41667 16.5007C6.43841 17.0978 6.69123 17.6631 7.12179 18.0773C7.55234 18.4915 8.12697 18.7223 8.72443 18.721H15.2868C15.8843 18.7223 16.4589 18.4915 16.8894 18.0773C17.32 17.6631 17.5728 17.0978 17.5946 16.5007L17.8607 9.50453C17.866 9.32504 17.8345 9.14637 17.768 8.97957C17.7016 8.81276 17.6016 8.66137 17.4742 8.53476ZM12.0056 6.36918C12.5174 6.38823 13.0101 6.56889 13.4129 6.88523C13.8157 7.20158 14.1079 7.63736 14.2478 8.13008H9.75618C9.89689 7.63649 10.1904 7.20019 10.5945 6.88382C10.9987 6.56744 11.4927 6.38727 12.0056 6.36918ZM16.4972 16.457C16.4868 16.771 16.3547 17.0687 16.1288 17.287C15.9029 17.5054 15.601 17.6274 15.2868 17.6273H8.72443C8.40962 17.6284 8.10675 17.5068 7.88009 17.2883C7.65344 17.0698 7.52083 16.7716 7.5104 16.457L7.24061 9.46078C7.23913 9.43019 7.24388 9.39961 7.25457 9.37091C7.26527 9.34222 7.28168 9.31599 7.30282 9.29383C7.32396 9.27166 7.34938 9.25403 7.37754 9.24199C7.40571 9.22996 7.43602 9.22377 7.46665 9.2238H16.5446C16.5754 9.22379 16.6058 9.22996 16.6342 9.24196C16.6625 9.25395 16.6882 9.27153 16.7096 9.29363C16.731 9.31574 16.7478 9.34193 16.7589 9.37064C16.77 9.39935 16.7752 9.43001 16.7743 9.46078L16.4972 16.457Z" fill="#040000"/>
<path d="M14.5575 12.6253C14.4998 12.6093 14.4395 12.6049 14.3801 12.6125C14.3208 12.62 14.2635 12.6392 14.2116 12.6691C14.1597 12.6989 14.1142 12.7388 14.0779 12.7863C14.0415 12.8339 14.0149 12.8882 13.9997 12.9461C13.8405 13.3742 13.5542 13.7433 13.1792 14.004C12.8041 14.2647 12.3583 14.4044 11.9016 14.4044C11.4449 14.4044 10.9991 14.2647 10.624 14.004C10.249 13.7433 9.96265 13.3742 9.80346 12.9461C9.76691 12.8355 9.68941 12.7431 9.58687 12.6879C9.48433 12.6326 9.36454 12.6188 9.25209 12.6491C9.13964 12.6794 9.04307 12.7517 8.98221 12.851C8.92135 12.9503 8.90082 13.0691 8.92483 13.1831C9.11809 13.8157 9.51402 14.3672 10.0516 14.7526C10.5892 15.138 11.2386 15.3359 11.8998 15.3158C12.5613 15.3355 13.2109 15.1375 13.749 14.7522C14.2871 14.3669 14.6839 13.8156 14.8783 13.1831C14.8943 13.1254 14.8987 13.0651 14.8911 13.0057C14.8836 12.9463 14.8644 12.889 14.8345 12.8371C14.8047 12.7852 14.7648 12.7398 14.7173 12.7034C14.6697 12.667 14.6154 12.6405 14.5575 12.6253Z" fill="#040000"/>
<path d="M9.84353 11.2873C9.84353 11.1422 9.78591 11.0031 9.68336 10.9006C9.5808 10.798 9.4417 10.7404 9.29666 10.7404C9.22533 10.7409 9.15478 10.7554 9.08906 10.7832C9.02334 10.8109 8.96372 10.8513 8.91362 10.9021C8.86351 10.9529 8.8239 11.013 8.79704 11.0791C8.77019 11.1452 8.75661 11.2159 8.75709 11.2873C8.77261 11.4214 8.8369 11.5452 8.93773 11.6351C9.03856 11.7249 9.1689 11.7745 9.30396 11.7745C9.43901 11.7745 9.56935 11.7249 9.67018 11.6351C9.77101 11.5452 9.8353 11.4214 9.85082 11.2873H9.84353Z" fill="#040000"/>
<path d="M14.6925 10.7404C14.621 10.7404 14.5502 10.7546 14.4843 10.7822C14.4183 10.8097 14.3585 10.8501 14.3083 10.901C14.2581 10.9519 14.2185 11.0122 14.1918 11.0786C14.1652 11.1449 14.1519 11.2158 14.1529 11.2873C14.1522 11.3963 14.1838 11.5031 14.2439 11.5941C14.3039 11.6851 14.3897 11.7563 14.4902 11.7985C14.5907 11.8407 14.7015 11.8521 14.8085 11.8313C14.9156 11.8105 15.014 11.7583 15.0914 11.6815C15.1687 11.6046 15.2215 11.5066 15.243 11.3997C15.2646 11.2928 15.2539 11.1819 15.2123 11.0811C15.1708 10.9803 15.1002 10.8941 15.0096 10.8335C14.919 10.7728 14.8124 10.7404 14.7034 10.7404H14.6925Z" fill="#040000"/>
</g>
<defs>
<clipPath id="clip0">
<path d="M0 0H24V24H0V0Z" fill="white"/>
</clipPath>
</defs>
</svg>
