<svg width="82" height="60" viewBox="0 0 82 60" fill="none" xmlns="http://www.w3.org/2000/svg">
<rect width="82" height="60" rx="5" fill="white"/>
<path d="M38.052 34.972V34.168H30.66C30.84 33.832 30.996 33.484 31.152 33.148L30.276 32.896C29.652 34.408 28.62 35.944 27.516 36.904C27.744 37.036 28.116 37.288 28.308 37.432C28.956 36.784 29.616 35.92 30.204 34.972H38.052ZM33.768 41.572L34.176 41.128C33.696 40.636 32.712 40.012 31.896 39.628L31.392 40.12C32.16 40.516 33.036 41.104 33.54 41.572H29.832C29.928 40.996 30.036 40.324 30.132 39.628H35.88C35.832 40.444 35.784 41.08 35.736 41.572H33.768ZM35.988 36.976C35.964 37.684 35.94 38.296 35.916 38.86H33.864L34.38 38.332C33.9 37.9 32.976 37.348 32.196 37.012L31.692 37.516C32.472 37.852 33.36 38.428 33.828 38.86H30.228C30.324 38.224 30.408 37.588 30.492 36.976H35.988ZM38.46 39.652V38.836H36.78C36.804 38.188 36.84 37.456 36.864 36.616C36.864 36.508 36.876 36.184 36.876 36.184H29.7C29.616 36.988 29.484 37.912 29.364 38.836H27.552V39.652H29.244C29.088 40.672 28.92 41.632 28.788 42.364H35.64C35.568 42.736 35.484 42.964 35.4 43.06C35.28 43.204 35.172 43.228 34.956 43.228C34.728 43.24 34.176 43.228 33.564 43.18C33.684 43.384 33.78 43.684 33.792 43.888C34.38 43.924 34.98 43.936 35.328 43.912C35.688 43.876 35.94 43.768 36.168 43.48C36.3 43.288 36.42 42.964 36.516 42.364H38.052V41.572H36.612C36.672 41.068 36.708 40.432 36.756 39.652H38.46ZM43.06 42.124V38.776H49.012V42.124H43.06ZM49.012 34.66V37.9H43.06V34.66H49.012ZM42.16 33.784V43.78H43.06V43H49.012V43.732H49.948V33.784H42.16ZM56.288 34.72C56.084 34.276 55.688 33.58 55.328 33.04L54.632 33.328C54.968 33.88 55.352 34.624 55.544 35.08L56.288 34.72ZM60.608 39.4V40.636H58.796V39.4H60.608ZM63.32 40.636H61.412V39.4H63.32V40.636ZM61.412 42.616V41.332H63.32V42.616H61.412ZM58.796 42.616V41.332H60.608V42.616H58.796ZM57.968 39.388C57.716 39.136 56.864 38.356 56.444 38.02C57.008 37.24 57.488 36.376 57.824 35.488L57.332 35.164L57.164 35.2H53.708V36.016H56.72C55.952 37.588 54.584 39.1 53.276 39.952C53.408 40.12 53.648 40.528 53.732 40.756C54.272 40.372 54.812 39.892 55.34 39.34V43.9H56.204V38.752C56.636 39.196 57.212 39.808 57.464 40.132L57.968 39.412V43.924H58.796V43.36H63.32V43.888H64.184V38.644H57.968V39.388ZM62.792 37.168H59.396V35.848H62.792V37.168ZM58.592 35.128V37.876H63.632V35.128H58.592ZM57.92 33.544V34.312H64.256V33.544H57.92ZM70.092 34.348C70.896 34.156 71.652 33.94 72.24 33.712L71.58 33.028C70.452 33.52 68.388 33.928 66.624 34.192C66.732 34.384 66.864 34.684 66.9 34.9C67.644 34.792 68.424 34.672 69.204 34.516V36.556H66.684V37.384H69.024C68.448 38.884 67.404 40.528 66.444 41.428C66.6 41.656 66.828 42.028 66.936 42.268C67.74 41.452 68.58 40.12 69.204 38.752V43.9H70.092V38.716C70.716 39.388 71.52 40.264 71.88 40.72L72.408 39.988C72.048 39.628 70.668 38.248 70.092 37.708V37.384H72.552V36.556H70.092V34.348ZM74.364 34.384H73.488V40.96H74.364V34.384ZM76.032 33.1V42.676C76.032 42.916 75.936 42.976 75.72 42.988C75.492 42.988 74.736 43 73.908 42.976C74.04 43.216 74.172 43.636 74.232 43.876C75.324 43.876 75.984 43.852 76.368 43.696C76.74 43.552 76.908 43.288 76.908 42.676V33.1H76.032Z" fill="#39393E"/>
<path d="M35.696 51.168L36.176 51.024C36.112 50.816 35.968 50.52 35.808 50.272H38.272C38.168 50.552 38.008 50.888 37.856 51.168H35.696ZM40.624 49.44H37.48V48.816H39.832V47.992H37.48V47.272H36.48V47.992H34.216V48.816H36.48V49.44H33.4V50.272H35.408L34.824 50.44C34.952 50.664 35.096 50.944 35.176 51.168H34.056V52H36.48V52.664H33.592V53.496H36.48V54.696H37.48V53.496H40.424V52.664H37.48V52H40.056V51.168H38.824C38.992 50.944 39.168 50.696 39.336 50.448L38.632 50.272H40.624V49.44ZM48.624 48.168V48.696H47.472V48.384H46.544V48.696H45.312V48.168H48.624ZM48.288 50.232V50.552H47.472V50.232H48.288ZM48.288 51.416H47.472V51.096H48.288V51.416ZM45.696 51.416V51.096H46.544V51.416H45.696ZM45.696 50.232H46.544V50.552H45.696V50.232ZM45.112 49.36H46.544V49.648H44.888V51.992H46.544V52.28H44.512V52.968H46.544V53.496H47.472V52.968H49.528V52.28H47.472V51.992H49.136V49.648H47.472V49.36H48.704V49.064H49.536V47.472H44.44V49.064H45.112V49.36ZM44.04 48.552C43.936 48.192 43.728 47.656 43.576 47.224L42.736 47.48C42.872 47.912 43.088 48.496 43.176 48.864L44.04 48.552ZM43.92 50.824L43.784 50.848H43.656C43.84 50.296 44.048 49.656 44.216 49.088H42.32V49.936H43.056C42.872 50.56 42.656 51.2 42.464 51.672H43.48C43.376 52.144 43.224 52.648 43.032 53.048C42.76 53.208 42.456 53.48 42.168 53.824L42.808 54.728C43 54.272 43.288 53.728 43.472 53.728C43.64 53.728 43.92 53.992 44.256 54.176C44.832 54.512 45.504 54.6 46.568 54.6C47.504 54.6 48.92 54.544 49.576 54.504C49.584 54.248 49.744 53.784 49.856 53.528C48.968 53.656 47.536 53.736 46.616 53.736C45.68 53.736 44.928 53.688 44.384 53.36C44.184 53.24 44.032 53.136 43.912 53.056C44.168 52.456 44.36 51.744 44.48 51.088L43.92 50.824ZM58.552 50.352V49.368H55.408C55.488 48.624 55.496 47.888 55.504 47.232H54.464C54.456 47.888 54.464 48.616 54.384 49.368H51.472V50.352H54.224C53.912 51.728 53.152 53.056 51.32 53.872C51.6 54.072 51.88 54.416 52.032 54.68C53.728 53.864 54.592 52.616 55.024 51.28C55.648 52.824 56.576 53.992 58.024 54.672C58.176 54.4 58.488 53.976 58.728 53.776C57.232 53.168 56.264 51.912 55.736 50.352H58.552ZM66.008 50.896H66.552L66.328 51C66.392 51.072 66.456 51.144 66.52 51.224L66.008 51.232V50.896ZM64.552 50.384V50.064H65.2V50.384H64.552ZM64.552 49.264H65.2V49.576H64.552V49.264ZM66.688 49.264V49.576H66.008V49.264H66.688ZM66.688 50.384H66.008V50.064H66.688V50.384ZM63.648 51.952C64.528 51.936 65.76 51.904 66.96 51.864C67.024 51.968 67.072 52.064 67.112 52.144L67.776 51.816C67.64 51.552 67.4 51.2 67.136 50.896H67.472V48.752H66.008V48.456H67.616V47.76H66.008V47.232H65.2V47.76H63.672V48.456H65.2V48.752H63.808V50.896H65.2V51.248C64.592 51.264 64.04 51.272 63.6 51.272L63.648 51.952ZM65.952 53.848C65.952 53.936 65.912 53.96 65.8 53.968C65.696 53.968 65.328 53.968 65.008 53.952L65.336 53.744C65.224 53.52 65 53.216 64.752 52.968H65.952V53.848ZM61.192 50.992H61.648V51.464H61.192V50.992ZM61.192 49.896H61.648V50.368H61.192V49.896ZM62.752 50.368H62.264V49.896H62.752V50.368ZM62.752 51.464H62.264V50.992H62.752V51.464ZM66.816 51.96H65.952V52.272H63.608V52.6H62.376V52.12H63.44V49.232H62.376V48.816H63.512V47.992H62.376V47.232H61.536V47.992H60.36V48.816H61.536V49.232H60.512V52.12H61.536V52.6H60.248V53.432H61.536V54.696H62.376V53.432H63.608V52.968H64.36L63.968 53.2C64.256 53.488 64.528 53.896 64.656 54.176L64.976 53.976C65.072 54.192 65.184 54.488 65.208 54.72C65.768 54.72 66.152 54.712 66.448 54.6C66.752 54.48 66.816 54.28 66.816 53.872V52.968H67.728V52.272H66.816V51.96ZM71.128 52.744H71.768V53.728H71.128V52.744ZM73.288 52.744V53.728H72.64V52.744H73.288ZM74.808 52.744V53.728H74.152V52.744H74.808ZM75.744 52.024H70.24V53.728H69.352V54.464H76.648V53.728H75.744V52.024ZM71.72 50.856C71.624 50.664 71.384 50.392 71.152 50.216L70.704 50.528C70.928 50.72 71.152 50.992 71.24 51.192L71.72 50.856ZM70.816 48.792C71 48.976 71.192 49.248 71.272 49.424L71.76 49.144C71.672 48.96 71.48 48.712 71.28 48.544L70.816 48.792ZM72.736 51.072V49.992L72.888 49.984L72.904 49.416L72.736 49.424V49.072C72.848 49.168 72.992 49.336 73.096 49.472H73.048V50.112H73.752L73.192 50.272C73.352 50.512 73.544 50.728 73.768 50.92C73.456 51.032 73.104 51.112 72.736 51.176V51.072ZM70.648 49.504C70.648 49.432 70.648 49.352 70.648 49.28V48.44H71.968V49.456L70.648 49.504ZM75.056 50.112C74.904 50.288 74.72 50.448 74.52 50.568C74.304 50.44 74.12 50.288 73.976 50.112H75.056ZM75.704 49.448L75.56 49.472H73.416C73.96 49.104 74.136 48.624 74.16 48.16H74.896V48.368C74.896 49.008 75.032 49.28 75.712 49.28H76.248C76.416 49.28 76.608 49.264 76.72 49.224C76.696 49.032 76.672 48.768 76.664 48.576C76.552 48.608 76.344 48.616 76.224 48.616H75.8C75.68 48.616 75.664 48.552 75.664 48.376V47.504H73.424V48.024C73.424 48.368 73.336 48.704 72.736 48.984V47.808H71.608C71.672 47.656 71.744 47.496 71.824 47.328L71 47.224C70.968 47.392 70.896 47.608 70.824 47.808H69.904V49.272C69.904 49.36 69.904 49.44 69.904 49.536L69.264 49.552L69.312 50.208L69.848 50.176C69.768 50.68 69.584 51.208 69.192 51.616C69.36 51.704 69.664 51.976 69.784 52.12C70.296 51.576 70.512 50.832 70.6 50.128L71.968 50.048V51.064C71.968 51.144 71.944 51.168 71.872 51.176C71.792 51.176 71.56 51.176 71.32 51.168C71.416 51.368 71.504 51.672 71.528 51.88C71.944 51.88 72.248 51.872 72.456 51.752C72.568 51.696 72.632 51.624 72.672 51.528C72.76 51.656 72.84 51.8 72.88 51.904C73.456 51.8 74 51.64 74.48 51.424C74.992 51.688 75.608 51.88 76.304 51.984C76.408 51.76 76.632 51.44 76.816 51.264C76.24 51.208 75.712 51.096 75.264 50.936C75.664 50.608 75.984 50.2 76.184 49.68L75.704 49.448Z" fill="#8E8E93"/>
<g opacity="0.73">
<path opacity="0.73" d="M13.8231 25.4505L13.8013 29.9999L3 29.9295L3.028 23.9279L12.6129 23.9945L12.6627 24.0538L13.7702 25.3875L13.8231 25.4505Z" fill="#78C2FF"/>
<path opacity="0.73" d="M13.823 25.4503L12.616 25.4429L12.6222 24.0055L12.644 24.0314L12.6937 24.0907L13.7421 25.354L13.823 25.4503Z" fill="#2180CC"/>
<path opacity="0.73" d="M9.4925 26.9731C9.49434 27.2481 9.42744 27.5175 9.3003 27.7471C9.17317 27.9766 8.99155 28.1559 8.77857 28.2622C8.5656 28.3684 8.33089 28.3968 8.10432 28.3437C7.87776 28.2906 7.66959 28.1584 7.50631 27.9639C7.34303 27.7695 7.23203 27.5216 7.18743 27.2518C7.14284 26.982 7.16666 26.7025 7.25588 26.4489C7.3451 26.1952 7.49567 25.9789 7.68843 25.8276C7.88119 25.6762 8.10742 25.5965 8.33833 25.5987C8.64393 25.6006 8.93655 25.7461 9.15264 26.0034C9.36874 26.2607 9.49086 26.6092 9.4925 26.9731V26.9731Z" fill="#2180CC"/>
<path opacity="0.73" d="M11.8756 26.9879C11.875 27.1043 11.8452 27.2178 11.7901 27.3139C11.735 27.41 11.6571 27.4844 11.5663 27.5276C11.4755 27.5707 11.376 27.5806 11.2805 27.5561C11.1849 27.5315 11.0977 27.4736 11.0299 27.3898C10.9622 27.3059 10.9169 27.1999 10.9 27.0853C10.8831 26.9706 10.8952 26.8526 10.9349 26.7462C10.9746 26.6399 11.04 26.55 11.1228 26.4881C11.2056 26.4263 11.302 26.3952 11.3997 26.3989C11.5278 26.4037 11.6494 26.468 11.7383 26.578C11.8272 26.6881 11.8765 26.8352 11.8756 26.9879Z" fill="#2180CC"/>
<path opacity="0.73" d="M4.78883 26.9398C4.78945 26.824 4.81888 26.7111 4.8734 26.6152C4.92792 26.5194 5.00508 26.4449 5.09513 26.4013C5.18518 26.3577 5.28407 26.3468 5.3793 26.3701C5.47452 26.3934 5.56181 26.4498 5.63011 26.5322C5.69842 26.6146 5.74467 26.7193 5.76304 26.8329C5.7814 26.9466 5.77104 27.0642 5.73327 27.1709C5.6955 27.2776 5.63202 27.3685 5.55085 27.4322C5.46968 27.4959 5.37446 27.5296 5.27725 27.5288C5.2127 27.5283 5.14886 27.5127 5.08938 27.4829C5.0299 27.453 4.97595 27.4095 4.93059 27.3548C4.88524 27.3001 4.84937 27.2353 4.82505 27.1641C4.80073 27.0929 4.78842 27.0167 4.78883 26.9398V26.9398Z" fill="#2180CC"/>
</g>
<g opacity="0.73">
<path opacity="0.73" d="M27.9313 18.5337L30.0001 22.3606L20.913 29.3218L18.1877 24.276L26.2483 18.1002L26.3198 18.1187L27.8566 18.5151L27.9313 18.5337Z" fill="#78C2FF"/>
<path opacity="0.73" d="M27.9313 18.5331L26.914 19.3111L26.2607 18.1034L26.2919 18.1108L26.3603 18.1293L27.8193 18.5035L27.9313 18.5331Z" fill="#2180CC"/>
<path opacity="0.73" d="M25.0007 22.6347C25.1246 22.8646 25.1885 23.1331 25.1844 23.4062C25.1802 23.6794 25.1082 23.9449 24.9773 24.1693C24.8465 24.3937 24.6627 24.5669 24.4493 24.667C24.2358 24.7671 24.0022 24.7895 23.778 24.7316C23.5538 24.6736 23.3491 24.5379 23.1897 24.3414C23.0303 24.1449 22.9233 23.8966 22.8824 23.6278C22.8415 23.359 22.8683 23.0818 22.9596 22.8312C23.051 22.5806 23.2026 22.3678 23.3954 22.2198C23.6546 22.0219 23.9691 21.9545 24.27 22.0323C24.5709 22.11 24.8336 22.3267 25.0007 22.6347V22.6347Z" fill="#2180CC"/>
<path opacity="0.73" d="M27.0043 21.0898C27.0748 21.2205 27.0989 21.3792 27.0712 21.531C27.0435 21.6828 26.9662 21.8153 26.8565 21.8993C26.7468 21.9833 26.6135 22.0119 26.486 21.9789C26.3585 21.9459 26.2473 21.854 26.1768 21.7233C26.1418 21.6586 26.1179 21.5863 26.1065 21.5106C26.095 21.4349 26.0961 21.3573 26.1099 21.2821C26.1236 21.207 26.1496 21.1357 26.1864 21.0726C26.2233 21.0094 26.2702 20.9554 26.3245 20.9138C26.3789 20.8722 26.4395 20.8438 26.5031 20.8301C26.5667 20.8165 26.6319 20.8178 26.695 20.8342C26.7581 20.8505 26.8179 20.8815 26.871 20.9254C26.9241 20.9692 26.9693 21.0251 27.0043 21.0898Z" fill="#2180CC"/>
<path opacity="0.73" d="M21.0437 25.6541C20.9912 25.5566 20.9643 25.4427 20.9662 25.3269C20.9681 25.2111 20.9988 25.0986 21.0544 25.0036C21.11 24.9086 21.1881 24.8354 21.2787 24.7932C21.3693 24.7511 21.4683 24.7418 21.5633 24.7667C21.6583 24.7917 21.7449 24.8496 21.8123 24.9331C21.8796 25.0167 21.9246 25.1222 21.9416 25.2362C21.9586 25.3503 21.9467 25.4677 21.9076 25.5738C21.8685 25.6798 21.8039 25.7697 21.7219 25.8319C21.6121 25.9153 21.479 25.9434 21.3519 25.91C21.2248 25.8767 21.1139 25.7847 21.0437 25.6541V25.6541Z" fill="#2180CC"/>
</g>
<g opacity="0.73">
<path opacity="0.73" d="M15.7677 16.5961L13.7207 20.4416L4.59937 13.5471L7.29969 8.48279L15.3913 14.5956L15.4069 14.6808L15.7522 16.5109L15.7677 16.5961Z" fill="#78C2FF"/>
<path opacity="0.73" d="M15.7672 16.5961L14.7468 15.8292L15.3939 14.6104L15.4001 14.6474L15.4157 14.7289L15.7423 16.4627L15.7672 16.5961Z" fill="#2180CC"/>
<path opacity="0.73" d="M11.4213 15.1476C11.2986 15.3797 11.1208 15.5632 10.9104 15.6749C10.7001 15.7866 10.4666 15.8214 10.2396 15.7749C10.0126 15.7285 9.80235 15.6028 9.63537 15.4139C9.46839 15.225 9.35224 14.9814 9.30163 14.7138C9.25102 14.4463 9.26823 14.1668 9.35108 13.9109C9.43393 13.655 9.57869 13.4342 9.76703 13.2763C9.95537 13.1185 10.1788 13.0307 10.4091 13.0242C10.6393 13.0177 10.866 13.0927 11.0604 13.2397C11.3203 13.4362 11.5041 13.7473 11.5718 14.1049C11.6394 14.4625 11.5853 14.8374 11.4213 15.1476Z" fill="#2180CC"/>
<path opacity="0.73" d="M13.4313 16.6664C13.3971 16.732 13.3522 16.7888 13.2994 16.8337C13.2466 16.8786 13.1869 16.9105 13.1236 16.9278C13.0604 16.945 12.9949 16.9472 12.931 16.9341C12.8671 16.9211 12.8059 16.8931 12.7511 16.8518C12.6963 16.8105 12.6489 16.7566 12.6116 16.6934C12.5744 16.6302 12.548 16.5588 12.534 16.4833C12.52 16.4079 12.5187 16.3299 12.5302 16.2539C12.5416 16.1778 12.5656 16.1052 12.6007 16.0403C12.6708 15.9139 12.7791 15.8245 12.9031 15.7907C13.027 15.7569 13.1572 15.7813 13.2665 15.8588C13.322 15.8987 13.3704 15.9513 13.4088 16.0136C13.4472 16.0759 13.4748 16.1466 13.4902 16.2217C13.5055 16.2968 13.5082 16.3747 13.4981 16.451C13.488 16.5274 13.4653 16.6006 13.4313 16.6664V16.6664Z" fill="#2180CC"/>
<path opacity="0.73" d="M7.44868 12.1467C7.50097 12.0491 7.57642 11.9721 7.66546 11.9255C7.75451 11.8789 7.85316 11.8649 7.94893 11.8851C8.04469 11.9053 8.13327 11.9589 8.20344 12.0391C8.27362 12.1193 8.32224 12.2225 8.34315 12.3356C8.36407 12.4487 8.35633 12.5666 8.32093 12.6745C8.28552 12.7824 8.22404 12.8753 8.14427 12.9416C8.06449 13.0078 7.97 13.0444 7.87276 13.0467C7.77552 13.0489 7.6799 13.0168 7.598 12.9543C7.48837 12.8707 7.41108 12.7387 7.38308 12.5873C7.35509 12.4359 7.37868 12.2774 7.44868 12.1467Z" fill="#2180CC"/>
</g>
<g opacity="0.73">
<path opacity="0.73" d="M24.727 3.26674L27.0571 6.87143L18.4926 14.7143L15.4221 9.95745L23.0191 3L23.0907 3.01111L24.6524 3.25192L24.727 3.26674Z" fill="#78C2FF"/>
<path opacity="0.73" d="M24.7267 3.26621L23.7686 4.14052L23.0312 3.00317L23.0624 3.00688L23.1339 3.01799L24.6116 3.24768L24.7267 3.26621Z" fill="#2180CC"/>
<path opacity="0.73" d="M22.0951 7.6309C22.2357 7.84792 22.3192 8.10977 22.3348 8.38329C22.3505 8.65681 22.2976 8.92971 22.183 9.16746C22.0683 9.4052 21.8971 9.5971 21.6908 9.71887C21.4845 9.84064 21.2526 9.88681 21.0243 9.85153C20.796 9.81625 20.5816 9.7011 20.4083 9.52067C20.2349 9.34024 20.1104 9.10263 20.0506 8.83791C19.9907 8.5732 19.9981 8.29327 20.0718 8.03357C20.1456 7.77387 20.2824 7.54606 20.4649 7.37897C20.7092 7.15531 21.0181 7.05622 21.3237 7.10345C21.6294 7.15068 21.9068 7.34037 22.0951 7.6309V7.6309Z" fill="#2180CC"/>
<path opacity="0.73" d="M23.9802 5.90446C24.0397 5.9962 24.075 6.10689 24.0816 6.22252C24.0881 6.33815 24.0657 6.4535 24.0172 6.55396C23.9687 6.65443 23.8962 6.73548 23.809 6.78684C23.7218 6.83821 23.6237 6.85758 23.5272 6.8425C23.4307 6.82742 23.3401 6.77857 23.267 6.70214C23.1938 6.62571 23.1414 6.52514 23.1163 6.41317C23.0911 6.3012 23.0945 6.18288 23.1259 6.07319C23.1573 5.9635 23.2154 5.86738 23.2927 5.79702C23.3437 5.75003 23.402 5.71551 23.4642 5.69547C23.5264 5.67543 23.5914 5.67025 23.6553 5.68024C23.7192 5.69022 23.7808 5.71518 23.8366 5.75366C23.8923 5.79214 23.9412 5.84339 23.9802 5.90446V5.90446Z" fill="#2180CC"/>
<path opacity="0.73" d="M18.3651 11.0467C18.3255 10.9862 18.2963 10.917 18.2792 10.843C18.2621 10.7691 18.2575 10.6918 18.2656 10.6157C18.2737 10.5396 18.2943 10.4662 18.3264 10.3996C18.3584 10.3331 18.4012 10.2747 18.4522 10.2279C18.529 10.1566 18.6218 10.1141 18.7189 10.1057C18.8159 10.0973 18.9129 10.1234 18.9975 10.1807C19.0822 10.238 19.1506 10.324 19.1941 10.4276C19.2377 10.5313 19.2544 10.648 19.2421 10.763C19.2299 10.878 19.1893 10.9861 19.1254 11.0736C19.0615 11.1611 18.9773 11.224 18.8833 11.2544C18.7894 11.2847 18.69 11.2812 18.5977 11.2442C18.5055 11.2073 18.4245 11.1385 18.3651 11.0467V11.0467Z" fill="#2180CC"/>
</g>
</svg>
