<svg width="82" height="60" viewBox="0 0 82 60" fill="none" xmlns="http://www.w3.org/2000/svg">
<rect width="82" height="60" rx="5" fill="white"/>
<path d="M17.6 35.68H15.812V34.156H17.6V35.68ZM17.6 37.912H15.812V36.376H17.6V37.912ZM17.6 40.18H15.812V38.62H17.6V40.18ZM18.404 33.412H15.032V40.912H18.404V33.412ZM15.62 41.164C15.392 42.028 14.972 42.88 14.42 43.444C14.612 43.564 14.948 43.792 15.092 43.924C15.632 43.288 16.148 42.328 16.424 41.344L15.62 41.164ZM17.12 41.452C17.492 42.028 17.912 42.832 18.08 43.336L18.788 43C18.596 42.496 18.188 41.728 17.792 41.152L17.12 41.452ZM22.412 41.26V40.36H23.948V41.26H22.412ZM20.156 40.36H21.62V41.26H20.156V40.36ZM21.62 38.884V39.736H20.156V38.884H21.62ZM23.948 38.884V39.736H22.412V38.884H23.948ZM21.14 36.052H22.916V36.844H21.14V36.052ZM21.14 34.672H22.916V35.392H21.14V34.672ZM25.484 41.26H24.764V38.212H22.412V37.516H25.436V36.844H23.72V36.052H24.992V35.392H23.72V34.672H25.184V34H23.72V32.968H22.916V34H21.14V32.968H20.348V34H18.896V34.672H20.348V35.392H19.208V36.052H20.348V36.844H18.62V37.516H21.62V38.212H19.352V41.26H18.572V41.944H19.352V43.924H20.156V41.944H23.948V42.988C23.948 43.144 23.888 43.18 23.744 43.192C23.576 43.192 23 43.192 22.376 43.18C22.484 43.384 22.592 43.696 22.628 43.9C23.492 43.9 24.032 43.9 24.368 43.78C24.668 43.648 24.764 43.42 24.764 42.988V41.944H25.484V41.26ZM32.028 39.076L31.908 38.284L30.516 38.716V36.268H31.752V35.404H30.516V32.968H29.688V35.404H28.764C28.848 34.876 28.932 34.324 28.992 33.784L28.212 33.652C28.068 35.116 27.84 36.628 27.384 37.648C27.576 37.72 27.912 37.936 28.068 38.044C28.284 37.552 28.452 36.94 28.596 36.268H29.688V38.944C28.848 39.208 28.08 39.412 27.468 39.58L27.708 40.432C28.296 40.252 28.98 40.036 29.688 39.82V43.924H30.516V39.556L32.028 39.076ZM37.524 34.96V34.972H33.684C33.9 34.384 34.08 33.76 34.224 33.124L33.408 32.956C33.012 34.768 32.292 36.496 31.308 37.564C31.488 37.684 31.848 37.936 31.992 38.08C32.508 37.468 32.964 36.676 33.36 35.8H34.392C33.84 37.72 32.772 39.724 31.5 40.72C31.752 40.852 32.04 41.056 32.208 41.236C33.516 40.096 34.62 37.852 35.16 35.8H36.144C35.52 38.812 34.224 41.764 32.256 43.18C32.52 43.312 32.832 43.528 33 43.72C34.992 42.136 36.312 38.944 36.912 35.8H37.488C37.248 40.552 36.984 42.328 36.6 42.748C36.468 42.904 36.348 42.952 36.156 42.952C35.916 42.952 35.436 42.94 34.896 42.892C35.052 43.132 35.136 43.504 35.148 43.768C35.676 43.804 36.192 43.816 36.516 43.768C36.876 43.732 37.116 43.624 37.344 43.312C37.824 42.712 38.088 40.852 38.352 35.416C38.364 35.308 38.364 34.972 38.364 34.972L37.524 34.96ZM45.496 33.004C45.46 34.828 45.532 40.66 40.552 43.18C40.828 43.372 41.116 43.636 41.272 43.876C44.2 42.316 45.472 39.628 46.024 37.228C46.6 39.46 47.884 42.424 50.884 43.828C51.016 43.576 51.28 43.276 51.532 43.072C47.296 41.188 46.576 36.172 46.396 34.744C46.456 34.036 46.468 33.436 46.48 33.004H45.496ZM64.028 34.768V34.06H56.66C56.816 33.772 56.948 33.496 57.08 33.196L56.216 32.956C55.64 34.324 54.644 35.608 53.54 36.424C53.732 36.592 54.044 36.94 54.188 37.12C54.92 36.52 55.652 35.704 56.24 34.768H64.028ZM63.116 36.22V35.536H55.988V36.22H63.116ZM56.204 41.14C55.688 41.956 54.692 42.808 53.816 43.216C53.996 43.384 54.248 43.66 54.38 43.864C55.28 43.36 56.312 42.352 56.864 41.416L56.204 41.14ZM61.196 40.78V40.06H58.052V37.972H57.2V40.06H53.984V40.78H57.2V43.912H58.052V40.78H61.196ZM54.8 38.38C55.196 38.848 55.58 39.484 55.724 39.904L56.432 39.604C56.288 39.172 55.868 38.548 55.472 38.092L54.8 38.38ZM59.792 38.104C59.54 38.584 59.06 39.292 58.7 39.748L59.276 40C59.66 39.592 60.152 38.968 60.584 38.404L59.792 38.104ZM58.544 41.632C59.324 42.22 60.296 43.084 60.752 43.636L61.316 43.096C60.824 42.544 59.852 41.728 59.06 41.164L58.544 41.632ZM54.764 37V37.708H61.616C61.64 41.584 61.82 43.912 63.488 43.912C64.22 43.912 64.412 43.396 64.484 41.824C64.292 41.704 64.052 41.5 63.872 41.296C63.848 42.328 63.788 43.036 63.536 43.036C62.576 43.036 62.48 40.708 62.492 37H54.764ZM77.1 34.084H74.436C74.364 33.724 74.232 33.256 74.088 32.896L73.272 33.004C73.38 33.34 73.488 33.736 73.56 34.084H70.584V34.816H77.1V34.084ZM70.188 38.764C70.008 38.392 69.192 36.928 68.928 36.532V36.1H70.176V35.26H68.928V32.956H68.148V35.26H66.612V36.1H68.04C67.728 37.72 67.044 39.628 66.36 40.624C66.516 40.84 66.72 41.236 66.816 41.488C67.308 40.696 67.788 39.424 68.148 38.104V43.912H68.928V37.684C69.216 38.284 69.54 39.004 69.684 39.388L70.188 38.764ZM73.236 37.516C73.368 37.864 73.488 38.308 73.56 38.656H70.596V39.424H72.396C72.24 41.284 71.832 42.568 70.044 43.276C70.224 43.432 70.464 43.732 70.56 43.936C71.916 43.36 72.6 42.472 72.936 41.296H75.624C75.516 42.424 75.396 42.904 75.24 43.06C75.144 43.156 75.036 43.168 74.844 43.168C74.664 43.168 74.148 43.168 73.608 43.108C73.74 43.324 73.824 43.636 73.836 43.876C74.4 43.9 74.94 43.912 75.216 43.888C75.528 43.864 75.744 43.792 75.936 43.6C76.224 43.312 76.368 42.604 76.5 40.9C76.524 40.78 76.536 40.54 76.536 40.54H73.116C73.176 40.192 73.224 39.82 73.26 39.424H77.112V38.656H74.46C74.4 38.308 74.244 37.792 74.064 37.384L73.236 37.516ZM75.528 36.364C75.72 35.956 75.924 35.464 76.128 34.996L75.24 34.828C75.12 35.272 74.892 35.896 74.676 36.364H72.708L73.02 36.292C72.948 35.944 72.756 35.344 72.564 34.9L71.784 35.044C71.952 35.452 72.108 35.992 72.168 36.364H70.428V38.26H71.244V37.084H76.464V38.26H77.316V36.364H75.528Z" fill="#39393E"/>
<path d="M35.36 49.352V49.584C35.36 50.096 35.464 50.336 36.016 50.336H36.488C36.64 50.336 36.816 50.328 36.912 50.296C36.888 50.128 36.88 49.92 36.864 49.752C36.768 49.784 36.568 49.792 36.472 49.792H36.152C36.048 49.792 36.032 49.736 36.032 49.584V49.352H36.92V48.696H35.632V48.304H36.704V47.664H35.632V47.24H34.792V47.664H33.728V48.304H34.792V48.696H33.456V49.352H34.256C34.176 49.736 33.96 49.944 33.288 50.064C33.432 50.192 33.608 50.464 33.664 50.624C34.592 50.408 34.88 50 34.968 49.352H35.36ZM34.208 54.696C34.592 54.32 34.96 53.72 35.16 53.176L34.24 52.936C34.032 53.472 33.664 54.024 33.312 54.336L34.208 54.696ZM35.624 53.208C35.704 53.672 35.752 54.272 35.752 54.632L36.704 54.512C36.696 54.16 36.616 53.576 36.512 53.12L35.624 53.208ZM37.224 53.2C37.392 53.656 37.552 54.256 37.6 54.624L38.552 54.44C38.488 54.072 38.304 53.496 38.12 53.064L37.224 53.2ZM38.816 53.184C39.16 53.656 39.56 54.312 39.728 54.704L40.712 54.4C40.504 53.976 40.072 53.36 39.728 52.912L38.816 53.184ZM39.072 49.088V50.744C38.912 50.624 38.712 50.48 38.496 50.328C38.552 49.944 38.592 49.536 38.616 49.088H39.072ZM40.016 51.928C39.984 51.928 39.96 51.92 39.944 51.888C39.928 51.856 39.928 51.752 39.928 51.576V48.248H38.656C38.664 47.912 38.664 47.576 38.672 47.216H37.816C37.816 47.584 37.808 47.92 37.8 48.248H37.104V49.088H37.776C37.768 49.336 37.744 49.576 37.72 49.8L37.328 49.536L36.936 50.248C37.128 50.384 37.352 50.536 37.568 50.704C37.432 51.208 37.24 51.64 36.912 51.992V51.736L35.632 51.848V51.424H36.72V50.76H35.632V50.328H34.792V50.76H33.616V51.424H34.792V51.912C34.264 51.952 33.776 51.992 33.392 52.016L33.456 52.792C34.392 52.696 35.68 52.568 36.92 52.44V52.424C37.056 52.568 37.184 52.728 37.256 52.848C37.752 52.424 38.08 51.888 38.28 51.232C38.464 51.384 38.632 51.52 38.752 51.632L39.072 50.992V51.592C39.072 52.184 39.128 52.344 39.248 52.488C39.384 52.624 39.576 52.68 39.76 52.68H40.12C40.272 52.68 40.44 52.648 40.544 52.56C40.648 52.472 40.728 52.344 40.768 52.16C40.816 51.968 40.848 51.472 40.856 51.072C40.656 51 40.424 50.88 40.272 50.752C40.272 51.16 40.264 51.496 40.248 51.64C40.24 51.792 40.224 51.856 40.2 51.888C40.176 51.92 40.144 51.928 40.112 51.928H40.016ZM44.816 48.312V48.728H43.6V48.312H44.816ZM43.6 49.864V49.408H44.816V49.864H43.6ZM45.704 47.544H42.656V54.696H43.6V50.624H45.704V47.544ZM47.168 49.88V49.408H48.432V49.88H47.168ZM48.432 48.312V48.728H47.168V48.312H48.432ZM49.392 47.544H46.264V50.648H48.432V53.528C48.432 53.68 48.376 53.736 48.208 53.736C48.04 53.736 47.448 53.744 46.944 53.712C47.088 53.968 47.24 54.416 47.28 54.688C48.056 54.688 48.584 54.672 48.928 54.512C49.28 54.368 49.392 54.088 49.392 53.544V47.544ZM52.688 47.232C52.352 48.408 51.776 49.568 51.152 50.32C51.296 50.576 51.536 51.12 51.608 51.344C51.776 51.144 51.944 50.912 52.112 50.664V54.688H53.016V48.952C53.232 48.472 53.408 47.976 53.56 47.496L52.688 47.232ZM57.024 51.424C57.08 51.48 57.144 51.536 57.2 51.6C57.056 51.56 56.912 51.512 56.824 51.464C56.8 51.696 56.76 51.736 56.6 51.736H55.896C55.68 51.736 55.632 51.712 55.632 51.552V51.192H54.888V51.352L54.512 51.16C54.424 51.296 54.312 51.432 54.184 51.568V51.024H55.88L55.64 51.152C55.856 51.312 56.112 51.568 56.248 51.728L56.776 51.416C56.68 51.304 56.512 51.16 56.344 51.024H57.88V51.496C57.76 51.36 57.632 51.248 57.512 51.136L57.024 51.424ZM55.152 53.056L56.8 53.048C56.584 53.2 56.312 53.344 55.992 53.456C55.68 53.352 55.392 53.216 55.152 53.056ZM54.952 50.232H57.168V50.488H54.952V50.232ZM57.168 48.968V49.208H54.952V48.968H57.168ZM57.168 49.848H54.952V49.592H57.168V49.848ZM58.728 50.488H58.056V48.504H56.344L56.464 48.224H58.568V47.544H53.616V48.224H55.48C55.464 48.32 55.448 48.416 55.424 48.504H54.104V50.488H53.376V51.624H54.128C54.008 51.744 53.88 51.856 53.752 51.936L54.272 52.344C54.512 52.176 54.72 51.944 54.896 51.704C54.912 51.928 54.984 52.064 55.136 52.144C54.992 52.304 54.808 52.464 54.592 52.624C54.528 52.552 54.464 52.48 54.408 52.408L53.72 52.648C53.8 52.768 53.896 52.872 54 52.984C53.792 53.088 53.584 53.192 53.344 53.28C53.512 53.392 53.752 53.64 53.856 53.816C54.104 53.704 54.328 53.584 54.536 53.464C54.68 53.568 54.832 53.664 54.992 53.76C54.472 53.88 53.864 53.976 53.208 54.04C53.376 54.232 53.576 54.52 53.664 54.728C54.544 54.608 55.32 54.44 55.992 54.216C56.664 54.448 57.424 54.6 58.264 54.688C58.368 54.48 58.552 54.168 58.72 53.992C58.112 53.944 57.544 53.872 57.016 53.76C57.512 53.488 57.888 53.152 58.144 52.768L57.576 52.448L57.416 52.48H55.792C55.864 52.4 55.928 52.32 56 52.24H56.696C57.12 52.24 57.312 52.136 57.392 51.8C57.568 51.992 57.736 52.208 57.832 52.36L58.344 52.04C58.264 51.928 58.144 51.776 58 51.624H58.728V50.488ZM65.92 49.256V49.624H64.424V49.256H65.92ZM64.424 51.52V51.072H65.416L65.056 51.312C65.176 51.376 65.296 51.44 65.424 51.512L64.424 51.52ZM64.424 50.144H65.92V50.512H64.424V50.144ZM61.912 50.512V50.144H63.44V50.512H61.912ZM61.912 49.256H63.44V49.624H61.912V49.256ZM63.44 48.704H61.016V51.072H63.44V51.52C62.344 51.528 61.336 51.528 60.568 51.52L60.608 52.32C61.44 52.312 62.512 52.296 63.672 52.28L63.256 52.608C63.688 52.888 64.208 53.304 64.448 53.592L65.096 53.048C64.888 52.808 64.504 52.512 64.136 52.272C64.888 52.256 65.672 52.24 66.432 52.224C66.576 52.352 66.704 52.464 66.808 52.576L67.472 52.064C67.16 51.768 66.608 51.368 66.072 51.072H66.864V48.704H64.424V48.352H67.408V47.608H64.424V47.224H63.44V47.608H60.536V48.352H63.44V48.704ZM61.12 54.464C61.432 54.048 61.68 53.424 61.856 52.912L61.032 52.576C60.88 53.064 60.608 53.632 60.296 54L61.12 54.464ZM63.536 53.8C63.072 53.8 62.992 53.768 62.992 53.552V52.648H62.048V53.56C62.048 54.336 62.336 54.568 63.448 54.568H65.008C65.84 54.568 66.104 54.336 66.216 53.408C65.96 53.36 65.592 53.232 65.392 53.112C65.352 53.704 65.28 53.8 64.928 53.8H63.536ZM65.936 52.88C66.288 53.376 66.616 54.04 66.712 54.456L67.592 54.176C67.48 53.72 67.128 53.096 66.76 52.616L65.936 52.88ZM73.728 50.68C73.936 50.952 74.184 51.2 74.448 51.424H71.448C71.736 51.192 71.984 50.944 72.208 50.68H73.728ZM76.552 50.68V49.824H72.816C72.912 49.656 73 49.496 73.088 49.32H76.048V48.48H75.032C75.216 48.224 75.416 47.936 75.608 47.64L74.72 47.368C74.576 47.696 74.32 48.144 74.104 48.48H73.416C73.536 48.088 73.632 47.688 73.704 47.28L72.696 47.184C72.648 47.624 72.552 48.064 72.4 48.48H71.608L71.968 48.296C71.856 48.016 71.576 47.608 71.328 47.312L70.568 47.68C70.752 47.92 70.944 48.224 71.08 48.48H69.944V49.32H72.008C71.904 49.496 71.8 49.656 71.672 49.824H69.456V50.68H70.848C70.4 51.04 69.872 51.352 69.232 51.608C69.44 51.784 69.712 52.16 69.816 52.408C70.144 52.264 70.432 52.112 70.712 51.936V52.28H71.744C71.568 53.016 71.144 53.528 69.76 53.84C69.96 54.032 70.208 54.416 70.296 54.656C72.008 54.192 72.544 53.384 72.744 52.28H74.32C74.248 53.16 74.168 53.536 74.056 53.656C73.968 53.728 73.904 53.752 73.768 53.744C73.616 53.752 73.28 53.744 72.928 53.712C73.08 53.952 73.184 54.328 73.2 54.608C73.624 54.624 74.008 54.616 74.24 54.584C74.504 54.552 74.696 54.48 74.872 54.28C75.096 54.032 75.208 53.392 75.296 51.984C75.6 52.144 75.912 52.272 76.248 52.376C76.384 52.136 76.648 51.776 76.856 51.592C76.104 51.416 75.416 51.088 74.896 50.68H76.552Z" fill="#8E8E93"/>
<g opacity="0.74">
<path opacity="0.74" d="M28.33 3H4.67001C3.74769 3 3 3.81065 3 4.81063V28.1894C3 29.1894 3.74769 30 4.67001 30H28.33C29.2523 30 30 29.1894 30 28.1894V4.81063C30 3.81065 29.2523 3 28.33 3Z" fill="#F7F7F7"/>
</g>
<path d="M16.6659 23.1359H6.20166V24.2648H16.6659V23.1359Z" fill="#DBDBDB"/>
<path d="M22.524 25.5312H6.20166V26.6602H22.524V25.5312Z" fill="#DBDBDB"/>
<path d="M12.2529 6.52425C12.9606 6.2074 13.7102 6.01425 14.4738 5.95198L14.8257 5.91445C14.9987 5.91445 15.166 5.88943 15.3218 5.88318C15.3567 6.19492 15.4957 6.482 15.7125 6.69024C15.9293 6.89847 16.2089 7.01344 16.4986 7.01344C16.7882 7.01344 17.0678 6.89847 17.2846 6.69024C17.5014 6.482 17.6404 6.19492 17.6754 5.88318C17.8311 5.88318 17.9984 5.90194 18.1715 5.91445L18.5262 5.95198C19.6973 6.08332 21.0327 6.41167 21.5519 7.18095C22.5614 8.67887 22.7633 12.5222 22.6191 19.896H22.4027V20.2713H20.9981V19.8867H20.7097V18.0104H20.1789V18.7921H12.824V18.0104H12.2817V19.8867H12.0308V20.2619H10.6261V19.8867H10.381C10.2367 12.5128 10.4386 8.66949 11.4453 7.17157C11.6447 6.90143 11.9008 6.68697 12.1923 6.54614L12.2529 6.52425Z" fill="#C3DB60"/>
<path d="M18.1744 5.91445C18.1744 6.39549 17.9982 6.85683 17.6844 7.19697C17.3707 7.53712 16.9452 7.72821 16.5015 7.72821C16.0578 7.72821 15.6323 7.53712 15.3186 7.19697C15.0049 6.85683 14.8286 6.39549 14.8286 5.91445C15.0017 5.91445 15.169 5.88943 15.3247 5.88318C15.3596 6.19492 15.4986 6.482 15.7154 6.69024C15.9322 6.89847 16.2119 7.01344 16.5015 7.01344C16.7912 7.01344 17.0708 6.89847 17.2876 6.69024C17.5044 6.482 17.6434 6.19492 17.6783 5.88318C17.8341 5.88943 17.9985 5.90194 18.1744 5.91445Z" fill="#98B037"/>
<path d="M28.4628 24.8901C28.4634 25.3535 28.3371 25.8067 28.1001 26.1923C27.8631 26.5779 27.5259 26.8786 27.1312 27.0563C26.7365 27.2341 26.302 27.2809 25.8827 27.1909C25.4635 27.1009 25.0783 26.8781 24.7759 26.5506C24.4734 26.2232 24.2674 25.8058 24.1838 25.3514C24.1002 24.8969 24.1428 24.4258 24.3063 23.9977C24.4697 23.5695 24.7466 23.2035 25.1019 22.946C25.4572 22.6885 25.875 22.551 26.3024 22.551C26.8749 22.551 27.4239 22.7974 27.829 23.2359C28.2341 23.6745 28.462 24.2695 28.4628 24.8901Z" fill="#DBDBDB"/>
<path d="M26.0919 25.9879L25.1372 24.9496L25.5583 24.4931L26.0919 25.0716L27.0495 24.0365L27.4706 24.4931L26.0919 25.9879Z" fill="white"/>
</svg>
