<svg width="28" height="27" viewBox="0 0 28 27" fill="none" xmlns="http://www.w3.org/2000/svg">
<path d="M12.3927 9.31177C12.3927 9.31177 12.1511 9.6661 12.1831 9.6909C12.2151 9.71571 12.3679 9.5846 12.3679 9.5846" stroke="white" stroke-width="0.18" stroke-linecap="round" stroke-linejoin="round"/>
<path d="M8.45248 16.8342C8.20441 16.8945 7.98628 17.0416 7.83779 17.2488C7.52512 17.6279 7.65658 17.7059 7.83779 17.6031C8.019 17.5004 8.019 17.1992 8.65501 17.1248C8.79358 17.1177 8.45248 16.8342 8.45248 16.8342Z" fill="#E9946F"/>
<path d="M15.6333 16.8237C15.6822 17.1133 15.7486 17.3996 15.8323 17.6812C15.8587 17.7818 15.9175 17.8709 15.9997 17.9349C16.0819 17.9989 16.1828 18.0343 16.2871 18.0355C16.4896 18.0355 15.9637 17.8017 15.9602 17.5253C15.9566 17.2489 16.2196 16.7776 15.6333 16.8237Z" fill="#E9946F"/>
<path d="M8.33545 16.8202C8.77028 16.6464 9.16236 16.381 9.48491 16.0422C9.80746 15.7035 10.0529 15.2992 10.2044 14.8572C10.6308 13.4399 11.2454 11.2891 11.2454 11.2891L11.885 12.3521C11.885 12.3521 12.1159 12.2174 10.9043 15.1867C10.6898 15.7113 10.3463 16.1736 9.90541 16.531C9.46451 16.8883 8.94047 17.1291 8.38164 17.2312L8.33545 16.8202Z" fill="#EF9A9B"/>
<path d="M14.8339 25.5862C14.9368 25.7166 15.0227 25.8595 15.0897 26.0114C14.771 26.2512 14.4092 26.428 14.0238 26.5322C13.9243 26.4862 14.6705 26.0362 14.6385 25.9476C14.61 25.8794 14.573 25.8151 14.5283 25.7563L14.8339 25.5862Z" fill="#42394A"/>
<path d="M11.4691 25.9653C11.5076 26.1267 11.5266 26.292 11.526 26.4579C11.1352 26.5463 10.731 26.5583 10.3357 26.4933C10.2646 26.4118 11.1316 26.309 11.1387 26.2134C11.1396 26.1396 11.1325 26.0659 11.1174 25.9937L11.4691 25.9653Z" fill="#42394A"/>
<path d="M13.1992 10.9593C13.1992 10.9593 15.8143 12.5326 15.9884 16.9511L15.6828 17.0574C15.53 17.1672 15.5194 14.4141 13.3769 12.5326C12.6307 11.8806 12.7906 10.9381 13.1992 10.9593Z" fill="#EF9A9B"/>
<path d="M10.8794 16.6997C10.8794 16.6997 9.72464 19.4954 9.81347 21.3485C9.86321 22.4718 10.8794 25.9973 10.8794 25.9973L11.59 25.9442C11.59 25.9442 10.62 22.5462 10.6982 21.1962C10.755 20.2253 12.2367 17.4261 12.2367 17.4261C12.2367 17.4261 11.7748 20.8277 12.3753 22.1351C12.8087 23.0777 14.4609 25.7847 14.4609 25.7847L14.8731 25.5544C14.8731 25.5544 13.1498 22.2344 13.1854 21.3485C13.2209 20.4627 13.6935 16.8202 13.6935 16.8202C13.6935 16.8202 11.1175 16.7458 10.8794 16.6997Z" fill="#439B95"/>
<path d="M10.8795 16.6996C10.8795 16.6996 11.5901 17.2417 13.7219 16.8201C13.7219 16.8201 14.1412 11.1508 13.093 10.9028C12.0449 10.6547 11.7429 10.6689 11.1744 11.289C10.7871 11.7106 10.5455 13.415 10.8937 13.4539C11.2419 13.4929 11.4053 13.4539 11.4515 13.7693C11.4977 14.0846 10.8795 16.6996 10.8795 16.6996Z" fill="#EF9A9B"/>
<path d="M13.8069 7.99012C13.8069 7.99012 14.0414 9.05312 13.8069 9.58461C13.5724 10.1161 12.8796 9.17359 12.9329 10.924C12.9329 10.924 12.3324 11.3846 12.2436 10.5945C12.1192 9.51729 12.4354 7.13619 13.8069 7.99012Z" fill="#E9946F"/>
<path d="M10.6588 12.9509C10.6588 12.9509 12.1546 12.3733 12.3963 11.2218C12.6379 10.0702 12.5668 9.58829 13.4906 8.59262C14.7413 7.23907 12.549 7.68199 12.2008 7.78829C11.8526 7.89459 12.0196 9.05679 11.6679 9.34734C11.3161 9.63789 10.5486 9.58829 10.5344 10.3395C10.5202 11.0907 10.9182 11.8879 10.474 12.1111C10.0299 12.3344 10.0725 13.1387 10.6588 12.9509Z" fill="#42394A"/>
<path d="M13.857 8.37646C13.8745 8.68813 13.948 8.99414 14.0737 9.28001C14.1661 9.43237 13.7184 9.28001 13.7184 9.28001C13.6745 8.97179 13.7227 8.65752 13.857 8.37646V8.37646Z" fill="#E9946F"/>
<path d="M16.344 17.954C16.344 17.954 16.4968 19.8284 17.0547 19.7044C17.6125 19.5804 17.9678 17.1072 18.7673 16.7351L19.0231 17.4934C19.0231 17.4934 18.4439 17.7131 18.3373 18.1347C18.2307 18.5564 17.8221 20.1473 16.9161 20.2288C16.01 20.3103 16.2055 18.2056 15.9994 17.8229C15.6334 17.1461 16.2126 17.139 16.344 17.954Z" fill="#E9946F"/>
<path d="M17.6655 18.6412C17.6655 18.6412 18.0208 19.1125 18.0955 19.0416C18.4466 18.5564 18.7489 18.0377 18.9979 17.4932C18.9979 17.3161 18.9766 16.5613 18.8842 16.618C18.7919 16.6747 18.2234 16.7739 17.6655 18.6412Z" fill="#FFE0BC"/>
<path d="M20.3198 16.6997C20.3198 16.6997 20.9167 16.9548 21.2436 17.9505C21.5705 18.9462 21.7482 20.4308 22.2278 20.8631C22.4344 21.0136 22.6827 21.0966 22.9385 21.1005C22.9385 21.1005 22.0502 21.5328 21.5528 20.3351C21.1513 19.3749 20.6645 18.0143 20.3944 17.9151L20.3198 16.6997Z" fill="#E9946F"/>
<path d="M20.9629 19.0417C20.9629 19.0417 21.5811 18.8539 21.5882 18.7405C21.5953 18.6271 21.137 16.9688 20.2914 16.6145C20.2241 16.9152 20.1825 17.221 20.167 17.5287C20.167 17.8511 20.7959 18.5598 20.9629 19.0417Z" fill="#FFE0BC"/>
<path d="M18.2698 20.6646C18.2698 20.6646 17.9358 22.4788 17.8399 23.2264C17.7439 23.9741 18.1952 24.9237 18.3942 26.0859C18.483 26.5855 18.483 26.2985 18.5007 26.2524C18.5789 26.054 18.6997 26.1851 18.6784 26.054C18.6571 25.9229 18.4155 24.0556 18.5221 23.5737C18.6962 22.7729 19.1296 21.0934 19.1296 21.0934C19.1296 21.0934 19.6555 22.9749 19.7585 23.7012C19.8012 24.013 21.2757 25.6465 21.1798 25.8272C21.0839 26.0079 20.8245 25.9689 20.9844 25.976C21.1443 25.9831 21.4569 25.8981 21.4711 25.7847C21.4854 25.6713 20.3128 23.7402 20.3199 23.2583C20.3448 21.5575 20.1991 19.5449 20.3199 18.5741C20.4407 17.6032 19.3961 17.3552 18.9982 17.4934C18.6002 17.6315 19.3037 17.9823 18.2698 20.6646Z" fill="#E9946F"/>
<path d="M21.3359 25.4055C21.4218 25.5262 21.4923 25.6571 21.5455 25.7953C21.2841 26.0085 20.9819 26.1665 20.6573 26.2595C20.572 26.2134 21.1689 25.8024 21.144 25.7173C21.1201 25.6567 21.0904 25.5986 21.0552 25.5437L21.3359 25.4055Z" fill="#42394A"/>
<path d="M17.4561 22.4504C17.4561 22.4504 20.5686 22.7409 20.7142 22.3086C20.7711 22.1421 20.8493 16.937 20.2523 16.5897C19.7265 16.2815 18.8666 16.5366 18.7423 16.735C18.4758 17.1815 17.5307 21.3945 17.4561 22.4504Z" fill="#42394A"/>
<path d="M18.0103 24.5302L18.5183 24.47C18.5183 24.47 18.6534 25.8235 18.6782 26.0538L18.3727 25.9759C18.3727 25.9759 18.1666 25.1574 18.0103 24.5302Z" fill="#FFE0BC"/>
<path d="M20.0996 24.2398C20.2641 24.1609 20.4339 24.0934 20.6077 24.0378C20.6077 24.0626 21.3539 25.4056 21.3539 25.4056L21.0732 25.5438L20.0996 24.2398Z" fill="#FFE0BC"/>
<path d="M19.9646 16.572C19.9646 16.572 20.0783 17.5677 19.6733 17.6953C19.4245 17.7732 19.0266 17.8264 18.9982 17.4933C18.9895 17.1482 19.0729 16.8071 19.2398 16.5047C19.3144 16.4764 19.8367 16.0831 19.9646 16.572Z" fill="#FFE0BC"/>
<path d="M18.6712 25.9832C18.6712 25.9832 18.7529 26.2914 18.7103 26.3375C18.6677 26.3836 17.8576 26.4403 17.822 26.3375C17.7865 26.2347 18.3159 26.2631 18.3514 26.1816C18.37 26.1099 18.3772 26.0358 18.3728 25.9619L18.6712 25.9832Z" fill="#42394A"/>
<path d="M19.3287 15.6649C19.3976 15.9813 19.3469 16.3118 19.1866 16.5933C19.0764 16.82 19.9292 16.6819 19.9611 16.572C19.8917 16.2211 19.8917 15.86 19.9611 15.509C19.8507 15.4879 19.737 15.4909 19.6278 15.5178C19.5186 15.5447 19.4166 15.5949 19.3287 15.6649V15.6649Z" fill="#E9946F"/>
<path d="M20.3874 14.2193C20.3874 14.2193 20.8066 13.6134 21.1904 14.0103C21.5741 14.4071 21.3289 15.5941 21.3822 15.8847C21.4355 16.1752 21.9365 16.2638 21.7375 16.3099C21.5386 16.3559 19.993 16.6536 20.3874 14.2193Z" fill="#963820"/>
<path d="M19.0409 14.2192C19.0409 14.2192 18.6643 13.6913 18.2841 14.0846C17.9039 14.4779 18.0994 15.594 18.0461 15.8846C17.9928 16.1751 17.7547 16.2389 17.9572 16.2885C18.1598 16.3381 19.1866 16.5011 19.0409 14.2192Z" fill="#963820"/>
<path d="M18.9909 14.2441C18.9909 14.2441 18.5965 15.7465 19.3284 15.9237C19.8685 16.0548 20.2735 15.0378 20.1385 14.354C20.0035 13.6701 19.0157 13.8933 18.9909 14.2441Z" fill="#E9946F"/>
<path d="M18.7527 14.4887C18.7527 14.4887 18.8913 14.021 19.0725 13.9111C19.2663 13.7907 19.4985 13.7477 19.7227 13.7907C19.8842 13.8198 20.036 13.888 20.1649 13.9893C20.2938 14.0906 20.3957 14.222 20.4617 14.3718C20.5897 14.7261 20.3694 14.7899 20.4617 14.9245C20.5541 15.0592 20.5683 14.9245 20.5044 15.1655C20.4404 15.4064 19.8968 15.7324 19.9323 15.5907C19.9679 15.4489 20.0283 14.882 19.9003 14.7686C19.7724 14.6552 18.6141 15.0202 18.7527 14.4887Z" fill="#963820"/>
<path d="M19.9147 15.0768C19.8922 15.0984 19.8753 15.1252 19.8656 15.1548C19.8558 15.1844 19.8534 15.216 19.8587 15.2467C19.8639 15.2775 19.8766 15.3064 19.8957 15.3312C19.9148 15.3559 19.9396 15.3756 19.968 15.3886C20.2523 15.5445 20.3375 14.7153 19.9147 15.0768Z" fill="#E9946F"/>
<path d="M18.8846 14.1235C18.8044 14.2953 18.7562 14.4802 18.7424 14.6692C18.7638 14.8428 18.4262 14.3078 18.8846 14.1235Z" fill="#EF9A9B"/>
<path d="M20.3872 14.2192C20.4875 14.3935 20.5448 14.589 20.5542 14.7897C20.5116 14.9775 20.8136 14.361 20.3872 14.2192Z" fill="#EF9A9B"/>
<path d="M19.0303 14.9351C18.9271 15.0395 18.807 15.1257 18.675 15.1902C18.5507 15.2292 18.8775 15.2504 18.9237 15.3071C18.9699 15.3638 19.2293 15.0555 19.0303 14.9351Z" fill="#E9946F"/>
<path d="M6.99928 8.83699C6.99928 8.83699 7.24444 4.53187 6.66529 4.1173C6.08613 3.70273 4.24562 3.9614 4.09995 4.43266C3.95427 4.90392 3.80859 8.3799 3.80859 8.3799C3.80859 8.3799 6.8003 8.89368 6.99928 8.83699Z" fill="#C12B28"/>
<path d="M4.28827 4.93937C4.28827 4.93937 1.98586 4.82598 1.60568 3.32008C1.22549 1.81417 3.26853 0 3.8086 0C4.06797 0 3.47461 0.212598 3.16549 0.648425C2.85637 1.08425 1.77623 2.8063 2.84215 3.42638C3.39451 3.76028 4.01034 3.97625 4.65068 4.06063L4.28827 4.93937Z" fill="#E9946F"/>
<path d="M6.779 5.04563C6.779 5.04563 9.08141 4.93225 9.46159 3.42988C9.84177 1.92752 7.8165 0.106262 7.25867 0.106262C6.99929 0.106262 7.59266 0.318861 7.90178 0.754687C8.2109 1.19051 9.29459 2.91256 8.218 3.53618C7.66044 3.86997 7.04002 4.08586 6.39526 4.17043L6.779 5.04563Z" fill="#E9946F"/>
<path d="M6.30986 9.56689C6.30986 9.56689 10.5985 11.0232 9.68531 12.8941C9.02443 14.237 5.951 12.1854 5.86572 11.9374C5.88624 11.7888 5.92937 11.6442 5.99363 11.5086C5.99363 11.5086 8.60516 13.0039 8.8823 12.522C9.23761 11.9126 6.13576 10.6299 6.13576 10.6299L6.30986 9.56689Z" fill="#F7B119"/>
<path d="M3.59909 9.56689C3.59909 9.56689 -1.12654 11.3067 0.252067 13.2059C0.962687 14.1626 2.68594 12.4299 2.77121 12.1819C2.79609 12.1074 2.59001 12.0153 2.59001 12.0153C2.59001 12.0153 0.984006 13.2697 0.848988 12.724C0.589612 11.6858 3.77674 10.598 3.77674 10.598L3.59909 9.56689Z" fill="#F7B119"/>
<path d="M3.36084 9.12755C3.4489 8.84663 3.6023 8.59045 3.80853 8.37991C4.03593 8.19566 7.16976 8.52164 7.00632 8.83699C6.90683 9.02833 6.37742 10.109 6.37742 10.109C6.37742 10.109 3.49586 9.79014 3.36084 9.12755Z" fill="#FFE0BC"/>
<path d="M8.52698 25.7847C8.52698 25.7847 8.83254 26.0965 8.83965 26.1709C8.55701 26.4533 8.22298 26.6794 7.85544 26.837C7.7524 26.8051 8.42749 26.2559 8.3813 26.1709C8.34199 26.1079 8.29549 26.0496 8.24273 25.9973L8.52698 25.7847Z" fill="#42394A"/>
<path d="M2.26276 26.3586C2.28148 26.5637 2.28148 26.7701 2.26276 26.9752C1.86181 27.0217 1.45567 26.9929 1.06537 26.8901C1.00141 26.798 1.87192 26.7838 1.89324 26.6917C1.9016 26.6175 1.9016 26.5427 1.89324 26.4685L2.26276 26.3586Z" fill="#42394A"/>
<path d="M4.45551 5.90308C4.32248 5.95622 4.20496 6.04181 4.1137 6.15201C4.02245 6.2622 3.96039 6.39347 3.93321 6.53378C3.81595 7.03339 4.37024 7.46922 4.45551 7.38418C4.54078 7.29914 4.45551 5.90308 4.45551 5.90308Z" fill="#963820"/>
<path d="M4.38086 10.5448C4.38086 10.5448 4.40928 7.71019 4.42705 7.35586C4.44482 7.00153 5.30111 7.15035 5.40771 7.35586C5.5143 7.56137 5.52496 10.5448 5.52496 10.5448H4.38086Z" fill="#E9946F"/>
<path d="M5.76277 5.49927C5.76277 5.49927 5.99727 8.27722 5.76277 8.33391C5.52826 8.39061 4.63644 8.15675 4.51563 7.74572C4.39483 7.3347 4.02175 5.86068 5.76277 5.49927Z" fill="#E9946F"/>
<path d="M4.61889 6.81383C4.61889 6.81383 4.61889 6.1654 5.1483 6.15832C5.56757 6.15832 6.25687 6.07328 6.10408 5.191C5.97617 4.46462 5.31885 5.49926 4.4661 5.89966C3.61336 6.30005 4.22449 7.40911 4.61889 6.81383Z" fill="#963820"/>
<path d="M5.5246 9.18418C5.5246 9.18418 4.782 10.2755 4.65054 10.0806C4.51756 9.79745 4.43118 9.49476 4.39472 9.18418C4.34852 8.99284 3.32878 9.71922 3.08717 11.1826C2.84556 12.646 3.2293 16.6535 3.2293 16.6535H7.10573C7.10573 16.6535 7.19811 11.2287 6.86767 10.4739C6.53723 9.71922 5.5246 9.18418 5.5246 9.18418Z" fill="#F7B119"/>
<path d="M3.22971 16.6536C3.22971 16.6536 1.47803 20.5725 1.47803 21.9402C1.47803 23.3079 1.74806 26.4685 1.74806 26.4685H2.32722C2.32722 26.4685 2.46224 22.5142 2.56528 21.561C2.7074 20.289 4.95296 17.5996 4.95296 17.5996C4.95296 17.5996 5.01691 21.7028 5.8661 22.9784C6.7153 24.254 8.15075 26.0433 8.15075 26.0433L8.65529 25.767C8.65529 25.767 6.77925 22.5071 6.77925 21.6567C6.77925 20.8063 7.10614 16.6536 7.10614 16.6536H3.22971Z" fill="#42394A"/>
<path d="M5.92617 9.07788C5.92617 9.07788 5.21555 9.54914 4.95262 10.9594C4.68969 12.3696 5.38255 13.1279 5.38255 13.1279L5.61705 12.9472C5.36974 12.3854 5.31189 11.7587 5.4522 11.1613C5.59252 10.5639 5.92341 10.028 6.39518 9.63418C6.39518 9.63418 6.52309 9.15583 5.92617 9.07788Z" fill="#E9946F"/>
<path d="M4.97412 10.421C5.32383 10.5391 5.67965 10.6385 6.04005 10.7186C6.13243 10.7186 6.41668 9.87883 6.81818 9.156C6.81818 9.156 5.84818 8.7308 5.68474 8.80167C5.5213 8.87253 5.21218 9.48907 4.97412 10.421Z" fill="#FFE0BC"/>
<path d="M3.90825 8.80859C3.31357 9.32271 2.9281 10.0361 2.82456 10.8141C2.76845 11.2598 2.80992 11.7124 2.94609 12.1406C3.08226 12.5688 3.30991 12.9624 3.61335 13.2944L3.84785 13.1137C3.48346 12.5735 3.30328 11.9306 3.334 11.2803C3.36472 10.6299 3.6047 10.0067 4.0184 9.50308C4.0184 9.50308 4.49096 8.88655 3.90825 8.80859Z" fill="#E9946F"/>
<path d="M3.0874 9.87173C3.38203 10.0298 3.68852 10.1649 4.0041 10.2757C4.09648 10.2757 4.14623 9.85047 4.39494 9.18787C4.39494 9.18787 3.95791 8.53591 3.79447 8.6174C3.63103 8.6989 3.2615 8.98236 3.0874 9.87173Z" fill="#FFE0BC"/>
<path d="M5.75586 3.92246C6.42981 3.93972 7.10374 3.88747 7.76691 3.76655C7.83798 3.74884 8.07959 4.93939 8.07959 4.93939C7.61953 5.11548 7.14361 5.24719 6.65835 5.3327C6.43095 5.31498 5.75586 3.92246 5.75586 3.92246Z" fill="#C12B28"/>
<path d="M3.4179 3.69556C3.4179 3.69556 3.04838 4.60619 3.19761 4.93926C3.67575 5.09641 4.16205 5.22771 4.65438 5.33257L5.13049 3.9365C5.2513 4.01091 4.12852 3.82312 3.4179 3.69556Z" fill="#C12B28"/>
<path d="M5.13378 3.21731C5.13378 3.21731 5.15155 3.84094 5.13378 3.92597C5.11602 4.01101 5.59213 4.15629 5.86572 3.92597C5.80183 3.54995 5.76503 3.16984 5.75558 2.78857C5.75558 2.78857 5.20485 3.07558 5.13378 3.21731Z" fill="#E9946F"/>
<path d="M5.76299 6.14771C5.80812 6.44027 5.93078 6.7155 6.1183 6.94495C6.37413 7.14692 5.84472 7.06188 5.80563 7.14692C5.76655 7.23196 5.43966 6.37802 5.76299 6.14771Z" fill="#E9946F"/>
<path d="M5.61739 12.9473C5.61739 12.9473 5.87677 13.1315 5.86966 13.1953C5.86255 13.2591 5.27984 13.8118 5.19457 13.7658C5.10929 13.7197 5.52856 13.4114 5.50369 13.3122C5.47329 13.2449 5.43253 13.1827 5.38288 13.128L5.61739 12.9473Z" fill="#42394A"/>
<path d="M3.8337 13.1101C3.8337 13.1101 4.09307 13.2944 4.08597 13.3581C4.07886 13.4219 3.49615 13.9747 3.41088 13.9286C3.3256 13.8825 3.74487 13.5743 3.72 13.4751C3.6896 13.4077 3.64884 13.3456 3.59919 13.2908L3.8337 13.1101Z" fill="#42394A"/>
<path d="M3.33261 11.7495C3.16475 11.767 2.99991 11.8063 2.84229 11.8664C2.97528 12.3932 3.23505 12.8797 3.5991 13.2838L3.8336 13.1031C3.58298 12.6872 3.41303 12.228 3.33261 11.7495V11.7495Z" fill="#FFE0BC"/>
<path d="M5.36152 11.6361C5.36152 11.6361 4.97779 11.5688 4.89606 11.6361C4.88442 12.174 5.05602 12.6999 5.38284 13.1279L5.61734 12.9471C5.44539 12.5315 5.35842 12.0858 5.36152 11.6361V11.6361Z" fill="#FFE0BC"/>
<path d="M5.65283 11.4662C5.65283 11.4662 5.06656 11.2997 4.83917 11.6469C4.75034 11.7851 5.51781 11.902 5.65283 11.7957C5.78784 11.6894 5.83759 11.5477 5.65283 11.4662Z" fill="#E67E69"/>
<path d="M2.58999 12.0154C2.58999 12.0154 3.12295 11.452 3.46405 11.693C3.59907 11.7851 2.84936 12.228 2.68592 12.1784C2.52248 12.1288 2.58999 12.0154 2.58999 12.0154Z" fill="#E67E69"/>
<path d="M4.8176 1.66537C4.8176 1.66537 4.53335 3.18899 5.27595 3.31655C5.82313 3.40868 6.15357 2.3634 5.98657 1.69372C5.81958 1.02403 4.8176 1.31458 4.8176 1.66537Z" fill="#E9946F"/>
<path d="M5.87652 2.33513C5.87652 2.33513 5.64556 2.62923 5.83743 2.79222C6.17142 3.07214 6.72571 2.12608 5.87652 2.33513Z" fill="#E9946F"/>
<path d="M4.71109 1.14459C4.69127 1.18354 4.67988 1.2262 4.67765 1.26981C4.67542 1.31343 4.68241 1.35703 4.69815 1.39778C4.71389 1.43854 4.73804 1.47554 4.76904 1.50639C4.80004 1.53724 4.83719 1.56125 4.87809 1.57687C5.31156 1.73632 5.55673 1.54498 5.73794 1.74341C5.91915 1.94183 5.81966 2.56546 5.92625 2.57609C6.08756 2.45656 6.20815 2.29049 6.2717 2.10037C6.33525 1.91024 6.33869 1.70523 6.28156 1.51309C6.10035 1.01703 5.21563 1.28632 5.19076 0.960338C5.16589 0.634353 4.76439 0.896558 4.71109 1.14459Z" fill="#42394A"/>
<path d="M4.79984 2.38111C4.79984 2.38111 4.55823 2.40237 4.53336 2.38111C4.50848 2.35985 4.77852 2.07993 4.78207 1.93111C4.78563 1.78229 5.24398 2.34213 4.79984 2.38111Z" fill="#E9946F"/>
<path d="M4.61853 6.65071C4.61853 6.65071 4.55458 7.15386 4.67893 7.28496C4.80329 7.41606 5.8408 6.98024 5.90475 7.16449C5.96871 7.34874 6.16768 8.14244 5.75908 8.33378C5.35047 8.52512 4.43022 8.09283 4.45154 7.19283C4.47285 6.29283 4.55813 6.46646 4.61853 6.65071Z" fill="#963820"/>
<path d="M4.50879 7.29565C4.50879 7.29565 4.61894 6.64014 4.34535 6.73226C4.07176 6.82439 4.29561 7.70667 4.50879 7.29565Z" fill="#E9946F"/>
<path d="M23.5285 0.744164C23.5285 0.744164 24.5163 -0.155835 25.5289 1.31109C26.1756 2.24653 26.0867 4.82605 26.3212 5.26188C26.5557 5.69771 28.0978 8.34102 25.5857 9.15952C22.6615 10.095 21.052 8.30913 21.553 6.76779C22.054 5.22645 22.4697 5.2796 22.5585 4.41149C22.7397 2.55479 22.8818 1.03826 23.5285 0.744164Z" fill="#6AAF9F"/>
<path d="M24.1608 10.4456C24.1608 10.4456 24.0329 2.44122 24.2176 2.55815C24.4024 2.67508 24.3704 10.4456 24.3704 10.4456H24.1608Z" fill="#4F4558"/>
<path d="M24.2317 5.28661C24.2317 5.28661 22.8389 3.66731 22.9775 3.66731C23.116 3.66731 24.2317 5.08464 24.2317 5.08464L25.5002 3.58228C25.7738 3.68857 24.2317 5.28661 24.2317 5.28661Z" fill="#4F4558"/>
<path d="M24.2317 6.89537C24.2317 6.89537 22.8389 5.27962 22.9775 5.27962C23.116 5.27962 24.2317 6.69694 24.2317 6.69694L25.5002 5.19458C25.7738 5.31505 24.2317 6.89537 24.2317 6.89537Z" fill="#4F4558"/>
<path d="M24.2317 8.59606C24.2317 8.59606 22.8389 6.97677 22.9775 6.97677C23.116 6.97677 24.2317 8.39409 24.2317 8.39409L25.5002 6.88818C25.7738 6.99803 24.2317 8.59606 24.2317 8.59606Z" fill="#4F4558"/>
<path d="M18.4757 3.85874C18.4757 3.85874 19.3036 3.10047 20.1563 4.33708C20.6999 5.12015 20.6253 7.28866 20.8243 7.65362C21.0233 8.01858 22.3059 10.2438 20.206 10.917C17.7473 11.7036 16.3936 10.2083 16.8164 8.90795C17.2392 7.60755 17.5874 7.65362 17.662 6.92724C17.8255 5.38236 17.9392 4.10322 18.4757 3.85874Z" fill="#98D5CC"/>
<path d="M19.0015 12.0118C19.0015 12.0118 18.8914 5.27951 19.0477 5.38227C19.2041 5.48502 19.1863 12.0118 19.1863 12.0118H19.0015Z" fill="#4F4558"/>
<path d="M19.0728 7.67832C19.0728 7.67832 17.9039 6.31769 18.0069 6.31769C18.11 6.31769 19.0728 7.51179 19.0728 7.51179L20.1388 6.24683C20.3697 6.33187 19.0728 7.67832 19.0728 7.67832Z" fill="#4F4558"/>
<path d="M19.0728 9.0283C19.0728 9.0283 17.9039 7.66766 18.0069 7.66766C18.11 7.66766 19.0728 8.8653 19.0728 8.8653L20.1388 7.60034C20.3697 7.68538 19.0728 9.0283 19.0728 9.0283Z" fill="#4F4558"/>
<path d="M19.0728 10.4563C19.0728 10.4563 17.9039 9.09564 18.0069 9.09564C18.11 9.09564 19.0728 10.2933 19.0728 10.2933L20.1388 9.02832C20.3697 9.11336 19.0728 10.4563 19.0728 10.4563Z" fill="#4F4558"/>
</svg>
