<svg width="82" height="60" viewBox="0 0 82 60" fill="none" xmlns="http://www.w3.org/2000/svg">
<rect width="82" height="60" rx="5" fill="white"/>
<path d="M20.08 34.192V35.176H18.064V34.192H20.08ZM22.912 35.176H20.836V34.192H22.912V35.176ZM20.836 36.892V35.824H22.912V36.892H20.836ZM18.064 36.544V35.824H20.08V36.892H18.064V36.544ZM22.912 37.54V41.284C22.912 41.452 22.84 41.5 22.684 41.512C22.528 41.524 21.976 41.524 21.388 41.5C21.496 41.716 21.616 42.052 21.64 42.268C22.492 42.268 23.008 42.256 23.32 42.124C23.62 41.98 23.74 41.764 23.74 41.284V33.448H17.236V36.544C17.236 38.056 17.176 40.156 16.492 41.668C16.696 41.752 17.056 41.968 17.212 42.1C17.812 40.804 18.004 39.028 18.052 37.54H22.912ZM21.34 40.36H19.48V38.848H21.34V40.36ZM18.832 38.236V40.96H22.012V38.236H18.832ZM15.808 35.02C15.664 34.528 15.376 33.748 15.172 33.148L14.368 33.364C14.56 33.976 14.836 34.792 14.968 35.296L15.808 35.02ZM16.24 38.488L16.108 38.524H15.208C15.556 37.708 15.94 36.712 16.252 35.86H13.552V36.664H15.148C14.812 37.588 14.416 38.596 14.08 39.304H15.64C15.388 40.18 15.028 41.152 14.632 41.824C14.26 42.064 13.84 42.556 13.42 43.156L14.02 43.972C14.38 43.204 14.788 42.46 15.064 42.46C15.328 42.46 15.772 42.868 16.252 43.156C17.128 43.684 18.172 43.816 19.732 43.816C21.148 43.816 23.392 43.744 24.28 43.684C24.292 43.42 24.448 43 24.544 42.76C23.224 42.904 21.292 43.012 19.756 43.012C18.352 43.012 17.272 42.928 16.432 42.412C16 42.148 15.736 41.92 15.484 41.788C15.952 40.912 16.372 39.748 16.66 38.668L16.24 38.488ZM36.644 38.824V37.948H32.444V35.86H37.256V34.984H32.444V32.956H31.52V34.984H26.792V35.86H31.52V37.948H27.404V38.824H30.992C29.924 40.324 28.136 41.764 26.48 42.484C26.684 42.664 26.972 43.024 27.128 43.24C28.688 42.448 30.368 41.008 31.52 39.424V43.912H32.444V39.364C33.608 40.936 35.312 42.424 36.884 43.228C37.04 42.976 37.34 42.628 37.544 42.448C35.912 41.74 34.112 40.3 33.008 38.824H36.644ZM50.376 38.872V37.984H45.456V35.716H49.488V34.84H45.456V32.956H44.532V34.84H40.608V35.716H44.532V37.984H39.672V38.872H43.452C42.684 40.228 41.688 41.512 41.352 41.86C41.004 42.28 40.728 42.568 40.476 42.628C40.596 42.856 40.728 43.312 40.776 43.504C41.244 43.324 41.904 43.276 48.396 42.76C48.636 43.144 48.828 43.492 48.984 43.804L49.836 43.336C49.284 42.292 48.12 40.708 47.04 39.532L46.26 39.892C46.8 40.516 47.376 41.26 47.88 41.98L41.952 42.4C42.852 41.416 43.764 40.168 44.568 38.872H50.376ZM54.724 34.924V39.928H53.62V34.924H54.724ZM55.432 40.756V34.108H52.924V41.932H53.62V40.756H55.432ZM57.568 39.22C57.664 38.476 57.688 37.756 57.688 37.12H58.696C58.684 37.924 58.684 38.62 58.672 39.22H57.568ZM57.688 34.324H58.708L58.696 36.352H57.688V34.324ZM59.452 33.544H55.888V34.324H56.944V36.352H55.876V37.12H56.944C56.944 37.768 56.92 38.488 56.836 39.22H55.864V40H56.716C56.5 41.2 56.056 42.412 55.204 43.396C55.36 43.504 55.648 43.792 55.744 43.948C56.716 42.832 57.22 41.392 57.46 40H58.66C58.624 41.86 58.552 42.664 58.444 42.892C58.348 43.084 58.264 43.12 58.108 43.108C57.916 43.108 57.532 43.108 57.112 43.084C57.244 43.312 57.316 43.648 57.316 43.888C57.748 43.912 58.144 43.912 58.444 43.864C58.744 43.828 58.948 43.732 59.116 43.408C59.428 42.892 59.428 40.768 59.452 34V33.544ZM62.812 33.508L62.704 33.544H60.208V43.924H60.964V34.3H62.416C62.188 35.236 61.828 36.592 61.492 37.624C62.308 38.704 62.476 39.628 62.476 40.372C62.476 40.804 62.428 41.212 62.26 41.344C62.164 41.428 62.044 41.464 61.912 41.464C61.744 41.476 61.54 41.476 61.312 41.452C61.444 41.68 61.492 42.004 61.504 42.22C61.744 42.244 61.996 42.232 62.212 42.208C62.428 42.172 62.644 42.112 62.8 41.98C63.112 41.74 63.232 41.176 63.232 40.48C63.232 39.628 63.04 38.668 62.224 37.54C62.596 36.448 63.028 34.972 63.364 33.844L62.812 33.508ZM75.824 33.796H70.196V34.648H75.824V33.796ZM69.752 40.528C69.176 40.672 68.6 40.828 68.036 40.972V38.2H69.404V37.36H68.036V34.72H69.596V33.892H65.612V34.72H67.172V37.36H65.768V38.2H67.172V41.188C66.512 41.356 65.924 41.512 65.444 41.632L65.648 42.484C66.8 42.172 68.36 41.728 69.86 41.308L69.752 40.528ZM74.672 43C74.42 43 74.372 42.952 74.372 42.616V38.104H76.46V37.24H69.668V38.104H71.276C71.156 40.768 70.82 42.4 68.396 43.276C68.588 43.42 68.828 43.744 68.912 43.948C71.54 42.94 71.996 41.068 72.14 38.104H73.496V42.628C73.496 43.564 73.712 43.84 74.552 43.84H75.584C76.328 43.84 76.556 43.396 76.628 41.74C76.388 41.68 76.016 41.536 75.836 41.368C75.8 42.772 75.752 43 75.5 43H74.672Z" fill="#39393E"/>
<path d="M36.776 47.968H35.704C35.608 47.728 35.472 47.456 35.36 47.24L34.472 47.48C34.536 47.624 34.608 47.8 34.672 47.968H33.424V48.744H36.776V47.968ZM34.824 49.64C34.784 49.416 34.68 49.064 34.576 48.8L33.832 48.96C33.928 49.224 34.032 49.592 34.056 49.824L34.824 49.64ZM33.888 52.184C33.744 52.712 33.504 53.296 33.256 53.696C33.432 53.8 33.752 54 33.904 54.12C34.168 53.696 34.472 52.992 34.656 52.384L33.888 52.184ZM36.816 51.976V51.184H35.672V50.632H36.944V49.832H36.24C36.336 49.56 36.44 49.248 36.552 48.928L35.696 48.76C35.648 49.08 35.536 49.504 35.44 49.832H33.28V50.632H34.808V51.184H33.36V51.976H34.808V54.64H35.672V51.976H36.816ZM37 53.2C36.872 52.912 36.616 52.456 36.392 52.12L35.8 52.44C36.008 52.792 36.264 53.272 36.376 53.576L37 53.2ZM37.968 50.848H39.472V51.344H37.968V50.848ZM37.968 49.608H39.472V50.104H37.968V49.608ZM37.968 48.376H39.472V48.872H37.968V48.376ZM39.728 53.752C39.64 53.752 39.624 53.728 39.624 53.52V52.168H40.368V47.544H37.12V52.168H37.528C37.456 53.04 37.24 53.64 36.224 54.008C36.408 54.16 36.64 54.496 36.736 54.712C37.992 54.2 38.296 53.36 38.4 52.168H38.76V53.528C38.76 54.296 38.904 54.56 39.576 54.56H40.04C40.568 54.56 40.792 54.272 40.864 53.136C40.624 53.072 40.256 52.936 40.096 52.792C40.08 53.648 40.056 53.752 39.936 53.752H39.728ZM49.64 50.68H46.536V50.072C47.456 49.576 48.416 48.856 49.096 48.184L48.376 47.632L48.152 47.68H43.168V48.624H47.088C46.624 48.968 46.048 49.328 45.544 49.568V50.68H42.376V51.632H45.544V53.536C45.544 53.672 45.488 53.712 45.312 53.72C45.144 53.728 44.52 53.728 43.96 53.696C44.12 53.968 44.312 54.4 44.368 54.68C45.104 54.688 45.648 54.664 46.04 54.512C46.416 54.36 46.536 54.096 46.536 53.56V51.632H49.64V50.68ZM53.848 50C53.848 50.832 53.776 52.024 53.096 52.808C53.264 52.928 53.528 53.192 53.648 53.36C54.4 52.552 54.584 51.36 54.616 50.4H55.072C55.04 51.936 55 52.488 54.904 52.632C54.848 52.712 54.792 52.736 54.704 52.736C54.6 52.736 54.44 52.736 54.232 52.712C54.352 52.92 54.424 53.24 54.44 53.472C54.72 53.472 54.976 53.472 55.144 53.44C55.344 53.408 55.48 53.336 55.6 53.144C55.784 52.896 55.832 52.104 55.88 49.952V49.624H54.624V49.04H55.712C55.864 49.152 56.104 49.336 56.256 49.472V49.976H57.352C57.224 50.12 57.08 50.256 56.944 50.368V50.864H56.048V51.616H56.944V52.552C56.944 52.624 56.92 52.648 56.824 52.648C56.736 52.648 56.44 52.648 56.144 52.64C56.264 52.864 56.384 53.192 56.408 53.424C56.864 53.424 57.2 53.416 57.44 53.288C57.704 53.16 57.752 52.936 57.752 52.56V51.616H58.68V50.864H57.752V50.552C58.072 50.272 58.384 49.936 58.64 49.624L58.136 49.232L57.984 49.28H56.48C56.568 49.128 56.656 48.976 56.744 48.8H58.632V48.016H57.088C57.16 47.808 57.232 47.608 57.296 47.4L56.496 47.184C56.352 47.72 56.136 48.264 55.872 48.704V48.256H55.136C55.064 47.976 54.944 47.6 54.824 47.304L53.968 47.456C54.056 47.696 54.144 48 54.208 48.256H53.192V49.04H53.848V50ZM52.84 48.6C52.728 48.24 52.56 47.696 52.424 47.264L51.696 47.48C51.816 47.912 51.992 48.496 52.08 48.856L52.84 48.6ZM52.888 50.824L52.768 50.848H52.48C52.64 50.288 52.808 49.648 52.952 49.088H51.32V49.936H51.952C51.8 50.56 51.616 51.2 51.456 51.672H52.336C52.24 52.168 52.104 52.688 51.944 53.08C51.704 53.232 51.424 53.512 51.152 53.872L51.76 54.752C51.904 54.304 52.128 53.76 52.28 53.76C52.456 53.76 52.736 54.024 53.08 54.216C53.672 54.544 54.36 54.624 55.432 54.624C56.376 54.624 57.832 54.568 58.48 54.536C58.496 54.288 58.648 53.84 58.752 53.608C57.856 53.72 56.424 53.808 55.472 53.808C54.528 53.808 53.76 53.752 53.208 53.432C52.984 53.304 52.824 53.184 52.688 53.104C52.936 52.48 53.136 51.696 53.256 50.952L52.888 50.824ZM64.384 52.584H65.36V53.336H64.384V52.584ZM65.36 50.184H64.384V49.472H65.36V50.184ZM65.36 51.744H64.384V51.024H65.36V51.744ZM67.704 53.336H66.248V52.584H67.424V51.744H66.248V51.024H67.44V50.184H66.248V49.472H67.528V48.6H66.008L66.488 48.392C66.384 48.088 66.16 47.624 65.944 47.296L65.12 47.616C65.296 47.92 65.472 48.296 65.576 48.6H64.488C64.64 48.24 64.784 47.88 64.912 47.512L64.016 47.272C63.656 48.448 63.008 49.608 62.28 50.328C62.376 50.408 62.496 50.528 62.616 50.648L62.096 50.784V49.576H62.888V48.704H62.096V47.232H61.176V48.704H60.288V49.576H61.176V51.032C60.808 51.128 60.472 51.208 60.192 51.272L60.408 52.176L61.176 51.968V53.6C61.176 53.712 61.136 53.736 61.04 53.736C60.944 53.744 60.664 53.744 60.384 53.736C60.504 54.008 60.616 54.408 60.64 54.664C61.16 54.664 61.512 54.632 61.76 54.472C62.016 54.312 62.096 54.064 62.096 53.608V51.696C62.36 51.624 62.624 51.544 62.872 51.464L62.784 50.832C62.848 50.912 62.912 50.984 62.96 51.04C63.136 50.848 63.304 50.632 63.472 50.4V54.704H64.384V54.208H67.704V53.336ZM70.92 48.76H71.832V48.352H72.792V47.64H71.832V47.232H70.92V47.64H69.408V48.352H70.92V48.76ZM71.136 54.664C71.36 54.36 71.536 53.904 71.664 53.536L71 53.24C70.888 53.576 70.68 54.016 70.464 54.288L71.136 54.664ZM71.856 53.488C71.928 53.84 71.984 54.296 71.976 54.592L72.712 54.48C72.712 54.184 72.648 53.736 72.552 53.392L71.856 53.488ZM72.872 53.448C73.016 53.76 73.152 54.176 73.2 54.456L73.896 54.224C73.84 53.96 73.696 53.552 73.528 53.256L72.872 53.448ZM73.424 49.928H72.496V49.6H73.424V49.928ZM75.224 50.456V50.8H74.232V50.456H75.224ZM72.496 50.456H73.424V50.8H72.496V50.456ZM70.752 50.72V50.456H71.696V50.8H70.752V50.72ZM71.696 49.6V49.928H70.752V49.6H71.696ZM72.384 48.656C72.448 48.752 72.504 48.856 72.56 48.968H69.864V50.72C69.864 51.728 69.808 53.16 69.176 54.152C69.392 54.24 69.784 54.48 69.952 54.624C70.52 53.72 70.696 52.408 70.744 51.328H71.104V53.144H74.36L73.88 53.344C74.056 53.568 74.256 53.88 74.344 54.088L74.976 53.792C74.888 53.608 74.704 53.344 74.52 53.144H75.504C75.456 53.64 75.392 53.872 75.32 53.952C75.264 54.008 75.208 54.016 75.104 54.016C75.008 54.016 74.8 54.016 74.56 53.992C74.672 54.184 74.744 54.472 74.76 54.68C75.08 54.696 75.384 54.688 75.552 54.664C75.752 54.648 75.92 54.592 76.056 54.44C76.232 54.256 76.328 53.8 76.4 52.824C76.416 52.72 76.424 52.528 76.424 52.528H71.936V52.224H76.264V51.624H71.936V51.328H76.152V49.928H74.232V49.6H76.488V48.968H73.416C73.336 48.792 73.216 48.584 73.096 48.432L72.384 48.656ZM75.056 47.64V47.232H74.144V47.64H73.136V48.344H74.144V48.76H75.056V48.344H76.576V47.64H75.056Z" fill="#8E8E93"/>
<path d="M16.3927 12.3118C16.3927 12.3118 16.1511 12.6661 16.1831 12.6909C16.2151 12.7157 16.3679 12.5846 16.3679 12.5846" stroke="white" stroke-width="0.18" stroke-linecap="round" stroke-linejoin="round"/>
<path d="M12.4525 19.8342C12.2044 19.8945 11.9863 20.0416 11.8378 20.2488C11.5251 20.6279 11.6566 20.7059 11.8378 20.6031C12.019 20.5004 12.019 20.1992 12.655 20.1248C12.7936 20.1177 12.4525 19.8342 12.4525 19.8342Z" fill="#E9946F"/>
<path d="M19.6333 19.8237C19.6822 20.1133 19.7486 20.3996 19.8323 20.6812C19.8587 20.7818 19.9175 20.8709 19.9997 20.9349C20.0819 20.9989 20.1828 21.0343 20.2871 21.0355C20.4896 21.0355 19.9637 20.8017 19.9602 20.5253C19.9566 20.2489 20.2196 19.7776 19.6333 19.8237Z" fill="#E9946F"/>
<path d="M12.3354 19.8202C12.7703 19.6464 13.1624 19.381 13.4849 19.0422C13.8075 18.7035 14.0529 18.2992 14.2044 17.8572C14.6308 16.4399 15.2454 14.2891 15.2454 14.2891L15.885 15.3521C15.885 15.3521 16.1159 15.2174 14.9043 18.1867C14.6898 18.7113 14.3463 19.1736 13.9054 19.531C13.4645 19.8883 12.9405 20.1291 12.3816 20.2312L12.3354 19.8202Z" fill="#EF9A9B"/>
<path d="M18.8339 28.5862C18.9368 28.7166 19.0227 28.8595 19.0897 29.0114C18.771 29.2512 18.4092 29.428 18.0238 29.5322C17.9243 29.4862 18.6705 29.0362 18.6385 28.9476C18.61 28.8794 18.573 28.8151 18.5283 28.7563L18.8339 28.5862Z" fill="#42394A"/>
<path d="M15.4691 28.9653C15.5076 29.1267 15.5266 29.292 15.526 29.4579C15.1352 29.5463 14.731 29.5583 14.3357 29.4933C14.2646 29.4118 15.1316 29.309 15.1387 29.2134C15.1396 29.1396 15.1325 29.0659 15.1174 28.9937L15.4691 28.9653Z" fill="#42394A"/>
<path d="M17.1992 13.9593C17.1992 13.9593 19.8143 15.5326 19.9884 19.9511L19.6828 20.0574C19.53 20.1672 19.5194 17.4141 17.3769 15.5326C16.6307 14.8806 16.7906 13.9381 17.1992 13.9593Z" fill="#EF9A9B"/>
<path d="M14.8794 19.6997C14.8794 19.6997 13.7246 22.4954 13.8135 24.3485C13.8632 25.4718 14.8794 28.9973 14.8794 28.9973L15.59 28.9442C15.59 28.9442 14.62 25.5462 14.6982 24.1962C14.755 23.2253 16.2367 20.4261 16.2367 20.4261C16.2367 20.4261 15.7748 23.8277 16.3753 25.1351C16.8087 26.0777 18.4609 28.7847 18.4609 28.7847L18.8731 28.5544C18.8731 28.5544 17.1498 25.2344 17.1854 24.3485C17.2209 23.4627 17.6935 19.8202 17.6935 19.8202C17.6935 19.8202 15.1175 19.7458 14.8794 19.6997Z" fill="#439B95"/>
<path d="M14.8795 19.6996C14.8795 19.6996 15.5901 20.2417 17.7219 19.8201C17.7219 19.8201 18.1412 14.1508 17.093 13.9028C16.0449 13.6547 15.7429 13.6689 15.1744 14.289C14.7871 14.7106 14.5455 16.415 14.8937 16.4539C15.2419 16.4929 15.4053 16.4539 15.4515 16.7693C15.4977 17.0846 14.8795 19.6996 14.8795 19.6996Z" fill="#EF9A9B"/>
<path d="M17.8069 10.9901C17.8069 10.9901 18.0414 12.0531 17.8069 12.5846C17.5724 13.1161 16.8796 12.1736 16.9329 13.924C16.9329 13.924 16.3324 14.3846 16.2436 13.5945C16.1192 12.5173 16.4354 10.1362 17.8069 10.9901Z" fill="#E9946F"/>
<path d="M14.6588 15.9509C14.6588 15.9509 16.1546 15.3733 16.3963 14.2218C16.6379 13.0702 16.5668 12.5883 17.4906 11.5926C18.7413 10.2391 16.549 10.682 16.2008 10.7883C15.8526 10.8946 16.0196 12.0568 15.6679 12.3473C15.3161 12.6379 14.5486 12.5883 14.5344 13.3395C14.5202 14.0907 14.9182 14.8879 14.474 15.1111C14.0299 15.3344 14.0725 16.1387 14.6588 15.9509Z" fill="#42394A"/>
<path d="M17.857 11.3765C17.8745 11.6881 17.948 11.9941 18.0737 12.28C18.1661 12.4324 17.7184 12.28 17.7184 12.28C17.6745 11.9718 17.7227 11.6575 17.857 11.3765V11.3765Z" fill="#E9946F"/>
<path d="M20.344 20.954C20.344 20.954 20.4968 22.8284 21.0547 22.7044C21.6125 22.5804 21.9678 20.1072 22.7673 19.7351L23.0231 20.4934C23.0231 20.4934 22.4439 20.7131 22.3373 21.1347C22.2307 21.5564 21.8221 23.1473 20.9161 23.2288C20.01 23.3103 20.2055 21.2056 19.9994 20.8229C19.6334 20.1461 20.2126 20.139 20.344 20.954Z" fill="#E9946F"/>
<path d="M21.6655 21.6412C21.6655 21.6412 22.0208 22.1125 22.0955 22.0416C22.4466 21.5564 22.7489 21.0377 22.9979 20.4932C22.9979 20.3161 22.9766 19.5613 22.8842 19.618C22.7919 19.6747 22.2234 19.7739 21.6655 21.6412Z" fill="#FFE0BC"/>
<path d="M24.3198 19.6997C24.3198 19.6997 24.9167 19.9548 25.2436 20.9505C25.5705 21.9462 25.7482 23.4308 26.2278 23.8631C26.4344 24.0136 26.6827 24.0966 26.9385 24.1005C26.9385 24.1005 26.0502 24.5328 25.5528 23.3351C25.1513 22.3749 24.6645 21.0143 24.3944 20.9151L24.3198 19.6997Z" fill="#E9946F"/>
<path d="M24.9629 22.0417C24.9629 22.0417 25.5811 21.8539 25.5882 21.7405C25.5953 21.6271 25.137 19.9688 24.2914 19.6145C24.2241 19.9152 24.1825 20.221 24.167 20.5287C24.167 20.8511 24.7959 21.5598 24.9629 22.0417Z" fill="#FFE0BC"/>
<path d="M22.2698 23.6646C22.2698 23.6646 21.9358 25.4788 21.8399 26.2264C21.7439 26.9741 22.1952 27.9237 22.3942 29.0859C22.483 29.5855 22.483 29.2985 22.5007 29.2524C22.5789 29.054 22.6997 29.1851 22.6784 29.054C22.6571 28.9229 22.4155 27.0556 22.5221 26.5737C22.6962 25.7729 23.1296 24.0934 23.1296 24.0934C23.1296 24.0934 23.6555 25.9749 23.7585 26.7012C23.8012 27.013 25.2757 28.6465 25.1798 28.8272C25.0839 29.0079 24.8245 28.9689 24.9844 28.976C25.1443 28.9831 25.4569 28.8981 25.4711 28.7847C25.4854 28.6713 24.3128 26.7402 24.3199 26.2583C24.3448 24.5575 24.1991 22.5449 24.3199 21.5741C24.4407 20.6032 23.3961 20.3552 22.9982 20.4934C22.6002 20.6315 23.3037 20.9823 22.2698 23.6646Z" fill="#E9946F"/>
<path d="M25.3359 28.4055C25.4218 28.5262 25.4923 28.6571 25.5455 28.7953C25.2841 29.0085 24.9819 29.1665 24.6573 29.2595C24.572 29.2134 25.1689 28.8024 25.144 28.7173C25.1201 28.6567 25.0904 28.5986 25.0552 28.5437L25.3359 28.4055Z" fill="#42394A"/>
<path d="M21.4561 25.4504C21.4561 25.4504 24.5686 25.7409 24.7142 25.3086C24.7711 25.1421 24.8493 19.937 24.2523 19.5897C23.7265 19.2815 22.8666 19.5366 22.7423 19.735C22.4758 20.1815 21.5307 24.3945 21.4561 25.4504Z" fill="#42394A"/>
<path d="M22.0103 27.5302L22.5183 27.47C22.5183 27.47 22.6534 28.8235 22.6782 29.0538L22.3727 28.9759C22.3727 28.9759 22.1666 28.1574 22.0103 27.5302Z" fill="#FFE0BC"/>
<path d="M24.0996 27.2398C24.2641 27.1609 24.4339 27.0934 24.6077 27.0378C24.6077 27.0626 25.3539 28.4056 25.3539 28.4056L25.0732 28.5438L24.0996 27.2398Z" fill="#FFE0BC"/>
<path d="M23.9646 19.572C23.9646 19.572 24.0783 20.5677 23.6733 20.6953C23.4245 20.7732 23.0266 20.8264 22.9982 20.4933C22.9895 20.1482 23.0729 19.8071 23.2398 19.5047C23.3144 19.4764 23.8367 19.0831 23.9646 19.572Z" fill="#FFE0BC"/>
<path d="M22.6712 28.9832C22.6712 28.9832 22.7529 29.2914 22.7103 29.3375C22.6677 29.3836 21.8576 29.4403 21.822 29.3375C21.7865 29.2347 22.3159 29.2631 22.3514 29.1816C22.37 29.1099 22.3772 29.0358 22.3728 28.9619L22.6712 28.9832Z" fill="#42394A"/>
<path d="M23.3287 18.6649C23.3976 18.9813 23.3469 19.3118 23.1866 19.5933C23.0764 19.82 23.9292 19.6819 23.9611 19.572C23.8917 19.2211 23.8917 18.86 23.9611 18.509C23.8507 18.4879 23.737 18.4909 23.6278 18.5178C23.5186 18.5447 23.4166 18.5949 23.3287 18.6649V18.6649Z" fill="#E9946F"/>
<path d="M24.3874 17.2193C24.3874 17.2193 24.8066 16.6134 25.1904 17.0103C25.5741 17.4071 25.3289 18.5941 25.3822 18.8847C25.4355 19.1752 25.9365 19.2638 25.7375 19.3099C25.5386 19.3559 23.993 19.6536 24.3874 17.2193Z" fill="#963820"/>
<path d="M23.0409 17.2192C23.0409 17.2192 22.6643 16.6913 22.2841 17.0846C21.9039 17.4779 22.0994 18.594 22.0461 18.8846C21.9928 19.1751 21.7547 19.2389 21.9572 19.2885C22.1598 19.3381 23.1866 19.5011 23.0409 17.2192Z" fill="#963820"/>
<path d="M22.9909 17.2441C22.9909 17.2441 22.5965 18.7465 23.3284 18.9237C23.8685 19.0548 24.2735 18.0378 24.1385 17.354C24.0035 16.6701 23.0157 16.8933 22.9909 17.2441Z" fill="#E9946F"/>
<path d="M22.7527 17.4887C22.7527 17.4887 22.8913 17.021 23.0725 16.9111C23.2663 16.7907 23.4985 16.7477 23.7227 16.7907C23.8842 16.8198 24.036 16.888 24.1649 16.9893C24.2938 17.0906 24.3957 17.222 24.4617 17.3718C24.5897 17.7261 24.3694 17.7899 24.4617 17.9245C24.5541 18.0592 24.5683 17.9245 24.5044 18.1655C24.4404 18.4064 23.8968 18.7324 23.9323 18.5907C23.9679 18.4489 24.0283 17.882 23.9003 17.7686C23.7724 17.6552 22.6141 18.0202 22.7527 17.4887Z" fill="#963820"/>
<path d="M23.9147 18.0768C23.8922 18.0984 23.8753 18.1252 23.8656 18.1548C23.8558 18.1844 23.8534 18.216 23.8587 18.2467C23.8639 18.2775 23.8766 18.3064 23.8957 18.3312C23.9148 18.3559 23.9396 18.3756 23.968 18.3886C24.2523 18.5445 24.3375 17.7153 23.9147 18.0768Z" fill="#E9946F"/>
<path d="M22.8846 17.1235C22.8044 17.2953 22.7562 17.4802 22.7424 17.6692C22.7638 17.8428 22.4262 17.3078 22.8846 17.1235Z" fill="#EF9A9B"/>
<path d="M24.3872 17.2192C24.4875 17.3935 24.5448 17.589 24.5542 17.7897C24.5116 17.9775 24.8136 17.361 24.3872 17.2192Z" fill="#EF9A9B"/>
<path d="M23.0303 17.9351C22.9271 18.0395 22.807 18.1257 22.675 18.1902C22.5507 18.2292 22.8775 18.2504 22.9237 18.3071C22.9699 18.3638 23.2293 18.0555 23.0303 17.9351Z" fill="#E9946F"/>
<path d="M10.9993 11.837C10.9993 11.837 11.2444 7.53187 10.6653 7.1173C10.0861 6.70273 8.24562 6.9614 8.09995 7.43266C7.95427 7.90392 7.80859 11.3799 7.80859 11.3799C7.80859 11.3799 10.8003 11.8937 10.9993 11.837Z" fill="#C12B28"/>
<path d="M8.28827 7.93937C8.28827 7.93937 5.98586 7.82598 5.60568 6.32008C5.22549 4.81417 7.26853 3 7.8086 3C8.06797 3 7.47461 3.2126 7.16549 3.64843C6.85637 4.08425 5.77623 5.8063 6.84215 6.42638C7.39451 6.76028 8.01034 6.97625 8.65068 7.06063L8.28827 7.93937Z" fill="#E9946F"/>
<path d="M10.779 8.04569C10.779 8.04569 13.0814 7.93231 13.4616 6.42994C13.8418 4.92758 11.8165 3.10632 11.2587 3.10632C10.9993 3.10632 11.5927 3.31892 11.9018 3.75475C12.2109 4.19058 13.2946 5.91262 12.218 6.53624C11.6604 6.87003 11.04 7.08592 10.3953 7.1705L10.779 8.04569Z" fill="#E9946F"/>
<path d="M10.3099 12.5669C10.3099 12.5669 14.5985 14.0232 13.6853 15.8941C13.0244 17.237 9.951 15.1854 9.86572 14.9374C9.88624 14.7888 9.92937 14.6442 9.99363 14.5086C9.99363 14.5086 12.6052 16.0039 12.8823 15.522C13.2376 14.9126 10.1358 13.6299 10.1358 13.6299L10.3099 12.5669Z" fill="#F7B119"/>
<path d="M7.59909 12.5669C7.59909 12.5669 2.87346 14.3067 4.25207 16.2059C4.96269 17.1626 6.68594 15.4299 6.77121 15.1819C6.79609 15.1074 6.59001 15.0153 6.59001 15.0153C6.59001 15.0153 4.98401 16.2697 4.84899 15.724C4.58961 14.6858 7.77674 13.598 7.77674 13.598L7.59909 12.5669Z" fill="#F7B119"/>
<path d="M7.36084 12.1275C7.4489 11.8466 7.6023 11.5905 7.80853 11.3799C8.03593 11.1957 11.1698 11.5216 11.0063 11.837C10.9068 12.0283 10.3774 13.109 10.3774 13.109C10.3774 13.109 7.49586 12.7901 7.36084 12.1275Z" fill="#FFE0BC"/>
<path d="M12.527 28.7847C12.527 28.7847 12.8325 29.0965 12.8397 29.1709C12.557 29.4533 12.223 29.6794 11.8554 29.837C11.7524 29.8051 12.4275 29.2559 12.3813 29.1709C12.342 29.1079 12.2955 29.0496 12.2427 28.9973L12.527 28.7847Z" fill="#42394A"/>
<path d="M6.26276 29.3586C6.28148 29.5637 6.28148 29.7701 6.26276 29.9752C5.86181 30.0217 5.45567 29.9929 5.06537 29.8901C5.00141 29.798 5.87192 29.7838 5.89324 29.6917C5.9016 29.6175 5.9016 29.5427 5.89324 29.4685L6.26276 29.3586Z" fill="#42394A"/>
<path d="M8.45551 8.90308C8.32248 8.95622 8.20496 9.04181 8.1137 9.15201C8.02245 9.2622 7.96039 9.39347 7.93321 9.53378C7.81595 10.0334 8.37024 10.4692 8.45551 10.3842C8.54078 10.2991 8.45551 8.90308 8.45551 8.90308Z" fill="#963820"/>
<path d="M8.38086 13.5448C8.38086 13.5448 8.40928 10.7102 8.42705 10.3559C8.44482 10.0015 9.30111 10.1504 9.40771 10.3559C9.5143 10.5614 9.52496 13.5448 9.52496 13.5448H8.38086Z" fill="#E9946F"/>
<path d="M9.76277 8.49927C9.76277 8.49927 9.99727 11.2772 9.76277 11.3339C9.52826 11.3906 8.63644 11.1567 8.51563 10.7457C8.39483 10.3347 8.02175 8.86068 9.76277 8.49927Z" fill="#E9946F"/>
<path d="M8.61889 9.81383C8.61889 9.81383 8.61889 9.1654 9.1483 9.15832C9.56757 9.15832 10.2569 9.07328 10.1041 8.191C9.97617 7.46462 9.31885 8.49926 8.4661 8.89966C7.61336 9.30005 8.22449 10.4091 8.61889 9.81383Z" fill="#963820"/>
<path d="M9.5246 12.1842C9.5246 12.1842 8.782 13.2755 8.65054 13.0806C8.51756 12.7975 8.43118 12.4948 8.39472 12.1842C8.34852 11.9928 7.32878 12.7192 7.08717 14.1826C6.84556 15.646 7.2293 19.6535 7.2293 19.6535H11.1057C11.1057 19.6535 11.1981 14.2287 10.8677 13.4739C10.5372 12.7192 9.5246 12.1842 9.5246 12.1842Z" fill="#F7B119"/>
<path d="M7.22971 19.6536C7.22971 19.6536 5.47803 23.5725 5.47803 24.9402C5.47803 26.3079 5.74806 29.4685 5.74806 29.4685H6.32722C6.32722 29.4685 6.46224 25.5142 6.56528 24.561C6.7074 23.289 8.95296 20.5996 8.95296 20.5996C8.95296 20.5996 9.01691 24.7028 9.8661 25.9784C10.7153 27.254 12.1507 29.0433 12.1507 29.0433L12.6553 28.767C12.6553 28.767 10.7793 25.5071 10.7793 24.6567C10.7793 23.8063 11.1061 19.6536 11.1061 19.6536H7.22971Z" fill="#42394A"/>
<path d="M9.92617 12.0779C9.92617 12.0779 9.21555 12.5491 8.95262 13.9594C8.68969 15.3696 9.38255 16.1279 9.38255 16.1279L9.61705 15.9472C9.36974 15.3854 9.31189 14.7587 9.4522 14.1613C9.59252 13.5639 9.92341 13.028 10.3952 12.6342C10.3952 12.6342 10.5231 12.1558 9.92617 12.0779Z" fill="#E9946F"/>
<path d="M8.97412 13.421C9.32383 13.5391 9.67965 13.6385 10.0401 13.7186C10.1324 13.7186 10.4167 12.8788 10.8182 12.156C10.8182 12.156 9.84818 11.7308 9.68474 11.8017C9.5213 11.8725 9.21218 12.4891 8.97412 13.421Z" fill="#FFE0BC"/>
<path d="M7.90825 11.8086C7.31357 12.3227 6.9281 13.0361 6.82456 13.8141C6.76845 14.2598 6.80992 14.7124 6.94609 15.1406C7.08226 15.5688 7.30991 15.9624 7.61335 16.2944L7.84785 16.1137C7.48346 15.5735 7.30328 14.9306 7.334 14.2803C7.36472 13.6299 7.6047 13.0067 8.0184 12.5031C8.0184 12.5031 8.49096 11.8865 7.90825 11.8086Z" fill="#E9946F"/>
<path d="M7.0874 12.8717C7.38203 13.0298 7.68852 13.1649 8.0041 13.2757C8.09648 13.2757 8.14623 12.8505 8.39494 12.1879C8.39494 12.1879 7.95791 11.5359 7.79447 11.6174C7.63103 11.6989 7.2615 11.9824 7.0874 12.8717Z" fill="#FFE0BC"/>
<path d="M9.75586 6.92246C10.4298 6.93972 11.1037 6.88747 11.7669 6.76655C11.838 6.74884 12.0796 7.93939 12.0796 7.93939C11.6195 8.11548 11.1436 8.24719 10.6583 8.3327C10.4309 8.31498 9.75586 6.92246 9.75586 6.92246Z" fill="#C12B28"/>
<path d="M7.4179 6.69556C7.4179 6.69556 7.04838 7.60619 7.19761 7.93926C7.67575 8.09641 8.16205 8.22771 8.65438 8.33257L9.13049 6.9365C9.2513 7.01091 8.12852 6.82312 7.4179 6.69556Z" fill="#C12B28"/>
<path d="M9.13378 6.21731C9.13378 6.21731 9.15155 6.84094 9.13378 6.92597C9.11602 7.01101 9.59213 7.15629 9.86572 6.92597C9.80183 6.54995 9.76503 6.16984 9.75558 5.78857C9.75558 5.78857 9.20485 6.07558 9.13378 6.21731Z" fill="#E9946F"/>
<path d="M9.76299 9.14771C9.80812 9.44027 9.93078 9.7155 10.1183 9.94495C10.3741 10.1469 9.84472 10.0619 9.80563 10.1469C9.76655 10.232 9.43966 9.37802 9.76299 9.14771Z" fill="#E9946F"/>
<path d="M9.61739 15.9473C9.61739 15.9473 9.87677 16.1315 9.86966 16.1953C9.86255 16.2591 9.27984 16.8118 9.19457 16.7658C9.10929 16.7197 9.52856 16.4114 9.50369 16.3122C9.47329 16.2449 9.43253 16.1827 9.38288 16.128L9.61739 15.9473Z" fill="#42394A"/>
<path d="M7.8337 16.1101C7.8337 16.1101 8.09307 16.2944 8.08597 16.3581C8.07886 16.4219 7.49615 16.9747 7.41088 16.9286C7.3256 16.8825 7.74487 16.5743 7.72 16.4751C7.6896 16.4077 7.64884 16.3456 7.59919 16.2908L7.8337 16.1101Z" fill="#42394A"/>
<path d="M7.33261 14.7495C7.16475 14.767 6.99991 14.8063 6.84229 14.8664C6.97528 15.3932 7.23505 15.8797 7.5991 16.2838L7.8336 16.1031C7.58298 15.6872 7.41303 15.228 7.33261 14.7495V14.7495Z" fill="#FFE0BC"/>
<path d="M9.36152 14.6361C9.36152 14.6361 8.97779 14.5688 8.89606 14.6361C8.88442 15.174 9.05602 15.6999 9.38284 16.1279L9.61734 15.9471C9.44539 15.5315 9.35842 15.0858 9.36152 14.6361V14.6361Z" fill="#FFE0BC"/>
<path d="M9.65283 14.4662C9.65283 14.4662 9.06656 14.2997 8.83917 14.6469C8.75034 14.7851 9.51781 14.902 9.65283 14.7957C9.78784 14.6894 9.83759 14.5477 9.65283 14.4662Z" fill="#E67E69"/>
<path d="M6.58999 15.0154C6.58999 15.0154 7.12295 14.452 7.46405 14.693C7.59907 14.7851 6.84936 15.228 6.68592 15.1784C6.52248 15.1288 6.58999 15.0154 6.58999 15.0154Z" fill="#E67E69"/>
<path d="M8.8176 4.66537C8.8176 4.66537 8.53335 6.18899 9.27595 6.31655C9.82313 6.40868 10.1536 5.3634 9.98657 4.69372C9.81958 4.02403 8.8176 4.31458 8.8176 4.66537Z" fill="#E9946F"/>
<path d="M9.87652 5.33513C9.87652 5.33513 9.64556 5.62923 9.83743 5.79222C10.1714 6.07214 10.7257 5.12608 9.87652 5.33513Z" fill="#E9946F"/>
<path d="M8.71109 4.14459C8.69127 4.18354 8.67988 4.2262 8.67765 4.26981C8.67542 4.31343 8.68241 4.35703 8.69815 4.39778C8.71389 4.43854 8.73804 4.47554 8.76904 4.50639C8.80004 4.53724 8.83719 4.56125 8.87809 4.57687C9.31156 4.73632 9.55673 4.54498 9.73794 4.74341C9.91915 4.94183 9.81966 5.56546 9.92625 5.57609C10.0876 5.45656 10.2081 5.29049 10.2717 5.10037C10.3353 4.91024 10.3387 4.70523 10.2816 4.51309C10.1004 4.01703 9.21563 4.28632 9.19076 3.96034C9.16589 3.63435 8.76439 3.89656 8.71109 4.14459Z" fill="#42394A"/>
<path d="M8.79984 5.38111C8.79984 5.38111 8.55823 5.40237 8.53336 5.38111C8.50848 5.35985 8.77852 5.07993 8.78207 4.93111C8.78563 4.78229 9.24398 5.34213 8.79984 5.38111Z" fill="#E9946F"/>
<path d="M8.61853 9.65071C8.61853 9.65071 8.55458 10.1539 8.67893 10.285C8.80329 10.4161 9.8408 9.98024 9.90475 10.1645C9.96871 10.3487 10.1677 11.1424 9.75908 11.3338C9.35047 11.5251 8.43022 11.0928 8.45154 10.1928C8.47285 9.29283 8.55813 9.46646 8.61853 9.65071Z" fill="#963820"/>
<path d="M8.50879 10.2957C8.50879 10.2957 8.61894 9.64014 8.34535 9.73226C8.07176 9.82439 8.29561 10.7067 8.50879 10.2957Z" fill="#E9946F"/>
<path d="M27.5285 3.74416C27.5285 3.74416 28.5163 2.84416 29.5289 4.31109C30.1756 5.24653 30.0867 7.82605 30.3212 8.26188C30.5557 8.69771 32.0978 11.341 29.5857 12.1595C26.6615 13.095 25.052 11.3091 25.553 9.76779C26.054 8.22645 26.4697 8.2796 26.5585 7.41149C26.7397 5.55479 26.8818 4.03826 27.5285 3.74416Z" fill="#6AAF9F"/>
<path d="M28.1608 13.4456C28.1608 13.4456 28.0329 5.44122 28.2176 5.55815C28.4024 5.67508 28.3704 13.4456 28.3704 13.4456H28.1608Z" fill="#4F4558"/>
<path d="M28.2317 8.28661C28.2317 8.28661 26.8389 6.66731 26.9775 6.66731C27.116 6.66731 28.2317 8.08464 28.2317 8.08464L29.5002 6.58228C29.7738 6.68857 28.2317 8.28661 28.2317 8.28661Z" fill="#4F4558"/>
<path d="M28.2317 9.89537C28.2317 9.89537 26.8389 8.27962 26.9775 8.27962C27.116 8.27962 28.2317 9.69694 28.2317 9.69694L29.5002 8.19458C29.7738 8.31505 28.2317 9.89537 28.2317 9.89537Z" fill="#4F4558"/>
<path d="M28.2317 11.5961C28.2317 11.5961 26.8389 9.97677 26.9775 9.97677C27.116 9.97677 28.2317 11.3941 28.2317 11.3941L29.5002 9.88818C29.7738 9.99803 28.2317 11.5961 28.2317 11.5961Z" fill="#4F4558"/>
<path d="M22.4757 6.85874C22.4757 6.85874 23.3036 6.10047 24.1563 7.33708C24.6999 8.12015 24.6253 10.2887 24.8243 10.6536C25.0233 11.0186 26.3059 13.2438 24.206 13.917C21.7473 14.7036 20.3936 13.2083 20.8164 11.9079C21.2392 10.6076 21.5874 10.6536 21.662 9.92724C21.8255 8.38236 21.9392 7.10322 22.4757 6.85874Z" fill="#98D5CC"/>
<path d="M23.0015 15.0118C23.0015 15.0118 22.8914 8.27951 23.0477 8.38227C23.2041 8.48502 23.1863 15.0118 23.1863 15.0118H23.0015Z" fill="#4F4558"/>
<path d="M23.0728 10.6783C23.0728 10.6783 21.9039 9.31769 22.0069 9.31769C22.11 9.31769 23.0728 10.5118 23.0728 10.5118L24.1388 9.24683C24.3697 9.33187 23.0728 10.6783 23.0728 10.6783Z" fill="#4F4558"/>
<path d="M23.0728 12.0283C23.0728 12.0283 21.9039 10.6677 22.0069 10.6677C22.11 10.6677 23.0728 11.8653 23.0728 11.8653L24.1388 10.6003C24.3697 10.6854 23.0728 12.0283 23.0728 12.0283Z" fill="#4F4558"/>
<path d="M23.0728 13.4563C23.0728 13.4563 21.9039 12.0956 22.0069 12.0956C22.11 12.0956 23.0728 13.2933 23.0728 13.2933L24.1388 12.0283C24.3697 12.1134 23.0728 13.4563 23.0728 13.4563Z" fill="#4F4558"/>
</svg>
