<svg width="82" height="45" viewBox="0 0 82 45" fill="none" xmlns="http://www.w3.org/2000/svg">
<g clip-path="url(#clip0)">
<rect width="82" height="45" rx="5" fill="white"/>
<path d="M42.074 29.862V30.457H40.954V29.862H42.074ZM43.789 30.457H42.522V29.862H43.789V30.457ZM42.522 31.472V30.835H43.789V31.472H42.522ZM40.954 31.234V30.835H42.074V31.472H40.954V31.234ZM43.789 31.85V33.964C43.789 34.055 43.754 34.09 43.656 34.09C43.565 34.097 43.243 34.104 42.893 34.09C42.956 34.216 43.026 34.405 43.047 34.538C43.544 34.538 43.845 34.531 44.027 34.447C44.209 34.37 44.272 34.237 44.272 33.964V29.428H40.471V31.234C40.471 32.109 40.436 33.341 40.037 34.223C40.156 34.272 40.366 34.398 40.457 34.475C40.8 33.726 40.912 32.711 40.947 31.85H43.789ZM41.745 33.439V32.662H42.858V33.439H41.745ZM43.25 32.291H41.367V34.048H41.745V33.817H43.25V32.291ZM39.827 30.24C39.645 29.953 39.281 29.512 38.98 29.169L38.588 29.386C38.882 29.729 39.246 30.212 39.414 30.499L39.827 30.24ZM39.729 32.466L39.638 32.48H38.987C39.351 32.011 39.834 31.276 40.1 30.87L39.75 30.723L39.666 30.758H38.357V31.185H39.372C39.106 31.612 38.728 32.172 38.588 32.333C38.476 32.459 38.364 32.508 38.259 32.536C38.315 32.641 38.42 32.879 38.455 33.005C38.504 32.949 38.686 32.907 38.854 32.907H39.463C39.26 33.985 38.826 34.762 38.231 35.196C38.329 35.266 38.504 35.441 38.581 35.553C38.91 35.294 39.19 34.944 39.421 34.482C39.974 35.287 40.856 35.434 42.298 35.434C43.068 35.434 43.943 35.413 44.601 35.378C44.629 35.231 44.692 34.993 44.776 34.874C44.055 34.937 43.04 34.972 42.298 34.972C40.961 34.972 40.065 34.86 39.617 34.055C39.778 33.628 39.904 33.131 39.981 32.564L39.729 32.466ZM52.209 32.564V32.053H49.759V30.835H52.566V30.324H49.759V29.141H49.22V30.324H46.462V30.835H49.22V32.053H46.819V32.564H48.912C48.289 33.439 47.246 34.279 46.28 34.699C46.399 34.804 46.567 35.014 46.658 35.14C47.568 34.678 48.548 33.838 49.22 32.914V35.532H49.759V32.879C50.438 33.796 51.432 34.664 52.349 35.133C52.44 34.986 52.615 34.783 52.734 34.678C51.782 34.265 50.732 33.425 50.088 32.564H52.209ZM60.636 32.592V32.074H57.766V30.751H60.118V30.24H57.766V29.141H57.227V30.24H54.938V30.751H57.227V32.074H54.392V32.592H56.597C56.149 33.383 55.568 34.132 55.372 34.335C55.169 34.58 55.008 34.748 54.861 34.783C54.931 34.916 55.008 35.182 55.036 35.294C55.309 35.189 55.694 35.161 59.481 34.86C59.621 35.084 59.733 35.287 59.824 35.469L60.321 35.196C59.999 34.587 59.32 33.663 58.69 32.977L58.235 33.187C58.55 33.551 58.886 33.985 59.18 34.405L55.722 34.65C56.247 34.076 56.779 33.348 57.248 32.592H60.636ZM63.589 30.289V33.208H62.945V30.289H63.589ZM64.002 33.691V29.813H62.539V34.377H62.945V33.691H64.002ZM65.248 32.795C65.304 32.361 65.318 31.941 65.318 31.57H65.906C65.899 32.039 65.899 32.445 65.892 32.795H65.248ZM65.318 29.939H65.913L65.906 31.122H65.318V29.939ZM66.347 29.484H64.268V29.939H64.884V31.122H64.261V31.57H64.884C64.884 31.948 64.87 32.368 64.821 32.795H64.254V33.25H64.751C64.625 33.95 64.366 34.657 63.869 35.231C63.96 35.294 64.128 35.469 64.184 35.553C64.751 34.902 65.045 34.069 65.185 33.25H65.885C65.864 34.335 65.822 34.804 65.752 34.93C65.703 35.049 65.654 35.07 65.563 35.063C65.444 35.063 65.227 35.063 64.982 35.049C65.052 35.182 65.094 35.378 65.101 35.518C65.353 35.532 65.584 35.532 65.752 35.504C65.934 35.483 66.053 35.427 66.151 35.238C66.333 34.93 66.333 33.698 66.347 29.75V29.484ZM68.307 29.463L68.244 29.484H66.788V35.539H67.229V29.925H68.076C67.943 30.471 67.733 31.262 67.537 31.864C68.013 32.494 68.111 33.033 68.111 33.467C68.111 33.719 68.083 33.95 67.985 34.034C67.929 34.083 67.859 34.104 67.782 34.104C67.684 34.111 67.565 34.111 67.432 34.097C67.509 34.23 67.537 34.419 67.544 34.545C67.684 34.559 67.831 34.552 67.957 34.538C68.083 34.517 68.209 34.482 68.3 34.405C68.482 34.265 68.552 33.929 68.552 33.53C68.552 33.033 68.44 32.473 67.964 31.822C68.181 31.178 68.433 30.317 68.629 29.659L68.307 29.463ZM76.314 29.631H73.031V30.128H76.314V29.631ZM72.772 33.558C72.436 33.642 72.1 33.733 71.771 33.817V32.2H72.569V31.71H71.771V30.17H72.681V29.687H70.357V30.17H71.267V31.71H70.448V32.2H71.267V33.943C70.882 34.041 70.539 34.132 70.259 34.202L70.378 34.699C71.05 34.517 71.96 34.258 72.835 34.013L72.772 33.558ZM75.642 35C75.495 35 75.467 34.972 75.467 34.776V32.144H76.685V31.64H72.723V32.144H73.661C73.591 33.698 73.395 34.65 71.981 35.161C72.093 35.245 72.233 35.434 72.282 35.553C73.815 34.965 74.081 33.873 74.165 32.144H74.956V34.783C74.956 35.329 75.082 35.49 75.572 35.49H76.174C76.608 35.49 76.741 35.231 76.783 34.265C76.643 34.23 76.426 34.146 76.321 34.048C76.3 34.867 76.272 35 76.125 35H75.642Z" fill="#39393E"/>
<path d="M54.904 39.064H54.308C54.252 38.944 54.172 38.788 54.1 38.672L53.824 38.752C53.876 38.844 53.932 38.96 53.98 39.064H53.256V39.316H54.904V39.064ZM53.904 39.892C53.884 39.752 53.816 39.536 53.736 39.38L53.504 39.428C53.576 39.596 53.64 39.812 53.66 39.952L53.904 39.892ZM53.58 41.048C53.5 41.328 53.36 41.612 53.208 41.808C53.268 41.844 53.372 41.916 53.42 41.956C53.572 41.744 53.732 41.416 53.828 41.116L53.58 41.048ZM54.936 40.904V40.648H54.276V40.252H54.976V39.996H54.532C54.604 39.828 54.68 39.616 54.744 39.42L54.476 39.364C54.432 39.548 54.352 39.808 54.276 39.996H53.176V40.252H54V40.648H53.224V40.904H54V42.268H54.276V40.904H54.936ZM54.948 41.64C54.884 41.476 54.752 41.232 54.632 41.044L54.436 41.148C54.548 41.336 54.688 41.592 54.74 41.752L54.948 41.64ZM55.372 40.396H56.336V40.812H55.372V40.396ZM55.372 39.74H56.336V40.152H55.372V39.74ZM55.372 39.088H56.336V39.496H55.372V39.088ZM56.308 41.992C56.232 41.992 56.224 41.98 56.224 41.892V41.076H56.616V38.82H55.1V41.076H55.368C55.32 41.576 55.188 41.904 54.66 42.092C54.716 42.14 54.796 42.248 54.828 42.316C55.424 42.08 55.588 41.68 55.644 41.076H55.948V41.896C55.948 42.168 56.008 42.256 56.264 42.256H56.552C56.772 42.256 56.848 42.124 56.868 41.576C56.792 41.556 56.68 41.516 56.62 41.464C56.612 41.936 56.6 41.992 56.52 41.992H56.308ZM61.8 40.424H60.168V40C60.624 39.768 61.136 39.412 61.476 39.076L61.252 38.908L61.188 38.924H58.612V39.216H60.864C60.584 39.448 60.196 39.696 59.864 39.848V40.424H58.216V40.72H59.864V41.908C59.864 41.98 59.836 42 59.756 42.004C59.668 42.008 59.376 42.012 59.052 42C59.104 42.084 59.16 42.216 59.18 42.304C59.564 42.304 59.816 42.3 59.964 42.248C60.116 42.204 60.168 42.112 60.168 41.912V40.72H61.8V40.424ZM65.636 39.924H66.344C66.248 40.032 66.132 40.148 66.024 40.224V40.5H65.48V40.744H66.024V41.448C66.024 41.488 66.012 41.5 65.964 41.5C65.916 41.504 65.768 41.504 65.6 41.5C65.64 41.572 65.68 41.676 65.692 41.752C65.916 41.752 66.064 41.748 66.156 41.704C66.26 41.66 66.284 41.588 66.284 41.452V40.744H66.82V40.5H66.284V40.296C66.452 40.156 66.632 39.972 66.764 39.8L66.596 39.676L66.548 39.692H65.652C65.712 39.592 65.768 39.476 65.824 39.356H66.82V39.104H65.92C65.968 38.976 66.008 38.836 66.044 38.704L65.788 38.64C65.7 39.036 65.536 39.432 65.328 39.692C65.392 39.728 65.492 39.808 65.544 39.852C65.576 39.812 65.608 39.768 65.636 39.72V39.924ZM64.5 39.884C64.5 40.364 64.456 41.028 64.084 41.528C64.144 41.564 64.232 41.64 64.276 41.692C64.624 41.236 64.72 40.644 64.744 40.148H65.132C65.1 41.056 65.056 41.388 64.992 41.468C64.968 41.512 64.936 41.52 64.892 41.516C64.844 41.516 64.74 41.516 64.624 41.504C64.656 41.572 64.68 41.676 64.688 41.756C64.812 41.76 64.932 41.76 65.008 41.752C65.096 41.74 65.16 41.712 65.216 41.636C65.312 41.512 65.352 41.136 65.396 40.024V39.9H64.748V39.888V39.448H65.472V39.192H65.024L65.056 39.184C65.016 39.044 64.924 38.824 64.844 38.656L64.584 38.708C64.644 38.86 64.724 39.052 64.768 39.192H64.156V39.448H64.5V39.884ZM64.012 39.276C63.92 39.112 63.724 38.856 63.556 38.66L63.332 38.776C63.488 38.976 63.684 39.252 63.776 39.424L64.012 39.276ZM64.024 40.552L63.976 40.56H63.58C63.796 40.292 64.08 39.872 64.236 39.64L64.036 39.552L63.98 39.576H63.2V39.82H63.816C63.652 40.064 63.428 40.38 63.344 40.472C63.276 40.544 63.216 40.572 63.156 40.588C63.188 40.648 63.244 40.788 63.264 40.86C63.296 40.828 63.4 40.804 63.5 40.804H63.86C63.74 41.416 63.48 41.86 63.132 42.108C63.192 42.148 63.288 42.252 63.328 42.312C63.52 42.164 63.692 41.96 63.828 41.7C64.14 42.16 64.64 42.24 65.464 42.24C65.9 42.24 66.4 42.232 66.776 42.208C66.788 42.128 66.828 41.996 66.872 41.932C66.468 41.968 65.888 41.984 65.468 41.984C64.7 41.984 64.196 41.924 63.94 41.46C64.036 41.216 64.112 40.932 64.16 40.608L64.024 40.552ZM70.012 41.216H70.684V41.756H70.012V41.216ZM70.684 40.156H70.012V39.64H70.684V40.156ZM70.684 40.948H70.012V40.424H70.684V40.948ZM71.804 41.756H70.964V41.216H71.656V40.948H70.964V40.424H71.66V40.156H70.964V39.64H71.724V39.364H70.876L71.108 39.264C71.06 39.104 70.936 38.868 70.816 38.684L70.56 38.784C70.668 38.96 70.788 39.204 70.836 39.364H70.048C70.136 39.164 70.22 38.956 70.288 38.748L70.008 38.676C69.828 39.264 69.528 39.84 69.18 40.212C69.232 40.252 69.32 40.336 69.372 40.396L68.972 40.52V39.724H69.416V39.448H68.972V38.656H68.684V39.448H68.176V39.724H68.684V40.608C68.48 40.676 68.292 40.728 68.14 40.772L68.216 41.06L68.684 40.904V41.94C68.684 42 68.664 42.012 68.612 42.012C68.568 42.016 68.412 42.016 68.24 42.012C68.28 42.096 68.32 42.22 68.328 42.3C68.584 42.304 68.736 42.292 68.832 42.244C68.932 42.192 68.972 42.112 68.972 41.94V40.812L69.428 40.664L69.388 40.408L69.4 40.424C69.512 40.292 69.624 40.14 69.724 39.972V42.308H70.012V42.028H71.804V41.756ZM74.068 39.392H74.356V39.14H74.872V38.904H74.356V38.656H74.068V38.904H73.228V39.14H74.068V39.392ZM73.94 42.276C74.064 42.12 74.168 41.872 74.232 41.68L74.02 41.588C73.96 41.772 73.844 42.016 73.724 42.156L73.94 42.276ZM74.432 41.672C74.476 41.856 74.516 42.096 74.516 42.248L74.76 42.212C74.752 42.056 74.712 41.824 74.652 41.636L74.432 41.672ZM74.952 41.648C75.044 41.808 75.14 42.024 75.176 42.168L75.404 42.088C75.364 41.948 75.264 41.736 75.164 41.584L74.952 41.648ZM75.492 41.604C75.604 41.72 75.732 41.88 75.788 41.992L75.992 41.88C75.932 41.776 75.808 41.624 75.684 41.512L75.492 41.604ZM75.308 39.976H74.66V39.74H75.308V39.976ZM76.172 40.168V40.416H75.568V40.168H76.172ZM74.66 40.168H75.308V40.416H74.66V40.168ZM74.404 40.416H73.796V40.168H74.404V40.416ZM74.404 39.74V39.976H73.796V39.74H74.404ZM74.74 39.3C74.792 39.368 74.848 39.444 74.892 39.524H73.516V40.448C73.516 40.952 73.476 41.644 73.132 42.144C73.2 42.168 73.316 42.248 73.368 42.296C73.7 41.816 73.784 41.14 73.796 40.604H74.144L73.988 41.48H76.352C76.316 41.852 76.28 42.004 76.236 42.056C76.208 42.084 76.176 42.088 76.12 42.088C76.068 42.088 75.936 42.088 75.796 42.072C75.832 42.136 75.856 42.232 75.864 42.3C76.016 42.312 76.168 42.312 76.244 42.304C76.34 42.296 76.404 42.276 76.464 42.216C76.544 42.128 76.592 41.912 76.636 41.376C76.64 41.344 76.644 41.268 76.644 41.268H74.288L74.324 41.04H76.552V40.832H74.36L74.404 40.604H76.464V39.976H75.568V39.74H76.672V39.524H75.176C75.128 39.428 75.044 39.308 74.964 39.22L74.74 39.3ZM75.952 38.904V38.656H75.668V38.904H75.1V39.136H75.668V39.392H75.952V39.136H76.748V38.904H75.952Z" fill="#8E8E93"/>
<path d="M20.5211 12.6272C20.5211 12.6272 20.199 13.0221 20.2417 13.0497C20.2843 13.0774 20.488 12.9312 20.488 12.9312" stroke="white" stroke-width="0.18" stroke-linecap="round" stroke-linejoin="round"/>
<path d="M15.2684 21.0104C14.9376 21.0776 14.6469 21.2415 14.4489 21.4724C14.0321 21.8949 14.2073 21.9818 14.4489 21.8672C14.6905 21.7527 14.6905 21.4171 15.5384 21.3342C15.7231 21.3263 15.2684 21.0104 15.2684 21.0104Z" fill="#E9946F"/>
<path d="M24.8418 20.9986C24.9069 21.3213 24.9955 21.6404 25.1071 21.9542C25.1423 22.0663 25.2207 22.1656 25.3303 22.237C25.4398 22.3083 25.5744 22.3477 25.7134 22.3491C25.9834 22.3491 25.2823 22.0885 25.2776 21.7805C25.2728 21.4725 25.6234 20.9473 24.8418 20.9986Z" fill="#E9946F"/>
<path d="M15.1125 20.9949C15.6922 20.8012 16.2149 20.5055 16.645 20.1279C17.075 19.7504 17.4021 19.2999 17.6041 18.8073C18.1725 17.2278 18.992 14.8309 18.992 14.8309L19.8446 16.0155C19.8446 16.0155 20.1525 15.8655 18.5373 19.1745C18.2513 19.7592 17.7933 20.2744 17.2055 20.6726C16.6178 21.0708 15.9191 21.3392 15.1741 21.4529L15.1125 20.9949Z" fill="#EF9A9B"/>
<path d="M23.7755 30.7637C23.9127 30.909 24.0272 31.0682 24.1166 31.2375C23.6916 31.5048 23.2093 31.7018 22.6955 31.818C22.5629 31.7667 23.5576 31.2652 23.515 31.1664C23.4771 31.0905 23.4277 31.0188 23.3682 30.9532L23.7755 30.7637Z" fill="#42394A"/>
<path d="M19.29 31.1862C19.3412 31.366 19.3667 31.5502 19.3658 31.735C18.8449 31.8336 18.306 31.847 17.779 31.7745C17.6842 31.6837 18.84 31.5692 18.8495 31.4626C18.8508 31.3803 18.8412 31.2982 18.8211 31.2177L19.29 31.1862Z" fill="#42394A"/>
<path d="M21.5966 14.4634C21.5966 14.4634 25.0829 16.2166 25.315 21.1407L24.9076 21.2591C24.7039 21.3816 24.6897 18.3134 21.8334 16.2166C20.8387 15.4901 21.0519 14.4397 21.5966 14.4634Z" fill="#EF9A9B"/>
<path d="M18.5042 20.8602C18.5042 20.8602 16.9647 23.9758 17.0832 26.0409C17.1495 27.2927 18.5042 31.2217 18.5042 31.2217L19.4516 31.1624C19.4516 31.1624 18.1584 27.3756 18.2626 25.8711C18.3384 24.7892 20.3137 21.6697 20.3137 21.6697C20.3137 21.6697 19.6979 25.4605 20.4984 26.9176C21.0763 27.9679 23.2789 30.9847 23.2789 30.9847L23.8284 30.7281C23.8284 30.7281 21.531 27.0281 21.5784 26.0409C21.6258 25.0538 22.2558 20.9945 22.2558 20.9945C22.2558 20.9945 18.8216 20.9116 18.5042 20.8602Z" fill="#439B95"/>
<path d="M18.5044 20.8602C18.5044 20.8602 19.4518 21.4643 22.2939 20.9944C22.2939 20.9944 22.8528 14.6765 21.4555 14.4001C20.0581 14.1236 19.6555 14.1394 18.8976 14.8305C18.3813 15.3004 18.0592 17.1997 18.5234 17.2431C18.9876 17.2866 19.2055 17.2431 19.2671 17.5946C19.3287 17.946 18.5044 20.8602 18.5044 20.8602Z" fill="#EF9A9B"/>
<path d="M22.4066 11.1544C22.4066 11.1544 22.7192 12.339 22.4066 12.9313C22.094 13.5236 21.1703 12.4733 21.2413 14.424C21.2413 14.424 20.4408 14.9373 20.3224 14.0567C20.1566 12.8563 20.5782 10.2028 22.4066 11.1544Z" fill="#E9946F"/>
<path d="M18.2098 16.6826C18.2098 16.6826 20.204 16.039 20.5261 14.7557C20.8482 13.4723 20.7534 12.9353 21.985 11.8257C23.6523 10.3173 20.7297 10.8109 20.2655 10.9293C19.8013 11.0478 20.024 12.343 19.555 12.6668C19.0861 12.9906 18.0629 12.9353 18.044 13.7724C18.025 14.6096 18.5555 15.498 17.9634 15.7468C17.3713 15.9956 17.4282 16.8919 18.2098 16.6826Z" fill="#42394A"/>
<path d="M22.4736 11.5847C22.497 11.932 22.5949 12.2731 22.7625 12.5916C22.8857 12.7614 22.2888 12.5916 22.2888 12.5916C22.2304 12.2482 22.2946 11.8979 22.4736 11.5847V11.5847Z" fill="#E9946F"/>
<path d="M25.789 22.2583C25.789 22.2583 25.9926 24.3471 26.7363 24.2089C27.48 24.0707 27.9537 21.3145 29.0195 20.8999L29.3605 21.7449C29.3605 21.7449 28.5884 21.9897 28.4463 22.4596C28.3042 22.9295 27.7595 24.7025 26.5516 24.7933C25.3437 24.8842 25.6042 22.5386 25.3295 22.1122C24.8416 21.358 25.6137 21.3501 25.789 22.2583Z" fill="#E9946F"/>
<path d="M27.551 23.0243C27.551 23.0243 28.0247 23.5495 28.1242 23.4705C28.5923 22.9297 28.9953 22.3517 29.3273 21.7449C29.3273 21.5475 29.2989 20.7064 29.1757 20.7696C29.0526 20.8328 28.2947 20.9434 27.551 23.0243Z" fill="#FFE0BC"/>
<path d="M31.0894 20.8602C31.0894 20.8602 31.8851 21.1445 32.3209 22.2541C32.7567 23.3637 32.9936 25.0182 33.633 25.5C33.9084 25.6677 34.2394 25.7602 34.5804 25.7645C34.5804 25.7645 33.3962 26.2463 32.733 24.9116C32.1978 23.8415 31.5488 22.3252 31.1888 22.2146L31.0894 20.8602Z" fill="#E9946F"/>
<path d="M31.9463 23.4703C31.9463 23.4703 32.7705 23.261 32.78 23.1346C32.7894 23.0083 32.1784 21.1603 31.051 20.7654C30.9614 21.1005 30.906 21.4413 30.8853 21.7842C30.8853 22.1435 31.7237 22.9332 31.9463 23.4703Z" fill="#FFE0BC"/>
<path d="M28.3564 25.2791C28.3564 25.2791 27.9111 27.3008 27.7832 28.134C27.6553 28.9672 28.2569 30.0254 28.5222 31.3206C28.6406 31.8774 28.6406 31.5575 28.6643 31.5062C28.7685 31.285 28.9295 31.4312 28.9011 31.285C28.8727 31.1389 28.5506 29.058 28.6927 28.521C28.9248 27.6285 29.5027 25.7569 29.5027 25.7569C29.5027 25.7569 30.2037 27.8536 30.3411 28.6631C30.398 29.0106 32.3637 30.8309 32.2358 31.0323C32.1079 31.2337 31.7622 31.1903 31.9753 31.1982C32.1885 31.2061 32.6053 31.1113 32.6243 30.9849C32.6432 30.8586 31.0801 28.7065 31.0895 28.1695C31.1227 26.2741 30.9285 24.0313 31.0895 22.9493C31.2506 21.8674 29.858 21.591 29.3274 21.745C28.7969 21.899 29.7348 22.2899 28.3564 25.2791Z" fill="#E9946F"/>
<path d="M32.4439 30.5624C32.5585 30.6969 32.6524 30.8428 32.7234 30.9967C32.3749 31.2344 31.972 31.4104 31.5392 31.514C31.4255 31.4627 32.2213 31.0046 32.1881 30.9099C32.1562 30.8423 32.1166 30.7775 32.0697 30.7164L32.4439 30.5624Z" fill="#42394A"/>
<path d="M27.271 27.2692C27.271 27.2692 31.4204 27.593 31.6146 27.1112C31.6904 26.9256 31.7946 21.125 30.9989 20.738C30.2978 20.3944 29.1515 20.6787 28.9857 20.8999C28.6305 21.3974 27.3705 26.0924 27.271 27.2692Z" fill="#42394A"/>
<path d="M28.0103 29.5867L28.6876 29.5195C28.6876 29.5195 28.8676 31.0279 28.9008 31.2846L28.4934 31.1977C28.4934 31.1977 28.2187 30.2856 28.0103 29.5867Z" fill="#FFE0BC"/>
<path d="M30.7959 29.2632C31.0152 29.1752 31.2415 29.1 31.4733 29.0381C31.4733 29.0657 32.468 30.5623 32.468 30.5623L32.0938 30.7163L30.7959 29.2632Z" fill="#FFE0BC"/>
<path d="M30.6159 20.7182C30.6159 20.7182 30.7675 21.8278 30.2275 21.9699C29.8959 22.0568 29.3654 22.116 29.3275 21.7449C29.3159 21.3603 29.4271 20.9802 29.6496 20.6432C29.7491 20.6116 30.4454 20.1733 30.6159 20.7182Z" fill="#FFE0BC"/>
<path d="M28.8912 31.2059C28.8912 31.2059 29.0002 31.5495 28.9433 31.6008C28.8865 31.6522 27.8065 31.7153 27.7591 31.6008C27.7117 31.4863 28.4175 31.5179 28.4649 31.4271C28.4897 31.3472 28.4992 31.2646 28.4933 31.1823L28.8912 31.2059Z" fill="#42394A"/>
<path d="M29.768 19.7077C29.8598 20.0602 29.7923 20.4286 29.5785 20.7422C29.4317 20.995 30.5685 20.841 30.6111 20.7185C30.5186 20.3274 30.5186 19.925 30.6111 19.5339C30.4639 19.5104 30.3123 19.5137 30.1667 19.5437C30.0211 19.5737 29.8851 19.6296 29.768 19.7077V19.7077Z" fill="#E9946F"/>
<path d="M31.1792 18.0961C31.1792 18.0961 31.7382 17.4208 32.2498 17.8631C32.7613 18.3053 32.4345 19.6282 32.5055 19.952C32.5766 20.2758 33.2445 20.3745 32.9792 20.4258C32.714 20.4771 30.6535 20.8088 31.1792 18.0961Z" fill="#963820"/>
<path d="M29.3843 18.096C29.3843 18.096 28.8822 17.5077 28.3753 17.946C27.8685 18.3843 28.129 19.6281 28.058 19.9519C27.9869 20.2757 27.6696 20.3468 27.9396 20.4021C28.2096 20.4574 29.5785 20.639 29.3843 18.096Z" fill="#963820"/>
<path d="M29.3182 18.1238C29.3182 18.1238 28.7924 19.7981 29.7682 19.9955C30.4882 20.1416 31.0282 19.0083 30.8482 18.2462C30.6682 17.4841 29.3514 17.7329 29.3182 18.1238Z" fill="#E9946F"/>
<path d="M28.9999 18.3963C28.9999 18.3963 29.1847 17.8751 29.4262 17.7527C29.6846 17.6185 29.9942 17.5705 30.2931 17.6184C30.5084 17.6509 30.7108 17.7269 30.8826 17.8398C31.0544 17.9527 31.1903 18.0991 31.2783 18.266C31.4489 18.6609 31.1552 18.732 31.2783 18.882C31.4015 19.0321 31.4204 18.882 31.3352 19.1505C31.2499 19.4191 30.5252 19.7823 30.5726 19.6244C30.6199 19.4664 30.7004 18.8346 30.5299 18.7083C30.3594 18.5819 28.8152 18.9886 28.9999 18.3963Z" fill="#963820"/>
<path d="M30.5493 19.0515C30.5193 19.0756 30.4968 19.1055 30.4837 19.1385C30.4707 19.1715 30.4676 19.2067 30.4746 19.2409C30.4816 19.2752 30.4985 19.3075 30.5239 19.3351C30.5493 19.3626 30.5824 19.3846 30.6203 19.399C30.9993 19.5728 31.113 18.6488 30.5493 19.0515Z" fill="#E9946F"/>
<path d="M29.1761 17.9895C29.0693 18.1809 29.0051 18.387 28.9866 18.5976C29.0151 18.7911 28.5651 18.1948 29.1761 17.9895Z" fill="#EF9A9B"/>
<path d="M31.179 18.0962C31.3127 18.2904 31.389 18.5083 31.4016 18.7319C31.3447 18.9412 31.7474 18.2541 31.179 18.0962Z" fill="#EF9A9B"/>
<path d="M29.3702 18.8939C29.2326 19.0103 29.0725 19.1064 28.8965 19.1782C28.7307 19.2217 29.1665 19.2454 29.2281 19.3085C29.2897 19.3717 29.6355 19.0282 29.3702 18.8939Z" fill="#E9946F"/>
<path d="M13.3313 12.098C13.3313 12.098 13.6581 7.30032 12.886 6.83832C12.1139 6.37632 9.66026 6.66458 9.46605 7.18976C9.27185 7.71494 9.07764 11.5886 9.07764 11.5886C9.07764 11.5886 13.066 12.1612 13.3313 12.098Z" fill="#C12B28"/>
<path d="M9.7171 7.75451C9.7171 7.75451 6.64765 7.62815 6.14081 5.94995C5.63397 4.27174 8.35764 2.25 9.07763 2.25C9.42342 2.25 8.63237 2.48692 8.22027 2.97261C7.80817 3.45831 6.36818 5.37738 7.78922 6.06841C8.52559 6.44051 9.34658 6.68119 10.2003 6.77523L9.7171 7.75451Z" fill="#E9946F"/>
<path d="M13.0372 7.87292C13.0372 7.87292 16.1067 7.74656 16.6135 6.0723C17.1203 4.39805 14.4204 2.36841 13.6767 2.36841C13.3309 2.36841 14.1219 2.60533 14.534 3.09102C14.9461 3.57671 16.3909 5.49579 14.9556 6.19076C14.2123 6.56274 13.3852 6.80333 12.5256 6.89758L13.0372 7.87292Z" fill="#E9946F"/>
<path d="M12.4119 12.9115C12.4119 12.9115 18.1293 14.5344 16.9119 16.6193C16.0308 18.1159 11.9335 15.8296 11.8198 15.5532C11.8472 15.3876 11.9047 15.2265 11.9903 15.0754C11.9903 15.0754 15.4719 16.7418 15.8414 16.2047C16.3151 15.5255 12.1798 14.0961 12.1798 14.0961L12.4119 12.9115Z" fill="#F7B119"/>
<path d="M8.79812 12.9115C8.79812 12.9115 2.49816 14.8503 4.33604 16.9668C5.2834 18.033 7.58076 16.1021 7.69444 15.8257C7.7276 15.7427 7.45286 15.6401 7.45286 15.6401C7.45286 15.6401 5.31183 17.0379 5.13183 16.4298C4.78604 15.2728 9.03496 14.0606 9.03496 14.0606L8.79812 12.9115Z" fill="#F7B119"/>
<path d="M8.48047 12.4216C8.59787 12.1085 8.80237 11.8231 9.07731 11.5884C9.38046 11.3831 13.5583 11.7464 13.3404 12.0978C13.2078 12.311 12.502 13.5154 12.502 13.5154C12.502 13.5154 8.66047 13.16 8.48047 12.4216Z" fill="#FFE0BC"/>
<path d="M15.3675 30.9847C15.3675 30.9847 15.7749 31.3322 15.7844 31.4152C15.4076 31.7299 14.9623 31.9818 14.4723 32.1575C14.3349 32.122 15.2349 31.5099 15.1733 31.4152C15.1209 31.3449 15.0589 31.28 14.9886 31.2217L15.3675 30.9847Z" fill="#42394A"/>
<path d="M7.01655 31.6245C7.0415 31.8531 7.0415 32.083 7.01655 32.3116C6.48202 32.3634 5.94057 32.3313 5.42025 32.2168C5.33499 32.1141 6.4955 32.0984 6.52392 31.9957C6.53507 31.913 6.53507 31.8296 6.52392 31.7469L7.01655 31.6245Z" fill="#42394A"/>
<path d="M9.94009 8.82837C9.76275 8.8876 9.60607 8.98298 9.48441 9.10578C9.36276 9.22858 9.28002 9.37487 9.24378 9.53124C9.08747 10.088 9.82641 10.5737 9.94009 10.4789C10.0538 10.3842 9.94009 8.82837 9.94009 8.82837Z" fill="#963820"/>
<path d="M9.84058 14.0014C9.84058 14.0014 9.87847 10.8424 9.90215 10.4476C9.92584 10.0527 11.0674 10.2185 11.2095 10.4476C11.3516 10.6766 11.3658 14.0014 11.3658 14.0014H9.84058Z" fill="#E9946F"/>
<path d="M11.6825 8.3783C11.6825 8.3783 11.9951 11.4741 11.6825 11.5373C11.3698 11.6004 10.1809 11.3398 10.0198 10.8818C9.85879 10.4237 9.36143 8.78106 11.6825 8.3783Z" fill="#E9946F"/>
<path d="M10.1577 9.84341C10.1577 9.84341 10.1577 9.12079 10.8635 9.11289C11.4224 9.11289 12.3413 9.01812 12.1377 8.03489C11.9671 7.22541 11.0908 8.37843 9.95399 8.82464C8.81716 9.27084 9.63189 10.5068 10.1577 9.84341Z" fill="#963820"/>
<path d="M11.3649 12.4849C11.3649 12.4849 10.3749 13.7011 10.1997 13.4839C10.0224 13.1683 9.90725 12.831 9.85863 12.4849C9.79705 12.2716 8.43759 13.0811 8.11549 14.7119C7.79338 16.3428 8.30496 20.8088 8.30496 20.8088H13.4728C13.4728 20.8088 13.596 14.7633 13.1555 13.9222C12.7149 13.0811 11.3649 12.4849 11.3649 12.4849Z" fill="#F7B119"/>
<path d="M8.30571 20.8092C8.30571 20.8092 5.97046 25.1765 5.97046 26.7007C5.97046 28.2249 6.33046 31.7472 6.33046 31.7472H7.10256C7.10256 31.7472 7.28255 27.3404 7.41992 26.2782C7.60939 24.8606 10.6031 21.8635 10.6031 21.8635C10.6031 21.8635 10.6883 26.4361 11.8204 27.8577C12.9525 29.2792 14.8662 31.2733 14.8662 31.2733L15.5388 30.9653C15.5388 30.9653 13.0378 27.3325 13.0378 26.3848C13.0378 25.4371 13.4736 20.8092 13.4736 20.8092H8.30571Z" fill="#42394A"/>
<path d="M11.9007 12.3665C11.9007 12.3665 10.9534 12.8916 10.6028 14.4632C10.2523 16.0348 11.176 16.8798 11.176 16.8798L11.4886 16.6784C11.1589 16.0524 11.0818 15.354 11.2689 14.6882C11.4559 14.0225 11.897 13.4253 12.526 12.9864C12.526 12.9864 12.6965 12.4533 11.9007 12.3665Z" fill="#E9946F"/>
<path d="M10.6313 13.8632C11.0976 13.995 11.5719 14.1057 12.0524 14.1949C12.1755 14.1949 12.5545 13.2591 13.0897 12.4536C13.0897 12.4536 11.7966 11.9797 11.5787 12.0587C11.3608 12.1377 10.9487 12.8247 10.6313 13.8632Z" fill="#FFE0BC"/>
<path d="M9.21023 12.0667C8.41743 12.6396 7.90355 13.4346 7.7655 14.3016C7.69071 14.7983 7.74598 15.3027 7.92752 15.7798C8.10906 16.257 8.41255 16.6957 8.81708 17.0657L9.12971 16.8643C8.64392 16.2623 8.40371 15.5458 8.44466 14.8211C8.48561 14.0964 8.80555 13.4019 9.35707 12.8406C9.35707 12.8406 9.98707 12.1535 9.21023 12.0667Z" fill="#E9946F"/>
<path d="M8.11572 13.2512C8.50851 13.4273 8.9171 13.5778 9.33782 13.7013C9.46098 13.7013 9.52729 13.2275 9.85887 12.4891C9.85887 12.4891 9.27624 11.7625 9.05835 11.8533C8.84045 11.9441 8.34783 12.26 8.11572 13.2512Z" fill="#FFE0BC"/>
<path d="M11.6731 6.62135C12.5716 6.64058 13.47 6.58236 14.3541 6.44761C14.4489 6.42786 14.771 7.75463 14.771 7.75463C14.1576 7.95087 13.5232 8.09765 12.8762 8.19294C12.5731 8.1732 11.6731 6.62135 11.6731 6.62135Z" fill="#C12B28"/>
<path d="M8.55683 6.36853C8.55683 6.36853 8.0642 7.38335 8.26315 7.75453C8.90058 7.92967 9.54888 8.07598 10.2052 8.19284L10.84 6.63704C11.001 6.71997 9.50419 6.51068 8.55683 6.36853Z" fill="#C12B28"/>
<path d="M10.8439 5.83546C10.8439 5.83546 10.8676 6.53043 10.8439 6.6252C10.8202 6.71997 11.455 6.88187 11.8197 6.6252C11.7345 6.20615 11.6854 5.78256 11.6728 5.35767C11.6728 5.35767 10.9386 5.67751 10.8439 5.83546Z" fill="#E9946F"/>
<path d="M11.6829 9.10107C11.7431 9.42711 11.9066 9.73383 12.1566 9.98953C12.4976 10.2146 11.7919 10.1198 11.7397 10.2146C11.6876 10.3094 11.2519 9.35774 11.6829 9.10107Z" fill="#E9946F"/>
<path d="M11.4889 16.6786C11.4889 16.6786 11.8347 16.8839 11.8252 16.955C11.8157 17.0261 11.0389 17.6421 10.9252 17.5907C10.8115 17.5394 11.3705 17.1959 11.3373 17.0853C11.2968 17.0103 11.2424 16.941 11.1762 16.88L11.4889 16.6786Z" fill="#42394A"/>
<path d="M9.11046 16.86C9.11046 16.86 9.45624 17.0653 9.44677 17.1364C9.4373 17.2075 8.66046 17.8235 8.54678 17.7721C8.43309 17.7208 8.99204 17.3773 8.95888 17.2667C8.91835 17.1917 8.86401 17.1224 8.79783 17.0614L9.11046 16.86Z" fill="#42394A"/>
<path d="M8.4425 15.3438C8.21871 15.3632 7.99895 15.407 7.78882 15.4741C7.96612 16.0611 8.31243 16.6032 8.79776 17.0535L9.11039 16.8522C8.77628 16.3887 8.54971 15.877 8.4425 15.3438V15.3438Z" fill="#FFE0BC"/>
<path d="M11.1474 15.2173C11.1474 15.2173 10.6358 15.1423 10.5269 15.2173C10.5113 15.8167 10.7401 16.4027 11.1758 16.8797L11.4884 16.6783C11.2592 16.2151 11.1432 15.7184 11.1474 15.2173V15.2173Z" fill="#FFE0BC"/>
<path d="M11.5361 15.028C11.5361 15.028 10.7546 14.8424 10.4514 15.2294C10.333 15.3834 11.3561 15.5137 11.5361 15.3952C11.7161 15.2768 11.7825 15.1188 11.5361 15.028Z" fill="#E67E69"/>
<path d="M7.45274 15.6404C7.45274 15.6404 8.16327 15.0125 8.618 15.281C8.798 15.3837 7.79853 15.8773 7.58064 15.822C7.36275 15.7667 7.45274 15.6404 7.45274 15.6404Z" fill="#E67E69"/>
<path d="M10.4228 4.10594C10.4228 4.10594 10.0439 5.80388 11.0339 5.94604C11.7633 6.0487 12.2038 4.88383 11.9812 4.13753C11.7586 3.39122 10.4228 3.71501 10.4228 4.10594Z" fill="#E9946F"/>
<path d="M11.8346 4.85229C11.8346 4.85229 11.5267 5.18003 11.7825 5.36167C12.2278 5.67362 12.9667 4.61932 11.8346 4.85229Z" fill="#E9946F"/>
<path d="M10.2807 3.52562C10.2543 3.56902 10.2391 3.61656 10.2361 3.66517C10.2332 3.71378 10.2425 3.76236 10.2635 3.80778C10.2845 3.8532 10.3166 3.89443 10.358 3.92881C10.3993 3.96319 10.4488 3.98995 10.5033 4.00736C11.0812 4.18505 11.4081 3.97182 11.6497 4.19295C11.8912 4.41408 11.7586 5.10905 11.9007 5.1209C12.1158 4.98769 12.2765 4.80263 12.3612 4.59075C12.446 4.37887 12.4505 4.15041 12.3744 3.93628C12.1328 3.38346 10.9533 3.68357 10.9202 3.32028C10.887 2.957 10.3518 3.24921 10.2807 3.52562Z" fill="#42394A"/>
<path d="M10.3992 4.90373C10.3992 4.90373 10.0771 4.92742 10.0439 4.90373C10.0107 4.88004 10.3707 4.56809 10.3755 4.40224C10.3802 4.2364 10.9913 4.86029 10.3992 4.90373Z" fill="#E9946F"/>
<path d="M10.1572 9.66154C10.1572 9.66154 10.0719 10.2223 10.2377 10.3684C10.4035 10.5145 11.7867 10.0288 11.8719 10.2341C11.9572 10.4394 12.2224 11.324 11.6777 11.5372C11.133 11.7504 9.90615 11.2687 9.93457 10.2657C9.96299 9.26272 10.0767 9.45621 10.1572 9.66154Z" fill="#963820"/>
<path d="M10.0107 10.3804C10.0107 10.3804 10.1575 9.6499 9.7928 9.75257C9.42807 9.85523 9.72649 10.8385 10.0107 10.3804Z" fill="#E9946F"/>
<path d="M35.3667 3.07926C35.3667 3.07926 36.6835 2.07628 38.0335 3.71105C38.8956 4.75351 38.7772 7.62818 39.0898 8.11387C39.4025 8.59956 41.4582 11.5453 38.1093 12.4575C34.2109 13.4999 32.0652 11.5098 32.733 9.79207C33.4009 8.07438 33.9551 8.13361 34.0736 7.16618C34.3151 5.09705 34.5046 3.407 35.3667 3.07926Z" fill="#6AAF9F"/>
<path d="M36.2096 13.8907C36.2096 13.8907 36.0391 4.97059 36.2854 5.1009C36.5317 5.23121 36.4891 13.8907 36.4891 13.8907H36.2096Z" fill="#4F4558"/>
<path d="M36.3044 8.1414C36.3044 8.1414 34.4476 6.33683 34.6323 6.33683C34.817 6.33683 36.3044 7.91632 36.3044 7.91632L37.9954 6.24207C38.3602 6.36053 36.3044 8.1414 36.3044 8.1414Z" fill="#4F4558"/>
<path d="M36.3044 9.93432C36.3044 9.93432 34.4476 8.13371 34.6323 8.13371C34.817 8.13371 36.3044 9.71319 36.3044 9.71319L37.9954 8.03894C38.3602 8.1732 36.3044 9.93432 36.3044 9.93432Z" fill="#4F4558"/>
<path d="M36.3044 11.8298C36.3044 11.8298 34.4476 10.0252 34.6323 10.0252C34.817 10.0252 36.3044 11.6047 36.3044 11.6047L37.9954 9.92651C38.3602 10.0489 36.3044 11.8298 36.3044 11.8298Z" fill="#4F4558"/>
<path d="M28.6307 6.55034C28.6307 6.55034 29.7343 5.70532 30.8712 7.08342C31.5959 7.95609 31.4964 10.3727 31.7617 10.7794C32.027 11.1861 33.737 13.6659 30.9375 14.4162C27.6596 15.2928 25.8549 13.6264 26.4186 12.1773C26.9823 10.7281 27.4465 10.7794 27.5459 9.96993C27.7638 8.24829 27.9154 6.82281 28.6307 6.55034Z" fill="#98D5CC"/>
<path d="M29.3325 15.6363C29.3325 15.6363 29.1856 8.13373 29.394 8.24825C29.6025 8.36276 29.5788 15.6363 29.5788 15.6363H29.3325Z" fill="#4F4558"/>
<path d="M29.4269 10.8068C29.4269 10.8068 27.8685 9.29052 28.0059 9.29052C28.1433 9.29052 29.4269 10.6212 29.4269 10.6212L30.848 9.21155C31.1559 9.30632 29.4269 10.8068 29.4269 10.8068Z" fill="#4F4558"/>
<path d="M29.4269 12.3115C29.4269 12.3115 27.8685 10.7952 28.0059 10.7952C28.1433 10.7952 29.4269 12.1299 29.4269 12.1299L30.848 10.7202C31.1559 10.815 29.4269 12.3115 29.4269 12.3115Z" fill="#4F4558"/>
<path d="M29.4269 13.9026C29.4269 13.9026 27.8685 12.3863 28.0059 12.3863C28.1433 12.3863 29.4269 13.721 29.4269 13.721L30.848 12.3113C31.1559 12.406 29.4269 13.9026 29.4269 13.9026Z" fill="#4F4558"/>
</g>
<defs>
<clipPath id="clip0">
<rect width="82" height="45" rx="5" fill="white"/>
</clipPath>
</defs>
</svg>
