<svg width="82" height="60" viewBox="0 0 82 60" fill="none" xmlns="http://www.w3.org/2000/svg">
<rect width="82" height="60" rx="5" fill="white"/>
<path d="M34.32 35.212C33.636 34.648 32.328 33.676 31.32 33.004L30.732 33.64C31.74 34.324 33.036 35.32 33.732 35.932L34.32 35.212ZM28.8 36.58C28.572 37.888 28.092 39.496 27.432 40.528L28.26 40.876C28.932 39.82 29.376 38.116 29.64 36.784L28.8 36.58ZM32.448 42.94C31.764 42.94 31.632 42.832 31.632 42.268V40.96C34.08 39.052 36 36.616 37.356 34.048L36.468 33.688C35.376 35.884 33.72 38.056 31.632 39.832V35.872H30.708V40.576C29.7 41.332 28.608 41.992 27.444 42.52C27.624 42.688 27.888 43.012 28.02 43.216C28.968 42.76 29.856 42.232 30.708 41.656V42.256C30.708 43.492 31.08 43.816 32.376 43.816H34.788C36.084 43.816 36.384 43.168 36.516 41.044C36.252 40.984 35.88 40.828 35.64 40.66C35.556 42.556 35.448 42.94 34.752 42.94H32.448ZM35.844 37.348C36.636 38.536 37.44 40.144 37.752 41.2L38.592 40.792C38.268 39.736 37.464 38.164 36.636 36.988L35.844 37.348ZM43.288 34.912V40.132H41.776V34.912H43.288ZM44.104 34.048H40.948V41.92H41.776V40.996H44.104V34.048ZM51.304 35.632V34.792H46.672C46.888 34.276 47.092 33.724 47.26 33.16L46.372 32.956C45.952 34.492 45.22 35.98 44.308 36.94C44.512 37.072 44.884 37.372 45.052 37.528C45.496 37 45.916 36.364 46.276 35.632H51.304ZM46.672 42.856C46.12 42.856 45.784 42.724 45.784 42.412C45.784 42.004 46.096 41.392 50.572 37.732C50.632 37.672 50.692 37.624 50.716 37.564L50.104 37.228L49.9 37.264H45.604V38.092H48.772C45.04 41.248 44.86 41.932 44.86 42.52C44.86 43.288 45.436 43.732 46.708 43.732H49.996C51.076 43.732 51.436 43.396 51.556 41.368C51.292 41.32 50.98 41.212 50.74 41.068C50.692 42.628 50.548 42.856 50.044 42.856H46.672ZM59.06 41.476C60.716 42.136 62.864 43.216 63.92 43.96L64.34 43.192C63.248 42.472 61.088 41.44 59.444 40.816L59.06 41.476ZM59.42 38.188V37.18H63.26V36.4H59.42V35.428H63.836V34.624H61.28C61.592 34.204 61.952 33.688 62.24 33.196L61.328 32.92C61.076 33.424 60.656 34.132 60.296 34.624H57.14L57.572 34.432C57.38 34 56.96 33.376 56.516 32.92L55.748 33.232C56.108 33.652 56.48 34.204 56.672 34.624H54.14V35.428H58.532V36.4H54.8V37.18H58.532V38.188H53.72V38.98H58.424C58.388 39.304 58.34 39.616 58.268 39.904H53.984V40.684H58.016C57.476 41.92 56.3 42.688 53.528 43.084C53.696 43.288 53.924 43.66 53.996 43.888C57.14 43.348 58.424 42.328 58.988 40.684H64.16V39.904H59.204C59.264 39.616 59.312 39.304 59.348 38.98H64.352V38.188H59.42ZM74.484 37.156V38.02H69.48V37.156H74.484ZM69.48 39.508V38.656H74.484V39.508H69.48ZM69.48 42.736V40.192H75.372V36.484H68.604V42.28C68.604 42.784 68.328 43.036 68.148 43.156C68.292 43.312 68.484 43.636 68.556 43.828C68.832 43.684 69.252 43.588 72.396 42.988C72.384 42.82 72.384 42.46 72.408 42.232L69.48 42.736ZM75.984 40.012C75.408 40.492 74.472 41.104 73.668 41.56C73.068 41.212 72.456 40.9 71.916 40.612L71.328 41.128C72.852 41.932 74.844 43.132 75.816 43.876L76.452 43.276C75.936 42.904 75.192 42.436 74.4 41.968C75.156 41.56 75.984 41.044 76.656 40.516L75.984 40.012ZM70.524 35.332C71.052 34.972 71.544 34.552 71.976 34.12C72.42 34.54 72.948 34.96 73.524 35.332H70.524ZM71.892 32.884C70.812 34.42 68.664 35.656 66.552 36.292C66.768 36.496 67.008 36.82 67.128 37.036C68.28 36.652 69.396 36.1 70.38 35.44V35.98H73.716V35.452C74.76 36.124 75.924 36.688 76.98 37.036C77.112 36.82 77.388 36.46 77.58 36.28C75.78 35.776 73.68 34.696 72.48 33.556C72.564 33.46 72.636 33.364 72.708 33.268L71.892 32.884Z" fill="#39393E"/>
<path d="M28.848 53.296H27.088V52.84H28.848V53.296ZM31.336 51.112H24.68V54.688H25.6V51.88H30.376V53.816C30.376 53.92 30.328 53.952 30.216 53.952C30.136 53.96 29.856 53.96 29.576 53.952H29.688V52.176H26.208V54.288H27.088V53.952H29.376C29.48 54.144 29.608 54.416 29.656 54.624C30.208 54.632 30.64 54.624 30.928 54.528C31.232 54.408 31.336 54.24 31.336 53.824V51.112ZM29.568 50.152H26.472V49.712H29.568V50.152ZM30.568 49.072H25.52V50.784H30.568V49.072ZM28.64 47.968C28.544 47.712 28.416 47.416 28.328 47.168L27.344 47.408C27.408 47.576 27.472 47.776 27.536 47.968H24.456V48.768H31.52V47.968H28.64ZM35.184 53.296C35.392 52.856 35.608 52.36 35.8 51.848C35.92 52.248 36.04 52.704 36.144 53.152L35.184 53.296ZM35.816 51.808C36 51.32 36.16 50.8 36.288 50.304L35.384 50.112C35.176 51.296 34.68 52.6 34.52 52.92C34.368 53.256 34.248 53.48 34.08 53.536C34.176 53.76 34.32 54.16 34.36 54.328C34.528 54.232 34.808 54.152 36.304 53.896C36.344 54.088 36.376 54.272 36.4 54.432L37.152 54.16C37.032 53.456 36.76 52.408 36.496 51.576L35.816 51.808ZM38.096 52.68H38.888V53.464H38.096V52.68ZM38.888 49.536V50.312H38.096V49.536H38.888ZM38.888 51.88H38.096V51.112H38.888V51.88ZM40.664 53.464H39.736V52.68H40.568V51.88H39.736V51.112H40.56V50.312H39.736V49.536H40.6V48.704H39.168L39.896 48.432C39.808 48.136 39.592 47.672 39.4 47.336L38.592 47.584C38.76 47.928 38.96 48.392 39.048 48.704H37.984C38.16 48.304 38.32 47.888 38.448 47.488L37.64 47.264C37.456 47.904 37.192 48.536 36.872 49.088V48.392H35.304C35.352 48.032 35.392 47.664 35.424 47.288L34.512 47.216C34.48 47.616 34.448 48.008 34.4 48.392H33.456V49.304H34.272C34.056 50.64 33.696 51.808 33.128 52.608C33.336 52.728 33.752 53.016 33.92 53.152C34.536 52.2 34.928 50.848 35.176 49.304H36.744C36.584 49.552 36.424 49.776 36.256 49.976C36.416 50.16 36.68 50.56 36.776 50.744C36.936 50.552 37.104 50.328 37.256 50.088V54.704H38.096V54.328H40.664V53.464ZM47.64 51.792H49.224V50.912H47.64V49.584H46.68V50.912H45.056V51.792H46.68V53.616H44.744V54.496H49.536V53.616H47.64V51.792ZM45.664 48.328C45.776 48.04 45.88 47.752 45.968 47.456L44.968 47.216C44.872 47.584 44.752 47.952 44.616 48.328H42.456V49.24H44.192C43.712 50.16 43.04 51 42.2 51.544C42.352 51.776 42.568 52.208 42.672 52.464C42.928 52.288 43.152 52.112 43.376 51.904V54.688H44.344V50.816C44.712 50.328 45.016 49.792 45.28 49.24H49.56V48.328H45.664ZM53.112 51.72V49.968H53.856V49.064H53.112V47.328H52.232V49.064H51.368V49.968H52.232V52.088C51.84 52.248 51.488 52.376 51.192 52.48L51.576 53.44C52.304 53.112 53.2 52.68 54.032 52.272L53.816 51.424L53.112 51.72ZM55.84 53.696C55.352 53.696 55.28 53.624 55.28 53.16V50.688L55.944 50.4V52.84H56.832V50.016L57.448 49.744C57.416 50.688 57.352 51.704 57.264 52.352L58.04 52.568C58.232 51.608 58.344 50.152 58.392 49.04L58.424 48.896L57.704 48.664L56.832 49.04V47.216H55.944V49.424L55.28 49.704V47.992H54.368V50.096L53.584 50.432L53.936 51.272L54.368 51.088V53.152C54.368 54.248 54.68 54.544 55.76 54.544H57.464C58.4 54.544 58.672 54.16 58.8 53.04C58.536 52.992 58.176 52.84 57.968 52.696C57.896 53.512 57.816 53.696 57.384 53.696H55.84ZM64.384 52.584H65.36V53.336H64.384V52.584ZM65.36 50.184H64.384V49.472H65.36V50.184ZM65.36 51.744H64.384V51.024H65.36V51.744ZM67.704 53.336H66.248V52.584H67.424V51.744H66.248V51.024H67.44V50.184H66.248V49.472H67.528V48.6H66.008L66.488 48.392C66.384 48.088 66.16 47.624 65.944 47.296L65.12 47.616C65.296 47.92 65.472 48.296 65.576 48.6H64.488C64.64 48.24 64.784 47.88 64.912 47.512L64.016 47.272C63.656 48.448 63.008 49.608 62.28 50.328C62.376 50.408 62.496 50.528 62.616 50.648L62.096 50.784V49.576H62.888V48.704H62.096V47.232H61.176V48.704H60.288V49.576H61.176V51.032C60.808 51.128 60.472 51.208 60.192 51.272L60.408 52.176L61.176 51.968V53.6C61.176 53.712 61.136 53.736 61.04 53.736C60.944 53.744 60.664 53.744 60.384 53.736C60.504 54.008 60.616 54.408 60.64 54.664C61.16 54.664 61.512 54.632 61.76 54.472C62.016 54.312 62.096 54.064 62.096 53.608V51.696C62.36 51.624 62.624 51.544 62.872 51.464L62.784 50.832C62.848 50.912 62.912 50.984 62.96 51.04C63.136 50.848 63.304 50.632 63.472 50.4V54.704H64.384V54.208H67.704V53.336ZM70.92 48.76H71.832V48.352H72.792V47.64H71.832V47.232H70.92V47.64H69.408V48.352H70.92V48.76ZM71.136 54.664C71.36 54.36 71.536 53.904 71.664 53.536L71 53.24C70.888 53.576 70.68 54.016 70.464 54.288L71.136 54.664ZM71.856 53.488C71.928 53.84 71.984 54.296 71.976 54.592L72.712 54.48C72.712 54.184 72.648 53.736 72.552 53.392L71.856 53.488ZM72.872 53.448C73.016 53.76 73.152 54.176 73.2 54.456L73.896 54.224C73.84 53.96 73.696 53.552 73.528 53.256L72.872 53.448ZM73.424 49.928H72.496V49.6H73.424V49.928ZM75.224 50.456V50.8H74.232V50.456H75.224ZM72.496 50.456H73.424V50.8H72.496V50.456ZM70.752 50.72V50.456H71.696V50.8H70.752V50.72ZM71.696 49.6V49.928H70.752V49.6H71.696ZM72.384 48.656C72.448 48.752 72.504 48.856 72.56 48.968H69.864V50.72C69.864 51.728 69.808 53.16 69.176 54.152C69.392 54.24 69.784 54.48 69.952 54.624C70.52 53.72 70.696 52.408 70.744 51.328H71.104V53.144H74.36L73.88 53.344C74.056 53.568 74.256 53.88 74.344 54.088L74.976 53.792C74.888 53.608 74.704 53.344 74.52 53.144H75.504C75.456 53.64 75.392 53.872 75.32 53.952C75.264 54.008 75.208 54.016 75.104 54.016C75.008 54.016 74.8 54.016 74.56 53.992C74.672 54.184 74.744 54.472 74.76 54.68C75.08 54.696 75.384 54.688 75.552 54.664C75.752 54.648 75.92 54.592 76.056 54.44C76.232 54.256 76.328 53.8 76.4 52.824C76.416 52.72 76.424 52.528 76.424 52.528H71.936V52.224H76.264V51.624H71.936V51.328H76.152V49.928H74.232V49.6H76.488V48.968H73.416C73.336 48.792 73.216 48.584 73.096 48.432L72.384 48.656ZM75.056 47.64V47.232H74.144V47.64H73.136V48.344H74.144V48.76H75.056V48.344H76.576V47.64H75.056Z" fill="#8E8E93"/>
<path d="M4.94165 19.2812C4.94165 19.2812 3.85438 27.6286 4.01648 27.6286H4.39208L5.37655 19.2812H4.94165Z" fill="#42394A"/>
<path d="M29.0748 19.1798L30 27.7302H29.6046L28.6399 19.1798H29.0748Z" fill="#42394A"/>
<path d="M5.77201 21.1284C5.77201 21.1284 4.86661 29.626 5.02871 29.626H5.42408L6.21482 21.1284H5.77201Z" fill="#42394A"/>
<path d="M28.3515 21.1284C28.3515 21.1284 29.2687 29.626 29.0987 29.626H28.7033L27.9126 21.1284H28.3515Z" fill="#42394A"/>
<path d="M5.00879 19.2122C5.00879 19.2122 28.4464 19.0945 28.9603 19.1757L28.5096 21.4411H5.53068L5.00879 19.2122Z" fill="#C16326"/>
<path d="M11.789 28.7532C11.718 28.9673 11.6728 29.1895 11.6545 29.415C12.1563 29.5778 12.6831 29.6438 13.2083 29.6098C13.3151 29.5043 12.1922 29.2607 12.1922 29.1267C12.1999 29.0274 12.2184 28.9293 12.2476 28.8344L11.789 28.7532Z" fill="#42394A"/>
<path d="M7.68554 27.5393C7.47908 27.6137 7.28146 27.7117 7.09644 27.8316C7.27432 28.3394 7.54244 28.8088 7.88718 29.2161C8.02951 29.2364 7.53134 28.1767 7.63019 28.0955C7.71172 28.0405 7.79931 27.9955 7.89113 27.9615L7.68554 27.5393Z" fill="#42394A"/>
<path d="M6.64164 17.649C6.64164 17.649 5.40018 19.7805 7.60239 20.69C9.8046 21.5994 11.5561 21.1609 10.9789 23.5766C10.366 26.1669 7.51146 27.5392 7.51146 27.5392L7.87915 28.1928C7.87915 28.1928 12.4734 25.6757 12.2282 22.8215C11.9831 19.9673 9.26295 19.4639 9.26295 19.4639C9.26295 19.4639 12.0978 20.1135 12.928 21.2706C13.7583 22.4277 12.4101 27.4133 11.56 28.8181L12.3192 28.9236C12.3192 28.9236 15.3556 23.0367 14.0746 20.6575C12.7936 18.2783 9.72553 17.9495 9.72553 17.9495L6.64164 17.649Z" fill="#439B95"/>
<path d="M4.396 9.2937L5.28163 10.7797L5.13139 8.98108L4.396 9.2937Z" fill="#AA5C27"/>
<path d="M4.39209 10.5116C4.4541 10.1868 4.63169 9.89729 4.89026 9.69961C5.08003 9.58593 5.681 9.65901 5.55843 9.80111C5.43587 9.94321 4.85863 10.0244 4.6728 10.7877L4.39209 10.5116Z" fill="#E9946F"/>
<path d="M4.87828 10.4506C4.87828 10.4506 3.07144 15.4647 4.22197 15.7854C5.91811 16.2564 5.03248 11.6645 7.59843 10.4709V12.6064C7.59843 12.6064 7.24655 13.3129 6.86304 14.0558C6.30952 15.1236 6.24626 16.7679 4.19034 16.6908C1.42274 16.5933 4.34849 10.3085 4.34849 10.3085L4.87828 10.4506Z" fill="#EF9A9B"/>
<path d="M4.43545 9.32608C4.43545 9.32608 3.77122 8.81858 4.47498 8.46536C5.17874 8.11214 5.30131 9.02158 5.03641 9.17586C4.86093 9.3002 4.64695 9.35369 4.43545 9.32608Z" fill="#439B95"/>
<path d="M10.8169 8.13641C10.8169 8.13641 10.8723 7.94153 11.3111 7.66545C11.75 7.38937 12.1019 6.42309 12.0426 6.90623C11.9594 7.39231 11.6993 7.82773 11.3151 8.12423C10.8723 8.53023 13.2919 13.9544 12.0505 14.5715C10.3622 15.4241 9.33032 11.6483 9.33032 11.6483L10.208 11.494C10.4074 11.5886 10.5662 11.7546 10.6548 11.9609C10.8406 12.5902 11.1965 13.5321 11.6195 13.3129C12.26 12.9922 10.5955 9.04991 10.8169 8.13641Z" fill="#E9946F"/>
<path d="M10.014 17.9941C10.014 17.9941 8.8951 18.4813 6.3252 18.5869C6.3252 18.5869 7.22269 9.42752 8.6223 9.1555C9.7412 8.94032 11.548 12.8095 10.6189 12.8095C9.92307 12.8339 10.0535 13.7514 9.99423 14.1818C9.93493 14.6121 10.014 17.9941 10.014 17.9941Z" fill="#EF9A9B"/>
<path d="M9.8957 4.84796C9.8957 4.84796 10.4769 6.21618 10.3108 6.97134C10.1448 7.7265 8.95472 7.2596 9.48056 9.57379C9.48056 9.57379 8.47236 10.532 8.43678 8.83488C8.40911 7.36516 7.89512 4.08062 9.8957 4.84796Z" fill="#E9946F"/>
<path d="M10.0775 5.34741C10.1817 5.75666 10.3572 6.14316 10.5954 6.48827C10.7535 6.67097 10.1289 6.58571 10.1289 6.58571C9.99336 6.18714 9.97548 5.75637 10.0775 5.34741V5.34741Z" fill="#E9946F"/>
<path d="M6.6655 11.9975C6.6655 11.9975 8.53165 10.9866 8.67003 9.39505C8.80841 7.80353 8.64235 7.16612 9.69404 5.6761C11.1253 3.6461 8.32605 4.59614 7.88324 4.79914C7.44042 5.00214 7.8437 6.53682 7.42856 6.98342C7.01342 7.43002 6.00128 7.46656 6.10012 8.49779C6.19896 9.52903 6.83946 10.5278 6.2978 10.9135C5.75615 11.2992 5.90639 12.3385 6.6655 11.9975Z" fill="#42394A"/>
<path d="M10.8205 8.68451L11.2752 8.56677C11.2752 8.56677 11.6073 9.43155 12.2399 11.7092C12.6748 13.2764 12.8409 14.7623 11.5915 14.8516C10.3421 14.941 9.76489 12.5902 9.76489 12.5902L10.7019 12.0787C10.7019 12.0787 11.0973 13.4672 11.635 13.3251C11.9236 13.2358 10.8205 8.68451 10.8205 8.68451Z" fill="#EF9A9B"/>
<path d="M19.0366 7.7429L19.3569 9.45215L19.8313 7.71448L19.0366 7.7429Z" fill="#AA5C27"/>
<path d="M19.5384 29.1226C19.6103 29.3406 19.6555 29.567 19.6728 29.7965C19.1696 29.9591 18.6415 30.0252 18.115 29.9914C18.0123 29.8858 19.1351 29.6422 19.1351 29.5083C19.1248 29.409 19.105 29.3111 19.0758 29.2159L19.5384 29.1226Z" fill="#42394A"/>
<path d="M23.5637 27.9087C23.7642 27.9992 23.9528 28.1151 24.1252 28.2538C23.9029 28.7452 23.59 29.1877 23.2039 29.5571C23.0616 29.5571 23.6507 28.5542 23.5558 28.4649C23.4784 28.4034 23.3949 28.3503 23.3067 28.3066L23.5637 27.9087Z" fill="#42394A"/>
<path d="M25.4058 16.6827C25.4058 16.6827 26.841 19.5653 24.6388 20.4748C22.4366 21.3842 19.9418 21.5994 20.5151 24.011C21.1239 26.6054 23.8678 27.9086 23.8678 27.9086L23.3973 28.5785C23.3973 28.5785 18.8031 26.0613 19.0482 23.2071C19.2934 20.353 21.9819 19.8333 21.9819 19.8333C21.9819 19.8333 18.9415 20.7671 18.0954 21.9039C17.2493 23.0407 18.8664 27.7665 19.7164 29.1672L18.9573 29.2728C18.9573 29.2728 15.399 24.0435 16.5851 21.6197C17.8938 18.9848 21.5272 18.3189 21.5272 18.3189L25.4058 16.6827Z" fill="#42394A"/>
<path d="M26.0703 19.1797C26.0703 19.1797 25.3152 8.79421 22.6543 8.68459C21.0057 8.60745 20.9701 9.76455 20.5984 9.97567C20.2268 10.1868 21.1678 17.9942 20.9938 18.3799C20.8198 18.7656 25.7896 19.7603 26.0703 19.1797Z" fill="#F7B119"/>
<path d="M22.0849 4.35266C22.2594 4.42503 22.4137 4.54085 22.5338 4.68969C22.6539 4.83853 22.736 5.0157 22.7729 5.20526C22.9271 5.88734 22.1956 6.4801 22.081 6.36236C21.9663 6.24462 22.0849 4.35266 22.0849 4.35266Z" fill="#963820"/>
<path d="M22.9469 8.88769C22.9469 8.88769 22.9469 6.73995 22.9114 6.29742C22.8758 5.85488 21.7608 6.01728 21.6185 6.29742C21.4762 6.57755 21.4683 9.90269 21.4683 9.90269L22.9469 8.88769Z" fill="#E9946F"/>
<path d="M21.1518 3.75977C21.1518 3.75977 20.8394 7.5315 21.1518 7.60864C21.4641 7.68578 22.6344 7.3691 22.7925 6.79664C22.9507 6.22418 23.4449 4.25102 21.1518 3.75977Z" fill="#E9946F"/>
<path d="M22.6738 5.54625C22.6738 5.54625 22.6738 4.66929 21.974 4.65305C21.4205 4.65305 20.5111 4.54343 20.7167 3.34573C20.8828 2.3551 21.7486 3.75173 22.8715 4.31201C24.0695 4.90071 23.168 6.35419 22.6738 5.54625Z" fill="#963820"/>
<path d="M21.0846 4.70166C21.0234 5.10073 20.8581 5.47533 20.6062 5.78568C20.2701 6.0577 20.97 5.94402 21.0016 6.06176C21.0332 6.1795 21.5116 5.03052 21.0846 4.70166Z" fill="#E9946F"/>
<path d="M22.6542 5.32308C22.6542 5.32308 22.7373 6.00515 22.5752 6.18785C22.4131 6.37055 21.1083 5.81027 21.0214 6.06199C20.9344 6.31371 20.626 7.34901 21.1518 7.60885C21.6777 7.86869 22.8994 7.27999 22.8717 6.06199C22.844 4.844 22.7373 5.07542 22.6542 5.32308Z" fill="#963820"/>
<path d="M22.8006 6.1999C22.8006 6.1999 22.6701 5.3067 23.018 5.43662C23.366 5.56654 23.0852 6.75612 22.8006 6.1999Z" fill="#EE3B4D"/>
<path d="M18.6135 8.87938C18.7822 8.58986 19.0501 8.37554 19.3647 8.2785C19.5822 8.2379 20.1238 8.53022 19.9538 8.61548C19.7838 8.70074 19.2224 8.57082 18.7875 9.21636L18.6135 8.87938Z" fill="#E9946F"/>
<path d="M26.6475 19.3259C26.3505 19.4589 26.1123 19.7006 25.9793 20.0039C25.9121 20.2191 26.1177 20.8159 26.2244 20.6535C26.3312 20.4911 26.2798 19.9065 26.9638 19.5492L26.6475 19.3259Z" fill="#E9946F"/>
<path d="M19.0367 9.09057C19.0367 9.09057 17.6331 13.9829 18.6136 14.3361C20.0923 14.8558 19.1711 10.2761 21.4089 8.96471V11.3195C21.3577 11.9137 21.2246 12.4974 21.0135 13.0531C20.5312 14.2305 20.1753 16.3011 18.4357 15.8302C15.8065 15.144 18.5741 8.79419 18.5741 8.79419L19.0367 9.09057Z" fill="#F7B119"/>
<path d="M23.1006 8.79419C23.1006 8.79419 26.7499 10.1462 27.4932 14.2955C28.1257 17.8236 26.9634 19.6465 26.9634 19.6465L26.4652 19.3542C26.4652 19.3542 27.0662 17.9982 26.7657 15.6109C26.3703 12.4685 23.4683 10.9419 23.4683 10.9419L23.1006 8.79419Z" fill="#F7B119"/>
<path d="M19.0997 7.84832C19.0997 7.84832 18.5857 7.18248 19.3528 7.03632C20.1198 6.89016 20.0051 7.78742 19.7125 7.87268C19.5126 7.94435 19.2937 7.93565 19.0997 7.84832V7.84832Z" fill="#EF9A9B"/>
</svg>
