<svg width="300" height="179" viewBox="0 0 300 179" fill="none" xmlns="http://www.w3.org/2000/svg">
<rect width="300" height="178.8" rx="5" fill="white"/>
<path d="M200.644 112.6V113.356H198.79V112.6H200.644ZM204.694 113.356H202.768V112.6H204.694V113.356ZM202.768 115.912V115.066H204.694V115.912H202.768ZM198.79 115.174V115.066H200.644V115.912H198.79V115.174ZM202.192 120.88H200.932V119.728H202.192V120.88ZM204.694 117.622V121.636C204.694 121.852 204.622 121.942 204.406 121.942H203.992V118.198H199.222V122.41H203.182C203.38 122.95 203.56 123.616 203.614 124.084C204.766 124.084 205.63 124.048 206.26 123.688C206.908 123.31 207.088 122.734 207.088 121.672V110.512H196.432V115.174C196.432 117.37 196.396 120.502 195.622 122.662C196.216 122.878 197.296 123.49 197.764 123.85C198.394 122.158 198.646 119.764 198.736 117.622H204.694ZM195.37 113.05C195.082 112.276 194.614 111.07 194.254 110.116L191.86 110.818C192.184 111.79 192.67 113.086 192.904 113.896L195.37 113.05ZM195.136 117.802L194.776 117.91H194.47C194.866 116.686 195.28 115.336 195.622 114.13H190.96V116.452H192.634C192.238 117.784 191.788 119.134 191.41 120.142H193.318C193.012 121.24 192.634 122.338 192.202 123.184C191.662 123.526 191.086 124.012 190.564 124.624L192.274 127.18C192.634 126.208 193.246 124.93 193.642 124.93C193.984 124.93 194.614 125.506 195.37 125.938C196.666 126.658 198.142 126.856 200.554 126.856C202.66 126.856 205.72 126.73 207.304 126.622C207.34 125.938 207.772 124.66 208.06 123.958C206.044 124.282 202.624 124.48 200.68 124.48C198.592 124.48 196.846 124.39 195.64 123.634C195.244 123.4 194.938 123.184 194.686 123.004C195.316 121.618 195.856 119.962 196.216 118.252L195.136 117.802ZM225.602 119.674V117.1H219.752V115.192H226.376V112.582H219.752V109.99H216.962V112.582H210.482V115.192H216.962V117.1H211.256V119.674H215.72C214.19 121.456 211.922 123.148 209.69 124.138C210.302 124.696 211.184 125.776 211.634 126.46C213.578 125.362 215.45 123.724 216.962 121.834V127.09H219.752V121.69C221.264 123.58 223.136 125.254 225.08 126.334C225.53 125.614 226.412 124.534 227.06 123.994C224.846 123.04 222.632 121.42 221.12 119.674H225.602ZM245.7 119.638V116.992H238.752V114.904H244.422V112.276H238.752V109.972H235.962V112.276H230.472V114.904H235.962V116.992H229.086V119.638H233.82C232.902 121.258 231.768 122.698 231.336 123.112C230.796 123.688 230.436 124.03 229.932 124.156C230.238 124.876 230.67 126.208 230.814 126.73C231.876 126.352 233.244 126.28 241.956 125.614C242.244 126.136 242.478 126.64 242.658 127.072L245.25 125.758C244.458 124.084 242.856 121.69 241.308 119.872L238.878 120.934C239.418 121.618 239.994 122.41 240.516 123.22L234.144 123.562C235.206 122.392 236.268 121.042 237.168 119.638H245.7ZM250.93 113.878V120.034H250.318V113.878H250.93ZM252.874 122.41V111.502H248.428V124.066H250.318V122.41H252.874ZM256.132 119.152C256.186 118.414 256.222 117.712 256.222 117.082H256.852L256.816 119.152H256.132ZM256.222 112.924H256.87V114.904H256.222V112.924ZM253.252 110.746V112.924H254.152V114.904H253.27V117.082H254.152C254.152 117.73 254.134 118.432 254.08 119.152H253.252V121.33H253.792C253.486 122.86 252.91 124.354 251.848 125.578C252.244 125.866 253.054 126.712 253.342 127.144C254.746 125.596 255.484 123.436 255.862 121.33H256.78C256.726 123.238 256.636 124.102 256.492 124.408C256.348 124.732 256.222 124.822 256.006 124.804C255.736 124.804 255.412 124.804 255.034 124.768C255.358 125.416 255.574 126.388 255.61 127.036C256.24 127.054 256.762 127.054 257.23 126.91C257.734 126.784 258.04 126.568 258.4 125.902C258.868 125.056 258.868 121.6 258.94 111.826C258.958 111.556 258.958 110.746 258.958 110.746H253.252ZM261.586 122.428V112.834H262.414C262.252 114.292 261.964 116.362 261.73 117.622C262.36 118.954 262.396 120.196 262.396 121.114C262.396 121.726 262.342 122.104 262.216 122.266C262.126 122.392 262 122.428 261.892 122.428H261.586ZM263.26 110.674L262.954 110.746H259.462V127.108H261.586V122.59C261.838 123.202 261.928 124.03 261.928 124.588C262.288 124.588 262.558 124.57 262.792 124.534C263.17 124.462 263.494 124.336 263.746 124.12C264.268 123.688 264.502 122.878 264.502 121.51C264.502 120.322 264.394 118.954 263.656 117.424C264.016 115.948 264.502 113.41 264.844 111.574L263.26 110.674ZM282.872 111.286H274.106V113.77H282.872V111.286ZM273.44 121.15L271.478 121.582V118.846H273.098V116.452H271.478V113.716H273.188V111.304H266.942V113.716H268.958V116.452H267.086V118.846H268.958V122.122C268.058 122.302 267.248 122.464 266.564 122.59L267.068 125.092C268.976 124.606 271.424 123.994 273.71 123.4L273.44 121.15ZM281.324 124.588C281.144 124.588 281.126 124.516 281.126 123.868V118.774H283.808V116.272H273.422V118.774H275.24C275.114 122.014 274.772 123.904 271.226 125.056C271.748 125.524 272.414 126.478 272.666 127.09C276.914 125.596 277.562 122.896 277.742 118.774H278.534V123.886C278.534 126.208 278.948 127.018 280.838 127.018H281.9C283.412 127.018 284.042 126.136 284.258 123.166C283.574 122.986 282.458 122.554 281.954 122.104C281.918 124.246 281.846 124.588 281.612 124.588H281.324Z" fill="#182B56"/>
<path d="M226.066 152.188H224.35C224.194 151.828 223.978 151.384 223.786 151.06L222.742 151.336C222.874 151.588 223.006 151.888 223.126 152.188H221.098V153.124H226.066V152.188ZM223.102 154.66C223.042 154.276 222.862 153.7 222.658 153.256L221.782 153.436C221.962 153.892 222.142 154.504 222.19 154.9L223.102 154.66ZM221.95 158.26C221.722 159.076 221.326 159.94 220.906 160.54C221.134 160.66 221.518 160.936 221.698 161.08C222.118 160.444 222.586 159.424 222.874 158.512L221.95 158.26ZM226.15 157.888V156.94H224.266V155.932H226.282V154.984H225.07C225.262 154.516 225.442 153.94 225.646 153.412L224.638 153.208C224.53 153.712 224.314 154.444 224.134 154.984H220.87V155.932H223.258V156.94H221.002V157.888H223.258V161.932H224.266V157.888H226.15ZM226.282 159.928C226.102 159.472 225.694 158.764 225.358 158.224L224.626 158.596C224.95 159.148 225.358 159.892 225.526 160.372L226.282 159.928ZM227.626 156.304H230.242V157.336H227.626V156.304ZM227.626 154.384H230.242V155.416H227.626V154.384ZM227.626 152.488H230.242V153.496H227.626V152.488ZM230.338 160.9C230.146 160.9 230.122 160.852 230.122 160.576V158.32H231.286V151.516H226.618V158.32H227.314C227.194 159.736 226.834 160.672 225.274 161.224C225.502 161.416 225.79 161.8 225.898 162.052C227.722 161.344 228.19 160.108 228.358 158.32H229.102V160.576C229.102 161.548 229.294 161.86 230.158 161.86H230.962C231.682 161.86 231.934 161.452 232.018 159.796C231.754 159.724 231.31 159.556 231.118 159.376C231.094 160.732 231.046 160.9 230.83 160.9H230.338ZM244.766 156.244H240.002V155.14C241.37 154.42 242.846 153.34 243.866 152.356L243.026 151.708L242.774 151.768H235.19V152.86H241.55C240.77 153.484 239.726 154.132 238.838 154.552V156.244H234.002V157.36H238.838V160.612C238.838 160.828 238.766 160.888 238.514 160.9C238.25 160.912 237.35 160.912 236.438 160.876C236.63 161.188 236.846 161.704 236.918 162.028C238.034 162.028 238.826 162.004 239.33 161.824C239.834 161.656 240.002 161.32 240.002 160.636V157.36H244.766V156.244ZM250.734 155.14C250.734 156.436 250.602 158.224 249.522 159.472C249.738 159.604 250.05 159.916 250.206 160.108C251.37 158.836 251.61 157.024 251.646 155.536H252.594C252.522 158.116 252.45 159.052 252.294 159.268C252.21 159.4 252.126 159.424 251.994 159.412C251.85 159.412 251.562 159.412 251.226 159.376C251.37 159.628 251.442 160.012 251.466 160.288C251.862 160.3 252.234 160.3 252.474 160.252C252.774 160.228 252.942 160.12 253.134 159.88C253.386 159.52 253.47 158.368 253.542 155.044C253.542 154.912 253.554 154.624 253.554 154.624H251.646V153.532H253.53C253.47 153.628 253.398 153.712 253.338 153.796C253.554 153.928 253.95 154.24 254.118 154.396L254.202 154.276V154.948H256.122C255.882 155.212 255.594 155.464 255.342 155.656V156.556H253.842V157.444H255.342V159.184C255.342 159.304 255.306 159.34 255.162 159.34C255.042 159.352 254.586 159.352 254.118 159.34C254.25 159.592 254.406 159.988 254.442 160.264C255.102 160.264 255.582 160.24 255.894 160.084C256.218 159.94 256.29 159.664 256.29 159.196V157.444H257.79V156.556H256.29V155.908C256.782 155.5 257.286 154.984 257.682 154.504L257.082 154.048L256.89 154.096H254.322C254.502 153.82 254.658 153.52 254.826 153.184H257.742V152.26H255.222C255.354 151.912 255.474 151.552 255.57 151.204L254.61 150.952C254.418 151.78 254.082 152.608 253.698 153.268V152.608H252.498C252.366 152.188 252.138 151.6 251.934 151.132L250.938 151.336C251.094 151.72 251.262 152.212 251.382 152.608H249.666V153.532H250.734V155.14ZM248.994 153.04C248.85 152.524 248.598 151.72 248.394 151.108L247.518 151.348C247.698 151.984 247.962 152.836 248.094 153.352L248.994 153.04ZM249.186 156.484L249.018 156.52H248.454C248.706 155.692 249.006 154.708 249.246 153.856H246.942V154.864H248.034C247.77 155.8 247.47 156.772 247.206 157.48H248.538C248.382 158.296 248.142 159.148 247.866 159.796C247.506 160.024 247.098 160.492 246.702 161.104L247.434 162.1C247.674 161.404 248.022 160.612 248.238 160.612C248.502 160.612 248.946 161.02 249.438 161.296C250.338 161.824 251.394 161.944 252.978 161.944C254.418 161.944 256.662 161.86 257.598 161.8C257.61 161.512 257.778 160.984 257.898 160.696C256.566 160.864 254.55 160.972 253.014 160.972C251.586 160.972 250.458 160.9 249.63 160.384C249.246 160.144 248.982 159.952 248.754 159.82C249.126 158.92 249.426 157.72 249.63 156.652L249.186 156.484ZM265.618 158.812H267.418V160.228H265.618V158.812ZM267.418 155.476H265.618V154.132H267.418V155.476ZM267.418 157.828H265.618V156.46H267.418V157.828ZM270.814 160.228H268.45V158.812H270.394V157.828H268.45V156.46H270.406V155.476H268.45V154.132H270.574V153.112H268.162L268.858 152.812C268.714 152.344 268.354 151.636 268.006 151.108L267.046 151.492C267.346 151.996 267.658 152.644 267.802 153.112H265.762C266.026 152.536 266.242 151.948 266.446 151.36L265.378 151.084C264.838 152.836 263.926 154.564 262.858 155.668C263.014 155.776 263.218 155.992 263.398 156.184L262.39 156.484V154.348H263.674V153.316H262.39V151.036H261.322V153.316H259.882V154.348H261.322V156.796C260.734 156.952 260.206 157.108 259.774 157.216L260.026 158.296C260.434 158.176 260.866 158.044 261.322 157.9V160.708C261.322 160.876 261.262 160.924 261.106 160.924C260.974 160.936 260.518 160.936 260.05 160.912C260.206 161.224 260.338 161.716 260.374 162.004C261.13 162.004 261.622 161.968 261.958 161.776C262.282 161.596 262.39 161.284 262.39 160.72V157.564L263.674 157.168L263.542 156.328L263.674 156.472C263.974 156.136 264.274 155.74 264.55 155.32V162.04H265.618V161.248H270.814V160.228ZM275.438 153.256H276.506V152.56H278.018V151.708H276.506V151.012H275.438V151.708H273.038V152.56H275.438V153.256ZM275.378 161.956C275.714 161.5 276.026 160.78 276.218 160.228L275.426 159.88C275.246 160.408 274.922 161.104 274.562 161.512L275.378 161.956ZM276.686 160.18C276.818 160.72 276.914 161.416 276.914 161.86L277.79 161.74C277.778 161.284 277.67 160.6 277.526 160.072L276.686 160.18ZM278.21 160.108C278.474 160.588 278.738 161.224 278.822 161.644L279.65 161.356C279.542 160.948 279.29 160.336 279.002 159.88L278.21 160.108ZM279.782 159.976C280.082 160.312 280.43 160.78 280.586 161.104L281.33 160.732C281.174 160.42 280.826 159.976 280.49 159.652L279.782 159.976ZM279.17 155.008H277.454V154.396H279.17V155.008ZM281.906 155.668V156.304H280.13V155.668H281.906ZM277.454 155.668H279.17V156.304H277.454V155.668ZM276.506 156.304H274.802V155.668H276.506V156.304ZM276.506 154.396V155.008H274.802V154.396H276.506ZM277.526 153.028C277.646 153.208 277.778 153.4 277.886 153.604H273.77V156.304C273.77 157.816 273.674 159.904 272.75 161.392C272.99 161.5 273.458 161.788 273.65 161.968C274.514 160.564 274.742 158.56 274.79 156.976H275.546V159.628H282.314C282.23 160.576 282.122 160.984 282.002 161.116C281.918 161.212 281.834 161.224 281.666 161.224C281.51 161.224 281.162 161.224 280.766 161.176C280.886 161.416 280.982 161.764 280.994 162.016C281.474 162.04 281.93 162.04 282.158 162.004C282.458 161.98 282.674 161.908 282.866 161.716C283.118 161.44 283.262 160.792 283.382 159.256C283.394 159.124 283.406 158.872 283.406 158.872H276.53V158.296H283.166V157.54H276.53V156.976H282.998V155.008H280.13V154.396H283.49V153.604H278.93C278.81 153.316 278.594 153.004 278.378 152.74L277.526 153.028ZM281.318 151.696V151.012H280.238V151.696H278.63V152.56H280.238V153.256H281.318V152.56H283.646V151.696H281.318Z" fill="#8E8E93"/>
<path d="M59.9738 50.0085C59.9738 50.0085 59.0899 51.3048 59.2069 51.3956C59.3239 51.4863 59.8828 51.0067 59.8828 51.0067" stroke="white" stroke-width="0.18" stroke-linecap="round" stroke-linejoin="round"/>
<path d="M45.5578 77.5601C44.6503 77.7807 43.8522 78.3189 43.309 79.0768C42.1651 80.4638 42.646 80.749 43.309 80.3731C43.9719 79.9972 43.9719 78.8953 46.2988 78.6231C46.8058 78.5971 45.5578 77.5601 45.5578 77.5601Z" fill="#E9946F"/>
<path d="M71.8289 77.5207C72.0077 78.5813 72.2508 79.63 72.5569 80.6612C72.6536 81.0296 72.8688 81.356 73.1694 81.5905C73.47 81.8249 73.8393 81.9544 74.2208 81.959C74.9617 81.959 73.0378 81.1024 73.0248 80.0902C73.0118 79.078 73.9738 77.352 71.8289 77.5207Z" fill="#E9946F"/>
<path d="M45.129 77.508C46.7198 76.8714 48.1543 75.8996 49.3344 74.6587C50.5144 73.4179 51.4123 71.9374 51.9666 70.3183C53.5265 65.1272 55.7753 57.2496 55.7753 57.2496L58.1152 61.143C58.1152 61.143 58.9601 60.6498 54.5274 71.5252C53.7427 73.4468 52.4858 75.14 50.8728 76.4487C49.2597 77.7575 47.3425 78.6395 45.298 79.0134L45.129 77.508Z" fill="#EF9A9B"/>
<path d="M68.9045 109.615C69.2808 110.093 69.5952 110.616 69.8404 111.172C68.6743 112.051 67.3506 112.698 65.9407 113.08C65.5767 112.911 68.3065 111.263 68.1895 110.939C68.0855 110.689 67.9501 110.454 67.7866 110.238L68.9045 109.615Z" fill="#42394A"/>
<path d="M56.5941 111.003C56.7347 111.593 56.8046 112.198 56.8021 112.805C55.3726 113.129 53.8937 113.173 52.4474 112.935C52.1874 112.637 55.3592 112.261 55.3852 111.911C55.3887 111.641 55.3626 111.371 55.3072 111.107L56.5941 111.003Z" fill="#42394A"/>
<path d="M62.9248 56.0424C62.9248 56.0424 72.4922 61.8046 73.1291 77.9878L72.0112 78.3772C71.4523 78.7795 71.4133 68.6958 63.5748 61.8046C60.845 59.4167 61.4299 55.9646 62.9248 56.0424Z" fill="#EF9A9B"/>
<path d="M54.4364 77.067C54.4364 77.067 50.2116 87.3064 50.5366 94.0937C50.7186 98.2077 54.4364 111.12 54.4364 111.12L57.0362 110.926C57.0362 110.926 53.4874 98.4802 53.7734 93.5357C53.9814 89.9798 59.402 79.7274 59.402 79.7274C59.402 79.7274 57.7121 92.186 59.909 96.9748C61.4949 100.427 67.5395 110.342 67.5395 110.342L69.0474 109.498C69.0474 109.498 62.7428 97.3382 62.8728 94.0937C63.0028 90.8493 64.7317 77.5082 64.7317 77.5082C64.7317 77.5082 55.3073 77.2357 54.4364 77.067Z" fill="#439B95"/>
<path d="M54.4363 77.0667C54.4363 77.0667 57.0362 79.0523 64.8357 77.508C64.8357 77.508 66.3696 56.7436 62.5348 55.8351C58.7001 54.9267 57.5951 54.9786 55.5153 57.2497C54.0984 58.7941 53.2144 65.0364 54.4883 65.1791C55.7623 65.3219 56.3602 65.1791 56.5292 66.3341C56.6982 67.4892 54.4363 77.0667 54.4363 77.0667Z" fill="#EF9A9B"/>
<path d="M65.1475 45.1677C65.1475 45.1677 66.0055 49.061 65.1475 51.0077C64.2896 52.9543 61.7547 49.5022 61.9497 55.9132C61.9497 55.9132 59.7529 57.6003 59.4279 54.7063C58.9729 50.7611 60.1298 42.0401 65.1475 45.1677Z" fill="#E9946F"/>
<path d="M53.6304 63.3366C53.6304 63.3366 59.103 61.2213 59.9869 57.0036C60.8709 52.7858 60.6109 51.0209 63.9907 47.3742C68.5664 42.4167 60.5459 44.0389 59.272 44.4282C57.9981 44.8176 58.609 49.0742 57.3221 50.1384C56.0352 51.2026 53.2274 51.0209 53.1754 53.7721C53.1234 56.5234 54.5793 59.4434 52.9544 60.2609C51.3295 61.0785 51.4855 64.0245 53.6304 63.3366Z" fill="#42394A"/>
<path d="M65.3297 46.5822C65.394 47.7237 65.6626 48.8444 66.1226 49.8914C66.4606 50.4495 64.8227 49.8914 64.8227 49.8914C64.6623 48.7626 64.8386 47.6116 65.3297 46.5822Z" fill="#E9946F"/>
<path d="M74.4289 81.6609C74.4289 81.6609 74.9879 88.5261 77.0288 88.0719C79.0697 87.6177 80.3696 78.5592 83.2944 77.1965L84.2303 79.9738C84.2303 79.9738 82.1115 80.7784 81.7215 82.3228C81.3315 83.8671 79.8366 89.6941 76.5218 89.9926C73.207 90.2911 73.922 82.5823 73.168 81.1807C71.8291 78.702 73.948 78.676 74.4289 81.6609Z" fill="#E9946F"/>
<path d="M79.2648 84.1785C79.2648 84.1785 80.5647 85.9045 80.8377 85.6449C82.1224 83.8675 83.2284 81.9679 84.1395 79.9737C84.1395 79.3248 84.0615 76.5605 83.7235 76.7682C83.3855 76.9758 81.3057 77.3392 79.2648 84.1785Z" fill="#FFE0BC"/>
<path d="M88.975 77.067C88.975 77.067 91.1588 78.0014 92.3547 81.6481C93.5507 85.2948 94.2006 90.7325 95.9555 92.3158C96.7112 92.8671 97.6195 93.1709 98.5553 93.1853C98.5553 93.1853 95.3056 94.7685 93.4857 90.3821C92.0168 86.8651 90.2359 81.8817 89.2479 81.5183L88.975 77.067Z" fill="#E9946F"/>
<path d="M91.3278 85.6452C91.3278 85.6452 93.5897 84.9573 93.6157 84.542C93.6417 84.1267 91.9648 78.0531 88.871 76.7553C88.6251 77.8566 88.4729 78.9767 88.416 80.1036C88.416 81.2846 90.7169 83.8802 91.3278 85.6452Z" fill="#FFE0BC"/>
<path d="M81.4742 91.5885C81.4742 91.5885 80.2523 98.2331 79.9013 100.971C79.5503 103.71 81.2012 107.188 81.9292 111.444C82.2541 113.274 82.2541 112.223 82.3191 112.054C82.6051 111.328 83.0471 111.808 82.9691 111.328C82.8911 110.847 82.0072 104.008 82.3971 102.243C83.0341 99.3102 84.62 93.1588 84.62 93.1588C84.62 93.1588 86.5439 100.05 86.9208 102.71C87.0768 103.852 92.4715 109.835 92.1205 110.497C91.7695 111.159 90.8206 111.016 91.4055 111.042C91.9905 111.068 93.1344 110.757 93.1864 110.341C93.2384 109.926 88.9487 102.853 88.9747 101.088C89.0657 94.8589 88.5327 87.4875 88.9747 83.9316C89.4167 80.3757 85.5949 79.4673 84.139 79.9734C82.6831 80.4796 85.2569 81.7644 81.4742 91.5885Z" fill="#E9946F"/>
<path d="M92.6928 108.953C93.0072 109.395 93.2648 109.874 93.4597 110.379C92.5033 111.159 91.3976 111.737 90.21 112.077C89.898 111.909 92.0818 110.405 91.9908 110.094C91.9033 109.872 91.7945 109.66 91.6659 109.459L92.6928 108.953Z" fill="#42394A"/>
<path d="M78.4978 98.1295C78.4978 98.1295 89.885 99.1937 90.418 97.6104C90.6259 97.0004 90.9119 77.9362 88.7281 76.6644C86.8042 75.5353 83.6584 76.4697 83.2034 77.1964C82.2285 78.8316 78.7707 94.2621 78.4978 98.1295Z" fill="#42394A"/>
<path d="M80.5258 105.748L82.3846 105.527C82.3846 105.527 82.8786 110.484 82.9696 111.328L81.8517 111.043C81.8517 111.043 81.0977 108.045 80.5258 105.748Z" fill="#FFE0BC"/>
<path d="M88.1693 104.683C88.7711 104.394 89.3922 104.147 90.0282 103.943C90.0282 104.034 92.758 108.953 92.758 108.953L91.7311 109.459L88.1693 104.683Z" fill="#FFE0BC"/>
<path d="M87.675 76.6C87.675 76.6 88.0909 80.2468 86.609 80.714C85.6991 80.9995 84.2432 81.1942 84.1392 79.9743C84.1075 78.7105 84.4125 77.4609 85.0231 76.3534C85.2961 76.2496 87.207 74.8091 87.675 76.6Z" fill="#FFE0BC"/>
<path d="M82.9437 111.068C82.9437 111.068 83.2427 112.196 83.0867 112.365C82.9307 112.533 79.9669 112.741 79.8369 112.365C79.7069 111.989 81.6438 112.093 81.7738 111.794C81.8417 111.532 81.868 111.261 81.8518 110.991L82.9437 111.068Z" fill="#42394A"/>
<path d="M85.3484 73.2775C85.6004 74.4361 85.4152 75.6468 84.8285 76.6776C84.4255 77.5082 87.5453 77.0021 87.6623 76.5998C87.4083 75.3144 87.4083 73.9918 87.6623 72.7064C87.2582 72.629 86.8421 72.64 86.4426 72.7386C86.0432 72.8371 85.6699 73.021 85.3484 73.2775Z" fill="#E9946F"/>
<path d="M89.2221 67.9822C89.2221 67.9822 90.756 65.763 92.1599 67.2165C93.5638 68.67 92.6668 73.0175 92.8618 74.0817C93.0568 75.1458 94.8897 75.4703 94.1617 75.639C93.4338 75.8077 87.7792 76.8978 89.2221 67.9822Z" fill="#963820"/>
<path d="M84.2955 67.9825C84.2955 67.9825 82.9175 66.0489 81.5266 67.4894C80.1357 68.9299 80.8507 73.0179 80.6557 74.0821C80.4607 75.1463 79.5897 75.3799 80.3307 75.5615C81.0717 75.7432 84.8284 76.3402 84.2955 67.9825Z" fill="#963820"/>
<path d="M84.1132 68.073C84.1132 68.073 82.6703 73.5755 85.3481 74.2244C87.324 74.7046 88.8059 70.98 88.3119 68.4753C87.8179 65.9706 84.2042 66.7882 84.1132 68.073Z" fill="#E9946F"/>
<path d="M83.2425 68.9683C83.2425 68.9683 83.7494 67.2553 84.4124 66.853C85.1213 66.4119 85.9709 66.2543 86.7912 66.4117C87.382 66.5183 87.9376 66.7681 88.409 67.1392C88.8805 67.5103 89.2534 67.9914 89.4951 68.54C89.963 69.8378 89.1571 70.0714 89.4951 70.5645C89.833 71.0577 89.885 70.5645 89.651 71.447C89.4171 72.3295 87.4282 73.5234 87.5582 73.0043C87.6882 72.4852 87.9092 70.4088 87.4412 69.9935C86.9732 69.5782 82.7355 70.9149 83.2425 68.9683Z" fill="#963820"/>
<path d="M87.4931 71.1223C87.4107 71.2014 87.349 71.2994 87.3132 71.4078C87.2775 71.5162 87.2689 71.6316 87.2881 71.7441C87.3073 71.8565 87.3538 71.9626 87.4235 72.053C87.4932 72.1435 87.5841 72.2156 87.6881 72.263C88.728 72.8334 89.04 69.8 87.4931 71.1223Z" fill="#E9946F"/>
<path d="M83.7233 67.6322C83.4301 68.2607 83.2539 68.9371 83.2034 69.6285C83.2814 70.2637 82.0465 68.3063 83.7233 67.6322Z" fill="#EF9A9B"/>
<path d="M89.2222 67.9823C89.5891 68.6197 89.7985 69.3352 89.8331 70.0694C89.6771 70.7565 90.782 68.5008 89.2222 67.9823Z" fill="#EF9A9B"/>
<path d="M84.2566 70.6038C83.8791 70.9858 83.4396 71.3014 82.9567 71.5372C82.5017 71.6798 83.6976 71.7576 83.8666 71.965C84.0356 72.1724 84.9845 71.0446 84.2566 70.6038Z" fill="#E9946F"/>
<path d="M40.2413 48.2692C40.2413 48.2692 41.1382 32.5013 39.0193 30.9829C36.9005 29.4645 30.1669 30.4118 29.6339 32.1379C29.101 33.8639 28.568 46.595 28.568 46.595C28.568 46.595 39.5133 48.4768 40.2413 48.2692Z" fill="#C12B28"/>
<path d="M30.3227 33.9937C30.3227 33.9937 21.8992 33.5784 20.5083 28.0628C19.1174 22.5473 26.5919 15.9026 28.5678 15.9026C29.5167 15.9026 27.3459 16.6813 26.215 18.2776C25.084 19.8738 21.1323 26.181 25.032 28.4522C27.0529 29.6751 29.3059 30.4661 31.6486 30.7752L30.3227 33.9937Z" fill="#E9946F"/>
<path d="M39.4354 34.3821C39.4354 34.3821 47.8588 33.9668 49.2497 28.4643C50.6406 22.9617 43.2311 16.2912 41.1902 16.2912C40.2413 16.2912 42.4122 17.0698 43.5431 18.6661C44.674 20.2624 48.6387 26.5695 44.7 28.8536C42.6602 30.0761 40.3903 30.8668 38.0314 31.1766L39.4354 34.3821Z" fill="#E9946F"/>
<path d="M37.7194 50.9428C37.7194 50.9428 53.4094 56.2766 50.0686 63.1288C47.6508 68.0474 36.4065 60.5333 36.0945 59.6248C36.1696 59.0807 36.3274 58.5512 36.5625 58.0545C36.5625 58.0545 46.1169 63.5311 47.1308 61.7662C48.4307 59.534 37.0825 54.8361 37.0825 54.8361L37.7194 50.9428Z" fill="#F7B119"/>
<path d="M27.8011 50.9428C27.8011 50.9428 10.5122 57.3148 15.5559 64.2709C18.1557 67.7749 24.4603 61.4288 24.7723 60.5203C24.8633 60.2478 24.1093 59.9104 24.1093 59.9104C24.1093 59.9104 18.2337 64.5045 17.7397 62.5059C16.7908 58.7035 28.451 54.7193 28.451 54.7193L27.8011 50.9428Z" fill="#F7B119"/>
<path d="M26.9301 49.3333C27.2523 48.3044 27.8135 47.3661 28.568 46.595C29.3999 45.9202 40.8652 47.1141 40.2672 48.2691C39.9032 48.9699 37.9664 52.9281 37.9664 52.9281C37.9664 52.9281 27.4241 51.7601 26.9301 49.3333Z" fill="#FFE0BC"/>
<path d="M45.8308 110.341C45.8308 110.341 46.9488 111.483 46.9748 111.756C45.9407 112.79 44.7187 113.618 43.374 114.196C42.997 114.079 45.4669 112.067 45.2979 111.756C45.1541 111.525 44.9839 111.312 44.7909 111.12L45.8308 110.341Z" fill="#42394A"/>
<path d="M22.9134 112.444C22.9819 113.194 22.9819 113.949 22.9134 114.699C21.4465 114.87 19.9606 114.764 18.5327 114.388C18.2987 114.051 21.4835 113.999 21.5615 113.662C21.5921 113.391 21.5921 113.117 21.5615 112.846L22.9134 112.444Z" fill="#42394A"/>
<path d="M30.9341 37.5234C30.4474 37.718 30.0175 38.0315 29.6836 38.4351C29.3498 38.8387 29.1227 39.3194 29.0232 39.8334C28.5943 41.6632 30.6221 43.2594 30.9341 42.9479C31.2461 42.6365 30.9341 37.5234 30.9341 37.5234Z" fill="#963820"/>
<path d="M30.661 54.5246C30.661 54.5246 30.765 44.1424 30.83 42.8447C30.895 41.5469 34.0278 42.092 34.4178 42.8447C34.8077 43.5974 34.8467 54.5246 34.8467 54.5246H30.661Z" fill="#E9946F"/>
<path d="M35.7174 36.0442C35.7174 36.0442 36.5754 46.2187 35.7174 46.4263C34.8595 46.634 31.5967 45.7775 31.1547 44.2721C30.7128 42.7667 29.3479 37.368 35.7174 36.0442Z" fill="#E9946F"/>
<path d="M31.5318 40.8586C31.5318 40.8586 31.5318 38.4837 33.4687 38.4577C35.0026 38.4577 37.5244 38.1462 36.9655 34.9148C36.4975 32.2543 34.0927 36.0438 30.9729 37.5103C27.8531 38.9768 30.0889 43.0389 31.5318 40.8586Z" fill="#963820"/>
<path d="M34.8468 49.5409C34.8468 49.5409 32.1299 53.5381 31.649 52.8243C31.1625 51.7871 30.8464 50.6785 30.713 49.5409C30.544 48.8401 26.8133 51.5006 25.9293 56.8604C25.0454 62.2202 26.4493 76.8981 26.4493 76.8981H40.6314C40.6314 76.8981 40.9694 57.0291 39.7604 54.2648C38.5515 51.5006 34.8468 49.5409 34.8468 49.5409Z" fill="#F7B119"/>
<path d="M26.4492 76.8982C26.4492 76.8982 20.0407 91.2516 20.0407 96.261C20.0407 101.27 21.0286 112.847 21.0286 112.847H23.1475C23.1475 112.847 23.6414 98.3634 24.0184 94.8724C24.5384 90.2134 32.7538 80.3633 32.7538 80.3633C32.7538 80.3633 32.9878 95.3915 36.0946 100.064C39.2014 104.735 44.453 111.289 44.453 111.289L46.2989 110.277C46.2989 110.277 39.4354 98.3375 39.4354 95.2228C39.4354 92.1081 40.6313 76.8982 40.6313 76.8982H26.4492Z" fill="#42394A"/>
<path d="M36.3157 49.1519C36.3157 49.1519 33.7159 50.878 32.7539 56.0431C31.792 61.2082 34.3268 63.9855 34.3268 63.9855L35.1848 63.3236C34.28 61.2659 34.0683 58.9707 34.5817 56.7826C35.095 54.5946 36.3056 52.6319 38.0316 51.1894C38.0316 51.1894 38.4996 49.4374 36.3157 49.1519Z" fill="#E9946F"/>
<path d="M32.8317 54.0705C34.1111 54.5034 35.4129 54.8673 36.7314 55.1607C37.0694 55.1607 38.1093 52.0849 39.5782 49.4374C39.5782 49.4374 36.0295 47.8801 35.4315 48.1396C34.8336 48.3992 33.7026 50.6573 32.8317 54.0705Z" fill="#FFE0BC"/>
<path d="M28.932 48.1649C26.7563 50.0479 25.346 52.6606 24.9672 55.5103C24.762 57.1427 24.9136 58.8002 25.4118 60.3685C25.91 61.9368 26.7429 63.3786 27.853 64.5946L28.711 63.9328C27.3778 61.9542 26.7186 59.5995 26.831 57.2176C26.9434 54.8356 27.8214 52.5532 29.3349 50.7085C29.3349 50.7085 31.0638 48.4504 28.932 48.1649Z" fill="#E9946F"/>
<path d="M25.9293 52.0587C27.0072 52.6378 28.1285 53.1324 29.2831 53.5382C29.621 53.5382 29.803 51.9809 30.713 49.554C30.713 49.554 29.1141 47.1661 28.5161 47.4646C27.9182 47.7631 26.5662 48.8013 25.9293 52.0587Z" fill="#FFE0BC"/>
<path d="M35.6915 30.2689C38.1571 30.3321 40.6227 30.1408 43.049 29.6979C43.309 29.633 44.1929 33.9935 44.1929 33.9935C42.5098 34.6385 40.7686 35.1209 38.9933 35.4341C38.1613 35.3692 35.6915 30.2689 35.6915 30.2689Z" fill="#C12B28"/>
<path d="M27.1382 29.4382C27.1382 29.4382 25.7863 32.7734 26.3323 33.9933C28.0815 34.5689 29.8607 35.0498 31.6619 35.4339L33.4038 30.3206C33.8458 30.5932 29.738 29.9054 27.1382 29.4382Z" fill="#C12B28"/>
<path d="M33.4169 27.6867C33.4169 27.6867 33.4819 29.9708 33.4169 30.2823C33.3519 30.5938 35.0938 31.1259 36.0948 30.2823C35.861 28.905 35.7264 27.5128 35.6918 26.1163C35.6918 26.1163 33.6769 27.1676 33.4169 27.6867Z" fill="#E9946F"/>
<path d="M35.7176 38.4193C35.8827 39.4908 36.3315 40.4988 37.0175 41.3391C37.9534 42.0788 36.0166 41.7674 35.8736 42.0788C35.7306 42.3903 34.5347 39.2628 35.7176 38.4193Z" fill="#E9946F"/>
<path d="M35.1847 63.3234C35.1847 63.3234 36.1336 63.9975 36.1076 64.2308C36.0816 64.4642 33.9497 66.4864 33.6378 66.3179C33.3258 66.1494 34.8597 65.0216 34.7687 64.6586C34.6575 64.4123 34.5084 64.1849 34.3267 63.9845L35.1847 63.3234Z" fill="#42394A"/>
<path d="M28.6592 63.92C28.6592 63.92 29.6081 64.5941 29.5821 64.8275C29.5561 65.0608 27.4243 67.0831 27.1123 66.9146C26.8003 66.746 28.3342 65.6182 28.2432 65.2552C28.132 65.009 27.9829 64.7815 27.8012 64.5812L28.6592 63.92Z" fill="#42394A"/>
<path d="M26.826 58.9369C26.2118 59.0008 25.6087 59.1448 25.0321 59.3652C25.5186 61.2945 26.469 63.0763 27.8009 64.5562L28.6588 63.8944C27.7419 62.3712 27.1202 60.6895 26.826 58.9369Z" fill="#FFE0BC"/>
<path d="M34.2488 58.5213C34.2488 58.5213 32.8449 58.2747 32.5459 58.5213C32.5033 60.4912 33.1311 62.4173 34.3268 63.9849L35.1847 63.323C34.5556 61.8006 34.2374 60.1681 34.2488 58.5213Z" fill="#FFE0BC"/>
<path d="M35.3145 57.8985C35.3145 57.8985 33.1697 57.2893 32.3377 58.5597C32.0127 59.0652 34.8206 59.493 35.3145 59.1041C35.8085 58.7152 35.9905 58.1967 35.3145 57.8985Z" fill="#E67E69"/>
<path d="M24.1092 59.9089C24.1092 59.9089 26.0591 57.8477 27.307 58.7292C27.801 59.0663 25.0582 60.6867 24.4602 60.5052C23.8623 60.3237 24.1092 59.9089 24.1092 59.9089Z" fill="#E67E69"/>
<path d="M32.26 22.0023C32.26 22.0023 31.22 27.5827 33.9368 28.0499C35.9387 28.3873 37.1476 24.5589 36.5367 22.1061C35.9257 19.6534 32.26 20.7175 32.26 22.0023Z" fill="#E9946F"/>
<path d="M36.1336 24.4547C36.1336 24.4547 35.2886 25.5307 35.9906 26.127C37.2125 27.1511 39.2404 23.6899 36.1336 24.4547Z" fill="#E9946F"/>
<path d="M31.8701 20.0915C31.7976 20.2342 31.7559 20.3904 31.7477 20.5502C31.7396 20.7099 31.7651 20.8696 31.8227 21.0189C31.8803 21.1681 31.9687 21.3037 32.0821 21.4167C32.1955 21.5297 32.3314 21.6176 32.481 21.6748C34.0669 22.2588 34.9638 21.558 35.6268 22.2848C36.2898 23.0115 35.9258 25.2956 36.3158 25.3346C36.9059 24.8968 37.3471 24.2885 37.5796 23.5922C37.8121 22.8958 37.8247 22.145 37.6157 21.4412C36.9527 19.6243 33.7159 20.6106 33.6249 19.4167C33.5339 18.2227 32.065 19.1831 31.8701 20.0915Z" fill="#42394A"/>
<path d="M32.195 24.622C32.195 24.622 31.311 24.6998 31.22 24.622C31.129 24.5443 32.117 23.5202 32.13 22.9757C32.143 22.4312 33.8199 24.4794 32.195 24.622Z" fill="#E9946F"/>
<path d="M31.5319 40.2619C31.5319 40.2619 31.2979 42.1048 31.7529 42.5849C32.2078 43.0651 36.0036 41.4689 36.2376 42.1437C36.4716 42.8186 37.1995 45.7256 35.7046 46.4264C34.2097 47.1272 30.8429 45.5439 30.9209 42.2475C30.9989 38.9511 31.3109 39.5871 31.5319 40.2619Z" fill="#963820"/>
<path d="M31.1291 42.6217C31.1291 42.6217 31.532 40.2235 30.5311 40.5606C29.5302 40.8976 30.3491 44.1255 31.1291 42.6217Z" fill="#E9946F"/>
<path d="M100.713 18.6263C100.713 18.6263 104.327 15.33 108.032 20.7027C110.398 24.1289 110.073 33.5767 110.931 35.1729C111.789 36.7692 117.43 46.4506 108.24 49.4484C97.5415 52.8745 91.6529 46.3338 93.4858 40.6884C95.3187 35.0431 96.8396 35.2378 97.1646 32.0583C97.8275 25.2579 98.3475 19.7035 100.713 18.6263Z" fill="#6AAF9F"/>
<path d="M103.027 54.161C103.027 54.161 102.559 24.8442 103.235 25.2725C103.911 25.7007 103.794 54.161 103.794 54.161H103.027Z" fill="#4F4558"/>
<path d="M103.287 35.2653C103.287 35.2653 98.1915 29.3343 98.6985 29.3343C99.2055 29.3343 103.287 34.5255 103.287 34.5255L107.928 29.0228C108.929 29.4122 103.287 35.2653 103.287 35.2653Z" fill="#4F4558"/>
<path d="M103.287 41.157C103.287 41.157 98.1915 35.2392 98.6985 35.2392C99.2055 35.2392 103.287 40.4303 103.287 40.4303L107.928 34.9277C108.929 35.369 103.287 41.157 103.287 41.157Z" fill="#4F4558"/>
<path d="M103.287 47.3873C103.287 47.3873 98.1915 41.4563 98.6985 41.4563C99.2055 41.4563 103.287 46.6475 103.287 46.6475L107.928 41.1319C108.929 41.5342 103.287 47.3873 103.287 47.3873Z" fill="#4F4558"/>
<path d="M82.2283 30.0352C82.2283 30.0352 85.2571 27.258 88.3769 31.7872C90.3658 34.6553 90.0928 42.5976 90.8208 43.9343C91.5487 45.2711 96.2414 53.4211 88.5589 55.8868C79.5635 58.7679 74.6108 53.2913 76.1577 48.5285C77.7046 43.7656 78.9786 43.9343 79.2515 41.2739C79.8495 35.6156 80.2655 30.9307 82.2283 30.0352Z" fill="#98D5CC"/>
<path d="M84.1524 59.8975C84.1524 59.8975 83.7495 35.2398 84.3214 35.6162C84.8934 35.9925 84.8284 59.8975 84.8284 59.8975H84.1524Z" fill="#4F4558"/>
<path d="M84.4124 44.0257C84.4124 44.0257 80.1357 39.0423 80.5127 39.0423C80.8896 39.0423 84.4124 43.4158 84.4124 43.4158L88.3121 38.7828C89.1571 39.0942 84.4124 44.0257 84.4124 44.0257Z" fill="#4F4558"/>
<path d="M84.4124 48.9702C84.4124 48.9702 80.1357 43.9866 80.5127 43.9866C80.8896 43.9866 84.4124 48.3732 84.4124 48.3732L88.3121 43.74C89.1571 44.0515 84.4124 48.9702 84.4124 48.9702Z" fill="#4F4558"/>
<path d="M84.4124 54.1997C84.4124 54.1997 80.1357 49.2163 80.5127 49.2163C80.8896 49.2163 84.4124 53.6027 84.4124 53.6027L88.3121 48.9697C89.1571 49.2812 84.4124 54.1997 84.4124 54.1997Z" fill="#4F4558"/>
</svg>
