<svg width="300" height="180" viewBox="0 0 300 180" fill="none" xmlns="http://www.w3.org/2000/svg">
<rect width="300" height="180" rx="5" fill="white"/>
<path d="M227.177 123.03L227.753 122.454C227.429 122.148 226.925 121.824 226.403 121.5H228.887C228.851 122.076 228.833 122.58 228.797 123.03H227.177ZM224.261 121.5L223.595 122.148C224.081 122.382 224.621 122.706 225.089 123.03H222.119C222.191 122.544 222.263 122.022 222.335 121.5H224.261ZM224.387 117.882L223.703 118.548C224.153 118.764 224.639 119.052 225.089 119.358H222.605L222.785 117.882H224.387ZM228.977 119.358H227.357L227.861 118.854C227.519 118.548 227.015 118.206 226.475 117.882H229.013L228.977 119.358ZM234.161 121.59V119.268H231.551C231.569 118.494 231.605 117.648 231.623 116.712C231.623 116.406 231.641 115.614 231.641 115.614H221.291C221.543 115.236 221.813 114.858 222.065 114.462H233.441V112.14H223.415C223.559 111.852 223.703 111.546 223.829 111.258L221.219 110.502C220.319 112.698 218.735 114.984 217.079 116.334C217.727 116.676 218.879 117.414 219.419 117.846C219.707 117.558 219.995 117.234 220.283 116.892C220.211 117.666 220.121 118.458 220.013 119.268H217.223V121.59H219.707C219.491 122.958 219.275 124.254 219.059 125.298H228.455C228.419 125.388 228.383 125.46 228.347 125.514C228.167 125.766 228.005 125.82 227.699 125.82C227.321 125.838 226.691 125.82 225.935 125.748C226.259 126.306 226.529 127.17 226.547 127.728C227.483 127.764 228.401 127.764 229.031 127.656C229.679 127.548 230.201 127.332 230.651 126.666C230.831 126.414 230.975 125.982 231.101 125.298H233.297V123.03H231.353C231.389 122.598 231.425 122.112 231.443 121.59H234.161ZM240.921 123.66V120.15H248.391V123.66H240.921ZM248.391 114.264V117.558H240.921V114.264H248.391ZM238.221 111.618V127.494H240.921V126.306H248.391V127.494H251.217V111.618H238.221ZM265.681 121.374V122.202H264.421V121.374H265.681ZM269.263 122.202H268.003V121.374H269.263V122.202ZM268.003 124.956V124.11H269.263V124.956H268.003ZM264.421 124.11H265.681V124.956H264.421V124.11ZM262.027 119.574C261.559 119.178 260.965 118.692 260.551 118.386C261.253 117.252 261.847 116.01 262.279 114.75L260.839 113.832L260.407 113.922H258.661L260.011 113.256C259.687 112.554 259.075 111.492 258.517 110.664L256.483 111.564C256.915 112.266 257.419 113.22 257.743 113.922H255.511V116.262H259.093C258.085 118.152 256.519 119.862 254.827 120.834C255.205 121.32 255.817 122.652 256.015 123.354C256.519 123.012 257.023 122.616 257.509 122.166V127.728H260.065V120.852C260.479 121.338 260.875 121.842 261.145 122.238L262.027 121.032V127.674H264.421V127.026H269.263V127.674H271.783V119.304H262.027V119.574ZM268.615 116.784H265.213V115.902H268.615V116.784ZM262.909 113.958V118.728H271.027V113.958H262.909ZM261.919 111.294V113.472H271.819V111.294H261.919ZM280.253 113.58C281.279 113.328 282.251 113.022 283.133 112.662L281.297 110.664C279.515 111.474 276.743 112.176 274.151 112.59C274.439 113.13 274.799 114.03 274.907 114.624C275.771 114.498 276.689 114.354 277.607 114.174V115.92H274.403V118.332H277.139C276.365 120.006 275.195 121.824 273.989 122.994C274.403 123.696 275.051 124.812 275.303 125.586C276.149 124.686 276.923 123.462 277.607 122.112V127.692H280.253V121.914C280.811 122.526 281.351 123.156 281.729 123.66L283.205 121.392C282.773 121.032 281.171 119.7 280.253 119.034V118.332H283.241V115.92H280.253V113.58ZM286.679 112.824H284.069V123.03H286.679V112.824ZM287.939 110.952V124.578C287.939 124.92 287.795 125.028 287.453 125.028C287.057 125.028 285.869 125.028 284.735 124.974C285.113 125.712 285.527 126.936 285.635 127.692C287.291 127.692 288.587 127.602 289.433 127.188C290.261 126.756 290.531 126.054 290.531 124.596V110.952H287.939Z" fill="#182B56"/>
<path d="M227.96 158.836L228.632 158.62C228.536 158.272 228.26 157.72 227.984 157.288H232.112C231.944 157.744 231.644 158.356 231.38 158.836H227.96ZM235.412 156.304H230.564V155.116H234.2V154.144H230.564V152.968H229.412V154.144H225.896V155.116H229.412V156.304H224.66V157.288H227.66L226.868 157.528C227.096 157.936 227.36 158.452 227.48 158.836H225.62V159.808H229.412V161.044H224.972V162.028H229.412V163.96H230.564V162.028H235.088V161.044H230.564V159.808H234.524V158.836H232.508C232.772 158.44 233.072 157.984 233.336 157.54L232.328 157.288H235.412V156.304ZM246.588 157.264V157.912H245.028V157.264H246.588ZM246.588 159.256H245.028V158.596H246.588V159.256ZM242.352 159.256V158.596H243.948V159.256H242.352ZM242.352 157.264H243.948V157.912H242.352V157.264ZM241.668 155.944H243.948V156.544H241.392V159.976H243.948V160.564H240.792V161.404H243.948V162.316H245.028V161.404H248.232V160.564H245.028V159.976H247.584V156.544H245.028V155.944H247.08V155.14H245.028V154.588H243.948V155.14H241.74V154.18H247.128V155.572H248.196V153.328H240.708V155.572H241.668V155.944ZM239.868 154.9C239.712 154.384 239.424 153.592 239.208 152.968L238.224 153.256C238.416 153.892 238.716 154.744 238.848 155.272L239.868 154.9ZM239.928 158.404L239.76 158.44H239.316C239.628 157.612 239.964 156.628 240.252 155.776H237.6V156.784H238.848C238.548 157.72 238.176 158.692 237.864 159.4H239.412C239.256 160.18 239.004 161.044 238.704 161.692C238.284 161.908 237.84 162.4 237.408 162.976L238.164 164.008C238.488 163.276 238.896 162.496 239.172 162.496C239.424 162.496 239.868 162.916 240.348 163.192C241.212 163.696 242.244 163.828 243.816 163.828C245.22 163.828 247.416 163.756 248.352 163.696C248.376 163.396 248.544 162.844 248.676 162.544C247.344 162.712 245.328 162.82 243.864 162.82C242.46 162.82 241.368 162.748 240.528 162.244C240.168 162.028 239.928 161.836 239.724 161.716C240.108 160.828 240.408 159.724 240.588 158.704L239.928 158.404ZM261.292 157.408V156.256H256.456C256.6 155.068 256.612 153.916 256.624 152.944H255.412C255.4 153.904 255.412 155.056 255.268 156.256H250.804V157.408H255.064C254.584 159.58 253.42 161.74 250.564 162.988C250.876 163.228 251.236 163.624 251.416 163.924C254.14 162.64 255.436 160.564 256.048 158.392C256.984 160.936 258.436 162.88 260.68 163.924C260.86 163.588 261.232 163.12 261.508 162.88C259.24 161.932 257.728 159.904 256.912 157.408H261.292ZM271.892 158.32H272.924L272.528 158.512C272.66 158.656 272.804 158.8 272.936 158.968L271.892 158.98V158.32ZM269.684 157.672V157.048H270.932V157.672H269.684ZM269.684 155.824H270.932V156.424H269.684V155.824ZM273.188 155.824V156.424H271.892V155.824H273.188ZM273.188 157.672H271.892V157.048H273.188V157.672ZM268.496 159.856C269.816 159.82 271.688 159.772 273.524 159.724C273.644 159.892 273.74 160.048 273.812 160.192L274.604 159.76C274.364 159.34 273.908 158.776 273.452 158.32H274.124V155.176H271.892V154.612H274.376V153.772H271.892V152.932H270.932V153.772H268.544V154.612H270.932V155.176H268.784V158.32H270.932V159.004C269.984 159.016 269.108 159.028 268.424 159.04L268.496 159.856ZM264.716 158.392H265.64V159.304H264.716V158.392ZM264.716 156.712H265.64V157.612H264.716V156.712ZM267.344 157.612H266.396V156.712H267.344V157.612ZM267.344 159.304H266.396V158.392H267.344V159.304ZM273.128 159.892H272.096V160.456H268.424V160.96H266.516V160.12H268.184V155.908H266.516V155.128H268.304V154.156H266.516V152.932H265.52V154.156H263.66V155.128H265.52V155.908H263.912V160.12H265.52V160.96H263.492V161.956H265.52V163.948H266.516V161.956H268.46V161.308H269.768L269.06 161.716C269.504 162.136 269.936 162.748 270.14 163.168L270.956 162.64C270.752 162.244 270.308 161.704 269.864 161.308H272.096V162.892C272.096 163.024 272.048 163.072 271.88 163.084C271.712 163.084 271.148 163.084 270.596 163.06C270.728 163.324 270.872 163.696 270.92 163.972C271.712 163.972 272.264 163.972 272.648 163.816C273.02 163.684 273.128 163.432 273.128 162.928V161.308H274.532V160.456H273.128V159.892ZM279.024 160.96H280.308V162.712H279.024V160.96ZM282.636 160.96V162.712H281.328V160.96H282.636ZM284.964 160.96V162.712H283.656V160.96H284.964ZM286.056 160.096H277.98V162.712H276.612V163.6H287.448V162.712H286.056V160.096ZM280.104 158.308C279.96 158.008 279.588 157.6 279.24 157.336L278.688 157.708C279.036 158.008 279.384 158.416 279.528 158.716L280.104 158.308ZM278.808 155.152C279.12 155.44 279.432 155.836 279.576 156.124L280.176 155.764C280.02 155.476 279.696 155.092 279.372 154.84L278.808 155.152ZM285.348 157.132C285.084 157.48 284.736 157.792 284.34 158.044C283.932 157.78 283.596 157.468 283.356 157.132H285.348ZM278.436 154.576H280.692V156.256C279.9 156.292 279.132 156.328 278.436 156.352C278.436 156.232 278.436 156.112 278.436 155.992V154.576ZM286.116 156.316L285.936 156.352H282.36C283.38 155.764 283.62 154.912 283.62 154.18V154.168H285V154.78C285 155.608 285.18 155.932 286.008 155.932H286.836C287.076 155.932 287.34 155.92 287.484 155.86C287.448 155.644 287.424 155.308 287.4 155.08C287.268 155.116 286.98 155.128 286.812 155.128H286.104C285.936 155.128 285.912 155.044 285.912 154.792V153.352H282.732V154.156C282.732 154.684 282.588 155.236 281.664 155.692C281.82 155.812 282.108 156.136 282.252 156.352H282.144V157.132H283.104L282.432 157.336C282.708 157.768 283.044 158.152 283.452 158.488C282.9 158.716 282.276 158.884 281.604 159.004C281.604 158.944 281.604 158.884 281.604 158.812V156.904L281.844 156.892L281.868 156.196L281.604 156.208V153.796H279.816C279.924 153.568 280.044 153.328 280.176 153.052L279.192 152.92C279.12 153.172 278.988 153.496 278.856 153.796H277.548V155.98C277.548 156.1 277.548 156.232 277.536 156.376L276.528 156.412L276.588 157.216L277.476 157.168C277.368 157.996 277.104 158.848 276.432 159.544C276.624 159.652 276.984 159.964 277.128 160.144C277.932 159.316 278.256 158.176 278.376 157.132C279.108 157.084 279.9 157.036 280.692 156.988V158.8C280.692 158.932 280.656 158.968 280.524 158.968C280.392 158.98 280.008 158.98 279.564 158.956C279.696 159.22 279.804 159.58 279.84 159.832C280.476 159.832 280.932 159.832 281.232 159.676C281.388 159.592 281.484 159.472 281.544 159.316C281.676 159.508 281.82 159.736 281.88 159.88C282.744 159.7 283.584 159.436 284.304 159.064C285.072 159.508 285.996 159.82 287.004 160C287.136 159.736 287.388 159.352 287.616 159.148C286.728 159.028 285.912 158.812 285.204 158.512C285.84 158.008 286.356 157.396 286.692 156.604L286.116 156.316Z" fill="#8E8E93"/>
<g opacity="0.73">
<path opacity="0.73" d="M60.0416 95.0849L59.9502 111.13L14.6341 110.882L14.7516 89.7147L54.9644 89.9499L55.1732 90.1589L59.8197 94.8628L60.0416 95.0849Z" fill="#78C2FF"/>
<path opacity="0.73" d="M60.0413 95.0837L54.9772 95.0576L55.0033 89.9879L55.0946 90.0793L55.3035 90.2884L59.702 94.744L60.0413 95.0837Z" fill="#2180CC"/>
<path opacity="0.73" d="M41.8726 100.455C41.8804 101.425 41.5997 102.375 41.0663 103.184C40.5329 103.994 39.771 104.626 38.8774 105.001C37.9839 105.376 36.9992 105.476 36.0486 105.289C35.0981 105.101 34.2247 104.635 33.5397 103.949C32.8547 103.263 32.389 102.389 32.2019 101.438C32.0148 100.486 32.1147 99.5002 32.4891 98.6057C32.8634 97.7111 33.4951 96.9483 34.3038 96.4144C35.1125 95.8804 36.0616 95.5994 37.0304 95.6071C38.3125 95.614 39.5402 96.1269 40.4468 97.0346C41.3534 97.9422 41.8658 99.1712 41.8726 100.455Z" fill="#2180CC"/>
<path opacity="0.73" d="M51.8713 100.507C51.8685 100.918 51.7435 101.318 51.5123 101.657C51.2811 101.996 50.9542 102.258 50.5734 102.41C50.1926 102.563 49.7751 102.598 49.3743 102.511C48.9734 102.425 48.6075 102.22 48.3232 101.925C48.0389 101.629 47.8491 101.255 47.7781 100.851C47.7071 100.446 47.7581 100.03 47.9246 99.6548C48.0911 99.2797 48.3655 98.9627 48.7128 98.7445C49.0601 98.5263 49.4645 98.4166 49.8743 98.4296C50.4121 98.4467 50.922 98.6735 51.2951 99.0616C51.6682 99.4497 51.8749 99.9685 51.8713 100.507Z" fill="#2180CC"/>
<path opacity="0.73" d="M22.1386 100.337C22.1412 99.9288 22.2647 99.5304 22.4934 99.1924C22.7221 98.8543 23.0459 98.5917 23.4237 98.4379C23.8015 98.284 24.2164 98.2457 24.6159 98.3279C25.0154 98.4101 25.3816 98.6091 25.6681 98.8997C25.9547 99.1902 26.1488 99.5593 26.2258 99.9603C26.3029 100.361 26.2594 100.776 26.1009 101.152C25.9425 101.529 25.6761 101.849 25.3356 102.074C24.995 102.299 24.5956 102.417 24.1877 102.415C23.9169 102.413 23.6491 102.358 23.3996 102.253C23.15 102.147 22.9236 101.994 22.7334 101.801C22.5431 101.608 22.3926 101.379 22.2906 101.128C22.1885 100.877 22.1369 100.608 22.1386 100.337Z" fill="#2180CC"/>
</g>
<g opacity="0.73">
<path opacity="0.73" d="M119.231 70.6901L127.911 84.1877L89.7863 108.739L78.3528 90.943L112.17 69.1613L112.47 69.2266L118.918 70.6248L119.231 70.6901Z" fill="#78C2FF"/>
<path opacity="0.73" d="M119.232 70.6904L114.964 73.4342L112.223 69.1747L112.354 69.2009L112.641 69.2662L118.762 70.5858L119.232 70.6904Z" fill="#2180CC"/>
<path opacity="0.73" d="M106.937 85.1543C107.457 85.9652 107.725 86.9121 107.708 87.8755C107.69 88.8388 107.388 89.7754 106.839 90.5669C106.29 91.3583 105.519 91.9691 104.624 92.3221C103.728 92.6751 102.748 92.7544 101.807 92.55C100.867 92.3456 100.008 91.8667 99.3391 91.1738C98.6703 90.4809 98.2217 89.6051 98.0499 88.6571C97.8781 87.709 97.9909 86.7312 98.374 85.8473C98.757 84.9634 99.3932 84.213 100.202 83.6909C101.29 82.9931 102.609 82.7553 103.872 83.0296C105.134 83.3039 106.236 84.0679 106.937 85.1543Z" fill="#2180CC"/>
<path opacity="0.73" d="M115.343 79.7057C115.638 80.1666 115.739 80.7264 115.623 81.2618C115.507 81.7972 115.183 82.2645 114.723 82.5608C114.262 82.8571 113.703 82.9581 113.168 82.8417C112.633 82.7253 112.167 82.401 111.871 81.9401C111.724 81.7119 111.624 81.457 111.576 81.19C111.528 80.923 111.532 80.6492 111.59 80.3841C111.648 80.1189 111.757 79.8678 111.911 79.6449C112.066 79.422 112.263 79.2318 112.491 79.0851C112.719 78.9384 112.973 78.8381 113.24 78.7898C113.507 78.7416 113.78 78.7465 114.045 78.8041C114.31 78.8618 114.561 78.971 114.783 79.1257C115.006 79.2804 115.196 79.4775 115.343 79.7057Z" fill="#2180CC"/>
<path opacity="0.73" d="M90.3352 95.8037C90.1151 95.4597 90.0019 95.0581 90.0099 94.6496C90.0179 94.2412 90.1468 93.8444 90.3802 93.5093C90.6136 93.1742 90.941 92.916 91.3211 92.7673C91.7011 92.6186 92.1167 92.5861 92.5152 92.6739C92.9137 92.7618 93.2772 92.966 93.5597 93.2607C93.8422 93.5555 94.031 93.9275 94.1023 94.3297C94.1735 94.732 94.1239 95.1463 93.9599 95.5203C93.7958 95.8943 93.5246 96.2112 93.1805 96.4309C92.72 96.7249 92.1617 96.824 91.6283 96.7064C91.0949 96.5888 90.6298 96.2641 90.3352 95.8037Z" fill="#2180CC"/>
</g>
<g opacity="0.73">
<path opacity="0.73" d="M68.1996 63.8557L59.6114 77.4186L21.3434 53.1021L32.6724 35.2404L66.6203 56.7999L66.6856 57.1004L68.1343 63.5552L68.1996 63.8557Z" fill="#78C2FF"/>
<path opacity="0.73" d="M68.1986 63.8556L63.9176 61.1509L66.6324 56.852L66.6585 56.9827L66.7237 57.2702L68.0942 63.3852L68.1986 63.8556Z" fill="#2180CC"/>
<path opacity="0.73" d="M49.9654 58.7468C49.4506 59.5653 48.7047 60.2125 47.8221 60.6064C46.9396 61.0002 45.9602 61.123 45.0079 60.9591C44.0556 60.7953 43.1733 60.3522 42.4728 59.686C41.7722 59.0198 41.2849 58.1604 41.0726 57.2168C40.8603 56.2731 40.9325 55.2876 41.2801 54.385C41.6277 53.4825 42.235 52.7035 43.0251 52.1467C43.8153 51.59 44.7527 51.2805 45.7187 51.2575C46.6847 51.2346 47.6357 51.4991 48.4514 52.0176C49.5416 52.7107 50.313 53.8079 50.5968 55.0691C50.8805 56.3304 50.6535 57.6528 49.9654 58.7468Z" fill="#2180CC"/>
<path opacity="0.73" d="M58.3973 64.1034C58.2536 64.3347 58.0655 64.5353 57.8439 64.6935C57.6224 64.8517 57.3717 64.9645 57.1064 65.0252C56.8411 65.086 56.5664 65.0936 56.2981 65.0476C56.0299 65.0016 55.7734 64.9029 55.5434 64.7572C55.3135 64.6115 55.1146 64.4216 54.9583 64.1986C54.8019 63.9756 54.6913 63.7238 54.6326 63.4577C54.574 63.1916 54.5685 62.9166 54.6165 62.6484C54.6645 62.3802 54.7651 62.1242 54.9125 61.8951C55.2065 61.4494 55.6608 61.1342 56.1809 61.0149C56.7011 60.8957 57.2471 60.9816 57.7056 61.2549C57.9387 61.3956 58.1416 61.5812 58.3027 61.8009C58.4638 62.0206 58.5798 62.27 58.6441 62.5349C58.7085 62.7997 58.7197 63.0746 58.6774 63.3438C58.635 63.613 58.5399 63.8712 58.3973 64.1034Z" fill="#2180CC"/>
<path opacity="0.73" d="M33.2978 48.1627C33.5172 47.8182 33.8337 47.5467 34.2073 47.3825C34.5809 47.2182 34.9948 47.1686 35.3966 47.2399C35.7983 47.3112 36.1699 47.5002 36.4644 47.7831C36.7588 48.0659 36.9628 48.4298 37.0505 48.8288C37.1382 49.2277 37.1058 49.6437 36.9573 50.0242C36.8087 50.4047 36.5508 50.7325 36.2161 50.9661C35.8814 51.1998 35.485 51.3288 35.077 51.3368C34.6691 51.3448 34.2679 51.2315 33.9243 51.0112C33.4643 50.7162 33.1401 50.2507 33.0226 49.7166C32.9051 49.1826 33.0041 48.6237 33.2978 48.1627Z" fill="#2180CC"/>
</g>
<g opacity="0.73">
<path opacity="0.73" d="M105.788 16.8434L115.564 29.557L79.6324 57.2185L66.7502 40.4413L98.6228 15.9026L98.923 15.9418L105.475 16.7911L105.788 16.8434Z" fill="#78C2FF"/>
<path opacity="0.73" d="M105.787 16.8438L101.767 19.9274L98.674 15.9162L98.8045 15.9292L99.1047 15.9684L105.304 16.7785L105.787 16.8438Z" fill="#2180CC"/>
<path opacity="0.73" d="M94.7465 32.236C95.3366 33.0015 95.6867 33.925 95.7523 34.8897C95.818 35.8544 95.5963 36.8169 95.1154 37.6554C94.6344 38.4939 93.9157 39.1708 93.0504 39.6002C92.185 40.0297 91.2119 40.1926 90.254 40.0681C89.2962 39.9437 88.3968 39.5376 87.6696 38.9012C86.9424 38.2648 86.4201 37.4268 86.1689 36.4931C85.9176 35.5595 85.9487 34.5722 86.2581 33.6562C86.5676 32.7403 87.1415 31.9368 87.9073 31.3475C88.9324 30.5586 90.2282 30.2091 91.5104 30.3757C92.7926 30.5423 93.9564 31.2113 94.7465 32.236Z" fill="#2180CC"/>
<path opacity="0.73" d="M102.655 26.1468C102.905 26.4703 103.052 26.8608 103.08 27.2686C103.108 27.6764 103.014 28.0832 102.81 28.4376C102.607 28.7919 102.303 29.0778 101.937 29.2589C101.571 29.4401 101.159 29.5084 100.754 29.4552C100.35 29.4021 99.9696 29.2298 99.6626 28.9602C99.3557 28.6906 99.1356 28.3359 99.0303 27.941C98.9249 27.5461 98.939 27.1288 99.0708 26.7419C99.2026 26.355 99.4462 26.016 99.7706 25.7678C99.9844 25.6021 100.229 25.4804 100.49 25.4097C100.751 25.339 101.024 25.3207 101.292 25.3559C101.56 25.3912 101.818 25.4792 102.052 25.6149C102.286 25.7506 102.491 25.9314 102.655 26.1468Z" fill="#2180CC"/>
<path opacity="0.73" d="M79.0971 44.2829C78.9309 44.0696 78.8084 43.8255 78.7368 43.5647C78.6651 43.3038 78.6457 43.0314 78.6797 42.763C78.7136 42.4946 78.8003 42.2356 78.9347 42.0009C79.069 41.7662 79.2485 41.5604 79.4626 41.3953C79.7846 41.1439 80.174 40.9938 80.5813 40.9642C80.9886 40.9345 81.3956 41.0266 81.7505 41.2288C82.1055 41.4309 82.3925 41.734 82.5752 42.0997C82.7579 42.4653 82.828 42.877 82.7767 43.2826C82.7254 43.6882 82.5549 44.0694 82.2869 44.3779C82.0189 44.6864 81.6654 44.9083 81.2713 45.0154C80.8772 45.1225 80.4601 45.1101 80.0731 44.9797C79.686 44.8493 79.3464 44.6068 79.0971 44.2829Z" fill="#2180CC"/>
</g>
</svg>
