<svg width="300" height="180" viewBox="0 0 300 180" fill="none" xmlns="http://www.w3.org/2000/svg">
<rect width="300" height="180" rx="5" fill="white"/>
<path d="M227.861 113.472C226.835 112.698 225.071 111.42 223.667 110.556L221.975 112.464C223.343 113.4 225.125 114.768 226.133 115.632L227.861 113.472ZM218.771 115.164C218.465 117.378 217.817 119.574 216.971 121.14L219.545 122.058C220.373 120.528 220.913 118.008 221.291 115.794L218.771 115.164ZM234.341 121.914C233.873 120.456 232.811 118.35 231.731 116.712L229.661 117.702C230.885 116.082 231.947 114.39 232.829 112.698L230.183 111.654C228.941 114.318 226.961 117.144 224.459 119.628V114.48H221.669V122.058C220.229 123.156 218.681 124.11 217.043 124.866C217.583 125.388 218.357 126.342 218.753 126.954C219.797 126.432 220.805 125.856 221.759 125.208C222.029 126.918 222.929 127.458 225.107 127.458H228.023C230.399 127.458 231.155 126.36 231.479 123.084C230.723 122.922 229.535 122.436 228.923 121.986C228.779 124.38 228.635 124.848 227.771 124.848H225.467C224.567 124.848 224.459 124.74 224.459 123.768V123.192C226.349 121.626 228.005 119.844 229.445 117.99C230.417 119.628 231.443 121.788 231.803 123.21L234.341 121.914ZM240.057 120.582H239.121V114.642H240.057V120.582ZM246.681 124.848C245.961 124.848 245.547 124.704 245.547 124.272C245.547 123.678 245.997 122.85 252.135 118.314C252.279 118.17 252.405 117.99 252.477 117.864L250.731 116.874L250.155 116.946H244.521C244.881 116.478 245.241 115.974 245.565 115.434H252.819V113.004H246.843C247.095 112.428 247.329 111.834 247.527 111.24L244.953 110.61C244.431 112.356 243.513 114.066 242.415 115.326V112.122H236.745V124.596H239.121V123.12H242.415V116.64C242.919 117.036 243.459 117.504 243.765 117.81C243.891 117.684 243.999 117.558 244.125 117.414V119.358H246.807C243.081 122.562 242.847 123.588 242.847 124.65C242.847 126.306 244.053 127.404 246.735 127.404H249.939C252.171 127.404 253.161 126.666 253.431 123.264C252.657 123.12 251.829 122.832 251.109 122.436C251.037 124.596 250.749 124.848 250.101 124.848H246.681ZM271.405 123.48V121.284H264.601C264.637 121.068 264.655 120.852 264.691 120.618H272.053V118.35H264.997V117.72H270.397V115.542H264.997V114.948H271.279V112.662H268.021C268.363 112.212 268.723 111.672 269.083 111.114L266.239 110.448C265.969 111.132 265.519 111.996 265.087 112.662H261.577L262.045 112.464C261.829 111.87 261.325 111.042 260.803 110.448L258.463 111.348C258.751 111.726 259.039 112.212 259.255 112.662H256.033V114.948H262.297V115.542H257.095V117.72H262.297V118.35H255.511V120.618H261.919C261.883 120.852 261.865 121.068 261.829 121.284H255.925V123.48H260.803C259.921 124.344 258.265 124.938 255.079 125.334C255.583 125.91 256.195 126.99 256.393 127.692C261.217 126.918 263.161 125.532 264.043 123.48H264.583L263.737 124.938C265.969 125.694 269.317 126.954 270.901 127.746L272.125 125.46C270.829 124.902 268.543 124.092 266.599 123.48H271.405ZM277.607 116.19C278.525 115.794 279.425 115.326 280.289 114.822V115.884H285.023V114.948C285.869 115.416 286.733 115.83 287.615 116.19H277.607ZM287.831 122.382C287.273 122.76 286.643 123.156 286.049 123.516C285.221 123.102 284.393 122.706 283.655 122.382H287.831ZM279.731 124.902V122.382H283.169L281.639 123.75C282.179 124.002 282.773 124.29 283.385 124.614L279.731 124.902ZM279.731 120.114H285.473V120.546H279.731V120.114ZM285.473 118.494H279.731V118.008H285.473V118.494ZM281.297 114.192C281.711 113.922 282.107 113.634 282.485 113.328C282.881 113.616 283.295 113.904 283.745 114.192H281.297ZM282.125 110.322C280.451 112.392 277.193 113.976 274.187 114.84C274.781 115.416 275.447 116.28 275.771 116.91C276.239 116.748 276.707 116.568 277.157 116.37V124.182C277.157 125.028 276.671 125.568 276.239 125.856C276.617 126.234 277.157 127.152 277.337 127.674C277.931 127.422 278.831 127.26 283.727 126.756C283.673 126.27 283.673 125.442 283.727 124.794C285.491 125.73 287.291 126.828 288.299 127.656L290.153 125.91C289.649 125.532 288.983 125.1 288.227 124.686C289.019 124.254 289.847 123.786 290.585 123.318L288.695 121.734C288.515 121.878 288.335 122.022 288.119 122.166V116.388C288.677 116.604 289.253 116.802 289.793 116.964C290.153 116.334 290.909 115.308 291.485 114.786C288.857 114.192 285.923 113.094 284.069 111.87C284.195 111.744 284.321 111.6 284.447 111.456L282.125 110.322Z" fill="#182B56"/>
<path d="M218.512 161.008V161.932H215.44V161.008H218.512ZM219.496 162.736V160.204H214.408V163.288H215.44V162.736H219.496ZM221.908 158.692H212.152V163.948H213.244V159.616H220.78V162.844C220.78 162.988 220.72 163.036 220.564 163.036C220.432 163.048 219.832 163.048 219.328 163.024C219.46 163.264 219.616 163.6 219.676 163.852C220.48 163.864 221.032 163.852 221.404 163.72C221.776 163.576 221.908 163.372 221.908 162.844V158.692ZM219.508 157.324H214.588V156.436H219.508V157.324ZM213.484 155.656V158.116H220.684V155.656H213.484ZM217.792 154.132C217.672 153.748 217.48 153.268 217.324 152.884L216.196 153.148C216.304 153.448 216.424 153.808 216.532 154.132H211.768V155.08H222.232V154.132H217.792ZM229.712 155.92V154.852H227.324C227.396 154.264 227.468 153.652 227.528 153.028L226.46 152.932C226.412 153.58 226.352 154.228 226.268 154.852H224.78V155.92H226.1C225.764 157.972 225.224 159.76 224.324 160.996C224.588 161.14 225.068 161.476 225.26 161.632C226.208 160.192 226.796 158.224 227.168 155.92H229.712ZM228.212 159.748C228.392 160.372 228.596 161.092 228.764 161.788L226.976 162.088C227.624 160.744 228.248 159.052 228.668 157.444L227.612 157.192C227.264 158.98 226.52 160.96 226.268 161.452C226.028 161.968 225.848 162.316 225.62 162.388C225.752 162.64 225.92 163.132 225.968 163.336C226.196 163.192 226.58 163.096 228.968 162.664C229.028 162.976 229.088 163.252 229.124 163.516L230.024 163.192C229.856 162.172 229.436 160.66 229.04 159.472L228.212 159.748ZM232.292 153.4C232.58 153.964 232.916 154.684 233.048 155.164L234.044 154.792C233.9 154.336 233.552 153.616 233.24 153.088L232.292 153.4ZM231.332 160.9H232.796V162.34H231.332V160.9ZM232.796 156.16V157.588H231.332V156.16H232.796ZM232.796 159.952H231.332V158.536H232.796V159.952ZM235.412 162.34H233.804V160.9H235.256V159.952H233.804V158.536H235.244V157.588H233.804V156.16H235.28V155.176H231.236C231.512 154.552 231.752 153.892 231.956 153.244L231.008 152.992C230.552 154.564 229.796 156.148 228.908 157.18C229.112 157.384 229.436 157.84 229.556 158.056C229.832 157.732 230.096 157.336 230.348 156.916V163.936H231.332V163.348H235.412V162.34ZM245.244 159.52H247.8V158.488H245.244V156.328H244.116V158.488H241.548V159.52H244.116V162.616H241.092V163.66H248.256V162.616H245.244V159.52ZM242.268 154.684C242.46 154.192 242.628 153.7 242.784 153.208L241.62 152.92C241.464 153.508 241.284 154.096 241.032 154.684H237.792V155.752H240.552C239.808 157.216 238.788 158.56 237.468 159.46C237.648 159.724 237.9 160.204 238.02 160.504C238.464 160.192 238.884 159.832 239.268 159.46V163.924H240.384V158.164C240.936 157.42 241.404 156.604 241.812 155.752H248.268V154.684H242.268ZM253.084 159.832V156.808H254.296V155.752H253.084V153.088H252.04V155.752H250.672V156.808H252.04V160.264C251.428 160.516 250.876 160.732 250.444 160.888L250.888 162.004C251.932 161.536 253.276 160.912 254.536 160.312L254.272 159.328L253.084 159.832ZM257.104 162.7C256.336 162.7 256.204 162.568 256.204 161.896V157.96L257.548 157.384V161.248H258.592V156.94L259.864 156.388C259.804 157.852 259.672 159.52 259.492 160.552L260.404 160.804C260.704 159.436 260.884 157.24 260.98 155.572L261.028 155.392L260.2 155.116L258.592 155.8V152.944H257.548V156.244L256.204 156.808V154.072H255.148V157.252L253.9 157.78L254.32 158.776L255.148 158.416V161.884C255.148 163.324 255.568 163.696 257.044 163.696H259.804C261.1 163.696 261.436 163.156 261.592 161.5C261.292 161.44 260.86 161.26 260.608 161.092C260.512 162.4 260.392 162.7 259.732 162.7H257.104ZM269.276 160.732H271.076V162.148H269.276V160.732ZM271.076 157.396H269.276V156.052H271.076V157.396ZM271.076 159.748H269.276V158.38H271.076V159.748ZM274.472 162.148H272.108V160.732H274.052V159.748H272.108V158.38H274.064V157.396H272.108V156.052H274.232V155.032H271.82L272.516 154.732C272.372 154.264 272.012 153.556 271.664 153.028L270.704 153.412C271.004 153.916 271.316 154.564 271.46 155.032H269.42C269.684 154.456 269.9 153.868 270.104 153.28L269.036 153.004C268.496 154.756 267.584 156.484 266.516 157.588C266.672 157.696 266.876 157.912 267.056 158.104L266.048 158.404V156.268H267.332V155.236H266.048V152.956H264.98V155.236H263.54V156.268H264.98V158.716C264.392 158.872 263.864 159.028 263.432 159.136L263.684 160.216C264.092 160.096 264.524 159.964 264.98 159.82V162.628C264.98 162.796 264.92 162.844 264.764 162.844C264.632 162.856 264.176 162.856 263.708 162.832C263.864 163.144 263.996 163.636 264.032 163.924C264.788 163.924 265.28 163.888 265.616 163.696C265.94 163.516 266.048 163.204 266.048 162.64V159.484L267.332 159.088L267.2 158.248L267.332 158.392C267.632 158.056 267.932 157.66 268.208 157.24V163.96H269.276V163.168H274.472V162.148ZM279.096 155.176H280.164V154.48H281.676V153.628H280.164V152.932H279.096V153.628H276.696V154.48H279.096V155.176ZM279.036 163.876C279.372 163.42 279.684 162.7 279.876 162.148L279.084 161.8C278.904 162.328 278.58 163.024 278.22 163.432L279.036 163.876ZM280.344 162.1C280.476 162.64 280.572 163.336 280.572 163.78L281.448 163.66C281.436 163.204 281.328 162.52 281.184 161.992L280.344 162.1ZM281.868 162.028C282.132 162.508 282.396 163.144 282.48 163.564L283.308 163.276C283.2 162.868 282.948 162.256 282.66 161.8L281.868 162.028ZM283.44 161.896C283.74 162.232 284.088 162.7 284.244 163.024L284.988 162.652C284.832 162.34 284.484 161.896 284.148 161.572L283.44 161.896ZM282.828 156.928H281.112V156.316H282.828V156.928ZM285.564 157.588V158.224H283.788V157.588H285.564ZM281.112 157.588H282.828V158.224H281.112V157.588ZM280.164 158.224H278.46V157.588H280.164V158.224ZM280.164 156.316V156.928H278.46V156.316H280.164ZM281.184 154.948C281.304 155.128 281.436 155.32 281.544 155.524H277.428V158.224C277.428 159.736 277.332 161.824 276.408 163.312C276.648 163.42 277.116 163.708 277.308 163.888C278.172 162.484 278.4 160.48 278.448 158.896H279.204V161.548H285.972C285.888 162.496 285.78 162.904 285.66 163.036C285.576 163.132 285.492 163.144 285.324 163.144C285.168 163.144 284.82 163.144 284.424 163.096C284.544 163.336 284.64 163.684 284.652 163.936C285.132 163.96 285.588 163.96 285.816 163.924C286.116 163.9 286.332 163.828 286.524 163.636C286.776 163.36 286.92 162.712 287.04 161.176C287.052 161.044 287.064 160.792 287.064 160.792H280.188V160.216H286.824V159.46H280.188V158.896H286.656V156.928H283.788V156.316H287.148V155.524H282.588C282.468 155.236 282.252 154.924 282.036 154.66L281.184 154.948ZM284.976 153.616V152.932H283.896V153.616H282.288V154.48H283.896V155.176H284.976V154.48H287.304V153.616H284.976Z" fill="#8E8E93"/>
<path d="M21.658 73.8176C21.658 73.8176 17.7245 103.456 18.311 103.456H19.6698L23.2314 73.8176H21.658Z" fill="#42394A"/>
<path d="M108.966 73.4569L112.313 103.816H110.883L107.393 73.4569H108.966Z" fill="#42394A"/>
<path d="M24.6619 80.3773C24.6619 80.3773 21.3864 110.549 21.9729 110.549H23.4032L26.2639 80.3773H24.6619Z" fill="#42394A"/>
<path d="M106.349 80.3773C106.349 80.3773 109.667 110.549 109.052 110.549H107.622L104.761 80.3773H106.349Z" fill="#42394A"/>
<path d="M21.9015 73.573C21.9015 73.573 106.692 73.155 108.552 73.4433L106.921 81.4871H23.7895L21.9015 73.573Z" fill="#C16326"/>
<path d="M46.4314 107.449C46.1746 108.209 46.0113 108.997 45.9451 109.796C47.7605 110.374 49.6663 110.608 51.5664 110.488C51.9526 110.113 47.8904 109.249 47.8904 108.774C47.918 108.422 47.9851 108.074 48.0906 107.737L46.4314 107.449Z" fill="#42394A"/>
<path d="M31.5844 103.139C30.8375 103.403 30.1226 103.751 29.4532 104.176C30.0967 105.979 31.0667 107.646 32.3139 109.092C32.8288 109.164 31.0266 105.402 31.3842 105.113C31.6791 104.918 31.996 104.758 32.3282 104.638L31.5844 103.139Z" fill="#42394A"/>
<path d="M27.8086 68.0224C27.8086 68.0224 23.3173 75.5905 31.2844 78.8196C39.2514 82.0487 45.5878 80.4918 43.4995 89.069C41.2825 98.2661 30.9554 103.139 30.9554 103.139L32.2856 105.459C32.2856 105.459 48.9062 96.5218 48.0194 86.3877C47.1326 76.2537 37.2918 74.4661 37.2918 74.4661C37.2918 74.4661 47.5474 76.7726 50.5511 80.881C53.5549 84.9894 48.6774 102.692 45.6021 107.679L48.3484 108.054C48.3484 108.054 59.3335 87.1518 54.6991 78.7043C50.0648 70.2568 38.9653 69.0892 38.9653 69.0892L27.8086 68.0224Z" fill="#439B95"/>
<path d="M19.6845 38.3556L22.8885 43.6316L22.345 37.2457L19.6845 38.3556Z" fill="#AA5C27"/>
<path d="M19.6702 42.6802C19.8945 41.5268 20.5371 40.499 21.4725 39.7971C22.159 39.3935 24.3332 39.653 23.8898 40.1575C23.4464 40.662 21.358 40.9504 20.6858 43.6605L19.6702 42.6802Z" fill="#E9946F"/>
<path d="M21.4293 42.4639C21.4293 42.4639 14.8926 60.2669 19.0549 61.4057C25.1911 63.0779 21.9871 46.7741 31.2701 42.5359V50.1184C31.2701 50.1184 29.9971 52.6267 28.6096 55.2647C26.6071 59.056 26.3783 64.8942 18.9405 64.6203C8.92806 64.2744 19.5126 41.9593 19.5126 41.9593L21.4293 42.4639Z" fill="#EF9A9B"/>
<path d="M19.8271 38.4674C19.8271 38.4674 17.4241 36.6675 19.9701 35.4147C22.5161 34.162 22.9595 37.3875 22.0012 37.9347C21.3664 38.3757 20.5922 38.5654 19.8271 38.4674Z" fill="#439B95"/>
<path d="M42.913 34.2473C42.913 34.2473 43.1132 33.5553 44.7009 32.5751C46.2886 31.5948 47.5616 28.1639 47.347 29.8794C47.046 31.6053 46.1052 33.1513 44.7152 34.204C43.1132 35.6456 51.8669 54.9046 47.3756 57.0958C41.2681 60.123 37.5349 46.7166 37.5349 46.7166L40.7102 46.1688C41.4313 46.5046 42.0061 47.0941 42.3265 47.8266C42.9988 50.061 44.2861 53.4054 45.8166 52.627C48.1337 51.4881 42.112 37.4907 42.913 34.2473Z" fill="#E9946F"/>
<path d="M40.0094 69.2478C40.0094 69.2478 35.9615 70.9777 26.6642 71.3525C26.6642 71.3525 29.9111 38.8312 34.9746 37.8654C39.0225 37.1013 45.5592 50.8393 42.1978 50.8393C39.6804 50.9258 40.1524 54.1837 39.9379 55.7117C39.7233 57.2397 40.0094 69.2478 40.0094 69.2478Z" fill="#EF9A9B"/>
<path d="M39.5805 22.5703C39.5805 22.5703 41.6831 27.4283 41.0824 30.1096C40.4816 32.7909 36.1763 31.1331 38.0786 39.3499C38.0786 39.3499 34.4312 42.752 34.3025 36.7263C34.2024 31.5079 32.3429 19.8458 39.5805 22.5703Z" fill="#E9946F"/>
<path d="M40.2383 24.344C40.6154 25.7971 41.2502 27.1694 42.1121 28.3947C42.6842 29.0434 40.4243 28.7407 40.4243 28.7407C39.9341 27.3255 39.8694 25.7961 40.2383 24.344Z" fill="#E9946F"/>
<path d="M27.8941 47.9569C27.8941 47.9569 34.6454 44.3674 35.146 38.7166C35.6466 33.0657 35.0459 30.8025 38.8506 25.512C44.0285 18.3043 33.9016 21.6775 32.2996 22.3983C30.6976 23.119 32.1566 28.5681 30.6547 30.1538C29.1528 31.7395 25.4912 31.8692 25.8487 35.5307C26.2063 39.1923 28.5235 42.7385 26.5639 44.1079C24.6043 45.4774 25.1479 49.1677 27.8941 47.9569Z" fill="#42394A"/>
<path d="M42.927 36.1935L44.5719 35.7754C44.5719 35.7754 45.7734 38.8459 48.0619 46.933C49.6353 52.4973 50.2361 57.7734 45.7162 58.0905C41.1963 58.4076 39.108 50.0611 39.108 50.0611L42.4979 48.2448C42.4979 48.2448 43.9282 53.1748 45.8735 52.6703C46.9177 52.3532 42.927 36.1935 42.927 36.1935Z" fill="#EF9A9B"/>
<path d="M72.6502 32.8488L73.8088 38.9177L75.5252 32.7479L72.6502 32.8488Z" fill="#AA5C27"/>
<path d="M74.4664 108.761C74.7268 109.534 74.8901 110.337 74.9527 111.152C73.1323 111.728 71.2219 111.962 69.3172 111.843C68.9453 111.468 73.0075 110.604 73.0075 110.129C72.9703 109.777 72.8985 109.43 72.7929 109.092L74.4664 108.761Z" fill="#42394A"/>
<path d="M89.0276 104.45C89.7528 104.772 90.4351 105.183 91.0586 105.676C90.2545 107.42 89.1227 108.992 87.726 110.303C87.211 110.303 89.3422 106.742 88.999 106.425C88.7188 106.207 88.4168 106.019 88.0978 105.863L89.0276 104.45Z" fill="#42394A"/>
<path d="M95.6932 64.592C95.6932 64.592 100.885 74.827 92.9183 78.0561C84.9513 81.2852 75.9258 82.0492 77.9998 90.612C80.2025 99.8235 90.1291 104.451 90.1291 104.451L88.427 106.829C88.427 106.829 71.8064 97.8918 72.6932 87.7577C73.58 77.6236 83.3064 75.7784 83.3064 75.7784C83.3064 75.7784 72.307 79.094 69.246 83.1303C66.1851 87.1667 72.0352 103.946 75.1105 108.92L72.3642 109.294C72.3642 109.294 59.4911 90.7273 63.7821 82.1213C68.5166 72.7656 81.6615 70.4015 81.6615 70.4015L95.6932 64.592Z" fill="#42394A"/>
<path d="M98.0956 73.4571C98.0956 73.4571 95.3637 36.5824 85.7374 36.1932C79.7729 35.9193 79.6441 40.0277 78.2996 40.7773C76.9551 41.5269 80.3593 69.2478 79.73 70.6173C79.1006 71.9867 97.0801 75.5185 98.0956 73.4571Z" fill="#F7B119"/>
<path d="M83.6778 20.8122C84.3092 21.0691 84.8673 21.4804 85.3018 22.0088C85.7362 22.5373 86.0334 23.1664 86.1666 23.8394C86.7244 26.2612 84.0783 28.3659 83.6635 27.9478C83.2487 27.5298 83.6778 20.8122 83.6778 20.8122Z" fill="#963820"/>
<path d="M86.7961 36.9143C86.7961 36.9143 86.7961 29.2884 86.6674 27.7171C86.5387 26.1458 82.5051 26.7224 81.9902 27.7171C81.4752 28.7118 81.4466 40.5182 81.4466 40.5182L86.7961 36.9143Z" fill="#E9946F"/>
<path d="M80.3025 18.7043C80.3025 18.7043 79.1725 32.0962 80.3025 32.3701C81.4325 32.644 85.6663 31.5196 86.2384 29.487C86.8106 27.4544 88.5985 20.4485 80.3025 18.7043Z" fill="#E9946F"/>
<path d="M85.8091 25.0502C85.8091 25.0502 85.8091 21.9364 83.2774 21.8788C81.2749 21.8788 77.9851 21.4896 78.7289 17.237C79.3297 13.7195 82.4621 18.6785 86.5243 20.6679C90.8583 22.7581 87.5971 27.9189 85.8091 25.0502Z" fill="#963820"/>
<path d="M80.0592 22.0521C79.8377 23.469 79.2396 24.7991 78.3285 25.901C77.1127 26.8669 79.6444 26.4632 79.7588 26.8813C79.8732 27.2993 81.6039 23.2197 80.0592 22.0521Z" fill="#E9946F"/>
<path d="M85.7376 24.2573C85.7376 24.2573 86.038 26.6791 85.4515 27.3278C84.8651 27.9765 80.1449 25.9872 79.8303 26.8809C79.5156 27.7747 78.3999 31.4506 80.3023 32.3732C82.2046 33.2958 86.6244 31.2056 86.5243 26.8809C86.4242 22.5563 86.038 23.378 85.7376 24.2573Z" fill="#963820"/>
<path d="M86.2668 27.3677C86.2668 27.3677 85.7948 24.1998 87.0535 24.6606C88.3122 25.1214 87.2967 29.3404 86.2668 27.3677Z" fill="#EE3B4D"/>
<path d="M71.1195 36.885C71.7295 35.857 72.6989 35.096 73.8371 34.7515C74.6238 34.6073 76.5834 35.6453 75.9683 35.948C75.3533 36.2507 73.3222 35.7894 71.7488 38.0815L71.1195 36.885Z" fill="#E9946F"/>
<path d="M100.184 73.976C99.1097 74.4481 98.2481 75.3063 97.7668 76.3834C97.5237 77.1475 98.2674 79.2666 98.6536 78.6899C99.0398 78.1133 98.8539 76.0374 101.328 74.7688L100.184 73.976Z" fill="#E9946F"/>
<path d="M72.6504 37.6353C72.6504 37.6353 67.5727 55.0059 71.12 56.26C76.4695 58.1052 73.1368 41.8446 81.2325 37.1884V45.5494C81.0474 47.6591 80.5658 49.7316 79.8022 51.7048C78.0571 55.8852 76.7698 63.2371 70.4763 61.5649C60.9645 59.1287 70.9769 36.5829 70.9769 36.5829L72.6504 37.6353Z" fill="#F7B119"/>
<path d="M87.3538 36.5829C87.3538 36.5829 100.556 41.3833 103.245 56.1159C105.533 68.6429 101.328 75.1154 101.328 75.1154L99.526 74.0775C99.526 74.0775 101.7 69.2628 100.613 60.7865C99.1827 49.6289 88.684 44.2087 88.684 44.2087L87.3538 36.5829Z" fill="#F7B119"/>
<path d="M72.8791 33.22C72.8791 33.22 71.0196 30.8585 73.7945 30.3401C76.5694 29.8217 76.1546 33.004 75.0961 33.3064C74.3728 33.5606 73.5807 33.5297 72.8791 33.22Z" fill="#EF9A9B"/>
</svg>
