<svg width="27" height="27" viewBox="0 0 27 27" fill="none" xmlns="http://www.w3.org/2000/svg">
<g opacity="0.73">
<path opacity="0.73" d="M10.8231 22.4506L10.8013 26.9999L0 26.9296L0.0279987 20.9279L9.6129 20.9946L9.66267 21.0539L10.7702 22.3876L10.8231 22.4506Z" fill="#78C2FF"/>
<path opacity="0.73" d="M10.823 22.4504L9.61597 22.443L9.62219 21.0056L9.64397 21.0315L9.69374 21.0908L10.7421 22.3541L10.823 22.4504Z" fill="#2180CC"/>
<path opacity="0.73" d="M6.4925 23.9732C6.49434 24.2482 6.42744 24.5176 6.3003 24.7471C6.17317 24.9767 5.99155 25.156 5.77857 25.2622C5.5656 25.3685 5.33089 25.3968 5.10432 25.3437C4.87776 25.2906 4.66959 25.1584 4.50631 24.964C4.34303 24.7696 4.23203 24.5217 4.18743 24.2519C4.14284 23.982 4.16666 23.7025 4.25588 23.4489C4.3451 23.1953 4.49567 22.979 4.68843 22.8276C4.88119 22.6762 5.10742 22.5965 5.33833 22.5987C5.64393 22.6007 5.93655 22.7461 6.15264 23.0035C6.36874 23.2608 6.49086 23.6093 6.4925 23.9732V23.9732Z" fill="#2180CC"/>
<path opacity="0.73" d="M8.87563 23.9879C8.87497 24.1043 8.84518 24.2178 8.79007 24.3139C8.73497 24.41 8.65706 24.4844 8.56628 24.5276C8.47551 24.5707 8.37599 24.5806 8.28046 24.5561C8.18492 24.5315 8.09769 24.4736 8.02993 24.3898C7.96216 24.3059 7.91692 24.1999 7.9 24.0853C7.88308 23.9706 7.89524 23.8526 7.93492 23.7462C7.97461 23.6399 8.04002 23.55 8.1228 23.4881C8.20558 23.4263 8.30197 23.3952 8.39966 23.3989C8.52784 23.4037 8.64937 23.468 8.7383 23.578C8.82722 23.6881 8.87651 23.8352 8.87563 23.9879Z" fill="#2180CC"/>
<path opacity="0.73" d="M1.78883 23.9399C1.78945 23.8241 1.81888 23.7112 1.8734 23.6153C1.92792 23.5195 2.00508 23.445 2.09513 23.4014C2.18518 23.3578 2.28407 23.347 2.3793 23.3703C2.47452 23.3936 2.56181 23.45 2.63011 23.5323C2.69842 23.6147 2.74467 23.7194 2.76304 23.8331C2.7814 23.9467 2.77104 24.0644 2.73327 24.171C2.6955 24.2777 2.63202 24.3687 2.55085 24.4324C2.46968 24.4961 2.37446 24.5297 2.27725 24.529C2.2127 24.5285 2.14886 24.5128 2.08938 24.483C2.0299 24.4531 1.97595 24.4096 1.93059 24.3549C1.88524 24.3002 1.84937 24.2354 1.82505 24.1642C1.80073 24.093 1.78842 24.0168 1.78883 23.9399V23.9399Z" fill="#2180CC"/>
</g>
<g opacity="0.73">
<path opacity="0.73" d="M24.9313 15.5337L27.0001 19.3607L17.913 26.3219L15.1877 21.276L23.2483 15.1003L23.3198 15.1188L24.8566 15.5152L24.9313 15.5337Z" fill="#78C2FF"/>
<path opacity="0.73" d="M24.9313 15.5332L23.914 16.3112L23.2607 15.1035L23.2919 15.1109L23.3603 15.1294L24.8193 15.5036L24.9313 15.5332Z" fill="#2180CC"/>
<path opacity="0.73" d="M22.0007 19.6348C22.1246 19.8647 22.1885 20.1332 22.1844 20.4063C22.1802 20.6795 22.1082 20.945 21.9773 21.1694C21.8465 21.3938 21.6627 21.567 21.4493 21.6671C21.2358 21.7672 21.0022 21.7897 20.778 21.7317C20.5538 21.6738 20.3491 21.538 20.1897 21.3415C20.0303 21.1451 19.9233 20.8968 19.8824 20.6279C19.8415 20.3591 19.8683 20.0819 19.9596 19.8313C20.051 19.5807 20.2026 19.3679 20.3954 19.2199C20.6546 19.022 20.9691 18.9546 21.27 19.0324C21.5709 19.1102 21.8336 19.3268 22.0007 19.6348V19.6348Z" fill="#2180CC"/>
<path opacity="0.73" d="M24.0043 18.0899C24.0748 18.2205 24.0989 18.3792 24.0712 18.5311C24.0435 18.6829 23.9662 18.8153 23.8565 18.8993C23.7468 18.9834 23.6135 19.012 23.486 18.979C23.3585 18.946 23.2473 18.8541 23.1768 18.7234C23.1418 18.6587 23.1179 18.5864 23.1065 18.5107C23.095 18.435 23.0961 18.3574 23.1099 18.2822C23.1236 18.207 23.1496 18.1358 23.1864 18.0726C23.2233 18.0094 23.2702 17.9555 23.3245 17.9139C23.3789 17.8723 23.4395 17.8439 23.5031 17.8302C23.5667 17.8165 23.6319 17.8179 23.695 17.8342C23.7581 17.8506 23.8179 17.8816 23.871 17.9254C23.9241 17.9693 23.9693 18.0252 24.0043 18.0899Z" fill="#2180CC"/>
<path opacity="0.73" d="M18.0437 22.6542C17.9912 22.5567 17.9643 22.4428 17.9662 22.327C17.9681 22.2112 17.9988 22.0987 18.0544 22.0037C18.11 21.9087 18.1881 21.8355 18.2787 21.7933C18.3693 21.7512 18.4683 21.742 18.5633 21.7669C18.6583 21.7918 18.7449 21.8497 18.8123 21.9332C18.8796 22.0168 18.9246 22.1223 18.9416 22.2363C18.9586 22.3504 18.9467 22.4679 18.9076 22.5739C18.8685 22.6799 18.8039 22.7698 18.7219 22.8321C18.6121 22.9154 18.479 22.9435 18.3519 22.9102C18.2248 22.8768 18.1139 22.7848 18.0437 22.6542V22.6542Z" fill="#2180CC"/>
</g>
<g opacity="0.73">
<path opacity="0.73" d="M12.7677 13.5962L10.7207 17.4417L1.59937 10.5472L4.29969 5.48285L12.3913 11.5956L12.4069 11.6808L12.7522 13.511L12.7677 13.5962Z" fill="#78C2FF"/>
<path opacity="0.73" d="M12.7672 13.5961L11.7468 12.8293L12.3939 11.6104L12.4001 11.6475L12.4157 11.729L12.7423 13.4628L12.7672 13.5961Z" fill="#2180CC"/>
<path opacity="0.73" d="M8.42128 12.1477C8.29856 12.3798 8.12077 12.5633 7.91041 12.6749C7.70006 12.7866 7.46661 12.8214 7.23963 12.775C7.01265 12.7285 6.80235 12.6029 6.63537 12.414C6.46839 12.2251 6.35224 11.9814 6.30163 11.7139C6.25102 11.4463 6.26823 11.1669 6.35108 10.911C6.43393 10.6551 6.57869 10.4342 6.76703 10.2764C6.95537 10.1185 7.17881 10.0308 7.40905 10.0243C7.6393 10.0177 7.86599 10.0927 8.06041 10.2398C8.32025 10.4363 8.50412 10.7474 8.57176 11.105C8.6394 11.4626 8.58529 11.8375 8.42128 12.1477Z" fill="#2180CC"/>
<path opacity="0.73" d="M10.4313 13.6664C10.3971 13.732 10.3522 13.7888 10.2994 13.8337C10.2466 13.8786 10.1869 13.9105 10.1236 13.9278C10.0604 13.945 9.99494 13.9472 9.931 13.9341C9.86706 13.9211 9.80592 13.8931 9.75111 13.8518C9.6963 13.8105 9.64889 13.7566 9.61163 13.6934C9.57437 13.6302 9.54799 13.5588 9.53401 13.4833C9.52003 13.4079 9.51873 13.3299 9.53018 13.2539C9.54163 13.1778 9.5656 13.1052 9.60072 13.0403C9.67081 12.9139 9.77909 12.8245 9.90306 12.7907C10.027 12.7569 10.1572 12.7813 10.2665 12.8588C10.322 12.8987 10.3704 12.9513 10.4088 13.0136C10.4472 13.0759 10.4748 13.1466 10.4902 13.2217C10.5055 13.2968 10.5082 13.3747 10.4981 13.451C10.488 13.5274 10.4653 13.6006 10.4313 13.6664V13.6664Z" fill="#2180CC"/>
<path opacity="0.73" d="M4.44868 9.14672C4.50097 9.04907 4.57642 8.97208 4.66546 8.92551C4.75451 8.87894 4.85316 8.86487 4.94893 8.88509C5.04469 8.90531 5.13327 8.9589 5.20344 9.03909C5.27362 9.11928 5.32224 9.22246 5.34315 9.33558C5.36407 9.44869 5.35633 9.56664 5.32093 9.67452C5.28552 9.78239 5.22404 9.87533 5.14427 9.94158C5.06449 10.0078 4.97 10.0444 4.87276 10.0467C4.77552 10.0489 4.6799 10.0168 4.598 9.95435C4.48837 9.87073 4.41108 9.73873 4.38308 9.58731C4.35509 9.4359 4.37868 9.27744 4.44868 9.14672Z" fill="#2180CC"/>
</g>
<g opacity="0.73">
<path opacity="0.73" d="M21.727 0.266739L24.0571 3.87143L15.4926 11.7143L12.4221 6.95745L20.0191 0L20.0907 0.0111141L21.6524 0.251921L21.727 0.266739Z" fill="#78C2FF"/>
<path opacity="0.73" d="M21.7267 0.266147L20.7686 1.14046L20.0312 0.00311279L20.0624 0.00681751L20.1339 0.0179316L21.6116 0.247624L21.7267 0.266147Z" fill="#2180CC"/>
<path opacity="0.73" d="M19.0951 4.63096C19.2357 4.84798 19.3192 5.10983 19.3348 5.38335C19.3505 5.65687 19.2976 5.92977 19.183 6.16752C19.0683 6.40526 18.8971 6.59716 18.6908 6.71893C18.4845 6.84071 18.2526 6.88687 18.0243 6.85159C17.796 6.81631 17.5816 6.70117 17.4083 6.52073C17.2349 6.3403 17.1104 6.10269 17.0506 5.83797C16.9907 5.57326 16.9981 5.29333 17.0718 5.03363C17.1456 4.77393 17.2824 4.54612 17.4649 4.37904C17.7092 4.15537 18.0181 4.05628 18.3237 4.10351C18.6294 4.15074 18.9068 4.34043 19.0951 4.63096V4.63096Z" fill="#2180CC"/>
<path opacity="0.73" d="M20.9802 2.90446C21.0397 2.9962 21.075 3.10689 21.0816 3.22252C21.0881 3.33815 21.0657 3.4535 21.0172 3.55396C20.9687 3.65443 20.8962 3.73548 20.809 3.78684C20.7218 3.83821 20.6237 3.85758 20.5272 3.8425C20.4307 3.82742 20.3401 3.77857 20.267 3.70214C20.1938 3.62571 20.1414 3.52514 20.1163 3.41317C20.0911 3.3012 20.0945 3.18288 20.1259 3.07319C20.1573 2.9635 20.2154 2.86738 20.2927 2.79702C20.3437 2.75003 20.402 2.71551 20.4642 2.69547C20.5264 2.67543 20.5914 2.67025 20.6553 2.68024C20.7192 2.69022 20.7808 2.71518 20.8366 2.75366C20.8923 2.79214 20.9412 2.84339 20.9802 2.90446V2.90446Z" fill="#2180CC"/>
<path opacity="0.73" d="M15.3651 8.04666C15.3255 7.98619 15.2963 7.91698 15.2792 7.84302C15.2621 7.76906 15.2575 7.6918 15.2656 7.61571C15.2737 7.53961 15.2943 7.46617 15.3264 7.39961C15.3584 7.33306 15.4012 7.27471 15.4522 7.22792C15.529 7.15663 15.6218 7.11408 15.7189 7.10567C15.8159 7.09726 15.9129 7.12337 15.9975 7.18069C16.0822 7.23801 16.1506 7.32395 16.1941 7.42763C16.2377 7.5313 16.2544 7.64804 16.2421 7.76304C16.2299 7.87805 16.1893 7.98613 16.1254 8.0736C16.0615 8.16107 15.9773 8.22398 15.8833 8.25436C15.7894 8.28474 15.69 8.28122 15.5977 8.24424C15.5055 8.20726 15.4245 8.1385 15.3651 8.04666V8.04666Z" fill="#2180CC"/>
</g>
</svg>
