<svg width="82" height="45" viewBox="0 0 82 45" fill="none" xmlns="http://www.w3.org/2000/svg">
<g clip-path="url(#clip0)">
<rect width="82" height="45" rx="5" fill="white"/>
<path d="M41.1 30.73H40.057V29.841H41.1V30.73ZM41.1 32.032H40.057V31.136H41.1V32.032ZM41.1 33.355H40.057V32.445H41.1V33.355ZM41.569 29.407H39.602V33.782H41.569V29.407ZM39.945 33.929C39.812 34.433 39.567 34.93 39.245 35.259C39.357 35.329 39.553 35.462 39.637 35.539C39.952 35.168 40.253 34.608 40.414 34.034L39.945 33.929ZM40.82 34.097C41.037 34.433 41.282 34.902 41.38 35.196L41.793 35C41.681 34.706 41.443 34.258 41.212 33.922L40.82 34.097ZM43.907 33.985V33.46H44.803V33.985H43.907ZM42.591 33.46H43.445V33.985H42.591V33.46ZM43.445 32.599V33.096H42.591V32.599H43.445ZM44.803 32.599V33.096H43.907V32.599H44.803ZM43.165 30.947H44.201V31.409H43.165V30.947ZM43.165 30.142H44.201V30.562H43.165V30.142ZM45.699 33.985H45.279V32.207H43.907V31.801H45.671V31.409H44.67V30.947H45.412V30.562H44.67V30.142H45.524V29.75H44.67V29.148H44.201V29.75H43.165V29.148H42.703V29.75H41.856V30.142H42.703V30.562H42.038V30.947H42.703V31.409H41.695V31.801H43.445V32.207H42.122V33.985H41.667V34.384H42.122V35.539H42.591V34.384H44.803V34.993C44.803 35.084 44.768 35.105 44.684 35.112C44.586 35.112 44.25 35.112 43.886 35.105C43.949 35.224 44.012 35.406 44.033 35.525C44.537 35.525 44.852 35.525 45.048 35.455C45.223 35.378 45.279 35.245 45.279 34.993V34.384H45.699V33.985ZM49.933 32.711L49.863 32.249L49.051 32.501V31.073H49.765V30.569H49.051V29.148H48.568V30.569H48.029C48.078 30.261 48.127 29.939 48.162 29.624L47.707 29.547C47.623 30.401 47.49 31.283 47.224 31.878C47.336 31.92 47.532 32.046 47.623 32.109C47.749 31.822 47.847 31.465 47.931 31.073H48.568V32.634C48.078 32.788 47.63 32.907 47.273 33.005L47.413 33.502C47.756 33.397 48.155 33.271 48.568 33.145V35.539H49.051V32.991L49.933 32.711ZM50.906 30.31C51.025 29.967 51.13 29.61 51.214 29.239L50.738 29.141C50.507 30.198 50.087 31.206 49.513 31.829C49.618 31.899 49.828 32.046 49.912 32.13C50.213 31.773 50.479 31.311 50.71 30.8H51.312C50.99 31.92 50.367 33.089 49.625 33.67C49.772 33.747 49.94 33.866 50.038 33.971C50.801 33.306 51.445 31.997 51.76 30.8H52.334C51.97 32.557 51.214 34.279 50.066 35.105C50.22 35.182 50.402 35.308 50.5 35.42C51.662 34.496 52.432 32.634 52.782 30.8H53.118C52.978 33.572 52.824 34.608 52.6 34.853C52.523 34.944 52.453 34.972 52.341 34.972C52.201 34.972 51.921 34.965 51.606 34.937C51.697 35.077 51.746 35.294 51.753 35.448C52.061 35.469 52.362 35.476 52.551 35.448C52.761 35.427 52.901 35.364 53.034 35.182C53.314 34.832 53.468 33.747 53.622 30.576C53.629 30.513 53.629 30.31 53.629 30.31H50.906ZM58.206 29.169C58.185 30.233 58.227 33.635 55.322 35.105C55.483 35.21 55.651 35.371 55.742 35.511C57.45 34.601 58.192 33.033 58.514 31.633C58.85 32.935 59.599 34.664 61.349 35.483C61.426 35.336 61.58 35.161 61.727 35.042C59.256 33.943 58.836 31.017 58.731 30.184C58.766 29.771 58.773 29.421 58.78 29.169H58.206ZM69.433 30.198V29.785H65.135C65.226 29.617 65.303 29.456 65.38 29.281L64.876 29.141C64.54 29.939 63.959 30.688 63.315 31.164C63.427 31.262 63.609 31.465 63.693 31.57C64.12 31.22 64.547 30.744 64.89 30.198H69.433ZM68.901 31.045V30.646H64.743V31.045H68.901ZM64.869 33.915C64.568 34.391 63.987 34.888 63.476 35.126C63.581 35.224 63.728 35.385 63.805 35.504C64.33 35.21 64.932 34.622 65.254 34.076L64.869 33.915ZM67.781 33.705V33.285H65.947V32.067H65.45V33.285H63.574V33.705H65.45V35.532H65.947V33.705H67.781ZM64.05 32.305C64.281 32.578 64.505 32.949 64.589 33.194L65.002 33.019C64.918 32.767 64.673 32.403 64.442 32.137L64.05 32.305ZM66.962 32.144C66.815 32.424 66.535 32.837 66.325 33.103L66.661 33.25C66.885 33.012 67.172 32.648 67.424 32.319L66.962 32.144ZM66.234 34.202C66.689 34.545 67.256 35.049 67.522 35.371L67.851 35.056C67.564 34.734 66.997 34.258 66.535 33.929L66.234 34.202ZM64.029 31.5V31.913H68.026C68.04 34.174 68.145 35.532 69.118 35.532C69.545 35.532 69.657 35.231 69.699 34.314C69.587 34.244 69.447 34.125 69.342 34.006C69.328 34.608 69.293 35.021 69.146 35.021C68.586 35.021 68.53 33.663 68.537 31.5H64.029ZM77.475 29.799H75.921C75.879 29.589 75.802 29.316 75.718 29.106L75.242 29.169C75.305 29.365 75.368 29.596 75.41 29.799H73.674V30.226H77.475V29.799ZM73.443 32.529C73.338 32.312 72.862 31.458 72.708 31.227V30.975H73.436V30.485H72.708V29.141H72.26V30.485H71.357V30.975H72.19C72.008 31.92 71.609 33.033 71.21 33.614C71.301 33.74 71.42 33.971 71.476 34.118C71.77 33.656 72.05 32.9 72.26 32.123V35.532H72.708V31.899C72.876 32.249 73.065 32.669 73.149 32.893L73.443 32.529ZM75.221 31.801C75.298 32.004 75.368 32.263 75.41 32.466H73.681V32.914H74.731C74.64 33.999 74.402 34.748 73.359 35.161C73.471 35.252 73.604 35.427 73.66 35.546C74.451 35.21 74.85 34.692 75.046 34.006H76.614C76.551 34.664 76.481 34.944 76.39 35.035C76.334 35.091 76.271 35.098 76.159 35.098C76.054 35.098 75.753 35.098 75.438 35.063C75.515 35.189 75.564 35.371 75.571 35.511C75.9 35.525 76.215 35.532 76.376 35.518C76.558 35.504 76.684 35.462 76.796 35.35C76.964 35.182 77.048 34.769 77.125 33.775C77.139 33.705 77.146 33.565 77.146 33.565H75.151C75.186 33.362 75.214 33.145 75.235 32.914H77.482V32.466H75.942C75.9 32.263 75.809 31.962 75.704 31.724L75.221 31.801ZM76.558 31.129C76.67 30.891 76.789 30.604 76.908 30.331L76.39 30.233C76.327 30.492 76.187 30.856 76.061 31.129H74.92L75.095 31.087C75.053 30.884 74.948 30.534 74.829 30.275L74.374 30.359C74.472 30.597 74.563 30.912 74.598 31.129H73.583V32.235H74.059V31.549H77.104V32.235H77.601V31.129H76.558Z" fill="#39393E"/>
<path d="M54.28 39.684V39.884C54.28 40.104 54.324 40.192 54.532 40.192H54.812C54.884 40.192 54.964 40.188 55 40.172C54.996 40.116 54.988 40.04 54.984 39.98C54.94 39.992 54.856 40 54.808 40H54.568C54.512 40 54.508 39.972 54.508 39.888V39.684H54.988V39.46H54.264V39.164H54.856V38.944H54.264V38.672H53.992V38.944H53.412V39.164H53.992V39.46H53.26V39.684H53.72C53.68 39.932 53.548 40.068 53.188 40.152C53.236 40.188 53.3 40.276 53.32 40.336C53.756 40.22 53.912 40.02 53.968 39.684H54.28ZM53.488 42.312C53.688 42.132 53.872 41.84 53.98 41.572L53.704 41.5C53.596 41.76 53.408 42.036 53.212 42.192L53.488 42.312ZM54.372 41.596C54.42 41.816 54.448 42.1 54.452 42.272L54.744 42.232C54.74 42.068 54.7 41.788 54.648 41.572L54.372 41.596ZM55.188 41.592C55.284 41.808 55.376 42.092 55.408 42.268L55.7 42.204C55.664 42.032 55.564 41.752 55.464 41.54L55.188 41.592ZM56.012 41.576C56.2 41.804 56.412 42.116 56.508 42.312L56.8 42.204C56.7 42.004 56.48 41.704 56.288 41.488L56.012 41.576ZM56.492 41.092C56.468 41.092 56.448 41.088 56.436 41.076C56.424 41.056 56.42 40.992 56.42 40.892V39.22H55.776C55.784 39.04 55.784 38.852 55.788 38.652H55.516C55.516 38.852 55.512 39.04 55.508 39.22H55.064V39.488H55.496C55.488 39.676 55.472 39.856 55.448 40.02C55.348 39.948 55.248 39.88 55.16 39.82L55.028 40.032C55.14 40.112 55.268 40.204 55.396 40.3C55.32 40.624 55.196 40.888 54.984 41.096L54.98 40.936C54.744 40.96 54.5 40.988 54.264 41.004V40.668H54.888V40.44H54.264V40.152H53.992V40.44H53.356V40.668H53.992V41.032C53.696 41.06 53.432 41.084 53.22 41.1L53.248 41.356C53.68 41.312 54.292 41.244 54.888 41.184L54.852 41.212C54.916 41.252 55.004 41.344 55.044 41.408C55.344 41.176 55.52 40.864 55.628 40.476C55.76 40.576 55.876 40.676 55.96 40.752L56.1 40.504C56 40.42 55.852 40.308 55.688 40.188C55.728 39.98 55.752 39.744 55.764 39.488H56.148V40.876C56.148 41.148 56.168 41.212 56.22 41.26C56.276 41.312 56.348 41.336 56.42 41.336H56.576C56.64 41.336 56.704 41.32 56.748 41.284C56.792 41.252 56.824 41.2 56.84 41.108C56.856 41.024 56.872 40.776 56.876 40.568C56.804 40.548 56.724 40.508 56.672 40.456C56.672 40.684 56.668 40.86 56.66 40.94C56.652 41.012 56.644 41.052 56.628 41.068C56.612 41.084 56.592 41.092 56.564 41.092H56.492ZM59.52 39.092V39.44H58.672V39.092H59.52ZM58.672 40.052V39.668H59.52V40.052H58.672ZM59.8 38.84H58.38V42.304H58.672V40.3H59.8V38.84ZM60.456 40.056V39.668H61.344V40.056H60.456ZM61.344 39.092V39.44H60.456V39.092H61.344ZM61.644 38.84H60.172V40.304H61.344V41.896C61.344 41.976 61.316 41.996 61.244 42C61.16 42.004 60.888 42.008 60.616 41.992C60.66 42.076 60.708 42.216 60.724 42.3C61.084 42.3 61.32 42.292 61.46 42.244C61.592 42.196 61.644 42.1 61.644 41.896V38.84ZM63.928 38.676C63.752 39.288 63.456 39.9 63.132 40.3C63.18 40.372 63.26 40.532 63.288 40.6C63.408 40.452 63.524 40.276 63.632 40.084V42.308H63.916V39.52C64.024 39.272 64.12 39.012 64.2 38.752L63.928 38.676ZM64.98 41.456H66.028C65.888 41.576 65.696 41.692 65.456 41.784C65.252 41.708 65.072 41.612 64.924 41.504L64.98 41.456ZM66.272 41.244L66.22 41.256H65.212C65.272 41.2 65.324 41.144 65.372 41.084H65.852C66.06 41.084 66.128 41.024 66.152 40.796C66.088 40.784 65.996 40.76 65.948 40.728C65.936 40.884 65.916 40.904 65.824 40.904H65.328C65.196 40.904 65.172 40.892 65.172 40.816V40.584H64.924V40.816C64.924 40.968 64.96 41.036 65.076 41.064C64.988 41.164 64.872 41.26 64.74 41.356C64.696 41.312 64.652 41.268 64.62 41.22L64.388 41.308C64.436 41.368 64.484 41.428 64.54 41.484C64.42 41.556 64.28 41.624 64.132 41.688C64.192 41.724 64.268 41.804 64.308 41.864C64.456 41.792 64.596 41.72 64.72 41.64C64.84 41.736 64.976 41.82 65.124 41.896C64.828 41.98 64.476 42.048 64.08 42.092C64.136 42.152 64.2 42.248 64.232 42.316C64.7 42.252 65.112 42.16 65.456 42.036C65.812 42.168 66.22 42.26 66.648 42.312C66.684 42.236 66.752 42.136 66.804 42.076C66.444 42.044 66.096 41.984 65.788 41.896C66.084 41.748 66.312 41.564 66.456 41.352L66.272 41.244ZM64.72 40.584C64.632 40.724 64.476 40.896 64.312 40.988L64.488 41.128C64.664 41.016 64.808 40.836 64.908 40.684L64.72 40.584ZM66.688 41.024C66.592 40.896 66.396 40.704 66.228 40.572L66.06 40.672C66.228 40.812 66.424 41.008 66.512 41.144L66.688 41.024ZM64.84 40.096H66.172V40.268H64.84V40.096ZM66.172 39.44V39.612H64.84V39.44H66.172ZM66.172 39.94H64.84V39.768H66.172V39.94ZM66.452 40.268V39.268H65.544C65.572 39.204 65.6 39.132 65.628 39.06H66.76V38.832H64.28V39.06H65.316C65.3 39.128 65.284 39.2 65.264 39.268H64.568V40.268H64.176V40.804H64.436V40.46H65.388L65.256 40.548C65.392 40.624 65.556 40.752 65.644 40.836L65.812 40.716C65.732 40.636 65.584 40.532 65.456 40.46H66.556V40.804H66.824V40.268H66.452ZM70.128 40.516H70.744L70.56 40.652C70.668 40.7 70.78 40.752 70.892 40.816C70.636 40.82 70.38 40.824 70.128 40.824V40.516ZM68.872 40.316V40.052H69.828V40.316H68.872ZM68.872 39.6H69.828V39.86H68.872V39.6ZM71.112 39.6V39.86H70.128V39.6H71.112ZM71.112 40.316H70.128V40.052H71.112V40.316ZM68.328 41.096C69.056 41.088 70.18 41.068 71.248 41.044C71.352 41.124 71.448 41.196 71.512 41.268L71.716 41.096C71.516 40.908 71.124 40.656 70.776 40.516H71.404V39.4H70.128V39.144H71.684V38.9H70.128V38.66H69.828V38.9H68.316V39.144H69.828V39.4H68.588V40.516H69.828V40.828C69.248 40.832 68.716 40.836 68.312 40.832L68.328 41.096ZM70.492 41.548C70.344 41.408 70.052 41.224 69.816 41.112L69.628 41.272C69.868 41.396 70.152 41.588 70.288 41.728L70.492 41.548ZM68.476 42.184C68.636 41.976 68.76 41.656 68.848 41.404L68.596 41.304C68.516 41.54 68.38 41.856 68.22 42.044L68.476 42.184ZM69.648 42C69.396 42 69.352 41.984 69.352 41.88V41.32H69.06V41.884C69.06 42.176 69.18 42.252 69.632 42.252H70.536C70.896 42.252 70.988 42.148 71.028 41.704C70.948 41.688 70.832 41.644 70.764 41.6C70.748 41.952 70.712 42 70.516 42H69.648ZM71.008 41.396C71.196 41.632 71.392 41.948 71.468 42.152L71.736 42.056C71.66 41.844 71.456 41.536 71.26 41.308L71.008 41.396ZM74.032 40.776C74.22 40.628 74.38 40.468 74.52 40.296H75.416C75.54 40.472 75.7 40.636 75.884 40.776H74.032ZM76.748 40.296V40.028H74.716C74.808 39.896 74.88 39.76 74.948 39.62H76.476V39.356H75.832C75.956 39.208 76.084 39.024 76.192 38.848L75.92 38.756C75.832 38.932 75.668 39.188 75.536 39.356H75.06C75.14 39.132 75.2 38.904 75.24 38.676L74.928 38.644C74.896 38.876 74.836 39.12 74.74 39.356H74.216L74.432 39.244C74.364 39.104 74.216 38.896 74.084 38.744L73.848 38.864C73.972 39.012 74.108 39.22 74.172 39.356H73.508V39.62H74.62C74.544 39.76 74.46 39.896 74.356 40.028H73.264V40.296H74.124C73.872 40.552 73.548 40.784 73.148 40.956C73.216 41.012 73.308 41.124 73.336 41.2C73.528 41.108 73.7 41.012 73.864 40.9V41.048H74.484C74.384 41.524 74.148 41.868 73.392 42.052C73.456 42.112 73.532 42.228 73.564 42.304C74.408 42.072 74.68 41.644 74.788 41.048H75.756C75.712 41.644 75.664 41.888 75.592 41.96C75.556 41.992 75.516 42 75.444 42C75.368 42 75.164 42 74.952 41.976C75 42.056 75.036 42.172 75.04 42.256C75.256 42.272 75.464 42.272 75.576 42.264C75.692 42.252 75.768 42.228 75.84 42.148C75.952 42.032 76.008 41.712 76.06 40.904V40.9C76.256 41.024 76.468 41.132 76.688 41.204C76.732 41.124 76.812 41.012 76.88 40.956C76.44 40.84 76.024 40.596 75.752 40.296H76.748Z" fill="#8E8E93"/>
<g opacity="0.74">
<path opacity="0.74" d="M36.7733 2.25H5.22669C3.99692 2.25 3 3.15352 3 4.26808V30.3253C3 31.4399 3.99692 32.3434 5.22669 32.3434H36.7733C38.0031 32.3434 39 31.4399 39 30.3253V4.26808C39 3.15352 38.0031 2.25 36.7733 2.25Z" fill="#F7F7F7"/>
</g>
<path d="M21.2214 24.6929H7.26904V25.9511H21.2214V24.6929Z" fill="#DBDBDB"/>
<path d="M29.0321 27.3628H7.26904V28.621H29.0321V27.3628Z" fill="#DBDBDB"/>
<path d="M15.3372 6.1779C16.2809 5.82475 17.2804 5.60946 18.2985 5.54006L18.7676 5.49823C18.9984 5.49823 19.2214 5.47035 19.4291 5.46338C19.4757 5.81083 19.661 6.13081 19.9501 6.3629C20.2392 6.59499 20.612 6.72313 20.9982 6.72313C21.3844 6.72313 21.7572 6.59499 22.0463 6.3629C22.3353 6.13081 22.5207 5.81083 22.5672 5.46338C22.7749 5.46338 22.998 5.48429 23.2287 5.49823L23.7017 5.54006C25.2631 5.68645 27.0437 6.05242 27.7359 6.90984C29.0819 8.57937 29.3511 12.863 29.1588 21.0817H28.8704V21.4999H26.9975V21.0712H26.613V18.98H25.9053V19.8513H16.0987V18.98H15.3757V21.0712H15.0411V21.4895H13.1682V21.0712H12.8414C12.6491 12.8525 12.9183 8.56892 14.2604 6.89938C14.5263 6.59829 14.8678 6.35926 15.2565 6.20229L15.3372 6.1779Z" fill="#C3DB60"/>
<path d="M23.2325 5.49823C23.2325 6.03439 22.9975 6.54858 22.5792 6.92769C22.1609 7.30681 21.5936 7.5198 21.002 7.5198C20.4104 7.5198 19.8431 7.30681 19.4248 6.92769C19.0065 6.54858 18.7715 6.03439 18.7715 5.49823C19.0022 5.49823 19.2253 5.47035 19.433 5.46338C19.4795 5.81083 19.6648 6.13081 19.9539 6.3629C20.243 6.59499 20.6158 6.72313 21.002 6.72313C21.3882 6.72313 21.761 6.59499 22.0501 6.3629C22.3392 6.13081 22.5245 5.81083 22.5711 5.46338C22.7787 5.47035 22.998 5.48429 23.2325 5.49823Z" fill="#98B037"/>
<path d="M36.9504 26.6481C36.9511 27.1646 36.7828 27.6697 36.4668 28.0995C36.1508 28.5292 35.7012 28.8644 35.1749 29.0625C34.6486 29.2606 34.0693 29.3128 33.5103 29.2125C32.9513 29.1122 32.4377 28.8638 32.0345 28.4988C31.6313 28.1339 31.3565 27.6687 31.2451 27.1622C31.1336 26.6557 31.1904 26.1306 31.4083 25.6534C31.6263 25.1762 31.9954 24.7682 32.4692 24.4812C32.943 24.1942 33.5 24.041 34.0699 24.041C34.8332 24.041 35.5653 24.3156 36.1053 24.8044C36.6454 25.2932 36.9494 25.9564 36.9504 26.6481Z" fill="#DBDBDB"/>
<path d="M33.7891 27.8715L32.5161 26.7143L33.0776 26.2054L33.7891 26.8502L35.0658 25.6965L35.6273 26.2054L33.7891 27.8715Z" fill="white"/>
</g>
<defs>
<clipPath id="clip0">
<rect width="82" height="45" rx="5" fill="white"/>
</clipPath>
</defs>
</svg>
