<svg width="82" height="45" viewBox="0 0 82 45" fill="none" xmlns="http://www.w3.org/2000/svg">
<g clip-path="url(#clip0)">
<rect width="82" height="45" rx="5" fill="white"/>
<path d="M53.447 30.317V29.848H49.135C49.24 29.652 49.331 29.449 49.422 29.253L48.911 29.106C48.547 29.988 47.945 30.884 47.301 31.444C47.434 31.521 47.651 31.668 47.763 31.752C48.141 31.374 48.526 30.87 48.869 30.317H53.447ZM50.948 34.167L51.186 33.908C50.906 33.621 50.332 33.257 49.856 33.033L49.562 33.32C50.01 33.551 50.521 33.894 50.815 34.167H48.652C48.708 33.831 48.771 33.439 48.827 33.033H52.18C52.152 33.509 52.124 33.88 52.096 34.167H50.948ZM52.243 31.486C52.229 31.899 52.215 32.256 52.201 32.585H51.004L51.305 32.277C51.025 32.025 50.486 31.703 50.031 31.507L49.737 31.801C50.192 31.997 50.71 32.333 50.983 32.585H48.883C48.939 32.214 48.988 31.843 49.037 31.486H52.243ZM53.685 33.047V32.571H52.705C52.719 32.193 52.74 31.766 52.754 31.276C52.754 31.213 52.761 31.024 52.761 31.024H48.575C48.526 31.493 48.449 32.032 48.379 32.571H47.322V33.047H48.309C48.218 33.635 48.12 34.202 48.043 34.622H48.323V34.629H52.04C51.998 34.846 51.949 34.979 51.9 35.035C51.83 35.119 51.767 35.133 51.641 35.133C51.508 35.14 51.186 35.133 50.829 35.105C50.899 35.224 50.955 35.399 50.962 35.518C51.305 35.539 51.655 35.546 51.858 35.532C52.068 35.511 52.215 35.448 52.348 35.28C52.425 35.168 52.495 34.979 52.551 34.629H53.447V34.167H52.607C52.642 33.873 52.663 33.502 52.691 33.047H53.685ZM56.785 34.489V32.536H60.257V34.489H56.785ZM60.257 30.135V32.025H56.785V30.135H60.257ZM56.26 29.624V35.455H56.785V35H60.257V35.427H60.803V29.624H56.26ZM64.911 30.17C64.806 29.911 64.568 29.505 64.358 29.19L63.952 29.358C64.141 29.68 64.372 30.114 64.484 30.38L64.911 30.17ZM67.438 32.9V33.621H66.381V32.9H67.438ZM69.02 33.621H67.907V32.9H69.02V33.621ZM67.907 34.776V34.027H69.02V34.776H67.907ZM66.381 34.027H67.438V34.776H66.381V34.027ZM65.898 32.886C65.737 32.732 65.247 32.291 65.009 32.095C65.338 31.64 65.618 31.136 65.814 30.618L65.527 30.429L65.429 30.45H63.413V30.926H65.17C64.722 31.843 63.924 32.725 63.161 33.222C63.238 33.32 63.378 33.558 63.427 33.691C63.742 33.467 64.057 33.187 64.365 32.865V35.525H64.869V32.522C65.121 32.781 65.457 33.138 65.604 33.327L65.898 32.921V35.539H66.381V35.21H69.02V35.518H69.524V32.459H65.898V32.886ZM68.712 31.598H66.731V30.828H68.712V31.598ZM66.262 30.408V32.011H69.202V30.408H66.262ZM65.87 29.484V29.932H69.566V29.484H65.87ZM73.338 29.953C73.807 29.848 74.248 29.722 74.598 29.582L74.213 29.183C73.562 29.47 72.344 29.708 71.322 29.862C71.385 29.974 71.462 30.149 71.483 30.275C71.917 30.212 72.379 30.142 72.834 30.058V31.241H71.371V31.717H72.729C72.386 32.585 71.777 33.551 71.217 34.083C71.308 34.209 71.441 34.426 71.504 34.566C71.98 34.09 72.47 33.299 72.834 32.501V35.518H73.338V32.76C73.695 33.089 74.143 33.537 74.353 33.768L74.654 33.341C74.451 33.159 73.653 32.473 73.338 32.228V31.717H74.675V31.241H73.338V29.953ZM75.648 29.974H75.144V33.803H75.648V29.974ZM76.852 29.281V34.846C76.852 34.979 76.796 35.021 76.67 35.021C76.537 35.028 76.096 35.028 75.606 35.014C75.69 35.161 75.767 35.399 75.795 35.539C76.432 35.539 76.824 35.525 77.055 35.448C77.272 35.357 77.37 35.196 77.37 34.839V29.281H76.852Z" fill="#39393E"/>
<path d="M56.8 39.792H55.14V39.344H56.384V39.08H55.14V38.66H54.836V39.08H53.624V39.344H54.836V39.792H53.212V40.06H54.22L53.968 40.136C54.06 40.292 54.156 40.5 54.196 40.636H53.532V40.9H54.836V41.364H53.316V41.632H54.836V42.312H55.14V41.632H56.684V41.364H55.14V40.9H56.496V40.636H55.772C55.868 40.488 55.976 40.308 56.064 40.144L55.752 40.06C55.688 40.228 55.576 40.464 55.476 40.636H54.292L54.5 40.568C54.46 40.436 54.352 40.22 54.252 40.06H56.8V39.792ZM61.232 40.056V40.324H60.616V40.056H61.232ZM61.232 40.784H60.616V40.516H61.232V40.784ZM59.736 40.784V40.516H60.328V40.784H59.736ZM59.736 40.056H60.328V40.324H59.736V40.056ZM59.536 39.028H61.392V39.392H60.616V39.192H60.328V39.392H59.572V39.612H60.328V39.856H59.484V40.988H60.328V41.24H59.284V41.476H60.328V41.8H60.616V41.476H61.728V41.24H60.616V40.988H61.492V39.856H60.616V39.612H61.392V39.504H61.676V38.796H59.26V39.504H59.536V39.028ZM59.048 39.272C58.948 39.108 58.748 38.856 58.576 38.66L58.348 38.784C58.512 38.984 58.72 39.26 58.812 39.428L59.048 39.272ZM59.044 40.552L58.992 40.56H58.576C58.796 40.288 59.08 39.876 59.236 39.64L59.04 39.552L58.996 39.572H58.204V39.82H58.812C58.648 40.068 58.424 40.384 58.34 40.472C58.272 40.548 58.212 40.572 58.152 40.588C58.184 40.652 58.24 40.788 58.26 40.86C58.288 40.828 58.396 40.804 58.492 40.804H58.88C58.76 41.42 58.496 41.86 58.14 42.108C58.2 42.148 58.296 42.252 58.336 42.312C58.528 42.168 58.7 41.968 58.836 41.708C59.152 42.16 59.652 42.24 60.464 42.24C60.9 42.24 61.4 42.232 61.78 42.208C61.792 42.128 61.828 41.996 61.872 41.932C61.468 41.968 60.888 41.984 60.468 41.984C59.712 41.984 59.204 41.92 58.952 41.472C59.048 41.228 59.128 40.936 59.18 40.608L59.044 40.552ZM66.756 40.1V39.796H65.104C65.16 39.376 65.164 38.98 65.168 38.66H64.848C64.844 38.976 64.848 39.376 64.788 39.796H63.264V40.1H64.74C64.576 40.856 64.176 41.624 63.184 42.056C63.268 42.116 63.364 42.22 63.408 42.3C64.38 41.856 64.812 41.088 65.004 40.32C65.32 41.228 65.828 41.936 66.596 42.3C66.648 42.212 66.748 42.088 66.82 42.02C66.048 41.704 65.528 40.98 65.248 40.1H66.756ZM70.924 40.436H71.316L71.176 40.508C71.236 40.56 71.296 40.624 71.352 40.684L70.924 40.692V40.436ZM70.18 40.252V40.004H70.664V40.252H70.18ZM70.18 39.58H70.664V39.824H70.18V39.58ZM71.436 39.58V39.824H70.924V39.58H71.436ZM71.436 40.252H70.924V40.004H71.436V40.252ZM69.824 40.936C70.264 40.928 70.9 40.912 71.528 40.892C71.576 40.952 71.616 41.012 71.644 41.06L71.852 40.932C71.76 40.792 71.584 40.588 71.404 40.436H71.684V39.396H70.924V39.18H71.78V38.944H70.924V38.656H70.664V38.944H69.844V39.18H70.664V39.396H69.936V40.436H70.664V40.696C70.336 40.704 70.036 40.704 69.804 40.708L69.824 40.936ZM70.036 41.56C70.184 41.696 70.34 41.9 70.412 42.044L70.632 41.9C70.556 41.764 70.396 41.572 70.236 41.44L70.036 41.56ZM68.532 40.436H68.904V40.8H68.532V40.436ZM68.532 39.868H68.904V40.224H68.532V39.868ZM69.488 40.224H69.116V39.868H69.488V40.224ZM69.488 40.8H69.116V40.436H69.488V40.8ZM71.344 40.956H71.068V41.168H69.8V41.348H69.14V41.024H69.716V39.644H69.14V39.348H69.76V39.088H69.14V38.656H68.876V39.088H68.22V39.348H68.876V39.644H68.312V41.024H68.876V41.348H68.168V41.612H68.876V42.308H69.14V41.612H69.816V41.404H71.068V42.012C71.068 42.056 71.056 42.064 71 42.068C70.944 42.072 70.764 42.072 70.564 42.064C70.6 42.136 70.64 42.236 70.652 42.312C70.916 42.312 71.088 42.312 71.204 42.268C71.312 42.232 71.344 42.16 71.344 42.016V41.404H71.828V41.168H71.344V40.956ZM75.516 39.024H76.036V39.308C76.036 39.552 76.088 39.644 76.324 39.644H76.612C76.684 39.644 76.764 39.64 76.808 39.624C76.8 39.564 76.792 39.472 76.788 39.412C76.744 39.42 76.656 39.424 76.604 39.424H76.348C76.296 39.424 76.288 39.4 76.288 39.312V38.8H75.272V39.072C75.272 39.252 75.22 39.444 74.92 39.604C74.968 39.636 75.056 39.736 75.088 39.792C75.432 39.596 75.516 39.316 75.516 39.076V39.024ZM76.756 40.876C76.592 40.752 76.364 40.612 76.108 40.472C76.296 40.316 76.448 40.124 76.552 39.884L76.4 39.808L76.356 39.816H75.084V40.036H76.196C76.112 40.156 76.008 40.264 75.888 40.356C75.664 40.24 75.432 40.132 75.224 40.044L75.068 40.216C75.252 40.3 75.456 40.396 75.656 40.504C75.432 40.62 75.168 40.704 74.896 40.756C74.944 40.8 75.012 40.912 75.036 40.968C75.344 40.896 75.64 40.784 75.892 40.628C76.168 40.784 76.42 40.944 76.584 41.072L76.756 40.876ZM73.908 39.364C74.028 39.464 74.144 39.608 74.2 39.716L74.388 39.592C74.328 39.492 74.208 39.356 74.084 39.26L73.908 39.364ZM73.78 39.16H74.592V39.764C74.308 39.78 74.032 39.792 73.776 39.8C73.78 39.76 73.78 39.72 73.78 39.68V39.16ZM74.592 40.676C74.592 40.72 74.58 40.732 74.532 40.736C74.492 40.74 74.348 40.74 74.184 40.732C74.216 40.796 74.252 40.884 74.26 40.948C74.48 40.948 74.632 40.948 74.72 40.908C74.816 40.872 74.84 40.808 74.84 40.676V39.956L74.936 39.952L74.94 39.744L74.84 39.748V38.944H74.224C74.264 38.864 74.304 38.784 74.348 38.688L74.084 38.648C74.06 38.736 74.012 38.844 73.968 38.944H73.536V39.676C73.536 39.716 73.536 39.76 73.532 39.808C73.404 39.812 73.28 39.816 73.176 39.82L73.196 40.044L73.516 40.028C73.48 40.324 73.388 40.632 73.144 40.88C73.2 40.912 73.296 40.996 73.332 41.048C73.616 40.764 73.724 40.372 73.764 40.02C74.024 40.008 74.304 39.992 74.592 39.976V40.676ZM73.888 40.228C74.008 40.32 74.132 40.464 74.184 40.568L74.364 40.44C74.308 40.336 74.18 40.2 74.06 40.108L73.888 40.228ZM73.944 41.288H74.456V41.944H73.944V41.288ZM75.252 41.288V41.944H74.732V41.288H75.252ZM76.048 41.288V41.944H75.528V41.288H76.048ZM76.34 41.052H73.664V41.944H73.196V42.188H76.808V41.944H76.34V41.052Z" fill="#8E8E93"/>
<g opacity="0.73">
<path opacity="0.73" d="M17.4307 27.2728L17.4017 32.3434L3 32.2649L3.03733 25.5757L15.8172 25.65L15.8836 25.7161L17.3602 27.2026L17.4307 27.2728Z" fill="#78C2FF"/>
<path opacity="0.73" d="M17.4305 27.2725L15.821 27.2642L15.8293 25.6621L15.8584 25.691L15.9247 25.7571L17.3226 27.1651L17.4305 27.2725Z" fill="#2180CC"/>
<path opacity="0.73" d="M11.6566 28.9698C11.659 29.2763 11.5698 29.5766 11.4003 29.8324C11.2308 30.0883 10.9887 30.2881 10.7047 30.4066C10.4207 30.525 10.1078 30.5566 9.80568 30.4974C9.5036 30.4382 9.22604 30.2909 9.00833 30.0742C8.79063 29.8574 8.64262 29.5811 8.58316 29.2804C8.5237 28.9797 8.55547 28.6682 8.67443 28.3855C8.79338 28.1028 8.99415 27.8618 9.25116 27.693C9.50817 27.5243 9.80981 27.4355 10.1177 27.4379C10.5252 27.4401 10.9153 27.6022 11.2034 27.889C11.4916 28.1758 11.6544 28.5642 11.6566 28.9698V28.9698Z" fill="#2180CC"/>
<path opacity="0.73" d="M14.8342 28.9862C14.8333 29.1159 14.7936 29.2424 14.7201 29.3496C14.6466 29.4567 14.5427 29.5396 14.4217 29.5877C14.3007 29.6358 14.168 29.6468 14.0406 29.6195C13.9132 29.5921 13.7969 29.5276 13.7066 29.4341C13.6162 29.3406 13.5559 29.2225 13.5333 29.0947C13.5108 28.9669 13.527 28.8354 13.5799 28.7168C13.6328 28.5983 13.72 28.4981 13.8304 28.4292C13.9408 28.3602 14.0693 28.3256 14.1995 28.3297C14.3705 28.3351 14.5325 28.4067 14.6511 28.5294C14.7696 28.652 14.8353 28.816 14.8342 28.9862Z" fill="#2180CC"/>
<path opacity="0.73" d="M5.38551 28.9326C5.38633 28.8035 5.42557 28.6776 5.49827 28.5708C5.57097 28.464 5.67385 28.381 5.79392 28.3324C5.91398 28.2838 6.04584 28.2717 6.1728 28.2977C6.29977 28.3236 6.41615 28.3865 6.50722 28.4783C6.59829 28.5701 6.65997 28.6868 6.68446 28.8135C6.70894 28.9402 6.69513 29.0713 6.64477 29.1902C6.59441 29.3091 6.50976 29.4104 6.40154 29.4814C6.29331 29.5525 6.16636 29.5899 6.03674 29.5891C5.95067 29.5886 5.86556 29.5712 5.78625 29.5379C5.70695 29.5046 5.635 29.4561 5.57453 29.3951C5.51406 29.3341 5.46624 29.2619 5.43381 29.1825C5.40138 29.1032 5.38496 29.0182 5.38551 28.9326V28.9326Z" fill="#2180CC"/>
</g>
<g opacity="0.73">
<path opacity="0.73" d="M36.2416 19.5636L39 23.829L26.8839 31.5877L23.2502 25.9638L33.9976 19.0804L34.093 19.1011L36.1421 19.5429L36.2416 19.5636Z" fill="#78C2FF"/>
<path opacity="0.73" d="M36.2411 19.5637L34.8847 20.4308L34.0137 19.0847L34.0552 19.093L34.1464 19.1136L36.0918 19.5307L36.2411 19.5637Z" fill="#2180CC"/>
<path opacity="0.73" d="M32.3343 24.1343C32.4995 24.3906 32.5848 24.6898 32.5792 24.9942C32.5737 25.2987 32.4776 25.5947 32.3032 25.8448C32.1287 26.0949 31.8837 26.2879 31.5991 26.3994C31.3145 26.511 31.003 26.5361 30.7041 26.4715C30.4052 26.4069 30.1322 26.2555 29.9197 26.0366C29.7071 25.8176 29.5645 25.5408 29.51 25.2412C29.4554 24.9416 29.4912 24.6327 29.6129 24.3533C29.7347 24.074 29.9369 23.8368 30.194 23.6719C30.5396 23.4513 30.9589 23.3762 31.3601 23.4629C31.7613 23.5496 32.1116 23.791 32.3343 24.1343V24.1343Z" fill="#2180CC"/>
<path opacity="0.73" d="M35.0059 22.4125C35.0999 22.5581 35.132 22.735 35.0951 22.9042C35.0581 23.0734 34.9551 23.2211 34.8088 23.3147C34.6625 23.4083 34.4848 23.4403 34.3149 23.4035C34.1449 23.3667 33.9966 23.2642 33.9025 23.1186C33.8559 23.0465 33.8241 22.9659 33.8088 22.8815C33.7935 22.7972 33.795 22.7106 33.8133 22.6268C33.8316 22.5431 33.8663 22.4637 33.9154 22.3933C33.9645 22.3228 34.0271 22.2627 34.0995 22.2164C34.172 22.17 34.2529 22.1383 34.3376 22.1231C34.4224 22.1078 34.5093 22.1094 34.5935 22.1276C34.6777 22.1458 34.7574 22.1803 34.8281 22.2292C34.8989 22.2781 34.9593 22.3404 35.0059 22.4125Z" fill="#2180CC"/>
<path opacity="0.73" d="M27.0581 27.4995C26.9881 27.3908 26.9522 27.2639 26.9547 27.1348C26.9573 27.0058 26.9982 26.8804 27.0724 26.7745C27.1466 26.6686 27.2506 26.587 27.3714 26.54C27.4922 26.493 27.6243 26.4827 27.7509 26.5105C27.8775 26.5383 27.9931 26.6028 28.0828 26.6959C28.1726 26.7891 28.2326 26.9066 28.2553 27.0338C28.2779 27.1609 28.2622 27.2918 28.21 27.41C28.1579 27.5282 28.0717 27.6283 27.9623 27.6977C27.816 27.7906 27.6386 27.822 27.469 27.7848C27.2995 27.7476 27.1517 27.645 27.0581 27.4995V27.4995Z" fill="#2180CC"/>
</g>
<g opacity="0.73">
<path opacity="0.73" d="M20.0233 17.4039L17.2939 21.69L5.13208 14.0056L8.73251 8.36108L19.5213 15.1742L19.5421 15.2692L20.0025 17.309L20.0233 17.4039Z" fill="#78C2FF"/>
<path opacity="0.73" d="M20.0231 17.4038L18.6626 16.549L19.5254 15.1906L19.5337 15.2318L19.5544 15.3227L19.9899 17.2551L20.0231 17.4038Z" fill="#2180CC"/>
<path opacity="0.73" d="M14.2286 15.7895C14.065 16.0482 13.8279 16.2527 13.5475 16.3772C13.267 16.5016 12.9557 16.5404 12.6531 16.4887C12.3504 16.4369 12.07 16.2969 11.8474 16.0863C11.6248 15.8758 11.4699 15.6042 11.4024 15.306C11.3349 15.0078 11.3579 14.6964 11.4684 14.4111C11.5788 14.1259 11.7718 13.8797 12.023 13.7038C12.2741 13.5279 12.572 13.4301 12.879 13.4228C13.186 13.4155 13.4882 13.4991 13.7475 13.663C14.0939 13.882 14.3391 14.2288 14.4293 14.6273C14.5194 15.0259 14.4473 15.4438 14.2286 15.7895Z" fill="#2180CC"/>
<path opacity="0.73" d="M16.9084 17.4823C16.8627 17.5554 16.8029 17.6188 16.7325 17.6688C16.6621 17.7188 16.5824 17.7544 16.4981 17.7736C16.4138 17.7928 16.3265 17.7952 16.2412 17.7807C16.156 17.7661 16.0745 17.735 16.0014 17.6889C15.9283 17.6429 15.8651 17.5829 15.8154 17.5124C15.7658 17.4419 15.7306 17.3623 15.7119 17.2782C15.6933 17.1942 15.6916 17.1073 15.7068 17.0225C15.7221 16.9378 15.7541 16.8568 15.8009 16.7845C15.8943 16.6436 16.0387 16.544 16.204 16.5063C16.3693 16.4686 16.5428 16.4958 16.6885 16.5821C16.7626 16.6266 16.8271 16.6853 16.8783 16.7547C16.9295 16.8241 16.9664 16.9029 16.9868 16.9866C17.0073 17.0703 17.0108 17.1572 16.9974 17.2423C16.9839 17.3273 16.9537 17.4089 16.9084 17.4823V17.4823Z" fill="#2180CC"/>
<path opacity="0.73" d="M8.93165 12.4447C9.00138 12.3359 9.10197 12.25 9.2207 12.1981C9.33943 12.1462 9.47096 12.1305 9.59865 12.1531C9.72634 12.1756 9.84444 12.2354 9.938 12.3247C10.0316 12.4141 10.0964 12.5291 10.1243 12.6552C10.1522 12.7813 10.1419 12.9127 10.0947 13.033C10.0474 13.1532 9.96547 13.2568 9.8591 13.3306C9.75273 13.4045 9.62675 13.4452 9.4971 13.4478C9.36745 13.4503 9.23995 13.4145 9.13075 13.3449C8.98458 13.2517 8.88152 13.1045 8.84419 12.9358C8.80686 12.767 8.83832 12.5904 8.93165 12.4447Z" fill="#2180CC"/>
</g>
<g opacity="0.73">
<path opacity="0.73" d="M31.9698 2.5473L35.0766 6.56497L23.6573 15.3064L19.5632 10.0046L29.6925 2.25L29.7879 2.26239L31.8702 2.53078L31.9698 2.5473Z" fill="#78C2FF"/>
<path opacity="0.73" d="M31.9689 2.54732L30.6913 3.5218L29.7083 2.25415L29.7497 2.25828L29.8451 2.27067L31.8154 2.52668L31.9689 2.54732Z" fill="#2180CC"/>
<path opacity="0.73" d="M28.4601 7.41152C28.6476 7.65341 28.7589 7.94525 28.7797 8.25011C28.8006 8.55497 28.7302 8.85914 28.5773 9.12412C28.4245 9.38911 28.1961 9.60299 27.9211 9.73871C27.646 9.87444 27.3368 9.92589 27.0324 9.88657C26.728 9.84725 26.4421 9.71891 26.211 9.51781C25.9799 9.3167 25.8139 9.05187 25.7341 8.75682C25.6542 8.46178 25.6641 8.14978 25.7624 7.86033C25.8608 7.57087 26.0432 7.31696 26.2865 7.13073C26.6123 6.88144 27.0242 6.771 27.4316 6.82364C27.8391 6.87628 28.209 7.08771 28.4601 7.41152V7.41152Z" fill="#2180CC"/>
<path opacity="0.73" d="M30.9737 5.48723C31.053 5.58948 31.1 5.71286 31.1088 5.84174C31.1176 5.97061 31.0877 6.09918 31.0231 6.21115C30.9584 6.32312 30.8617 6.41346 30.7454 6.47071C30.6291 6.52796 30.4983 6.54955 30.3697 6.53275C30.241 6.51594 30.1203 6.46149 30.0227 6.37631C29.9252 6.29112 29.8552 6.17903 29.8218 6.05423C29.7883 5.92943 29.7928 5.79755 29.8346 5.6753C29.8765 5.55304 29.9539 5.44591 30.057 5.36749C30.125 5.31511 30.2027 5.27664 30.2857 5.2543C30.3686 5.23196 30.4552 5.22619 30.5404 5.23732C30.6257 5.24845 30.7078 5.27627 30.7822 5.31916C30.8565 5.36205 30.9216 5.41917 30.9737 5.48723V5.48723Z" fill="#2180CC"/>
<path opacity="0.73" d="M23.487 11.2186C23.4341 11.1512 23.3952 11.0741 23.3724 10.9916C23.3497 10.9092 23.3435 10.8231 23.3543 10.7383C23.3651 10.6535 23.3926 10.5716 23.4353 10.4974C23.478 10.4233 23.535 10.3582 23.6031 10.3061C23.7054 10.2266 23.8292 10.1792 23.9586 10.1698C24.0881 10.1604 24.2174 10.1895 24.3302 10.2534C24.443 10.3173 24.5343 10.4131 24.5923 10.5287C24.6504 10.6442 24.6727 10.7743 24.6564 10.9025C24.64 11.0307 24.5859 11.1511 24.5007 11.2486C24.4155 11.3461 24.3032 11.4162 24.1779 11.4501C24.0527 11.484 23.9201 11.48 23.7971 11.4388C23.6741 11.3976 23.5662 11.321 23.487 11.2186V11.2186Z" fill="#2180CC"/>
</g>
</g>
<defs>
<clipPath id="clip0">
<rect width="82" height="45" rx="5" fill="white"/>
</clipPath>
</defs>
</svg>
