<svg width="27" height="27" viewBox="0 0 27 27" fill="none" xmlns="http://www.w3.org/2000/svg">
<g opacity="0.74">
<path opacity="0.74" d="M25.33 0H1.67001C0.747691 0 0 0.810648 0 1.81063V25.1894C0 26.1894 0.747691 27 1.67001 27H25.33C26.2523 27 27 26.1894 27 25.1894V1.81063C27 0.810648 26.2523 0 25.33 0Z" fill="#F7F7F7"/>
</g>
<path d="M13.6659 20.1359H3.20166V21.2648H13.6659V20.1359Z" fill="#DBDBDB"/>
<path d="M19.524 22.5312H3.20166V23.6602H19.524V22.5312Z" fill="#DBDBDB"/>
<path d="M9.25287 3.52425C9.96062 3.2074 10.7102 3.01425 11.4738 2.95198L11.8257 2.91445C11.9987 2.91445 12.166 2.88943 12.3218 2.88318C12.3567 3.19492 12.4957 3.482 12.7125 3.69024C12.9293 3.89847 13.2089 4.01344 13.4986 4.01344C13.7882 4.01344 14.0678 3.89847 14.2846 3.69024C14.5014 3.482 14.6404 3.19492 14.6754 2.88318C14.8311 2.88318 14.9984 2.90194 15.1715 2.91445L15.5262 2.95198C16.6973 3.08332 18.0327 3.41167 18.5519 4.18095C19.5614 5.67887 19.7633 9.52216 19.6191 16.896H19.4027V17.2713H17.9981V16.8867H17.7097V15.0104H17.1789V15.7921H9.82396V15.0104H9.28171V16.8867H9.03078V17.2619H7.62612V16.8867H7.38095C7.23674 9.51278 7.43864 5.66949 8.44526 4.17157C8.64466 3.90143 8.90081 3.68697 9.1923 3.54614L9.25287 3.52425Z" fill="#C3DB60"/>
<path d="M15.1744 2.91445C15.1744 3.39549 14.9982 3.85683 14.6844 4.19697C14.3707 4.53712 13.9452 4.72821 13.5015 4.72821C13.0578 4.72821 12.6323 4.53712 12.3186 4.19697C12.0049 3.85683 11.8286 3.39549 11.8286 2.91445C12.0017 2.91445 12.169 2.88943 12.3247 2.88318C12.3596 3.19492 12.4986 3.482 12.7154 3.69024C12.9322 3.89847 13.2119 4.01344 13.5015 4.01344C13.7912 4.01344 14.0708 3.89847 14.2876 3.69024C14.5044 3.482 14.6434 3.19492 14.6783 2.88318C14.8341 2.88943 14.9985 2.90194 15.1744 2.91445Z" fill="#98B037"/>
<path d="M25.4628 21.8901C25.4634 22.3535 25.3371 22.8067 25.1001 23.1923C24.8631 23.5779 24.5259 23.8786 24.1312 24.0563C23.7365 24.2341 23.302 24.2809 22.8827 24.1909C22.4635 24.1009 22.0783 23.8781 21.7759 23.5506C21.4734 23.2232 21.2674 22.8058 21.1838 22.3514C21.1002 21.8969 21.1428 21.4258 21.3063 20.9977C21.4697 20.5695 21.7466 20.2035 22.1019 19.946C22.4572 19.6885 22.875 19.551 23.3024 19.551C23.8749 19.551 24.4239 19.7974 24.829 20.2359C25.2341 20.6745 25.462 21.2695 25.4628 21.8901Z" fill="#DBDBDB"/>
<path d="M23.0919 22.9878L22.1372 21.9496L22.5583 21.493L23.0919 22.0715L24.0495 21.0364L24.4706 21.493L23.0919 22.9878Z" fill="white"/>
</svg>
