<svg width="82" height="45" viewBox="0 0 82 45" fill="none" xmlns="http://www.w3.org/2000/svg">
<g clip-path="url(#clip0)">
<rect width="82" height="45" rx="5" fill="white"/>
<path d="M51.27 30.457C50.871 30.128 50.108 29.561 49.52 29.169L49.177 29.54C49.765 29.939 50.521 30.52 50.927 30.877L51.27 30.457ZM48.05 31.255C47.917 32.018 47.637 32.956 47.252 33.558L47.735 33.761C48.127 33.145 48.386 32.151 48.54 31.374L48.05 31.255ZM50.178 34.965C49.779 34.965 49.702 34.902 49.702 34.573V33.81C51.13 32.697 52.25 31.276 53.041 29.778L52.523 29.568C51.886 30.849 50.92 32.116 49.702 33.152V30.842H49.163V33.586C48.575 34.027 47.938 34.412 47.259 34.72C47.364 34.818 47.518 35.007 47.595 35.126C48.148 34.86 48.666 34.552 49.163 34.216V34.566C49.163 35.287 49.38 35.476 50.136 35.476H51.543C52.299 35.476 52.474 35.098 52.551 33.859C52.397 33.824 52.18 33.733 52.04 33.628C51.991 34.741 51.928 34.965 51.522 34.965H50.178ZM52.159 31.703C52.621 32.396 53.09 33.334 53.272 33.95L53.762 33.712C53.573 33.096 53.104 32.179 52.621 31.493L52.159 31.703ZM56.918 30.282V33.327H56.036V30.282H56.918ZM57.394 29.778H55.553V34.37H56.036V33.831H57.394V29.778ZM61.594 30.702V30.212H58.892C59.018 29.911 59.137 29.589 59.235 29.26L58.717 29.141C58.472 30.037 58.045 30.905 57.513 31.465C57.632 31.542 57.849 31.717 57.947 31.808C58.206 31.5 58.451 31.129 58.661 30.702H61.594ZM58.892 34.916C58.57 34.916 58.374 34.839 58.374 34.657C58.374 34.419 58.556 34.062 61.167 31.927C61.202 31.892 61.237 31.864 61.251 31.829L60.894 31.633L60.775 31.654H58.269V32.137H60.117C57.94 33.978 57.835 34.377 57.835 34.72C57.835 35.168 58.171 35.427 58.913 35.427H60.831C61.461 35.427 61.671 35.231 61.741 34.048C61.587 34.02 61.405 33.957 61.265 33.873C61.237 34.783 61.153 34.916 60.859 34.916H58.892ZM66.535 34.111C67.501 34.496 68.754 35.126 69.37 35.56L69.615 35.112C68.978 34.692 67.718 34.09 66.759 33.726L66.535 34.111ZM66.745 32.193V31.605H68.985V31.15H66.745V30.583H69.321V30.114H67.83C68.012 29.869 68.222 29.568 68.39 29.281L67.858 29.12C67.711 29.414 67.466 29.827 67.256 30.114H65.415L65.667 30.002C65.555 29.75 65.31 29.386 65.051 29.12L64.603 29.302C64.813 29.547 65.03 29.869 65.142 30.114H63.665V30.583H66.227V31.15H64.05V31.605H66.227V32.193H63.42V32.655H66.164C66.143 32.844 66.115 33.026 66.073 33.194H63.574V33.649H65.926C65.611 34.37 64.925 34.818 63.308 35.049C63.406 35.168 63.539 35.385 63.581 35.518C65.415 35.203 66.164 34.608 66.493 33.649H69.51V33.194H66.619C66.654 33.026 66.682 32.844 66.703 32.655H69.622V32.193H66.745ZM75.949 31.591V32.095H73.03V31.591H75.949ZM73.03 32.963V32.466H75.949V32.963H73.03ZM73.03 34.846V33.362H76.467V31.199H72.519V34.58C72.519 34.874 72.358 35.021 72.253 35.091C72.337 35.182 72.449 35.371 72.491 35.483C72.652 35.399 72.897 35.343 74.731 34.993C74.724 34.895 74.724 34.685 74.745 34.552L73.03 34.846ZM76.824 33.257C76.488 33.537 75.942 33.894 75.473 34.16C75.123 33.957 74.766 33.775 74.451 33.607L74.108 33.908C74.997 34.377 76.159 35.077 76.726 35.511L77.097 35.161C76.796 34.944 76.362 34.671 75.9 34.398C76.341 34.16 76.824 33.859 77.216 33.551L76.824 33.257ZM73.639 30.527C73.947 30.317 74.234 30.072 74.486 29.82C74.745 30.065 75.053 30.31 75.389 30.527H73.639ZM74.437 29.099C73.807 29.995 72.554 30.716 71.322 31.087C71.448 31.206 71.588 31.395 71.658 31.521C72.33 31.297 72.981 30.975 73.555 30.59V30.905H75.501V30.597C76.11 30.989 76.789 31.318 77.405 31.521C77.482 31.395 77.643 31.185 77.755 31.087C76.705 30.786 75.48 30.156 74.78 29.491C74.829 29.435 74.871 29.379 74.906 29.323L74.437 29.099Z" fill="#39393E"/>
<path d="M50.548 41.28V41.652H49.408V41.28H50.548ZM50.816 41.056H49.132V42.072H49.408V41.876H50.816V41.056ZM51.608 40.568H48.396V42.304H48.684V40.82H51.312V41.992C51.312 42.04 51.296 42.052 51.244 42.056C51.196 42.056 51.012 42.06 50.84 42.052C50.876 42.112 50.92 42.204 50.936 42.272C51.188 42.276 51.36 42.272 51.464 42.236C51.572 42.196 51.608 42.136 51.608 41.992V40.568ZM50.872 40.132H49.148V39.772H50.872V40.132ZM48.856 39.552V40.352H51.176V39.552H48.856ZM50.212 39.072C50.168 38.944 50.108 38.776 50.052 38.64L49.764 38.708C49.804 38.82 49.852 38.956 49.888 39.072H48.252V39.328H51.736V39.072H50.212ZM56.272 39.288C56.22 39.128 56.096 38.888 55.984 38.708L55.732 38.796C55.84 38.98 55.96 39.232 56.008 39.392L56.272 39.288ZM54.864 39.624V39.34H54.052C54.084 39.12 54.112 38.904 54.136 38.676L53.848 38.652C53.824 38.888 53.8 39.116 53.768 39.34H53.252V39.624H53.724C53.604 40.32 53.416 40.932 53.112 41.356C53.18 41.392 53.308 41.488 53.356 41.532C53.68 41.044 53.876 40.388 54.008 39.624H54.864ZM54.384 40.924C54.452 41.136 54.52 41.384 54.58 41.62L53.892 41.736C54.112 41.284 54.324 40.696 54.468 40.144L54.184 40.068C54.064 40.672 53.808 41.34 53.728 41.508C53.644 41.684 53.584 41.808 53.516 41.828C53.552 41.9 53.592 42.032 53.604 42.092C53.68 42.048 53.804 42.02 54.64 41.86C54.66 41.964 54.68 42.068 54.692 42.156L54.936 42.072C54.88 41.736 54.74 41.24 54.612 40.852L54.384 40.924ZM55.352 41.276H55.92V41.828H55.352V41.276ZM55.92 39.672V40.216H55.352V39.672H55.92ZM55.92 41.02H55.352V40.476H55.92V41.02ZM56.788 41.828H56.192V41.276H56.732V41.02H56.192V40.476H56.728V40.216H56.192V39.672H56.736V39.408H55.336C55.436 39.192 55.516 38.964 55.588 38.736L55.332 38.672C55.176 39.208 54.92 39.752 54.62 40.108C54.676 40.156 54.768 40.28 54.8 40.332C54.9 40.208 54.992 40.068 55.084 39.916V42.3H55.352V42.1H56.788V41.828ZM60.684 40.808H61.584V40.528H60.684V39.764H60.388V40.528H59.492V40.808H60.388V41.932H59.336V42.212H61.74V41.932H60.684V40.808ZM59.68 39.272C59.752 39.092 59.82 38.908 59.872 38.728L59.568 38.652C59.512 38.856 59.44 39.068 59.356 39.272H58.264V39.556H59.224C58.976 40.064 58.624 40.536 58.168 40.86C58.216 40.924 58.292 41.048 58.32 41.128C58.488 41.008 58.644 40.876 58.784 40.724V42.288H59.076V40.372C59.264 40.116 59.42 39.844 59.56 39.556H61.74V39.272H59.68ZM63.98 39.892H64.408V39.608H63.98V38.7H63.7V39.608H63.224V39.892H63.7V41.124C63.492 41.212 63.3 41.292 63.148 41.344L63.264 41.64C63.612 41.484 64.06 41.284 64.48 41.088L64.42 40.824C64.272 40.888 64.124 40.948 63.98 41.012V39.892ZM65.312 41.948C65.052 41.948 65 41.896 65 41.68V40.3L65.536 40.072V41.42H65.82V39.952L66.34 39.732C66.308 40.236 66.256 40.828 66.188 41.192L66.432 41.264C66.532 40.812 66.6 40.076 66.64 39.512L66.656 39.464L66.428 39.388L65.82 39.644V38.652H65.536V39.764L65 39.988V39.024H64.716V40.112L64.284 40.292L64.4 40.552L64.716 40.42V41.676C64.716 42.108 64.852 42.216 65.304 42.216H66.288C66.704 42.216 66.796 42.04 66.844 41.492C66.76 41.48 66.648 41.432 66.576 41.38C66.548 41.84 66.508 41.948 66.276 41.948H65.312ZM70.012 41.216H70.684V41.756H70.012V41.216ZM70.684 40.156H70.012V39.64H70.684V40.156ZM70.684 40.948H70.012V40.424H70.684V40.948ZM71.804 41.756H70.964V41.216H71.656V40.948H70.964V40.424H71.66V40.156H70.964V39.64H71.724V39.364H70.876L71.108 39.264C71.06 39.104 70.936 38.868 70.816 38.684L70.56 38.784C70.668 38.96 70.788 39.204 70.836 39.364H70.048C70.136 39.164 70.22 38.956 70.288 38.748L70.008 38.676C69.828 39.264 69.528 39.84 69.18 40.212C69.232 40.252 69.32 40.336 69.372 40.396L68.972 40.52V39.724H69.416V39.448H68.972V38.656H68.684V39.448H68.176V39.724H68.684V40.608C68.48 40.676 68.292 40.728 68.14 40.772L68.216 41.06L68.684 40.904V41.94C68.684 42 68.664 42.012 68.612 42.012C68.568 42.016 68.412 42.016 68.24 42.012C68.28 42.096 68.32 42.22 68.328 42.3C68.584 42.304 68.736 42.292 68.832 42.244C68.932 42.192 68.972 42.112 68.972 41.94V40.812L69.428 40.664L69.388 40.408L69.4 40.424C69.512 40.292 69.624 40.14 69.724 39.972V42.308H70.012V42.028H71.804V41.756ZM74.068 39.392H74.356V39.14H74.872V38.904H74.356V38.656H74.068V38.904H73.228V39.14H74.068V39.392ZM73.94 42.276C74.064 42.12 74.168 41.872 74.232 41.68L74.02 41.588C73.96 41.772 73.844 42.016 73.724 42.156L73.94 42.276ZM74.432 41.672C74.476 41.856 74.516 42.096 74.516 42.248L74.76 42.212C74.752 42.056 74.712 41.824 74.652 41.636L74.432 41.672ZM74.952 41.648C75.044 41.808 75.14 42.024 75.176 42.168L75.404 42.088C75.364 41.948 75.264 41.736 75.164 41.584L74.952 41.648ZM75.492 41.604C75.604 41.72 75.732 41.88 75.788 41.992L75.992 41.88C75.932 41.776 75.808 41.624 75.684 41.512L75.492 41.604ZM75.308 39.976H74.66V39.74H75.308V39.976ZM76.172 40.168V40.416H75.568V40.168H76.172ZM74.66 40.168H75.308V40.416H74.66V40.168ZM74.404 40.416H73.796V40.168H74.404V40.416ZM74.404 39.74V39.976H73.796V39.74H74.404ZM74.74 39.3C74.792 39.368 74.848 39.444 74.892 39.524H73.516V40.448C73.516 40.952 73.476 41.644 73.132 42.144C73.2 42.168 73.316 42.248 73.368 42.296C73.7 41.816 73.784 41.14 73.796 40.604H74.144L73.988 41.48H76.352C76.316 41.852 76.28 42.004 76.236 42.056C76.208 42.084 76.176 42.088 76.12 42.088C76.068 42.088 75.936 42.088 75.796 42.072C75.832 42.136 75.856 42.232 75.864 42.3C76.016 42.312 76.168 42.312 76.244 42.304C76.34 42.296 76.404 42.276 76.464 42.216C76.544 42.128 76.592 41.912 76.636 41.376C76.64 41.344 76.644 41.268 76.644 41.268H74.288L74.324 41.04H76.552V40.832H74.36L74.404 40.604H76.464V39.976H75.568V39.74H76.672V39.524H75.176C75.128 39.428 75.044 39.308 74.964 39.22L74.74 39.3ZM75.952 38.904V38.656H75.668V38.904H75.1V39.136H75.668V39.392H75.952V39.136H76.748V38.904H75.952Z" fill="#8E8E93"/>
<path d="M5.58903 20.3967C5.58903 20.3967 4.13933 29.7005 4.35547 29.7005H4.85627L6.1689 20.3967H5.58903Z" fill="#42394A"/>
<path d="M37.7664 20.2837L39 29.8137H38.4728L37.1865 20.2837H37.7664Z" fill="#42394A"/>
<path d="M6.69593 22.4554C6.69593 22.4554 5.48873 31.9266 5.70486 31.9266H6.23203L7.28635 22.4554H6.69593Z" fill="#42394A"/>
<path d="M36.8022 22.4554C36.8022 22.4554 38.0252 31.9266 37.7985 31.9266H37.2714L36.217 22.4554H36.8022Z" fill="#42394A"/>
<path d="M5.67847 20.3196C5.67847 20.3196 36.9286 20.1884 37.6139 20.2789L37.013 22.8039H6.37432L5.67847 20.3196Z" fill="#C16326"/>
<path d="M14.7183 30.9539C14.6236 31.1925 14.5634 31.4402 14.5391 31.6915C15.2081 31.8729 15.9105 31.9466 16.6108 31.9087C16.7531 31.791 15.256 31.5195 15.256 31.3702C15.2662 31.2595 15.2909 31.1502 15.3298 31.0444L14.7183 30.9539Z" fill="#42394A"/>
<path d="M9.24763 29.6008C8.97235 29.6837 8.70886 29.793 8.46216 29.9266C8.69934 30.4926 9.05684 31.0158 9.51648 31.4697C9.70626 31.4923 9.04204 30.3113 9.17383 30.2208C9.28254 30.1594 9.39932 30.1093 9.52175 30.0714L9.24763 29.6008Z" fill="#42394A"/>
<path d="M7.85552 18.5774C7.85552 18.5774 6.20023 20.9531 9.13653 21.9667C12.0728 22.9804 14.4081 22.4917 13.6385 25.1841C12.8214 28.0712 9.01528 29.6007 9.01528 29.6007L9.50554 30.3292C9.50554 30.3292 15.6312 27.5236 15.3043 24.3424C14.9775 21.1613 11.3506 20.6001 11.3506 20.6001C11.3506 20.6001 15.1304 21.3242 16.2374 22.6138C17.3444 23.9035 15.5468 29.4604 14.4134 31.0261L15.4256 31.1437C15.4256 31.1437 19.4742 24.5823 17.7662 21.9305C16.0582 19.2788 11.9674 18.9123 11.9674 18.9123L7.85552 18.5774Z" fill="#439B95"/>
<path d="M4.86157 9.26482L6.04241 10.921L5.84209 8.91638L4.86157 9.26482Z" fill="#AA5C27"/>
<path d="M4.8562 10.6223C4.93888 10.2602 5.17567 9.93756 5.52043 9.71724C5.77346 9.59053 6.57475 9.67199 6.41133 9.83037C6.24791 9.98875 5.47825 10.0792 5.23049 10.93L4.8562 10.6223Z" fill="#E9946F"/>
<path d="M5.50438 10.5543C5.50438 10.5543 3.09525 16.1428 4.62929 16.5003C6.89082 17.0252 5.70998 11.9073 9.13126 10.5769V12.9571C9.13126 12.9571 8.66208 13.7445 8.15074 14.5726C7.41271 15.7627 7.32836 17.5954 4.58712 17.5094C0.896987 17.4008 4.79799 10.3959 4.79799 10.3959L5.50438 10.5543Z" fill="#EF9A9B"/>
<path d="M4.91385 9.30065C4.91385 9.30065 4.02822 8.73501 4.96656 8.34132C5.90491 7.94763 6.06833 8.96127 5.71513 9.13322C5.48116 9.27181 5.19585 9.33143 4.91385 9.30065Z" fill="#439B95"/>
<path d="M13.4228 7.97498C13.4228 7.97498 13.4966 7.75778 14.0818 7.45006C14.6669 7.14235 15.1361 6.06537 15.057 6.60386C14.9461 7.14563 14.5993 7.63094 14.087 7.96141C13.4966 8.41392 16.7228 14.4595 15.0675 15.1474C12.8166 16.0976 11.4407 11.8892 11.4407 11.8892L12.611 11.7173C12.8767 11.8227 13.0886 12.0077 13.2067 12.2377C13.4544 12.9391 13.9289 13.9889 14.4929 13.7446C15.3469 13.3871 13.1276 8.99314 13.4228 7.97498Z" fill="#E9946F"/>
<path d="M12.3523 18.962C12.3523 18.962 10.8604 19.505 7.43384 19.6227C7.43384 19.6227 8.6305 9.4139 10.4966 9.11072C11.9885 8.87089 14.3976 13.1834 13.1588 13.1834C12.231 13.2105 12.405 14.2332 12.3259 14.7129C12.2468 15.1925 12.3523 18.962 12.3523 18.962Z" fill="#EF9A9B"/>
<path d="M12.1945 4.30982C12.1945 4.30982 12.9694 5.8348 12.748 6.67648C12.5266 7.51816 10.9399 6.99776 11.641 9.5771C11.641 9.5771 10.2967 10.645 10.2493 8.75352C10.2124 7.11542 9.52707 3.45457 12.1945 4.30982Z" fill="#E9946F"/>
<path d="M12.4369 4.86633C12.5758 5.32247 12.8098 5.75326 13.1274 6.1379C13.3383 6.34153 12.5054 6.24651 12.5054 6.24651C12.3247 5.80228 12.3009 5.32215 12.4369 4.86633V4.86633Z" fill="#E9946F"/>
<path d="M7.88725 12.2784C7.88725 12.2784 10.3755 11.1516 10.56 9.37775C10.7445 7.60389 10.5231 6.89344 11.9253 5.2327C13.8336 2.97012 10.1013 4.02901 9.51091 4.25527C8.92049 4.48153 9.45819 6.19204 8.90467 6.6898C8.35115 7.18757 7.00162 7.2283 7.13341 8.37769C7.2652 9.52708 8.1192 10.6403 7.39699 11.0702C6.67478 11.5 6.8751 12.6585 7.88725 12.2784Z" fill="#42394A"/>
<path d="M13.4273 8.58558L14.0335 8.45435C14.0335 8.45435 14.4764 9.4182 15.3198 11.9568C15.8997 13.7035 16.1211 15.3597 14.4553 15.4593C12.7894 15.5588 12.0198 12.9388 12.0198 12.9388L13.2691 12.3686C13.2691 12.3686 13.7963 13.9162 14.5133 13.7578C14.8981 13.6583 13.4273 8.58558 13.4273 8.58558Z" fill="#EF9A9B"/>
<path d="M24.3826 7.53619L24.8096 9.44128L25.4422 7.50452L24.3826 7.53619Z" fill="#AA5C27"/>
<path d="M25.0514 31.3657C25.1474 31.6087 25.2076 31.8611 25.2307 32.1169C24.5597 32.2981 23.8556 32.3717 23.1536 32.3341C23.0166 32.2165 24.5137 31.9449 24.5137 31.7956C24.5 31.685 24.4735 31.5759 24.4346 31.4698L25.0514 31.3657Z" fill="#42394A"/>
<path d="M30.4186 30.0125C30.6859 30.1133 30.9374 30.2425 31.1672 30.3971C30.8708 30.9448 30.4537 31.4381 29.9389 31.8497C29.7491 31.8497 30.5346 30.732 30.4081 30.6324C30.3048 30.5638 30.1935 30.5047 30.076 30.4559L30.4186 30.0125Z" fill="#42394A"/>
<path d="M32.8748 17.5004C32.8748 17.5004 34.7884 20.7132 31.8521 21.7269C28.9158 22.7405 25.5894 22.9803 26.3538 25.6683C27.1656 28.5599 30.8241 30.0124 30.8241 30.0124L30.1968 30.7591C30.1968 30.7591 24.0711 27.9535 24.398 24.7723C24.7248 21.5911 28.3095 21.0119 28.3095 21.0119C28.3095 21.0119 24.2557 22.0527 23.1275 23.3197C21.9994 24.5868 24.1555 29.854 25.2889 31.4152L24.2767 31.5329C24.2767 31.5329 19.5323 25.7045 21.1138 23.003C22.8587 20.0661 27.7033 19.324 27.7033 19.324L32.8748 17.5004Z" fill="#42394A"/>
<path d="M33.7605 20.2835C33.7605 20.2835 32.7536 8.7082 29.2058 8.58602C27.0075 8.50004 26.9601 9.78971 26.4646 10.025C25.969 10.2603 27.2237 18.9622 26.9917 19.3921C26.7598 19.822 33.3862 20.9306 33.7605 20.2835Z" fill="#F7B119"/>
<path d="M28.4466 3.75745C28.6793 3.83811 28.885 3.9672 29.0452 4.13309C29.2053 4.29898 29.3148 4.49645 29.3639 4.70773C29.5695 5.46796 28.5942 6.12863 28.4414 5.9974C28.2885 5.86617 28.4466 3.75745 28.4466 3.75745Z" fill="#963820"/>
<path d="M29.5959 8.81221C29.5959 8.81221 29.5959 6.4184 29.5484 5.92516C29.501 5.43192 28.0144 5.61293 27.8246 5.92516C27.6348 6.2374 27.6243 9.9435 27.6243 9.9435L29.5959 8.81221Z" fill="#E9946F"/>
<path d="M27.2027 3.0968C27.2027 3.0968 26.7862 7.30067 27.2027 7.38665C27.6191 7.47263 29.1795 7.11967 29.3904 6.48162C29.6013 5.84357 30.2602 3.64435 27.2027 3.0968Z" fill="#E9946F"/>
<path d="M29.2316 5.08798C29.2316 5.08798 29.2316 4.11055 28.2985 4.09245C27.5605 4.09245 26.348 3.97027 26.6221 2.63535C26.8435 1.53121 27.998 3.08786 29.4952 3.71233C31.0925 4.36848 29.8905 5.98849 29.2316 5.08798Z" fill="#963820"/>
<path d="M27.1131 4.14661C27.0314 4.5914 26.811 5.00891 26.4752 5.35482C26.0271 5.65801 26.9602 5.53131 27.0024 5.66254C27.0445 5.79376 27.6824 4.51314 27.1131 4.14661Z" fill="#E9946F"/>
<path d="M29.2058 4.83914C29.2058 4.83914 29.3165 5.59936 29.1004 5.80299C28.8843 6.00663 27.1446 5.38215 27.0287 5.66271C26.9127 5.94327 26.5015 7.09719 27.2026 7.3868C27.9037 7.67641 29.5327 7.02026 29.4958 5.66271C29.4589 4.30517 29.3165 4.5631 29.2058 4.83914Z" fill="#963820"/>
<path d="M29.4008 5.81678C29.4008 5.81678 29.2269 4.82125 29.6908 4.96605C30.1547 5.11086 29.7804 6.43673 29.4008 5.81678Z" fill="#EE3B4D"/>
<path d="M23.8184 8.80316C24.0432 8.48047 24.4005 8.24159 24.82 8.13344C25.1099 8.08819 25.8321 8.414 25.6054 8.50903C25.3788 8.60405 24.6302 8.45925 24.0503 9.17875L23.8184 8.80316Z" fill="#E9946F"/>
<path d="M34.5304 20.4464C34.1344 20.5946 33.8168 20.864 33.6395 21.2021C33.5498 21.4419 33.824 22.1071 33.9663 21.9261C34.1086 21.7451 34.0401 21.0935 34.9521 20.6953L34.5304 20.4464Z" fill="#E9946F"/>
<path d="M24.3822 9.03834C24.3822 9.03834 22.5108 14.4912 23.8182 14.8848C25.7898 15.4641 24.5615 10.3597 27.5452 8.89806V11.5227C27.477 12.1849 27.2995 12.8355 27.0181 13.4549C26.3749 14.7672 25.9005 17.075 23.581 16.5501C20.0753 15.7854 23.7655 8.70801 23.7655 8.70801L24.3822 9.03834Z" fill="#F7B119"/>
<path d="M29.8008 8.70801C29.8008 8.70801 34.6665 10.2149 35.6575 14.8396C36.501 18.772 34.9512 20.8038 34.9512 20.8038L34.2869 20.4779C34.2869 20.4779 35.0882 18.9665 34.6876 16.3057C34.1604 12.8033 30.291 11.1018 30.291 11.1018L29.8008 8.70801Z" fill="#F7B119"/>
<path d="M24.4667 7.65377C24.4667 7.65377 23.7814 6.91164 24.8041 6.74874C25.8268 6.58583 25.6739 7.58589 25.2838 7.68092C25.0172 7.7608 24.7253 7.7511 24.4667 7.65377V7.65377Z" fill="#EF9A9B"/>
</g>
<defs>
<clipPath id="clip0">
<rect width="82" height="45" rx="5" fill="white"/>
</clipPath>
</defs>
</svg>
