<svg width="27" height="27" viewBox="0 0 27 27" fill="none" xmlns="http://www.w3.org/2000/svg">
<path d="M1.94165 16.2812C1.94165 16.2812 0.854377 24.6286 1.01648 24.6286H1.39208L2.37655 16.2812H1.94165Z" fill="#42394A"/>
<path d="M26.0748 16.1799L27 24.7302H26.6046L25.6399 16.1799H26.0748Z" fill="#42394A"/>
<path d="M2.77201 18.1285C2.77201 18.1285 1.86661 26.626 2.02871 26.626H2.42408L3.21482 18.1285H2.77201Z" fill="#42394A"/>
<path d="M25.3515 18.1285C25.3515 18.1285 26.2687 26.626 26.0987 26.626H25.7033L24.9126 18.1285H25.3515Z" fill="#42394A"/>
<path d="M2.00879 16.2123C2.00879 16.2123 25.4464 16.0945 25.9603 16.1757L25.5096 18.4412H2.53068L2.00879 16.2123Z" fill="#C16326"/>
<path d="M8.78897 25.7532C8.71797 25.9673 8.67282 26.1895 8.65454 26.415C9.15634 26.5778 9.68314 26.6438 10.2083 26.6098C10.3151 26.5043 9.19225 26.2607 9.19225 26.1267C9.19986 26.0274 9.21843 25.9293 9.2476 25.8344L8.78897 25.7532Z" fill="#42394A"/>
<path d="M4.68554 24.5392C4.47908 24.6136 4.28146 24.7117 4.09644 24.8316C4.27432 25.3393 4.54244 25.8088 4.88718 26.216C5.02951 26.2363 4.53134 25.1767 4.63019 25.0955C4.71172 25.0404 4.79931 24.9954 4.89113 24.9615L4.68554 24.5392Z" fill="#42394A"/>
<path d="M3.64164 14.649C3.64164 14.649 2.40018 16.7805 4.60239 17.6899C6.8046 18.5994 8.55609 18.1609 7.97885 20.5766C7.36603 23.1668 4.51146 24.5391 4.51146 24.5391L4.87915 25.1928C4.87915 25.1928 9.47335 22.6756 9.22822 19.8214C8.98309 16.9672 6.26295 16.4638 6.26295 16.4638C6.26295 16.4638 9.09775 17.1134 9.92803 18.2705C10.7583 19.4276 9.41009 24.4133 8.56005 25.818L9.31916 25.9236C9.31916 25.9236 12.3556 20.0366 11.0746 17.6574C9.7936 15.2783 6.72553 14.9494 6.72553 14.9494L3.64164 14.649Z" fill="#439B95"/>
<path d="M1.396 6.29364L2.28163 7.77959L2.13139 5.98102L1.396 6.29364Z" fill="#AA5C27"/>
<path d="M1.39209 7.51161C1.4541 7.18677 1.63169 6.89729 1.89026 6.69961C2.08003 6.58593 2.681 6.65901 2.55843 6.80111C2.43587 6.94321 1.85863 7.02441 1.6728 7.78769L1.39209 7.51161Z" fill="#E9946F"/>
<path d="M1.87828 7.45063C1.87828 7.45063 0.0714391 12.4647 1.22197 12.7855C2.91811 13.2564 2.03248 8.66457 4.59843 7.47093V9.60649C4.59843 9.60649 4.24655 10.3129 3.86304 11.0559C3.30952 12.1237 3.24626 13.768 1.19034 13.6908C-1.57726 13.5934 1.34849 7.30853 1.34849 7.30853L1.87828 7.45063Z" fill="#EF9A9B"/>
<path d="M1.43545 6.32608C1.43545 6.32608 0.771224 5.81858 1.47498 5.46536C2.17874 5.11214 2.30131 6.02158 2.03641 6.17586C1.86093 6.3002 1.64695 6.35369 1.43545 6.32608Z" fill="#439B95"/>
<path d="M7.81692 5.13635C7.81692 5.13635 7.87227 4.94147 8.31113 4.66539C8.74999 4.38931 9.10187 3.42303 9.04256 3.90617C8.95936 4.39225 8.6993 4.82767 8.31508 5.12417C7.87227 5.53017 10.2919 10.9543 9.05047 11.5714C7.36224 12.424 6.33032 8.64824 6.33032 8.64824L7.20804 8.49396C7.40737 8.58853 7.56623 8.75455 7.65481 8.96086C7.84064 9.59016 8.19647 10.5321 8.61952 10.3128C9.26002 9.9921 7.59551 6.04985 7.81692 5.13635Z" fill="#E9946F"/>
<path d="M7.014 14.9942C7.014 14.9942 5.8951 15.4814 3.3252 15.5869C3.3252 15.5869 4.22269 6.42758 5.6223 6.15557C6.7412 5.94039 8.54804 9.80956 7.61892 9.80956C6.92307 9.83392 7.05354 10.7515 6.99423 11.1818C6.93493 11.6122 7.014 14.9942 7.014 14.9942Z" fill="#EF9A9B"/>
<path d="M6.8957 1.8479C6.8957 1.8479 7.47689 3.21612 7.31084 3.97128C7.14478 4.72644 5.95472 4.25954 6.48056 6.57373C6.48056 6.57373 5.47236 7.53189 5.43678 5.83482C5.40911 4.3651 4.89512 1.08056 6.8957 1.8479Z" fill="#E9946F"/>
<path d="M7.07745 2.34747C7.1817 2.75672 7.35717 3.14322 7.59539 3.48833C7.75354 3.67103 7.12885 3.58577 7.12885 3.58577C6.99336 3.18721 6.97548 2.75643 7.07745 2.34747V2.34747Z" fill="#E9946F"/>
<path d="M3.6655 8.99745C3.6655 8.99745 5.53165 7.98651 5.67003 6.39499C5.80841 4.80347 5.64235 4.16606 6.69404 2.67604C8.12528 0.646042 5.32605 1.59608 4.88324 1.79908C4.44042 2.00208 4.8437 3.53676 4.42856 3.98336C4.01342 4.42995 3.00128 4.46649 3.10012 5.49773C3.19896 6.52897 3.83946 7.52773 3.2978 7.91343C2.75615 8.29913 2.90639 9.33849 3.6655 8.99745Z" fill="#42394A"/>
<path d="M7.82053 5.68451L8.27521 5.56677C8.27521 5.56677 8.60732 6.43155 9.23991 8.70921C9.67482 10.2764 9.84087 11.7623 8.5915 11.8516C7.34213 11.941 6.76489 9.59022 6.76489 9.59022L7.70192 9.07867C7.70192 9.07867 8.09729 10.4672 8.63499 10.3251C8.92362 10.2358 7.82053 5.68451 7.82053 5.68451Z" fill="#EF9A9B"/>
<path d="M16.0366 4.74284L16.3569 6.45209L16.8313 4.71442L16.0366 4.74284Z" fill="#AA5C27"/>
<path d="M16.5384 26.1226C16.6103 26.3406 16.6555 26.5671 16.6728 26.7966C16.1696 26.9592 15.6415 27.0252 15.115 26.9915C15.0123 26.8859 16.1351 26.6423 16.1351 26.5083C16.1248 26.4091 16.105 26.3112 16.0758 26.216L16.5384 26.1226Z" fill="#42394A"/>
<path d="M20.5637 24.9087C20.7642 24.9992 20.9528 25.1151 21.1252 25.2538C20.9029 25.7452 20.59 26.1877 20.2039 26.5571C20.0616 26.5571 20.6507 25.5542 20.5558 25.4649C20.4784 25.4034 20.3949 25.3503 20.3067 25.3066L20.5637 24.9087Z" fill="#42394A"/>
<path d="M22.4058 13.6828C22.4058 13.6828 23.841 16.5654 21.6388 17.4748C19.4366 18.3843 16.9418 18.5995 17.5151 21.0111C18.1239 23.6054 20.8678 24.9087 20.8678 24.9087L20.3973 25.5786C20.3973 25.5786 15.8031 23.0614 16.0482 20.2072C16.2934 17.353 18.9819 16.8334 18.9819 16.8334C18.9819 16.8334 15.9415 17.7672 15.0954 18.904C14.2493 20.0407 15.8664 24.7666 16.7164 26.1673L15.9573 26.2728C15.9573 26.2728 12.399 21.0436 13.5851 18.6198C14.8938 15.9848 18.5272 15.319 18.5272 15.319L22.4058 13.6828Z" fill="#42394A"/>
<path d="M23.0703 16.1797C23.0703 16.1797 22.3152 5.79421 19.6543 5.68459C18.0057 5.60745 17.9701 6.76455 17.5984 6.97567C17.2268 7.18679 18.1678 14.9942 17.9938 15.3799C17.8198 15.7656 22.7896 16.7603 23.0703 16.1797Z" fill="#F7B119"/>
<path d="M19.0849 1.3526C19.2594 1.42497 19.4137 1.54079 19.5338 1.68963C19.6539 1.83846 19.736 2.01564 19.7729 2.2052C19.9271 2.88728 19.1956 3.48004 19.081 3.3623C18.9663 3.24456 19.0849 1.3526 19.0849 1.3526Z" fill="#963820"/>
<path d="M19.9469 5.88775C19.9469 5.88775 19.9469 3.74002 19.9114 3.29748C19.8758 2.85494 18.7608 3.01734 18.6185 3.29748C18.4762 3.57762 18.4683 6.90275 18.4683 6.90275L19.9469 5.88775Z" fill="#E9946F"/>
<path d="M18.1518 0.759827C18.1518 0.759827 17.8394 4.53156 18.1518 4.6087C18.4641 4.68584 19.6344 4.36916 19.7925 3.7967C19.9507 3.22424 20.4449 1.25109 18.1518 0.759827Z" fill="#E9946F"/>
<path d="M19.6738 2.54625C19.6738 2.54625 19.6738 1.66929 18.974 1.65305C18.4205 1.65305 17.5111 1.54343 17.7167 0.345735C17.8828 -0.644903 18.7486 0.751734 19.8715 1.31201C21.0695 1.90071 20.168 3.35419 19.6738 2.54625Z" fill="#963820"/>
<path d="M18.0846 1.70172C18.0234 2.10079 17.8581 2.47539 17.6062 2.78574C17.2701 3.05776 17.97 2.94408 18.0016 3.06182C18.0332 3.17956 18.5116 2.03058 18.0846 1.70172Z" fill="#E9946F"/>
<path d="M19.6542 2.32308C19.6542 2.32308 19.7373 3.00515 19.5752 3.18785C19.4131 3.37055 18.1083 2.81027 18.0214 3.06199C17.9344 3.31371 17.626 4.34901 18.1518 4.60885C18.6777 4.86869 19.8994 4.27999 19.8717 3.06199C19.844 1.844 19.7373 2.07542 19.6542 2.32308Z" fill="#963820"/>
<path d="M19.8006 3.19996C19.8006 3.19996 19.6701 2.30676 20.018 2.43668C20.366 2.5666 20.0852 3.75618 19.8006 3.19996Z" fill="#EE3B4D"/>
<path d="M15.6135 5.87938C15.7822 5.58986 16.0501 5.37554 16.3647 5.2785C16.5822 5.2379 17.1238 5.53022 16.9538 5.61548C16.7838 5.70074 16.2224 5.57082 15.7875 6.21636L15.6135 5.87938Z" fill="#E9946F"/>
<path d="M23.6475 16.3259C23.3505 16.4589 23.1123 16.7006 22.9793 17.0039C22.9121 17.2191 23.1177 17.8159 23.2244 17.6535C23.3312 17.4911 23.2798 16.9065 23.9638 16.5492L23.6475 16.3259Z" fill="#E9946F"/>
<path d="M16.0367 6.09057C16.0367 6.09057 14.6331 10.9829 15.6136 11.3361C17.0923 11.8558 16.1711 7.27609 18.4089 5.96471V8.3195C18.3577 8.91369 18.2246 9.4974 18.0135 10.0531C17.5312 11.2305 17.1753 13.3011 15.4357 12.8302C12.8065 12.144 15.5741 5.79419 15.5741 5.79419L16.0367 6.09057Z" fill="#F7B119"/>
<path d="M20.1006 5.79419C20.1006 5.79419 23.7499 7.14617 24.4932 11.2955C25.1257 14.8236 23.9634 16.6465 23.9634 16.6465L23.4652 16.3542C23.4652 16.3542 24.0662 14.9982 23.7657 12.6109C23.3703 9.46848 20.4683 7.94192 20.4683 7.94192L20.1006 5.79419Z" fill="#F7B119"/>
<path d="M16.0997 4.84826C16.0997 4.84826 15.5857 4.18242 16.3528 4.03626C17.1198 3.8901 17.0051 4.78736 16.7125 4.87262C16.5126 4.94429 16.2937 4.93559 16.0997 4.84826V4.84826Z" fill="#EF9A9B"/>
</svg>
