<svg width="300" height="180" viewBox="0 0 300 180" fill="none" xmlns="http://www.w3.org/2000/svg">
<rect width="300" height="180" rx="5" fill="white"/>
<path d="M202.021 123.804L202.075 123.642L199.897 123.12H203.641L202.021 123.804ZM201.175 119.736H202.435V121.068H201.175V119.736ZM201.175 116.532H202.435V117.846H201.175V116.532ZM201.175 113.328H202.435V114.624H201.175V113.328ZM204.721 123.12V111.276H198.979V123.12H199.825C199.465 124.38 198.763 125.676 197.917 126.504C198.457 126.792 199.411 127.404 199.861 127.764C200.653 126.864 201.445 125.442 201.949 124.02C202.525 124.974 203.137 126.216 203.371 127.026L205.369 126.072C205.063 125.262 204.415 124.056 203.803 123.12H204.721ZM209.347 115.83H210.733V116.262H209.347V115.83ZM209.347 113.706H210.733V114.12H209.347V113.706ZM212.083 120.33V120.87H211.183V120.33H212.083ZM211.183 123.048V122.436H212.083V123.048H211.183ZM208.087 122.436H208.933V123.048H208.087V122.436ZM208.933 120.33V120.87H208.087V120.33H208.933ZM215.161 118.062V116.262H213.037V115.83H214.585V114.12H213.037V113.706H214.837V111.906H213.037V110.61H210.733V111.906H209.347V110.61H207.097V111.906H205.261V113.706H207.097V114.12H205.657V115.83H207.097V116.262H205.027V118.062H208.933V118.53H205.783V123.048H204.937V124.848H205.783V127.746H208.087V124.848H212.083V125.406C212.083 125.604 212.011 125.676 211.795 125.676C211.597 125.676 210.859 125.676 210.301 125.64C210.571 126.216 210.859 127.116 210.949 127.728C212.065 127.728 212.929 127.71 213.595 127.368C214.261 127.026 214.441 126.468 214.441 125.442V124.848H215.161V123.048H214.441V118.53H211.183V118.062H215.161ZM227.573 113.292C227.789 112.572 227.987 111.816 228.149 111.06L225.791 110.61C225.413 112.554 224.783 114.48 223.919 115.974V113.976H222.623V110.61H220.229V113.976H219.725C219.815 113.31 219.887 112.644 219.941 111.996L217.781 111.636C217.655 113.724 217.385 115.956 216.863 117.36C217.367 117.63 218.285 118.224 218.681 118.548C218.915 117.954 219.113 117.252 219.293 116.46H220.229V119.574C219.041 119.88 217.961 120.15 217.079 120.33L217.691 122.832C218.465 122.616 219.329 122.364 220.229 122.094V127.71H222.623V121.392C223.217 121.212 223.811 121.032 224.387 120.852L224.045 118.548L222.623 118.926V116.46H223.613C223.397 116.784 223.163 117.09 222.929 117.36C223.469 117.684 224.477 118.422 224.891 118.818C225.557 117.972 226.169 116.91 226.691 115.704H227.231C226.439 118.188 225.125 120.654 223.415 122.004C224.099 122.364 224.927 122.976 225.413 123.462C227.177 121.752 228.617 118.584 229.373 115.704H229.859C228.959 119.772 227.231 123.678 224.387 125.712C225.107 126.072 226.007 126.72 226.493 127.224C228.941 125.154 230.615 121.446 231.605 117.63C231.389 122.328 231.119 124.218 230.759 124.704C230.543 124.974 230.381 125.064 230.129 125.064C229.787 125.064 229.247 125.064 228.653 124.992C229.049 125.712 229.319 126.81 229.373 127.548C230.165 127.566 230.903 127.566 231.425 127.44C232.055 127.296 232.469 127.062 232.919 126.378C233.585 125.46 233.873 122.436 234.179 114.426C234.197 114.12 234.215 113.292 234.215 113.292H227.573ZM242.901 110.61C242.811 113.85 243.279 121.536 236.043 125.55C236.925 126.144 237.771 126.99 238.239 127.692C241.677 125.568 243.567 122.598 244.593 119.646C245.691 122.58 247.707 125.748 251.487 127.566C251.865 126.828 252.603 125.928 253.413 125.298C247.185 122.526 246.051 116.172 245.781 113.616C245.871 112.464 245.907 111.438 245.925 110.61H242.901ZM262.765 124.74V123.48H264.079L262.765 124.74ZM266.671 123.48V121.536H264.925C265.339 121.032 265.843 120.384 266.365 119.736L264.061 119.07C263.845 119.7 263.413 120.6 263.035 121.212L263.917 121.536H262.765V119.07H260.317V121.536H258.499L259.939 120.978C259.777 120.402 259.309 119.592 258.859 118.98L256.897 119.736C257.257 120.276 257.617 120.996 257.779 121.536H256.051V123.48H260.317V124.182L258.517 123.534C257.833 124.47 256.519 125.37 255.187 125.838C255.709 126.288 256.447 127.152 256.807 127.71C258.193 127.044 259.489 125.766 260.317 124.452V127.656H262.765V124.92C263.809 125.694 265.213 126.756 265.879 127.44L267.445 125.856C266.707 125.172 265.249 124.164 264.223 123.48H266.671ZM257.905 116.784C258.445 116.244 258.949 115.65 259.435 115.02V116.316H269.893V114.462H259.831C259.939 114.318 260.029 114.156 260.137 114.012H271.549V112.086H261.217C261.325 111.852 261.433 111.636 261.523 111.402L258.967 110.646C258.157 112.644 256.645 114.534 254.953 115.668C255.475 116.172 256.375 117.288 256.735 117.828C256.897 117.702 257.077 117.558 257.239 117.414V118.728H266.671C266.761 123.732 267.283 127.656 270.073 127.656C271.567 127.656 272.053 126.576 272.215 124.254C271.693 123.876 271.063 123.192 270.577 122.562C270.559 124.074 270.469 125.046 270.253 125.046C269.425 125.046 269.227 121.302 269.299 116.784H257.905ZM280.361 120.042C280.091 119.538 278.867 117.468 278.417 116.82V116.316H280.019V113.904H278.417V110.61H276.257V113.904H274.259V116.316H276.131C275.699 118.332 274.871 120.69 273.881 122.022C274.259 122.742 274.781 123.948 274.979 124.704C275.447 123.93 275.879 122.886 276.257 121.734V127.71H278.417V120.222C278.633 120.78 278.849 121.338 278.975 121.77L280.361 120.042ZM284.285 118.17C284.393 118.53 284.465 118.944 284.537 119.322H280.685V121.446H282.917C282.719 123.462 282.125 124.884 279.677 125.82C280.199 126.27 280.847 127.188 281.099 127.782C283.061 126.99 284.123 125.874 284.717 124.47H287.579C287.507 124.992 287.417 125.28 287.309 125.406C287.147 125.55 287.003 125.568 286.751 125.568C286.463 125.568 285.887 125.568 285.275 125.496C285.617 126.072 285.869 126.972 285.905 127.656C286.769 127.674 287.561 127.656 288.029 127.584C288.569 127.512 289.037 127.368 289.433 126.936C289.865 126.45 290.063 125.352 290.189 123.228C290.225 122.94 290.243 122.382 290.243 122.382H285.275C285.329 122.076 285.365 121.77 285.401 121.446H290.657V119.322H287.183C287.111 118.854 286.931 118.26 286.751 117.792L284.285 118.17ZM286.949 114.174C286.877 114.606 286.769 115.11 286.643 115.578H284.753C284.663 115.146 284.519 114.624 284.357 114.174H286.949ZM289.055 115.578L289.541 114.354L288.191 114.174H290.657V112.122H287.021C286.913 111.582 286.769 110.988 286.607 110.502L284.195 110.808C284.303 111.204 284.375 111.672 284.447 112.122H280.685V114.174H283.241L281.999 114.39C282.107 114.75 282.215 115.182 282.287 115.578H280.343V118.908H282.701V117.576H288.551V118.872H291.017V115.578H289.055Z" fill="#182B56"/>
<path d="M227.744 156.052V156.544C227.744 157.252 227.888 157.552 228.596 157.552H229.388C229.592 157.552 229.844 157.552 229.976 157.492C229.952 157.288 229.928 157.024 229.916 156.82C229.772 156.856 229.496 156.88 229.364 156.88H228.752C228.584 156.88 228.572 156.796 228.572 156.544V156.052H229.964V155.248H227.876V154.492H229.568V153.7H227.876V152.968H226.892V153.7H225.212V154.492H226.892V155.248H224.78V156.052H226.076C225.956 156.712 225.596 157.072 224.552 157.3C224.72 157.456 224.948 157.768 225.02 157.984C226.352 157.636 226.808 157.048 226.952 156.052H227.744ZM225.668 163.96C226.256 163.408 226.796 162.532 227.108 161.716L226.04 161.44C225.716 162.22 225.164 163.06 224.612 163.516L225.668 163.96ZM228.068 161.788C228.2 162.46 228.284 163.312 228.284 163.84L229.4 163.696C229.388 163.192 229.268 162.34 229.124 161.68L228.068 161.788ZM230.48 161.764C230.768 162.424 231.02 163.288 231.104 163.816L232.208 163.612C232.124 163.072 231.824 162.232 231.536 161.584L230.48 161.764ZM232.916 161.74C233.456 162.424 234.08 163.372 234.344 163.96L235.472 163.576C235.184 162.976 234.524 162.052 233.984 161.392L232.916 161.74ZM234.5 160.096C234.44 160.096 234.392 160.084 234.368 160.048C234.332 159.988 234.332 159.82 234.332 159.532V154.564H232.412C232.424 154.048 232.436 153.508 232.436 152.944H231.428C231.428 153.508 231.416 154.048 231.404 154.564H230.204V155.548H231.38C231.356 156.028 231.32 156.484 231.26 156.916L230.504 156.4L230.036 157.216C230.348 157.432 230.708 157.708 231.068 157.972C230.852 158.848 230.504 159.568 229.94 160.156L229.928 159.712C229.244 159.784 228.548 159.844 227.876 159.904V159.064H229.64V158.248H227.876V157.468H226.892V158.248H225.056V159.064H226.892V159.988C226.052 160.06 225.284 160.12 224.672 160.168L224.756 161.104C226.076 160.972 227.912 160.78 229.7 160.588C229.904 160.768 230.144 161.044 230.264 161.224C231.092 160.552 231.608 159.688 231.92 158.62C232.256 158.884 232.568 159.136 232.784 159.34L233.276 158.392C233.012 158.152 232.604 157.864 232.16 157.54C232.256 156.94 232.328 156.268 232.364 155.548H233.324V159.52C233.324 160.348 233.384 160.564 233.552 160.744C233.72 160.912 233.984 160.984 234.212 160.984H234.704C234.908 160.984 235.136 160.936 235.28 160.828C235.412 160.72 235.52 160.54 235.58 160.276C235.64 160.012 235.676 159.256 235.688 158.656C235.448 158.584 235.16 158.428 234.968 158.26C234.968 158.92 234.956 159.424 234.932 159.664C234.908 159.868 234.884 159.988 234.848 160.036C234.812 160.084 234.752 160.096 234.68 160.096H234.5ZM241.452 154.384V155.236H239.22V154.384H241.452ZM239.22 157V156.064H241.452V157H239.22ZM242.496 153.448H238.116V163.936H239.22V157.912H242.496V153.448ZM244.548 157.024V156.064H246.864V157.024H244.548ZM246.864 154.384V155.236H244.548V154.384H246.864ZM248.004 153.448H243.48V157.924H246.864V162.508C246.864 162.724 246.792 162.796 246.552 162.808C246.312 162.808 245.472 162.82 244.68 162.784C244.848 163.096 245.04 163.624 245.076 163.936C246.192 163.936 246.924 163.912 247.392 163.732C247.848 163.54 248.004 163.204 248.004 162.508V153.448ZM252.7 152.98C252.184 154.768 251.32 156.556 250.36 157.72C250.54 158.008 250.84 158.632 250.936 158.896C251.248 158.512 251.536 158.08 251.836 157.588V163.948H252.904V155.5C253.216 154.768 253.504 154.012 253.744 153.268L252.7 152.98ZM256.096 161.44H258.94C258.556 161.74 258.052 162.028 257.428 162.28C256.888 162.064 256.396 161.812 255.988 161.536L256.096 161.44ZM259.828 160.696L259.648 160.744H256.888C257.032 160.6 257.176 160.456 257.284 160.3H258.568C259.216 160.3 259.468 160.096 259.54 159.448C259.888 159.808 260.236 160.192 260.428 160.48L261.04 160.06C260.776 159.676 260.2 159.1 259.732 158.704L259.132 159.064C259.24 159.172 259.372 159.304 259.504 159.424C259.276 159.376 258.964 159.292 258.808 159.196C258.772 159.592 258.712 159.664 258.448 159.664H257.164C256.804 159.664 256.732 159.628 256.732 159.4V158.764H255.832V159.052L255.244 158.74C254.968 159.16 254.524 159.652 254.056 159.928L254.692 160.432C255.16 160.132 255.544 159.652 255.832 159.232V159.4C255.832 159.856 255.928 160.084 256.24 160.204C256 160.48 255.688 160.732 255.328 160.996C255.208 160.876 255.1 160.756 254.992 160.624L254.164 160.936C254.308 161.104 254.44 161.284 254.608 161.452C254.272 161.644 253.888 161.812 253.492 161.98C253.708 162.124 253.984 162.412 254.128 162.628C254.536 162.436 254.92 162.244 255.256 162.028C255.556 162.268 255.892 162.46 256.24 162.652C255.4 162.88 254.416 163.048 253.324 163.168C253.528 163.396 253.768 163.732 253.864 163.984C255.232 163.804 256.42 163.54 257.428 163.18C258.46 163.564 259.648 163.816 260.932 163.96C261.052 163.696 261.292 163.312 261.484 163.108C260.464 163.024 259.516 162.88 258.652 162.652C259.48 162.22 260.116 161.704 260.524 161.08L259.828 160.696ZM255.712 157.324H259.408V157.78H255.712V157.324ZM259.408 155.392V155.836H255.712V155.392H259.408ZM259.408 156.808H255.712V156.34H259.408V156.808ZM260.452 157.78V154.792H257.824L258.04 154.264H261.316V153.436H253.9V154.264H256.864C256.828 154.444 256.792 154.612 256.744 154.792H254.716V157.78H253.576V159.424H254.536V158.44H257.26L256.864 158.68C257.236 158.92 257.692 159.292 257.908 159.532L258.544 159.136C258.352 158.932 257.992 158.668 257.668 158.44H260.524V159.412H261.52V157.78H260.452ZM272.156 155.848V156.52H269.516V155.848H272.156ZM272.156 157.876H269.516V157.192H272.156V157.876ZM269.516 159.4V158.572H271.196L270.644 158.98C270.908 159.088 271.172 159.22 271.448 159.376L269.516 159.4ZM265.748 157.876V157.192H268.364V157.876H265.748ZM265.748 155.848H268.364V156.52H265.748V155.848ZM268.364 155.152H264.692V158.572H268.364V159.4C266.672 159.412 265.112 159.424 263.948 159.412L263.996 160.36C265.232 160.348 266.84 160.336 268.568 160.3L267.908 160.852C268.604 161.236 269.42 161.836 269.804 162.268L270.56 161.608C270.164 161.188 269.384 160.66 268.7 160.3C270.008 160.276 271.388 160.252 272.732 160.216C272.984 160.432 273.236 160.624 273.416 160.816L274.172 160.204C273.644 159.688 272.636 159.028 271.712 158.572H273.26V155.152H269.516V154.48H274.088V153.592H269.516V152.944H268.364V153.592H263.936V154.48H268.364V155.152ZM264.572 163.6C265.052 162.988 265.436 162.028 265.688 161.272L264.728 160.876C264.5 161.608 264.092 162.496 263.612 163.06L264.572 163.6ZM268.124 162.856C267.404 162.856 267.272 162.808 267.272 162.484V160.948H266.168V162.496C266.168 163.504 266.552 163.78 268.04 163.78H270.584C271.724 163.78 272.048 163.456 272.192 162.1C271.904 162.04 271.46 161.896 271.22 161.728C271.16 162.712 271.052 162.856 270.488 162.856H268.124ZM271.976 161.236C272.516 161.968 273.068 162.928 273.26 163.552L274.28 163.192C274.076 162.556 273.5 161.608 272.936 160.912L271.976 161.236ZM279.372 159.244C279.864 158.848 280.32 158.404 280.704 157.948H283.2C283.548 158.428 283.968 158.872 284.448 159.244H279.372ZM287.292 157.948V156.952H281.436C281.628 156.616 281.82 156.28 281.988 155.92H286.488V154.936H284.748C285.06 154.528 285.42 154.024 285.72 153.52L284.688 153.196C284.448 153.712 284.016 154.432 283.656 154.936H282.396C282.612 154.3 282.768 153.652 282.876 153.004L281.7 152.884C281.604 153.568 281.448 154.264 281.184 154.936H279.78L280.38 154.624C280.212 154.204 279.768 153.592 279.384 153.148L278.508 153.568C278.82 153.988 279.168 154.528 279.372 154.936H277.512V155.92H280.728C280.536 156.28 280.32 156.616 280.068 156.952H276.792V157.948H279.156C278.436 158.62 277.536 159.208 276.444 159.664C276.696 159.88 277.02 160.312 277.14 160.588C277.68 160.348 278.172 160.072 278.616 159.784V160.252H280.332C280.056 161.548 279.396 162.46 277.212 162.976C277.428 163.192 277.728 163.636 277.836 163.924C280.368 163.228 281.172 161.992 281.508 160.252H284.148C284.028 161.824 283.896 162.496 283.704 162.7C283.596 162.796 283.476 162.832 283.272 162.82C283.044 162.832 282.48 162.82 281.892 162.76C282.084 163.036 282.192 163.492 282.216 163.816C282.852 163.84 283.452 163.84 283.8 163.804C284.16 163.768 284.424 163.672 284.652 163.42C285 163.06 285.156 162.112 285.3 159.832C285.828 160.144 286.392 160.396 286.98 160.576C287.136 160.3 287.448 159.88 287.7 159.664C286.452 159.352 285.3 158.728 284.496 157.948H287.292Z" fill="#8E8E93"/>
<g opacity="0.74">
<path opacity="0.74" d="M111.387 15.9025H21.0131C17.4901 15.9025 14.6342 18.7616 14.6342 22.2885V104.744C14.6342 108.271 17.4901 111.13 21.0131 111.13H111.387C114.91 111.13 117.766 108.271 117.766 104.744V22.2885C117.766 18.7616 114.91 15.9025 111.387 15.9025Z" fill="#F7F7F7"/>
</g>
<path d="M66.8337 86.9208H26.8634V90.9024H66.8337V86.9208Z" fill="#DBDBDB"/>
<path d="M89.2095 95.3695H26.8634V99.3512H89.2095V95.3695Z" fill="#DBDBDB"/>
<path d="M49.9771 28.3327C52.6805 27.2152 55.5438 26.5339 58.4603 26.3143L59.8044 26.182C60.4655 26.182 61.1045 26.0937 61.6994 26.0717C61.8328 27.1712 62.3637 28.1837 63.1918 28.9181C64.02 29.6526 65.088 30.058 66.1944 30.058C67.3007 30.058 68.3688 29.6526 69.1969 28.9181C70.0251 28.1837 70.556 27.1712 70.6894 26.0717C71.2843 26.0717 71.9233 26.1379 72.5843 26.182L73.9394 26.3143C78.4124 26.7776 83.5133 27.9356 85.4964 30.6489C89.3524 35.9319 90.1236 49.487 89.5728 75.4943H88.7465V76.8178H83.3811V75.4612H82.2794V68.8436H80.2523V71.6009H52.1585V68.8436H50.0873V75.4612H49.1288V76.7847H43.7635V75.4612H42.827C42.2762 49.4539 43.0474 35.8988 46.8923 30.6158C47.654 29.663 48.6324 28.9066 49.7458 28.4099L49.9771 28.3327Z" fill="#C3DB60"/>
<path d="M72.5951 26.182C72.5951 27.8786 71.9219 29.5057 70.7236 30.7053C69.5252 31.905 67.8999 32.579 66.2052 32.579C64.5105 32.579 62.8852 31.905 61.6868 30.7053C60.4885 29.5057 59.8153 27.8786 59.8153 26.182C60.4763 26.182 61.1153 26.0937 61.7102 26.0717C61.8437 27.1712 62.3746 28.1837 63.2027 28.9181C64.0308 29.6525 65.0989 30.058 66.2052 30.058C67.3116 30.058 68.3796 29.6525 69.2077 28.9181C70.0359 28.1837 70.5668 27.1712 70.7002 26.0717C71.2951 26.0937 71.9231 26.1379 72.5951 26.182Z" fill="#98B037"/>
<path d="M111.894 93.1084C111.896 94.7428 111.414 96.341 110.509 97.701C109.603 99.061 108.315 100.122 106.808 100.748C105.3 101.375 103.641 101.541 102.039 101.223C100.438 100.906 98.9664 100.12 97.8112 98.9648C96.6561 97.8099 95.8691 96.3379 95.5498 94.7351C95.2305 93.1324 95.3933 91.4708 96.0175 89.9606C96.6418 88.4505 97.6994 87.1596 99.0566 86.2514C100.414 85.3431 102.01 84.8584 103.642 84.8584C105.829 84.8584 107.926 85.7272 109.473 87.2741C111.02 88.8209 111.891 90.9193 111.894 93.1084Z" fill="#DBDBDB"/>
<path d="M102.837 96.9793L99.1906 93.3175L100.799 91.7073L102.837 93.7477L106.495 90.097L108.103 91.7073L102.837 96.9793Z" fill="white"/>
</svg>
