<svg width="44" height="50" viewBox="0 0 44 50" fill="none" xmlns="http://www.w3.org/2000/svg">
<g filter="url(#filter0_d)">
<circle cx="22" cy="21" r="18" fill="#638BF0"/>
<path d="M22 45L18.5359 38.25L25.4641 38.25L22 45Z" fill="#638BF0"/>
</g>
<g clip-path="url(#clip0)">
<path d="M29.2988 16.3794C29.1347 16.2085 28.9377 16.0726 28.7197 15.9798C28.5016 15.8871 28.2671 15.8395 28.0301 15.8399H26.4989C26.2898 14.7916 25.7322 13.8448 24.9166 13.1538C24.1011 12.4627 23.0757 12.0679 22.0073 12.0337C20.9381 12.0668 19.9116 12.4611 19.0951 13.1523C18.2785 13.8435 17.7202 14.7908 17.5109 15.8399H15.9554C15.718 15.8397 15.4831 15.8875 15.2647 15.9804C15.0463 16.0734 14.849 16.2096 14.6846 16.3808C14.5202 16.552 14.3921 16.7547 14.3081 16.9766C14.2241 17.1986 14.1859 17.4353 14.1957 17.6725L14.5554 27.0007C14.5844 27.7968 14.9215 28.5505 15.4956 29.1028C16.0696 29.6551 16.8358 29.9629 17.6324 29.9611H26.3822C27.1789 29.9629 27.945 29.6551 28.5191 29.1028C29.0932 28.5505 29.4303 27.7968 29.4593 27.0007L29.8141 17.6725C29.8212 17.4331 29.7792 17.1949 29.6906 16.9725C29.6019 16.7501 29.4686 16.5482 29.2988 16.3794ZM22.0073 13.492C22.6898 13.5174 23.3466 13.7583 23.8837 14.1801C24.4207 14.6019 24.8104 15.1829 24.9968 15.8399H19.0081C19.1957 15.1817 19.587 14.6 20.1259 14.1782C20.6648 13.7563 21.3234 13.5161 22.0073 13.492ZM27.9961 26.9424C27.9822 27.3611 27.8061 27.758 27.5049 28.0491C27.2037 28.3403 26.8011 28.503 26.3822 28.5028H17.6324C17.2127 28.5043 16.8088 28.3422 16.5066 28.0508C16.2044 27.7595 16.0276 27.3619 16.0137 26.9424L15.654 17.6141C15.652 17.5733 15.6584 17.5326 15.6726 17.4943C15.6869 17.456 15.7088 17.4211 15.7369 17.3915C15.7651 17.362 15.799 17.3385 15.8366 17.3224C15.8741 17.3064 15.9145 17.2981 15.9554 17.2982H28.0593C28.1003 17.2981 28.141 17.3064 28.1788 17.3224C28.2166 17.3384 28.2508 17.3618 28.2793 17.3913C28.3079 17.4207 28.3303 17.4557 28.3451 17.4939C28.3599 17.5322 28.3668 17.5731 28.3655 17.6141L27.9961 26.9424Z" fill="white"/>
<path d="M25.41 21.8338C25.333 21.8126 25.2527 21.8068 25.1735 21.8168C25.0943 21.8268 25.0179 21.8525 24.9487 21.8923C24.8795 21.9321 24.8189 21.9852 24.7704 22.0486C24.7219 22.112 24.6865 22.1844 24.6662 22.2616C24.454 22.8324 24.0722 23.3246 23.5722 23.6722C23.0721 24.0197 22.4777 24.206 21.8687 24.206C21.2598 24.206 20.6653 24.0197 20.1653 23.6722C19.6652 23.3246 19.2835 22.8324 19.0712 22.2616C19.0225 22.1142 18.9192 21.991 18.7824 21.9173C18.6457 21.8437 18.486 21.8252 18.3361 21.8656C18.1861 21.9061 18.0574 22.0024 17.9762 22.1348C17.8951 22.2672 17.8677 22.4256 17.8997 22.5776C18.1574 23.4211 18.6853 24.1564 19.4021 24.6703C20.1189 25.1841 20.9847 25.448 21.8663 25.4213C22.7483 25.4475 23.6145 25.1834 24.332 24.6697C25.0494 24.156 25.5784 23.421 25.8377 22.5776C25.859 22.5007 25.8648 22.4203 25.8548 22.3411C25.8448 22.2619 25.8191 22.1855 25.7793 22.1163C25.7395 22.0471 25.6864 21.9865 25.623 21.938C25.5596 21.8895 25.4872 21.8541 25.41 21.8338Z" fill="white"/>
<path d="M19.1246 20.0495C19.1246 19.8561 19.0478 19.6706 18.9111 19.5339C18.7743 19.3971 18.5889 19.3203 18.3955 19.3203C18.3004 19.3209 18.2063 19.3403 18.1187 19.3773C18.031 19.4143 17.9515 19.4682 17.8847 19.5359C17.8179 19.6036 17.7651 19.6838 17.7293 19.7719C17.6935 19.86 17.6754 19.9543 17.676 20.0495C17.6967 20.2283 17.7825 20.3934 17.9169 20.5132C18.0513 20.6329 18.2251 20.6991 18.4052 20.6991C18.5853 20.6991 18.759 20.6329 18.8935 20.5132C19.0279 20.3934 19.1137 20.2283 19.1343 20.0495H19.1246Z" fill="white"/>
<path d="M25.5899 19.3203C25.4946 19.3203 25.4003 19.3392 25.3124 19.376C25.2244 19.4128 25.1447 19.4666 25.0778 19.5345C25.0108 19.6023 24.958 19.6828 24.9225 19.7712C24.8869 19.8596 24.8692 19.9542 24.8705 20.0495C24.8696 20.1948 24.9118 20.3372 24.9919 20.4586C25.0719 20.5799 25.1862 20.6748 25.3203 20.7311C25.4543 20.7874 25.602 20.8026 25.7447 20.7748C25.8874 20.747 26.0187 20.6775 26.1218 20.5751C26.225 20.4726 26.2953 20.3418 26.3241 20.1993C26.3528 20.0568 26.3385 19.909 26.2831 19.7746C26.2277 19.6402 26.1336 19.5252 26.0128 19.4444C25.892 19.3635 25.7499 19.3203 25.6045 19.3203H25.5899Z" fill="white"/>
</g>
<defs>
<filter id="filter0_d" x="0" y="0" width="44" height="50" filterUnits="userSpaceOnUse" color-interpolation-filters="sRGB">
<feFlood flood-opacity="0" result="BackgroundImageFix"/>
<feColorMatrix in="SourceAlpha" type="matrix" values="0 0 0 0 0 0 0 0 0 0 0 0 0 0 0 0 0 0 127 0"/>
<feOffset dy="1"/>
<feGaussianBlur stdDeviation="2"/>
<feColorMatrix type="matrix" values="0 0 0 0 0 0 0 0 0 0 0 0 0 0 0 0 0 0 0.25 0"/>
<feBlend mode="normal" in2="BackgroundImageFix" result="effect1_dropShadow"/>
<feBlend mode="normal" in="SourceGraphic" in2="effect1_dropShadow" result="shape"/>
</filter>
<clipPath id="clip0">
<rect width="32" height="32" fill="white" transform="translate(6 5)"/>
</clipPath>
</defs>
</svg>
