<svg width="22" height="33" viewBox="0 0 22 33" fill="none" xmlns="http://www.w3.org/2000/svg">
<path fill-rule="evenodd" clip-rule="evenodd" d="M0 11.9513C0 5.36135 4.93457 0 11 0C17.0654 0 21.9999 5.36135 22 11.9513C22 20.1296 12.1561 32.1359 11.737 32.643C11.344 33.1186 10.6567 33.1194 10.263 32.643C9.84392 32.1359 0 20.1296 0 11.9513ZM5.21049 11.7404C5.21049 15.0647 7.67775 17.7693 10.7105 17.7693C13.7432 17.7693 16.2105 15.0648 16.2105 11.7405C16.2105 8.41612 13.7432 5.71158 10.7105 5.71158C7.67781 5.71158 5.21049 8.41606 5.21049 11.7404Z" fill="#50E3C2"/>
<path fill-rule="evenodd" clip-rule="evenodd" d="M10.7104 17.7691C13.748 17.7691 16.2104 15.0699 16.2104 11.7403C16.2104 8.41063 13.748 5.71143 10.7104 5.71143C7.67288 5.71143 5.21045 8.41063 5.21045 11.7403C5.21045 15.0699 7.67288 17.7691 10.7104 17.7691Z" fill="white"/>
</svg>
