<svg width="44" height="50" viewBox="0 0 44 50" fill="none" xmlns="http://www.w3.org/2000/svg">
<g filter="url(#filter0_d)">
<circle cx="22" cy="21" r="18" fill="#FF4785"/>
<path d="M22 45L18.5359 38.25L25.4641 38.25L22 45Z" fill="#FF4785"/>
</g>
<g clip-path="url(#clip0)">
<path d="M13.3546 21.874H22.3572C22.5377 21.874 22.7108 21.8023 22.8384 21.6747C22.9661 21.547 23.0378 21.3739 23.0378 21.1934C23.0378 18.1213 21.4822 16.7505 17.9872 16.7505C14.2637 16.7505 12.6741 18.0775 12.6741 21.1934C12.6741 21.3739 12.7458 21.547 12.8734 21.6747C13.0011 21.8023 13.1742 21.874 13.3546 21.874ZM17.9872 18.1116C20.7191 18.1116 21.5017 18.9525 21.6524 20.5129H14.0644C14.2296 18.9185 15.0414 18.1116 17.9872 18.1116Z" fill="white"/>
<path d="M22.3573 25.0918H13.3547C13.2636 25.0918 13.1735 25.11 13.0897 25.1454C13.0058 25.1808 12.9299 25.2327 12.8665 25.2979C12.803 25.3632 12.7533 25.4405 12.7203 25.5254C12.6872 25.6102 12.6715 25.7008 12.6741 25.7918C12.6741 28.5285 15.231 28.8931 17.7296 28.8931C20.4858 28.8931 23.0378 28.5188 23.0378 25.7918C23.0404 25.7008 23.0247 25.6102 22.9917 25.5254C22.9587 25.4405 22.9089 25.3632 22.8455 25.2979C22.782 25.2327 22.7061 25.1808 22.6223 25.1454C22.5384 25.11 22.4483 25.0918 22.3573 25.0918ZM17.7296 27.5223C15.1144 27.5223 14.3269 27.0362 14.1276 26.4577H21.5795C21.3413 27.0119 20.549 27.5174 17.7296 27.5174V27.5223Z" fill="white"/>
<path d="M23.1059 22.8755H12.611C12.4498 22.8755 12.2952 22.9395 12.1813 23.0535C12.0673 23.1674 12.0033 23.322 12.0033 23.4831C12.0033 23.6443 12.0673 23.7988 12.1813 23.9128C12.2952 24.0267 12.4498 24.0907 12.611 24.0907H23.1059C23.267 24.0907 23.4216 24.0267 23.5355 23.9128C23.6495 23.7988 23.7135 23.6443 23.7135 23.4831C23.7135 23.322 23.6495 23.1674 23.5355 23.0535C23.4216 22.9395 23.267 22.8755 23.1059 22.8755Z" fill="white"/>
<path d="M30.3438 12.6671H26.4939L26.6543 11.8796L29.0848 11.3644C29.2428 11.3315 29.3812 11.2372 29.4696 11.1023C29.558 10.9674 29.5892 10.8029 29.5564 10.6449C29.5235 10.487 29.4292 10.3486 29.2943 10.2602C29.1594 10.1717 28.9949 10.1405 28.8369 10.1734L26.003 10.7713C25.8821 10.7931 25.7707 10.8514 25.6838 10.9383C25.5969 11.0252 25.5387 11.1365 25.5169 11.2574L25.2544 12.6671H21.035C20.9455 12.6665 20.8567 12.6836 20.7738 12.7176C20.691 12.7516 20.6157 12.8017 20.5524 12.865C20.489 12.9283 20.4389 13.0036 20.405 13.0865C20.371 13.1693 20.3538 13.2581 20.3545 13.3476V15.8219C20.3545 16.0024 20.4262 16.1755 20.5538 16.3031C20.6814 16.4307 20.8545 16.5024 21.035 16.5024H28.8467L27.7529 26.4189H24.6856C24.5963 26.4189 24.5078 26.4365 24.4252 26.4707C24.3426 26.5049 24.2676 26.555 24.2044 26.6182C24.1412 26.6814 24.0911 26.7564 24.0569 26.839C24.0227 26.9216 24.0051 27.0101 24.0051 27.0994C24.0051 27.1888 24.0227 27.2773 24.0569 27.3599C24.0911 27.4424 24.1412 27.5175 24.2044 27.5806C24.2676 27.6438 24.3426 27.694 24.4252 27.7282C24.5078 27.7624 24.5963 27.78 24.6856 27.78H28.3654C28.5328 27.7787 28.694 27.7162 28.8184 27.6042C28.9429 27.4923 29.0221 27.3387 29.0411 27.1723L30.2175 16.4781H30.3438C30.5243 16.4781 30.6974 16.4064 30.8251 16.2788C30.9527 16.1512 31.0244 15.9781 31.0244 15.7976V13.3331C31.0206 13.1551 30.9472 12.9857 30.82 12.8612C30.6928 12.7368 30.5218 12.6671 30.3438 12.6671ZM21.6961 14.0282H29.6633V15.1414H21.6961V14.0282Z" fill="white"/>
</g>
<defs>
<filter id="filter0_d" x="0" y="0" width="44" height="50" filterUnits="userSpaceOnUse" color-interpolation-filters="sRGB">
<feFlood flood-opacity="0" result="BackgroundImageFix"/>
<feColorMatrix in="SourceAlpha" type="matrix" values="0 0 0 0 0 0 0 0 0 0 0 0 0 0 0 0 0 0 127 0"/>
<feOffset dy="1"/>
<feGaussianBlur stdDeviation="2"/>
<feColorMatrix type="matrix" values="0 0 0 0 0 0 0 0 0 0 0 0 0 0 0 0 0 0 0.25 0"/>
<feBlend mode="normal" in2="BackgroundImageFix" result="effect1_dropShadow"/>
<feBlend mode="normal" in="SourceGraphic" in2="effect1_dropShadow" result="shape"/>
</filter>
<clipPath id="clip0">
<rect width="32" height="32" fill="white" transform="translate(6 4)"/>
</clipPath>
</defs>
</svg>
