<svg width="44" height="50" viewBox="0 0 44 50" fill="none" xmlns="http://www.w3.org/2000/svg">
<g filter="url(#filter0_d)">
<circle cx="22" cy="21" r="18" fill="#FAC238"/>
<path d="M22 45L18.5359 38.25L25.4641 38.25L22 45Z" fill="#FAC238"/>
</g>
<g clip-path="url(#clip0)">
<path d="M28.6522 22.7328C29.0057 22.1052 29.2691 21.431 29.4349 20.7301C29.8484 20.6489 30.2209 20.4266 30.4886 20.1012C30.7564 19.7758 30.9028 19.3675 30.9028 18.9461C30.9028 18.5247 30.7564 18.1163 30.4886 17.7909C30.2209 17.4655 29.8484 17.2432 29.4349 17.1621C29.0959 15.7144 28.3426 14.3969 27.2669 13.3705C27.3986 12.9764 27.391 12.549 27.2453 12.1599C27.0996 11.7707 26.8247 11.4434 26.4666 11.2328C26.1084 11.0221 25.6888 10.9408 25.2779 11.0026C24.8669 11.0643 24.4897 11.2653 24.2093 11.5719C22.8112 11.1388 21.3184 11.1151 19.9073 11.5039L19.7566 11.5525C19.4772 11.2589 19.1075 11.0675 18.7066 11.0087C18.3056 10.9498 17.8965 11.027 17.5445 11.2279C17.1926 11.4288 16.9181 11.7417 16.7648 12.1169C16.6116 12.492 16.5884 12.9077 16.699 13.2976C16.1212 13.8276 15.6292 14.4442 15.2407 15.1253C14.8711 15.7725 14.5976 16.4701 14.4289 17.1961C14.1086 17.2796 13.8166 17.4475 13.5831 17.6822C13.3571 17.911 13.196 18.1959 13.1163 18.5075C13.0367 18.8192 13.0414 19.1464 13.13 19.4557C13.2185 19.7649 13.3878 20.045 13.6203 20.2672C13.8528 20.4895 14.1403 20.6459 14.4532 20.7203C14.4532 20.8078 14.4873 20.8905 14.5116 20.978C14.8881 22.3549 15.6445 23.598 16.6942 24.5654C16.6097 24.837 16.5902 25.1247 16.6372 25.4052C16.6842 25.6858 16.7964 25.9514 16.9647 26.1807C17.133 26.41 17.3528 26.5967 17.6064 26.7256C17.8599 26.8545 18.1402 26.9221 18.4247 26.923C18.6846 26.9229 18.9415 26.8679 19.1786 26.7615C19.4157 26.6551 19.6276 26.4997 19.8004 26.3056C20.0531 26.3785 20.2865 26.4417 20.5684 26.4903L20.3059 28.566H15.2796C15.0862 28.566 14.9008 28.6428 14.764 28.7796C14.6273 28.9163 14.5505 29.1018 14.5505 29.2951C14.5505 29.4885 14.6273 29.674 14.764 29.8107C14.9008 29.9475 15.0862 30.0243 15.2796 30.0243H28.7154C28.9088 30.0243 29.0943 29.9475 29.231 29.8107C29.3678 29.674 29.4446 29.4885 29.4446 29.2951C29.4446 29.1018 29.3678 28.9163 29.231 28.7796C29.0943 28.6428 28.9088 28.566 28.7154 28.566H23.6892L23.4267 26.4709C23.6843 26.4223 23.9128 26.3542 24.185 26.2813C24.4635 26.5964 24.8425 26.8051 25.2576 26.8721C25.6727 26.939 26.0982 26.86 26.4616 26.6485C26.825 26.437 27.1039 26.1061 27.2507 25.7121C27.3975 25.3181 27.4032 24.8854 27.2669 24.4876C27.8121 23.9737 28.2789 23.3824 28.6522 22.7328ZM29.9404 18.9412C29.9424 19.0526 29.922 19.1633 29.8806 19.2668C29.8391 19.3702 29.7774 19.4643 29.699 19.5436C29.6207 19.6229 29.5273 19.6856 29.4243 19.7283C29.3214 19.7709 29.2109 19.7925 29.0995 19.7919C28.9894 19.7929 28.8803 19.7719 28.7784 19.7302C28.6766 19.6884 28.5841 19.6268 28.5064 19.5488C28.3472 19.3923 28.2563 19.1791 28.2536 18.9558C28.2524 18.8443 28.2731 18.7337 28.3148 18.6302C28.3564 18.5268 28.418 18.4326 28.4962 18.3531C28.5744 18.2736 28.6675 18.2103 28.7701 18.1669C28.8728 18.1235 28.9831 18.1009 29.0946 18.1002C29.3173 18.1027 29.5303 18.192 29.6882 18.349C29.8461 18.5061 29.9366 18.7185 29.9404 18.9412ZM25.5655 11.9559C25.712 11.9574 25.8558 11.9959 25.9836 12.0677C26.1733 12.1733 26.3158 12.3471 26.3822 12.5538C26.4407 12.7702 26.411 13.001 26.2995 13.1955C26.1967 13.3876 26.0219 13.5309 25.8134 13.5941C25.7066 13.6241 25.5949 13.6327 25.4848 13.6193C25.3747 13.606 25.2683 13.571 25.1718 13.5163C25.0077 13.4249 24.8787 13.2814 24.8051 13.1086C24.7315 12.9357 24.7176 12.7433 24.7656 12.5617C24.8135 12.38 24.9205 12.2195 25.0697 12.1054C25.219 11.9914 25.402 11.9302 25.5898 11.9316L25.5655 11.9559ZM18.0407 12.0775C18.2336 11.9726 18.4597 11.9468 18.6712 12.0056C18.8828 12.0644 19.0632 12.2032 19.1743 12.3925C19.2854 12.5819 19.3185 12.8071 19.2666 13.0204C19.2147 13.2338 19.0819 13.4186 18.8962 13.5358C18.8003 13.5963 18.6932 13.6369 18.5813 13.6552C18.4694 13.6736 18.355 13.6692 18.2448 13.6424C18.1347 13.6156 18.031 13.5669 17.94 13.4992C17.849 13.4316 17.7726 13.3463 17.7152 13.2485C17.6578 13.1507 17.6207 13.0424 17.606 12.9299C17.5913 12.8175 17.5994 12.7033 17.6298 12.594C17.6602 12.4848 17.7122 12.3828 17.7828 12.294C17.8533 12.2053 17.9411 12.1316 18.0407 12.0775ZM14.0546 18.9606C14.054 18.8488 14.0757 18.7379 14.1182 18.6344C14.1608 18.531 14.2234 18.437 14.3026 18.3579C14.3797 18.2788 14.4719 18.2161 14.5738 18.1735C14.6757 18.1309 14.7852 18.1093 14.8956 18.11C15.006 18.1093 15.1155 18.1304 15.2178 18.1721C15.3201 18.2138 15.4131 18.2752 15.4917 18.3528C15.5702 18.4305 15.6327 18.5228 15.6755 18.6246C15.7184 18.7264 15.7408 18.8356 15.7414 18.9461C15.744 19.0578 15.7238 19.1689 15.682 19.2725C15.6402 19.3761 15.5777 19.4702 15.4984 19.5488C15.3418 19.7081 15.1286 19.7989 14.9053 19.8016C14.6814 19.8016 14.4665 19.7133 14.3072 19.5559C14.148 19.3985 14.0572 19.1846 14.0546 18.9606ZM18.0358 25.8195C17.8742 25.727 17.7476 25.5837 17.6757 25.4118C17.6039 25.24 17.5908 25.0492 17.6384 24.8691C17.6861 24.6891 17.7918 24.5298 17.9393 24.416C18.0867 24.3021 18.2676 24.2402 18.4539 24.2397C18.6 24.2395 18.7438 24.2763 18.8719 24.3466C19.0396 24.4696 19.156 24.65 19.1991 24.8534C19.2422 25.0568 19.2088 25.269 19.1054 25.4494C19.002 25.6297 18.8358 25.7657 18.6385 25.8313C18.4412 25.8969 18.2266 25.8875 18.0358 25.8049V25.8195ZM22.7121 28.5611H21.2878L21.5309 26.6167H21.9441C22.1191 26.6167 22.294 26.6167 22.4642 26.6167L22.7121 28.5611ZM22.4934 18.8926C22.4934 18.7637 22.4421 18.64 22.351 18.5489C22.2598 18.4577 22.1362 18.4065 22.0072 18.4065C21.8783 18.4065 21.7547 18.4577 21.6635 18.5489C21.5724 18.64 21.5211 18.7637 21.5211 18.8926L21.317 20.4724C20.9509 20.3152 20.6503 20.0364 20.4659 19.6832C20.2815 19.33 20.2247 18.924 20.3049 18.5337C20.3852 18.1435 20.5977 17.7929 20.9065 17.5411C21.2153 17.2893 21.6015 17.1519 22 17.1519C22.3984 17.1519 22.7846 17.2893 23.0934 17.5411C23.4022 17.7929 23.6147 18.1435 23.695 18.5337C23.7753 18.924 23.7184 19.33 23.534 19.6832C23.3496 20.0364 23.049 20.3152 22.6829 20.4724L22.4934 18.8926ZM22.294 25.1536C22.1045 25.1536 21.9149 25.1536 21.7253 25.1536L22.0072 22.8689L22.294 25.1536ZM22.8774 21.9696C23.6195 21.7601 24.2608 21.2891 24.6828 20.6437C25.1047 19.9983 25.2789 19.2219 25.1732 18.4581C25.0674 17.6942 24.6889 16.9944 24.1074 16.4879C23.5259 15.9814 22.7808 15.7024 22.0097 15.7024C21.2385 15.7024 20.4934 15.9814 19.912 16.4879C19.3305 16.9944 18.9519 17.6942 18.8462 18.4581C18.7404 19.2219 18.9146 19.9983 19.3366 20.6437C19.7586 21.2891 20.3999 21.7601 21.142 21.9696L20.758 25.0466C20.5927 25.0126 20.4323 24.9737 20.2719 24.9251C20.2452 24.6355 20.1492 24.3566 19.9918 24.112C19.8344 23.8675 19.6203 23.6645 19.3677 23.5203C19.1132 23.3769 18.8278 23.2972 18.5358 23.2879C18.2438 23.2786 17.9538 23.3399 17.6907 23.4668C16.8574 22.6863 16.2568 21.6902 15.9553 20.5891C15.9553 20.5502 15.9553 20.5113 15.9261 20.4676C16.0292 20.3994 16.1252 20.3212 16.2129 20.2342C16.3809 20.0649 16.5135 19.8637 16.6028 19.6425C16.6921 19.4214 16.7364 19.1846 16.7331 18.9461C16.7305 18.6473 16.6547 18.3537 16.5123 18.0909C16.37 17.8282 16.1653 17.6044 15.9164 17.4391C16.0518 16.8831 16.2628 16.3483 16.5435 15.8496C16.8385 15.3265 17.205 14.8472 17.6323 14.4253C17.8856 14.5538 18.1651 14.622 18.449 14.6246C18.7724 14.6247 19.0899 14.5374 19.3677 14.3719C19.6253 14.2212 19.8417 14.0092 19.9977 13.7548C20.1538 13.5004 20.2446 13.2115 20.2621 12.9136H20.301C20.8445 12.7663 21.4053 12.6928 21.9684 12.6948C22.5663 12.6985 23.1607 12.7886 23.7329 12.9622C23.7576 13.2567 23.8537 13.5408 24.0129 13.7899C24.1722 14.0389 24.3897 14.2453 24.6468 14.3913C24.9186 14.5484 25.2272 14.6306 25.5412 14.6295C25.8033 14.6334 26.0628 14.5768 26.2995 14.4642C27.1503 15.2908 27.7473 16.3431 28.0203 17.4975C27.9431 17.5537 27.87 17.6155 27.8016 17.6822C27.6321 17.8507 27.4976 18.051 27.4059 18.2717C27.3141 18.4923 27.2669 18.729 27.2669 18.9679C27.2669 19.2069 27.3141 19.4435 27.4059 19.6642C27.4976 19.8848 27.6321 20.0852 27.8016 20.2537C27.8632 20.3109 27.9281 20.3645 27.996 20.4141C27.7195 21.5711 27.1133 22.6231 26.2509 23.4425C25.9898 23.3272 25.705 23.2759 25.4201 23.2928C25.1351 23.3097 24.8584 23.3943 24.6127 23.5397C24.4053 23.6585 24.2239 23.8178 24.0794 24.0083C23.935 24.1987 23.8303 24.4163 23.7718 24.648C23.7498 24.7325 23.7351 24.8187 23.728 24.9057C23.5628 24.9543 23.3975 24.998 23.2419 25.032L22.8774 21.9696ZM25.9787 25.8195C25.8341 25.9026 25.6682 25.9414 25.5017 25.9309C25.3353 25.9205 25.1755 25.8614 25.0424 25.7609C24.9093 25.6604 24.8086 25.523 24.753 25.3657C24.6973 25.2085 24.6891 25.0384 24.7294 24.8765C24.7732 24.7155 24.8633 24.571 24.9886 24.4608C25.1139 24.3507 25.2688 24.2798 25.434 24.257C25.5993 24.2342 25.7676 24.2605 25.918 24.3326C26.0685 24.4047 26.1944 24.5195 26.2801 24.6626C26.3425 24.7613 26.3838 24.8719 26.4013 24.9873C26.4189 25.1028 26.4124 25.2206 26.3822 25.3334C26.3164 25.542 26.1716 25.7165 25.9787 25.8195Z" fill="white"/>
</g>
<defs>
<filter id="filter0_d" x="0" y="0" width="44" height="50" filterUnits="userSpaceOnUse" color-interpolation-filters="sRGB">
<feFlood flood-opacity="0" result="BackgroundImageFix"/>
<feColorMatrix in="SourceAlpha" type="matrix" values="0 0 0 0 0 0 0 0 0 0 0 0 0 0 0 0 0 0 127 0"/>
<feOffset dy="1"/>
<feGaussianBlur stdDeviation="2"/>
<feColorMatrix type="matrix" values="0 0 0 0 0 0 0 0 0 0 0 0 0 0 0 0 0 0 0.25 0"/>
<feBlend mode="normal" in2="BackgroundImageFix" result="effect1_dropShadow"/>
<feBlend mode="normal" in="SourceGraphic" in2="effect1_dropShadow" result="shape"/>
</filter>
<clipPath id="clip0">
<rect width="32" height="32" fill="white" transform="translate(6 5)"/>
</clipPath>
</defs>
</svg>
