<svg width="44" height="50" viewBox="0 0 44 50" fill="none" xmlns="http://www.w3.org/2000/svg">
<g filter="url(#filter0_d)">
<circle cx="22" cy="21" r="18" fill="#78E7E5"/>
<path d="M22 45L18.5359 38.25L25.4641 38.25L22 45Z" fill="#78E7E5"/>
</g>
<g clip-path="url(#clip0)">
<path d="M18.4831 19.0144H17.3942V17.9256C17.3942 17.7966 17.343 17.673 17.2519 17.5818C17.1607 17.4907 17.037 17.4395 16.9081 17.4395C16.7792 17.4395 16.6556 17.4907 16.5644 17.5818C16.4732 17.673 16.422 17.7966 16.422 17.9256V19.0144H15.3332C15.2042 19.0144 15.0806 19.0656 14.9894 19.1568C14.8983 19.248 14.8471 19.3716 14.8471 19.5005C14.8471 19.6294 14.8983 19.7531 14.9894 19.8442C15.0806 19.9354 15.2042 19.9866 15.3332 19.9866H16.422V21.0755C16.422 21.2044 16.4732 21.3281 16.5644 21.4192C16.6556 21.5104 16.7792 21.5616 16.9081 21.5616C17.037 21.5616 17.1607 21.5104 17.2519 21.4192C17.343 21.3281 17.3942 21.2044 17.3942 21.0755V19.9866H18.4831C18.612 19.9866 18.7357 19.9354 18.8268 19.8442C18.918 19.7531 18.9692 19.6294 18.9692 19.5005C18.9692 19.3716 18.918 19.248 18.8268 19.1568C18.7357 19.0656 18.612 19.0144 18.4831 19.0144Z" fill="white"/>
<path d="M28.9682 19.1555C28.9134 19.0987 28.8477 19.0536 28.775 19.0228C28.7024 18.992 28.6243 18.9761 28.5453 18.9761C28.4664 18.9761 28.3883 18.992 28.3156 19.0228C28.243 19.0536 28.1773 19.0987 28.1224 19.1555C28.0095 19.2731 27.9465 19.4299 27.9465 19.593C27.9465 19.756 28.0095 19.9128 28.1224 20.0304C28.1781 20.0875 28.2447 20.1328 28.3181 20.1637C28.3916 20.1947 28.4705 20.2106 28.5502 20.2106C28.6299 20.2106 28.7088 20.1947 28.7823 20.1637C28.8557 20.1328 28.9223 20.0875 28.978 20.0304C29.0346 19.974 29.0794 19.907 29.1101 19.8331C29.1407 19.7593 29.1565 19.6802 29.1565 19.6003C29.1565 19.5203 29.1407 19.4412 29.1101 19.3674C29.0794 19.2935 29.0346 19.2265 28.978 19.1701L28.9682 19.1555Z" fill="white"/>
<path d="M25.8329 19.1551C25.7785 19.0985 25.7132 19.0535 25.6409 19.0227C25.5687 18.9919 25.491 18.9761 25.4124 18.9761C25.3339 18.9761 25.2562 18.9919 25.1839 19.0227C25.1117 19.0535 25.0464 19.0985 24.9919 19.1551C24.8779 19.2722 24.8141 19.4291 24.8141 19.5926C24.8141 19.756 24.8779 19.913 24.9919 20.0301C25.0473 20.0875 25.1138 20.133 25.1873 20.164C25.2609 20.1949 25.3399 20.2105 25.4197 20.2099C25.5397 20.2088 25.6568 20.1725 25.7563 20.1054C25.8558 20.0383 25.9335 19.9435 25.9795 19.8327C26.0256 19.7218 26.0381 19.5999 26.0155 19.4821C25.9929 19.3642 25.9362 19.2556 25.8523 19.1697L25.8329 19.1551Z" fill="white"/>
<path d="M26.5426 20.7545C26.4862 20.8105 26.4414 20.8772 26.4108 20.9506C26.3802 21.024 26.3645 21.1027 26.3645 21.1823C26.3645 21.2618 26.3802 21.3405 26.4108 21.4139C26.4414 21.4874 26.4862 21.554 26.5426 21.61C26.598 21.6675 26.6645 21.713 26.738 21.7439C26.8115 21.7748 26.8906 21.7905 26.9704 21.7899C27.0508 21.79 27.1305 21.7742 27.2047 21.7433C27.279 21.7125 27.3464 21.6672 27.403 21.61L27.4322 21.5809C27.4889 21.526 27.534 21.4603 27.5649 21.3876C27.5957 21.315 27.6116 21.2369 27.6116 21.158C27.6116 21.079 27.5957 21.0009 27.5649 20.9283C27.534 20.8556 27.4889 20.7899 27.4322 20.7351C27.3113 20.6203 27.15 20.558 26.9834 20.5617C26.8168 20.5653 26.6584 20.6346 26.5426 20.7545Z" fill="white"/>
<path d="M26.5426 17.6192C26.4584 17.7042 26.4011 17.8121 26.378 17.9295C26.3548 18.0469 26.3668 18.1684 26.4125 18.279C26.4582 18.3896 26.5355 18.4842 26.6347 18.551C26.734 18.6178 26.8507 18.6539 26.9704 18.6546C27.1318 18.6546 27.2869 18.5919 27.403 18.4796L27.4321 18.4456C27.4888 18.3912 27.5338 18.3259 27.5645 18.2536C27.5953 18.1814 27.6112 18.1036 27.6112 18.0251C27.6112 17.9466 27.5953 17.8689 27.5645 17.7966C27.5338 17.7244 27.4888 17.6591 27.4321 17.6046C27.3729 17.5469 27.3029 17.5015 27.226 17.471C27.1491 17.4405 27.067 17.4255 26.9843 17.4268C26.9017 17.4282 26.8201 17.4459 26.7442 17.4789C26.6684 17.5119 26.5999 17.5596 26.5426 17.6192Z" fill="white"/>
<path d="M30.8835 16.9144C30.2807 14.4548 28.8419 13.9492 26.8732 13.9492C26.1464 13.9697 25.4338 14.1554 24.7895 14.4923C24.1451 14.8292 23.586 15.3084 23.1545 15.8936H20.6754C20.2433 15.309 19.6841 14.8301 19.0399 14.4933C18.3957 14.1565 17.6833 13.9704 16.9567 13.9492C15.0123 13.9492 13.554 14.4353 12.9464 16.9144C12.5429 18.2075 11.7749 24.5511 13.5394 26.9816C13.7611 27.3078 14.0588 27.5752 14.4068 27.7607C14.7549 27.9461 15.1429 28.0441 15.5373 28.0461C17.7393 28.0461 19.2705 25.6934 19.9122 23.1851H23.5531C24.4815 25.5573 25.619 28.0461 28.3023 28.0461C28.7408 28.0519 29.1741 27.9498 29.564 27.7489C29.9539 27.5481 30.2884 27.2545 30.5384 26.8941C32.4633 24.2302 31.1606 17.8186 30.8835 16.9144ZM29.3474 26.0337C29.2343 26.2092 29.0777 26.3524 28.8929 26.4495C28.7081 26.5466 28.5013 26.5943 28.2926 26.5878C26.5572 26.5878 25.7503 24.8476 24.7197 22.2129C24.6699 22.0719 24.5778 21.9496 24.4561 21.8626C24.3343 21.7757 24.1888 21.7282 24.0392 21.7268H19.3143C19.1466 21.729 18.9847 21.7886 18.8556 21.8956C18.7265 22.0026 18.6379 22.1506 18.6046 22.315C18.2011 24.3858 16.9907 26.5878 15.5421 26.5878C15.3752 26.5864 15.2116 26.5406 15.0681 26.4552C14.9246 26.3698 14.8064 26.2478 14.7255 26.1017C13.3596 24.2254 13.9769 18.4602 14.3463 17.313V17.2596C14.7061 15.7721 15.2408 15.3881 16.947 15.3881C17.4808 15.4069 18.0017 15.5569 18.4637 15.8248C18.9258 16.0927 19.3147 16.4702 19.5962 16.9242C19.6564 17.0469 19.7498 17.1502 19.8658 17.2224C19.9818 17.2946 20.1158 17.3328 20.2525 17.3325H23.5579C23.6945 17.3322 23.8282 17.2938 23.9442 17.2217C24.0601 17.1496 24.1536 17.0465 24.2142 16.9242C24.4984 16.4732 24.8891 16.099 25.3519 15.8345C25.8147 15.5701 26.3355 15.4234 26.8683 15.4075C28.5745 15.4075 29.1092 15.7915 29.4689 17.279V17.3325C29.8675 18.4991 30.7571 24.1282 29.3474 26.0337Z" fill="white"/>
</g>
<defs>
<filter id="filter0_d" x="0" y="0" width="44" height="50" filterUnits="userSpaceOnUse" color-interpolation-filters="sRGB">
<feFlood flood-opacity="0" result="BackgroundImageFix"/>
<feColorMatrix in="SourceAlpha" type="matrix" values="0 0 0 0 0 0 0 0 0 0 0 0 0 0 0 0 0 0 127 0"/>
<feOffset dy="1"/>
<feGaussianBlur stdDeviation="2"/>
<feColorMatrix type="matrix" values="0 0 0 0 0 0 0 0 0 0 0 0 0 0 0 0 0 0 0.25 0"/>
<feBlend mode="normal" in2="BackgroundImageFix" result="effect1_dropShadow"/>
<feBlend mode="normal" in="SourceGraphic" in2="effect1_dropShadow" result="shape"/>
</filter>
<clipPath id="clip0">
<rect width="32" height="32" fill="white" transform="translate(6 5)"/>
</clipPath>
</defs>
</svg>
