<svg width="44" height="50" viewBox="0 0 44 50" fill="none" xmlns="http://www.w3.org/2000/svg">
<g filter="url(#filter0_d)">
<circle cx="22" cy="21" r="18" fill="#DC7DF3"/>
<path d="M22 45L18.5359 38.25L25.4641 38.25L22 45Z" fill="#DC7DF3"/>
</g>
<g clip-path="url(#clip0)">
<path d="M31.1558 16.7104C30.9624 16.7104 30.7769 16.7872 30.6402 16.9239C30.5034 17.0607 30.4266 17.2461 30.4266 17.4395V21.445H13.9818V13.9347C13.9818 13.7413 13.905 13.5559 13.7683 13.4191C13.6315 13.2824 13.4461 13.2056 13.2527 13.2056C13.0593 13.2056 12.8738 13.2824 12.7371 13.4191C12.6004 13.5559 12.5235 13.7413 12.5235 13.9347V27.0886C12.5235 27.282 12.6004 27.4674 12.7371 27.6042C12.8738 27.7409 13.0593 27.8177 13.2527 27.8177C13.4461 27.8177 13.6315 27.7409 13.7683 27.6042C13.905 27.4674 13.9818 27.282 13.9818 27.0886V25.849H30.4266V27.0886C30.4266 27.282 30.5034 27.4674 30.6402 27.6042C30.7769 27.7409 30.9624 27.8177 31.1558 27.8177C31.3491 27.8177 31.5346 27.7409 31.6714 27.6042C31.8081 27.4674 31.8849 27.282 31.8849 27.0886V17.4395C31.8849 17.2461 31.8081 17.0607 31.6714 16.9239C31.5346 16.7872 31.3491 16.7104 31.1558 16.7104ZM13.9818 24.3907V22.9033H30.4266V24.3616L13.9818 24.3907Z" fill="white"/>
<path d="M16.6602 19.5685C17.0652 19.5695 17.4613 19.4503 17.7985 19.226C18.1357 19.0017 18.3988 18.6825 18.5544 18.3086C18.71 17.9347 18.7513 17.5231 18.6728 17.1258C18.5944 16.7285 18.3999 16.3634 18.1139 16.0767C17.8279 15.79 17.4632 15.5946 17.0661 15.5153C16.669 15.4359 16.2573 15.4762 15.8831 15.6309C15.5088 15.7856 15.1889 16.0479 14.9638 16.3846C14.7388 16.7212 14.6186 17.1171 14.6186 17.5221C14.6199 18.0636 14.8352 18.5826 15.2177 18.966C15.6002 19.3494 16.1187 19.566 16.6602 19.5685ZM16.6602 16.9387C16.777 16.9378 16.8914 16.9716 16.9888 17.0358C17.0863 17.1001 17.1624 17.1919 17.2075 17.2996C17.2527 17.4073 17.2647 17.5259 17.2422 17.6405C17.2196 17.755 17.1635 17.8603 17.081 17.9428C16.9984 18.0254 16.8932 18.0815 16.7786 18.104C16.6641 18.1266 16.5454 18.1145 16.4377 18.0694C16.3301 18.0243 16.2383 17.9481 16.174 17.8507C16.1097 17.7532 16.0759 17.6388 16.0769 17.5221C16.0782 17.3678 16.14 17.2201 16.2492 17.111C16.3583 17.0019 16.5059 16.94 16.6602 16.9387Z" fill="white"/>
<path d="M20.758 20.6571H28.21C28.4156 20.6603 28.6199 20.6226 28.8108 20.5461C29.0018 20.4696 29.1756 20.3559 29.3222 20.2116C29.4688 20.0673 29.5852 19.8953 29.6646 19.7055C29.7441 19.5158 29.785 19.3121 29.7849 19.1064V18.2558C29.7849 18.0524 29.7448 17.851 29.6668 17.6631C29.5888 17.4752 29.4745 17.3046 29.3305 17.161C29.1864 17.0174 29.0154 16.9036 28.8273 16.8262C28.6392 16.7488 28.4377 16.7093 28.2343 16.71H20.758C20.3481 16.71 19.9549 16.8728 19.665 17.1627C19.3751 17.4526 19.2122 17.8458 19.2122 18.2558V19.1064C19.2122 19.5169 19.375 19.9105 19.6647 20.2012C19.9545 20.4919 20.3476 20.6558 20.758 20.6571ZM20.6706 18.2558C20.6706 18.2326 20.6798 18.2103 20.6962 18.1939C20.7126 18.1775 20.7348 18.1683 20.758 18.1683H28.21C28.2336 18.1682 28.2564 18.1773 28.2736 18.1936C28.2908 18.2099 28.3011 18.2321 28.3023 18.2558V19.1064C28.3012 19.1306 28.291 19.1534 28.274 19.1704C28.2569 19.1875 28.2341 19.1976 28.21 19.1988H20.758C20.7344 19.1976 20.7121 19.1873 20.6959 19.1701C20.6796 19.1529 20.6705 19.1301 20.6706 19.1064V18.2558Z" fill="white"/>
</g>
<defs>
<filter id="filter0_d" x="0" y="0" width="44" height="50" filterUnits="userSpaceOnUse" color-interpolation-filters="sRGB">
<feFlood flood-opacity="0" result="BackgroundImageFix"/>
<feColorMatrix in="SourceAlpha" type="matrix" values="0 0 0 0 0 0 0 0 0 0 0 0 0 0 0 0 0 0 127 0"/>
<feOffset dy="1"/>
<feGaussianBlur stdDeviation="2"/>
<feColorMatrix type="matrix" values="0 0 0 0 0 0 0 0 0 0 0 0 0 0 0 0 0 0 0.25 0"/>
<feBlend mode="normal" in2="BackgroundImageFix" result="effect1_dropShadow"/>
<feBlend mode="normal" in="SourceGraphic" in2="effect1_dropShadow" result="shape"/>
</filter>
<clipPath id="clip0">
<rect width="32" height="32" fill="white" transform="translate(6 5)"/>
</clipPath>
</defs>
</svg>
