<svg width="56" height="56" viewBox="0 0 56 56" fill="none" xmlns="http://www.w3.org/2000/svg">
<g filter="url(#filter0_d)">
<circle cx="28" cy="27" r="24" fill="white"/>
<path d="M28 17C25.2396 17 22.8828 17.9766 20.9297 19.9297C18.9766 21.8828 18 24.2396 18 27C18 29.7604 18.9766 32.1172 20.9297 34.0703C22.8828 36.0234 25.2396 37 28 37C30.7604 37 33.1172 36.0234 35.0703 34.0703C37.0234 32.1172 38 29.7604 38 27C38 24.2396 37.0234 21.8828 35.0703 19.9297C33.1172 17.9766 30.7604 17 28 17ZM28 35.3203C25.7083 35.3203 23.7487 34.5065 22.1211 32.8789C20.4935 31.2513 19.6797 29.2917 19.6797 27C19.6797 24.7083 20.4935 22.7487 22.1211 21.1211C23.7487 19.4935 25.7083 18.6797 28 18.6797C30.2917 18.6797 32.2513 19.4935 33.8789 21.1211C35.5065 22.7487 36.3203 24.7083 36.3203 27C36.3203 29.2917 35.5065 31.2513 33.8789 32.8789C32.2513 34.5065 30.2917 35.3203 28 35.3203ZM29.6797 27C29.6797 27.4688 29.5169 27.8659 29.1914 28.1914C28.8659 28.5169 28.4688 28.6797 28 28.6797C27.5312 28.6797 27.1341 28.5169 26.8086 28.1914C26.4831 27.8659 26.3203 27.4688 26.3203 27C26.3203 26.5312 26.4831 26.1341 26.8086 25.8086C27.1341 25.4831 27.5312 25.3203 28 25.3203C28.4688 25.3203 28.8659 25.4831 29.1914 25.8086C29.5169 26.1341 29.6797 26.5312 29.6797 27Z" fill="black"/>
</g>
<defs>
<filter id="filter0_d" x="0" y="0" width="56" height="56" filterUnits="userSpaceOnUse" color-interpolation-filters="sRGB">
<feFlood flood-opacity="0" result="BackgroundImageFix"/>
<feColorMatrix in="SourceAlpha" type="matrix" values="0 0 0 0 0 0 0 0 0 0 0 0 0 0 0 0 0 0 127 0"/>
<feOffset dy="1"/>
<feGaussianBlur stdDeviation="2"/>
<feColorMatrix type="matrix" values="0 0 0 0 0 0 0 0 0 0 0 0 0 0 0 0 0 0 0.25 0"/>
<feBlend mode="normal" in2="BackgroundImageFix" result="effect1_dropShadow"/>
<feBlend mode="normal" in="SourceGraphic" in2="effect1_dropShadow" result="shape"/>
</filter>
</defs>
</svg>
