<svg width="44" height="50" viewBox="0 0 44 50" fill="none" xmlns="http://www.w3.org/2000/svg">
<g filter="url(#filter0_d)">
<circle cx="22" cy="21" r="18" fill="#2F8FD0"/>
<path d="M22 45L18.5359 38.25L25.4641 38.25L22 45Z" fill="#2F8FD0"/>
</g>
<path d="M30.4933 17.7322L28.1333 13.4789C27.8 12.8789 27.1867 12.4922 26.52 12.4922H17C16.3333 12.4922 15.72 12.8655 15.4 13.4655L13 17.7322C12.6533 18.3455 12.5733 19.0522 12.7733 19.6389C13.1733 20.8122 14.2267 21.5989 15.4 21.5989C16.24 21.5989 16.9867 21.1855 17.5067 20.5455C18.0133 21.1855 18.76 21.5989 19.6 21.5989C20.4667 21.5989 21.2267 21.1722 21.7333 20.5055C22.24 21.1722 23.0133 21.5989 23.8667 21.5989C24.7067 21.5989 25.4667 21.1855 25.9733 20.5455C26.48 21.1855 27.24 21.5989 28.08 21.5989C29.2533 21.5989 30.3067 20.8122 30.7067 19.6255C30.92 19.0389 30.84 18.3455 30.4933 17.7322ZM29.4133 19.1989C29.2 19.8255 28.6667 20.2389 28.0933 20.2389C27.3067 20.2389 26.6667 19.5189 26.6667 18.6255C26.6667 18.2522 26.36 17.9455 25.9867 17.9455C25.6133 17.9455 25.3067 18.2389 25.3067 18.6122C25.3067 19.5055 24.6667 20.2255 23.88 20.2255C23.0933 20.2255 22.4533 19.5055 22.4533 18.6122C22.4533 18.2389 22.1467 17.9322 21.7733 17.9322C21.76 17.9322 21.7467 17.9322 21.7333 17.9455C21.72 17.9455 21.7067 17.9322 21.6933 17.9322C21.32 17.9322 21.0133 18.2389 21.0133 18.6122C21.0133 19.5055 20.3733 20.2255 19.5867 20.2255C18.8 20.2255 18.1867 19.5055 18.1867 18.6122C18.1867 18.2389 17.88 17.9322 17.5067 17.9322C17.1333 17.9322 16.8133 18.2389 16.8133 18.6122C16.8133 19.5055 16.1733 20.2255 15.3867 20.2255C14.8 20.2255 14.2667 19.8122 14.0667 19.1855C14 18.9722 14.04 18.6789 14.2 18.3989L16.6133 14.1189C16.7067 13.9589 16.8533 13.8522 17.0133 13.8522H26.52C26.68 13.8522 26.84 13.9589 26.9333 14.1322L29.3067 18.3989C29.4533 18.6789 29.4933 18.9722 29.4133 19.1989Z" fill="white"/>
<path d="M27.8667 22.3457C27.4934 22.3457 27.1867 22.6524 27.1867 23.0257V28.8524C27.1867 28.999 27.04 29.1324 26.8534 29.1324H25.9867V24.1324C25.9867 23.759 25.6934 23.4657 25.32 23.4657H22.4534C22.08 23.4657 21.7867 23.759 21.7867 24.1324V29.1324H16.7734C16.5867 29.1324 16.44 29.0124 16.44 28.8524V23.0257C16.44 22.6524 16.1334 22.3457 15.76 22.3457C15.3867 22.3457 15.08 22.6524 15.08 23.0257V28.8524C15.08 29.759 15.84 30.4924 16.7734 30.4924H26.8534C27.7867 30.4924 28.5467 29.759 28.5467 28.8524V23.0257C28.5467 22.6524 28.24 22.3457 27.8667 22.3457ZM23.12 24.799H24.6534V29.1324H23.12V24.799Z" fill="white"/>
<path d="M20.7733 25.2391C20.7733 24.3191 20.0267 23.5591 19.0933 23.5591C18.16 23.5591 17.4267 24.3191 17.4267 25.2391C17.4267 26.1591 18.1733 26.9191 19.1067 26.9191C20.04 26.9191 20.7733 26.1724 20.7733 25.2391ZM18.4267 25.2391C18.4267 24.8657 18.7333 24.5591 19.1067 24.5591C19.48 24.5591 19.7867 24.8657 19.7867 25.2391C19.7867 25.6124 19.48 25.9191 19.1067 25.9191C18.7333 25.9191 18.4267 25.6124 18.4267 25.2391Z" fill="white"/>
<defs>
<filter id="filter0_d" x="0" y="0" width="44" height="50" filterUnits="userSpaceOnUse" color-interpolation-filters="sRGB">
<feFlood flood-opacity="0" result="BackgroundImageFix"/>
<feColorMatrix in="SourceAlpha" type="matrix" values="0 0 0 0 0 0 0 0 0 0 0 0 0 0 0 0 0 0 127 0"/>
<feOffset dy="1"/>
<feGaussianBlur stdDeviation="2"/>
<feColorMatrix type="matrix" values="0 0 0 0 0 0 0 0 0 0 0 0 0 0 0 0 0 0 0.25 0"/>
<feBlend mode="normal" in2="BackgroundImageFix" result="effect1_dropShadow"/>
<feBlend mode="normal" in="SourceGraphic" in2="effect1_dropShadow" result="shape"/>
</filter>
</defs>
</svg>
