<?xml version="1.0" encoding="utf-8"?>
<!-- Generator: Adobe Illustrator 23.1.1, SVG Export Plug-In . SVG Version: 6.00 Build 0)  -->
<svg version="1.1" id="圖層_1" xmlns="http://www.w3.org/2000/svg" xmlns:xlink="http://www.w3.org/1999/xlink" x="0px" y="0px"
	 viewBox="0 0 64 64" style="enable-background:new 0 0 64 64;" xml:space="preserve">
<style type="text/css">
	.st0{fill:#00C300;}
	.st1{fill-rule:evenodd;clip-rule:evenodd;fill:#FFFFFF;}
	.st2{opacity:1.000000e-02;enable-background:new    ;}
	.st3{fill:#FFFFFF;}
	.st4{fill:#3C599B;}
	.st5{fill:#DD4B39;}
</style>
<g>
	<path class="st5" d="M33.9,58H30C16.9,58,6,47.1,6,33.9V30C6,16.9,16.9,6,30.1,6H34c13.2,0,24,10.9,24,24.1V34
		C58,47.1,47.1,58,33.9,58z"/>
	<g>
		<path class="st3" d="M32.2,30.2v4.3h7.1c-0.3,1.8-2.1,5.4-7.1,5.4c-4.3,0-7.7-3.5-7.7-7.9s3.5-7.9,7.7-7.9c2.4,0,4.1,1,5,1.9
			l3.4-3.3c-2.2-2-5-3.3-8.4-3.3c-6.9,0-12.5,5.6-12.5,12.5s5.6,12.6,12.5,12.6c7.2,0,12-5.1,12-12.2c0-0.8-0.1-1.4-0.2-2.1
			L32.2,30.2L32.2,30.2z"/>
	</g>
</g>
</svg>
