<?xml version="1.0" encoding="utf-8"?>
<!-- Generator: Adobe Illustrator 23.1.1, SVG Export Plug-In . SVG Version: 6.00 Build 0)  -->
<svg version="1.1" id="圖層_1" xmlns="http://www.w3.org/2000/svg" xmlns:xlink="http://www.w3.org/1999/xlink" x="0px" y="0px"
	 viewBox="0 0 64 64" style="enable-background:new 0 0 64 64;" xml:space="preserve">
<style type="text/css">
	.st0{fill:#00C300;}
	.st1{fill-rule:evenodd;clip-rule:evenodd;fill:#FFFFFF;}
	.st2{opacity:1.000000e-02;enable-background:new    ;}
	.st3{fill:#FFFFFF;}
	.st4{fill:#3C599B;}
	.st5{fill:#DD4B39;}
</style>
<g>
	<path class="st0" d="M33.9,58h-3.8C16.9,58,6,47.1,6,33.9v-3.8C6,16.9,16.9,6,30.1,6h3.8C47.1,6,58,16.9,58,30.1v3.8
		C58,47.1,47.1,58,33.9,58z"/>
	<path class="st1" d="M46.3,29.6c0-6.6-6.4-11.9-14.3-11.9c-7.9,0-14.3,5.3-14.3,11.9c0,5.9,5.1,10.8,12,11.7
		c0.5,0.1,1.1,0.3,1.3,0.7c0.1,0.4,0.1,1,0,1.3l-0.2,1.3l0,0c-0.1,0.4-0.2,1.4,1.2,0.8c1.5-0.7,8.2-5,11.2-8.5
		C45.3,34.6,46.3,32.2,46.3,29.6L46.3,29.6L46.3,29.6z M40.8,29.1c0.4,0,0.7,0.4,0.7,0.8c0,0.4-0.3,0.7-0.7,0.7h-2.1V32h2.1
		c0.4,0,0.7,0.4,0.7,0.8c0,0.4-0.3,0.7-0.7,0.7h-2.8c-0.4,0-0.7-0.3-0.8-0.8v-5.8c0-0.4,0.3-0.8,0.8-0.8h2.8c0.4,0,0.7,0.4,0.7,0.8
		c0,0.4-0.3,0.7-0.7,0.7h-2.1v1.4L40.8,29.1L40.8,29.1z M35.4,33.5c0.4,0,0.7-0.3,0.7-0.8v-5.8c0-0.4-0.3-0.7-0.7-0.7
		c-0.4,0-0.8,0.3-0.8,0.7v3.6l-2.9-4.1c-0.1-0.2-0.4-0.3-0.6-0.3c-0.4,0-0.8,0.3-0.8,0.8v5.8c0,0.4,0.3,0.8,0.8,0.8
		c0.4,0,0.8-0.3,0.8-0.8v-3.6l2.9,4.1C35,33.4,35.2,33.5,35.4,33.5L35.4,33.5z M29.3,32.7c0,0.4-0.3,0.8-0.8,0.8
		c-0.4,0-0.8-0.3-0.8-0.8v-5.8c0-0.4,0.4-0.8,0.8-0.7c0.4,0,0.7,0.3,0.7,0.7L29.3,32.7L29.3,32.7z M23.6,33.5h2.8v0h0
		c0.4,0,0.8-0.3,0.8-0.8c0-0.4-0.3-0.8-0.8-0.8h-2.1v-5.1c0-0.4-0.3-0.7-0.7-0.7c-0.4,0-0.8,0.3-0.8,0.7v5.8
		C22.8,33.2,23.1,33.5,23.6,33.5z"/>
</g>
</svg>
