<svg width="32" height="32" viewBox="0 0 32 32" fill="none" xmlns="http://www.w3.org/2000/svg">
<path d="M10.7613 18.0841C10.6901 17.9619 10.5984 17.7175 10.7664 17.4323L12.4367 14.6112L8.68876 6H6V7.5277H7.68557L10.7257 14.5042L9.45261 16.6532C9.05032 17.3356 9.04013 18.1503 9.43224 18.8378C9.84981 19.5762 10.6595 20.0294 11.5456 20.0294H24.1084V18.5017H11.5507C11.2095 18.5068 10.9141 18.3489 10.7613 18.0841Z" fill="white"/>
<path d="M25.7737 8.87212C25.4376 8.25595 24.7756 7.87402 24.0524 7.87402H11.2197L11.9072 9.40173H24.0473C24.2969 9.40173 24.4038 9.55959 24.4293 9.60542C24.4802 9.70218 24.4751 9.79384 24.4191 9.8855L21.5215 15.5584H14.046V17.0861H22.4585L25.7329 10.6748C26.0741 10.1147 26.0894 9.44247 25.7737 8.87212Z" fill="white"/>
<path d="M12.6867 20.8035C11.271 20.8035 10.1201 21.9543 10.1201 23.37C10.1201 24.7857 11.271 25.9366 12.6867 25.9366C14.1023 25.9366 15.2532 24.7857 15.2532 23.37C15.2532 21.9543 14.1023 20.8035 12.6867 20.8035ZM12.6867 24.4139C12.1112 24.4139 11.6478 23.9454 11.6478 23.3751C11.6478 22.8048 12.1163 22.3363 12.6867 22.3363C13.257 22.3363 13.7255 22.8048 13.7255 23.3751C13.7255 23.9454 13.257 24.4139 12.6867 24.4139Z" fill="white"/>
<path d="M21.1193 20.8035C19.7036 20.8035 18.5527 21.9543 18.5527 23.37C18.5527 24.7857 19.7036 25.9366 21.1193 25.9366C22.5349 25.9366 23.6858 24.7857 23.6858 23.37C23.6858 21.9543 22.5349 20.8035 21.1193 20.8035ZM21.1193 24.4139C20.5438 24.4139 20.0804 23.9454 20.0804 23.3751C20.0804 22.8048 20.5489 22.3363 21.1193 22.3363C21.6947 22.3363 22.1581 22.8048 22.1581 23.3751C22.1581 23.9454 21.6947 24.4139 21.1193 24.4139Z" fill="white"/>
</svg>
