<svg width="48" height="48" viewBox="0 0 48 48" fill="none" xmlns="http://www.w3.org/2000/svg">
<rect x="4" y="4" width="40" height="40" rx="12" fill="white" stroke="#76DF98" stroke-width="2"/>
<g clip-path="url(#clip0)">
<path d="M39 23.8892L34.5585 19.3196H32.7525L33.5953 13H13.7124L13.0769 17.7875H8V19.7686H12.8094L12.3077 23.526H8V25.507H12.0468L11.4114 30.2417H14.5853C14.4047 30.7106 14.3043 31.2125 14.3043 31.7407C14.3043 34.0916 16.2375 36 18.6187 36C21 36 22.9331 34.0916 22.9331 31.7407C22.9331 31.2125 22.8328 30.7106 22.6522 30.2417H28.4181C28.2375 30.7106 28.1371 31.2125 28.1371 31.7407C28.1371 34.0916 30.0702 36 32.4515 36C34.8328 36 36.7659 34.0916 36.7659 31.7407C36.7659 31.2125 36.6656 30.7106 36.4849 30.2417H38.2375L39 23.8892ZM14.3344 23.526L14.8361 19.7686H16L16.2542 17.7875H15.1037L15.4716 14.9811H31.3077L29.5351 28.2607H28.5987H21.1003C20.398 27.772 19.5418 27.4815 18.6187 27.4815C17.6957 27.4815 16.8395 27.772 16.1371 28.2607H13.699L14.0669 25.507H15.2375L15.4916 23.526H14.3344ZM34.7592 31.7407C34.7592 32.9954 33.7224 34.0189 32.4515 34.0189C31.1806 34.0189 30.1438 32.9954 30.1438 31.7407C30.1438 30.4861 31.1806 29.4625 32.4515 29.4625C33.7224 29.4625 34.7592 30.4861 34.7592 31.7407ZM20.9264 31.7407C20.9264 32.9954 19.8896 34.0189 18.6187 34.0189C17.3478 34.0189 16.311 32.9954 16.311 31.7407C16.311 30.4861 17.3478 29.4625 18.6187 29.4625C19.8896 29.4625 20.9264 30.4861 20.9264 31.7407ZM36.4582 28.2607H34.9331C34.2308 27.772 33.3746 27.4815 32.4515 27.4815C32.1773 27.4815 31.9164 27.5079 31.6555 27.5541L32.4916 21.3006H33.7023L36.8997 24.5825L36.4582 28.2607Z" fill="#2F2F2F"/>
<path d="M18.2508 22.097H19.495L19.602 21.232H18.3645L18.5452 19.8651H19.9766L20.0903 19H17.7023L17 24.3753H17.9565L18.2508 22.097Z" fill="#2F2F2F"/>
<path d="M20.8325 24.3753L21.1134 22.2159H21.5683L21.9629 24.3753H22.9529L22.4579 22.0376C22.6987 21.9187 22.8793 21.7405 23.0064 21.5027C23.1335 21.265 23.2271 20.9612 23.274 20.6047C23.3475 20.0434 23.294 19.6339 23.1067 19.383C22.9195 19.1255 22.5649 19 22.0365 19H20.5783L19.876 24.3753H20.8325V24.3753ZM21.4211 19.8585H21.9161C22.1101 19.8585 22.2372 19.9179 22.2907 20.0434C22.3442 20.1688 22.3576 20.3537 22.3241 20.6047C22.2907 20.8556 22.2305 21.0405 22.1435 21.1726C22.0566 21.298 21.9161 21.3641 21.7221 21.3641H21.2271L21.4211 19.8585Z" fill="#2F2F2F"/>
<path d="M25.8294 24.3753L25.9431 23.5168H24.4983L24.6922 22.0706H25.9297L26.0434 21.2122H24.7993L24.9799 19.8651H26.418L26.5317 19H24.1437L23.4414 24.3753H25.8294Z" fill="#2F2F2F"/>
<path d="M28.739 24.3753L28.8461 23.5168H27.4079L27.5952 22.0706H28.8394L28.9464 21.2122H27.7089L27.8828 19.8651H29.3277L29.4414 19H27.0534L26.3511 24.3753H28.739Z" fill="#2F2F2F"/>
</g>
<defs>
<clipPath id="clip0">
<rect x="9" y="13" width="30" height="23" fill="white"/>
</clipPath>
</defs>
</svg>
