<svg width="48" height="48" viewBox="0 0 48 48" fill="none" xmlns="http://www.w3.org/2000/svg">
<rect x="4" y="4" width="40" height="40" rx="12" fill="white" stroke="#E784FF" stroke-width="2"/>
<path d="M34.0166 21.8393L28.3835 19.8046L23.5486 12.3527C23.1037 11.6657 22.4037 11.2012 21.5793 11.0507C20.7746 10.9068 19.9502 11.0703 19.2502 11.5283L12.4721 15.9183C11.772 16.3698 11.2814 17.0567 11.0851 17.8484C10.8888 18.6597 11.0197 19.4906 11.4711 20.1775L19.6035 32.7195C20.1727 33.5962 21.1409 34.0738 22.142 34.0738C22.685 34.0738 23.2411 33.9234 23.7514 33.6355C24.2356 34.5842 24.844 35.6833 25.616 36.9984L27.3105 36.0104C25.4525 32.8308 24.53 30.9269 24.229 29.638C23.9346 28.3753 24.301 28.0482 24.8113 27.7538C25.7927 27.1846 26.8526 27.2762 30.7781 33.9888L32.4726 33.0009C31.7006 31.6793 30.9809 30.482 30.2874 29.4483L30.693 29.167C31.3931 28.7155 31.8838 28.0286 32.0801 27.2369C32.2763 26.4256 32.1455 25.5947 31.694 24.9078L30.1631 22.5459L33.3624 23.7039C34.1606 23.9918 34.6971 24.7573 34.6971 25.6013V35.2319H36.6598V25.5816C36.6402 23.9133 35.5868 22.4085 34.0166 21.8393ZM22.8355 31.9017C22.2793 32.2616 21.5728 32.1503 21.2522 31.6531L13.1198 19.1111C12.9693 18.8821 12.9235 18.6008 12.9955 18.3129C13.0675 18.0119 13.2637 17.7437 13.5385 17.5605L14.7751 16.7623L22.2139 28.2379C22.1223 28.7809 22.155 29.3959 22.3186 30.0829C22.4429 30.5998 22.6392 31.1821 22.9205 31.8494L22.8355 31.9017ZM30.1565 26.7593C30.0846 27.0603 29.8883 27.3285 29.5808 27.5313L29.1163 27.8584C27.4152 25.7648 25.7796 24.9078 23.8168 26.0593C23.6467 26.1574 23.4897 26.2686 23.3458 26.3798L16.4238 15.6959L20.3231 13.1705C20.5979 12.9938 20.9185 12.9219 21.2325 12.9807C21.5204 13.0331 21.7625 13.1901 21.9064 13.4191L30.0322 25.9611C30.1827 26.1901 30.2285 26.4714 30.1565 26.7593Z" fill="#2F2F2F"/>
</svg>
