<svg width="48" height="48" viewBox="0 0 48 48" fill="none" xmlns="http://www.w3.org/2000/svg">
<rect x="4" y="4" width="40" height="40" rx="12" fill="white" stroke="#FF4D89" stroke-width="2"/>
<path d="M31.6977 17.0946C31.1418 13.7914 29.4076 11 24 11C18.5924 11 16.8582 13.7914 16.2956 17.0946H12V37H36V17.0946H31.6977ZM24 12.9939C27.8125 12.9939 29.1958 14.4427 29.6988 17.0946H18.3012C18.8042 14.4427 20.1809 12.9939 24 12.9939ZM34.0143 35.0061H13.9857V19.0884H16.0838C16.0309 20.0322 16.0309 20.9826 16.0309 21.8931H18.0165C18.0165 20.8763 18.0298 19.9392 18.0761 19.0884H29.9173C29.9636 19.9458 29.9768 20.8763 29.9768 21.8931H31.9625C31.9625 20.9826 31.9625 20.0322 31.9095 19.0884H34.0077V35.0061H34.0143Z" fill="#2F2F2F"/>
<path d="M17.5269 25.4157H18.9896V32.6468H20.4855V25.4157H21.935V24.0266H17.5269V25.4157Z" fill="#2F2F2F"/>
<path d="M28.5536 30.4734L27.7593 24.0266H25.9325L25.1383 30.4734L24.3175 24.0266H22.7886L24.2911 32.6468H25.9061L26.8327 27.3497L27.7461 32.6468H29.3743L30.8768 24.0266H29.3743L28.5536 30.4734Z" fill="#2F2F2F"/>
</svg>
