<svg width="48" height="48" viewBox="0 0 48 48" fill="none" xmlns="http://www.w3.org/2000/svg">
<rect x="4" y="4" width="40" height="40" rx="12" fill="white" stroke="#FFCB4D" stroke-width="2"/>
<path d="M21.1377 37H27.5056V24.5183H21.1377V37ZM23.1194 26.5H25.5239V35.0249H23.1194V26.5Z" fill="#2F2F2F"/>
<path d="M12.0024 37H18.3703V28.9741H12.0024V37ZM13.9841 30.9558H16.3886V35.0183H13.9841V30.9558Z" fill="#2F2F2F"/>
<path d="M30.2671 16.4827V36.9999H36.635V16.4827H30.2671ZM34.6533 35.0182H32.2488V18.4644H34.6533V35.0182Z" fill="#2F2F2F"/>
<path d="M25.4512 17.9426C24.6651 18.4248 23.7337 18.9005 22.7165 19.3298C22.0162 20.2018 20.9395 20.7633 19.7307 20.7633C19.4136 20.7633 19.1031 20.717 18.8125 20.6444C17.7358 20.9218 16.7185 21.1134 15.8003 21.1992C16.8374 22.1505 18.2114 22.7384 19.7307 22.7384C22.5909 22.7516 24.9756 20.6708 25.4512 17.9426Z" fill="#2F2F2F"/>
<path d="M14.6107 20.5056C16.4471 20.5056 18.8582 19.8913 20.5294 19.3232C23.3566 18.3653 27.9608 16.2119 27.287 14.2302C27.003 13.4045 25.9593 13.0412 24.1824 13.1468C23.1188 11.8389 21.4938 11 19.6773 11C16.5264 11 13.9633 13.5168 13.8709 16.6479C12.3978 17.6453 11.7835 18.5635 12.0675 19.3958C12.345 20.2083 13.3358 20.5056 14.6107 20.5056ZM26.0319 14.6265C26.0253 14.7983 25.7809 15.0955 25.3251 15.4588C25.2393 15.1087 25.127 14.7718 24.9816 14.4482C25.6818 14.4746 25.9857 14.6001 26.0319 14.6265ZM19.6773 12.9817C21.725 12.9817 23.4029 14.6001 23.502 16.628C22.597 17.1103 21.4674 17.6123 20.1066 18.0747C18.7459 18.5371 17.5436 18.8277 16.5396 18.9995C16.0904 18.3587 15.846 17.6123 15.846 16.8196C15.846 14.6992 17.5634 12.9817 19.6773 12.9817ZM14.0294 18.1738C14.1153 18.5239 14.2276 18.8674 14.3729 19.1977C13.7982 19.1911 13.4283 19.1118 13.3226 19.0061C13.3292 18.907 13.4943 18.6164 14.0294 18.1738Z" fill="#2F2F2F"/>
</svg>
