<svg width="48" height="48" viewBox="0 0 48 48" fill="none" xmlns="http://www.w3.org/2000/svg">
<rect x="4" y="4" width="40" height="40" rx="12" fill="white" stroke="#4D9FFF" stroke-width="2"/>
<path d="M25.8648 14.2451H22.9648V16.2359H25.8648V14.2451Z" fill="#2F2F2F"/>
<path d="M20.4498 30.6891C21.8102 30.6891 22.9117 29.5809 22.9117 28.2271C22.9117 26.8734 21.8035 25.7651 20.4498 25.7651C19.0894 25.7651 17.9878 26.8734 17.9878 28.2271C17.9878 29.5809 19.0894 30.6891 20.4498 30.6891ZM20.4498 27.4241C20.8944 27.4241 21.2527 27.7825 21.2527 28.2271C21.2527 28.6717 20.8944 29.0301 20.4498 29.0301C20.0051 29.0301 19.6468 28.6717 19.6468 28.2271C19.6468 27.7825 20.0051 27.4241 20.4498 27.4241Z" fill="#2F2F2F"/>
<path d="M28.5191 30.6891C29.8795 30.6891 30.9811 29.5809 30.9811 28.2271C30.9811 26.8734 29.8729 25.7651 28.5191 25.7651C27.1587 25.7651 26.0571 26.8734 26.0571 28.2271C26.0571 29.5809 27.1587 30.6891 28.5191 30.6891ZM28.5191 27.4241C28.9637 27.4241 29.3221 27.7825 29.3221 28.2271C29.3221 28.6717 28.9637 29.0301 28.5191 29.0301C28.0745 29.0301 27.7161 28.6717 27.7161 28.2271C27.7161 27.7825 28.0745 27.4241 28.5191 27.4241Z" fill="#2F2F2F"/>
<path d="M32.806 32.8724C33.7483 31.9898 34.2261 30.6095 34.2261 28.7315V14.099L33.7616 13.807C33.5824 13.6942 29.3022 11 24.3583 11C19.4145 11 15.2404 13.6942 15.0613 13.8137L14.6166 14.1057V28.7315C14.6166 30.5299 15.1343 31.9168 16.0898 32.8193L11 37H14.1322L17.9678 33.8479C18.4456 33.974 18.9699 34.0403 19.5406 34.0403H29.2889C29.8663 34.0403 30.3971 33.9806 30.8749 33.8678L34.6907 37.0066H37.8229L32.806 32.8724ZM32.2287 28.7315C32.2287 31.147 31.4324 32.0429 29.2889 32.0429H19.5406C18.1736 32.0429 16.6008 31.6646 16.6008 28.7315V24.4778H32.2287V28.7315V28.7315ZM32.2287 22.487H16.6075V19.2619H32.2353V22.487H32.2287ZM32.2287 17.2711H16.6075V15.2072C17.7422 14.5702 20.8877 12.9908 24.3583 12.9908C27.8356 12.9908 31.0607 14.5768 32.2287 15.2205V17.2711Z" fill="#2F2F2F"/>
</svg>
