<svg width="38" height="38" viewBox="0 0 38 38" fill="none" xmlns="http://www.w3.org/2000/svg">
<g clip-path="url(#clip0)">
<path d="M18.9971 1.15449C22.5261 1.15449 25.9757 2.20094 28.91 4.16151C31.8442 6.12209 34.1311 8.90872 35.4816 12.169C36.832 15.4294 37.1854 19.0169 36.4969 22.478C35.8084 25.9392 34.1091 29.1184 31.6138 31.6138C29.1184 34.1091 25.9392 35.8084 22.478 36.4969C19.0169 37.1854 15.4294 36.832 12.169 35.4815C8.90873 34.1311 6.12209 31.8441 4.16152 28.9099C2.20095 25.9757 1.1545 22.5261 1.1545 18.9971C1.15908 14.2664 3.0404 9.73069 6.38554 6.38554C9.73069 3.04039 14.2664 1.15907 18.9971 1.15449V1.15449ZM18.9971 8.77619e-07C15.2398 8.77619e-07 11.5669 1.11416 8.44289 3.20159C5.31883 5.28902 2.88392 8.25596 1.44608 11.7272C0.00823099 15.1985 -0.367975 19.0182 0.365033 22.7033C1.09804 26.3883 2.90734 29.7733 5.56413 32.4301C8.22093 35.0869 11.6059 36.8962 15.291 37.6292C18.976 38.3622 22.7957 37.986 26.267 36.5482C29.7383 35.1103 32.7052 32.6754 34.7926 29.5513C36.8801 26.4273 37.9942 22.7544 37.9942 18.9971C37.995 16.5022 37.5041 14.0315 36.5497 11.7263C35.5953 9.42116 34.196 7.32663 32.4318 5.56243C30.6676 3.79824 28.5731 2.39895 26.2679 1.44452C23.9627 0.490099 21.4921 -0.000757581 18.9971 8.77619e-07V8.77619e-07Z" fill="white"/>
<path d="M17.6579 12.4858C18.1363 12.4858 18.6039 12.344 19.0017 12.0782C19.3994 11.8124 19.7094 11.4347 19.8925 10.9927C20.0755 10.5508 20.1234 10.0645 20.0301 9.5953C19.9368 9.12613 19.7064 8.69516 19.3682 8.35691C19.0299 8.01865 18.599 7.7883 18.1298 7.69497C17.6606 7.60165 17.1743 7.64955 16.7324 7.83261C16.2904 8.01567 15.9127 8.32568 15.6469 8.72342C15.3811 9.12117 15.2393 9.58879 15.2393 10.0672C15.2393 10.7086 15.4941 11.3238 15.9477 11.7774C16.4013 12.231 17.0165 12.4858 17.6579 12.4858V12.4858ZM17.6579 9.09738C17.8514 9.09624 18.0408 9.15263 18.2021 9.25938C18.3634 9.36614 18.4893 9.51844 18.5639 9.69693C18.6384 9.87542 18.6582 10.072 18.6208 10.2618C18.5833 10.4516 18.4903 10.6259 18.3535 10.7627C18.2167 10.8995 18.0424 10.9925 17.8526 11.03C17.6628 11.0674 17.4662 11.0476 17.2877 10.9731C17.1092 10.8985 16.9569 10.7726 16.8502 10.6113C16.7434 10.45 16.687 10.2606 16.6882 10.0672C16.6897 9.81042 16.7923 9.56464 16.9739 9.3831C17.1554 9.20156 17.4012 9.0989 17.6579 9.09738Z" fill="#040000"/>
<path d="M17.8772 14.3445C24.8849 13.5883 27.0034 10.425 27.1131 10.3038C27.2041 10.1561 27.2338 9.97866 27.1956 9.8094C27.1575 9.64014 27.0545 9.49254 26.9089 9.39822C26.7633 9.3039 26.5865 9.27034 26.4164 9.30474C26.2464 9.33914 26.0965 9.43876 25.999 9.58227C25.999 9.58227 24.146 12.3473 17.7559 13.0457C11.3658 13.7442 8.99337 11.441 8.97029 11.4237C8.9091 11.3619 8.83627 11.3128 8.75602 11.2794C8.67576 11.2459 8.58967 11.2287 8.50272 11.2287C8.41576 11.2287 8.32967 11.2459 8.24942 11.2794C8.16916 11.3128 8.09634 11.3619 8.03515 11.4237C7.97319 11.4854 7.92403 11.5587 7.89048 11.6394C7.85693 11.7201 7.83966 11.8067 7.83966 11.8941C7.83966 11.9816 7.85693 12.0681 7.89048 12.1489C7.92403 12.2296 7.97319 12.3029 8.03515 12.3646C8.13328 12.4627 10.246 14.5004 15.4758 14.5004C16.2784 14.4903 17.08 14.4383 17.8772 14.3445V14.3445Z" fill="#040000"/>
<path d="M15.7645 14.9564C15.5731 14.9564 15.3896 15.0324 15.2543 15.1677C15.119 15.303 15.043 15.4866 15.043 15.6779V19.9438C15.0422 20.039 15.0603 20.1335 15.0962 20.2217C15.1321 20.3099 15.1852 20.3901 15.2522 20.4577C15.3193 20.5253 15.3991 20.579 15.487 20.6156C15.575 20.6523 15.6693 20.6711 15.7645 20.6711H19.3492C19.5406 20.6711 19.7241 20.5951 19.8594 20.4598C19.9947 20.3245 20.0708 20.1409 20.0708 19.9496V15.6837C20.0708 15.4923 19.9947 15.3088 19.8594 15.1735C19.7241 15.0382 19.5406 14.9622 19.3492 14.9622C19.1578 14.9622 18.9743 15.0382 18.839 15.1735C18.7037 15.3088 18.6276 15.4923 18.6276 15.6837V19.228H16.4861V15.6837C16.4868 15.5885 16.4687 15.494 16.4328 15.4058C16.3969 15.3176 16.3439 15.2374 16.2768 15.1698C16.2097 15.1022 16.1299 15.0485 16.042 15.0119C15.9541 14.9752 15.8598 14.9564 15.7645 14.9564V14.9564Z" fill="#040000"/>
<path d="M19.2165 21.3869C18.9868 21.3869 18.7666 21.4781 18.6042 21.6405C18.4418 21.8029 18.3506 22.0231 18.3506 22.2528V29.4741C18.3506 29.7037 18.4418 29.924 18.6042 30.0864C18.7666 30.2487 18.9868 30.34 19.2165 30.34C19.4461 30.34 19.6663 30.2487 19.8287 30.0864C19.9911 29.924 20.0823 29.7037 20.0823 29.4741V22.2528C20.0823 22.0231 19.9911 21.8029 19.8287 21.6405C19.6663 21.4781 19.4461 21.3869 19.2165 21.3869Z" fill="#040000"/>
<path d="M17.098 25.9991L14.2753 24.1923L15.8108 22.7723C15.9437 22.641 16.0205 22.4633 16.025 22.2765C16.0295 22.0897 15.9614 21.9085 15.8351 21.7709C15.7087 21.6333 15.5339 21.5501 15.3474 21.5388C15.1609 21.5274 14.9773 21.5889 14.8352 21.7102L12.6128 23.7305C12.5344 23.8039 12.4731 23.8937 12.4332 23.9934C12.3933 24.0932 12.3758 24.2005 12.3819 24.3077C12.3879 24.423 12.4208 24.5352 12.4779 24.6354C12.535 24.7357 12.6149 24.8211 12.711 24.885L16.3072 27.194C16.3864 27.2491 16.4758 27.2878 16.5702 27.3078C16.6645 27.3278 16.762 27.3287 16.8567 27.3104C16.9514 27.2921 17.0415 27.2549 17.1216 27.2012C17.2017 27.1475 17.2703 27.0782 17.3231 26.9975C17.376 26.9168 17.4122 26.8264 17.4295 26.7314C17.4468 26.6365 17.4449 26.5391 17.424 26.445C17.403 26.3508 17.3633 26.2618 17.3073 26.1832C17.2513 26.1047 17.1802 26.0381 17.098 25.9875V25.9991Z" fill="#040000"/>
<path d="M26.1954 15.6837V17.4155H24.5388C24.3474 17.4155 24.1639 17.4915 24.0285 17.6268C23.8932 17.7621 23.8172 17.9457 23.8172 18.137C23.8172 18.3284 23.8932 18.5119 24.0285 18.6472C24.1639 18.7826 24.3474 18.8586 24.5388 18.8586H26.1954V20.5903C26.1954 20.7817 26.2715 20.9652 26.4068 21.1005C26.5421 21.2359 26.7256 21.3119 26.917 21.3119C27.1084 21.3119 27.2919 21.2359 27.4272 21.1005C27.5625 20.9652 27.6386 20.7817 27.6386 20.5903V18.8586H29.2953C29.4866 18.8586 29.6701 18.7826 29.8055 18.6472C29.9408 18.5119 30.0168 18.3284 30.0168 18.137C30.0168 17.9457 29.9408 17.7621 29.8055 17.6268C29.6701 17.4915 29.4866 17.4155 29.2953 17.4155H27.6559V15.6837C27.6559 15.4924 27.5799 15.3088 27.4445 15.1735C27.3092 15.0382 27.1257 14.9622 26.9343 14.9622C26.743 14.9622 26.5594 15.0382 26.4241 15.1735C26.2888 15.3088 26.2128 15.4924 26.2128 15.6837H26.1954Z" fill="#040000"/>
<path d="M28.5332 23.032L26.9169 24.4174L25.3006 23.032L23.6555 23.9556V25.7105L26.9169 29.0585L30.1783 25.7105V23.9556L28.5332 23.032Z" fill="#F4BB19"/>
</g>
<defs>
<clipPath id="clip0">
<rect width="38" height="38" fill="white"/>
</clipPath>
</defs>
</svg>
