<svg width="95" height="95" viewBox="0 0 95 95" fill="none" xmlns="http://www.w3.org/2000/svg">
<rect width="95" height="95" fill="white"/>
<path d="M83 37.6352V15.0258C82.832 11.5713 80.124 9.0416 77.1377 9H55.142C51.6048 9.22594 47.3814 10.6515 45.1131 13.2828L12.5556 50.5336C10.5105 53.1948 10.4526 56.8775 12.5556 59.0992L38.0396 85.2941C40.5383 87.6178 44.2664 87.5189 46.3728 85.2941L78.8335 47.9439C81.1998 45.0713 82.9674 41.2308 83 37.6352ZM73.4556 24.5875C73.317 27.9487 70.7375 30.3744 67.8356 30.4142C64.5562 30.2636 62.2058 27.5769 62.167 24.5875C62.3114 21.2151 64.9386 18.8498 67.8356 18.8106C71.1071 18.9511 73.4178 21.6162 73.4556 24.5875Z" fill="#4A90E2"/>
</svg>
