<svg width="38" height="38" viewBox="0 0 38 38" fill="none" xmlns="http://www.w3.org/2000/svg">
<g clip-path="url(#clip0)">
<path d="M19 1.15466C22.5295 1.15466 25.9797 2.20128 28.9143 4.16215C31.849 6.12302 34.1363 8.91008 35.4869 12.1709C36.8376 15.4317 37.191 19.0198 36.5024 22.4814C35.8139 25.9431 34.1143 29.1228 31.6186 31.6185C29.1228 34.1143 25.9431 35.8139 22.4815 36.5024C19.0198 37.191 15.4317 36.8376 12.1709 35.4869C8.91008 34.1363 6.12302 31.849 4.16215 28.9143C2.20128 25.9797 1.15467 22.5295 1.15467 19C1.15926 14.2685 3.04086 9.73216 6.38651 6.38651C9.73217 3.04085 14.2685 1.15925 19 1.15466V1.15466ZM19 8.77752e-07C15.2422 8.77752e-07 11.5687 1.11433 8.44417 3.20208C5.31964 5.28982 2.88436 8.25722 1.4463 11.729C0.00823223 15.2008 -0.368031 19.0211 0.365088 22.7067C1.09821 26.3923 2.90778 29.7778 5.56498 32.435C8.22217 35.0922 11.6076 36.9018 15.2933 37.6349C18.9789 38.368 22.7992 37.9918 26.271 36.5537C29.7428 35.1156 32.7102 32.6804 34.7979 29.5558C36.8857 26.4313 38 22.7578 38 19C38.0008 16.5047 37.5098 14.0336 36.5553 11.7281C35.6007 9.42259 34.2012 7.32774 32.4367 5.56328C30.6723 3.79881 28.5774 2.39931 26.2719 1.44474C23.9664 0.490174 21.4953 -0.000757696 19 8.77752e-07V8.77752e-07Z" fill="white"/>
<path d="M29.48 20.6711H27.0786L26.7785 19.7591C26.1262 17.8138 25.2372 17.6637 23.95 17.6637H21.9642C20.6828 17.6637 19.788 17.8138 19.1415 19.7591L18.8356 20.6711H16.4573C16.2277 20.6711 16.0075 20.7623 15.8451 20.9247C15.6827 21.0871 15.5915 21.3073 15.5915 21.537V28.5505C15.5915 28.7801 15.6827 29.0004 15.8451 29.1628C16.0075 29.3251 16.2277 29.4164 16.4573 29.4164H29.48C29.7096 29.4164 29.9298 29.3251 30.0922 29.1628C30.2546 29.0004 30.3458 28.7801 30.3458 28.5505V21.537C30.3458 21.3073 30.2546 21.0871 30.0922 20.9247C29.9298 20.7623 29.7096 20.6711 29.48 20.6711V20.6711ZM28.6141 27.6846H17.3232V22.4028H19.459C19.6396 22.4047 19.8163 22.3501 19.9643 22.2466C20.1123 22.1431 20.2243 21.9959 20.2845 21.8256L20.7809 20.3248C21.0868 19.4127 21.0868 19.4127 21.9354 19.4127H23.9384C24.8158 19.4127 24.8158 19.4127 25.0929 20.3248L25.5951 21.8256C25.6542 21.9954 25.7651 22.1425 25.9121 22.246C26.0592 22.3495 26.235 22.4044 26.4148 22.4028H28.5564L28.6141 27.6846Z" fill="#040000"/>
<path d="M9.47839 21.7448H14.0963C14.326 21.7448 14.5462 21.6536 14.7086 21.4912C14.871 21.3288 14.9622 21.1086 14.9622 20.8789C14.9622 20.6493 14.871 20.4291 14.7086 20.2667C14.5462 20.1043 14.326 20.0131 14.0963 20.0131H10.3385V9.79585H25.3872V15.9839C25.3872 16.2136 25.4785 16.4338 25.6408 16.5962C25.8032 16.7586 26.0235 16.8498 26.2531 16.8498C26.4828 16.8498 26.703 16.7586 26.8654 16.5962C27.0278 16.4338 27.119 16.2136 27.119 15.9839V8.92998C27.119 8.70034 27.0278 8.48011 26.8654 8.31772C26.703 8.15534 26.4828 8.06412 26.2531 8.06412H9.47839C9.24874 8.06412 9.02851 8.15534 8.86612 8.31772C8.70374 8.48011 8.61252 8.70034 8.61252 8.92998V20.8789C8.61252 21.1086 8.70374 21.3288 8.86612 21.4912C9.02851 21.6536 9.24874 21.7448 9.47839 21.7448V21.7448Z" fill="#040000"/>
<path d="M14.0963 24.0538H8.51437C8.28472 24.0538 8.06449 24.145 7.90211 24.3074C7.73972 24.4698 7.6485 24.69 7.6485 24.9196C7.6485 25.1493 7.73972 25.3695 7.90211 25.5319C8.06449 25.6943 8.28472 25.7855 8.51437 25.7855H14.0963C14.326 25.7855 14.5462 25.6943 14.7086 25.5319C14.871 25.3695 14.9622 25.1493 14.9622 24.9196C14.9622 24.69 14.871 24.4698 14.7086 24.3074C14.5462 24.145 14.326 24.0538 14.0963 24.0538V24.0538Z" fill="#040000"/>
<path d="M22.9686 22.247C22.4968 22.2458 22.0353 22.3847 21.6425 22.646C21.2497 22.9072 20.9433 23.2792 20.7619 23.7147C20.5806 24.1502 20.5326 24.6297 20.6239 25.0926C20.7152 25.5554 20.9418 25.9807 21.275 26.3147C21.6082 26.6487 22.033 26.8763 22.4956 26.9688C22.9582 27.0612 23.4378 27.0144 23.8738 26.8341C24.3098 26.6538 24.6824 26.3483 24.9447 25.9561C25.2069 25.5639 25.3468 25.1028 25.3468 24.631C25.3468 23.9997 25.0965 23.3942 24.6506 22.9473C24.2048 22.5004 23.5999 22.2485 22.9686 22.247ZM22.9686 25.8548C22.7249 25.8559 22.4864 25.7846 22.2833 25.65C22.0803 25.5153 21.9218 25.3233 21.828 25.0984C21.7342 24.8735 21.7094 24.6258 21.7566 24.3868C21.8039 24.1477 21.9211 23.9281 22.0934 23.7558C22.2657 23.5835 22.4853 23.4663 22.7244 23.4191C22.9634 23.3718 23.2111 23.3966 23.436 23.4904C23.6609 23.5842 23.8529 23.7427 23.9875 23.9458C24.1222 24.1488 24.1935 24.3873 24.1923 24.631C24.1923 24.9556 24.0634 25.2668 23.8339 25.4963C23.6044 25.7258 23.2932 25.8548 22.9686 25.8548V25.8548Z" fill="#040000"/>
<path d="M26.0452 23.8575C26.0452 24.0106 26.106 24.1574 26.2143 24.2657C26.3226 24.3739 26.4694 24.4348 26.6225 24.4348H27.1651C27.3182 24.4348 27.465 24.3739 27.5733 24.2657C27.6815 24.1574 27.7423 24.0106 27.7423 23.8575C27.7423 23.7044 27.6815 23.5576 27.5733 23.4493C27.465 23.3411 27.3182 23.2803 27.1651 23.2803H26.6225C26.4694 23.2803 26.3226 23.3411 26.2143 23.4493C26.106 23.5576 26.0452 23.7044 26.0452 23.8575Z" fill="#F4BB19"/>
<path d="M14.6042 11.112H12.226C12.0729 11.112 11.926 11.1728 11.8178 11.281C11.7095 11.3893 11.6487 11.5361 11.6487 11.6892V14.0386C11.6487 14.1917 11.7095 14.3385 11.8178 14.4468C11.926 14.555 12.0729 14.6158 12.226 14.6158C12.3791 14.6158 12.5259 14.555 12.6341 14.4468C12.7424 14.3385 12.8032 14.1917 12.8032 14.0386V12.2665H14.6042C14.7573 12.2665 14.9041 12.2056 15.0124 12.0974C15.1206 11.9891 15.1814 11.8423 15.1814 11.6892C15.1814 11.5361 15.1206 11.3893 15.0124 11.281C14.9041 11.1728 14.7573 11.112 14.6042 11.112Z" fill="#F4BB19"/>
</g>
<defs>
<clipPath id="clip0">
<rect width="38" height="38" fill="white"/>
</clipPath>
</defs>
</svg>
