<svg width="38" height="38" viewBox="0 0 38 38" fill="none" xmlns="http://www.w3.org/2000/svg">
<g clip-path="url(#clip0)">
<path d="M18.9971 1.15449C22.5261 1.15449 25.9757 2.20094 28.91 4.16151C31.8442 6.12209 34.1311 8.90872 35.4816 12.169C36.832 15.4294 37.1854 19.0169 36.4969 22.478C35.8084 25.9392 34.1091 29.1184 31.6138 31.6138C29.1184 34.1091 25.9392 35.8084 22.478 36.4969C19.0169 37.1854 15.4294 36.832 12.169 35.4815C8.90873 34.1311 6.12209 31.8441 4.16152 28.9099C2.20095 25.9757 1.1545 22.5261 1.1545 18.9971C1.15908 14.2664 3.0404 9.73069 6.38554 6.38554C9.73069 3.04039 14.2664 1.15907 18.9971 1.15449V1.15449ZM18.9971 8.77619e-07C15.2398 8.77619e-07 11.5669 1.11416 8.44289 3.20159C5.31883 5.28902 2.88392 8.25596 1.44608 11.7272C0.00823099 15.1985 -0.367975 19.0182 0.365033 22.7033C1.09804 26.3883 2.90734 29.7733 5.56413 32.4301C8.22093 35.0869 11.6059 36.8962 15.291 37.6292C18.976 38.3622 22.7957 37.986 26.267 36.5482C29.7383 35.1103 32.7052 32.6754 34.7926 29.5513C36.8801 26.4273 37.9942 22.7544 37.9942 18.9971C37.995 16.5022 37.5041 14.0315 36.5497 11.7263C35.5953 9.42116 34.196 7.32663 32.4318 5.56243C30.6676 3.79824 28.5731 2.39895 26.2679 1.44452C23.9627 0.490099 21.4921 -0.000757581 18.9971 8.77619e-07V8.77619e-07Z" fill="white"/>
<path d="M20.3304 25.7393C20.1391 25.7393 19.9555 25.6633 19.8202 25.528C19.6849 25.3927 19.6089 25.2091 19.6089 25.0178V29.0989C19.6089 29.2902 19.6849 29.4738 19.8202 29.6091C19.9555 29.7444 20.1391 29.8204 20.3304 29.8204C20.5218 29.8204 20.7053 29.7444 20.8407 29.6091C20.976 29.4738 21.052 29.2902 21.052 29.0989V25.0178C21.052 25.2091 20.976 25.3927 20.8407 25.528C20.7053 25.6633 20.5218 25.7393 20.3304 25.7393V25.7393Z" fill="#040000"/>
<path d="M29.7686 19.6609L28.9142 13.5248C28.8122 12.713 28.4223 11.9647 27.8153 11.416C27.2083 10.8673 26.4246 10.5546 25.6066 10.5347H24.6657V10.4828C24.1808 8.08719 23.5632 7.01929 21.1676 7.01929C18.772 7.01929 18.1544 8.08719 17.6695 10.4828V10.5174H16.6882C15.8702 10.5373 15.0865 10.85 14.4795 11.3987C13.8726 11.9474 13.4826 12.6957 13.3806 13.5075L12.5436 19.6609C12.5295 19.7639 12.5377 19.8688 12.5676 19.9683C12.5974 20.0679 12.6483 20.1599 12.7168 20.2382C12.784 20.3162 12.8673 20.3787 12.961 20.4215C13.0546 20.4644 13.1564 20.4865 13.2594 20.4864H15.2162C15.4076 20.4864 15.5911 20.4104 15.7264 20.2751C15.8618 20.1397 15.9378 19.9562 15.9378 19.7648C15.9378 19.5735 15.8618 19.3899 15.7264 19.2546C15.5911 19.1193 15.4076 19.0433 15.2162 19.0433H14.0617L14.8006 13.7269C14.8554 13.2619 15.0745 12.8318 15.4186 12.5143C15.7626 12.1967 16.2088 12.0126 16.6767 11.9951H17.3636L16.6997 15.7126C16.6718 15.8984 16.7174 16.0878 16.827 16.2405C16.9365 16.3932 17.1013 16.4971 17.2862 16.5302C17.4712 16.5633 17.6618 16.5229 17.8174 16.4176C17.9731 16.3124 18.0816 16.1506 18.1198 15.9666L18.8298 11.9951H23.4477L24.1924 15.9493C24.2247 16.1132 24.3134 16.2607 24.4431 16.3662C24.5728 16.4716 24.7353 16.5283 24.9024 16.5265H25.0294C25.2166 16.4914 25.3823 16.3837 25.4905 16.2269C25.5986 16.0701 25.6404 15.877 25.6066 15.6895L24.937 11.972H25.6239C26.0918 11.9895 26.538 12.1736 26.882 12.4912C27.2261 12.8087 27.4452 13.2388 27.5 13.7038L28.2331 19.0433H24.0192C23.8278 19.0433 23.6443 19.1193 23.509 19.2546C23.3737 19.3899 23.2976 19.5735 23.2976 19.7648C23.2976 19.9562 23.3737 20.1397 23.509 20.2751C23.6443 20.4104 23.8278 20.4864 24.0192 20.4864H29.0528C29.1565 20.4866 29.259 20.4646 29.3534 20.4216C29.4477 20.3787 29.5317 20.3159 29.5997 20.2376C29.6676 20.1592 29.7178 20.0672 29.747 19.9677C29.7761 19.8682 29.7835 19.7635 29.7686 19.6609V19.6609ZM19.1242 10.5347C19.5456 8.54321 19.8977 8.4624 21.1561 8.4624C22.4145 8.4624 22.7666 8.54321 23.1937 10.5347H19.1242Z" fill="#040000"/>
<path d="M19.6089 25.0178C19.6089 25.2092 19.6849 25.3927 19.8202 25.528C19.9555 25.6633 20.1391 25.7393 20.3304 25.7393C20.5218 25.7393 20.7053 25.6633 20.8407 25.528C20.976 25.3927 21.052 25.2092 21.052 25.0178V21.0233C20.5018 21.5838 20.0176 22.2055 19.6089 22.8762V25.0178Z" fill="#EAB624"/>
<path d="M20.0824 15.5683C19.9531 15.5361 19.8174 15.5401 19.6901 15.5798C19.5629 15.6195 19.449 15.6934 19.3609 15.7934C18.1547 17.2218 17.0967 18.7691 16.2034 20.4114C14.6852 23.0378 13.6866 24.7696 10.6734 24.7696C7.81599 24.7696 7.06558 27.5057 7.06558 28.9546C7.06481 29.0496 7.08295 29.1437 7.11893 29.2316C7.15492 29.3195 7.20804 29.3994 7.2752 29.4665C7.34236 29.5337 7.42221 29.5868 7.5101 29.6228C7.59799 29.6588 7.69216 29.6769 7.78713 29.6761H14.1368C14.7141 29.6761 16.313 29.6761 17.0865 28.1234C17.4791 27.3383 17.8139 26.5879 18.1314 25.8663C18.5589 24.8351 19.0525 23.8324 19.6091 22.8647C20.361 21.6085 21.3896 20.5404 22.6165 19.7418C22.7129 19.6787 22.7926 19.5932 22.8489 19.4927C22.9051 19.3922 22.9363 19.2797 22.9398 19.1645C22.9302 18.333 22.6442 17.5282 22.1269 16.8771C21.6096 16.226 20.8903 15.7656 20.0824 15.5683V15.5683ZM16.8095 25.2949C16.4977 26.0049 16.1745 26.7322 15.7993 27.4884C15.4241 28.2446 14.8122 28.233 14.1368 28.233H8.60682C8.76267 27.4191 9.24179 26.2127 10.6964 26.2127C14.5409 26.2127 15.8916 23.8633 17.4733 21.1387C18.2527 19.7173 19.1526 18.3654 20.1633 17.098C20.5078 17.2471 20.8092 17.4808 21.0393 17.7775C21.2694 18.0742 21.4207 18.4242 21.4794 18.7951C18.8587 20.6654 17.8427 22.9166 16.8095 25.2949Z" fill="#040000"/>
</g>
<defs>
<clipPath id="clip0">
<rect width="38" height="38" fill="white"/>
</clipPath>
</defs>
</svg>
