<svg width="38" height="38" viewBox="0 0 38 38" fill="none" xmlns="http://www.w3.org/2000/svg">
<g clip-path="url(#clip0)">
<path d="M18.9972 1.15449C22.5261 1.15449 25.9758 2.20094 28.91 4.16152C31.8442 6.12209 34.1312 8.90873 35.4816 12.169C36.8321 15.4294 37.1855 19.0169 36.497 22.478C35.8085 25.9392 34.1092 29.1184 31.6139 31.6138C29.1185 34.1091 25.9393 35.8084 22.4781 36.4969C19.017 37.1854 15.4294 36.832 12.1691 35.4816C8.90882 34.1311 6.12218 31.8442 4.16161 28.9099C2.20104 25.9757 1.15458 22.5261 1.15458 18.9971C1.16069 14.2668 3.0425 9.73204 6.38732 6.38722C9.73213 3.04241 14.2669 1.1606 18.9972 1.15449V1.15449ZM18.9972 3.50994e-06C15.2402 0.00114512 11.5679 1.11628 8.44455 3.2044C5.32125 5.29252 2.88724 8.25987 1.45028 11.7312C0.0133195 15.2026 -0.362063 19.0221 0.371596 22.7068C1.10526 26.3915 2.91501 29.7759 5.57204 32.4321C8.22906 35.0884 11.614 36.8971 15.299 37.6296C18.9839 38.3622 22.8033 37.9856 26.2742 36.5476C29.7451 35.1096 32.7117 32.6747 34.7989 29.5507C36.8861 26.4268 38.0001 22.7541 38.0001 18.9971C38.0009 16.5017 37.5098 14.0306 36.555 11.725C35.6002 9.41945 34.2004 7.32467 32.4356 5.56039C30.6708 3.79612 28.5756 2.39696 26.2698 1.44287C23.9639 0.488784 21.4926 -0.00151359 18.9972 3.50994e-06V3.50994e-06Z" fill="white"/>
<path d="M20.2556 16.2552L19.8458 15.7472H18.1544L17.7677 16.2263L18.1717 16.792H19.84L20.2556 16.2552Z" fill="#F4BB19"/>
<path d="M27.904 9.84201H24.2096L23.2052 8.11028C23.1428 7.99987 23.0522 7.90802 22.9427 7.84412C22.8332 7.78022 22.7086 7.74657 22.5818 7.74662H15.4124C15.2848 7.74615 15.1592 7.77956 15.0487 7.84345C14.9382 7.90734 14.8466 7.99942 14.7832 8.11028L13.7846 9.84201H10.0902C9.86059 9.84201 9.64035 9.93324 9.47797 10.0956C9.31559 10.258 9.22437 10.4782 9.22437 10.7079V29.3875C9.22437 29.6172 9.31559 29.8374 9.47797 29.9998C9.64035 30.1622 9.86059 30.2534 10.0902 30.2534H27.904C28.1336 30.2534 28.3539 30.1622 28.5163 29.9998C28.6786 29.8374 28.7699 29.6172 28.7699 29.3875V10.7079C28.7699 10.4782 28.6786 10.258 28.5163 10.0956C28.3539 9.93324 28.1336 9.84201 27.904 9.84201ZM21.7102 9.18396L21.4158 9.9921H16.5669L16.2783 9.18396H21.7102ZM15.6549 28.5274H10.9561V11.5737H12.8033L12.3992 12.278C12.3448 12.3762 12.3139 12.4857 12.3089 12.5979C12.3039 12.71 12.3249 12.8218 12.3703 12.9245L14.7544 18.2986C14.8052 18.4133 14.8853 18.5126 14.9866 18.5865C15.0879 18.6605 15.2069 18.7065 15.3316 18.72H15.4124C15.523 18.7221 15.6326 18.6987 15.7327 18.6516C15.8327 18.6046 15.9207 18.5352 15.9897 18.4487L16.8382 17.3866L17.0633 17.6983L15.6549 28.5274ZM15.5914 16.6304L13.8596 12.6763L15.3893 9.99787L17.1211 14.7544L15.5914 16.6304ZM17.1442 28.5274L18.466 18.2351H19.5801L20.8154 28.5274H17.1442ZM17.7676 16.2263L18.1486 15.7415H19.8457L20.2497 16.2494L19.8341 16.792H18.1717L17.7676 16.2263ZM19.8688 14.2983H18.137L17.0922 11.4121H20.8962L19.8688 14.2983ZM22.6338 10.0036L24.1577 12.6763L22.4259 16.6304L20.9424 14.7775L22.6338 10.0036ZM27.0381 28.5274H22.2412L20.9424 17.7156L21.1791 17.4097L22.0161 18.4545C22.0933 18.5515 22.1942 18.627 22.3091 18.6737C22.4239 18.7203 22.5489 18.7366 22.6718 18.7209C22.7948 18.7053 22.9117 18.6582 23.0112 18.5842C23.1107 18.5103 23.1894 18.4119 23.2399 18.2986L25.6297 12.9245C25.6755 12.8217 25.6963 12.7095 25.6903 12.5971C25.6843 12.4847 25.6516 12.3753 25.595 12.278L25.1909 11.5737H27.0381V28.5274Z" fill="#040000"/>
</g>
<defs>
<clipPath id="clip0">
<rect width="38" height="38" fill="white"/>
</clipPath>
</defs>
</svg>
