<svg width="36" height="36" viewBox="0 0 36 36" fill="none" xmlns="http://www.w3.org/2000/svg">
<path d="M24.3393 10.225C22.5378 8.78362 20.2991 7.99886 17.992 8C15.2724 8 12.7322 9.04777 10.8331 10.9504C8.99781 12.7915 7.99201 15.2223 8.00005 17.7933C8.00011 19.6783 8.55349 21.5217 9.59156 23.0951L9.60004 23.1071C9.61254 23.1254 9.62549 23.1438 9.63844 23.1616C9.65138 23.1795 9.66745 23.2027 9.67103 23.2085L9.68085 23.2263C9.73129 23.3156 9.77013 23.4246 9.73576 23.5344L8.91344 26.5103C8.88054 26.6209 8.86253 26.7355 8.85987 26.8509C8.85927 27.1545 8.97911 27.446 9.19309 27.6614C9.40708 27.8768 9.69776 27.9986 10.0014 28C10.1618 27.9947 10.3199 27.9601 10.4679 27.8978L13.4808 26.8103L13.5188 26.7955C13.6007 26.7611 13.6888 26.7437 13.7777 26.7442C13.8597 26.7444 13.9409 26.7595 14.0174 26.7888C14.0898 26.817 14.7465 27.0683 15.4393 27.2621C16.0152 27.4228 17.2134 27.6638 18.1523 27.6638C20.8152 27.6638 23.3018 26.6326 25.1536 24.7594C26.9893 22.9004 28 20.4295 28 17.7987C28.0002 17.1234 27.9287 16.4499 27.7866 15.7897C27.325 13.6192 26.1009 11.6424 24.3393 10.225ZM13.7143 19.4286C13.4318 19.4286 13.1556 19.3448 12.9206 19.1878C12.6857 19.0308 12.5026 18.8077 12.3945 18.5467C12.2864 18.2857 12.2581 17.9984 12.3132 17.7213C12.3683 17.4442 12.5044 17.1896 12.7042 16.9898C12.904 16.7901 13.1585 16.654 13.4356 16.5989C13.7127 16.5438 14 16.572 14.261 16.6802C14.522 16.7883 14.7452 16.9714 14.9021 17.2063C15.0591 17.4413 15.1429 17.7175 15.1429 18C15.1429 18.3789 14.9924 18.7422 14.7245 19.0102C14.4566 19.2781 14.0932 19.4286 13.7143 19.4286ZM18 19.4286C17.7175 19.4286 17.4413 19.3448 17.2064 19.1878C16.9714 19.0308 16.7883 18.8077 16.6802 18.5467C16.5721 18.2857 16.5438 17.9984 16.5989 17.7213C16.654 17.4442 16.7901 17.1896 16.9899 16.9898C17.1897 16.7901 17.4442 16.654 17.7213 16.5989C17.9984 16.5438 18.2857 16.572 18.5467 16.6802C18.8077 16.7883 19.0309 16.9714 19.1878 17.2063C19.3448 17.4413 19.4286 17.7175 19.4286 18C19.4286 18.3789 19.2781 18.7422 19.0102 19.0102C18.7423 19.2781 18.3789 19.4286 18 19.4286V19.4286ZM22.2857 19.4286C22.0032 19.4286 21.727 19.3448 21.4921 19.1878C21.2571 19.0308 21.074 18.8077 20.9659 18.5467C20.8578 18.2857 20.8295 17.9984 20.8846 17.7213C20.9397 17.4442 21.0758 17.1896 21.2756 16.9898C21.4754 16.7901 21.7299 16.654 22.007 16.5989C22.2841 16.5438 22.5714 16.572 22.8324 16.6802C23.0935 16.7883 23.3166 16.9714 23.4735 17.2063C23.6305 17.4413 23.7143 17.7175 23.7143 18C23.7143 18.3789 23.5638 18.7422 23.2959 19.0102C23.028 19.2781 22.6646 19.4286 22.2857 19.4286Z" stroke="#182B56" stroke-width="1.35"/>
</svg>
