<svg width="38" height="38" viewBox="0 0 38 38" fill="none" xmlns="http://www.w3.org/2000/svg">
<g clip-path="url(#clip0)">
<path d="M18.9978 1.15449C22.5267 1.15449 25.9764 2.20094 28.9106 4.16152C31.8448 6.12209 34.1318 8.90873 35.4822 12.169C36.8327 15.4294 37.1861 19.0169 36.4976 22.478C35.8091 25.9392 34.1098 29.1184 31.6144 31.6138C29.1191 34.1091 25.9399 35.8084 22.4787 36.4969C19.0176 37.1854 15.43 36.832 12.1697 35.4816C8.90941 34.1311 6.12278 31.8442 4.1622 28.9099C2.20163 25.9757 1.15518 22.5261 1.15518 18.9971C1.16129 14.2668 3.04309 9.73204 6.38791 6.38722C9.73273 3.04241 14.2675 1.1606 18.9978 1.15449V1.15449ZM18.9978 3.50994e-06C15.2408 0.00114512 11.5684 1.11628 8.44515 3.2044C5.32185 5.29252 2.88784 8.25987 1.45088 11.7312C0.0139146 15.2026 -0.361468 19.0221 0.372191 22.7068C1.10585 26.3915 2.91561 29.7759 5.57263 32.4321C8.22965 35.0884 11.6146 36.8971 15.2995 37.6296C18.9845 38.3622 22.8039 37.9856 26.2748 36.5476C29.7457 35.1096 32.7123 32.6747 34.7995 29.5507C36.8867 26.4268 38.0007 22.7541 38.0007 18.9971C38.0015 16.5017 37.5104 14.0306 36.5556 11.725C35.6008 9.41945 34.201 7.32467 32.4362 5.56039C30.6714 3.79612 28.5762 2.39696 26.2704 1.44287C23.9645 0.488784 21.4932 -0.00151359 18.9978 3.50994e-06V3.50994e-06Z" fill="white"/>
<path d="M18.9971 30.3227C14.5638 30.3227 11.4236 29.07 8.49701 26.1434C8.41115 26.0575 8.34421 25.9545 8.30047 25.8412C8.25673 25.7279 8.23716 25.6067 8.24302 25.4854C8.2493 25.365 8.28082 25.2473 8.33551 25.1399C8.3902 25.0325 8.46686 24.9378 8.5605 24.8619L14.5812 19.9323L14.206 17.2943L12.809 17.6464C12.6843 17.6773 12.5542 17.6798 12.4283 17.6539C12.3025 17.6279 12.184 17.5741 12.0817 17.4963L9.77272 15.7646C9.5956 15.6367 9.47377 15.4462 9.43196 15.2318C9.39015 15.0174 9.43149 14.7951 9.54759 14.6101L13.0399 8.79144C13.1164 8.66356 13.2246 8.55759 13.354 8.48377C13.4835 8.40995 13.6298 8.37078 13.7788 8.37006H15.5105C15.7231 8.3701 15.9283 8.44838 16.0869 8.58996C16.2455 8.73155 16.3465 8.92654 16.3706 9.13779C16.5322 10.5809 17.2769 13.0226 18.9971 13.0226C20.7173 13.0226 21.5254 10.425 21.6235 9.16665C21.6423 8.94972 21.7416 8.74765 21.9018 8.60022C22.062 8.4528 22.2717 8.37069 22.4894 8.37006H24.2211C24.371 8.37035 24.5183 8.40928 24.6487 8.4831C24.7792 8.55691 24.8884 8.66311 24.9658 8.79144L28.4293 14.6101C28.5446 14.7948 28.5861 15.0163 28.5454 15.2302C28.5048 15.4442 28.385 15.635 28.2099 15.7646L25.9009 17.4963C25.7973 17.5738 25.6779 17.6275 25.5512 17.6534C25.4244 17.6794 25.2935 17.6769 25.1678 17.6464L23.7767 17.2943L23.3957 19.9323L29.4163 24.8619C29.51 24.9378 29.5866 25.0325 29.6413 25.1399C29.696 25.2473 29.7275 25.365 29.7338 25.4854C29.7397 25.6067 29.7201 25.7279 29.6764 25.8412C29.6326 25.9545 29.5657 26.0575 29.4798 26.1434C26.5705 29.07 23.4303 30.3227 18.9971 30.3227ZM10.4135 25.5777C12.2318 27.2113 14.6447 28.5909 18.9971 28.5909C23.3495 28.5909 25.8028 27.1594 27.5807 25.5777L21.941 20.9598C21.8227 20.8643 21.7316 20.7393 21.6769 20.5975C21.6221 20.4556 21.6057 20.3018 21.6293 20.1516L22.2066 16.0763C22.2266 15.9596 22.2702 15.8483 22.3348 15.749C22.3993 15.6498 22.4833 15.5647 22.5818 15.499C22.6823 15.4315 22.7959 15.3858 22.9153 15.3649C23.0346 15.344 23.1569 15.3484 23.2745 15.3778L25.2025 15.8627L26.5763 14.8294L23.742 10.1076H23.2456C22.8531 12.2145 21.5139 14.7602 18.9971 14.7602C16.4803 14.7602 15.2161 12.405 14.7659 10.1076H14.2579L11.4236 14.8352L12.7975 15.8685L14.7197 15.3836C14.8377 15.355 14.9603 15.3515 15.0797 15.3734C15.1991 15.3953 15.3126 15.4421 15.4127 15.5107C15.5129 15.5793 15.5975 15.6682 15.6611 15.7716C15.7247 15.875 15.7658 15.9906 15.7818 16.1109L16.3591 20.1862C16.3796 20.3332 16.3623 20.483 16.3088 20.6214C16.2552 20.7598 16.1672 20.8822 16.0531 20.9771L10.4135 25.5777Z" fill="#040000"/>
<path d="M18.9971 17.756C19.4083 17.756 19.7417 17.4227 19.7417 17.0114C19.7417 16.6001 19.4083 16.2668 18.9971 16.2668C18.5858 16.2668 18.2524 16.6001 18.2524 17.0114C18.2524 17.4227 18.5858 17.756 18.9971 17.756Z" fill="#F4BB19"/>
<path d="M18.9971 20.0939C19.4083 20.0939 19.7417 19.7605 19.7417 19.3492C19.7417 18.938 19.4083 18.6046 18.9971 18.6046C18.5858 18.6046 18.2524 18.938 18.2524 19.3492C18.2524 19.7605 18.5858 20.0939 18.9971 20.0939Z" fill="#F4BB19"/>
</g>
<defs>
<clipPath id="clip0">
<rect width="38" height="38" fill="white"/>
</clipPath>
</defs>
</svg>
