<svg width="38" height="38" viewBox="0 0 38 38" fill="none" xmlns="http://www.w3.org/2000/svg">
<g clip-path="url(#clip0)">
<path d="M27.8291 17.0807L22.7435 15.5336L17.7965 8.09297C17.6523 7.8791 17.4291 7.73108 17.176 7.68132C16.9228 7.63155 16.6603 7.68409 16.4458 7.82744L14.3331 9.23014L14.2696 9.26477C14.084 9.38477 13.9514 9.57118 13.8988 9.78582C13.8462 10.0005 13.8777 10.2271 13.9867 10.4193C14.1181 10.6636 14.1846 10.9375 14.1799 11.2149C14.1752 11.4922 14.0995 11.7637 13.9599 12.0035C13.8204 12.2432 13.6217 12.4432 13.3828 12.5842C13.1439 12.7252 12.8729 12.8026 12.5956 12.8091C12.3572 12.8163 12.1204 12.7679 11.904 12.6677C11.6876 12.5675 11.4974 12.4183 11.3487 12.2318C11.1946 12.0549 10.9816 11.9399 10.7491 11.908C10.5167 11.8762 10.2806 11.9297 10.0846 12.0586L7.97762 13.4671C7.76187 13.6096 7.6115 13.8319 7.55954 14.0851C7.50759 14.3384 7.5583 14.602 7.70054 14.8179L16.567 28.1234L18.8356 26.6167L20.4692 29.6357C20.5704 29.8208 20.7409 29.9581 20.9433 30.0176C21.1456 30.0772 21.3633 30.054 21.5486 29.9532L21.6756 29.8839C21.8591 29.7827 21.9954 29.6133 22.0548 29.4123C22.1142 29.2113 22.0921 28.995 21.9931 28.8103L19.1069 23.4419C18.9597 23.1865 18.9008 22.8897 18.9394 22.5975C18.978 22.3053 19.112 22.034 19.3205 21.8256C19.4498 21.701 19.6037 21.6048 19.7722 21.5429C19.9408 21.4811 20.1204 21.455 20.2996 21.4664C20.4788 21.4778 20.6537 21.5265 20.8131 21.6092C20.9725 21.6919 21.1129 21.8069 21.2254 21.9468L25.041 26.6456C25.1064 26.7265 25.1872 26.7936 25.2787 26.8432C25.3702 26.8928 25.4706 26.9238 25.574 26.9345C25.6775 26.9453 25.7821 26.9355 25.8818 26.9057C25.9815 26.8759 26.0744 26.8268 26.155 26.7611L26.2128 26.7149L26.2647 26.6745C26.3468 26.6094 26.4152 26.5286 26.4658 26.4368C26.5165 26.345 26.5483 26.2441 26.5596 26.1399C26.5709 26.0357 26.5614 25.9303 26.5315 25.8298C26.5017 25.7293 26.4522 25.6358 26.3859 25.5546L24.3079 22.9916L26.6861 21.41L24.2905 17.808L27.3211 18.7374C27.7643 18.9187 28.1401 19.2333 28.3966 19.6377C28.6531 20.0421 28.7775 20.5162 28.7526 20.9944V25.8028C28.7526 26.0141 28.8366 26.2167 28.986 26.3661C29.1354 26.5155 29.338 26.5994 29.5492 26.5994H29.6878C29.8991 26.5994 30.1017 26.5155 30.2511 26.3661C30.4005 26.2167 30.4844 26.0141 30.4844 25.8028V20.9886C30.5078 20.141 30.264 19.3075 29.7874 18.6061C29.3108 17.9047 28.6257 17.3711 27.8291 17.0807ZM22.5415 20.8501C22.0633 20.2739 21.3888 19.8951 20.6478 19.7867C19.9069 19.6784 19.1522 19.8482 18.529 20.2634C17.9059 20.6786 17.4585 21.3097 17.2732 22.0352C17.0878 22.7607 17.1776 23.5291 17.5252 24.1923L18.0044 25.0755L17.0519 25.7105L9.54772 14.4773L10.5175 13.8308C11.0686 14.2634 11.742 14.5116 12.4421 14.54C13.1421 14.5685 13.8334 14.3759 14.4179 13.9894C15.0023 13.603 15.4503 13.0424 15.6982 12.387C15.9462 11.7317 15.9815 11.015 15.7993 10.3384L16.7748 9.69194L24.279 20.9251L23.2053 21.6409L22.5415 20.8501Z" fill="#040000"/>
<path d="M15.349 16.0532C14.8699 15.3374 14.0964 15.0372 13.6173 15.3778C13.1382 15.7184 13.0978 16.5323 13.5826 17.2596C14.0675 17.9869 14.8353 18.2698 15.3144 17.9292C15.7935 17.5886 15.8339 16.7689 15.349 16.0532ZM14.9565 17.4385C14.766 17.5655 14.3331 17.375 14.0271 16.9248C13.7212 16.4745 13.7154 16.0012 13.9059 15.8684C14.0964 15.7357 14.5293 15.9377 14.8353 16.3822C15.1412 16.8267 15.1701 17.3115 14.9565 17.4385Z" fill="#F4BB19"/>
<path d="M15.8554 18.1965L15.3621 18.5284L16.9575 20.899L17.4507 20.567L15.8554 18.1965Z" fill="#F4BB19"/>
<path d="M18.3448 14.6562L17.3981 13.2247L17.0691 13.4498L18.0158 14.8525C18.1023 14.9673 18.1457 15.1088 18.1383 15.2524C18.1309 15.3959 18.0732 15.5323 17.9754 15.6376L16.5092 13.4556L16.1801 13.6807L17.6463 15.8627C17.5115 15.9109 17.3641 15.9109 17.2293 15.8624C17.0945 15.814 16.9807 15.7202 16.9075 15.5971L15.9608 14.1944L15.6317 14.4138L16.5784 15.8223C16.7169 16.0466 16.9384 16.207 17.1947 16.2687C17.4509 16.3303 17.7212 16.2881 17.9465 16.1513L18.1312 16.0243C18.3367 15.8681 18.4738 15.6384 18.5136 15.3833C18.5534 15.1282 18.4929 14.8677 18.3448 14.6562Z" fill="#F4BB19"/>
<path d="M18.5729 16.3669L18.0796 16.6988L19.675 19.0694L20.1682 18.7374L18.5729 16.3669Z" fill="#F4BB19"/>
<path d="M18.9971 1.15449C22.526 1.15449 25.9757 2.20094 28.9099 4.16151C31.8441 6.12209 34.1311 8.90872 35.4815 12.169C36.832 15.4294 37.1854 19.0169 36.4969 22.478C35.8084 25.9392 34.1091 29.1184 31.6137 31.6138C29.1184 34.1091 25.9392 35.8084 22.478 36.4969C19.0169 37.1854 15.4293 36.832 12.169 35.4815C8.90872 34.1311 6.12208 31.8441 4.16151 28.9099C2.20093 25.9757 1.15448 22.5261 1.15448 18.9971C1.15907 14.2664 3.04038 9.73069 6.38553 6.38554C9.73068 3.04039 14.2664 1.15907 18.9971 1.15449V1.15449ZM18.9971 8.77619e-07C15.2398 8.77619e-07 11.5669 1.11416 8.44288 3.20159C5.31882 5.28902 2.88391 8.25596 1.44606 11.7272C0.00821573 15.1985 -0.36799 19.0182 0.365018 22.7033C1.09803 26.3883 2.90733 29.7733 5.56412 32.4301C8.22091 35.0869 11.6059 36.8962 15.291 37.6292C18.976 38.3622 22.7957 37.986 26.267 36.5482C29.7383 35.1103 32.7052 32.6754 34.7926 29.5513C36.8801 26.4273 37.9942 22.7544 37.9942 18.9971C37.995 16.5022 37.5041 14.0315 36.5497 11.7263C35.5953 9.42116 34.196 7.32663 32.4318 5.56243C30.6676 3.79824 28.5731 2.39895 26.2679 1.44452C23.9627 0.490099 21.4921 -0.000757581 18.9971 8.77619e-07V8.77619e-07Z" fill="white"/>
</g>
<defs>
<clipPath id="clip0">
<rect width="38" height="38" fill="white"/>
</clipPath>
</defs>
</svg>
