<svg width="36" height="36" viewBox="0 0 36 36" fill="none" xmlns="http://www.w3.org/2000/svg">
<path fill-rule="evenodd" clip-rule="evenodd" d="M18.0001 8C15.2376 8 13.0001 10.2375 13.0001 13C13.0001 15.7563 15.2376 18 18.0001 18C20.7626 18 23.0001 15.7563 23.0001 13C23.0001 10.2375 20.7626 8 18.0001 8ZM20.625 13C20.625 11.55 19.45 10.375 18 10.375C16.55 10.375 15.375 11.55 15.375 13C15.375 14.45 16.55 15.625 18 15.625C19.45 15.625 20.625 14.45 20.625 13ZM25.625 24.25C25.625 23.4438 21.7187 21.625 18 21.625C14.2812 21.625 10.375 23.4438 10.375 24.25V25.625H25.625V24.25ZM8 24.25C8 20.9187 14.6687 19.25 18 19.25C21.3313 19.25 28 20.9187 28 24.25V28H8V24.25Z" fill="black"/>
</svg>
