<?xml version="1.0" encoding="utf-8"?>
<!-- Generator: Adobe Illustrator 22.0.1, SVG Export Plug-In . SVG Version: 6.00 Build 0)  -->
<svg version="1.1" id="圖層_1" xmlns="http://www.w3.org/2000/svg" xmlns:xlink="http://www.w3.org/1999/xlink" x="0px" y="0px"
	 viewBox="0 0 96 96" style="enable-background:new 0 0 96 96;" xml:space="preserve">
<style type="text/css">
	.st0{clip-path:url(#SVGID_2_);}
	.st1{fill:#22C2D3;}
</style>
<g>
	<defs>
		<rect id="SVGID_1_" x="6.4" y="7.2" width="83.2" height="68.5"/>
	</defs>
	<clipPath id="SVGID_2_">
		<use xlink:href="#SVGID_1_"  style="overflow:visible;"/>
	</clipPath>
	<g class="st0">
		<path class="st1" d="M87.7,23.1L79,9.2c-0.8-1.2-2.2-2-3.7-2H20.7c-1.5,0-2.9,0.8-3.7,2L8.3,23.1c-4.5,7.2-0.5,17.1,7.9,18.3
			c0.6,0.1,1.2,0.1,1.9,0.1c4,0,7.5-1.7,10-4.4c2.4,2.7,6,4.4,10,4.4c4,0,7.5-1.7,10-4.4c2.4,2.7,6,4.4,10,4.4c4,0,7.5-1.7,10-4.4
			c2.4,2.7,6,4.4,10,4.4c0.6,0,1.2,0,1.9-0.1C88.2,40.2,92.3,30.3,87.7,23.1z M77.9,45.8c-1.4,0-2.7-0.2-4-0.5v13.4H22.1V45.3
			c-1.3,0.3-2.6,0.5-4,0.5c-0.8,0-1.6-0.1-2.4-0.2c-0.8-0.1-1.5-0.3-2.2-0.5v26.3c0,2.4,1.9,4.3,4.3,4.3h60.5c2.4,0,4.3-1.9,4.3-4.3
			V45.1c-0.7,0.2-1.5,0.4-2.2,0.5C79.6,45.7,78.7,45.8,77.9,45.8z"/>
	</g>
</g>
</svg>
