<svg width="38" height="38" viewBox="0 0 38 38" fill="none" xmlns="http://www.w3.org/2000/svg">
<g clip-path="url(#clip0)">
<path d="M19.8688 29.6242C19.8688 29.6242 19.8688 29.6588 19.8688 29.6761C19.8594 29.8192 19.8785 29.9626 19.9248 30.0983C19.9712 30.2339 20.044 30.359 20.139 30.4663C20.234 30.5737 20.3493 30.6611 20.4783 30.7237C20.6073 30.7862 20.7474 30.8225 20.8905 30.8306C21.0334 30.8226 21.1732 30.7862 21.3019 30.7236C21.4306 30.661 21.5456 30.5734 21.6401 30.466C21.7346 30.3586 21.8069 30.2334 21.8526 30.0978C21.8983 29.9622 21.9166 29.8189 21.9065 29.6761V29.6242C21.5774 29.6242 21.2426 29.6761 20.8905 29.6761C20.5384 29.6761 20.1632 29.653 19.8688 29.6242Z" fill="#F4BB19"/>
<path d="M12.0702 13.9924H11.9086C11.7924 13.9923 11.6774 14.0156 11.5704 14.061C11.4634 14.1063 11.3667 14.1726 11.2859 14.2561C11.2051 14.3396 11.1419 14.4385 11.1002 14.5469C11.0584 14.6553 11.0388 14.771 11.0427 14.8871C11.0427 15.1168 11.1339 15.337 11.2963 15.4994C11.4587 15.6618 11.6789 15.753 11.9086 15.753H12.0702C12.1844 15.7537 12.2976 15.7319 12.4033 15.6887C12.5091 15.6456 12.6052 15.5819 12.6862 15.5014C12.7672 15.421 12.8315 15.3252 12.8754 15.2198C12.9193 15.1144 12.9419 15.0013 12.9419 14.8871C12.9457 14.7705 12.926 14.6543 12.8839 14.5455C12.8418 14.4368 12.7781 14.3376 12.6967 14.254C12.6153 14.1705 12.5178 14.1042 12.4102 14.0593C12.3025 14.0143 12.1869 13.9916 12.0702 13.9924V13.9924Z" fill="#040000"/>
<path d="M16.6708 15.7241H16.8324C17.0621 15.7241 17.2823 15.6329 17.4447 15.4705C17.6071 15.3081 17.6983 15.0879 17.6983 14.8583C17.6983 14.6286 17.6071 14.4084 17.4447 14.246C17.2823 14.0836 17.0621 13.9924 16.8324 13.9924H16.6708C16.4412 13.9924 16.2209 14.0836 16.0585 14.246C15.8962 14.4084 15.8049 14.6286 15.8049 14.8583C15.8049 15.0879 15.8962 15.3081 16.0585 15.4705C16.2209 15.6329 16.4412 15.7241 16.6708 15.7241V15.7241Z" fill="#040000"/>
<path d="M28.7929 17.0403C27.1824 15.1411 24.5444 14.154 21.156 14.154H20.3363C20.2008 13.6272 19.9763 13.1275 19.6725 12.6763V8.77412C19.6742 8.5522 19.6002 8.33633 19.4628 8.16212C19.3253 7.98791 19.1325 7.86578 18.9163 7.81589C18.7095 7.75961 18.4902 7.77131 18.2906 7.84927C18.091 7.92723 17.9218 8.06731 17.808 8.24882L16.284 10.3096C14.995 9.94601 13.6305 9.94601 12.3415 10.3096L10.8118 8.24882C10.6982 8.06846 10.53 7.92914 10.3316 7.85125C10.1332 7.77335 9.91515 7.76096 9.70923 7.81589C9.49299 7.86578 9.30023 7.98791 9.16275 8.16212C9.02527 8.33633 8.9513 8.5522 8.95304 8.77412V12.6647C8.43155 13.4203 8.14992 14.3155 8.1449 15.2335C8.1449 17.2077 9.45524 18.9278 11.3775 19.8053C11.1819 20.3739 11.1592 20.9877 11.3123 21.5692C11.4653 22.1507 11.7873 22.6739 12.2376 23.0725C12.7308 23.4591 13.3427 23.6631 13.9693 23.6497H14.154C14.3387 27.2575 16.284 29.3182 19.8687 29.6242C20.192 29.6242 20.5268 29.6761 20.8847 29.6761C21.2426 29.6761 21.5716 29.6761 21.9006 29.6242C25.4334 29.3182 27.3729 27.2402 27.5403 23.6093C28.2415 23.6056 28.9145 23.3329 29.4205 22.8473C29.9264 22.3618 30.2266 21.7006 30.2591 21.0002C30.3065 19.5393 29.7803 18.118 28.7929 17.0403V17.0403ZM9.58801 15.2335C9.59798 14.5435 9.83084 13.8753 10.2518 13.3286C10.3448 13.2033 10.3953 13.0516 10.3962 12.8956V10.1076L11.4929 11.5911C11.586 11.7167 11.7176 11.8085 11.8677 11.8522C12.0178 11.896 12.1781 11.8894 12.3241 11.8335C13.6086 11.3659 15.0169 11.3659 16.3014 11.8335C16.4481 11.8879 16.6085 11.893 16.7584 11.8483C16.9084 11.8035 17.0397 11.7112 17.1326 11.5853L18.2294 10.1076V12.8899C18.2276 13.0463 18.2784 13.1987 18.3737 13.3228C18.799 13.8698 19.0341 14.5407 19.0433 15.2335C19.0433 17.3058 16.9248 18.9913 14.3156 18.9913C11.7065 18.9913 9.58801 17.3058 9.58801 15.2335ZM14.206 22.195C14.0213 22.2264 13.8323 22.2206 13.6499 22.1779C13.4675 22.1353 13.2955 22.0567 13.1438 21.9468C12.9225 21.7327 12.7676 21.4591 12.698 21.1591C12.6284 20.859 12.6469 20.5453 12.7513 20.2555C13.2643 20.3744 13.7891 20.4345 14.3156 20.4345C14.4253 20.4345 14.535 20.4345 14.6447 20.4345C14.4278 21.0014 14.2805 21.5926 14.206 22.195V22.195ZM28.7987 20.8616C28.7891 21.056 28.7408 21.2466 28.6565 21.422C28.5723 21.5975 28.4538 21.7543 28.308 21.8833C28.0744 22.0589 27.792 22.1577 27.4999 22.1662C27.3661 21.0364 26.9709 19.9533 26.3454 19.0029C26.2963 18.9168 26.2299 18.8417 26.1504 18.7824C26.0709 18.723 25.9801 18.6807 25.8835 18.6581C25.787 18.6354 25.6868 18.6329 25.5892 18.6507C25.4917 18.6685 25.3988 18.7062 25.3165 18.7615C25.2342 18.8168 25.1641 18.8885 25.1107 18.972C25.0573 19.0556 25.0217 19.1493 25.0061 19.2472C24.9906 19.3452 24.9953 19.4453 25.0202 19.5413C25.045 19.6373 25.0894 19.7272 25.1505 19.8053C25.7955 20.785 26.135 21.9342 26.1261 23.1071C26.1261 26.4378 24.6079 28.0714 21.3522 28.2157V25.5835C21.5211 25.5395 21.6681 25.4354 21.7656 25.2907C21.8631 25.146 21.9044 24.9707 21.8817 24.7977C21.859 24.6247 21.7739 24.4659 21.6424 24.3513C21.5109 24.2366 21.342 24.1739 21.1675 24.175H20.5903C20.3989 24.175 20.2154 24.251 20.0801 24.3863C19.9448 24.5217 19.8687 24.7052 19.8687 24.8966C19.8688 25.0537 19.9209 25.2063 20.017 25.3307C20.1131 25.455 20.2477 25.5439 20.3998 25.5835V28.2157C17.1153 28.0714 15.5914 26.432 15.5914 23.1071C15.5892 22.1526 15.8127 21.2111 16.2436 20.3594C16.2734 20.2931 16.2948 20.2233 16.3071 20.1516C18.6161 19.4878 20.2959 17.7099 20.4633 15.5798H21.156C24.1057 15.5798 26.3512 16.4111 27.6904 17.9754C28.4183 18.7585 28.8154 19.7926 28.7987 20.8616V20.8616Z" fill="#040000"/>
<path d="M19.0491 19.863C18.8195 19.863 18.5992 19.9542 18.4368 20.1166C18.2745 20.279 18.1832 20.4992 18.1832 20.7288V20.8847C18.1832 21.1143 18.2745 21.3346 18.4368 21.497C18.5992 21.6593 18.8195 21.7506 19.0491 21.7506C19.2787 21.7506 19.499 21.6593 19.6614 21.497C19.8237 21.3346 19.915 21.1143 19.915 20.8847V20.7288C19.915 20.4992 19.8237 20.279 19.6614 20.1166C19.499 19.9542 19.2787 19.863 19.0491 19.863V19.863Z" fill="#040000"/>
<path d="M22.6568 19.863C22.4272 19.863 22.2069 19.9542 22.0446 20.1166C21.8822 20.279 21.791 20.4992 21.791 20.7288V20.8847C21.791 21.1143 21.8822 21.3346 22.0446 21.497C22.2069 21.6593 22.4272 21.7506 22.6568 21.7506C22.8865 21.7506 23.1067 21.6593 23.2691 21.497C23.4315 21.3346 23.5227 21.1143 23.5227 20.8847V20.7288C23.5227 20.4992 23.4315 20.279 23.2691 20.1166C23.1067 19.9542 22.8865 19.863 22.6568 19.863V19.863Z" fill="#040000"/>
</g>
<defs>
<clipPath id="clip0">
<rect width="38" height="38" fill="white"/>
</clipPath>
</defs>
</svg>
