<svg width="38" height="38" viewBox="0 0 38 38" fill="none" xmlns="http://www.w3.org/2000/svg">
<g clip-path="url(#clip0)">
<path d="M19 1.15466C22.5295 1.15466 25.9797 2.20128 28.9143 4.16215C31.849 6.12302 34.1363 8.91008 35.4869 12.1709C36.8376 15.4317 37.191 19.0198 36.5024 22.4814C35.8139 25.9431 34.1143 29.1228 31.6186 31.6185C29.1228 34.1143 25.9431 35.8139 22.4815 36.5024C19.0198 37.191 15.4317 36.8376 12.1709 35.4869C8.91008 34.1363 6.12302 31.849 4.16215 28.9143C2.20128 25.9797 1.15467 22.5295 1.15467 19C1.15926 14.2685 3.04086 9.73216 6.38651 6.38651C9.73217 3.04085 14.2685 1.15925 19 1.15466V1.15466ZM19 8.77752e-07C15.2422 8.77752e-07 11.5687 1.11433 8.44417 3.20208C5.31964 5.28982 2.88436 8.25722 1.4463 11.729C0.00823223 15.2008 -0.368031 19.0211 0.365088 22.7067C1.09821 26.3923 2.90778 29.7778 5.56498 32.435C8.22217 35.0922 11.6076 36.9018 15.2933 37.6349C18.9789 38.368 22.7992 37.9918 26.271 36.5537C29.7428 35.1156 32.7102 32.6804 34.7979 29.5558C36.8857 26.4313 38 22.7578 38 19C38.0008 16.5047 37.5098 14.0336 36.5553 11.7281C35.6007 9.42259 34.2012 7.32774 32.4367 5.56328C30.6723 3.79881 28.5774 2.39931 26.2719 1.44474C23.9664 0.490174 21.4953 -0.000757696 19 8.77752e-07V8.77752e-07Z" fill="white"/>
<path d="M21.3395 23.3842L19.3252 13.2247C19.2932 13.0612 19.2034 12.9138 19.0713 12.8083C18.9392 12.7028 18.7732 12.6458 18.6024 12.6474H11.1377C10.9662 12.6456 10.7994 12.7023 10.6663 12.8078C10.5333 12.9132 10.4422 13.0607 10.409 13.2247L8.40068 23.3842C8.37622 23.4791 8.37186 23.578 8.38787 23.6747C8.40389 23.7714 8.43993 23.8639 8.49381 23.9465C8.54769 24.0292 8.61828 24.1003 8.70128 24.1556C8.78428 24.2108 8.87795 24.249 8.97658 24.2678C9.07522 24.2867 9.17676 24.2857 9.27501 24.2651C9.37327 24.2444 9.46618 24.2045 9.5481 24.1478C9.63001 24.091 9.69921 24.0186 9.75148 23.935C9.80375 23.8513 9.838 23.7582 9.85214 23.6612L11.7479 14.1078H17.9922L19.8821 23.6612C19.9173 23.8242 20.0089 23.9704 20.1416 24.0755C20.2742 24.1806 20.4398 24.2381 20.6108 24.2385H20.7529C20.9469 24.2008 21.1176 24.0897 21.2276 23.9295C21.3376 23.7694 21.3778 23.5732 21.3395 23.3842V23.3842Z" fill="#040000"/>
<path d="M14.8701 11.9432C15.3187 11.9431 15.7572 11.8132 16.1298 11.5699C16.5025 11.3266 16.7925 10.9808 16.9631 10.5765C17.1337 10.1722 17.1771 9.7277 17.0878 9.29934C16.9986 8.87098 16.7807 8.47813 16.4618 8.17069C16.1429 7.86324 15.7375 7.65507 15.2969 7.57261C14.8564 7.49016 14.4006 7.53713 13.9875 7.70757C13.5744 7.87802 13.2226 8.16424 12.9768 8.52988C12.731 8.89553 12.6023 9.32411 12.607 9.76118C12.6132 10.342 12.8544 10.897 13.2782 11.3055C13.7019 11.7141 14.274 11.9432 14.8701 11.9432V11.9432ZM14.8701 8.97613C15.0237 8.9762 15.174 9.02037 15.302 9.10312C15.43 9.18587 15.5302 9.30353 15.59 9.44142C15.6499 9.57931 15.6667 9.73132 15.6384 9.87846C15.6101 10.0256 15.5379 10.1614 15.4309 10.2688C15.3239 10.3762 15.1868 10.4505 15.0367 10.4825C14.8866 10.5145 14.7301 10.5026 14.5869 10.4485C14.4436 10.3943 14.32 10.3003 14.2312 10.178C14.1425 10.0558 14.0927 9.91082 14.0881 9.76118C14.0849 9.6592 14.1028 9.55763 14.1407 9.4625C14.1785 9.36737 14.2356 9.28063 14.3086 9.20741C14.3815 9.13419 14.4688 9.07599 14.5653 9.03626C14.6617 8.99653 14.7654 8.97609 14.8701 8.97613V8.97613Z" fill="#040000"/>
<path d="M17.5361 19.2338C17.5124 19.044 17.4123 18.8712 17.2579 18.7532C17.1035 18.6352 16.9074 18.5818 16.7126 18.6046C16.6161 18.6146 16.5226 18.6432 16.4376 18.6889C16.3527 18.7346 16.2779 18.7963 16.2177 18.8705C16.1576 18.9447 16.1133 19.0299 16.0873 19.121C16.0614 19.2121 16.0545 19.3074 16.0668 19.4012L16.6593 24.1288H13.1047L13.6971 19.4012C13.7097 19.2164 13.649 19.034 13.5275 18.8917C13.406 18.7494 13.2329 18.658 13.0442 18.6365C12.8555 18.615 12.6655 18.665 12.5135 18.7762C12.3616 18.8874 12.2593 19.0512 12.2279 19.2338L11.5347 24.7696C11.521 24.8725 11.5298 24.9772 11.5604 25.0766C11.591 25.1761 11.6428 25.2682 11.7124 25.3468C11.7823 25.4234 11.8681 25.4847 11.9641 25.5265C12.0601 25.5683 12.1642 25.5897 12.2693 25.5892H17.4709C17.5764 25.5884 17.6806 25.5658 17.7765 25.5229C17.8725 25.48 17.9579 25.4178 18.0274 25.3403C18.0968 25.2629 18.1486 25.172 18.1793 25.0736C18.21 24.9752 18.2189 24.8716 18.2055 24.7696L17.5361 19.2338Z" fill="#040000"/>
<path d="M14.8701 26.1145C14.6737 26.1145 14.4853 26.1906 14.3464 26.3259C14.2075 26.4612 14.1295 26.6447 14.1295 26.8361V29.6126C14.1295 29.804 14.2075 29.9875 14.3464 30.1229C14.4853 30.2582 14.6737 30.3342 14.8701 30.3342C15.0665 30.3342 15.2548 30.2582 15.3937 30.1229C15.5326 29.9875 15.6106 29.804 15.6106 29.6126V26.8361C15.6106 26.6447 15.5326 26.4612 15.3937 26.3259C15.2548 26.1906 15.0665 26.1145 14.8701 26.1145V26.1145Z" fill="#040000"/>
<path d="M25.8243 19.3492C26.2156 19.3492 26.5982 19.2362 26.9236 19.0243C27.249 18.8125 27.5026 18.5114 27.6524 18.1591C27.8021 17.8068 27.8413 17.4191 27.765 17.0451C27.6886 16.6711 27.5002 16.3276 27.2234 16.058C26.9467 15.7883 26.5941 15.6047 26.2103 15.5303C25.8264 15.4559 25.4286 15.4941 25.067 15.64C24.7055 15.7859 24.3964 16.0331 24.179 16.3501C23.9616 16.6672 23.8455 17.0399 23.8455 17.4213C23.8471 17.9321 24.0561 18.4216 24.4268 18.7829C24.7976 19.1441 25.2999 19.3477 25.8243 19.3492ZM25.8243 16.9364C25.9227 16.9364 26.0189 16.9648 26.1007 17.0181C26.1826 17.0714 26.2464 17.1471 26.284 17.2357C26.3217 17.3243 26.3315 17.4218 26.3123 17.5158C26.2931 17.6099 26.2457 17.6963 26.1761 17.7641C26.1065 17.8319 26.0179 17.8781 25.9213 17.8968C25.8248 17.9155 25.7247 17.9059 25.6338 17.8692C25.5429 17.8325 25.4652 17.7704 25.4105 17.6906C25.3558 17.6109 25.3266 17.5172 25.3266 17.4213C25.3266 17.3576 25.3395 17.2945 25.3645 17.2357C25.3895 17.1769 25.4262 17.1234 25.4724 17.0784C25.5186 17.0334 25.5734 16.9976 25.6338 16.9733C25.6942 16.9489 25.7589 16.9364 25.8243 16.9364Z" fill="#040000"/>
<path d="M27.5186 24.8273C27.3222 24.8273 27.1338 24.9033 26.9949 25.0386C26.8561 25.1739 26.778 25.3575 26.778 25.5488V27.0785H24.9296V25.5488C24.9296 25.3575 24.8516 25.1739 24.7127 25.0386C24.5739 24.9033 24.3855 24.8273 24.1891 24.8273C23.9927 24.8273 23.8043 24.9033 23.6654 25.0386C23.5266 25.1739 23.4485 25.3575 23.4485 25.5488V29.7396C23.4485 29.931 23.5266 30.1145 23.6654 30.2498C23.8043 30.3852 23.9927 30.4612 24.1891 30.4612C24.3855 30.4612 24.5739 30.3852 24.7127 30.2498C24.8516 30.1145 24.9296 29.931 24.9296 29.7396V28.233H26.778V29.7512C26.778 29.9425 26.8561 30.1261 26.9949 30.2614C27.1338 30.3967 27.3222 30.4727 27.5186 30.4727C27.715 30.4727 27.9033 30.3967 28.0422 30.2614C28.1811 30.1261 28.2591 29.9425 28.2591 29.7512V25.5488C28.2591 25.3575 28.1811 25.1739 28.0422 25.0386C27.9033 24.9033 27.715 24.8273 27.5186 24.8273V24.8273Z" fill="#040000"/>
<path d="M30.5814 26.0279L29.1655 20.6942C29.1257 20.5386 29.0334 20.4005 28.9034 20.3021C28.7734 20.2037 28.6133 20.1507 28.4487 20.1516H23.1938C23.03 20.1504 22.8704 20.2026 22.7406 20.2998C22.6107 20.3971 22.5179 20.5339 22.4769 20.6884L21.061 26.0222C21.0115 26.2074 21.0396 26.4042 21.139 26.5693C21.2384 26.7344 21.4011 26.8542 21.5912 26.9025C21.7814 26.9507 21.9833 26.9234 22.1528 26.8265C22.3222 26.7296 22.4452 26.5711 22.4947 26.3858L23.7684 21.5947H27.8799L29.1477 26.3858C29.1905 26.5394 29.2838 26.6751 29.4133 26.772C29.5427 26.869 29.7013 26.9219 29.8646 26.9227C29.9275 26.9311 29.9913 26.9311 30.0542 26.9227C30.1501 26.8993 30.2402 26.8574 30.3191 26.7993C30.398 26.7412 30.464 26.6682 30.5132 26.5846C30.5625 26.5011 30.5939 26.4087 30.6056 26.3131C30.6173 26.2174 30.6091 26.1204 30.5814 26.0279V26.0279Z" fill="#F4BB19"/>
</g>
<defs>
<clipPath id="clip0">
<rect width="38" height="38" fill="white"/>
</clipPath>
</defs>
</svg>
