<svg width="36" height="36" viewBox="0 0 36 36" fill="none" xmlns="http://www.w3.org/2000/svg">
<path d="M12.7613 21.0841C12.6901 20.9619 12.5984 20.7175 12.7664 20.4323L14.4367 17.6112L10.6888 9H8V10.5277H9.68557L12.7257 17.5042L11.4526 19.6532C11.0503 20.3356 11.0401 21.1503 11.4322 21.8378C11.8498 22.5762 12.6595 23.0294 13.5456 23.0294H26.1084V21.5017H13.5507C13.2095 21.5068 12.9141 21.3489 12.7613 21.0841Z" fill="#182B56"/>
<path d="M27.7736 11.8721C27.4375 11.2559 26.7755 10.874 26.0524 10.874H13.2197L13.9071 12.4017H26.0473C26.2968 12.4017 26.4037 12.5595 26.4292 12.6054C26.4801 12.7021 26.475 12.7938 26.419 12.8854L23.5215 18.5583H16.0459V20.086H24.4585L27.7329 13.6748C28.074 13.1146 28.0893 12.4424 27.7736 11.8721Z" fill="#182B56"/>
<path d="M14.6863 23.8035C13.2706 23.8035 12.1198 24.9543 12.1198 26.37C12.1198 27.7857 13.2706 28.9366 14.6863 28.9366C16.102 28.9366 17.2528 27.7857 17.2528 26.37C17.2528 24.9543 16.102 23.8035 14.6863 23.8035ZM14.6863 27.4139C14.1109 27.4139 13.6475 26.9454 13.6475 26.3751C13.6475 25.8048 14.116 25.3363 14.6863 25.3363C15.2566 25.3363 15.7251 25.8048 15.7251 26.3751C15.7251 26.9454 15.2566 27.4139 14.6863 27.4139Z" fill="#182B56"/>
<path d="M23.1192 23.8035C21.7035 23.8035 20.5527 24.9543 20.5527 26.37C20.5527 27.7857 21.7035 28.9366 23.1192 28.9366C24.5349 28.9366 25.6858 27.7857 25.6858 26.37C25.6858 24.9543 24.5349 23.8035 23.1192 23.8035ZM23.1192 27.4139C22.5438 27.4139 22.0804 26.9454 22.0804 26.3751C22.0804 25.8048 22.5489 25.3363 23.1192 25.3363C23.6947 25.3363 24.1581 25.8048 24.1581 26.3751C24.1581 26.9454 23.6947 27.4139 23.1192 27.4139Z" fill="#182B56"/>
</svg>
