<svg width="38" height="38" viewBox="0 0 38 38" fill="none" xmlns="http://www.w3.org/2000/svg">
<g clip-path="url(#clip0)">
<path d="M18.9971 1.15449C22.5261 1.15449 25.9757 2.20094 28.91 4.16151C31.8442 6.12209 34.1311 8.90872 35.4816 12.169C36.832 15.4294 37.1854 19.0169 36.4969 22.478C35.8084 25.9392 34.1091 29.1184 31.6138 31.6138C29.1184 34.1091 25.9392 35.8084 22.478 36.4969C19.0169 37.1854 15.4294 36.832 12.169 35.4815C8.90873 34.1311 6.12209 31.8441 4.16152 28.9099C2.20095 25.9757 1.1545 22.5261 1.1545 18.9971C1.15908 14.2664 3.0404 9.73069 6.38554 6.38554C9.73069 3.04039 14.2664 1.15907 18.9971 1.15449V1.15449ZM18.9971 8.77619e-07C15.2398 8.77619e-07 11.5669 1.11416 8.44289 3.20159C5.31883 5.28902 2.88392 8.25596 1.44608 11.7272C0.00823099 15.1985 -0.367975 19.0182 0.365033 22.7033C1.09804 26.3883 2.90734 29.7733 5.56413 32.4301C8.22093 35.0869 11.6059 36.8962 15.291 37.6292C18.976 38.3622 22.7957 37.986 26.267 36.5482C29.7383 35.1103 32.7052 32.6754 34.7926 29.5513C36.8801 26.4273 37.9942 22.7544 37.9942 18.9971C37.995 16.5022 37.5041 14.0315 36.5497 11.7263C35.5953 9.42116 34.196 7.32663 32.4318 5.56243C30.6676 3.79824 28.5731 2.39895 26.2679 1.44452C23.9627 0.490099 21.4921 -0.000757581 18.9971 8.77619e-07V8.77619e-07Z" fill="white"/>
<path d="M11.2619 14.9968V29.2259H8.19677V30.3804H16.0588V29.2259H12.9937V14.9968H11.2619ZM10.4942 9.84779H14.4426L15.0198 13.2651H9.90541L10.4942 9.84779ZM12.9937 14.9968H16.0588C16.1854 14.9958 16.3103 14.9674 16.4249 14.9136C16.5395 14.8598 16.6411 14.7819 16.7227 14.6851C16.8038 14.5886 16.8628 14.4757 16.8957 14.354C16.9286 14.2324 16.9346 14.105 16.9132 13.9809L16.0242 8.83761C15.989 8.63626 15.8842 8.45367 15.728 8.32178C15.5718 8.18988 15.3743 8.11707 15.1699 8.11606H9.7611C9.55638 8.11592 9.35824 8.18833 9.20184 8.32043C9.04544 8.45252 8.9409 8.63576 8.90678 8.83761L8.02937 13.9809C8.00633 14.105 8.01149 14.2328 8.04446 14.3547C8.07744 14.4766 8.13738 14.5895 8.21986 14.6851C8.29981 14.7823 8.40026 14.8607 8.51402 14.9146C8.62778 14.9685 8.75204 14.9965 8.87792 14.9968H11.2619" fill="#040000"/>
<path d="M9.69774 15.9377H9.28212C8.99838 15.9377 8.76837 16.1677 8.76837 16.4515V19.5859C8.76837 19.8696 8.99838 20.0996 9.28212 20.0996H9.69774C9.98147 20.0996 10.2115 19.8696 10.2115 19.5859V16.4515C10.2115 16.1677 9.98147 15.9377 9.69774 15.9377Z" fill="#F4BB19"/>
<path d="M29.1219 19.3088H28.9603V17.8773C28.9665 17.3041 28.7451 16.752 28.3447 16.3418C27.9443 15.9317 27.3976 15.6971 26.8245 15.6895H18.137C17.5638 15.6971 17.0171 15.9317 16.6168 16.3418C16.2164 16.752 15.995 17.3041 16.0012 17.8773V19.3088H15.8453C15.3079 19.3262 14.7973 19.5479 14.4176 19.9286C14.0379 20.3094 13.8177 20.8206 13.8018 21.3581V26.7033C13.8174 27.237 14.0344 27.7449 14.4092 28.1251C14.784 28.5053 15.2888 28.7294 15.8222 28.7526H17.2653V29.8609C17.2653 30.014 17.3261 30.1608 17.4344 30.269C17.5426 30.3773 17.6895 30.4381 17.8426 30.4381H18.4198C18.5729 30.4381 18.7197 30.3773 18.828 30.269C18.9362 30.1608 18.997 30.014 18.997 29.8609V28.7526H26.1145V29.8609C26.1145 30.014 26.1753 30.1608 26.2835 30.269C26.3918 30.3773 26.5386 30.4381 26.6917 30.4381H27.2343C27.3874 30.4381 27.5342 30.3773 27.6425 30.269C27.7508 30.1608 27.8116 30.014 27.8116 29.8609V28.7526H29.0873C29.6227 28.7323 30.1304 28.5094 30.5076 28.1289C30.8849 27.7485 31.1035 27.2389 31.1192 26.7033V21.3581C31.104 20.8282 30.8903 20.3234 30.5203 19.9438C30.1503 19.5642 29.6512 19.3376 29.1219 19.3088V19.3088ZM18.1543 17.4212H26.8245C26.8811 17.4242 26.9366 17.4384 26.9877 17.463C27.0388 17.4876 27.0845 17.5221 27.1221 17.5645C27.1597 17.607 27.1885 17.6565 27.2068 17.7102C27.2251 17.7639 27.2325 17.8207 27.2286 17.8773V19.3262C26.7233 19.3826 26.2551 19.619 25.9097 19.992C25.5642 20.3651 25.3644 20.8499 25.3467 21.3581V23.465H19.5743V21.3581C19.5561 20.8529 19.3583 20.3708 19.0166 19.9984C18.6748 19.626 18.2115 19.3876 17.7098 19.3262V17.8773C17.7058 17.8188 17.7139 17.7601 17.7336 17.7049C17.7533 17.6497 17.7842 17.5992 17.8242 17.5564C17.8643 17.5136 17.9127 17.4795 17.9665 17.4563C18.0203 17.433 18.0783 17.4211 18.137 17.4212H18.1543ZM29.3874 26.7033C29.3691 26.7759 29.3331 26.8428 29.2828 26.8981C29.2325 26.9535 29.1693 26.9956 29.0988 27.0208H15.8222C15.7509 26.997 15.687 26.9554 15.6364 26.8998C15.5859 26.8442 15.5505 26.7765 15.5336 26.7033V21.3581C15.551 21.2851 15.5866 21.2177 15.637 21.1622C15.6875 21.1067 15.7512 21.0648 15.8222 21.0406H17.5539C17.6255 21.065 17.6898 21.1067 17.7412 21.1621C17.7926 21.2176 17.8294 21.2849 17.8483 21.3581V25.1967H27.0785V21.3581C27.0959 21.2851 27.1315 21.2177 27.1819 21.1622C27.2324 21.1067 27.2961 21.0648 27.3671 21.0406H29.0988C29.1693 21.0657 29.2325 21.1079 29.2828 21.1632C29.3331 21.2186 29.3691 21.2855 29.3874 21.3581V26.7033Z" fill="#040000"/>
</g>
<defs>
<clipPath id="clip0">
<rect width="38" height="38" fill="white"/>
</clipPath>
</defs>
</svg>
