<svg width="38" height="38" viewBox="0 0 38 38" fill="none" xmlns="http://www.w3.org/2000/svg">
<g clip-path="url(#clip0)">
<path d="M19 1.15466C22.5295 1.15466 25.9797 2.20128 28.9143 4.16215C31.849 6.12302 34.1363 8.91008 35.4869 12.1709C36.8376 15.4317 37.191 19.0198 36.5024 22.4814C35.8139 25.9431 34.1143 29.1228 31.6186 31.6185C29.1228 34.1143 25.9431 35.8139 22.4815 36.5024C19.0198 37.191 15.4317 36.8376 12.1709 35.4869C8.91008 34.1363 6.12302 31.849 4.16215 28.9143C2.20128 25.9797 1.15467 22.5295 1.15467 19C1.15926 14.2685 3.04086 9.73216 6.38651 6.38651C9.73217 3.04085 14.2685 1.15925 19 1.15466V1.15466ZM19 8.77752e-07C15.2422 8.77752e-07 11.5687 1.11433 8.44417 3.20208C5.31964 5.28982 2.88436 8.25722 1.4463 11.729C0.00823223 15.2008 -0.368031 19.0211 0.365088 22.7067C1.09821 26.3923 2.90778 29.7778 5.56498 32.435C8.22217 35.0922 11.6076 36.9018 15.2933 37.6349C18.9789 38.368 22.7992 37.9918 26.271 36.5537C29.7428 35.1156 32.7102 32.6804 34.7979 29.5558C36.8857 26.4313 38 22.7578 38 19C38.0008 16.5047 37.5098 14.0336 36.5553 11.7281C35.6007 9.42259 34.2012 7.32774 32.4367 5.56328C30.6723 3.79881 28.5774 2.39931 26.2719 1.44474C23.9664 0.490174 21.4953 -0.000757696 19 8.77752e-07V8.77752e-07Z" fill="white"/>
<path d="M11.4399 10.5982C11.2497 10.6347 11.0816 10.7418 10.971 10.897C10.8604 11.0521 10.8161 11.2431 10.8475 11.4294L11.4399 14.7948H12.9388L12.3463 11.1928C12.3303 11.0941 12.2936 10.9997 12.2384 10.9155C12.1833 10.8313 12.111 10.759 12.0259 10.7033C11.9409 10.6475 11.845 10.6094 11.7441 10.5913C11.6433 10.5732 11.5398 10.5756 11.4399 10.5982V10.5982Z" fill="#040000"/>
<path d="M18.49 10.8002C18.3893 10.6732 16.0314 7.6254 12.8204 7.6254C9.60939 7.6254 7.2515 10.6732 7.15078 10.8002C7.05829 10.9244 7.00848 11.074 7.00848 11.2274C7.00848 11.3809 7.05829 11.5304 7.15078 11.6546L10.2611 15.8338L10.8535 29.6877C10.8612 29.874 10.9425 30.0502 11.0806 30.1793C11.2187 30.3085 11.4027 30.3805 11.594 30.3804H14.0467C14.2354 30.3745 14.4145 30.298 14.5469 30.1669C14.6792 30.0358 14.7547 29.86 14.7577 29.6761L15.3501 15.8223L18.4604 11.643C18.5546 11.5229 18.608 11.3773 18.6133 11.2262C18.6186 11.0752 18.5755 10.9263 18.49 10.8002ZM13.3358 28.9257H12.305L11.9673 21.1041H13.6735L13.3358 28.9257ZM13.7327 19.6609H11.908L11.7599 16.2379H13.8808L13.7327 19.6609ZM14.3252 14.7948H11.3156L8.68519 11.262C9.36057 10.5347 10.9483 9.06851 12.8322 9.06851C14.7162 9.06851 16.2921 10.5347 16.9793 11.262L14.3252 14.7948Z" fill="#040000"/>
<path d="M29.0886 15.7588H28.5258V13.6114C28.5258 13.4211 28.4486 13.2384 28.311 13.1032C28.1734 12.9681 27.9865 12.8914 27.7912 12.8899H26.9677V11.2851H28.8398C29.0362 11.2851 29.2245 11.2091 29.3634 11.0738C29.5023 10.9385 29.5803 10.7549 29.5803 10.5636C29.5803 10.3722 29.5023 10.1887 29.3634 10.0534C29.2245 9.91804 29.0362 9.84202 28.8398 9.84202H26.9677V9.01656C26.9685 8.92159 26.9499 8.82742 26.9129 8.73953C26.876 8.65164 26.8215 8.57179 26.7525 8.50463C26.6836 8.43748 26.6017 8.38435 26.5115 8.34837C26.4213 8.31238 26.3246 8.29424 26.2271 8.29501H22.6725C22.4761 8.29501 22.2878 8.37103 22.1489 8.50635C22.01 8.64166 21.932 8.82519 21.932 9.01656V12.8899H21.0967C20.9003 12.8899 20.7119 12.9659 20.573 13.1012C20.4341 13.2365 20.3561 13.4201 20.3561 13.6114V15.7588H19.7637C19.5673 15.7588 19.3789 15.8348 19.24 15.9701C19.1012 16.1054 19.0231 16.289 19.0231 16.4803V29.6473C19.0231 29.7445 19.0431 29.8408 19.0822 29.9302C19.1213 30.0197 19.1785 30.1006 19.2504 30.168C19.3223 30.2354 19.4075 30.2879 19.5008 30.3224C19.5941 30.3569 19.6936 30.3727 19.7933 30.3688H29.0886C29.285 30.3688 29.4734 30.2928 29.6122 30.1575C29.7511 30.0222 29.8291 29.8386 29.8291 29.6473V16.4803C29.8291 16.289 29.7511 16.1054 29.6122 15.9701C29.4734 15.8348 29.285 15.7588 29.0886 15.7588V15.7588ZM23.3953 9.76121H25.4866V12.6186H23.3953V9.76121ZM21.8372 14.3792H27.0447V15.805H21.8668L21.8372 14.3792ZM28.354 28.9719H20.5338V17.2019H28.3481L28.354 28.9719Z" fill="#040000"/>
<path d="M22.6546 18.9971C22.4975 18.9971 22.3468 19.0579 22.2357 19.1662C22.1246 19.2744 22.0622 19.4213 22.0622 19.5743V24.2731C22.0622 24.4262 22.1246 24.573 22.2357 24.6813C22.3468 24.7895 22.4975 24.8504 22.6546 24.8504C22.8118 24.8504 22.9624 24.7895 23.0735 24.6813C23.1846 24.573 23.2471 24.4262 23.2471 24.2731V19.5743C23.2471 19.4213 23.1846 19.2744 23.0735 19.1662C22.9624 19.0579 22.8118 18.9971 22.6546 18.9971Z" fill="#F4BB19"/>
</g>
<defs>
<clipPath id="clip0">
<rect width="38" height="38" fill="white"/>
</clipPath>
</defs>
</svg>
