<svg width="32" height="32" viewBox="0 0 32 32" fill="none" xmlns="http://www.w3.org/2000/svg">
<path d="M14.94 13.8913C15.2852 13.9821 15.6304 14.0306 15.9757 14.0306C16.6722 14.0306 17.3627 13.8489 17.9805 13.4855C19.8945 12.3771 20.5426 9.91794 19.4342 8.00395C18.8951 7.07724 18.029 6.41703 16.9933 6.13841C15.9575 5.85979 14.8794 6.00516 13.9527 6.54423C13.026 7.08329 12.3658 7.94944 12.0871 8.98517C11.8085 10.0209 11.9539 11.099 12.493 12.0258C13.032 12.9525 13.9103 13.6187 14.94 13.8913ZM14.8733 8.11903C15.2186 7.91915 15.5941 7.82224 15.9696 7.82224C16.7268 7.82224 17.4657 8.21594 17.8715 8.91249C18.4772 9.96034 18.1199 11.305 17.0781 11.9107C16.0302 12.5164 14.6856 12.159 14.0799 11.1172C13.4681 10.0694 13.8255 8.72472 14.8733 8.11903Z" fill="white"/>
<path d="M15.9697 17.3569C21.1423 17.3569 21.554 19.5756 21.554 22.6162H23.3711C23.3711 19.0608 22.493 15.5398 15.9697 15.5398C9.13746 15.5398 8.56836 18.976 8.56836 22.6162H10.3854C10.3915 19.2849 10.6578 17.3569 15.9697 17.3569Z" fill="white"/>
<path d="M25 24H7V26H25V24Z" fill="white"/>
</svg>
