<svg width="48" height="48" viewBox="0 0 48 48" fill="none" xmlns="http://www.w3.org/2000/svg">
<path d="M31.2289 27.7288L33.4649 29.6897H28.4205L21.322 16.3816H14.6881L16.9241 14.4208L15.5569 13L10.6001 17.346L15.5569 21.692L16.9241 20.2712L14.6881 18.3103H20.0828L27.1813 31.6184H33.4649L31.2289 33.5792L32.5961 35L37.553 30.654L32.5961 26.308L31.2289 27.7288Z" fill="#13334C"/>
<path d="M19.7731 29.6897H14.7287L16.9714 27.7288L15.6042 26.308L10.6406 30.654L15.6042 35L16.9714 33.5792L14.7287 31.6184H21.0123L23.0866 27.7353L21.8743 25.7551L19.7731 29.6897Z" fill="#13334C"/>
<path d="M28.1175 18.3103H33.5121L31.2694 20.2712L32.6366 21.692L37.6001 17.346L32.6366 13L31.2694 14.4208L33.5121 16.3816H26.8783L25.2417 19.4547L26.3529 21.6084L28.1175 18.3103Z" fill="#13334C"/>
</svg>
