<svg width="32" height="32" viewBox="0 0 32 32" fill="none" xmlns="http://www.w3.org/2000/svg">
<path d="M23.2913 14.8511L22.5298 14.8246L22.2642 13.0802H24.2432V11.7519H22.0605L21.7019 9.38769H18.7931V7.33337H13.7857V9.39212H10.8414L10.4828 11.7564H8.2337V13.0846H10.2792L10.0135 14.829L9.28299 14.8556C8.42408 14.8865 7.75111 15.5816 7.74668 16.4406L7.7334 21.4524H24.8099L24.8277 16.4539C24.8321 15.5861 24.1591 14.8821 23.2913 14.8511ZM15.1139 8.6616H17.4693V9.39212H15.1139V8.6616ZM23.4861 20.1242H9.06605L9.07933 16.445C9.07933 16.3033 9.19002 16.1882 9.33612 16.1838L11.1691 16.1174L11.9837 10.7203H20.5685L21.3876 16.1129L23.2515 16.1794C23.3932 16.1838 23.5083 16.2989 23.5083 16.445L23.4861 20.1242Z" fill="#13334C"/>
<path d="M12.6212 22.8868C12.6212 23.1348 12.422 23.334 12.174 23.334H11.4214C11.1735 23.334 10.9742 23.1304 10.9742 22.8868V22H9.646V22.8868C9.646 23.8653 10.0666 24.6622 11.4214 24.6622H12.1785C13.3999 24.6622 13.9539 23.8653 13.9539 22.8868V22H12.6256V22.8868H12.6212Z" fill="#13334C"/>
<path d="M21.6134 22.8868C21.6134 23.1348 21.4142 23.334 21.1663 23.334H20.4092C20.1612 23.334 19.962 23.1304 19.962 22.8868V22H18.6338V22.8868C18.6338 23.8653 19.0667 24.6622 20.4092 24.6622H21.1663C22.4001 24.6622 22.9417 23.8653 22.9417 22.8868V22H21.6134V22.8868Z" fill="#13334C"/>
<path d="M19.878 14.2578H12.7056V15.3647H19.878V14.2578Z" fill="#13334C"/>
<path d="M12.2404 16.2501C11.3239 16.2501 10.5757 16.9984 10.5757 17.9148C10.5757 18.8313 11.3239 19.5795 12.2404 19.5795C13.1569 19.5795 13.9051 18.8313 13.9051 17.9148C13.9051 16.9984 13.1569 16.2501 12.2404 16.2501ZM12.2404 18.4727C11.9305 18.4727 11.6825 18.2203 11.6825 17.9148C11.6825 17.6093 11.9349 17.357 12.2404 17.357C12.5503 17.357 12.7982 17.6093 12.7982 17.9148C12.7982 18.2203 12.5459 18.4727 12.2404 18.4727Z" fill="#13334C"/>
<path d="M20.3424 16.2501C19.4215 16.2501 18.6777 16.9984 18.6777 17.9148C18.6777 18.8313 19.426 19.5795 20.3424 19.5795C21.2589 19.5795 22.0072 18.8313 22.0072 17.9148C22.0072 16.9984 21.2633 16.2501 20.3424 16.2501ZM20.3424 18.4727C20.0325 18.4727 19.7846 18.2203 19.7846 17.9148C19.7846 17.6093 20.037 17.357 20.3424 17.357C20.6479 17.357 20.9003 17.6093 20.9003 17.9148C20.9003 18.2203 20.6524 18.4727 20.3424 18.4727Z" fill="#13334C"/>
</svg>
