<svg width="32" height="32" viewBox="0 0 32 32" fill="none" xmlns="http://www.w3.org/2000/svg">
<path d="M28.3608 13.0318C28.2691 12.9149 28.1412 12.8319 27.9971 12.796L24.4569 11.9181C24.6922 11.2858 24.8404 10.6245 24.8973 9.95222C24.8059 8.66179 24.2287 7.45397 23.2821 6.57212C22.3354 5.69027 21.0897 5.19995 19.7959 5.19995C18.5021 5.19995 17.2563 5.69027 16.3097 6.57212C15.3631 7.45397 14.7859 8.66179 14.6945 9.95222C14.7663 10.7309 14.9461 11.4958 15.2286 12.225L13.5239 12.7931C12.1203 13.1397 11.8532 13.1369 10.4354 12.7931L4.32964 11.2818C4.2312 11.2572 4.12844 11.2553 4.02918 11.2764C3.92991 11.2974 3.83675 11.3408 3.75677 11.4032C3.67679 11.4657 3.6121 11.5455 3.56761 11.6367C3.52311 11.7279 3.49999 11.828 3.5 11.9295V23.9039C3.49976 24.0462 3.54516 24.1848 3.62955 24.2993C3.71393 24.4139 3.83285 24.4983 3.9688 24.5403L10.1115 26.4437C10.7238 26.6209 11.3555 26.7221 11.9924 26.7448C12.6285 26.7203 13.2592 26.6182 13.8705 26.4409L13.9643 26.4096L18.5102 24.5261C19.5217 24.1937 20.1525 24.1994 21.5503 24.5488L27.659 26.063C27.7584 26.0902 27.8627 26.094 27.9638 26.0742C28.0649 26.0543 28.16 26.0114 28.2417 25.9486C28.3235 25.8859 28.3896 25.8051 28.4349 25.7126C28.4802 25.6201 28.5034 25.5183 28.5028 25.4153V13.4437C28.5031 13.2943 28.4531 13.1492 28.3608 13.0318ZM19.7973 8.20222C20.0855 8.20279 20.367 8.28874 20.6063 8.44922C20.8456 8.6097 21.032 8.83751 21.1419 9.10386C21.2518 9.37021 21.2802 9.66315 21.2237 9.94567C21.1671 10.2282 21.0281 10.4876 20.8241 10.6911C20.6202 10.8947 20.3604 11.0332 20.0778 11.0892C19.7951 11.1452 19.5022 11.1162 19.236 11.0058C18.9699 10.8954 18.7424 10.7086 18.5824 10.469C18.4223 10.2294 18.3369 9.94773 18.3369 9.65961C18.3399 9.27431 18.4951 8.90581 18.7687 8.63441C19.0422 8.36302 19.4119 8.21074 19.7973 8.21075V8.20222ZM21.8885 23.259C20.2377 22.85 19.3512 22.8556 18.0812 23.2732L18.0357 23.2903L13.4898 25.1653C12.1061 25.5062 11.8362 25.5034 10.461 25.1653L4.83538 23.4096V12.7789L10.1144 14.0886C11.7481 14.492 12.2396 14.492 13.8733 14.0886L13.9216 14.0744L15.6889 13.4892C16.7117 16.1454 18.1892 19.2079 18.4364 19.7164C18.5647 19.9677 18.76 20.1786 19.0007 20.3259C19.2413 20.4732 19.518 20.5511 19.8001 20.5511C20.0823 20.5511 20.359 20.4732 20.5996 20.3259C20.8403 20.1786 21.0356 19.9677 21.1639 19.7164C21.4196 19.188 22.9909 15.9011 24.0052 13.1823L27.1646 13.9607V24.5659L21.8885 23.259Z" fill="#13334C"/>
<path d="M15.0438 17.2903C15.0239 17.2903 13.1203 18.4863 11.5888 18.4863C10.0574 18.4863 7.96059 17.2903 7.93786 17.279C7.78634 17.2049 7.61242 17.191 7.45104 17.2399C7.28965 17.2888 7.15276 17.397 7.06785 17.5427C6.98295 17.6884 6.95632 17.8608 6.99332 18.0253C7.03033 18.1898 7.12822 18.3342 7.26733 18.4295C7.36393 18.4863 9.68238 19.8187 11.5888 19.8187C13.4953 19.8187 15.666 18.475 15.7569 18.4182C15.9076 18.3236 16.0146 18.1731 16.0543 17.9996C16.094 17.8262 16.0632 17.6441 15.9686 17.4934C15.874 17.3428 15.7235 17.2358 15.55 17.1961C15.3766 17.1564 15.1945 17.1872 15.0438 17.2818V17.2903Z" fill="#13334C"/>
<path d="M24.1161 17.1312C24.0318 17.1077 23.9437 17.101 23.8568 17.1115C23.7699 17.1221 23.6859 17.1497 23.6096 17.1927C23.5334 17.2357 23.4664 17.2933 23.4124 17.3622C23.3584 17.4311 23.3185 17.5099 23.295 17.5942C23.2715 17.6786 23.2648 17.7667 23.2754 17.8536C23.2859 17.9405 23.3135 18.0244 23.3565 18.1007C23.3995 18.1769 23.4571 18.2439 23.526 18.2979C23.5949 18.3519 23.6738 18.3918 23.7581 18.4153L25.4969 18.8954C25.5832 18.9255 25.6748 18.9376 25.766 18.931C25.8571 18.9243 25.946 18.899 26.0269 18.8566C26.1079 18.8141 26.1793 18.7556 26.2367 18.6844C26.2942 18.6133 26.3364 18.5312 26.3607 18.4431C26.3851 18.355 26.3911 18.2628 26.3784 18.1723C26.3657 18.0818 26.3345 17.9949 26.2868 17.9169C26.2392 17.8389 26.176 17.7715 26.1012 17.719C26.0264 17.6664 25.9416 17.6298 25.8521 17.6113L24.1161 17.1312Z" fill="#13334C"/>
</svg>
