<svg width="48" height="48" viewBox="0 0 48 48" fill="none" xmlns="http://www.w3.org/2000/svg">
<path d="M31.6977 17.5946C31.1418 14.2914 29.4076 11.5 24 11.5C18.5924 11.5 16.8582 14.2914 16.2956 17.5946H12V36.5H36V17.5946H31.6977ZM24 13.4939C27.8125 13.4939 29.1958 14.9427 29.6988 17.5946H18.3012C18.8042 14.9427 20.1809 13.4939 24 13.4939ZM34.0143 34.5061H13.9857V19.5884H16.0838C16.0309 20.5322 16.0309 21.4826 16.0309 22.3931H18.0165C18.0165 21.3763 18.0298 20.4392 18.0761 19.5884H29.9173C29.9636 20.4458 29.9768 21.3763 29.9768 22.3931H31.9625C31.9625 21.4826 31.9625 20.5322 31.9095 19.5884H34.0077V34.5061H34.0143Z" fill="#13334C"/>
</svg>
