<svg width="32" height="32" viewBox="0 0 32 32" fill="none" xmlns="http://www.w3.org/2000/svg">
<path d="M24.0833 11.8639L23.526 12.2788C23.2263 12.5051 22.8488 12.5929 22.4673 12.5332C22.0761 12.4702 21.7228 12.2592 21.4777 11.9379C20.9766 11.2827 21.0793 10.3642 21.7047 9.89468L22.2619 9.47978L19.8112 6.27127L7.8094 15.2521L8.6502 16.351L19.5374 8.20002L20.3674 9.28642C19.5891 10.2646 19.5551 11.7064 20.3684 12.7717C20.8311 13.3807 21.5014 13.7748 22.2506 13.8957C22.7702 13.9754 23.2868 13.9168 23.7592 13.7249L24.5891 14.8113L12.4204 23.9188L11.5905 22.8324C11.907 22.4378 12.1058 21.9604 12.1689 21.4442C12.26 20.6981 12.0522 19.9562 11.5895 19.3472C11.1267 18.7382 10.4564 18.3441 9.70726 18.2232C9.18251 18.1395 8.66178 18.2032 8.19463 18.3991L6.49167 16.2177L5.38804 17.06L7.88323 20.2492L8.43127 19.8355C8.73099 19.6092 9.10846 19.5214 9.48994 19.5811C9.88119 19.6441 10.2344 19.8551 10.4796 20.1764C10.7247 20.4977 10.8337 20.8912 10.7878 21.2804C10.7408 21.6606 10.5523 21.9934 10.2526 22.2196L9.69534 22.6345L12.1513 25.847L26.5438 15.0759L24.0833 11.8639Z" fill="#39393E"/>
<path d="M13.0901 14.527C12.6286 14.4633 12.1756 14.5835 11.8072 14.8597C11.4388 15.1359 11.1982 15.5398 11.1319 15.9917C11.0656 16.4435 11.1864 16.8956 11.4648 17.2591C11.8491 17.7621 12.4671 17.9962 13.0616 17.9234C13.3565 17.8873 13.6425 17.7784 13.8954 17.5902C14.2639 17.314 14.5044 16.9101 14.5707 16.4582C14.637 16.0064 14.5162 15.5543 14.2378 15.1908C13.9543 14.8234 13.5516 14.5907 13.0901 14.527ZM13.4198 16.3033C13.4008 16.4535 13.3185 16.5838 13.199 16.677C12.946 16.8651 12.5893 16.8164 12.3951 16.5674C12.2055 16.3179 12.2553 15.9605 12.5083 15.7723C12.5897 15.7115 12.6877 15.6718 12.7845 15.6599C12.9826 15.6357 13.1838 15.7128 13.3116 15.8774C13.4015 16.0004 13.4389 16.153 13.4198 16.3033Z" fill="#39393E"/>
<path d="M17.7285 16.9269C18.0069 17.2903 18.4147 17.527 18.8716 17.5913C19.0235 17.6097 19.1738 17.6144 19.3259 17.5958C19.6254 17.5591 19.9109 17.4456 20.1592 17.258C20.922 16.6885 21.0755 15.6112 20.5016 14.8586C20.2232 14.4951 19.8154 14.2584 19.3585 14.1942C18.9016 14.1299 18.444 14.2507 18.0755 14.5269C17.7071 14.8031 17.4666 15.207 17.4003 15.6589C17.334 16.1108 17.4456 16.564 17.7285 16.9269ZM18.5419 15.815C18.561 15.6647 18.6432 15.5345 18.7628 15.4412C18.8442 15.3804 18.9376 15.3413 19.039 15.3288C19.0897 15.3226 19.1363 15.3216 19.1887 15.329C19.3406 15.3474 19.4722 15.4284 19.5661 15.5463C19.7557 15.7958 19.7053 16.1487 19.453 16.3414C19.2 16.5295 18.8386 16.4813 18.6491 16.2317C18.5597 16.1133 18.5229 15.9652 18.5419 15.815Z" fill="#39393E"/>
<path d="M16.023 12.1074L14.6772 20.2871L15.8227 20.4682L17.1684 12.2885L16.023 12.1074Z" fill="#39393E"/>
</svg>
