<svg width="32" height="32" viewBox="0 0 32 32" fill="none" xmlns="http://www.w3.org/2000/svg">
<path d="M21.1801 22.9964H19.6294V17.6098H15.8407V22.9964H10.8751V16.4156H9.58643V24.2851H22.4687V16.4156H21.1801V22.9964ZM16.9146 18.6837H18.5512V22.9964H16.9146V18.6837Z" fill="#39393E"/>
<path d="M21.7431 7.69995H16.0301H15.9699H10.2569L7.25 13.1639V13.3314C7.25 14.7017 8.44845 15.8185 9.91753 15.8185C10.7251 15.8185 11.451 15.4792 11.9407 14.9465C12.4304 15.4792 13.1564 15.8185 13.9639 15.8185C14.7715 15.8185 15.4974 15.4792 15.9871 14.9465C16.4768 15.4792 17.2027 15.8185 18.0103 15.8185C18.8265 15.8185 19.5567 15.4749 20.0464 14.9379C20.5361 15.4749 21.2663 15.8185 22.0825 15.8185C23.5558 15.8185 24.75 14.7017 24.75 13.3314V13.1639L21.7431 7.69995ZM22.0825 14.5298C21.3222 14.5298 20.7036 13.9929 20.7036 13.3314H20.6821H19.4149H19.3935C19.3935 13.9929 18.7749 14.5298 18.0146 14.5298C17.2543 14.5298 16.6357 13.9929 16.6357 13.3314H15.3471C15.3471 13.9929 14.7285 14.5298 13.9682 14.5298C13.2079 14.5298 12.5893 13.9929 12.5893 13.3314H11.3007C11.3007 13.9929 10.6821 14.5298 9.92182 14.5298C9.21735 14.5298 8.63746 14.0702 8.55155 13.4774L11.0172 8.98861H15.9699H16.0301H20.9828L23.4527 13.4774C23.3668 14.0702 22.7869 14.5298 22.0825 14.5298Z" fill="#39393E"/>
<path d="M14.9905 18.9629C14.9905 18.0737 14.2645 17.3478 13.3754 17.3478C12.4862 17.3478 11.7603 18.0737 11.7603 18.9629C11.7603 19.8521 12.4862 20.578 13.3754 20.578C14.2645 20.578 14.9905 19.8564 14.9905 18.9629ZM12.8298 18.9629C12.8298 18.6622 13.0747 18.4217 13.3711 18.4217C13.6675 18.4217 13.9123 18.6665 13.9123 18.9629C13.9123 19.2593 13.6675 19.5041 13.3711 19.5041C13.0747 19.5041 12.8298 19.2636 12.8298 18.9629Z" fill="#39393E"/>
</svg>
