<svg width="48" height="48" viewBox="0 0 48 48" fill="none" xmlns="http://www.w3.org/2000/svg">
<rect x="1.5" y="1.5" width="45" height="45" rx="13.5" fill="#F6AF00" stroke="#F6AF00" stroke-width="3"/>
<path d="M31.8382 34.9798H29.4072V26.5354H23.4678V34.9798H15.6833V24.6633H13.6631V37H33.8584V24.6633H31.8382V34.9798ZM25.1513 28.2189H27.717V34.9798H25.1513V28.2189Z" fill="white"/>
<path d="M32.7205 11H23.7643H23.67H14.7138L10 19.5657V19.8283C10 21.9764 11.8788 23.7273 14.1818 23.7273C15.4478 23.7273 16.5859 23.1953 17.3535 22.3603C18.1212 23.1953 19.2593 23.7273 20.5253 23.7273C21.7912 23.7273 22.9293 23.1953 23.697 22.3603C24.4646 23.1953 25.6027 23.7273 26.8687 23.7273C28.1481 23.7273 29.2929 23.1886 30.0606 22.3468C30.8283 23.1886 31.9731 23.7273 33.2525 23.7273C35.5623 23.7273 37.4343 21.9764 37.4343 19.8283V19.5657L32.7205 11ZM33.2525 21.7071C32.0606 21.7071 31.0909 20.8653 31.0909 19.8283H31.0572H29.0707H29.037C29.037 20.8653 28.0673 21.7071 26.8754 21.7071C25.6835 21.7071 24.7138 20.8653 24.7138 19.8283H22.6936C22.6936 20.8653 21.7239 21.7071 20.532 21.7071C19.3401 21.7071 18.3704 20.8653 18.3704 19.8283H16.3502C16.3502 20.8653 15.3805 21.7071 14.1886 21.7071C13.0842 21.7071 12.1751 20.9865 12.0404 20.0572L15.9057 13.0202H23.67H23.7643H31.5286L35.4007 20.0572C35.266 20.9865 34.3569 21.7071 33.2525 21.7071Z" fill="white"/>
<path d="M22.1348 28.6566C22.1348 27.2627 20.9967 26.1246 19.6028 26.1246C18.2088 26.1246 17.0708 27.2627 17.0708 28.6566C17.0708 30.0506 18.2088 31.1886 19.6028 31.1886C20.9967 31.1886 22.1348 30.0573 22.1348 28.6566ZM18.7476 28.6566C18.7476 28.1852 19.1314 27.8081 19.5961 27.8081C20.0607 27.8081 20.4445 28.192 20.4445 28.6566C20.4445 29.1213 20.0607 29.5051 19.5961 29.5051C19.1314 29.5051 18.7476 29.128 18.7476 28.6566Z" fill="white"/>
</svg>
