<svg width="32" height="32" viewBox="0 0 32 32" fill="none" xmlns="http://www.w3.org/2000/svg">
<path d="M11.6862 16.8845H9.97998V18.6269H11.6942L11.6862 16.8845Z" fill="#39393E"/>
<path d="M11.6996 20.3693H9.97998V21.2363C9.97998 21.4685 10.0706 21.6911 10.2318 21.8553C10.3931 22.0195 10.6118 22.1117 10.8398 22.1117H15.1228V20.3693H13.4193V18.6268H11.7078L11.6996 20.3693Z" fill="#39393E"/>
<path d="M16.8403 13.4079H18.5514V11.6655H16.8403V9.91479H15.1293V11.6655H13.4183V13.4079H15.1293V15.1586H13.4183V13.4079H11.7072V11.6655H13.4183V9.91479H10.8396C10.613 9.91478 10.3956 10.0059 10.2346 10.1682C10.0736 10.3306 9.98212 10.5511 9.97998 10.7819V15.1421H11.7072V16.8845H13.4183V18.6269H15.1293V16.901H16.8403V13.4079Z" fill="#39393E"/>
<path d="M18.5517 16.8845H16.8374V18.6269H18.5517V16.8845Z" fill="#39393E"/>
<path d="M20.266 15.142H18.5518V16.8844H20.266V15.142Z" fill="#39393E"/>
<path d="M18.5463 18.6242V20.3639H16.8374V22.1118H20.2633V20.3639H21.9802V16.8845H20.2633V18.6242H18.5463Z" fill="#39393E"/>
<path d="M21.1191 9.91483H18.5518V11.66H20.266V15.1421H21.9803V10.7792C21.9803 10.665 21.958 10.5519 21.9146 10.4465C21.8712 10.3411 21.8077 10.2454 21.7276 10.1651C21.6475 10.0847 21.5525 10.0212 21.4481 9.97824C21.3436 9.93529 21.2318 9.91375 21.1191 9.91483Z" fill="#39393E"/>
<path d="M22.6231 25.5967H9.33706C7.48611 25.5967 5.97998 24.0959 5.97998 22.2508V9.77542C5.97998 7.93091 7.48611 6.43005 9.33706 6.43005H22.6231C24.4741 6.43005 25.98 7.93091 25.98 9.77542V22.2508C25.98 24.0959 24.4741 25.5967 22.6231 25.5967ZM9.33706 7.95672C8.85321 7.95726 8.38932 8.14903 8.04715 8.48997C7.70498 8.83092 7.51245 9.2932 7.51181 9.77542V22.2508C7.51235 22.7331 7.70481 23.1955 8.04699 23.5365C8.38917 23.8776 8.85312 24.0695 9.33706 24.0701H22.6231C23.107 24.0695 23.571 23.8776 23.9131 23.5365C24.2552 23.1954 24.4477 22.733 24.4482 22.2508V9.77542C24.4476 9.29322 24.2551 8.83093 23.9129 8.48998C23.5708 8.14903 23.1069 7.95726 22.6231 7.95672H9.33706Z" fill="#39393E"/>
</svg>
