<svg width="48" height="48" viewBox="0 0 48 48" fill="none" xmlns="http://www.w3.org/2000/svg">
<path d="M25.4649 14.245H22.5649V16.2358H25.4649V14.245Z" fill="#13334C"/>
<path d="M20.0499 30.6891C21.4102 30.6891 22.5118 29.5809 22.5118 28.2271C22.5118 26.8734 21.4036 25.7651 20.0499 25.7651C18.6895 25.7651 17.5879 26.8734 17.5879 28.2271C17.5879 29.5809 18.6895 30.6891 20.0499 30.6891ZM20.0499 27.4241C20.4945 27.4241 20.8528 27.7825 20.8528 28.2271C20.8528 28.6717 20.4945 29.0301 20.0499 29.0301C19.6052 29.0301 19.2469 28.6717 19.2469 28.2271C19.2469 27.7825 19.6052 27.4241 20.0499 27.4241Z" fill="#13334C"/>
<path d="M28.1192 30.6891C29.4796 30.6891 30.5812 29.5809 30.5812 28.2271C30.5812 26.8734 29.4729 25.7651 28.1192 25.7651C26.7588 25.7651 25.6572 26.8734 25.6572 28.2271C25.6572 29.5809 26.7588 30.6891 28.1192 30.6891ZM28.1192 27.4241C28.5638 27.4241 28.9222 27.7825 28.9222 28.2271C28.9222 28.6717 28.5638 29.0301 28.1192 29.0301C27.6746 29.0301 27.3162 28.6717 27.3162 28.2271C27.3162 27.7825 27.6746 27.4241 28.1192 27.4241Z" fill="#13334C"/>
<path d="M32.4061 32.8724C33.3484 31.9898 33.8262 30.6095 33.8262 28.7315V14.099L33.3617 13.807C33.1825 13.6942 28.9023 11 23.9584 11C19.0146 11 14.8405 13.6942 14.6614 13.8137L14.2167 14.1057V28.7315C14.2167 30.5299 14.7343 31.9168 15.6899 32.8193L10.6001 37H13.7323L17.5679 33.8479C18.0457 33.974 18.57 34.0403 19.1407 34.0403H28.889C29.4664 34.0403 29.9972 33.9806 30.475 33.8678L34.2908 37.0066H37.423L32.4061 32.8724ZM31.8288 28.7315C31.8288 31.147 31.0325 32.0429 28.889 32.0429H19.1407C17.7737 32.0429 16.2009 31.6646 16.2009 28.7315V24.4778H31.8288V28.7315ZM31.8288 22.487H16.2076V19.2619H31.8354V22.487H31.8288ZM31.8288 17.2711H16.2076V15.2072C17.3423 14.5702 20.4878 12.9908 23.9584 12.9908C27.4357 12.9908 30.6608 14.5768 31.8288 15.2205V17.2711Z" fill="#13334C"/>
</svg>
