<svg width="48" height="48" viewBox="0 0 48 48" fill="none" xmlns="http://www.w3.org/2000/svg">
<rect x="1.5" y="1.5" width="45" height="45" rx="13.5" fill="#F4246A" stroke="#F4246A" stroke-width="3"/>
<path d="M22.3874 11L20.3697 11.1754C20.3765 11.2497 20.9973 18.4025 21.112 20.7643C21.166 21.871 20.9501 22.6808 20.4709 23.1869C19.9918 23.6862 19.1821 23.9426 18.0822 23.9629V11.0877H16.0578V23.9629C14.9511 23.9426 14.1413 23.6862 13.669 23.1869C13.1899 22.6875 12.9739 21.871 13.0279 20.7643C13.1426 18.4025 13.7702 11.2429 13.7702 11.1754L11.7593 11C11.7323 11.2969 11.125 18.2608 11.0103 20.6699C10.9293 22.3501 11.3274 23.666 12.2047 24.5904C13.0751 25.5014 14.3708 25.9738 16.0578 25.994V36H18.0822V25.994C19.7692 25.9738 21.0648 25.5014 21.942 24.5837C22.8192 23.666 23.2174 22.3434 23.1364 20.6631C23.0149 18.2608 22.4144 11.2969 22.3874 11Z" fill="white"/>
<path d="M33.7985 11C27.6376 11 26.4702 13.625 26.4702 18.4633V27.1412H31.2208V25.1168H28.4946V18.4633C28.4946 14.7384 28.94 13.1391 33.2924 13.0311V36H35.3168V11H33.7985Z" fill="white"/>
</svg>
