<svg width="48" height="48" viewBox="0 0 48 48" fill="none" xmlns="http://www.w3.org/2000/svg">
<rect x="1.5" y="1.5" width="45" height="45" rx="13.5" fill="#52CC7A" stroke="#52CC7A" stroke-width="3"/>
<path d="M21.2992 18.672L19.5088 17.8099L14.7942 27.637L22.4065 32.0599L20.9809 36.9999L23.0564 36.9867L24.7473 31.1249L17.3869 26.8413L21.2992 18.672Z" fill="white"/>
<path d="M16.4545 30.2781L11.0122 35.5723L12.3993 36.9982L17.8416 31.704L16.4545 30.2781Z" fill="white"/>
<path d="M14.6815 24.3083L12.6524 23.3402L16.3591 15.5754L18.3882 16.5435L19.2436 14.7531L15.4175 12.923L10 24.2752L13.8261 26.1053L14.6815 24.3083Z" fill="white"/>
<path d="M23.6928 15.9644C25.0853 15.9644 26.2192 14.8305 26.2192 13.438C26.2192 12.0455 25.0853 10.9116 23.6928 10.9116C22.3003 10.9116 21.1664 12.0455 21.1664 13.438C21.1664 14.8305 22.3003 15.9644 23.6928 15.9644ZM23.6928 12.5694C24.1703 12.5694 24.5615 12.9606 24.5615 13.438C24.5615 13.9154 24.1703 14.3067 23.6928 14.3067C23.2154 14.3067 22.8242 13.9154 22.8242 13.438C22.8242 12.9606 23.2154 12.5694 23.6928 12.5694Z" fill="white"/>
<path d="M29.2895 31.7482V21.8349H27.3002V22.8959H25.2181L26.352 20.4689C27.1742 18.42 25.9475 17.7237 25.0987 17.3126L24.0577 16.8219L23.2089 18.6189L24.2367 19.103C24.6213 19.2886 24.6478 19.461 24.3295 20.1307L21.4849 26.1782L23.2819 27.0269L24.2765 24.8851H27.287V33.7375H38.6856V31.7482H29.2895Z" fill="white"/>
<path d="M37 28H31V30H37V28Z" fill="white"/>
<path d="M31.7032 34.394H29.7139V36.9867H31.7032V34.394Z" fill="white"/>
<path d="M36.7891 34.394H34.7998V36.9867H36.7891V34.394Z" fill="white"/>
</svg>
