<svg width="48" height="48" viewBox="0 0 48 48" fill="none" xmlns="http://www.w3.org/2000/svg">
<rect x="1.5" y="1.5" width="45" height="45" rx="13.5" fill="#E473FF" stroke="#E473FF" stroke-width="3"/>
<g clip-path="url(#clip0)">
<path d="M35.8803 17.159L35.0668 17.7647C34.6293 18.095 34.0783 18.2231 33.5214 18.1361C32.9502 18.0441 32.4345 17.736 32.0767 17.267C31.3451 16.3106 31.495 14.9696 32.408 14.2843L33.2215 13.6786L29.6438 8.99473L12.1234 22.1051L13.3508 23.7093L29.2442 11.8104L30.4558 13.3963C29.3196 14.8243 29.27 16.929 30.4572 18.4842C31.1328 19.3732 32.1113 19.9485 33.2049 20.125C33.9634 20.2414 34.7177 20.1558 35.4072 19.8757L36.6187 21.4617L18.8546 34.757L17.6431 33.1711C18.1051 32.5949 18.3954 31.8981 18.4875 31.1445C18.6205 30.0553 18.3172 28.9722 17.6416 28.0832C16.9661 27.1942 15.9875 26.6189 14.8939 26.4424C14.1279 26.3202 13.3677 26.4132 12.6858 26.6992L10.1997 23.5147L8.58863 24.7444L12.2312 29.4001L13.0312 28.796C13.4687 28.4658 14.0198 28.3376 14.5767 28.4246C15.1478 28.5167 15.6635 28.8247 16.0214 29.2938C16.3792 29.7628 16.5383 30.3372 16.4713 30.9055C16.4027 31.4604 16.1276 31.9462 15.69 32.2765L14.8765 32.8822L18.4617 37.5718L39.4723 21.8479L35.8803 17.159Z" fill="white"/>
<path d="M19.8324 21.0467C19.1587 20.9537 18.4973 21.1292 17.9595 21.5324C17.4216 21.9356 17.0705 22.5252 16.9737 23.1849C16.8769 23.8445 17.0533 24.5045 17.4596 25.0351C18.0207 25.7695 18.9228 26.1111 19.7906 26.0049C20.2212 25.9522 20.6387 25.7931 21.0079 25.5185C21.5458 25.1152 21.897 24.5257 21.9937 23.866C22.0905 23.2063 21.9141 22.5464 21.5078 22.0158C21.0939 21.4794 20.5061 21.1397 19.8324 21.0467ZM20.3137 23.6398C20.2859 23.8591 20.1658 24.0493 19.9912 24.1854C19.622 24.46 19.1012 24.3888 18.8177 24.0253C18.541 23.6611 18.6137 23.1393 18.9829 22.8647C19.1018 22.7759 19.2449 22.7179 19.3862 22.7006C19.6754 22.6652 19.9691 22.7777 20.1556 23.0181C20.2869 23.1977 20.3414 23.4204 20.3137 23.6398Z" fill="white"/>
<path d="M26.6044 24.5499C27.0107 25.0805 27.6061 25.426 28.2731 25.5198C28.4949 25.5467 28.7142 25.5536 28.9362 25.5264C29.3735 25.4729 29.7902 25.3071 30.1527 25.0333C31.2663 24.2019 31.4903 22.6292 30.6525 21.5306C30.2462 21 29.6508 20.6545 28.9838 20.5607C28.3169 20.4669 27.6488 20.6432 27.111 21.0464C26.5731 21.4496 26.2219 22.0392 26.1252 22.6989C26.0284 23.3586 26.1913 24.0202 26.6044 24.5499ZM27.7918 22.9268C27.8196 22.7074 27.9397 22.5173 28.1142 22.3812C28.2331 22.2924 28.3694 22.2352 28.5174 22.2171C28.5914 22.208 28.6595 22.2065 28.736 22.2173C28.9578 22.2442 29.1497 22.3624 29.2869 22.5345C29.5636 22.8988 29.4901 23.4139 29.1217 23.6952C28.7525 23.9698 28.2249 23.8994 27.9482 23.5352C27.8178 23.3622 27.764 23.1461 27.7918 22.9268Z" fill="white"/>
<path d="M24.1147 17.5146L22.1501 29.4554L23.8223 29.7198L25.7868 17.7789L24.1147 17.5146Z" fill="white"/>
</g>
<defs>
<clipPath id="clip0">
<rect x="7" y="11.7666" width="31" height="27" transform="rotate(-6.97895 7 11.7666)" fill="white"/>
</clipPath>
</defs>
</svg>
