<svg width="48" height="48" viewBox="0 0 48 48" fill="none" xmlns="http://www.w3.org/2000/svg">
<path d="M34.937 22.2766L33.7947 22.2368L33.3963 19.6202H36.3648V17.6278H33.0908L32.5528 14.0815H28.1896V11H20.6785V14.0881H16.2622L15.7242 17.6345H12.3505V19.6268H15.4187L15.0203 22.2434L13.9245 22.2833C12.6361 22.3298 11.6267 23.3724 11.62 24.6608L11.6001 32.1785H37.2149L37.2415 24.6807C37.2481 23.3791 36.2387 22.3231 34.937 22.2766ZM22.6709 12.9923H26.2039V14.0881H22.6709V12.9923ZM35.2292 30.1862H13.5991L13.619 24.6674C13.619 24.4549 13.785 24.2822 14.0042 24.2756L16.7536 24.176L17.9756 16.0805H30.8527L32.0813 24.1693L34.8772 24.269C35.0898 24.2756 35.2624 24.4483 35.2624 24.6674L35.2292 30.1862Z" fill="#13334C"/>
<path d="M18.9321 34.3303C18.9321 34.7022 18.6332 35.001 18.2613 35.001H17.1323C16.7604 35.001 16.4616 34.6955 16.4616 34.3303V33H14.4692V34.3303C14.4692 35.798 15.1001 36.9934 17.1323 36.9934H18.268C20.1001 36.9934 20.9311 35.798 20.9311 34.3303V33H18.9387V34.3303H18.9321Z" fill="#13334C"/>
<path d="M32.4202 34.3303C32.4202 34.7022 32.1213 35.001 31.7494 35.001H30.6138C30.2419 35.001 29.943 34.6955 29.943 34.3303V33H27.9507V34.3303C27.9507 35.798 28.6001 36.9934 30.6138 36.9934H31.7494C33.6001 36.9934 34.4125 35.798 34.4125 34.3303V33H32.4202V34.3303Z" fill="#13334C"/>
<path d="M29.8167 21.3867H19.0581V23.047H29.8167V21.3867Z" fill="#13334C"/>
<path d="M18.3608 24.3752C16.9861 24.3752 15.8638 25.4976 15.8638 26.8723C15.8638 28.247 16.9861 29.3694 18.3608 29.3694C19.7355 29.3694 20.8579 28.247 20.8579 26.8723C20.8579 25.4976 19.7355 24.3752 18.3608 24.3752ZM18.3608 27.7091C17.896 27.7091 17.5241 27.3305 17.5241 26.8723C17.5241 26.4141 17.9026 26.0355 18.3608 26.0355C18.8257 26.0355 19.1976 26.4141 19.1976 26.8723C19.1976 27.3305 18.8191 27.7091 18.3608 27.7091Z" fill="#13334C"/>
<path d="M30.5142 24.3752C29.1328 24.3752 28.0171 25.4976 28.0171 26.8723C28.0171 28.247 29.1394 29.3694 30.5142 29.3694C31.8889 29.3694 33.0112 28.247 33.0112 26.8723C33.0112 25.4976 31.8955 24.3752 30.5142 24.3752ZM30.5142 27.7091C30.0493 27.7091 29.6774 27.3305 29.6774 26.8723C29.6774 26.4141 30.0559 26.0355 30.5142 26.0355C30.9724 26.0355 31.3509 26.4141 31.3509 26.8723C31.3509 27.3305 30.979 27.7091 30.5142 27.7091Z" fill="#13334C"/>
</svg>
