<svg width="32" height="32" viewBox="0 0 32 32" fill="none" xmlns="http://www.w3.org/2000/svg">
<path d="M16.9763 9.4967H15.043V10.8239H16.9763V9.4967Z" fill="#13334C"/>
<path d="M13.3664 20.4594C14.2733 20.4594 15.0077 19.7206 15.0077 18.8181C15.0077 17.9156 14.2689 17.1768 13.3664 17.1768C12.4595 17.1768 11.7251 17.9156 11.7251 18.8181C11.7251 19.7206 12.4595 20.4594 13.3664 20.4594ZM13.3664 18.2828C13.6628 18.2828 13.9017 18.5217 13.9017 18.8181C13.9017 19.1145 13.6628 19.3534 13.3664 19.3534C13.07 19.3534 12.8311 19.1145 12.8311 18.8181C12.8311 18.5217 13.07 18.2828 13.3664 18.2828Z" fill="#13334C"/>
<path d="M18.7463 20.4594C19.6532 20.4594 20.3876 19.7206 20.3876 18.8181C20.3876 17.9156 19.6488 17.1768 18.7463 17.1768C17.8394 17.1768 17.105 17.9156 17.105 18.8181C17.105 19.7206 17.8394 20.4594 18.7463 20.4594ZM18.7463 18.2828C19.0427 18.2828 19.2816 18.5217 19.2816 18.8181C19.2816 19.1145 19.0427 19.3534 18.7463 19.3534C18.4499 19.3534 18.211 19.1145 18.211 18.8181C18.211 18.5217 18.4499 18.2828 18.7463 18.2828Z" fill="#13334C"/>
<path d="M21.6038 21.915C22.232 21.3266 22.5505 20.4064 22.5505 19.1544V9.39939L22.2408 9.20474C22.1214 9.12953 19.2679 7.33337 15.972 7.33337C12.6761 7.33337 9.89336 9.12953 9.77391 9.20916L9.4775 9.40382V19.1544C9.4775 20.3533 9.82257 21.2779 10.4596 21.8796L7.06641 24.6667H9.15455L11.7116 22.5653C12.0302 22.6494 12.3797 22.6936 12.7601 22.6936H19.259C19.6439 22.6936 19.9978 22.6538 20.3164 22.5786L22.8602 24.6711H24.9483L21.6038 21.915ZM21.2189 19.1544C21.2189 20.7647 20.688 21.362 19.259 21.362H12.7601C11.8488 21.362 10.8003 21.1098 10.8003 19.1544V16.3186H21.2189V19.1544ZM21.2189 14.9914H10.8047V12.8413H21.2233V14.9914H21.2189ZM21.2189 11.5141H10.8047V10.1382C11.5612 9.7135 13.6582 8.66058 15.972 8.66058C18.2902 8.66058 20.4402 9.71792 21.2189 10.1471V11.5141Z" fill="#13334C"/>
</svg>
