<svg width="32" height="32" viewBox="0 0 32 32" fill="none" xmlns="http://www.w3.org/2000/svg">
<path d="M21.1318 11.7297C20.7612 9.52757 19.6051 7.66663 16 7.66663C12.3949 7.66663 11.2388 9.52757 10.8638 11.7297H8V24.3333H24V11.7297H21.1318ZM16 8.99587C18.5416 8.99587 19.4639 9.96179 19.7992 11.7297H12.2008C12.5361 9.96179 13.4539 8.99587 16 8.99587ZM22.6762 23.0041H9.32377V13.0589H10.7226C10.6873 13.6881 10.6873 14.3217 10.6873 14.9287H12.011C12.011 14.2508 12.0199 13.6261 12.0507 13.0589H19.9448C19.9757 13.6305 19.9846 14.2508 19.9846 14.9287H21.3083C21.3083 14.3217 21.3083 13.6881 21.273 13.0589H22.6718V23.0041H22.6762Z" fill="#13334C"/>
</svg>
