<svg width="32" height="32" viewBox="0 0 32 32" fill="none" xmlns="http://www.w3.org/2000/svg">
<path d="M15.4712 7.25L14.0588 7.37281C14.0635 7.42477 14.4981 12.4318 14.5784 14.085C14.6162 14.8597 14.465 15.4265 14.1297 15.7808C13.7943 16.1304 13.2275 16.3098 12.4575 16.324V7.31141H11.0404V16.324C10.2658 16.3098 9.69893 16.1304 9.36828 15.7808C9.03291 15.4313 8.88175 14.8597 8.91954 14.085C8.99984 12.4318 9.43913 7.42005 9.43913 7.37281L8.0315 7.25C8.01261 7.45784 7.58749 12.3326 7.50719 14.0189C7.4505 15.1951 7.72919 16.1162 8.34326 16.7633C8.9526 17.401 9.85953 17.7316 11.0404 17.7458V24.75H12.4575V17.7458C13.6384 17.7316 14.5453 17.401 15.1594 16.7586C15.7735 16.1162 16.0522 15.1904 15.9955 14.0142C15.9105 12.3326 15.4901 7.45784 15.4712 7.25Z" fill="#39393E"/>
<path d="M23.4589 7.25C19.1463 7.25 18.3291 9.08748 18.3291 12.4743V18.5488H21.6545V17.1318H19.7462V12.4743C19.7462 9.86687 20.0579 8.74738 23.1047 8.6718V24.75H24.5217V7.25H23.4589Z" fill="#39393E"/>
</svg>
