<svg width="48" height="48" viewBox="0 0 48 48" fill="none" xmlns="http://www.w3.org/2000/svg">
<rect x="1.5" y="1.5" width="45" height="45" rx="13.5" fill="#4A90E2" stroke="#4A90E2" stroke-width="3"/>
<path d="M36.8615 34.0243H11V36H36.8615V34.0243Z" fill="white"/>
<path d="M20.6018 20.1421C27.9249 20.1421 35.0505 31.5219 35.1229 31.6405L36.8023 30.5999C36.6442 30.3431 34.6817 27.2018 31.6919 24.1395C33.1143 22.8751 34.8398 22.1441 36.8615 21.9728V19.9972C36.5454 20.0235 36.2359 20.0564 35.933 20.1025C35.5708 17.6395 33.1341 15.7231 30.1903 15.7231C27.6747 15.7231 25.5278 17.1193 24.7309 19.0686C23.4006 18.5023 22.0111 18.1664 20.5952 18.1664C16.1763 18.1664 12.574 22.3614 11 24.5412V28.0645C11 28.0645 15.544 20.1421 20.6018 20.1421ZM30.1903 17.7054C32.2253 17.7054 33.8914 18.983 34.0034 20.5767C32.6138 21.0443 31.356 21.7819 30.2694 22.7697C29.1169 21.7226 27.8525 20.7479 26.509 19.9643C26.9371 18.6669 28.4254 17.7054 30.1903 17.7054Z" fill="white"/>
<path d="M32.2363 15.0056L32.8977 10.6364L30.9443 10.3407L30.2828 14.7098C30.6078 14.7191 30.9373 14.7423 31.2694 14.7926C31.6015 14.8429 31.9231 14.9182 32.2363 15.0056Z" fill="white"/>
<path d="M29.0543 14.7704L27.5785 10.2642L25.7004 10.879L27.1454 15.2807C27.7492 15.0324 28.3886 14.8561 29.0543 14.7704Z" fill="white"/>
<path d="M26.0129 15.855L22.4675 12.9204L21.2049 14.441L24.4598 17.1385C24.9148 16.6412 25.439 16.2144 26.0129 15.855Z" fill="white"/>
<path d="M37.6932 12.7478L36.0812 11.6045L33.3725 15.4173C33.9831 15.6962 34.5417 16.0539 35.0524 16.4642L37.6932 12.7478Z" fill="white"/>
</svg>
