<svg width="32" height="32" viewBox="0 0 32 32" fill="none" xmlns="http://www.w3.org/2000/svg">
<path d="M24.1207 23.6721H7.25V24.9609H24.1207V23.6721Z" fill="#39393E"/>
<path d="M13.5137 14.6162C18.2909 14.6162 22.9393 22.0398 22.9865 22.1171L24.082 21.4383C23.9789 21.2708 22.6987 19.2216 20.7483 17.2239C21.6762 16.3991 22.8018 15.9222 24.1207 15.8105V14.5217C23.9145 14.5389 23.7125 14.5603 23.5149 14.5904C23.2786 12.9837 21.6891 11.7335 19.7688 11.7335C18.1277 11.7335 16.7271 12.6443 16.2073 13.9159C15.3395 13.5465 14.433 13.3274 13.5094 13.3274C10.6267 13.3274 8.27676 16.064 7.25 17.486V19.7844C7.25 19.7844 10.2143 14.6162 13.5137 14.6162ZM19.7688 13.0266C21.0962 13.0266 22.1831 13.8601 22.2562 14.8997C21.3497 15.2047 20.5292 15.6859 19.8203 16.3303C19.0685 15.6472 18.2436 15.0114 17.3672 14.5002C17.6465 13.6539 18.6174 13.0266 19.7688 13.0266Z" fill="#39393E"/>
<path d="M21.1035 11.2654L21.535 8.41522L20.2607 8.22229L19.8292 11.0725C20.0412 11.0785 20.2562 11.0937 20.4728 11.1265C20.6894 11.1593 20.8992 11.2084 21.1035 11.2654Z" fill="#39393E"/>
<path d="M19.0279 11.112L18.0651 8.17235L16.8399 8.57343L17.7826 11.4448C18.1764 11.2829 18.5936 11.1679 19.0279 11.112Z" fill="#39393E"/>
<path d="M17.0435 11.8195L14.7307 9.9051L13.907 10.8971L16.0303 12.6568C16.3271 12.3324 16.6691 12.0539 17.0435 11.8195Z" fill="#39393E"/>
<path d="M24.6632 9.79252L23.6117 9.04674L21.8447 11.534C22.243 11.7159 22.6074 11.9492 22.9405 12.2169L24.6632 9.79252Z" fill="#39393E"/>
</svg>
