<svg width="32" height="32" viewBox="0 0 32 32" fill="none" xmlns="http://www.w3.org/2000/svg">
<path d="M20.8194 18.4858L22.3101 19.7931H18.9472L14.2148 10.9211H9.79226L11.2829 9.61383L10.3715 8.66663L7.06689 11.564L10.3715 14.4613L11.2829 13.5141L9.79226 12.2069H13.3887L18.121 21.0789H22.3101L20.8194 22.3861L21.7309 23.3333L25.0355 20.436L21.7309 17.5386L20.8194 18.4858Z" fill="#13334C"/>
<path d="M13.1821 19.7931H9.81912L11.3143 18.4858L10.4028 17.5386L7.09375 20.436L10.4028 23.3333L11.3143 22.3861L9.81912 21.0789H14.0082L15.3911 18.4901L14.5829 17.17L13.1821 19.7931Z" fill="#13334C"/>
<path d="M18.7448 12.2069H22.3412L20.8461 13.5141L21.7575 14.4613L25.0666 11.564L21.7575 8.66663L20.8461 9.61383L22.3412 10.9211H17.9187L16.8276 12.9698L17.5685 14.4056L18.7448 12.2069Z" fill="#13334C"/>
</svg>
