<svg width="32" height="32" viewBox="0 0 32 32" fill="none" xmlns="http://www.w3.org/2000/svg">
<path d="M19.9561 7.49875H18.0308V6.84775C18.0308 6.33118 17.8293 5.83577 17.4707 5.4705C17.1121 5.10523 16.6256 4.90002 16.1185 4.90002C15.6113 4.90002 15.1249 5.10523 14.7662 5.4705C14.4076 5.83577 14.2061 6.33118 14.2061 6.84775V7.49875H12.2938C12.125 7.49875 11.9631 7.56706 11.8437 7.68865C11.7243 7.81024 11.6572 7.97516 11.6572 8.14711V15.9828C11.6572 16.1548 11.7243 16.3197 11.8437 16.4413C11.9631 16.5629 12.125 16.6312 12.2938 16.6312H19.9561C20.1249 16.6312 20.2868 16.5629 20.4062 16.4413C20.5256 16.3197 20.5926 16.1548 20.5926 15.9828V8.14711C20.5926 7.97516 20.5256 7.81024 20.4062 7.68865C20.2868 7.56706 20.1249 7.49875 19.9561 7.49875ZM16.768 7.49875H15.4819V6.84775C15.4819 6.67544 15.5491 6.5102 15.6687 6.38836C15.7883 6.26652 15.9506 6.19807 16.1198 6.19807C16.2889 6.19807 16.4512 6.26652 16.5708 6.38836C16.6904 6.5102 16.7576 6.67544 16.7576 6.84775L16.768 7.49875Z" fill="url(#paint0_radial)"/>
<path d="M25.4062 15.6455C25.3503 15.552 25.2721 15.4745 25.1789 15.4201C25.0857 15.3658 24.9805 15.3363 24.8731 15.3345C24.322 15.3342 23.7813 15.4876 23.3097 15.778C22.838 16.0683 22.4534 16.4846 22.1974 16.9817L20.2307 20.7823C20.0703 21.0995 19.8273 21.3656 19.5284 21.5515C19.2295 21.7374 18.8861 21.836 18.5358 21.8366H14.2065C14.0373 21.8366 13.8751 21.7681 13.7555 21.6463C13.6358 21.5244 13.5686 21.3592 13.5686 21.1869C13.5686 21.0146 13.6358 20.8493 13.7555 20.7275C13.8751 20.6056 14.0373 20.5372 14.2065 20.5372H18.5358C18.6527 20.5374 18.7675 20.5048 18.8675 20.443C18.9675 20.3812 19.0488 20.2925 19.1025 20.1867L19.8322 18.7661C19.8761 18.6798 19.8976 18.5836 19.8944 18.4865C19.8913 18.3895 19.8637 18.2949 19.8144 18.2118C19.765 18.1287 19.6955 18.0599 19.6125 18.012C19.5296 17.9642 19.4359 17.9389 19.3406 17.9385H12.7108C12.292 17.9374 11.8772 18.021 11.4903 18.1843C11.1034 18.3476 10.7522 18.5874 10.4569 18.8899L6.68658 22.7221C6.62743 22.7823 6.58051 22.8538 6.54849 22.9325C6.51648 23.0112 6.5 23.0955 6.5 23.1807C6.5 23.2659 6.51648 23.3502 6.54849 23.4289C6.58051 23.5076 6.62743 23.5791 6.68658 23.6393L9.86431 26.8759C9.92343 26.9361 9.99362 26.9839 10.0709 27.0165C10.1481 27.0491 10.2309 27.0659 10.3146 27.0659C10.3982 27.0659 10.481 27.0491 10.5583 27.0165C10.6355 26.9839 10.7057 26.9361 10.7648 26.8759L13.1844 24.4247H18.5358C19.3505 24.426 20.15 24.1996 20.8472 23.7703C21.5444 23.3409 22.1125 22.7249 22.4898 21.9894L25.4269 16.2859C25.4782 16.1865 25.5033 16.0752 25.4997 15.9629C25.496 15.8506 25.4638 15.7413 25.4062 15.6455Z" fill="url(#paint1_radial)"/>
<defs>
<radialGradient id="paint0_radial" cx="0" cy="0" r="1" gradientUnits="userSpaceOnUse" gradientTransform="translate(16.1185 10.7669) scale(5.15216 5.24753)">
<stop stop-color="#E44D26"/>
<stop offset="1" stop-color="#F16529"/>
</radialGradient>
<radialGradient id="paint1_radial" cx="0" cy="0" r="1" gradientUnits="userSpaceOnUse" gradientTransform="translate(15.9998 21.1987) scale(7.85634 8.00175)">
<stop stop-color="#F28F4A"/>
<stop offset="1" stop-color="#FFDE25"/>
</radialGradient>
</defs>
</svg>
