<svg width="32" height="32" viewBox="0 0 32 32" fill="none" xmlns="http://www.w3.org/2000/svg">
<path d="M14.1432 12.7344L13.051 12.2085L10.1748 18.2036L14.8188 20.9018L13.9491 23.9156L15.2152 23.9075L16.2468 20.3315L11.7565 17.7182L14.1432 12.7344Z" fill="#39393E"/>
<path d="M11.1878 19.8148L7.86768 23.0446L8.71391 23.9145L12.034 20.6847L11.1878 19.8148Z" fill="#39393E"/>
<path d="M10.106 16.1728L8.86812 15.5822L11.1294 10.8452L12.3673 11.4358L12.8891 10.3436L10.555 9.22705L7.25 16.1526L9.58414 17.2691L10.106 16.1728Z" fill="#39393E"/>
<path d="M15.6037 11.0825C16.4532 11.0825 17.145 10.3908 17.145 9.54126C17.145 8.69175 16.4532 8 15.6037 8C14.7542 8 14.0625 8.69175 14.0625 9.54126C14.0625 10.3908 14.7542 11.0825 15.6037 11.0825ZM15.6037 9.01132C15.895 9.01132 16.1337 9.25 16.1337 9.54126C16.1337 9.83252 15.895 10.0712 15.6037 10.0712C15.3125 10.0712 15.0738 9.83252 15.0738 9.54126C15.0738 9.25 15.3125 9.01132 15.6037 9.01132Z" fill="#39393E"/>
<path d="M19.0177 20.7117V14.664H17.8041V15.3112H16.5339L17.2256 13.8306C17.7272 12.5806 16.9788 12.1559 16.461 11.9051L15.8259 11.6057L15.3081 12.702L15.9351 12.9973C16.1698 13.1106 16.186 13.2157 15.9918 13.6243L14.2563 17.3136L15.3526 17.8314L15.9594 16.5248H17.796V21.9253H24.7499V20.7117H19.0177Z" fill="#39393E"/>
<path d="M23.7219 18.4249H20.0615V19.6451H23.7219V18.4249Z" fill="#39393E"/>
<path d="M20.4904 22.3257H19.2769V23.9074H20.4904V22.3257Z" fill="#39393E"/>
<path d="M23.593 22.3257H22.3794V23.9074H23.593V22.3257Z" fill="#39393E"/>
</svg>
