<svg width="32" height="32" viewBox="0 0 32 32" fill="none" xmlns="http://www.w3.org/2000/svg">
<path d="M23.8484 13.5876C23.8432 13.5833 23.3229 13.1497 22.1056 12.7196C20.9723 12.3201 18.9898 11.8429 15.9804 11.8429C12.971 11.8429 10.9884 12.3201 9.85518 12.7196C8.63792 13.1497 8.11761 13.5841 8.11328 13.5876L8.1202 13.5815C7.54707 12.9264 7.7713 11.8961 8.56607 11.5472C9.91491 10.9549 12.2741 10.2727 15.9804 10.2727C19.6876 10.2727 22.0459 10.9549 23.3956 11.5481C24.1903 11.897 24.4146 12.9273 23.8414 13.5824L23.8484 13.5876Z" fill="#39393E"/>
<path d="M15.9353 25C12.2861 25 10.0914 24.7575 8.94775 23.4795C7.95559 22.3699 7.9781 20.6723 8.15039 19.0035C8.24562 18.0492 8.49409 17.0835 8.88887 16.1353C9.41872 14.8616 10.539 13.9518 11.8861 13.6997C13.1302 13.4676 14.5076 13.3499 15.9803 13.3499C17.4443 13.3499 18.8148 13.4659 20.0537 13.6962C21.3358 13.9335 22.4224 14.7918 22.9617 15.9913C23.4093 16.9867 23.6924 17.9995 23.8015 19C23.9859 20.6418 24.0197 22.3184 23.0197 23.4464C21.8622 24.7514 19.6364 25 15.9353 25ZM15.9803 14.9192C14.6029 14.9192 13.3207 15.0282 12.1701 15.2428C11.3407 15.3973 10.6516 15.9573 10.326 16.7407C9.99098 17.5458 9.7806 18.3606 9.70095 19.1623C9.51655 20.9541 9.63342 21.8997 10.1061 22.4275C10.8524 23.2615 12.8895 23.4289 15.9361 23.4289C19.0286 23.4289 21.0978 23.2562 21.8588 22.3987C22.3306 21.8666 22.4483 20.9018 22.2535 19.1728C22.1635 18.3467 21.9176 17.4708 21.5436 16.6386C21.2146 15.9076 20.5523 15.3842 19.7723 15.2402C18.626 15.0274 17.3508 14.9192 15.9803 14.9192Z" fill="#39393E"/>
<path d="M14.1255 9.467C14.8016 9.467 15.3497 8.91474 15.3497 8.2335C15.3497 7.55226 14.8016 7 14.1255 7C13.4495 7 12.9014 7.55226 12.9014 8.2335C12.9014 8.91474 13.4495 9.467 14.1255 9.467Z" fill="#39393E"/>
<path d="M17.835 9.467C18.5111 9.467 19.0592 8.91474 19.0592 8.2335C19.0592 7.55226 18.5111 7 17.835 7C17.1589 7 16.6108 7.55226 16.6108 8.2335C16.6108 8.91474 17.1589 9.467 17.835 9.467Z" fill="#39393E"/>
</svg>
