<svg width="38" height="38" viewBox="0 0 38 38" fill="none" xmlns="http://www.w3.org/2000/svg">
<g clip-path="url(#clip0)">
<path d="M16.8351 12.3607C16.5072 12.3607 16.1793 12.0329 16.1793 11.705V10.3935C16.1793 10.0657 16.5072 9.57385 16.8351 9.57385C17.1629 9.57385 17.4908 9.90172 17.4908 10.3935V11.705C17.6547 12.0329 17.3269 12.3607 16.8351 12.3607Z" fill="#21E6C1"/>
<path d="M22.0809 12.3607C21.753 12.3607 21.2612 12.0329 21.2612 11.705V10.3935C21.2612 10.0657 21.5891 9.57385 22.0809 9.57385C22.5727 9.57385 22.7366 10.0657 22.7366 10.3935V11.705C22.7366 12.0329 22.4088 12.3607 22.0809 12.3607Z" fill="#21E6C1"/>
<path d="M19.4579 17.7705C16.0153 17.7705 14.8678 15.4754 14.8678 15.4754C14.7038 15.1475 14.8678 14.6557 15.1956 14.4918C15.5235 14.3279 16.0153 14.4918 16.1793 14.8197C16.1793 14.9836 16.9989 16.2951 19.4579 16.2951C21.917 16.2951 22.7366 14.8197 22.7366 14.8197C22.9006 14.4918 23.3924 14.3279 23.7202 14.4918C24.0481 14.6557 24.212 15.1475 24.0481 15.4754C24.0481 15.4754 22.9006 17.7705 19.4579 17.7705Z" fill="#21E6C1"/>
<path d="M24.376 21.7049C27.1629 20.0656 29.1301 16.9508 29.1301 13.5082C29.1301 8.2623 24.8678 4 19.458 4C14.2121 4 9.78587 8.2623 9.78587 13.5082C9.78587 16.9508 11.7531 20.0656 14.54 21.7049C9.78587 23.3443 6.01538 27.4426 5.03177 32.6885C4.86784 33.3443 5.35964 34 6.01538 34C6.67112 34 7.32685 33.6721 7.32685 33.0164C8.4744 27.2787 13.5564 23.0164 19.2941 23.0164C25.1957 23.0164 30.2777 27.2787 31.2613 33.0164C31.4252 33.5082 31.917 34 32.4088 34H32.5728C33.2285 33.8361 33.5564 33.1803 33.5564 32.6885C32.9006 27.4426 29.1301 23.3443 24.376 21.7049ZM12.2449 13.3443C12.2449 9.40984 15.5236 6.13115 19.458 6.13115C23.3924 6.13115 26.6711 9.40984 26.6711 13.3443C26.6711 17.2787 23.3924 20.5574 19.458 20.5574C15.5236 20.7213 12.2449 17.4426 12.2449 13.3443Z" fill="#071E3D"/>
</g>
<defs>
<clipPath id="clip0">
<rect width="38" height="38" fill="white"/>
</clipPath>
</defs>
</svg>
