<svg width="38" height="38" viewBox="0 0 38 38" fill="none" xmlns="http://www.w3.org/2000/svg">
<g clip-path="url(#clip0)">
<path fill-rule="evenodd" clip-rule="evenodd" d="M17.9355 29.1645L23.2713 32.7217V24.152L23.7564 23.8286C26.8286 21.8883 28.7689 18.4927 28.7689 14.7738C28.7689 8.95281 23.9181 4.10201 17.9355 4.10201C11.9528 4.10201 7.10201 8.95281 7.10201 14.7738C7.10201 18.4927 9.04233 21.8883 12.1145 23.8286L12.5996 24.152V32.7217L17.9355 29.1645ZM23.433 34.8237C23.1096 34.8237 22.6246 34.662 22.3012 34.5003L17.9355 31.7516L13.5697 34.662C12.923 34.9854 12.2762 35.1471 11.6294 34.8237C10.9827 34.5003 10.6593 33.8536 10.6593 33.2068V25.4455C6.94032 22.8584 5 18.9778 5 14.7738C5 7.82096 10.821 2 17.9355 2C25.05 2 30.8709 7.65926 30.8709 14.7738C30.8709 18.9778 28.7689 22.8584 25.3733 25.1221V32.8834C25.3733 33.5302 25.05 34.1769 24.4032 34.5003C24.0798 34.8237 23.7564 34.8237 23.433 34.8237Z" fill="#071E3D"/>
<path fill-rule="evenodd" clip-rule="evenodd" d="M24.4032 12.8335C24.4032 12.5101 24.0798 12.3484 23.7564 12.1867L20.1992 11.7017L18.5822 8.62949C18.4205 8.3061 18.0972 8.14441 17.7738 8.14441C17.4504 8.14441 17.127 8.3061 16.9653 8.62949L15.3484 11.7017L12.1145 12.1867C11.7911 12.3484 11.4677 12.5101 11.4677 12.8335C11.306 13.1569 11.4677 13.4803 11.6294 13.642L14.2165 16.0674L13.5697 19.4629C13.5697 19.7863 13.5697 20.1097 13.8931 20.2714C14.2165 20.4331 14.5399 20.4331 14.7016 20.2714L17.9355 18.6545L21.1693 20.2714C21.4927 20.4331 21.8161 20.4331 21.9778 20.2714C22.3012 20.1097 22.3012 19.7863 22.3012 19.4629L21.6544 16.0674L24.2415 13.642C24.4032 13.3186 24.5649 12.9952 24.4032 12.8335Z" fill="#21E6C1"/>
</g>
<defs>
<clipPath id="clip0">
<rect width="38" height="38" fill="white"/>
</clipPath>
</defs>
</svg>
