<svg width="38" height="38" viewBox="0 0 38 38" fill="none" xmlns="http://www.w3.org/2000/svg">
<path d="M23.8413 21.6945C26.5513 20.1004 28.4642 17.0716 28.4642 13.5646C28.4642 8.30407 24.3195 4 19.059 4C13.7985 4 9.65379 8.30407 9.65379 13.5646C9.65379 17.0716 11.5667 20.1004 14.2767 21.6945C9.65379 23.448 5.98736 27.4333 5.0309 32.5344C4.87149 33.1721 5.34972 33.8097 5.98736 33.9691C6.625 34.1285 7.26264 33.6503 7.26264 33.0126C8.37851 27.2739 13.3202 23.1292 19.059 23.1292C24.7978 23.1292 29.7395 27.2739 30.8553 33.0126C31.0147 33.4909 31.493 33.9691 31.9712 33.9691H32.1306C32.7683 33.8097 33.2465 33.1721 33.0871 32.5344C32.1306 27.4333 28.6236 23.2886 23.8413 21.6945ZM11.8855 13.5646C11.8855 9.57935 15.0737 6.39115 19.059 6.39115C23.0442 6.39115 26.2324 9.57935 26.2324 13.5646C26.2324 17.5499 23.0442 20.7381 19.059 20.7381C15.0737 20.7381 11.8855 17.5499 11.8855 13.5646Z" fill="#7C7C7C"/>
</svg>
