<svg width="38" height="38" viewBox="0 0 38 38" fill="none" xmlns="http://www.w3.org/2000/svg">
<path d="M34.8093 14.4926L30.2098 13.3427C30.4973 12.1928 30.7848 11.3304 30.7848 10.7555C30.7848 7.01841 27.7664 4 24.0293 4C20.2922 4 17.2738 7.01841 17.2738 10.7555C17.2738 11.4742 17.5613 12.4803 17.9925 13.7739L15.6927 14.4926C13.8242 14.9238 13.5367 14.9238 11.6682 14.4926L3.61911 12.4803C3.47537 12.4803 3.33164 12.4803 3.18791 12.4803C3.04417 12.4803 2.90044 12.624 2.90044 12.624C2.75671 12.7678 2.61297 12.7678 2.61297 12.9115C2.61297 13.0552 2.46924 13.199 2.46924 13.3427V29.4409C2.46924 29.5846 2.46924 29.8721 2.61297 30.0158C2.75671 30.0158 2.90044 30.1595 3.18791 30.1595L11.237 32.7467C12.2431 33.0342 12.9618 33.1779 13.6805 33.1779C14.3991 33.1779 15.1178 33.0342 16.1239 32.7467H16.2677L22.3045 30.1595C23.5981 29.7283 24.4605 29.7283 26.329 30.1595L34.3781 32.1718C34.5219 32.1718 34.6656 32.1718 34.8093 32.1718C34.9531 32.1718 35.0968 32.0281 35.0968 32.0281C35.2405 31.8843 35.2405 31.8843 35.3843 31.7406C35.3843 31.5969 35.528 31.4531 35.528 31.3094V15.355C35.528 15.2112 35.528 14.9238 35.3843 14.78C35.0968 14.6363 34.9531 14.4926 34.8093 14.4926ZM18.9986 10.6117C18.9986 7.88081 21.2984 5.7248 24.0293 5.7248C26.7602 5.7248 29.06 8.02454 29.06 10.7555C29.06 12.4803 26.1853 19.2358 24.3168 22.9728C24.3168 23.1166 24.173 23.1166 24.0293 23.1166C23.8856 23.1166 23.8856 23.1166 23.8856 22.9728C21.8733 19.092 18.9986 12.4803 18.9986 10.6117ZM33.6595 30.3033L26.7602 28.5785C24.6042 28.0035 23.4544 28.0035 21.7296 28.5785L15.6927 31.0219C13.8242 31.4531 13.5367 31.4531 11.6682 31.0219L4.19404 28.7222V14.4926L11.0933 16.2174C13.2493 16.7923 13.9679 16.7923 15.9802 16.2174L18.2799 15.4987C19.5736 19.092 21.5858 23.1166 21.8733 23.8352C22.1608 24.5539 22.8794 24.9851 23.5981 24.9851C24.0293 24.9851 24.3168 24.8414 24.6042 24.6976C24.8917 24.5539 25.1792 24.2664 25.3229 23.8352C26.1853 22.9728 28.1976 18.6608 29.4912 15.0675L33.6595 16.0736V30.3033Z" fill="#7C7C7C"/>
<path d="M24.0293 12.1928C25.0354 12.1928 25.8978 11.3304 25.8978 10.1805C25.8978 9.03061 25.0354 8.16821 24.0293 8.16821C23.0232 8.16821 22.1608 9.03061 22.1608 10.1805C22.1608 11.3304 22.8794 12.1928 24.0293 12.1928Z" fill="#7C7C7C"/>
<path d="M17.4176 20.9606C17.4176 20.9606 14.8304 22.5417 12.8181 22.5417C10.8059 22.5417 8.07491 20.9606 8.07491 20.9606C7.93118 20.8169 7.64371 20.8169 7.35624 20.8169C7.06877 20.8169 6.92504 20.9606 6.78131 21.2481C6.63757 21.3918 6.63757 21.6793 6.63757 21.9668C6.63757 22.2542 6.78131 22.398 7.06877 22.5417C7.21251 22.6854 10.2309 24.4102 12.8181 24.4102C15.4053 24.4102 18.1363 22.5417 18.28 22.5417C18.4237 22.398 18.5675 22.2542 18.7112 21.9668C18.8549 21.6793 18.7112 21.5356 18.5675 21.2481C18.4237 21.1044 18.28 20.9606 17.9925 20.8169C17.8488 20.8169 17.5613 20.8169 17.4176 20.9606Z" fill="#7C7C7C"/>
<path d="M29.3476 20.6731C29.2038 20.6731 29.0601 20.6731 29.0601 20.6731C28.9164 20.6731 28.7726 20.6731 28.7726 20.8168C28.6289 20.8168 28.6289 20.9606 28.4852 21.1043C28.3414 21.248 28.3414 21.248 28.3414 21.3918C28.3414 21.5355 28.3414 21.6792 28.3414 21.6792C28.3414 21.823 28.3414 21.9667 28.4852 21.9667C28.4852 22.1104 28.6289 22.1104 28.7726 22.2542C28.9164 22.3979 28.9164 22.3979 29.0601 22.3979L31.3598 22.9728C31.6473 22.9728 31.791 22.9728 32.0785 22.8291C32.2222 22.6854 32.366 22.5416 32.5097 22.2542C32.5097 21.9667 32.5097 21.823 32.366 21.5355C32.2222 21.248 32.0785 21.248 31.791 21.1043L29.3476 20.6731Z" fill="#7C7C7C"/>
</svg>
