<svg width="38" height="38" viewBox="0 0 38 38" fill="none" xmlns="http://www.w3.org/2000/svg">
<path fill-rule="evenodd" clip-rule="evenodd" d="M35.978 15.9937L19.6697 4.11875C19.353 3.96042 18.878 3.96042 18.5614 4.11875L2.41136 15.9937C1.93636 16.3104 1.93636 16.9437 2.0947 17.2604C2.41136 17.7354 3.0447 17.7354 3.36136 17.4187L19.0364 5.86042L34.8697 17.4187C35.028 17.5771 35.1864 17.5771 35.3447 17.5771C35.6614 17.5771 35.8197 17.4187 36.1364 17.2604C36.453 16.9437 36.2947 16.3104 35.978 15.9937Z" fill="#7C7C7C"/>
<path fill-rule="evenodd" clip-rule="evenodd" d="M31.5445 17.7355C31.0695 17.7355 30.5945 18.2105 30.5945 18.6855V32.9355H23.4695V25.1771C23.4695 22.6438 21.4112 20.7438 19.0362 20.7438C16.5029 20.7438 14.6029 22.8021 14.6029 25.1771V32.9355H7.47788V18.6855C7.47788 18.2105 7.00288 17.7355 6.52788 17.7355C6.05288 17.7355 5.57788 18.2105 5.57788 18.6855V33.7271C5.57788 34.2021 6.05288 34.6771 6.52788 34.6771H15.3945C15.8695 34.6771 16.1862 34.3605 16.3445 33.8855V25.1771C16.3445 23.7521 17.6112 22.4855 19.0362 22.4855C20.4612 22.4855 21.7279 23.7521 21.7279 25.1771V33.8855C21.7279 34.3605 22.2029 34.6771 22.6779 34.6771H31.5445C32.0195 34.6771 32.4945 34.2021 32.4945 33.7271V18.6855C32.4945 18.0521 32.1779 17.7355 31.5445 17.7355Z" fill="#7C7C7C"/>
</svg>
