<svg width="38" height="38" viewBox="0 0 38 38" fill="none" xmlns="http://www.w3.org/2000/svg">
<path fill-rule="evenodd" clip-rule="evenodd" d="M35.978 15.9937L19.6697 4.11875C19.353 3.96042 18.878 3.96042 18.5614 4.11875L2.41136 15.9937C1.93636 16.3104 1.93636 16.9437 2.0947 17.2604C2.41136 17.7354 3.0447 17.7354 3.36136 17.4187L19.0364 5.86042L34.8697 17.4187C35.028 17.5771 35.1864 17.5771 35.3447 17.5771C35.6614 17.5771 35.8197 17.4187 36.1364 17.2604C36.453 16.9437 36.2947 16.3104 35.978 15.9937Z" fill="#071E3D"/>
<path fill-rule="evenodd" clip-rule="evenodd" d="M31.703 17.7355C31.228 17.7355 30.753 18.2105 30.753 18.6855V32.9355H23.628V25.1771C23.628 22.6438 21.5697 20.7438 19.1947 20.7438C16.6613 20.7438 14.7613 22.8021 14.7613 25.1771V32.9355H7.63633V18.6855C7.63633 18.2105 7.16133 17.7355 6.68633 17.7355C6.21133 17.7355 5.73633 18.2105 5.73633 18.6855V33.7271C5.73633 34.2021 6.21133 34.6771 6.68633 34.6771H15.553C16.028 34.6771 16.3447 34.3605 16.503 33.8855V25.1771C16.503 23.7521 17.7697 22.4855 19.1947 22.4855C20.6197 22.4855 21.8863 23.7521 21.8863 25.1771V33.8855C21.8863 34.3605 22.3613 34.6771 22.8363 34.6771H31.703C32.178 34.6771 32.653 34.2021 32.653 33.7271V18.6855C32.653 18.0521 32.3363 17.7355 31.703 17.7355Z" fill="#071E3D"/>
<path fill-rule="evenodd" clip-rule="evenodd" d="M20.778 32.3021H17.928V25.1771C17.928 24.3854 18.5613 23.5938 19.353 23.5938C20.1446 23.5938 20.778 24.2271 20.778 25.1771V32.3021Z" fill="#21E6C1"/>
</svg>
