<svg width="38" height="38" viewBox="0 0 38 38" fill="none" xmlns="http://www.w3.org/2000/svg">
<path fill-rule="evenodd" clip-rule="evenodd" d="M17.9355 30.1645L23.2713 33.7217V25.152L23.7564 24.8286C26.8286 22.8883 28.7689 19.4927 28.7689 15.7738C28.7689 9.95281 23.9181 5.10201 17.9355 5.10201C11.9528 5.10201 7.10201 9.95281 7.10201 15.7738C7.10201 19.4927 9.04233 22.8883 12.1145 24.8286L12.5996 25.152V33.7217L17.9355 30.1645ZM23.433 35.8237C23.1096 35.8237 22.6246 35.662 22.3012 35.5003L17.9355 32.7516L13.5697 35.662C12.923 35.9854 12.2762 36.1471 11.6294 35.8237C10.9827 35.5003 10.6593 34.8536 10.6593 34.2068V26.4455C6.94032 23.8584 5 19.9778 5 15.7738C5 8.82096 10.821 3 17.9355 3C25.05 3 30.8709 8.65926 30.8709 15.7738C30.8709 19.9778 28.7689 23.8584 25.3733 26.1221V33.8834C25.3733 34.5302 25.05 35.1769 24.4032 35.5003C24.0798 35.8237 23.7564 35.8237 23.433 35.8237Z" fill="#7C7C7C"/>
<path fill-rule="evenodd" clip-rule="evenodd" d="M24.4032 13.8335C24.4032 13.5101 24.0798 13.3484 23.7564 13.1867L20.1992 12.7017L18.5822 9.62949C18.4205 9.3061 18.0972 9.14441 17.7738 9.14441C17.4504 9.14441 17.127 9.3061 16.9653 9.62949L15.3484 12.7017L12.1145 13.1867C11.7911 13.3484 11.4677 13.5101 11.4677 13.8335C11.306 14.1569 11.4677 14.4803 11.6294 14.642L14.2165 17.0674L13.5697 20.4629C13.5697 20.7863 13.5697 21.1097 13.8931 21.2714C14.2165 21.4331 14.5399 21.4331 14.7016 21.2714L17.9355 19.6545L21.1693 21.2714C21.4927 21.4331 21.8161 21.4331 21.9778 21.2714C22.3012 21.1097 22.3012 20.7863 22.3012 20.4629L21.6544 17.0674L24.2415 14.642C24.4032 14.3186 24.5649 13.9952 24.4032 13.8335Z" fill="#7C7C7C"/>
</svg>
