<svg width="38" height="38" viewBox="0 0 38 38" fill="none" xmlns="http://www.w3.org/2000/svg">
<g clip-path="url(#clip0)">
<path d="M34.8093 12.4926L30.2098 11.3427C30.4973 10.1928 30.7848 9.33042 30.7848 8.75548C30.7848 5.01841 27.7664 2 24.0293 2C20.2922 2 17.2738 5.01841 17.2738 8.75548C17.2738 9.47415 17.5613 10.4803 17.9925 11.7739L15.6927 12.4926C13.8242 12.9238 13.5367 12.9238 11.6682 12.4926L3.61911 10.4803C3.47537 10.4803 3.33164 10.4803 3.18791 10.4803C3.04417 10.4803 2.90044 10.624 2.90044 10.624C2.75671 10.7678 2.61297 10.7678 2.61297 10.9115C2.61297 11.0552 2.46924 11.199 2.46924 11.3427V27.4409C2.46924 27.5846 2.46924 27.8721 2.61297 28.0158C2.75671 28.0158 2.90044 28.1595 3.18791 28.1595L11.237 30.7467C12.2431 31.0342 12.9618 31.1779 13.6805 31.1779C14.3991 31.1779 15.1178 31.0342 16.1239 30.7467H16.2677L22.3045 28.1595C23.5981 27.7283 24.4605 27.7283 26.329 28.1595L34.3781 30.1718C34.5219 30.1718 34.6656 30.1718 34.8093 30.1718C34.9531 30.1718 35.0968 30.0281 35.0968 30.0281C35.2405 29.8843 35.2405 29.8843 35.3843 29.7406C35.3843 29.5969 35.528 29.4531 35.528 29.3094V13.355C35.528 13.2112 35.528 12.9238 35.3843 12.78C35.0968 12.6363 34.9531 12.4926 34.8093 12.4926ZM18.9986 8.61175C18.9986 5.88081 21.2984 3.7248 24.0293 3.7248C26.7602 3.7248 29.06 6.02454 29.06 8.75548C29.06 10.4803 26.1853 17.2358 24.3168 20.9728C24.3168 21.1166 24.173 21.1166 24.0293 21.1166C23.8856 21.1166 23.8856 21.1166 23.8856 20.9728C21.8733 17.092 18.9986 10.4803 18.9986 8.61175ZM33.6595 28.3033L26.7602 26.5785C24.6042 26.0035 23.4544 26.0035 21.7296 26.5785L15.6927 29.0219C13.8242 29.4531 13.5367 29.4531 11.6682 29.0219L4.19404 26.7222V12.4926L11.0933 14.2174C13.2493 14.7923 13.9679 14.7923 15.9802 14.2174L18.2799 13.4987C19.5736 17.092 21.5858 21.1166 21.8733 21.8352C22.1608 22.5539 22.8794 22.9851 23.5981 22.9851C24.0293 22.9851 24.3168 22.8414 24.6042 22.6976C24.8917 22.5539 25.1792 22.2664 25.3229 21.8352C26.1853 20.9728 28.1976 16.6608 29.4912 13.0675L33.6595 14.0736V28.3033Z" fill="#071E3D"/>
<path d="M24.0293 10.1929C25.0354 10.1929 25.8978 9.33048 25.8978 8.18061C25.8978 7.03074 25.0354 6.16833 24.0293 6.16833C23.0232 6.16833 22.1608 7.03074 22.1608 8.18061C22.1608 9.33048 22.8794 10.1929 24.0293 10.1929Z" fill="#21E6C1"/>
<path d="M17.4176 18.9606C17.4176 18.9606 14.8304 20.5417 12.8181 20.5417C10.8059 20.5417 8.07491 18.9606 8.07491 18.9606C7.93118 18.8169 7.64371 18.8169 7.35624 18.8169C7.06877 18.8169 6.92504 18.9606 6.78131 19.2481C6.63757 19.3918 6.63757 19.6793 6.63757 19.9668C6.63757 20.2542 6.78131 20.398 7.06877 20.5417C7.21251 20.6854 10.2309 22.4102 12.8181 22.4102C15.4053 22.4102 18.1363 20.5417 18.28 20.5417C18.4237 20.398 18.5675 20.2542 18.7112 19.9668C18.8549 19.6793 18.7112 19.5356 18.5675 19.2481C18.4237 19.1044 18.28 18.9606 17.9925 18.8169C17.8488 18.8169 17.5613 18.8169 17.4176 18.9606Z" fill="#21E6C1"/>
<path d="M29.3476 18.6732C29.2038 18.6732 29.0601 18.6732 29.0601 18.6732C28.9164 18.6732 28.7726 18.6732 28.7726 18.817C28.6289 18.817 28.6289 18.9607 28.4852 19.1044C28.3414 19.2482 28.3414 19.2482 28.3414 19.3919C28.3414 19.5356 28.3414 19.6794 28.3414 19.6794C28.3414 19.8231 28.3414 19.9668 28.4852 19.9668C28.4852 20.1106 28.6289 20.1106 28.7726 20.2543C28.9164 20.398 28.9164 20.398 29.0601 20.398L31.3598 20.973C31.6473 20.973 31.791 20.973 32.0785 20.8292C32.2222 20.6855 32.366 20.5418 32.5097 20.2543C32.5097 19.9668 32.5097 19.8231 32.366 19.5356C32.2222 19.2482 32.0785 19.2482 31.791 19.1044L29.3476 18.6732Z" fill="#21E6C1"/>
</g>
<defs>
<clipPath id="clip0">
<rect width="38" height="38" fill="white"/>
</clipPath>
</defs>
</svg>
