<?xml version="1.0" encoding="utf-8"?>
<!-- Generator: Adobe Illustrator 22.0.1, SVG Export Plug-In . SVG Version: 6.00 Build 0)  -->
<svg version="1.1" id="圖層_1" xmlns="http://www.w3.org/2000/svg" xmlns:xlink="http://www.w3.org/1999/xlink" x="0px" y="0px"
	 viewBox="0 0 96 96" style="enable-background:new 0 0 96 96;" xml:space="preserve">
<style type="text/css">
	.st0{fill:url(#SVGID_1_);}
	.st1{fill:url(#SVGID_2_);}
	.st2{fill:url(#SVGID_3_);}
	.st3{fill:url(#SVGID_4_);}
	.st4{fill:url(#SVGID_5_);}
	.st5{fill:url(#SVGID_6_);}
	.st6{fill:url(#SVGID_7_);}
</style>
<g>
	
		<radialGradient id="SVGID_1_" cx="-13.8153" cy="427.2645" r="2.194" gradientTransform="matrix(1.097 0 0 1.0982 73.8107 -412.0111)" gradientUnits="userSpaceOnUse">
		<stop  offset="0" style="stop-color:#396AFC"/>
		<stop  offset="1" style="stop-color:#2948FF"/>
	</radialGradient>
	<path class="st0" d="M57.1,58.7h3.1c0.4,0,0.9-0.2,1.1-0.4s0.4-0.7,0.4-1.1s-0.2-0.9-0.4-1.1s-0.7-0.4-1.1-0.4h-3.1
		c-0.4,0-0.9,0.2-1.1,0.4s-0.4,0.7-0.4,1.1s0.2,0.9,0.4,1.1C56.4,58.7,56.7,58.7,57.1,58.7z"/>
	
		<radialGradient id="SVGID_2_" cx="-533.4508" cy="-138.361" r="2.1925" gradientTransform="matrix(10.1361 0 0 5.0736 5556.9941 921.9222)" gradientUnits="userSpaceOnUse">
		<stop  offset="0" style="stop-color:#396AFC"/>
		<stop  offset="1" style="stop-color:#2948FF"/>
	</radialGradient>
	<path class="st1" d="M35.8,58.7h3.1c0.4,0,0.9-0.2,1.1-0.4s0.4-0.7,0.4-1.1s-0.2-0.9-0.4-1.1s-0.7-0.4-1.1-0.4h-3.1
		c-0.4,0-0.9,0.2-1.1,0.4s-0.4,0.7-0.4,1.1s0.2,0.9,0.4,1.1C35,58.7,35.4,58.7,35.8,58.7z"/>
	
		<radialGradient id="SVGID_3_" cx="-583.8493" cy="-251.2023" r="2.1925" gradientTransform="matrix(49.8102 0 0 12.3906 29616.5254 3163.3713)" gradientUnits="userSpaceOnUse">
		<stop  offset="0" style="stop-color:#396AFC"/>
		<stop  offset="1" style="stop-color:#2948FF"/>
	</radialGradient>
	<path class="st2" d="M40.9,28.2l1.3-2.4c0.2-0.2,0.4-0.7,0.7-0.7c0.2-0.2,0.7-0.2,0.9-0.2h8.3c0.2,0,0.7,0,0.9,0.2
		c0.2,0.2,0.4,0.4,0.7,0.7l1.3,2.6h-14V28.2z"/>
	
		<radialGradient id="SVGID_4_" cx="-597.4163" cy="-288.0799" r="2.1925" gradientTransform="matrix(277.312 0 0 28.9877 166881.7031 8440.166)" gradientUnits="userSpaceOnUse">
		<stop  offset="0" style="stop-color:#396AFC"/>
		<stop  offset="1" style="stop-color:#2948FF"/>
	</radialGradient>
	<path class="st3" d="M64.8,34.3H31.2v-0.2c0.4-0.9,0.9-1.8,1.8-2.4s1.8-0.9,2.9-0.9h24.3c1.1,0,2,0.2,2.9,0.9
		c0.9,0.7,1.3,1.3,1.8,2.4V34.3z"/>
	
		<radialGradient id="SVGID_5_" cx="-596.1423" cy="-278.2624" r="2.1925" gradientTransform="matrix(200.845 0 0 24.6052 120768.7813 7148.209)" gradientUnits="userSpaceOnUse">
		<stop  offset="0" style="stop-color:#396AFC"/>
		<stop  offset="1" style="stop-color:#2948FF"/>
	</radialGradient>
	<path class="st4" d="M37.8,64.6h20.4l3.9,3.5H33.6L37.8,64.6z"/>
	
		<radialGradient id="SVGID_6_" cx="-600.0993" cy="-314.7261" r="2.1925" gradientTransform="matrix(794.174 0 0 903.402 478235.5 286448.1563)" gradientUnits="userSpaceOnUse">
		<stop  offset="0" style="stop-color:#396AFC"/>
		<stop  offset="1" style="stop-color:#2948FF"/>
	</radialGradient>
	<path class="st5" d="M70.5,71L63,64.6c1.5-0.7,2.9-1.5,3.7-2.9s1.3-2.9,1.3-4.4V35.9c0-2.2-0.9-4.2-2.4-5.7
		c-1.5-1.5-3.5-2.4-5.7-2.4h-2l-1.8-3.3c-0.4-0.9-1.1-1.5-1.8-2c-0.9-0.4-1.8-0.7-2.6-0.7h-8.3c-0.9,0-1.8,0.2-2.6,0.7
		s-1.3,1.1-1.8,2l-1.3,3.3h-2c-2.2,0-4.2,0.9-5.7,2.4c-1.5,1.5-2.4,3.5-2.4,5.7v21.5c0,1.5,0.4,3.1,1.3,4.4c0.9,1.3,2.2,2.4,3.7,2.9
		L25.3,71c-0.2,0.2-0.4,0.4-0.4,0.7c-0.2,0.2-0.2,0.4-0.2,0.7s0,0.4,0,0.7s0.2,0.4,0.4,0.7s0.4,0.4,0.7,0.4c0.2,0.2,0.4,0.2,0.7,0.2
		s0.4,0,0.7,0s0.4-0.2,0.7-0.4l3.1-2.6H65l3.1,2.6c0.4,0.2,0.7,0.4,1.3,0.4h0.2c0.2,0,0.4,0,0.7-0.2c0.2-0.2,0.4-0.2,0.7-0.4
		c0.2-0.4,0.4-0.9,0.4-1.3C71.1,71.8,70.9,71.4,70.5,71z M56,49.9H40c-0.9,0-2-0.2-2.6-0.9c-0.9-0.4-1.3-1.3-1.8-2.2L31.7,37h32.7
		l-3.9,9.9c-0.4,0.9-0.9,1.8-1.8,2.2S57.1,49.9,56,49.9z"/>
	
		<radialGradient id="SVGID_7_" cx="-500.5439" cy="-187.7795" r="2.1923" gradientTransform="matrix(6.3024 0 0 6.3094 3202.6243 1237.0524)" gradientUnits="userSpaceOnUse">
		<stop  offset="0" style="stop-color:#4DD6FF"/>
		<stop  offset="1" style="stop-color:#E2E2E2"/>
	</radialGradient>
	<path class="st6" d="M31,42.5l2,5.3c0.4,1.3,1.5,2.6,2.6,3.3c1.3,0.9,2.6,1.3,4.2,1.3h16c1.5,0,2.9-0.4,4.2-1.3
		c1.3-0.9,2.2-2,2.6-3.3l2-5.3v14.7c0,1.3-0.4,2.4-1.3,3.3c-0.9,0.9-2.2,1.3-3.3,1.3h-7.9v-1.5c0-1.1-0.4-2.2-1.3-3.1
		s-2-1.3-3.1-1.3s-2.2,0.4-3.1,1.3c-0.9,0.9-1.3,1.8-1.3,3.1V62h-7.9c-1.3,0-2.4-0.4-3.3-1.3c-0.9-0.9-1.3-2.2-1.3-3.3V42.5H31z"/>
</g>
</svg>
