<?xml version="1.0" encoding="utf-8"?>
<!-- Generator: Adobe Illustrator 23.1.1, SVG Export Plug-In . SVG Version: 6.00 Build 0)  -->
<svg version="1.1" id="圖層_1" xmlns="http://www.w3.org/2000/svg" xmlns:xlink="http://www.w3.org/1999/xlink" x="0px" y="0px"
	 viewBox="0 0 37.3 38.8" style="enable-background:new 0 0 37.3 38.8;" xml:space="preserve">
<style type="text/css">
	.st0{fill:url(#SVGID_1_);}
	.st1{fill:url(#SVGID_2_);}
	.st2{fill:url(#SVGID_3_);}
	.st3{fill:url(#SVGID_4_);}
	.st4{fill:url(#SVGID_5_);}
	.st5{fill:url(#SVGID_6_);}
	.st6{fill:url(#SVGID_7_);}
	.st7{fill:url(#SVGID_8_);}
	.st8{fill:url(#SVGID_9_);}
	.st9{fill:url(#SVGID_10_);}
	.st10{fill:url(#SVGID_11_);}
	.st11{fill:url(#SVGID_12_);}
	.st12{fill:url(#SVGID_13_);}
	.st13{fill:url(#SVGID_14_);}
	.st14{fill:url(#SVGID_15_);}
	.st15{fill:url(#SVGID_16_);}
	.st16{fill:url(#SVGID_17_);}
	.st17{fill:url(#SVGID_18_);}
	.st18{fill:#C4C4C4;}
</style>
<g>
	
		<radialGradient id="SVGID_1_" cx="-28.111" cy="85.3061" r="1.0007" gradientTransform="matrix(1.097 0 0 -1.0982 54.3477 117.3114)" gradientUnits="userSpaceOnUse">
		<stop  offset="0" style="stop-color:#396AFC"/>
		<stop  offset="1" style="stop-color:#2948FF"/>
	</radialGradient>
	<path class="st0" d="M22.8,24.3h1.4c0.2,0,0.4-0.1,0.5-0.2c0.1-0.1,0.2-0.3,0.2-0.5s-0.1-0.4-0.2-0.5c-0.1-0.1-0.3-0.2-0.5-0.2
		h-1.4c-0.2,0-0.4,0.1-0.5,0.2c-0.1,0.1-0.2,0.3-0.2,0.5s0.1,0.4,0.2,0.5C22.5,24.3,22.6,24.3,22.8,24.3z"/>
	
		<radialGradient id="SVGID_2_" cx="-360.959" cy="500.7199" r="1" gradientTransform="matrix(10.1361 0 0 -5.0736 3723.8359 2638.2991)" gradientUnits="userSpaceOnUse">
		<stop  offset="0" style="stop-color:#396AFC"/>
		<stop  offset="1" style="stop-color:#2948FF"/>
	</radialGradient>
	<path class="st1" d="M13.1,24.3h1.4c0.2,0,0.4-0.1,0.5-0.2c0.1-0.1,0.2-0.3,0.2-0.5s-0.1-0.4-0.2-0.5c-0.1-0.1-0.3-0.2-0.5-0.2
		h-1.4c-0.2,0-0.4,0.1-0.5,0.2c-0.1,0.1-0.2,0.3-0.2,0.5s0.1,0.4,0.2,0.5C12.7,24.3,12.9,24.3,13.1,24.3z"/>
	
		<radialGradient id="SVGID_3_" cx="-393.1332" cy="568.4865" r="1" gradientTransform="matrix(49.8102 0 0 -12.3906 19822.7598 7064.6045)" gradientUnits="userSpaceOnUse">
		<stop  offset="0" style="stop-color:#396AFC"/>
		<stop  offset="1" style="stop-color:#2948FF"/>
	</radialGradient>
	<path class="st2" d="M15.4,10.4L16,9.3C16.1,9.2,16.2,9,16.3,9c0.1-0.1,0.3-0.1,0.4-0.1h3.8c0.1,0,0.3,0,0.4,0.1
		c0.1,0.1,0.2,0.2,0.3,0.3l0.6,1.2H15.4z"/>
	
		<radialGradient id="SVGID_4_" cx="-399.8767" cy="595.39" r="1" gradientTransform="matrix(277.312 0 0 -28.9877 111439.7031 17297.293)" gradientUnits="userSpaceOnUse">
		<stop  offset="0" style="stop-color:#396AFC"/>
		<stop  offset="1" style="stop-color:#2948FF"/>
	</radialGradient>
	<path class="st3" d="M26.3,13.2H11l0-0.1c0.2-0.4,0.4-0.8,0.8-1.1c0.4-0.3,0.8-0.4,1.3-0.4h11.1c0.5,0,0.9,0.1,1.3,0.4
		c0.4,0.3,0.6,0.6,0.8,1.1L26.3,13.2z"/>
	
		<radialGradient id="SVGID_5_" cx="-399.3146" cy="591.8127" r="1" gradientTransform="matrix(200.845 0 0 -24.6052 80669.8828 14696.7217)" gradientUnits="userSpaceOnUse">
		<stop  offset="0" style="stop-color:#396AFC"/>
		<stop  offset="1" style="stop-color:#2948FF"/>
	</radialGradient>
	<path class="st4" d="M14,27h9.3l1.8,1.6h-13L14,27z"/>
	
		<radialGradient id="SVGID_6_" cx="-400.8376" cy="614.8305" r="1" gradientTransform="matrix(794.174 0 0 -903.402 319085.125 556405.375)" gradientUnits="userSpaceOnUse">
		<stop  offset="0" style="stop-color:#396AFC"/>
		<stop  offset="1" style="stop-color:#2948FF"/>
	</radialGradient>
	<path class="st5" d="M28.9,29.9L25.5,27c0.7-0.3,1.3-0.7,1.7-1.3c0.4-0.6,0.6-1.3,0.6-2v-9.8c0-1-0.4-1.9-1.1-2.6
		c-0.7-0.7-1.6-1.1-2.6-1.1h-0.9l-0.8-1.5c-0.2-0.4-0.5-0.7-0.8-0.9c-0.4-0.2-0.8-0.3-1.2-0.3h-3.8c-0.4,0-0.8,0.1-1.2,0.3
		s-0.6,0.5-0.8,0.9L14,10.2h-0.9c-1,0-1.9,0.4-2.6,1.1c-0.7,0.7-1.1,1.6-1.1,2.6v9.8c0,0.7,0.2,1.4,0.6,2c0.4,0.6,1,1.1,1.7,1.3
		l-3.4,2.9c-0.1,0.1-0.2,0.2-0.2,0.3c-0.1,0.1-0.1,0.2-0.1,0.3c0,0.1,0,0.2,0,0.3s0.1,0.2,0.2,0.3c0.1,0.1,0.2,0.2,0.3,0.2
		c0.1,0.1,0.2,0.1,0.3,0.1c0.1,0,0.2,0,0.3,0c0.1,0,0.2-0.1,0.3-0.2l1.4-1.2h15.6l1.4,1.2c0.2,0.1,0.3,0.2,0.6,0.2h0.1
		c0.1,0,0.2,0,0.3-0.1c0.1-0.1,0.2-0.1,0.3-0.2c0.1-0.2,0.2-0.4,0.2-0.6C29.2,30.3,29.1,30.1,28.9,29.9z M22.3,20.3H15
		c-0.4,0-0.9-0.1-1.2-0.4c-0.4-0.2-0.6-0.6-0.8-1l-1.8-4.5h14.9l-1.8,4.5c-0.2,0.4-0.4,0.8-0.8,1S22.8,20.3,22.3,20.3z"/>
	
		<radialGradient id="SVGID_7_" cx="-336.3876" cy="523.1974" r="0.9999" gradientTransform="matrix(6.3024 0 0 -6.3094 2138.6978 3322.4392)" gradientUnits="userSpaceOnUse">
		<stop  offset="0" style="stop-color:#4DD6FF"/>
		<stop  offset="1" style="stop-color:#E2E2E2"/>
	</radialGradient>
	<path class="st6" d="M10.9,16.9l0.9,2.4c0.2,0.6,0.7,1.2,1.2,1.5c0.6,0.4,1.2,0.6,1.9,0.6h7.3c0.7,0,1.3-0.2,1.9-0.6
		c0.6-0.4,1-0.9,1.2-1.5l0.9-2.4v6.7c0,0.6-0.2,1.1-0.6,1.5c-0.4,0.4-1,0.6-1.5,0.6h-3.6V25c0-0.5-0.2-1-0.6-1.4
		c-0.4-0.4-0.9-0.6-1.4-0.6s-1,0.2-1.4,0.6c-0.4,0.4-0.6,0.8-0.6,1.4v0.8h-3.6c-0.6,0-1.1-0.2-1.5-0.6c-0.4-0.4-0.6-1-0.6-1.5V16.9z
		"/>
</g>
</svg>
