<?xml version="1.0" encoding="utf-8"?>
<!-- Generator: Adobe Illustrator 22.0.1, SVG Export Plug-In . SVG Version: 6.00 Build 0)  -->
<svg version="1.1" id="圖層_1" xmlns="http://www.w3.org/2000/svg" xmlns:xlink="http://www.w3.org/1999/xlink" x="0px" y="0px"
	 viewBox="0 0 96 96" style="enable-background:new 0 0 96 96;" xml:space="preserve">
<style type="text/css">
	.st0{fill:url(#SVGID_1_);}
</style>
<radialGradient id="SVGID_1_" cx="-548.8909" cy="-249.21" r="2.3597" gradientTransform="matrix(12.0109 0 0 12.004 6640.5981 3039.5752)" gradientUnits="userSpaceOnUse">
	<stop  offset="0" style="stop-color:#CB356B"/>
	<stop  offset="0.49" style="stop-color:#D76D77"/>
	<stop  offset="1" style="stop-color:#FFAF7B"/>
</radialGradient>
<path class="st0" d="M63.1,57.4H52.8v-16c0-0.2,0-0.5,0.2-0.7c0.2-0.2,0.5-0.2,0.7-0.2h9.4V44l13-8.3l-13.2-8.3V31H52.5
	c-0.2-2.1-1.2-4-2.8-5.4c-1.7-1.4-3.5-2.1-5.7-2.1H32.7v-3.8l-13,8.5L33,36.4v-3.5h9.4c0.2,0,0.5,0,0.7,0.2c0.2,0.2,0.2,0.5,0.2,0.7
	v13.2H33v-3.5l-13.2,8.3L33,60v-3.5h9.4c0.2,0,0.5,0,0.7,0.2c0.2,0.2,0.2,0.5,0.2,0.7v18.9h9.4v-9.4h10.4v3.8l13.2-8.3l-13.2-8.3
	C63.1,54.1,63.1,57.4,63.1,57.4z M50.4,31h-0.5h-0.5H49l-0.2,0.5l-0.5,0.2L47.8,32c-0.2,0-0.2,0-0.5,0.2l-0.2,0.2l-0.2,0.2l-0.2,0.2
	l-0.5,0l-0.2,0.2l-0.2,0.2l-0.2,0.2l-0.2,0.2v-0.2c0-0.5,0-0.7-0.2-1.2c-0.2-0.2-0.2-0.7-0.7-0.9c-0.2-0.2-0.5-0.5-0.9-0.7
	c-0.2-0.2-0.7-0.2-1.2-0.2H30.8v2.4l-7.8-4.7l7.8-5v2.1H44c1.7,0,3.1,0.5,4.5,1.7c1.2,0.9,1.9,2.6,2.1,4L50.4,31z M65,57.2l7.8,5
	l-7.8,5V65H52.8v-5.7H65C65,59.3,65,57.2,65,57.2z"/>
</svg>
