<?xml version="1.0" encoding="utf-8"?>
<!-- Generator: Adobe Illustrator 23.1.1, SVG Export Plug-In . SVG Version: 6.00 Build 0)  -->
<svg version="1.1" xmlns="http://www.w3.org/2000/svg" xmlns:xlink="http://www.w3.org/1999/xlink" x="0px" y="0px"
	 viewBox="0 0 26.7 26.7" style="enable-background:new 0 0 26.7 26.7;" xml:space="preserve">
<style type="text/css">
	.st0{display:none;}
	.st1{display:inline;}
	.st2{fill-rule:evenodd;clip-rule:evenodd;fill:#FFFFFF;}
	.st3{fill:#FFFFFF;}
	.st4{fill:#B46660;}
</style>
<g id="圖層_1" class="st0">
	<rect x="-1.6" y="-1.6" class="st1" width="30" height="30"/>
</g>
<g id="圖層_2">
	<path class="st3" d="M13.4,3.8c-1.6,0-3.2,0.7-4.3,1.9C7.9,6.8,7.2,8.4,7.2,10c0,1.4,1,4,2.8,7.6c1.4,2.7,2.8,5,2.8,5
		c0.1,0.1,0.1,0.2,0.2,0.2c0.1,0.1,0.2,0.1,0.3,0.1c0.1,0,0.2,0,0.3-0.1c0.1-0.1,0.2-0.1,0.2-0.2c0,0,1.4-2.3,2.8-5
		c1.9-3.7,2.8-6.2,2.8-7.6c0-0.8-0.2-1.6-0.5-2.4c-0.3-0.8-0.8-1.5-1.3-2c-0.6-0.6-1.2-1.1-2-1.4C15,3.9,14.2,3.8,13.4,3.8L13.4,3.8
		z M13.4,12.3c-0.4,0-0.8-0.1-1.2-0.4c-0.4-0.2-0.6-0.6-0.8-1s-0.2-0.8-0.1-1.3c0.1-0.4,0.3-0.8,0.6-1.1s0.7-0.5,1.1-0.6
		c0.4-0.1,0.9,0,1.3,0.1c0.4,0.2,0.7,0.4,1,0.8c0.2,0.4,0.4,0.8,0.4,1.2c0,0.6-0.2,1.1-0.6,1.6C14.5,12.1,13.9,12.3,13.4,12.3z"/>
</g>
</svg>
