<?xml version="1.0" encoding="utf-8"?>
<!-- Generator: Adobe Illustrator 22.0.1, SVG Export Plug-In . SVG Version: 6.00 Build 0)  -->
<svg version="1.1" id="圖層_1" xmlns="http://www.w3.org/2000/svg" xmlns:xlink="http://www.w3.org/1999/xlink" x="0px" y="0px"
	 viewBox="0 0 96 96" style="enable-background:new 0 0 96 96;" xml:space="preserve">
<style type="text/css">
	.st0{fill:url(#SVGID_1_);}
	.st1{fill:url(#SVGID_2_);}
</style>
<g>
	
		<radialGradient id="SVGID_1_" cx="-510.7045" cy="-187.8563" r="2.6879" gradientTransform="matrix(5.1522 0 0 5.2475 2679.4668 1019.6499)" gradientUnits="userSpaceOnUse">
		<stop  offset="0" style="stop-color:#E44D26"/>
		<stop  offset="1" style="stop-color:#F16529"/>
	</radialGradient>
	<path class="st0" d="M58.4,24.9h-5.2v-1.6c0-1.2-0.4-2.8-1.6-3.6c-0.8-0.8-2.4-1.6-3.6-1.6c-1.2,0-2.8,0.4-3.6,1.6
		c-0.8,0.8-1.2,2.4-1.2,3.6v1.6h-5.2c-0.4,0-0.8,0-1.2,0.4c-0.4,0.4-0.4,1.2-0.4,1.6v21c0,0.4,0,0.8,0.4,1.2s0.8,0.4,1.2,0.4h20.6
		c0.4,0,0.8,0,1.2-0.4s0.4-0.8,0.4-1.2v-21c0-0.4,0-0.8-0.4-1.2C59.6,25.3,59.2,24.9,58.4,24.9z M49.9,24.9h-3.6v-1.6
		c0-0.4,0-0.8,0.4-1.2c0.4-0.4,0.8-0.4,1.2-0.4s0.8,0,1.2,0.4c0.4,0.4,0.4,0.8,0.4,1.2L49.9,24.9z"/>
	
		<radialGradient id="SVGID_2_" cx="-556.2536" cy="-241.9919" r="2.6871" gradientTransform="matrix(7.8563 0 0 8.0017 4418.1172 1998.3362)" gradientUnits="userSpaceOnUse">
		<stop  offset="0" style="stop-color:#F28F4A"/>
		<stop  offset="1" style="stop-color:#FFDE25"/>
	</radialGradient>
	<path class="st1" d="M73.3,47c0-0.4-0.4-0.4-0.8-0.8s-0.4,0-0.8,0c-1.6,0-2.8,0.4-4,1.2c-1.2,0.8-2.4,2-2.8,3.2l-5.2,10.1
		c-0.4,0.8-1.2,1.6-2,2s-1.6,0.8-2.8,0.8H43.1c-0.4,0-0.8,0-1.2-0.4c-0.4-0.4-0.4-0.8-0.4-1.2c0-0.4,0-0.8,0.4-1.2
		c0.4-0.4,0.8-0.8,1.2-0.8h11.7c0.4,0,0.8,0,0.8-0.4c0.4,0,0.4-0.4,0.8-0.8l2-3.6c0-0.4,0-0.4,0-0.8c0-0.4,0-0.4-0.4-0.8
		c0-0.4-0.4-0.4-0.4-0.4c-0.4,0-0.4,0-0.8,0H39.1c-1.2,0-2.4,0.4-3.2,0.8c-1.2,0.4-2,1.2-2.8,2L22.9,66.4l-0.4,0.4
		c0,0.4,0,0.4,0,0.8c0,0.4,0,0.4,0,0.8c0,0.4,0.4,0.4,0.4,0.4l8.5,8.9l0.4,0.4c0,0,0.4,0,0.8,0c0.4,0,0.4,0,0.8,0s0.4-0.4,0.4-0.4
		l6.4-6.4h14.5c2,0,4.4-0.8,6-1.6c2-1.2,3.2-2.8,4.4-4.8l8.1-15.3c0-0.4,0.4-0.4,0-0.8C73.3,47.4,73.3,47,73.3,47z"/>
</g>
</svg>
