<?xml version="1.0" encoding="utf-8"?>
<!-- Generator: Adobe Illustrator 22.0.1, SVG Export Plug-In . SVG Version: 6.00 Build 0)  -->
<svg version="1.1" id="圖層_1" xmlns="http://www.w3.org/2000/svg" xmlns:xlink="http://www.w3.org/1999/xlink" x="0px" y="0px"
	 viewBox="0 0 96 96" style="enable-background:new 0 0 96 96;" xml:space="preserve">
<style type="text/css">
	.st0{fill:url(#SVGID_1_);}
	.st1{fill:url(#SVGID_2_);}
	.st2{fill:url(#SVGID_3_);}
	.st3{fill:url(#SVGID_4_);}
	.st4{fill:url(#SVGID_5_);}
	.st5{fill:url(#SVGID_6_);}
	.st6{fill:url(#SVGID_7_);}
</style>
<g>
	
		<radialGradient id="SVGID_1_" cx="-554.9093" cy="-259.5312" r="2.0787" gradientTransform="matrix(13.4518 0 0 14.2293 7512.5352 3742.7068)" gradientUnits="userSpaceOnUse">
		<stop  offset="0" style="stop-color:#F7971E"/>
		<stop  offset="1" style="stop-color:#FFD200"/>
	</radialGradient>
	<path class="st0" d="M82,49.5c-0.4-2.3-1.7-4.6-3.5-6c-1.7-1.5-4-2.3-6.2-2.5h-4.6l-2.5-2.7c-2.5-2.9-5.6-5.2-9.1-6.9
		c-3.5-1.7-7.3-2.5-11-2.5H30.8c-0.8,0-1.9,0.4-2.5,1s-1,1.7-1,2.5V41h-3.5c-2.5,0-4.8,0.8-6.7,2.7c-1.9,1.7-3.1,4-3.3,6.4
		c-0.4,2.5,0.2,5.2,1.5,7.3s3.3,3.7,5.6,4.4l0.6,0.2l0.2,0.8c0.4,2.1,1.5,4.2,3.1,5.6c1.7,1.5,3.5,2.3,5.6,2.3s4.2-0.6,5.8-2.1
		c1.7-1.2,2.9-3.3,3.3-5.4l0.2-0.8H57l0.2,0.8c0.4,2.1,1.7,4.2,3.3,5.4c1.7,1.2,3.7,2.1,5.8,2.1s4.2-0.8,5.6-2.3
		c1.7-1.5,2.7-3.3,2.9-5.6c0.2-0.8,0.8-1,2.1-1.7c0.2,0,0.4-0.2,0.6-0.2c1.9-1,3.1-2.9,4-4.8C82.4,53.9,82.6,51.6,82,49.5L82,49.5z"
		/>
	
		<linearGradient id="SVGID_2_" gradientUnits="userSpaceOnUse" x1="30.3141" y1="496.1119" x2="64.1463" y2="496.1119" gradientTransform="matrix(1 0 0 1 0 -459.6012)">
		<stop  offset="0" style="stop-color:#D9A77A"/>
		<stop  offset="1" style="stop-color:#FFFCDC"/>
	</linearGradient>
	<path class="st1" d="M30.2,31.8H45c6.4,0,12.7,2.7,17.3,7.5l1.9,1.9H30.2V31.8z"/>
	
		<radialGradient id="SVGID_3_" cx="-588.9742" cy="-299.1161" r="2.0792" gradientTransform="matrix(60.9446 0 0 64.4669 36252.1328 19966.5371)" gradientUnits="userSpaceOnUse">
		<stop  offset="0" style="stop-color:#D9A77A"/>
		<stop  offset="1" style="stop-color:#FFFCDC"/>
	</radialGradient>
	<path class="st2" d="M30.6,67.8c-1.2,0-2.5-0.4-3.5-1.2c-1.2-0.8-1.9-1.9-2.5-3.1c-0.4-1.2-0.6-2.7-0.4-4c0.2-1.2,0.8-2.5,1.7-3.5
		s2.1-1.7,3.3-1.9s2.5-0.2,3.7,0.4c1.2,0.4,2.1,1.5,2.9,2.5c0.6,1,1,2.5,1,3.7c0,1.9-0.6,3.5-1.9,4.8C34,67,32.3,67.6,30.6,67.8z"/>
	
		<radialGradient id="SVGID_4_" cx="-582.7505" cy="-299.1161" r="2.0792" gradientTransform="matrix(60.9446 0 0 64.4669 36603.6094 19966.5371)" gradientUnits="userSpaceOnUse">
		<stop  offset="0" style="stop-color:#D9A77A"/>
		<stop  offset="1" style="stop-color:#FFFCDC"/>
	</radialGradient>
	<path class="st3" d="M66,67.8c-1.2,0-2.5-0.4-3.5-1.2c-1-0.8-1.9-1.9-2.3-3.1c-0.4-1.2-0.6-2.7-0.4-4c0.2-1.2,0.8-2.5,1.7-3.5
		s2.1-1.7,3.3-1.9c1.2-0.2,2.5-0.2,3.7,0.4c1.2,0.4,2.1,1.5,2.9,2.5c0.6,1,1,2.5,1,3.7c0,1.9-0.6,3.5-1.9,4.8
		C69.3,67,67.6,67.6,66,67.8z"/>
	
		<radialGradient id="SVGID_5_" cx="-599.8165" cy="-312.7985" r="2.0792" gradientTransform="matrix(1073.62 0 0 264.914 647325.625 83423.0469)" gradientUnits="userSpaceOnUse">
		<stop  offset="0" style="stop-color:#F7971E"/>
		<stop  offset="1" style="stop-color:#FFD200"/>
	</radialGradient>
	<path class="st4" d="M76,58.4l-1,0.6l-0.4-1.2c-0.6-2.1-1.9-3.7-3.5-5s-3.5-1.9-5.6-1.7c-2.1,0-4,0.8-5.4,2.3
		c-1.5,1.2-2.7,3.1-3.1,5.2l-0.2,0.8H39.4l-0.2-0.8c-0.4-2.1-1.5-4-3.1-5.2c-1.5-1.2-3.5-2.1-5.4-2.1c-2.1,0-4,0.6-5.6,1.9
		s-2.9,2.9-3.3,5l-0.2,1l-1-0.6c-1.5-0.8-2.7-2.1-3.3-3.7s-0.8-3.3-0.4-5.2c0.4-1.7,1.2-3.3,2.5-4.4c1.2-1,2.9-1.7,4.6-1.7h48.7
		c1.7,0,3.3,0.6,4.6,1.7s2.3,2.5,2.7,4.2s0.2,3.5-0.4,5C78.5,56.2,77.4,57.6,76,58.4z"/>
	
		<radialGradient id="SVGID_6_" cx="-562.5472" cy="-265.0368" r="2.0792" gradientTransform="matrix(18.1814 0 0 19.2321 10437.4922 5495.7065)" gradientUnits="userSpaceOnUse">
		<stop  offset="0" style="stop-color:#F7971E"/>
		<stop  offset="1" style="stop-color:#FFD200"/>
	</radialGradient>
	<path class="st5" d="M30.6,64.5c-0.6,0-1.5-0.2-1.9-0.6c-0.6-0.4-1-1-1.2-1.7s-0.4-1.5-0.2-2.1c0.2-0.6,0.4-1.5,1-1.9
		c0.4-0.6,1-0.8,1.9-1c0.6-0.2,1.5,0,2.1,0.2c0.6,0.2,1.2,0.8,1.7,1.5c0.4,0.6,0.6,1.2,0.6,2.1c0,1-0.4,1.9-1,2.5
		C32.5,64.1,31.7,64.5,30.6,64.5z"/>
	
		<radialGradient id="SVGID_7_" cx="-550.7134" cy="-265.0368" r="2.0792" gradientTransform="matrix(18.1814 0 0 19.2321 10636.8652 5495.7065)" gradientUnits="userSpaceOnUse">
		<stop  offset="0" style="stop-color:#F7971E"/>
		<stop  offset="1" style="stop-color:#FFD200"/>
	</radialGradient>
	<path class="st6" d="M66,64.5c-0.6,0-1.5-0.2-1.9-0.6c-0.6-0.4-1-1-1.2-1.7s-0.4-1.5-0.2-2.1c0.2-0.6,0.4-1.5,1-1.9
		c0.4-0.6,1-0.8,1.9-1c0.6-0.2,1.5,0,2.1,0.2c0.6,0.2,1.2,0.8,1.7,1.5c0.4,0.6,0.6,1.2,0.6,2.1c0,1-0.4,1.9-1,2.5
		C67.6,64.1,66.8,64.5,66,64.5z"/>
</g>
</svg>
