<?xml version="1.0" encoding="utf-8"?>
<!-- Generator: Adobe Illustrator 22.0.1, SVG Export Plug-In . SVG Version: 6.00 Build 0)  -->
<svg version="1.1" id="圖層_1" xmlns="http://www.w3.org/2000/svg" xmlns:xlink="http://www.w3.org/1999/xlink" x="0px" y="0px"
	 viewBox="0 0 96 96" style="enable-background:new 0 0 96 96;" xml:space="preserve">
<style type="text/css">
	.st0{clip-path:url(#SVGID_2_);}
	.st1{fill:url(#SVGID_3_);}
	.st2{fill:url(#SVGID_4_);}
	.st3{fill:url(#SVGID_5_);}
</style>
<g>
	<g>
		<g>
			<defs>
				<rect id="SVGID_1_" x="21.1" y="21.2" width="57.2" height="50.2"/>
			</defs>
			<clipPath id="SVGID_2_">
				<use xlink:href="#SVGID_1_"  style="overflow:visible;"/>
			</clipPath>
			<g class="st0">
				
					<radialGradient id="SVGID_3_" cx="-554.9149" cy="-236.611" r="2.2881" gradientTransform="matrix(11.7457 0 0 11.7443 6567.3784 2825.1667)" gradientUnits="userSpaceOnUse">
					<stop  offset="0" style="stop-color:#06BEB6"/>
					<stop  offset="1" style="stop-color:#48B1BF"/>
				</radialGradient>
				<path class="st1" d="M77.9,40.2c-0.4-0.4-0.4-0.4-0.8-0.4l-8.2-2.1c0.4-1.6,0.8-2.9,0.8-4.5c0-3.3-1.2-5.8-3.7-7.8
					C63.9,23.3,61,22,58.2,22c-2.9,0-5.8,1.2-7.8,3.3c-2.1,2.1-3.3,4.9-3.7,7.8c0,1.6,0.4,3.7,1.2,5.4l-4.1,0.8
					c-3.3,0.8-3.7,0.8-7,0l-14-3.3c-0.4,0-0.4,0-0.8,0s-0.4,0-0.8,0.4l-0.4,0.4c0,0.4,0,0.4,0,0.8v27.6c0,0.4,0,0.8,0.4,0.8
					c0,0.4,0.4,0.4,0.8,0.4l14,4.5c1.2,0.4,2.9,0.8,4.1,0.8c1.6,0,2.9-0.4,4.1-0.8h0.4l10.3-4.1c2.5-0.8,3.7-0.8,7,0l14,3.3
					c0.4,0,0.4,0,0.8,0s0.4,0,0.8-0.4l0.4-0.4c0,0,0-0.4,0-0.8V41C77.9,40.6,77.9,40.2,77.9,40.2z M58.2,29c0.8,0,1.2,0,1.6,0.4
					c0.4,0.4,0.8,0.8,1.2,1.6c0.4,0.4,0.4,1.2,0,2.1c0,0.8-0.4,1.2-0.8,1.6c-0.4,0.4-1.2,0.8-1.6,0.8c-0.8,0-1.2,0-2.1,0
					c-0.4-0.4-1.2-0.8-1.6-1.2s-0.4-1.2-0.4-1.6c0-0.8,0.4-1.6,0.8-2.5C56.5,29.5,57.3,29,58.2,29L58.2,29z M63.1,63.2
					c-3.7-0.8-5.8-0.8-8.6,0l0,0l-10.3,4.1c-3.3,0.8-3.7,0.8-7,0l-12.8-4.1V39.3l11.5,2.9c3.7,0.8,4.9,0.8,8.6,0l0,0l4.1-1.2
					c2.5,6.2,5.8,13.2,6.2,14.4c0.4,0.4,0.8,1.2,1.2,1.2c0.4,0.4,1.2,0.4,1.6,0.4c0.8,0,1.2,0,1.6-0.4c0.4-0.4,0.8-0.8,1.2-1.2
					c0.4-1.2,4.1-8.6,6.6-14.8l7.8,1.6v24.3L63.1,63.2z"/>
				
					<radialGradient id="SVGID_4_" cx="-418.9076" cy="-60.6913" r="2.2881" gradientTransform="matrix(3.3555 0 0 3.3551 1444.8545 256.1524)" gradientUnits="userSpaceOnUse">
					<stop  offset="0" style="stop-color:#396AFC"/>
					<stop  offset="1" style="stop-color:#2948FF"/>
				</radialGradient>
				<path class="st2" d="M47.5,49.6c0,0-4.5,2.9-7.8,2.9c-3.7,0-8.2-2.9-8.2-2.9c-0.4,0-0.8,0-1.2,0c-0.4,0-0.8,0.4-0.8,0.8
					c-0.4,0-0.4,0.4-0.4,0.8c0,0.4,0.4,0.8,0.8,0.8c0.4,0,5.4,3.3,9.9,3.3s9.5-2.9,9.5-3.3c0.4-0.4,0.4-0.4,0.8-0.8
					c0-0.4,0-0.8,0-1.2c0-0.4-0.4-0.4-0.8-0.8C48.3,49.2,47.9,49.6,47.5,49.6L47.5,49.6z"/>
				
					<radialGradient id="SVGID_5_" cx="-541.0911" cy="-192.1317" r="2.2881" gradientTransform="matrix(13.8901 0 0 8.1442 8116.2471 1807.3177)" gradientUnits="userSpaceOnUse">
					<stop  offset="0" style="stop-color:#396AFC"/>
					<stop  offset="1" style="stop-color:#2948FF"/>
				</radialGradient>
				<path class="st3" d="M68,49.2h-0.4h-0.4l-0.4,0.4L66.4,50v0.4v0.4l0.4,0.4l0.4,0.4l4.1,1.2h0.4c0.4,0,0.4,0,0.4,0l0.4-0.4
					l0.4-0.4c0,0,0-0.4,0-0.8s0-0.4-0.4-0.4l-0.4-0.4c0,0-0.4,0-0.4-0.4L68,49.2z"/>
			</g>
		</g>
	</g>
</g>
</svg>
