<?xml version="1.0" encoding="utf-8"?>
<!-- Generator: Adobe Illustrator 22.0.1, SVG Export Plug-In . SVG Version: 6.00 Build 0)  -->
<svg version="1.1" id="圖層_1" xmlns="http://www.w3.org/2000/svg" xmlns:xlink="http://www.w3.org/1999/xlink" x="0px" y="0px"
	 viewBox="0 0 96 96" style="enable-background:new 0 0 96 96;" xml:space="preserve">
<style type="text/css">
	.st0{fill:url(#SVGID_1_);}
</style>
<g>
	
		<radialGradient id="SVGID_1_" cx="-541.4573" cy="-237.995" r="2.4477" gradientTransform="matrix(9.5391 0 0 11.8257 5213.0674 2862.5078)" gradientUnits="userSpaceOnUse">
		<stop  offset="0" style="stop-color:#36D1DB"/>
		<stop  offset="1" style="stop-color:#5B85E4"/>
	</radialGradient>
	<path class="st0" d="M38.4,32.1v1h-5.8c-0.7,0-1.4,0.7-1.7,1.4l-3.4,32.7c-0.3,1.7,0.3,3.4,1.4,4.5c1,1.4,2.8,2.1,4.5,2.1h29.6
		c1.7,0,3.4-0.7,4.5-2.1c1-1.4,1.7-3.1,1.4-4.5l-3.4-32.7c0-0.7-0.7-1.4-1.7-1.4h-5.8v-1c0-5.5-4.5-9.6-9.6-9.6
		C42.5,22.4,38.4,26.9,38.4,32.1z M41.5,32.1c0-3.8,3.1-6.5,6.5-6.5c3.8,0,6.5,3.1,6.5,6.5v1H41.1v-1H41.5z"/>
</g>
</svg>
