<svg width="17" height="17" viewBox="0 0 17 17" fill="none" xmlns="http://www.w3.org/2000/svg">
<path d="M8.49966 0C3.8054 0 0 3.8054 0 8.49966C0 13.1939 3.8054 16.9993 8.49966 16.9993C13.1939 16.9993 16.9993 13.1939 16.9993 8.49966C16.9993 3.8054 13.1946 0 8.49966 0ZM12.7707 12.3669H11.9376C11.6406 12.3669 11.3886 12.1485 11.3463 11.8549L10.7356 7.60609L9.01095 11.9886C8.92092 12.217 8.70055 12.3669 8.45532 12.3669C8.20606 12.3669 7.98301 12.2123 7.89634 11.9785L6.26238 7.60542L5.65166 11.8542C5.60933 12.1478 5.35739 12.3662 5.06043 12.3662H4.22732C3.85915 12.3662 3.57898 12.0363 3.63811 11.6735L4.79236 4.59617C4.83939 4.30728 5.08865 4.09497 5.38158 4.09497H6.49686C6.7488 4.09497 6.9732 4.25286 7.05853 4.48935L8.50571 8.50504L9.94281 4.49069C10.0275 4.25353 10.2525 4.09497 10.5052 4.09497H11.6191C11.912 4.09497 12.1613 4.30728 12.2083 4.59617L13.3612 11.6742C13.419 12.0377 13.1388 12.3669 12.7707 12.3669Z" fill="white"/>
</svg>
