<?xml version="1.0" encoding="utf-8"?>
<!-- Generator: Adobe Illustrator 22.0.1, SVG Export Plug-In . SVG Version: 6.00 Build 0)  -->
<svg version="1.1" id="圖層_1" xmlns="http://www.w3.org/2000/svg" xmlns:xlink="http://www.w3.org/1999/xlink" x="0px" y="0px"
	 viewBox="0 0 96 96" style="enable-background:new 0 0 96 96;" xml:space="preserve">
<style type="text/css">
	.st0{fill:url(#SVGID_1_);}
</style>
<g>
	
		<radialGradient id="SVGID_1_" cx="-543.3291" cy="-172.6891" r="3.2159" gradientTransform="matrix(9.6929 0 0 6.1812 5314.4297 1116.7885)" gradientUnits="userSpaceOnUse">
		<stop  offset="0" style="stop-color:#642A72"/>
		<stop  offset="1" style="stop-color:#C6426E"/>
	</radialGradient>
	<path class="st0" d="M20.3,26.3l19.6,15.2c0,0-15.8,9.2-22.8,16.8s2.7,3.8,9.8,2.2c7.1-1.6,35.3-10.9,48.9-19.6s9.8-12.5,9.8-12.5
		s-2.2-1.6-7.1-2.2c-2.2,3.3-4.9,6.5-7.1,7.1c-2.2,0.5-1.6-3.3,0-6.5c-1.6,0.5-3.3,0.5-4.9,1.6c0,0-7.1,2.7-12,4.9l-27.2-8.7
		c0,0-1.1-0.5-2.2-0.5C24.1,24.1,22.5,24.6,20.3,26.3z M10,44.7l4.9,10.9c0,0,2.7-3.3,7.6-6l-7.1-5.4c0,0-1.1-0.5-2.7-0.5
		C12.2,43.7,11.1,44.2,10,44.7z M54.5,54.5l12,17.4c4.9-2.2,3.8-7.6,3.8-7.6L69.2,48C64.9,50.7,54.5,54.5,54.5,54.5z"/>
</g>
</svg>
