<?xml version="1.0" encoding="utf-8"?>
<!-- Generator: Adobe Illustrator 22.0.1, SVG Export Plug-In . SVG Version: 6.00 Build 0)  -->
<svg version="1.1" id="圖層_1" xmlns="http://www.w3.org/2000/svg" xmlns:xlink="http://www.w3.org/1999/xlink" x="0px" y="0px"
	 viewBox="0 0 96 96" style="enable-background:new 0 0 96 96;" xml:space="preserve">
<style type="text/css">
	.st0{fill:#C4C4C4;}
</style>
<g>
	<path class="st0" d="M43.7,46.7H33.6c-2.8,0-5.1-2.3-5.1-5.1V31.6c0-2.8,2.3-5.1,5.1-5.1h10.1c2.8,0,5.1,2.3,5.1,5.1v10.1
		C48.5,44.5,46.5,46.7,43.7,46.7z"/>
	<path class="st0" d="M66.5,46.7H56.4c-2.8,0-5.1-2.3-5.1-5.1V31.6c0-2.8,2.3-5.1,5.1-5.1h10.1c2.8,0,5.1,2.3,5.1,5.1v10.1
		C71.3,44.5,69.3,46.7,66.5,46.7z"/>
	<path class="st0" d="M43.7,69.5H33.6c-2.8,0-5.1-2.3-5.1-5.1V54.3c0-2.8,2.3-5.1,5.1-5.1h10.1c2.8,0,5.1,2.3,5.1,5.1v10.1
		C48.5,67.2,46.5,69.5,43.7,69.5z"/>
	<path class="st0" d="M66.5,69.5H56.4c-2.8,0-5.1-2.3-5.1-5.1V54.3c0-2.8,2.3-5.1,5.1-5.1h10.1c2.8,0,5.1,2.3,5.1,5.1v10.1
		C71.3,67.2,69.3,69.5,66.5,69.5z"/>
</g>
</svg>
