<svg width="31" height="34" viewBox="0 0 31 34" fill="none" xmlns="http://www.w3.org/2000/svg">
<g clip-path="url(#clip0)">
<path d="M30.3154 12.4433C30.3056 12.4351 29.3228 11.6162 27.0235 10.8038C24.8829 10.0491 21.138 9.1478 15.4537 9.1478C9.76933 9.1478 6.02446 10.0491 3.88383 10.8038C1.58458 11.6162 0.601755 12.4367 0.593579 12.4433L0.606661 12.4318C-0.475917 11.1943 -0.0523709 9.24832 1.44885 8.58921C3.99667 7.47038 8.4529 6.18182 15.4537 6.18182C22.4561 6.18182 26.9107 7.47038 29.4602 8.59086C30.9614 9.24996 31.3849 11.196 30.3023 12.4334L30.3154 12.4433Z" fill="white"/>
<path d="M15.3687 34C8.47582 34 4.33029 33.5419 2.17004 31.1279C0.295972 29.032 0.33849 25.8254 0.663917 22.6732C0.843802 20.8706 1.31314 19.0465 2.05884 17.2554C3.05965 14.8497 5.17575 13.131 7.7203 12.6548C10.0703 12.2165 12.672 11.9941 15.4537 11.9941C18.219 11.9941 20.8077 12.2132 23.1479 12.6482C25.5698 13.0964 27.6221 14.7178 28.6409 16.9835C29.4863 18.8636 30.0211 20.7767 30.2271 22.6667C30.5755 25.7678 30.6392 28.9348 28.7505 31.0653C26.564 33.5304 22.3596 34 15.3687 34ZM15.4537 14.9584C12.8519 14.9584 10.43 15.1644 8.25669 15.5697C6.69005 15.8614 5.38834 16.9193 4.77346 18.3989C4.1406 19.9198 3.74322 21.4588 3.59277 22.9731C3.24444 26.3577 3.46521 28.1438 4.35809 29.1407C5.76774 30.716 9.61563 31.0324 15.3703 31.0324C21.2117 31.0324 25.1201 30.7061 26.5575 29.0864C27.4487 28.0812 27.6711 26.2588 27.3032 22.9929C27.1331 21.4325 26.6687 19.7781 25.9622 18.2062C25.3408 16.8253 24.0898 15.8367 22.6164 15.5648C20.4512 15.1627 18.0424 14.9584 15.4537 14.9584Z" fill="white"/>
<path d="M11.9508 4.65988C13.2278 4.65988 14.2631 3.61673 14.2631 2.32994C14.2631 1.04315 13.2278 0 11.9508 0C10.6737 0 9.63843 1.04315 9.63843 2.32994C9.63843 3.61673 10.6737 4.65988 11.9508 4.65988Z" fill="white"/>
<path d="M18.9581 4.65988C20.2352 4.65988 21.2704 3.61673 21.2704 2.32994C21.2704 1.04315 20.2352 0 18.9581 0C17.681 0 16.6458 1.04315 16.6458 2.32994C16.6458 3.61673 17.681 4.65988 18.9581 4.65988Z" fill="white"/>
</g>
<defs>
<clipPath id="clip0">
<rect width="30.9091" height="34" fill="white"/>
</clipPath>
</defs>
</svg>
