<?xml version="1.0" encoding="utf-8"?>
<!-- Generator: Adobe Illustrator 23.1.1, SVG Export Plug-In . SVG Version: 6.00 Build 0)  -->
<svg version="1.1" xmlns="http://www.w3.org/2000/svg" xmlns:xlink="http://www.w3.org/1999/xlink" x="0px" y="0px"
	 viewBox="0 0 26.7 26.7" style="enable-background:new 0 0 26.7 26.7;" xml:space="preserve">
<style type="text/css">
	.st0{display:none;}
	.st1{display:inline;}
	.st2{fill-rule:evenodd;clip-rule:evenodd;fill:#FFFFFF;}
	.st3{fill:#FFFFFF;}
	.st4{fill:#B46660;}
</style>
<g id="圖層_1" class="st0">
	<rect x="-1.6" y="-1.6" class="st1" width="30" height="30"/>
</g>
<g id="圖層_2">
	<g>
		<path class="st3" d="M21.3,10.6c0.2-0.7,0.3-1.5,0.1-2.2c-0.2-0.7-0.6-1.4-1.1-1.9s-1.2-0.9-1.9-1.1c-0.7-0.2-1.5-0.1-2.2,0.1
			l-1.7-1.7L3.8,14.5l1.7,1.7c-0.2,0.7-0.3,1.5-0.1,2.2c0.2,0.7,0.6,1.4,1.1,1.9c0.5,0.5,1.2,0.9,1.9,1.1c0.7,0.2,1.5,0.1,2.2-0.1
			l1.7,1.7L23,12.3L21.3,10.6z"/>
		<path class="st4" d="M11.7,12.2c-0.2-0.2-0.5-0.4-0.9-0.5c-0.3-0.1-0.7,0-1,0.1c-0.3,0.1-0.6,0.3-0.8,0.6
			c-0.2,0.3-0.3,0.6-0.3,0.9c0,0.3,0.1,0.7,0.3,0.9c0.2,0.3,0.5,0.5,0.8,0.6c0.3,0.1,0.7,0.2,1,0.1c0.3-0.1,0.6-0.2,0.9-0.5
			c0.3-0.3,0.5-0.8,0.5-1.2C12.2,13,12,12.5,11.7,12.2z M10.8,13.8c-0.1,0.1-0.2,0.1-0.2,0.1c-0.1,0-0.2,0-0.3,0
			c-0.1,0-0.2-0.1-0.2-0.2C10,13.6,10,13.5,10,13.4c0-0.1,0-0.2,0.1-0.3c0.1-0.1,0.1-0.1,0.2-0.2c0.1,0,0.2,0,0.3,0
			c0.1,0,0.2,0.1,0.2,0.1c0,0,0.1,0.1,0.1,0.2c0,0.1,0,0.1,0,0.2c0,0.1,0,0.1,0,0.2C10.9,13.7,10.9,13.7,10.8,13.8z"/>
		<path class="st4" d="M17.5,12.1c-0.3-0.3-0.6-0.5-1-0.5c-0.4,0-0.8,0.1-1.1,0.3c-0.3,0.2-0.6,0.5-0.7,0.9
			c-0.1,0.4-0.1,0.8,0.1,1.2c0.2,0.4,0.4,0.7,0.8,0.9c0.3,0.2,0.8,0.2,1.1,0.2c0.4-0.1,0.7-0.3,1-0.6c0.3-0.3,0.4-0.7,0.4-1.1
			c0-0.2,0-0.4-0.1-0.7C17.7,12.5,17.6,12.3,17.5,12.1z M16.6,13.7c-0.1,0.1-0.2,0.1-0.3,0.1c-0.1,0-0.2,0-0.3-0.1
			c-0.1-0.1-0.2-0.2-0.2-0.3c0-0.1,0-0.2,0-0.3c0-0.1,0.1-0.2,0.2-0.2c0.1-0.1,0.2-0.1,0.3,0c0.1,0,0.2,0.1,0.3,0.2
			c0.1,0.1,0.1,0.2,0.1,0.3C16.7,13.5,16.7,13.6,16.6,13.7L16.6,13.7z"/>
		<path class="st4" d="M13.5,9.2l-1.2,0.1l0.9,8.1l1.2-0.1L13.5,9.2z"/>
	</g>
</g>
</svg>
