<?xml version="1.0" encoding="utf-8"?>
<!-- Generator: Adobe Illustrator 22.0.1, SVG Export Plug-In . SVG Version: 6.00 Build 0)  -->
<svg version="1.1" id="圖層_1" xmlns="http://www.w3.org/2000/svg" xmlns:xlink="http://www.w3.org/1999/xlink" x="0px" y="0px"
	 viewBox="0 0 96 96" style="enable-background:new 0 0 96 96;" xml:space="preserve">
<style type="text/css">
	.st0{fill:url(#SVGID_1_);}
	.st1{fill:url(#SVGID_2_);}
</style>
<g>
	<g>
		
			<radialGradient id="SVGID_1_" cx="-532.4618" cy="-201.015" r="2.2233" gradientTransform="matrix(8.355 0 0 7.8367 4497.5659 1628.9214)" gradientUnits="userSpaceOnUse">
			<stop  offset="0" style="stop-color:#36D1DB"/>
			<stop  offset="1" style="stop-color:#5B85E4"/>
		</radialGradient>
		<path class="st0" d="M48.8,37.5H35.2c-1.2,0-2,1.2-2.4,2.4c-0.8,6-3.6,10.4-4.4,11.2c-1.2,1.2-1.6,3.2-1.6,5.2V65
			c0,2.8,2,5.2,4.8,5.2h17.2H66c2.4,0,4.8-2.4,4.8-5.2v-8.8c0-2-0.8-3.6-1.6-5.2c-0.8-0.8-3.6-5.2-4.4-11.2c0-1.6-1.2-2.4-2.4-2.4
			H48.8z"/>
	</g>
	<g>
		
			<radialGradient id="SVGID_2_" cx="-533.7923" cy="-153.1887" r="2.2233" gradientTransform="matrix(8.5003 0 0 5.3365 4586.1831 855.3855)" gradientUnits="userSpaceOnUse">
			<stop  offset="0" style="stop-color:#36D1DB"/>
			<stop  offset="1" style="stop-color:#5B85E4"/>
		</radialGradient>
		<path class="st1" d="M49.6,28.3c0,0.4,0,0.8,0.4,1.2l-0.8,1.2h-0.4L48,29.5c0-0.4,0.4-0.8,0-1.2c0-1.2-1.2-2.4-2.4-2.4
			c-1.6,0-2.4,1.2-2.4,2.8c0,1.6,1.2,2.8,2.4,2.8c0,0,0,0,0.4,0l0.8,0.8H34.4c-3.2,0-5.6,2.4-6,5.6c-0.4,2.8-1.6,6.8-3.6,9.6
			c-0.4,0.8-0.4,1.6,0,2s0.4,0.4,0.8,0.4c0.4,0,0.8,0,1.2-0.4c2.4-3.2,3.6-8,4.4-11.2c0-1.6,1.6-3.2,3.2-3.2H48h15.2
			c1.6,0,3.2,1.2,3.6,3.2c0.4,3.2,1.6,8,4.4,11.2c0.4,0.4,0.8,0.4,1.2,0.4s0.8,0,0.8-0.4c0.4-0.4,0.8-1.6,0-2
			c-2-2.8-3.2-6.8-3.6-9.6c-0.4-3.2-3.2-5.6-6-5.6H51.2l0.8-1.2c0,0,0,0,0.4,0c1.2,0,2.4-1.2,2.4-2.8c0-1.2-1.2-2.4-2.4-2.4l0,0
			C50.8,25.9,49.6,27.1,49.6,28.3z"/>
	</g>
</g>
</svg>
