<?xml version="1.0" encoding="utf-8"?>
<!-- Generator: Adobe Illustrator 23.1.1, SVG Export Plug-In . SVG Version: 6.00 Build 0)  -->
<svg version="1.1" xmlns="http://www.w3.org/2000/svg" xmlns:xlink="http://www.w3.org/1999/xlink" x="0px" y="0px"
	 viewBox="0 0 26.7 26.7" style="enable-background:new 0 0 26.7 26.7;" xml:space="preserve">
<style type="text/css">
	.st0{display:none;}
	.st1{display:inline;}
	.st2{fill-rule:evenodd;clip-rule:evenodd;fill:#FFFFFF;}
	.st3{fill:#FFFFFF;}
	.st4{fill:#B46660;}
</style>
<g id="圖層_1" class="st0">
	<rect x="-1.6" y="-1.6" class="st1" width="30" height="30"/>
</g>
<g id="圖層_2">
	<path class="st2" d="M4.9,6.5l5.9,4.9c0,0-4.8,2.9-7,5.3c-2.2,2.4,0.9,1.2,3,0.8c2.1-0.5,10.8-3.5,15-6.2c4.1-2.7,3-4,3-4
		s-0.6-0.6-2-0.8c-0.6,1-1.5,2-2.2,2.2c-0.7,0.2-0.4-1,0-2.1c-0.4,0.1-0.9,0.2-1.4,0.5c0,0-2.2,0.9-3.6,1.6L7.2,5.9
		c0,0-0.3-0.2-0.7-0.2C6.1,5.7,5.5,5.9,4.9,6.5z M1.8,12.3l1.5,3.4c0,0,0.9-1,2.3-1.9l-2.4-1.5c0,0-0.3-0.2-0.8-0.2
		C2.4,12.1,2.1,12.1,1.8,12.3z M15.3,15.5L19,21c1.5-0.7,1.2-2.4,1.2-2.4l-0.4-5.2C18.5,14.3,15.3,15.5,15.3,15.5z"/>
</g>
</svg>
