<?xml version="1.0" encoding="utf-8"?>
<!-- Generator: Adobe Illustrator 22.0.1, SVG Export Plug-In . SVG Version: 6.00 Build 0)  -->
<svg version="1.1" id="圖層_1" xmlns="http://www.w3.org/2000/svg" xmlns:xlink="http://www.w3.org/1999/xlink" x="0px" y="0px"
	 viewBox="0 0 96 96" style="enable-background:new 0 0 96 96;" xml:space="preserve">
<style type="text/css">
	.st0{fill:url(#SVGID_1_);}
	.st1{fill:#FFFFFF;}
</style>
<g>
	
		<radialGradient id="SVGID_1_" cx="-548.3333" cy="-194.5103" r="3.5801" gradientTransform="matrix(10.5 0 0 7.35 5805.5 1477.6503)" gradientUnits="userSpaceOnUse">
		<stop  offset="0" style="stop-color:#884371"/>
		<stop  offset="5.000000e-02" style="stop-color:#90486F"/>
		<stop  offset="0.35" style="stop-color:#BA6761"/>
		<stop  offset="0.61" style="stop-color:#D97E57"/>
		<stop  offset="0.84" style="stop-color:#EC8B51"/>
		<stop  offset="1" style="stop-color:#F3904F"/>
	</radialGradient>
	<path class="st0" d="M79.1,36.9c1.1-2.8,1.1-5.5,0.6-8.9c-0.6-3.3-2.2-5.5-4.4-7.8c-2.2-2.2-4.4-3.3-7.8-4.4c-2.8,0-5.5,0-8.3,1.1
		l-6.7-6.7L10.8,51.9l6.1,7.2c-1.1,2.8-1.1,5.5-0.6,8.9c0.6,2.8,2.2,5.5,4.4,7.8s4.4,3.3,7.8,4.4c2.8,0,5.5,0,8.3-1.1l6.7,6.7
		l41.6-41.6L79.1,36.9z"/>
	<path class="st1" d="M41.3,43.6c-0.6-1.1-2.2-1.7-3.3-1.7s-2.8,0-3.9,0.6c-1.1,0-2.2,1.1-2.8,2.2c-1.1,1.1-1.1,2.2-1.1,3.3
		s0.6,2.8,1.1,3.9c0.6,1.1,1.7,2.2,2.8,2.2c1.1,0.6,2.8,0.6,3.9,0.6s2.2-1.1,3.3-1.7c0.6-0.6,1.1-1.1,1.7-2.2
		c0.6-0.6,0.6-1.7,0.6-2.8s0-1.7-0.6-2.8C42.5,44.7,41.9,44.1,41.3,43.6z M38,49.7c0,0-0.6,0.6-1.1,0.6c-0.6,0-0.6,0-1.1,0
		c-0.6,0-0.6-0.6-1.1-0.6c0-0.6-0.6-0.6-0.6-1.1s0-0.6,0.6-1.1c0-0.6,0.6-0.6,1.1-0.6s0.6,0,1.1,0c0.6,0,0.6,0,1.1,0.6l0.6,0.6v0.6
		v0.6C38.6,49.1,38,49.7,38,49.7L38,49.7z"/>
	<path class="st1" d="M64.1,43c-1.1-1.1-2.8-1.7-3.9-1.7c-1.7,0-3.3,0-4.4,1.1c-1.1,1.1-2.2,2.2-2.8,3.9c-0.6,1.7-0.6,3.3,0,4.4
		c0.6,1.7,1.7,2.8,2.8,3.3s2.8,1.1,4.4,0.6c1.7-0.6,2.8-1.1,3.9-2.2s1.7-2.8,1.7-4.4C65.8,45.8,65.2,44.1,64.1,43z M60.8,49.1
		c-0.6,0.6-0.6,0.6-1.1,0.6c-0.6,0-1.1,0-1.1-0.6C58,49.1,58,48.6,58,48s0-1.1,0-1.1c0-0.6,0.6-0.6,1.1-1.1c0.6,0,1.1,0,1.1,0
		c0.6,0,0.6,0.6,1.1,0.6c0.6,0.6,0.6,0.6,0.6,1.1C61.3,48.6,60.8,48.6,60.8,49.1z"/>
	<path class="st1" d="M48.6,31.9l-5,0.6l3.3,31.6l5-0.6L48.6,31.9z"/>
</g>
</svg>
