<?xml version="1.0" encoding="utf-8"?>
<!-- Generator: Adobe Illustrator 22.0.1, SVG Export Plug-In . SVG Version: 6.00 Build 0)  -->
<svg version="1.1" id="圖層_1" xmlns="http://www.w3.org/2000/svg" xmlns:xlink="http://www.w3.org/1999/xlink" x="0px" y="0px"
	 viewBox="0 0 96 96" style="enable-background:new 0 0 96 96;" xml:space="preserve">
<style type="text/css">
	.st0{fill:url(#SVGID_1_);}
</style>
<g>
	
		<radialGradient id="SVGID_1_" cx="-535.7982" cy="-262.9299" r="2.6457" gradientTransform="matrix(9.7512 0 0 15.0462 5272.6753 4004.083)" gradientUnits="userSpaceOnUse">
		<stop  offset="0" style="stop-color:#05BDB6"/>
		<stop  offset="1" style="stop-color:#48B1BF"/>
	</radialGradient>
	<path class="st0" d="M28.1,37.5c0,4.5,3.2,12.7,9.2,24.3c4.5,8.5,9,15.9,9,15.9c0.8,1.3,2.6,1.3,3.4,0c0,0,4.5-7.4,9-15.9
		c6.1-11.6,9.2-19.8,9.2-24.3c0-11.1-9-20.1-19.8-20.1C37,17.4,28.1,26.4,28.1,37.5z M41,37.7c0-4,3.2-6.9,6.9-6.9
		c4,0,6.9,3.2,6.9,6.9c0,4-3.2,6.9-6.9,6.9S41,41.4,41,37.7z"/>
</g>
</svg>
