<svg width="37" height="33" viewBox="0 0 37 33" fill="none" xmlns="http://www.w3.org/2000/svg">
<path d="M6.19857 27.3952V22H3.38477V27.3952C3.38477 30.4859 6.02148 33 9.2629 33H14.3848V30.3174H9.2629C8.45041 30.3165 7.67147 30.0083 7.09699 29.4605C6.52251 28.9126 6.1994 28.1699 6.19857 27.3952V27.3952Z" fill="white"/>
<path d="M30.2303 27.395C30.2295 28.1694 29.9117 28.9119 29.3468 29.4597C28.7818 30.0075 28.0156 30.3158 27.2164 30.3171H22V33H27.2164C30.4053 33 33 30.486 33 27.3954V22H30.2303V27.395Z" fill="white"/>
<path d="M30.2315 5.45304V9.30769H33V5.45304C33 2.44604 30.4053 0 27.2164 0H22V2.60996H27.2164C28.0158 2.61092 28.7823 2.91079 29.3475 3.44379C29.9127 3.97678 30.2306 4.69937 30.2315 5.45304V5.45304Z" fill="white"/>
<path d="M6.19833 5.45319C6.19916 4.69974 6.52205 3.97734 7.09619 3.4444C7.67033 2.91146 8.44887 2.61147 9.26108 2.61022H14.3845V0H9.26265C6.02124 0 3.38452 2.44594 3.38452 5.45283V9.30769H6.19833V5.45319Z" fill="white"/>
<path d="M35.039 13.5388H1.3913C1.2097 13.5351 1.02931 13.5761 0.860644 13.6594C0.691982 13.7428 0.538424 13.8668 0.408924 14.0243C0.279424 14.1818 0.176572 14.3696 0.106365 14.5767C0.0361576 14.7839 0 15.0063 0 15.2309C0 15.4555 0.0361576 15.6779 0.106365 15.885C0.176572 16.0922 0.279424 16.28 0.408924 16.4375C0.538424 16.595 0.691982 16.719 0.860644 16.8024C1.02931 16.8857 1.2097 16.9267 1.3913 16.923H35.039C35.398 16.9155 35.7402 16.734 35.9919 16.4175C36.2436 16.101 36.3846 15.6748 36.3846 15.2309C36.3846 14.787 36.2436 14.3608 35.9919 14.0443C35.7402 13.7278 35.398 13.5462 35.039 13.5388V13.5388Z" fill="white"/>
</svg>
