<?xml version="1.0" encoding="utf-8"?>
<!-- Generator: Adobe Illustrator 23.1.1, SVG Export Plug-In . SVG Version: 6.00 Build 0)  -->
<svg version="1.1" id="圖層_1" xmlns="http://www.w3.org/2000/svg" xmlns:xlink="http://www.w3.org/1999/xlink" x="0px" y="0px"
	 viewBox="0 0 18.2 18.2" style="enable-background:new 0 0 18.2 18.2;" xml:space="preserve">
<style type="text/css">
	.st0{clip-path:url(#SVGID_2_);}
	.st1{fill:#FFFFFF;}
	.st2{clip-path:url(#SVGID_4_);}
	.st3{clip-path:url(#SVGID_6_);}
</style>
<g>
	<defs>
		<rect id="SVGID_3_" x="0.4" y="1.1" width="17.4" height="16"/>
	</defs>
	<clipPath id="SVGID_2_">
		<use xlink:href="#SVGID_3_"  style="overflow:visible;"/>
	</clipPath>
	<g class="st0">
		<path class="st1" d="M3.5,14.4v-2.7H2.2v2.7c0,1.5,1.2,2.8,2.7,2.8h2.4v-1.3H5c-0.4,0-0.7-0.2-1-0.4C3.7,15.1,3.5,14.8,3.5,14.4z"
			/>
		<path class="st1" d="M14.7,14.4c0,0.4-0.2,0.7-0.4,1c-0.3,0.3-0.6,0.4-1,0.4h-2.5v1.3h2.5c1.5,0,2.7-1.2,2.7-2.8v-2.7h-1.3V14.4z"
			/>
		<path class="st1" d="M14.7,3.9v1.9H16V3.9c0-1.5-1.2-2.8-2.7-2.8h-2.5v1.3h2.5c0.4,0,0.7,0.2,1,0.4C14.6,3.1,14.7,3.5,14.7,3.9z"
			/>
		<path class="st1" d="M3.5,3.9c0-0.4,0.2-0.7,0.4-1c0.3-0.3,0.6-0.4,1-0.4h2.4V1.1H5c-1.5,0-2.7,1.2-2.7,2.8v1.9h1.3V3.9z"/>
		<path class="st1" d="M17.2,8.1H1.1c-0.1,0-0.2,0-0.3,0c-0.1,0-0.2,0.1-0.2,0.1C0.6,8.4,0.5,8.4,0.5,8.5S0.4,8.7,0.4,8.8
			c0,0.1,0,0.2,0.1,0.3c0,0.1,0.1,0.2,0.1,0.2c0.1,0.1,0.1,0.1,0.2,0.1c0.1,0,0.2,0,0.3,0h16.1c0.2,0,0.3-0.1,0.5-0.2
			c0.1-0.1,0.2-0.3,0.2-0.5s-0.1-0.3-0.2-0.5C17.5,8.2,17.3,8.1,17.2,8.1z"/>
	</g>
</g>
</svg>
