<?xml version="1.0" encoding="utf-8"?>
<!-- Generator: Adobe Illustrator 22.0.1, SVG Export Plug-In . SVG Version: 6.00 Build 0)  -->
<svg version="1.1" id="圖層_1" xmlns="http://www.w3.org/2000/svg" xmlns:xlink="http://www.w3.org/1999/xlink" x="0px" y="0px"
	 viewBox="0 0 96 96" style="enable-background:new 0 0 96 96;" xml:space="preserve">
<style type="text/css">
	.st0{fill:url(#SVGID_1_);}
	.st1{fill:url(#SVGID_2_);}
</style>
<g>
	<g>
		
			<radialGradient id="SVGID_1_" cx="-518.9593" cy="-295.6681" r="2.3455" gradientTransform="matrix(7.8546 0 0 38.2107 4138.4795 11345.4082)" gradientUnits="userSpaceOnUse">
			<stop  offset="0" style="stop-color:#DBE25B"/>
			<stop  offset="1" style="stop-color:#44B649"/>
		</radialGradient>
		<path class="st0" d="M63.6,22.4L63.6,22.4L63.6,22.4c-0.2,0.2-0.5,0.2-0.7,0.5c-1.4,1.2-5.6,5.6-6.1,11.7
			c-0.5,9.4,4,13.1,5.6,16.7l-1.2,20.4c0,0.9,2.1,1.9,3,1.9c0.9,0,3-0.9,3-1.9l-0.9-47.6c0-0.9-0.9-1.9-1.9-1.9
			C64.3,22.2,63.8,22.2,63.6,22.4z"/>
	</g>
	<g>
		
			<radialGradient id="SVGID_2_" cx="-523.559" cy="-281.8971" r="2.3447" gradientTransform="matrix(8.1344 0 0 23.2101 4296.2124 6591.2124)" gradientUnits="userSpaceOnUse">
			<stop  offset="0" style="stop-color:#DBE25B"/>
			<stop  offset="1" style="stop-color:#44B649"/>
		</radialGradient>
		<path class="st1" d="M42.7,24.8V36h-0.9V24.8c0-0.9-0.9-1.9-1.9-1.9c-0.9,0-1.9,0.9-1.9,1.9V36h-0.9V24.8c0-0.9-0.9-1.9-1.9-1.9
			s-1.9,0.9-1.9,1.9V36h-0.9V25c0-0.9-0.9-1.9-1.9-1.9c-0.9,0-1.9,0.9-1.9,1.9v12.2c0,2.1,1.4,4.2,3.3,5.2l3.3,1.6
			c0.5,0.2,0.7,0.2,1.2,0.5l-1.6,27.7c0,0.9,2.1,1.6,3,1.6s3-0.7,3-1.6l-1.2-27.9c0.5-0.2,0.9-0.2,1.2-0.5l2.3-1.4
			c1.6-0.9,3-3.3,3-5.4V24.8c0-0.9-0.9-1.9-1.9-1.9S42.7,23.6,42.7,24.8z"/>
	</g>
</g>
</svg>
