<svg width="35" height="33" viewBox="0 0 35 33" fill="none" xmlns="http://www.w3.org/2000/svg">
<path d="M9.98581 18H7V21H9.99996L9.98581 18Z" fill="white"/>
<path d="M10.0094 24H7V25.4929C7 25.8926 7.15854 26.276 7.44072 26.5586C7.72291 26.8412 8.10563 27 8.50471 27H15.9999V24H13.0189V21H10.0236L10.0094 24Z" fill="white"/>
<path d="M19.0056 12.0142H21.9999V9.01421H19.0056V6H16.0113V9.01421H13.017V12.0142H16.0113V15.0285H13.017V12.0142H10.0227V9.01421H13.017V6H8.50425C8.10774 5.99998 7.72727 6.1568 7.44557 6.43637C7.16387 6.71594 7.00374 7.09563 7 7.49288V15H10.0227V18H13.017V21H16.0113V18.0284H19.0056V12.0142Z" fill="white"/>
<path d="M22.0002 18H19.0002V21H22.0002V18Z" fill="white"/>
<path d="M25 15H22V18H25V15Z" fill="white"/>
<path d="M21.9908 20.9953V23.9905H19.0002V27H24.9955V23.9905H28.0002V18H24.9955V20.9953H21.9908Z" fill="white"/>
<path d="M26.4929 6.00007H22V9.00476H25V15H28V7.48823C28 7.2916 27.9609 7.09691 27.885 6.91543C27.8091 6.73394 27.6978 6.56929 27.5577 6.43091C27.4176 6.29253 27.2513 6.18319 27.0685 6.10924C26.8858 6.03529 26.6901 5.99819 26.4929 6.00007V6.00007Z" fill="white"/>
<path d="M29.1255 33H5.87488C2.63573 33 0 30.4159 0 27.2391V5.75984C0 2.58408 2.63573 0 5.87488 0H29.1255C32.3646 0 35 2.58408 35 5.75984V27.2391C35 30.4159 32.3646 33 29.1255 33ZM5.87488 2.62853C5.02814 2.62945 4.21634 2.95963 3.61754 3.54664C3.01874 4.13366 2.68183 4.92959 2.6807 5.75984V27.2391C2.68164 28.0695 3.01846 28.8657 3.61727 29.4529C4.21608 30.0401 5.02799 30.3705 5.87488 30.3715H29.1255C29.9723 30.3705 30.7842 30.0401 31.383 29.4529C31.9817 28.8656 32.3185 28.0695 32.3193 27.2391V5.75984C32.3183 4.92962 31.9814 4.13369 31.3827 3.54666C30.7839 2.95964 29.9722 2.62945 29.1255 2.62853H5.87488Z" fill="white"/>
</svg>
