<svg width="17" height="18" viewBox="0 0 17 18" fill="none" xmlns="http://www.w3.org/2000/svg">
<g clip-path="url(#clip0)">
<path d="M9.10933 0.245034C9.02797 0.122565 8.90141 0.0389273 8.75677 0.00905675C8.61212 -0.0208138 8.46145 0.00905675 8.34092 0.0897072L6.32195 1.42193C6.09293 1.57427 6.01157 1.87298 6.13813 2.11792C6.73779 3.27689 6.01759 4.78834 4.4446 4.89588C3.87206 4.93471 3.35677 4.63003 2.9801 4.19989C2.79929 3.99379 2.49494 3.95197 2.26592 4.10431L0.246949 5.43654C-0.00617586 5.60381 -0.0754839 5.94732 0.0932661 6.20122L7.64483 17.4355C8.03657 18.018 8.8321 18.1763 9.41971 17.788L16.3053 13.2417C16.8929 12.8534 17.0526 12.0648 16.6609 11.4823L9.10933 0.245034Z" fill="white"/>
</g>
<defs>
<clipPath id="clip0">
<rect width="16.875" height="18" fill="white"/>
</clipPath>
</defs>
</svg>
