<?xml version="1.0" encoding="utf-8"?>
<!-- Generator: Adobe Illustrator 22.0.1, SVG Export Plug-In . SVG Version: 6.00 Build 0)  -->
<svg version="1.1" id="圖層_1" xmlns="http://www.w3.org/2000/svg" xmlns:xlink="http://www.w3.org/1999/xlink" x="0px" y="0px"
	 viewBox="0 0 96 96" style="enable-background:new 0 0 96 96;" xml:space="preserve">
<style type="text/css">
	.st0{fill:url(#SVGID_1_);}
	.st1{fill:#FFFFFF;}
	.st2{fill:url(#SVGID_2_);}
	.st3{fill:url(#SVGID_3_);}
	.st4{fill:url(#SVGID_4_);}
</style>
<g>
	<g>
		
			<radialGradient id="SVGID_1_" cx="-443.4272" cy="-94.0504" r="3.1323" gradientTransform="matrix(3.8245 0 0 3.8243 1726.7533 390.1864)" gradientUnits="userSpaceOnUse">
			<stop  offset="0" style="stop-color:#E44D26"/>
			<stop  offset="1" style="stop-color:#F06428"/>
		</radialGradient>
		<path class="st0" d="M21.2,18.5c-1.1,0-2.1,1.1-2.1,2.1v19.1c0,1.1,1.1,2.1,2.1,2.1h19.1c1.1,0,2.1-1.1,2.1-2.1V20.6
			c0-1.1-1.1-2.1-2.1-2.1H21.2z"/>
	</g>
	<g>
		<rect x="58.3" y="23.3" class="st1" width="14.3" height="14.3"/>
		
			<radialGradient id="SVGID_2_" cx="-437.2739" cy="-94.0504" r="3.1323" gradientTransform="matrix(3.8245 0 0 3.8243 1737.7892 390.1864)" gradientUnits="userSpaceOnUse">
			<stop  offset="0" style="stop-color:#E44D26"/>
			<stop  offset="1" style="stop-color:#F06428"/>
		</radialGradient>
		<path class="st2" d="M74.7,18.5H55.6c-1.1,0-2.1,1.1-2.1,2.1v19.1c0,1.1,1.1,2.1,2.1,2.1h19.1c1.1,0,2.1-1.1,2.1-2.1V20.6
			C76.8,19.6,75.8,18.5,74.7,18.5z M72.6,37.6H58.3V23.3h14.3V37.6z"/>
	</g>
	<g>
		<rect x="23.8" y="58.8" class="st1" width="14.3" height="14.3"/>
		
			<radialGradient id="SVGID_3_" cx="-443.4272" cy="-87.725" r="3.1323" gradientTransform="matrix(3.8245 0 0 3.8242 1726.7533 401.4948)" gradientUnits="userSpaceOnUse">
			<stop  offset="0" style="stop-color:#E44D26"/>
			<stop  offset="1" style="stop-color:#F06428"/>
		</radialGradient>
		<path class="st3" d="M40.3,54H21.2c-1.1,0-2.1,1.1-2.1,2.1v19.1c0,1.1,1.1,2.1,2.1,2.1h19.1c1.1,0,2.1-1.1,2.1-2.1V56.2
			C42.4,55.1,41.3,54,40.3,54z M38.1,73.1H23.8V58.8h14.3V73.1z"/>
	</g>
	<g>
		
			<radialGradient id="SVGID_4_" cx="-437.2739" cy="-87.725" r="3.1323" gradientTransform="matrix(3.8245 0 0 3.8242 1737.7892 401.4948)" gradientUnits="userSpaceOnUse">
			<stop  offset="0" style="stop-color:#E44D26"/>
			<stop  offset="1" style="stop-color:#F06428"/>
		</radialGradient>
		<path class="st4" d="M72.6,56.2v17h-17c-1.1,0-2.1,1.1-2.1,2.1c0,1.1,1.1,2.1,2.1,2.1h19.1c1.1,0,2.1-1.1,2.1-2.1V56.2
			c0-1.1-1.1-2.1-2.1-2.1S72.6,55.1,72.6,56.2z"/>
	</g>
</g>
</svg>
