<svg width="166" height="44" viewBox="0 0 166 44" fill="none" xmlns="http://www.w3.org/2000/svg">
<path d="M54.1071 41.9694C53.7228 41.9694 53.3385 41.8423 53.0395 41.6306C52.7406 41.3765 52.5271 41.0801 52.4417 40.6989L52.1428 39.4708C52.1428 39.3861 52.0574 39.3014 51.9719 39.3014H48.8119C48.7264 39.3014 48.641 39.3438 48.641 39.4708L48.3421 40.6989C48.2567 41.0801 48.0432 41.3765 47.7443 41.6306C47.4453 41.8847 47.1037 41.9694 46.6767 41.9694H46.5058C46.1642 41.9694 45.908 41.8423 45.6945 41.5882C45.5664 41.4188 45.5237 41.2071 45.5237 41.0377C45.5237 40.953 45.5237 40.826 45.5664 40.7413L48.3848 31.6788C48.5129 31.2976 48.7264 31.0012 49.0254 30.7471C49.367 30.493 49.7086 30.4083 50.093 30.4083H50.7762C51.1606 30.4083 51.5022 30.5354 51.8438 30.7471C52.1855 31.0012 52.399 31.2976 52.4844 31.6788L55.3029 40.7413C55.3456 40.826 55.3456 40.953 55.3456 41.0377C55.3456 41.2495 55.2601 41.4188 55.132 41.5882C54.9185 41.8423 54.6623 41.9694 54.3207 41.9694H54.1071ZM49.1962 37.0146C49.1962 37.057 49.1962 37.0993 49.1962 37.1417C49.1962 37.184 49.2389 37.184 49.2816 37.184H51.3741C51.4168 37.184 51.4595 37.184 51.4595 37.1417C51.4595 37.0993 51.5022 37.057 51.4595 37.0146L51.246 36.1677C51.1606 35.7442 50.9898 35.1513 50.7762 34.3044C50.5627 33.4574 50.4346 32.8645 50.3492 32.4834L50.3065 32.441C50.3065 32.441 50.2638 32.441 50.2638 32.4834C49.8367 34.2197 49.5378 35.4478 49.367 36.1677L49.1962 37.0146Z" fill="#231815"/>
<path d="M60.8525 42.1786C59.6568 42.1786 58.5038 41.8822 57.4789 41.247C57.1799 41.0776 57.0091 40.8235 57.0091 40.4847C57.0091 40.4423 57.0091 40.4 57.0091 40.3576C57.0091 40.0612 57.0945 39.8071 57.308 39.5954C57.5216 39.3413 57.8205 39.1719 58.1621 39.1296C58.2475 39.1296 58.2902 39.1296 58.3756 39.1296C58.6319 39.1296 58.8881 39.2142 59.1443 39.3413C59.7849 39.6801 60.3827 39.8495 60.9379 39.8495C61.4503 39.8495 61.8347 39.7648 62.0909 39.5954C62.3471 39.426 62.4752 39.1719 62.4752 38.8331C62.4752 38.5367 62.3471 38.3249 62.1336 38.1979C61.9201 38.0285 61.5357 37.8591 61.0233 37.6474C60.9379 37.605 60.8525 37.5627 60.8098 37.5627L59.3151 36.9274C58.6319 36.631 58.0767 36.2499 57.607 35.6994C57.1799 35.1488 56.9237 34.5136 56.9237 33.7513C56.9237 32.7773 57.308 31.9304 58.1194 31.2528C58.9308 30.5752 59.913 30.2365 61.1514 30.2365C62.219 30.2365 63.2012 30.5329 64.098 31.0834C64.3542 31.2528 64.4823 31.4645 64.525 31.8033C64.525 31.8457 64.525 31.888 64.525 31.9304C64.525 32.1845 64.4396 32.4385 64.2688 32.6503C64.098 32.9044 63.8417 33.0314 63.5001 33.0738C63.4147 33.0738 63.3293 33.1161 63.2439 33.1161C62.9877 33.1161 62.7741 33.0738 62.6033 32.9467C62.1336 32.735 61.6638 32.6079 61.1514 32.6079C60.7244 32.6079 60.3827 32.6926 60.1265 32.862C59.8703 33.0314 59.7422 33.2855 59.7422 33.582C59.7422 33.709 59.7849 33.7937 59.8276 33.9207C59.8703 34.0054 59.9557 34.0901 59.9984 34.1748C60.0838 34.2595 60.2119 34.3442 60.34 34.4289C60.5108 34.5136 60.6389 34.5983 60.7671 34.6407C60.8952 34.683 61.066 34.7677 61.3222 34.8524C61.4076 34.8524 61.4503 34.8947 61.493 34.8947L62.945 35.4876C64.4823 36.0805 65.251 37.1392 65.251 38.6637C65.251 39.6801 64.8666 40.527 64.0553 41.247C63.2866 41.8398 62.219 42.1786 60.8525 42.1786Z" fill="#231815"/>
<path d="M68.924 41.9665C68.5396 41.9665 68.2407 41.8395 67.9845 41.5854C67.7283 41.3313 67.6002 41.0349 67.6002 40.6538V31.676C67.6002 31.2948 67.7283 30.9984 67.9845 30.7443C68.2407 30.4902 68.5396 30.3632 68.924 30.3632H69.0521C69.4364 30.3632 69.7353 30.4902 69.9916 30.7443C70.2478 30.9984 70.3759 31.2948 70.3759 31.676V40.6538C70.3759 41.0349 70.2478 41.3313 69.9916 41.5854C69.7353 41.8395 69.4364 41.9665 69.0521 41.9665H68.924Z" fill="#231815"/>
<path d="M80.9239 41.9664C80.5396 41.9664 80.1552 41.8394 79.8563 41.6277C79.5574 41.3736 79.3439 41.0771 79.2585 40.696L78.9595 39.4679C78.9595 39.3832 78.8741 39.2985 78.7887 39.2985H75.5859C75.5005 39.2985 75.4151 39.3409 75.4151 39.4679L75.1162 40.696C75.0308 41.0771 74.8173 41.3736 74.5183 41.6277C74.2194 41.8817 73.8778 41.9664 73.4507 41.9664H73.2799C72.9383 41.9664 72.6821 41.8394 72.4685 41.5853C72.3404 41.4159 72.2977 41.2042 72.2977 41.0348C72.2977 40.9501 72.2977 40.823 72.3404 40.7383L75.1589 31.6758C75.287 31.2947 75.5005 30.9983 75.7994 30.7442C76.1411 30.4901 76.4827 30.4054 76.867 30.4054H77.5503C77.9346 30.4054 78.2763 30.5324 78.6179 30.7442C78.9595 30.9983 79.1731 31.2947 79.2585 31.6758L82.0769 40.7383C82.1196 40.823 82.1196 40.9501 82.1196 41.0348C82.1196 41.2465 82.0342 41.4159 81.9061 41.5853C81.6926 41.8394 81.4364 41.9664 81.0947 41.9664H80.9239ZM76.013 37.0117C76.013 37.0541 76.013 37.0964 76.013 37.1387C76.013 37.1811 76.0557 37.1811 76.0984 37.1811H78.1909C78.2336 37.1811 78.2763 37.1811 78.2763 37.1387C78.2763 37.0964 78.319 37.0541 78.2763 37.0117L78.0628 36.1647C77.9773 35.7413 77.8065 35.1484 77.593 34.3014C77.3795 33.4545 77.2514 32.8616 77.166 32.4805L77.1233 32.4381C77.1233 32.4381 77.0806 32.4381 77.0806 32.4805C76.6535 34.2167 76.3546 35.4448 76.1838 36.1647L76.013 37.0117Z" fill="#231815"/>
<path d="M89.2929 41.9665C88.9085 41.9665 88.6096 41.8395 88.3534 41.5854C88.0972 41.3313 87.9691 41.0349 87.9691 40.6538V31.676C87.9691 31.2948 88.0972 30.9984 88.3534 30.7443C88.6096 30.4902 88.9085 30.3632 89.2929 30.3632H94.2465C94.5454 30.3632 94.8444 30.4902 95.0579 30.7019C95.2714 30.9137 95.3995 31.2101 95.3995 31.5066C95.3995 31.803 95.2714 32.0994 95.0579 32.3112C94.8444 32.5229 94.5454 32.65 94.2465 32.65H90.9156C90.8302 32.65 90.7448 32.6923 90.7448 32.8194V35.0638C90.7448 35.1485 90.7875 35.2332 90.9156 35.2332H93.606C93.9476 35.2332 94.2038 35.3602 94.4173 35.572C94.6309 35.7837 94.759 36.0802 94.759 36.3766C94.759 36.7154 94.6309 36.9695 94.4173 37.1812C94.2038 37.393 93.9049 37.52 93.606 37.52H90.9156C90.8302 37.52 90.7448 37.5623 90.7448 37.6894V40.6538C90.7448 41.0349 90.6167 41.3313 90.3605 41.5854C90.1042 41.8395 89.8053 41.9665 89.421 41.9665H89.2929Z" fill="#231815"/>
<path d="M102.405 42.1783C100.825 42.1783 99.6292 41.7124 98.8605 40.7808C98.0491 39.8491 97.6648 38.4516 97.6648 36.5036V31.676C97.6648 31.2948 97.7929 30.9984 98.0491 30.7443C98.3054 30.4902 98.6043 30.3632 98.9886 30.3632H99.1167C99.5011 30.3632 99.8 30.4902 100.056 30.7443C100.312 30.9984 100.441 31.2948 100.441 31.676V36.8001C100.441 37.8588 100.611 38.621 100.91 39.0869C101.209 39.5527 101.722 39.7644 102.362 39.7644C103.045 39.7644 103.515 39.5527 103.857 39.0869C104.199 38.621 104.369 37.8588 104.369 36.8001V31.676C104.369 31.2948 104.497 30.9984 104.754 30.7443C105.01 30.4902 105.309 30.3632 105.693 30.3632H105.736C106.12 30.3632 106.419 30.4902 106.675 30.7443C106.932 30.9984 107.06 31.2948 107.06 31.676V36.5036C107.06 38.4516 106.675 39.8491 105.907 40.7808C105.181 41.7124 103.985 42.1783 102.405 42.1783Z" fill="#231815"/>
<path d="M112.311 41.5854C112.054 41.8395 111.756 41.9665 111.371 41.9665C110.987 41.9665 110.688 41.8395 110.432 41.5854C110.176 41.3313 110.047 41.0349 110.047 40.6538V31.676C110.047 31.2948 110.176 30.9984 110.432 30.7443C110.688 30.4902 110.987 30.3632 111.371 30.3632H111.542C111.969 30.3632 112.311 30.4902 112.695 30.7019C113.037 30.9137 113.336 31.2101 113.506 31.5489L115.812 35.9108L116.965 38.4517C116.965 38.494 117.008 38.494 117.008 38.494C117.051 38.494 117.051 38.494 117.051 38.4517C116.795 36.5036 116.667 35.1062 116.667 34.2168V31.7183C116.667 31.3372 116.795 31.0407 117.051 30.7866C117.307 30.5326 117.606 30.4055 117.99 30.4055C118.375 30.4055 118.674 30.5326 118.93 30.7866C119.186 31.0407 119.314 31.3372 119.314 31.7183V40.6538C119.314 41.0349 119.186 41.3313 118.93 41.5854C118.674 41.8395 118.375 41.9665 117.99 41.9665H117.819C117.392 41.9665 117.051 41.8819 116.667 41.6278C116.325 41.416 116.026 41.1196 115.855 40.7808L113.592 36.3342L112.482 33.8357C112.482 33.7934 112.439 33.7934 112.439 33.7934C112.396 33.7934 112.396 33.7934 112.396 33.8357C112.396 34.0051 112.439 34.4286 112.524 35.0638C112.61 35.7414 112.652 36.2919 112.695 36.7577C112.738 37.2236 112.738 37.647 112.738 38.0705V40.6114C112.695 40.9925 112.567 41.3313 112.311 41.5854Z" fill="#231815"/>
<path d="M127.6 41.9665C127.216 41.9665 126.917 41.8395 126.661 41.5854C126.404 41.3313 126.276 41.0349 126.276 40.6538V31.676C126.276 31.2948 126.404 30.9984 126.661 30.7443C126.917 30.4902 127.216 30.3632 127.6 30.3632H130.376C131.059 30.3632 131.657 30.4479 132.212 30.5749C132.767 30.7019 133.237 30.9137 133.707 31.2101C134.134 31.5066 134.475 31.8877 134.732 32.3959C134.988 32.904 135.116 33.4969 135.116 34.1745C135.116 34.8521 134.988 35.4449 134.732 35.9531C134.475 36.4613 134.134 36.8848 133.707 37.1812C133.28 37.4776 132.767 37.7317 132.255 37.9011C131.7 38.0705 131.102 38.1552 130.461 38.1552H129.266C129.18 38.1552 129.095 38.1976 129.095 38.3246V40.6538C129.095 41.0349 128.967 41.3313 128.71 41.5854C128.454 41.8395 128.155 41.9665 127.771 41.9665H127.6ZM129.052 35.7837C129.052 35.8684 129.095 35.9531 129.223 35.9531H130.29C131.657 35.9531 132.297 35.3602 132.297 34.1745C132.297 33.624 132.127 33.2005 131.785 32.9464C131.443 32.6923 130.931 32.6076 130.205 32.6076H129.223C129.137 32.6076 129.052 32.65 129.052 32.777V35.7837Z" fill="#231815"/>
<path d="M144.083 41.9664C143.699 41.9664 143.315 41.8394 143.016 41.6277C142.717 41.3736 142.503 41.0771 142.418 40.696L142.119 39.4679C142.119 39.3832 142.034 39.2985 141.948 39.2985H138.788C138.703 39.2985 138.617 39.3409 138.617 39.4679L138.318 40.696C138.233 41.0771 138.019 41.3736 137.72 41.6277C137.422 41.8817 137.08 41.9664 136.653 41.9664H136.482C136.14 41.9664 135.884 41.8394 135.671 41.5853C135.543 41.4159 135.5 41.2042 135.5 41.0348C135.5 40.9501 135.5 40.823 135.543 40.7383L138.361 31.6758C138.489 31.2947 138.703 30.9983 139.002 30.7442C139.343 30.4901 139.685 30.4054 140.069 30.4054H140.752C141.137 30.4054 141.478 30.5324 141.82 30.7442C142.162 30.9983 142.375 31.2947 142.461 31.6758L145.279 40.7383C145.322 40.823 145.322 40.9501 145.322 41.0348C145.322 41.2465 145.236 41.4159 145.108 41.5853C144.895 41.8394 144.639 41.9664 144.297 41.9664H144.083ZM139.215 37.0117C139.215 37.0541 139.215 37.0964 139.215 37.1387C139.215 37.1811 139.258 37.1811 139.301 37.1811H141.393C141.436 37.1811 141.478 37.1811 141.478 37.1387C141.478 37.0964 141.521 37.0541 141.478 37.0117L141.265 36.1647C141.179 35.7413 141.009 35.1484 140.795 34.3014C140.582 33.4545 140.454 32.8616 140.368 32.4805L140.325 32.4381C140.325 32.4381 140.283 32.4381 140.283 32.4805C139.856 34.2167 139.557 35.4448 139.386 36.1647L139.215 37.0117Z" fill="#231815"/>
<path d="M150.874 42.1786C149.678 42.1786 148.525 41.8822 147.5 41.247C147.201 41.0776 147.03 40.8235 147.03 40.4847C147.03 40.4423 147.03 40.4 147.03 40.3576C147.03 40.0612 147.116 39.8071 147.329 39.5954C147.543 39.3413 147.842 39.1719 148.183 39.1296C148.269 39.1296 148.311 39.1296 148.397 39.1296C148.653 39.1296 148.909 39.2142 149.166 39.3413C149.806 39.6801 150.404 39.8495 150.959 39.8495C151.472 39.8495 151.856 39.7648 152.112 39.5954C152.368 39.426 152.496 39.1719 152.496 38.8331C152.496 38.5367 152.368 38.3249 152.155 38.1979C151.941 38.0285 151.557 37.8591 151.045 37.6474C150.959 37.605 150.874 37.5627 150.831 37.5627L149.336 36.9274C148.653 36.631 148.098 36.2499 147.628 35.6994C147.201 35.1488 146.945 34.5136 146.945 33.7513C146.945 32.7773 147.329 31.9304 148.141 31.2528C148.952 30.5752 149.934 30.2365 151.173 30.2365C152.24 30.2365 153.222 30.5329 154.119 31.0834C154.375 31.2528 154.504 31.4645 154.546 31.8033C154.546 31.8457 154.546 31.888 154.546 31.9304C154.546 32.1845 154.461 32.4385 154.29 32.6503C154.119 32.9044 153.863 33.0314 153.521 33.0738C153.436 33.0738 153.351 33.1161 153.265 33.1161C153.009 33.1161 152.795 33.0738 152.625 32.9467C152.155 32.735 151.685 32.6079 151.173 32.6079C150.746 32.6079 150.404 32.6926 150.148 32.862C149.892 33.0314 149.763 33.2855 149.763 33.582C149.763 33.709 149.806 33.7937 149.849 33.9207C149.892 34.0054 149.977 34.0901 150.02 34.1748C150.105 34.2595 150.19 34.3442 150.361 34.4289C150.532 34.5136 150.66 34.5983 150.788 34.6407C150.916 34.683 151.087 34.7677 151.343 34.8524C151.429 34.8524 151.472 34.8947 151.514 34.8947L152.966 35.4876C154.504 36.0805 155.272 37.1392 155.272 38.6637C155.272 39.6801 154.888 40.527 154.076 41.247C153.308 41.8398 152.24 42.1786 150.874 42.1786Z" fill="#231815"/>
<path d="M160.909 42.1786C159.713 42.1786 158.56 41.8822 157.535 41.247C157.236 41.0776 157.066 40.8235 157.066 40.4847C157.066 40.4423 157.066 40.4 157.066 40.3576C157.066 40.0612 157.151 39.8071 157.364 39.5954C157.578 39.3413 157.877 39.1719 158.219 39.1296C158.304 39.1296 158.347 39.1296 158.432 39.1296C158.688 39.1296 158.944 39.2142 159.201 39.3413C159.841 39.6801 160.439 39.8495 160.994 39.8495C161.507 39.8495 161.891 39.7648 162.147 39.5954C162.404 39.426 162.532 39.1719 162.532 38.8331C162.532 38.5367 162.403 38.3249 162.19 38.1979C161.976 38.0285 161.592 37.8591 161.08 37.6474C160.994 37.605 160.909 37.5627 160.866 37.5627L159.372 36.9274C158.688 36.631 158.133 36.2499 157.663 35.6994C157.236 35.1488 156.98 34.5136 156.98 33.7513C156.98 32.7773 157.364 31.9304 158.176 31.2528C158.987 30.5752 159.969 30.2365 161.208 30.2365C162.275 30.2365 163.258 30.5329 164.154 31.0834C164.411 31.2528 164.539 31.4645 164.581 31.8033C164.581 31.8457 164.581 31.888 164.581 31.9304C164.581 32.1845 164.496 32.4385 164.325 32.6503C164.154 32.9044 163.898 33.0314 163.557 33.0738C163.471 33.0738 163.386 33.1161 163.3 33.1161C163.044 33.1161 162.831 33.0738 162.66 32.9467C162.19 32.735 161.72 32.6079 161.208 32.6079C160.781 32.6079 160.439 32.6926 160.183 32.862C159.927 33.0314 159.799 33.2855 159.799 33.582C159.799 33.709 159.841 33.7937 159.884 33.9207C159.927 34.0054 160.012 34.0901 160.055 34.1748C160.14 34.2595 160.226 34.3442 160.396 34.4289C160.567 34.5136 160.695 34.5983 160.823 34.6407C160.952 34.683 161.122 34.7677 161.379 34.8524C161.464 34.8524 161.507 34.8947 161.549 34.8947L163.001 35.4876C164.539 36.0805 165.307 37.1392 165.307 38.6637C165.307 39.6801 164.923 40.527 164.112 41.247C163.343 41.8398 162.275 42.1786 160.909 42.1786Z" fill="#231815"/>
<path d="M0 35.9535L9.52299 33.0315L18.4481 15.4147V0L0 35.9535Z" fill="url(#paint0_linear)"/>
<path d="M36.9396 35.9535L27.3739 33.0315L18.4488 15.4147V0L36.9396 35.9535Z" fill="url(#paint1_linear)"/>
<path d="M0 35.9538L5.55151 25.1127L9.52298 33.0318L0 35.9538Z" fill="#C9CE88"/>
<path d="M36.9381 35.9538L31.3866 25.1127L27.3724 33.0318L36.9381 35.9538Z" fill="#6FAFC4"/>
<path d="M18.4478 15.4147L14.5617 7.62264L18.4478 0L22.3765 7.62264L18.4478 15.4147Z" fill="#094187"/>
<path d="M21.1397 27.6536C21.1397 27.6536 21.1397 27.6113 21.1397 27.6536C21.0543 27.6113 21.0116 27.5689 20.9262 27.5689C20.8835 27.5689 20.8835 27.5266 20.8408 27.5266C20.7981 27.5266 20.7554 27.4842 20.7127 27.4842C20.67 27.4419 20.5846 27.4419 20.5419 27.3995C20.5419 27.3995 20.5419 27.3995 20.4992 27.3995C18.0223 26.5526 15.1612 27.3996 13.6665 29.644L13.3676 30.0675C12.4281 31.8038 12.3427 33.9635 13.4103 35.7845L18.1505 44L23.4457 36.1656C24.6842 34.3446 24.7269 32.0578 23.7874 30.2369L23.6166 29.9828C23.0614 28.9241 22.1646 28.1195 21.1397 27.6536Z" fill="url(#paint2_linear)"/>
<path d="M21.4375 33.073C21.4375 34.6399 20.1564 35.9527 18.5336 35.9527C16.9109 35.9527 15.6297 34.6823 15.6297 33.073C15.6297 31.5061 16.9109 30.1934 18.5336 30.1934C20.1564 30.1934 21.4375 31.5061 21.4375 33.073Z" fill="white"/>
<path d="M88.0984 6.64888C88.0984 6.18305 88.2692 5.80192 88.6108 5.46313C88.9524 5.12435 89.3368 4.95496 89.8065 4.95496C90.2763 4.95496 90.6606 5.12435 91.0022 5.46313C91.3439 5.80192 91.5147 6.18305 91.5147 6.64888V25.3668C91.5147 25.8326 91.3439 26.2137 91.0022 26.5525C90.6606 26.8913 90.2763 27.0183 89.8065 27.0183C89.3368 27.0183 88.9524 26.8489 88.6108 26.5525C88.2692 26.2137 88.0984 25.8326 88.0984 25.3668V17.4477C88.0984 17.363 88.0557 17.3206 87.9703 17.363C87.8421 17.4053 87.714 17.4477 87.5859 17.4477C87.4578 17.4477 87.3297 17.4053 87.2016 17.363C86.9454 17.2359 86.7745 17.0665 86.6891 16.8124C86.6464 16.6007 86.561 16.3889 86.4329 16.0925H86.3902C86.3902 16.0925 86.3475 16.0925 86.3475 16.1349V24.6892C86.3475 25.155 86.1767 25.5361 85.8778 25.8326C85.5361 26.129 85.1518 26.2984 84.7248 26.2984C84.2977 26.2984 83.9134 26.129 83.5718 25.8326C83.2301 25.5361 83.102 25.155 83.102 24.6892V17.5747C83.102 17.5323 83.102 17.5323 83.0593 17.49C83.0166 17.4477 83.0166 17.4477 82.9739 17.49C82.8458 17.5323 82.7177 17.5747 82.5896 17.5747C82.4188 17.5747 82.2479 17.5323 82.0771 17.4477C81.7782 17.2783 81.6074 17.0665 81.522 16.7277C81.4793 16.5583 81.4366 16.4313 81.3939 16.3043C81.3939 16.3043 81.3939 16.2619 81.3512 16.2619C81.3085 16.2619 81.3085 16.2619 81.3085 16.3043C81.1376 20.0732 80.4971 23.1223 79.3868 25.4938C79.216 25.9173 78.8743 26.1714 78.4046 26.2561C78.2765 26.2561 78.1484 26.2984 78.063 26.2984C77.7213 26.2984 77.4224 26.2137 77.1235 26.002C76.6964 25.7055 76.4402 25.3667 76.3121 24.9009C76.2694 24.7315 76.2267 24.5198 76.2267 24.3504C76.2267 24.054 76.2694 23.7999 76.3975 23.5034C77.4224 21.3437 77.9776 18.5487 78.063 15.0762C78.063 15.0762 78.063 15.0338 78.0203 15.0338C78.0203 15.0338 77.9776 15.0338 77.9776 15.0762C77.764 15.9231 77.5505 16.643 77.337 17.2783C77.1662 17.617 76.91 17.8711 76.5256 17.9982C76.3548 18.0405 76.2267 18.0829 76.0986 18.0829C75.8424 18.0829 75.6288 18.0405 75.4153 17.9135C75.0737 17.7441 74.8175 17.4477 74.6893 17.0665C74.6466 16.8971 74.6039 16.7277 74.6039 16.5583C74.6039 16.3466 74.6466 16.1349 74.7321 15.9231C75.031 15.2032 75.2872 14.3562 75.5007 13.4246C75.6288 12.9164 75.8851 12.5353 76.3548 12.2388C76.6537 12.0694 76.9527 11.9847 77.2516 11.9847C77.4224 11.9847 77.5932 12.0271 77.764 12.0694C77.8067 12.0694 77.8494 12.0694 77.8921 12.0271C77.9348 11.9847 77.9776 11.9424 77.9776 11.9V6.64888C77.9776 6.18305 78.1484 5.80192 78.4473 5.50548C78.7889 5.1667 79.1733 5.03965 79.6003 5.03965C80.07 5.03965 80.4544 5.20904 80.7533 5.50548C81.0949 5.84427 81.223 6.2254 81.223 6.64888V12.2812C81.223 12.3659 81.2657 12.4082 81.3512 12.3659C81.4793 12.3235 81.6501 12.2812 81.7782 12.2812C81.9063 12.2812 82.0771 12.3235 82.2052 12.3659C82.5042 12.4929 82.7177 12.6623 82.8458 12.9588C82.8458 12.9588 82.8458 13.0011 82.8885 13.0434C82.8885 13.0434 82.8885 13.0858 82.9312 13.0858C82.9312 13.0858 82.9739 13.0858 82.9739 13.0434V7.11471C82.9739 6.64888 83.1447 6.26775 83.4436 5.97131C83.7853 5.67487 84.1696 5.50548 84.5967 5.50548C85.0237 5.50548 85.408 5.67487 85.7497 5.97131C86.0913 6.26775 86.2194 6.64888 86.2194 7.11471V11.773C86.2194 11.8154 86.2621 11.8577 86.3048 11.8154C86.561 11.6883 86.7746 11.6883 87.0308 11.773C87.287 11.8577 87.4578 11.9847 87.5859 12.1965C87.6713 12.3235 87.7567 12.4929 87.8849 12.7047H87.9276C87.9276 12.7047 87.9703 12.7047 87.9703 12.6623V6.64888H88.0984Z" fill="#231815"/>
<path d="M125.934 19.4798C126.063 19.4798 126.148 19.4374 126.276 19.4374C126.575 19.4374 126.831 19.5221 127.045 19.6915C127.386 19.9456 127.557 20.242 127.6 20.6232C127.6 20.7079 127.643 20.7925 127.643 20.8772C127.643 21.216 127.557 21.5548 127.344 21.8513C127.087 22.19 126.746 22.4441 126.319 22.5288C125.379 22.7829 123.458 23.2487 120.554 24.011C120.426 24.0534 120.298 24.0534 120.169 24.0534C119.871 24.0534 119.572 23.9687 119.315 23.7993C118.888 23.5452 118.675 23.2064 118.589 22.7406C118.547 22.6135 118.547 22.5288 118.547 22.4018C118.547 22.1053 118.632 21.8089 118.846 21.5125C119.102 21.1313 119.486 20.8772 119.956 20.7925C120.255 20.7502 120.682 20.6655 121.237 20.5385C121.365 20.4961 121.451 20.4114 121.451 20.242V16.346C121.451 16.1766 121.365 16.0919 121.194 16.0919H120.554C120.127 16.0919 119.742 15.9225 119.443 15.6261C119.145 15.3296 118.974 14.9485 118.974 14.525C118.974 14.1016 119.145 13.7204 119.443 13.424C119.742 13.1275 120.127 12.9582 120.554 12.9582H121.194C121.365 12.9582 121.451 12.8735 121.451 12.7041V9.52796C121.451 9.35857 121.365 9.27387 121.194 9.27387H120.34C119.913 9.27387 119.529 9.10448 119.23 8.80804C118.931 8.51161 118.76 8.13048 118.76 7.66465C118.76 7.24117 118.931 6.86003 119.23 6.52125C119.529 6.22481 119.913 6.05542 120.34 6.05542H125.465C125.934 6.05542 126.319 6.22481 126.618 6.52125C126.917 6.81768 127.087 7.19882 127.087 7.66465C127.087 8.08813 126.917 8.46926 126.618 8.80804C126.319 9.10448 125.934 9.27387 125.465 9.27387H125.038C124.867 9.27387 124.781 9.35857 124.781 9.52796V12.7041C124.781 12.8311 124.867 12.9158 124.995 12.9158H125.337C125.764 12.9158 126.148 13.0852 126.447 13.3816C126.746 13.6781 126.917 14.0592 126.917 14.4827C126.917 14.9062 126.746 15.2873 126.447 15.5837C126.148 15.8802 125.764 16.0496 125.337 16.0496H124.995C124.867 16.0496 124.781 16.1343 124.781 16.3037V19.4798C124.781 19.5221 124.824 19.6068 124.867 19.6492C124.91 19.6915 124.952 19.6915 125.038 19.6915L125.934 19.4798ZM137.977 23.7569H138.361C138.489 23.7569 138.575 23.6722 138.66 23.4605C138.703 23.2487 138.788 22.8253 138.788 22.1477C138.788 21.8089 138.959 21.5125 139.301 21.3431C139.472 21.2584 139.642 21.216 139.813 21.216C139.984 21.216 140.112 21.2584 140.283 21.3007C140.753 21.5125 141.137 21.8089 141.393 22.19C141.607 22.5288 141.735 22.8676 141.735 23.2487C141.735 23.3334 141.735 23.4181 141.692 23.5452C141.479 24.8156 141.18 25.7049 140.71 26.2131C140.24 26.7213 139.6 26.9754 138.746 26.9754H137.294C136.055 26.9754 135.244 26.6789 134.817 26.0861C134.39 25.4932 134.176 24.3921 134.176 22.8253V16.2613C134.176 16.0919 134.091 16.0072 133.92 16.0072H133.322C133.151 16.0072 133.066 16.0919 133.066 16.2613C133.023 17.32 132.938 18.2093 132.852 18.9716C132.767 19.7338 132.596 20.4961 132.34 21.3007C132.084 22.1053 131.785 22.7829 131.443 23.3334C131.059 23.9263 130.589 24.4768 129.991 24.985C129.393 25.4932 128.667 26.0014 127.856 26.3825C127.6 26.5095 127.386 26.5519 127.13 26.5519C126.917 26.5519 126.746 26.5095 126.532 26.4248C126.105 26.2555 125.721 26.0014 125.465 25.5779C125.294 25.3238 125.208 25.1121 125.208 24.858C125.208 24.7309 125.208 24.6462 125.251 24.5192C125.337 24.138 125.593 23.8416 125.934 23.7146C126.575 23.4181 127.087 23.037 127.557 22.6559C127.984 22.2747 128.369 21.8513 128.625 21.4701C128.881 21.0466 129.095 20.5385 129.265 19.9456C129.436 19.3527 129.522 18.8022 129.607 18.2517C129.65 17.7011 129.735 17.0236 129.735 16.219C129.735 16.1766 129.735 16.0919 129.692 16.0496C129.65 16.0072 129.607 15.9649 129.522 15.9649H129.009C128.539 15.9649 128.155 15.7955 127.813 15.499C127.472 15.1603 127.301 14.7791 127.301 14.3133C127.301 13.8475 127.472 13.4663 127.813 13.1275C128.155 12.7888 128.539 12.6194 129.009 12.6194H139.557C140.027 12.6194 140.411 12.7888 140.753 13.1275C141.094 13.4663 141.222 13.8475 141.222 14.3133C141.222 14.7791 141.052 15.1603 140.753 15.499C140.411 15.8378 140.027 15.9649 139.557 15.9649H137.934C137.763 15.9649 137.678 16.0496 137.678 16.219V22.7406C137.678 23.164 137.678 23.4605 137.721 23.5452C137.763 23.6722 137.849 23.7569 137.977 23.7569ZM132.724 6.05542C133.194 6.05542 133.578 6.22481 133.92 6.5636C134.262 6.90238 134.39 7.28351 134.39 7.74934C134.39 8.21517 134.219 8.5963 133.92 8.93509C133.578 9.27387 133.194 9.44327 132.724 9.44327H129.949C129.479 9.44327 129.095 9.27387 128.753 8.93509C128.411 8.5963 128.24 8.21517 128.24 7.74934C128.24 7.28351 128.411 6.90238 128.753 6.5636C129.095 6.22481 129.479 6.05542 129.949 6.05542H132.724Z" fill="#231815"/>
<path d="M66.8756 23.4183C66.5767 23.1219 66.1923 22.9525 65.7653 22.9525H60.7262C60.5554 22.9525 60.47 22.8678 60.47 22.6984V20.2422C60.47 20.1152 60.5554 20.0305 60.6835 20.0305H62.1782H63.7582C64.8258 20.0305 65.6799 19.2259 65.7653 18.2095C65.7653 18.1248 65.7653 18.0825 65.7653 17.9978V13.0007C65.7653 11.8997 64.8685 10.968 63.7155 10.968H60.6835C60.5554 10.968 60.47 10.8833 60.47 10.7563V8.85061C60.47 8.68121 60.5554 8.59652 60.7262 8.59652H65.5091C65.9361 8.59652 66.3204 8.42713 66.6194 8.13069C66.9183 7.83426 67.0891 7.45312 67.0891 7.02964C67.0891 6.60616 66.9183 6.22503 66.6194 5.9286C66.3204 5.63216 65.9361 5.46277 65.5091 5.46277H47.061C46.6339 5.46277 46.2496 5.63216 45.9507 5.9286C45.6518 6.22503 45.4809 6.60616 45.4809 7.02964C45.4809 7.45312 45.6518 7.83426 45.9507 8.13069C46.2496 8.42713 46.6339 8.59652 47.061 8.59652H51.6303C51.8011 8.59652 51.8865 8.68121 51.8865 8.85061V10.7563C51.8865 10.9257 51.8011 10.968 51.673 10.968H48.8118C47.7015 10.968 46.7621 11.8573 46.7621 13.0007V18.0401C46.7621 18.0825 46.7621 18.1248 46.7621 18.2095C46.8475 19.2682 47.7015 20.0728 48.7691 20.0728H50.2211H51.6303C51.7584 20.0728 51.8438 20.1575 51.8438 20.2846V22.7407C51.8438 22.9101 51.7584 22.9948 51.5876 22.9948H46.7194C46.2923 22.9948 45.908 23.1642 45.6091 23.4607C45.3101 23.7571 45.1393 24.1382 45.1393 24.5617C45.1393 24.9852 45.3101 25.3663 45.6091 25.6627C45.908 25.9592 46.2923 26.1286 46.7194 26.1286H65.7653C66.1923 26.1286 66.5767 25.9592 66.8756 25.6627C67.1745 25.3663 67.3453 24.9852 67.3453 24.5617C67.3453 24.0959 67.1745 23.7147 66.8756 23.4183ZM57.0964 22.7407C57.0964 22.9101 57.011 22.9948 56.8402 22.9948H55.3882C55.2174 22.9948 55.132 22.9101 55.132 22.7407V20.0728V19.1412C55.132 18.5906 54.9185 18.0825 54.5342 17.7013C54.1498 17.3202 53.6374 17.1085 53.0822 17.1085H50.3492C50.1784 17.1085 50.093 17.0238 50.093 16.8544V14.1018C50.093 13.9324 50.1784 13.8477 50.3492 13.8477H53.0822C53.6374 13.8477 54.1498 13.6359 54.5342 13.2548C54.9185 12.8737 55.132 12.3655 55.132 11.815V10.9257V8.80826C55.132 8.63887 55.2174 8.55417 55.3882 8.55417H56.7975C56.9683 8.55417 57.0537 8.63887 57.0537 8.80826V10.9257V11.8573C57.0537 12.4078 57.2672 12.916 57.6515 13.2971C58.0359 13.6783 58.5483 13.89 59.1035 13.89H61.9219C62.0928 13.89 62.1782 13.9747 62.1782 14.1441V16.8967C62.1782 17.0661 62.0928 17.1508 61.9219 17.1508H59.1035C58.5483 17.1508 58.0359 17.3625 57.6515 17.7437C57.2672 18.1248 57.0537 18.633 57.0537 19.1835V20.1152V22.7407H57.0964Z" fill="black"/>
<path d="M72.5121 11.1374C74.0923 11.1374 75.3733 9.86709 75.3733 8.30008C75.3733 6.73308 74.0923 5.46277 72.5121 5.46277C70.9319 5.46277 69.6509 6.73308 69.6509 8.30008C69.6509 9.86709 70.9319 11.1374 72.5121 11.1374Z" fill="#231815"/>
<path d="M74.6045 14.3148C74.6045 15.4582 73.665 16.3899 72.512 16.3899C71.359 16.3899 70.4195 15.4582 70.4195 14.3148C70.4195 13.1714 71.359 12.2397 72.512 12.2397C73.665 12.2397 74.6045 13.1714 74.6045 14.3148Z" fill="#231815"/>
<path d="M72.5121 26.087C71.5726 26.087 70.8039 25.3248 70.8039 24.3931V19.7772C70.8039 18.8455 71.5726 18.0833 72.5121 18.0833C73.4516 18.0833 74.2202 18.8455 74.2202 19.7772V24.3931C74.2202 25.3248 73.4516 26.087 72.5121 26.087Z" fill="#231815"/>
<path d="M99.2437 13.254C98.8167 13.254 98.3469 13.5081 98.3469 14.0586V14.2704C98.3469 14.2704 98.3469 14.4398 98.3896 14.4821C98.5604 14.9056 98.9021 15.075 99.2437 15.075C99.7562 15.075 100.183 14.6515 100.183 14.1433C100.183 13.6352 99.7562 13.254 99.2437 13.254Z" fill="#231815"/>
<path d="M102.189 20.0736C102.061 19.9466 102.061 19.8195 102.104 19.6925C103.257 16.5164 103.855 13.3826 103.855 10.2065C103.855 9.9524 103.77 9.74066 103.599 9.48657C103.428 9.23248 103.172 9.10543 102.873 9.06309C102.488 9.02074 101.805 8.97839 100.823 8.97839H99.9262C99.8835 8.97839 99.798 8.93604 99.7553 8.89369C99.7126 8.85135 99.7126 8.809 99.7126 8.76665C99.8835 7.96204 100.012 7.11507 100.182 6.26811C100.182 6.14107 100.225 6.05637 100.225 5.97168C100.225 5.67524 100.14 5.3788 99.9262 5.08237C99.6699 4.74358 99.2856 4.53184 98.8586 4.48949C98.8159 4.48949 98.7305 4.44714 98.6877 4.44714C98.3034 4.44714 97.9618 4.57419 97.6629 4.82828C97.3212 5.12471 97.065 5.4635 97.0223 5.92933C96.8515 6.98803 96.7234 7.91969 96.5953 8.7243C96.5525 8.89369 96.4671 8.97839 96.2963 8.97839H95.8693C95.4422 8.97839 95.0579 9.14778 94.759 9.44422C94.4601 9.74066 94.2892 10.1218 94.2892 10.5876V10.7147C94.2892 11.1381 94.4174 11.4769 94.7163 11.7734C95.0152 12.0698 95.3568 12.1968 95.7839 12.1968C95.912 12.1968 95.9547 12.2392 95.912 12.3662C95.485 14.4836 95.1006 16.3046 94.7163 17.7444C94.6736 17.9138 94.6309 18.0832 94.6309 18.2526C94.6309 18.5491 94.6736 18.8032 94.8017 19.0572C94.9725 19.4807 95.2714 19.7772 95.6985 20.0312L96.6807 20.5394C96.8088 20.5818 96.8942 20.6241 97.0223 20.5394C97.1504 20.4971 97.2358 20.4124 97.2785 20.2853C97.2785 20.243 97.3212 20.243 97.3639 20.243L97.791 20.5818C97.9191 20.6665 97.9191 20.7935 97.8337 20.9206C97.2358 21.8946 96.5098 22.7415 95.6985 23.3767C95.3568 23.6732 95.1433 24.012 95.1006 24.4354C95.1006 24.5201 95.0579 24.6048 95.0579 24.6895C95.0579 25.0283 95.186 25.3248 95.3995 25.6212C95.6985 26.0023 96.0401 26.2564 96.5098 26.3835C96.638 26.3835 96.7661 26.4258 96.8515 26.4258C97.1504 26.4258 97.4493 26.3411 97.7483 26.1294C98.7731 25.2824 99.6699 24.2661 100.439 23.165C100.524 23.038 100.609 22.9956 100.738 23.1227C100.994 23.3767 101.207 23.6308 101.421 23.8426C101.72 24.1814 102.061 24.3508 102.488 24.3508H102.531C102.958 24.3508 103.342 24.139 103.599 23.8002C103.898 23.4191 104.026 22.9956 104.026 22.4874C104.026 21.9369 103.812 21.4711 103.428 21.0899C103.044 20.7935 102.659 20.4547 102.189 20.0736ZM101.165 14.2719C101.165 14.9071 100.609 15.5423 100.268 16.1776C100.225 16.2199 100.14 16.3046 100.14 16.3893C100.097 16.474 100.012 16.6011 99.9689 16.6857C99.7553 17.0669 99.5418 17.448 99.3283 17.7868C98.9867 17.1939 98.6023 16.6434 98.2607 16.0505C97.9191 15.5 97.492 14.9071 97.4493 14.3989C97.4493 14.3566 97.4493 14.2719 97.4493 14.2719V14.0178C97.5774 12.8744 98.4742 12.3239 99.3283 12.3239C99.9689 12.3239 100.738 12.6203 101.079 13.4673C101.122 13.552 101.165 13.5943 101.165 13.679C101.165 13.679 101.25 13.9331 101.25 14.0178V14.2719H101.165Z" fill="#231815"/>
<path d="M116.368 14.2712C116.027 13.9324 115.642 13.8054 115.215 13.8054H112.055C111.885 13.8054 111.799 13.7207 111.799 13.5513V13.0007C111.799 12.8313 111.842 12.7043 111.97 12.6196C113.038 11.4762 114.233 10.0364 115.472 8.2154C115.642 7.96131 115.728 7.70722 115.728 7.41078C115.728 7.32609 115.728 7.24139 115.685 7.1567C115.642 6.77556 115.429 6.43678 115.13 6.18269L114.532 5.75921C114.276 5.58981 114.02 5.46277 113.721 5.46277C113.593 5.46277 113.465 5.46277 113.336 5.50512C113.294 5.50512 113.251 5.54747 113.208 5.54747H105.949C105.522 5.54747 105.137 5.71686 104.838 6.01329C104.539 6.30973 104.369 6.69087 104.369 7.11435C104.369 7.53783 104.539 7.91896 104.838 8.2154C105.137 8.51184 105.522 8.68123 105.949 8.68123H110.902C110.945 8.68123 110.988 8.72358 110.988 8.76593C111.03 8.80827 110.988 8.85062 110.988 8.89297C110.433 9.78228 109.92 10.5445 109.408 11.1374C109.365 11.1798 109.28 11.2221 109.237 11.2221C108.981 11.2221 108.767 11.3068 108.596 11.5186C108.425 11.6879 108.34 11.942 108.34 12.1538V13.5513C108.34 13.7207 108.255 13.8054 108.084 13.8054H105.18C104.71 13.8054 104.326 13.9748 104.027 14.2712C103.685 14.61 103.557 14.9911 103.557 15.4146C103.557 15.8804 103.728 16.2615 104.027 16.558C104.369 16.8968 104.753 17.0238 105.18 17.0238H108.084C108.255 17.0238 108.34 17.1085 108.34 17.2779V23.2913C108.34 23.4184 108.297 23.5454 108.255 23.5878C108.169 23.6301 108.041 23.6725 107.828 23.6725C107.742 23.6725 107.571 23.6725 107.401 23.6725C107.272 23.6725 107.144 23.6725 107.016 23.6725H106.974C106.589 23.6725 106.248 23.8419 106.034 24.1807C105.906 24.3924 105.821 24.6041 105.821 24.8159C105.821 24.9429 105.863 25.1123 105.906 25.2394C106.119 25.7475 106.418 26.171 106.845 26.5098C107.187 26.8062 107.614 26.9333 108.041 26.9333C108.084 26.9333 108.169 26.9333 108.212 26.9333C109.151 26.8486 109.92 26.6792 110.518 26.3828C111.03 26.0863 111.372 25.7052 111.586 25.2394C111.799 24.7735 111.885 24.096 111.885 23.2913V17.3203C111.885 17.1509 111.97 17.0662 112.141 17.0662H115.301C115.771 17.0662 116.155 16.8968 116.454 16.6003C116.795 16.2616 116.924 15.8804 116.924 15.4569C116.838 14.9911 116.667 14.61 116.368 14.2712Z" fill="#231815"/>
<path d="M165.136 13.1276C164.795 12.7888 164.368 12.6194 163.898 12.6194H156.083C155.912 12.6194 155.827 12.5348 155.827 12.3654V11.476V10.502V6.73306V6.18253C155.827 5.67435 155.656 5.25087 155.272 4.86974C154.93 4.48861 154.46 4.31921 153.948 4.31921C153.435 4.31921 153.008 4.48861 152.624 4.86974C152.282 5.25087 152.069 5.67435 152.069 6.18253V12.323C152.069 12.4924 151.984 12.5771 151.813 12.5771H145.194C144.724 12.5771 144.297 12.7465 143.955 13.0853C143.614 13.4241 143.443 13.8052 143.443 14.3134C143.443 14.7792 143.614 15.2027 143.955 15.5415C144.297 15.8803 144.724 16.0496 145.194 16.0496H151.813C151.984 16.0496 152.069 16.1343 152.069 16.3037V25.1968C152.069 25.705 152.24 26.1285 152.624 26.5096C152.966 26.8484 153.435 27.0602 153.948 27.0602C154.46 27.0602 154.887 26.8908 155.272 26.5096C155.613 26.1708 155.827 25.705 155.827 25.1968V20.2845C155.827 20.2421 155.87 20.1998 155.912 20.1574C155.955 20.1151 155.998 20.1151 156.083 20.1574C157.919 20.835 159.499 21.4702 160.823 22.1054C161.122 22.2325 161.378 22.2748 161.677 22.2748C161.891 22.2748 162.062 22.2325 162.275 22.1901C162.788 22.0631 163.172 21.7666 163.428 21.3432C163.599 21.0891 163.684 20.7926 163.684 20.4962C163.684 20.3268 163.642 20.1574 163.599 19.988C163.471 19.5222 163.172 19.1834 162.702 19.014C161.208 18.4211 159.542 17.8283 157.706 17.2354C157.535 17.193 157.407 17.1507 157.236 17.1507C157.065 17.1507 156.895 17.193 156.724 17.2354C156.382 17.3624 156.126 17.5742 155.955 17.8283C155.955 17.8283 155.955 17.8706 155.912 17.8706C155.87 17.8706 155.87 17.8706 155.87 17.8283V16.2614C155.87 16.092 155.955 16.0073 156.126 16.0073H163.941C164.41 16.0073 164.837 15.8379 165.179 15.4991C165.521 15.1603 165.692 14.7792 165.692 14.271C165.649 13.8475 165.478 13.4664 165.136 13.1276Z" fill="black"/>
<path d="M159.67 5.37878C157.834 5.37878 156.297 6.86097 156.297 8.72428C156.297 10.5876 157.791 12.0698 159.67 12.0698C161.506 12.0698 163.044 10.5876 163.044 8.72428C163.001 6.86097 161.506 5.37878 159.67 5.37878ZM161.293 7.58088L160.567 8.25845L161.037 10.0794L160.781 10.3335L159.884 8.89367L158.987 9.74063L158.944 10.3759L157.919 9.3595L158.56 9.31715L159.414 8.42784L157.962 7.53853L158.218 7.28445L160.055 7.75027L160.738 7.03036C160.866 6.90331 161.122 6.90331 161.25 7.03036C161.421 7.2421 161.421 7.45384 161.293 7.58088Z" fill="black"/>
<path d="M137.678 6.94458H137.123V7.24101H137.678V6.94458Z" fill="black"/>
<path d="M136.184 6.94458H135.629V7.24101H136.184V6.94458Z" fill="black"/>
<path d="M138.959 7.58017C138.66 7.58017 138.404 7.32608 138.404 7.02965V6.09799H138.148C138.148 6.09799 138.148 6.05564 138.105 6.05564L137.934 5.80155C138.02 5.80155 138.105 5.71686 138.105 5.63216C138.105 5.54746 138.02 5.46277 137.934 5.46277H137.123C137.038 5.46277 136.952 5.54746 136.952 5.63216C136.952 5.71686 137.038 5.80155 137.123 5.80155H137.507V5.8439L137.678 6.09799H135.244C134.945 6.09799 134.732 6.35208 134.732 6.60617V7.79191H139.386C139.472 7.79191 139.557 7.87661 139.557 7.9613C139.557 8.046 139.472 8.13069 139.386 8.13069H134.732V8.30009C134.732 8.59652 134.945 8.80826 135.244 8.80826L135.458 9.06235H134.945C134.86 9.06235 134.774 9.14705 134.774 9.23174C134.774 9.31644 134.86 9.40113 134.945 9.40113H140.24C140.326 9.40113 140.411 9.31644 140.411 9.23174C140.411 9.14705 140.326 9.06235 140.24 9.06235H139.386L139.173 8.80826H139.472C139.771 8.80826 140.027 8.68122 140.198 8.42713C140.368 8.17304 140.411 7.87661 140.326 7.62252L140.283 7.53782H138.959V7.58017ZM136.525 7.41078C136.525 7.49547 136.44 7.58017 136.354 7.58017H135.5C135.415 7.58017 135.329 7.49547 135.329 7.41078V6.81791C135.329 6.73321 135.415 6.64851 135.5 6.64851H136.354C136.44 6.64851 136.525 6.73321 136.525 6.81791V7.41078ZM138.02 7.41078C138.02 7.49547 137.934 7.58017 137.849 7.58017H136.995C136.909 7.58017 136.824 7.49547 136.824 7.41078V6.81791C136.824 6.73321 136.909 6.64851 136.995 6.64851H137.849C137.934 6.64851 138.02 6.73321 138.02 6.81791V7.41078ZM137.635 9.1047L137.422 8.85061H137.849L138.062 9.1047H137.635ZM136.781 9.1047L136.568 8.85061H136.995L137.208 9.1047H136.781ZM136.141 8.85061L136.354 9.1047H135.927L135.714 8.85061H136.141ZM138.532 9.1047L138.319 8.85061H138.746L138.959 9.1047H138.532ZM140.07 8.13069H139.984C139.899 8.13069 139.813 8.046 139.813 7.9613C139.813 7.87661 139.899 7.79191 139.984 7.79191H140.07C140.155 7.79191 140.24 7.87661 140.24 7.9613C140.24 8.046 140.198 8.13069 140.07 8.13069Z" fill="black"/>
<path d="M138.704 6.98794C138.704 7.11499 138.832 7.24203 138.96 7.24203H140.241L140.07 6.73385C140.028 6.56446 139.899 6.39507 139.729 6.26803C139.558 6.14098 139.387 6.09863 139.173 6.09863H138.704V6.98794Z" fill="black"/>
<path d="M134.388 9.40166H131.1C130.887 9.40166 130.716 9.23227 130.716 9.02053V6.47964C130.716 6.2679 130.887 6.09851 131.1 6.09851H134.388C134.602 6.09851 134.773 6.2679 134.773 6.47964V9.02053C134.773 9.23227 134.602 9.40166 134.388 9.40166Z" fill="black"/>
<defs>
<linearGradient id="paint0_linear" x1="0" y1="17.971" x2="18.4627" y2="17.971" gradientUnits="userSpaceOnUse">
<stop offset="0.1267" stop-color="#C6D9AD"/>
<stop offset="0.2505" stop-color="#C6D9AD"/>
<stop offset="1" stop-color="#B0D1C1"/>
</linearGradient>
<linearGradient id="paint1_linear" x1="36.9262" y1="17.971" x2="18.4633" y2="17.971" gradientUnits="userSpaceOnUse">
<stop offset="0.0579331" stop-color="#395795"/>
<stop offset="1" stop-color="#6FAFC4"/>
</linearGradient>
<linearGradient id="paint2_linear" x1="18.5466" y1="26.177" x2="18.5466" y2="44.3788" gradientUnits="userSpaceOnUse">
<stop offset="0.1267" stop-color="#C6D9AD"/>
<stop offset="0.2505" stop-color="#C6D9AD"/>
<stop offset="1" stop-color="#5BAED2"/>
</linearGradient>
</defs>
</svg>
