<?xml version="1.0" encoding="utf-8"?>
<!-- Generator: Adobe Illustrator 22.0.1, SVG Export Plug-In . SVG Version: 6.00 Build 0)  -->
<svg version="1.1" id="圖層_1" xmlns="http://www.w3.org/2000/svg" xmlns:xlink="http://www.w3.org/1999/xlink" x="0px" y="0px"
	 viewBox="0 0 21 21" style="enable-background:new 0 0 21 21;" xml:space="preserve">
<style type="text/css">
.st0{
  fill: url(#icon_guide);
  transition: fill .4s ease;
}
.st0:hover{
  fill: url(#icon_guide1);
}
</style>
<defs>
    <radialGradient id="icon_guide"
            x1="0%" y1="0%"
            x2="0%" y2="100%"
            spreadMethod="pad">
      <stop offset="0%"   stop-color="#CB356B" stop-opacity="1"/>
      <stop offset="100%" stop-color="#FFAF7B" stop-opacity="1"/>
    </radialGradient>
    <radialGradient id="icon_guide1"
            x1="0%" y1="0%"
            x2="0%" y2="100%"
            spreadMethod="pad">
      <stop offset="0%"   stop-color="#FFAF7B" stop-opacity="1"/>
      <stop offset="100%" stop-color="#CB356B" stop-opacity="1"/>
    </radialGradient>
</defs>
<path class="st0" d="M16.1,14h-3.9V8c0-0.1,0-0.2,0.1-0.2c0.1-0.1,0.2-0.1,0.2-0.1h3.5V9L21,5.9l-4.9-3.1v1.3h-3.9
	c-0.1-0.8-0.5-1.5-1-2c-0.6-0.5-1.3-0.8-2.1-0.8H4.9V0L0,3.1l4.9,3.1V4.9h3.5c0.1,0,0.2,0,0.2,0.1C8.7,5,8.7,5.1,8.7,5.2v4.9H4.9
	V8.8L0,11.9L4.9,15v-1.3h3.5c0.1,0,0.2,0,0.2,0.1c0.1,0.1,0.1,0.2,0.1,0.2v7h3.5v-3.5h3.9v1.3l4.9-3.1l-4.9-3.1V14z M11.4,4.2
	l-0.2,0l-0.2,0l-0.2,0l-0.1,0.1l-0.1,0.1l-0.1,0.1c0,0-0.1,0-0.1,0.1l-0.1,0.1l-0.1,0.1L10,4.8L9.9,4.9c0,0-0.1,0.1-0.1,0.1
	c0,0-0.1,0.1-0.1,0.1c0,0-0.1,0.1-0.1,0.1c0,0-0.1,0.1-0.1,0.1V5.2c0-0.1,0-0.3-0.1-0.4C9.3,4.6,9.2,4.5,9.1,4.4
	C9,4.3,8.9,4.3,8.8,4.2C8.7,4.2,8.5,4.1,8.4,4.1H4.2v0.8L1.3,3.1l2.9-1.8V2h4.9c0.6,0,1.2,0.2,1.6,0.6c0.4,0.4,0.7,0.9,0.8,1.5
	L11.4,4.2z M16.8,13.9l2.9,1.8l-2.9,1.8v-0.8h-4.6v-2.1h4.6V13.9z"/>
</svg>
