<?xml version="1.0" encoding="utf-8"?>
<!-- Generator: Adobe Illustrator 22.0.1, SVG Export Plug-In . SVG Version: 6.00 Build 0)  -->
<svg version="1.1" xmlns="http://www.w3.org/2000/svg" xmlns:xlink="http://www.w3.org/1999/xlink" x="0px" y="0px"
	 viewBox="0 0 15 24" style="enable-background:new 0 0 15 24;" xml:space="preserve">
<style type="text/css">
	.st0{fill:#FFFFFF;filter:url(#Adobe_OpacityMaskFilter);}
	.st1{mask:url(#mask0_1_);}

.st2{
  fill: url(#icon_mark);
  transition: fill .4s ease;
}
.st2:hover{
  fill: url(#icon_mark1);
}
</style>
<defs>
    <radialGradient id="icon_mark"
            x1="0%" y1="0%"
            x2="0%" y2="100%"
            spreadMethod="pad">
      <stop offset="0%"   stop-color="#05BDB6" stop-opacity="1"/>
      <stop offset="100%" stop-color="#48B1BF" stop-opacity="1"/>
    </radialGradient>
    <radialGradient id="icon_mark1"
            x1="0%" y1="0%"
            x2="0%" y2="100%"
            spreadMethod="pad">
      <stop offset="0%"   stop-color="#48B1BF" stop-opacity="1"/>
      <stop offset="100%" stop-color="#05BDB6" stop-opacity="1"/>
    </radialGradient>
	<filter id="Adobe_OpacityMaskFilter" filterUnits="userSpaceOnUse" x="0" y="0" width="15" height="23.1">
		<feColorMatrix  type="matrix" values="1 0 0 0 0  0 1 0 0 0  0 0 1 0 0  0 0 0 1 0"/>
	</filter>
</defs>
<mask maskUnits="userSpaceOnUse" x="0" y="0" width="15" height="23.1" id="mask0_1_">
	<path class="st0" d="M0,7.6c0,1.7,1.2,4.8,3.5,9.2c1.7,3.2,3.4,6,3.4,6c0.3,0.5,1,0.5,1.3,0c0,0,1.7-2.8,3.4-6
		c2.3-4.4,3.5-7.5,3.5-9.2C15,3.4,11.6,0,7.5,0C3.4,0,0,3.4,0,7.6z M4.9,7.6C4.9,6.2,6,5,7.5,5c1.5,0,2.6,1.2,2.6,2.6
		c0,1.5-1.2,2.6-2.6,2.6C6,10.3,4.9,9.1,4.9,7.6z"/>
</mask>
<g class="st1">
	<path class="st2" d="M0,7.6c0,1.7,1.2,4.8,3.5,9.2c1.7,3.2,3.4,6,3.4,6c0.3,0.5,1,0.5,1.3,0c0,0,1.7-2.8,3.4-6
		c2.3-4.4,3.5-7.5,3.5-9.2C15,3.4,11.6,0,7.5,0C3.4,0,0,3.4,0,7.6z M4.9,7.6C4.9,6.2,6,5,7.5,5c1.5,0,2.6,1.2,2.6,2.6
		c0,1.5-1.2,2.6-2.6,2.6C6,10.3,4.9,9.1,4.9,7.6z"/>
</g>
</svg>
