<?xml version="1.0" encoding="utf-8"?>
<!-- Generator: Adobe Illustrator 22.0.1, SVG Export Plug-In . SVG Version: 6.00 Build 0)  -->
<svg version="1.1" xmlns="http://www.w3.org/2000/svg" xmlns:xlink="http://www.w3.org/1999/xlink" x="0px" y="0px"
	 viewBox="0 0 22 20" style="enable-background:new 0 0 22 20;" xml:space="preserve">
<style type="text/css">
	.st0{fill:#FFFFFF;filter:url(#Adobe_OpacityMaskFilter);}
	.st1{mask:url(#mask0_1_);}
	.st3{fill:#FFFFFF;filter:url(#Adobe_OpacityMaskFilter_1_);}
	.st4{mask:url(#mask1_1_);}
.st2{
  fill: url(#icon_wallet);
  transition: fill .4s ease;
}
.st2:hover{
  fill: url(#icon_wallet1);
}
</style>
<defs>
    <radialGradient id="icon_wallet"
            x1="0%" y1="0%"
            x2="0%" y2="100%"
            spreadMethod="pad">
      <stop offset="0%"   stop-color="#36D1DB" stop-opacity="1"/>
      <stop offset="100%" stop-color="#5B85E4" stop-opacity="1"/>
    </radialGradient>
    <radialGradient id="icon_wallet1"
            x1="0%" y1="0%"
            x2="0%" y2="100%"
            spreadMethod="pad">
      <stop offset="0%"   stop-color="#5B85E4" stop-opacity="1"/>
      <stop offset="100%" stop-color="#36D1DB" stop-opacity="1"/>
    </radialGradient>
	<filter id="Adobe_OpacityMaskFilter" filterUnits="userSpaceOnUse" x="1.1" y="5.3" width="19.7" height="14.6">
		<feColorMatrix  type="matrix" values="1 0 0 0 0  0 1 0 0 0  0 0 1 0 0  0 0 0 1 0"/>
	</filter>
</defs>
<mask maskUnits="userSpaceOnUse" x="1.1" y="5.3" width="19.7" height="14.6" id="mask0_1_">
	<path class="st0" d="M11,5.3H5c-0.6,0-1.1,0.5-1.1,1.1c-0.3,2.7-1.7,4.6-1.9,5c-0.5,0.6-0.8,1.4-0.8,2.3v3.9c0,1.3,0.9,2.3,2.1,2.3
		H11h7.8c1.1,0,2.1-1,2.1-2.3v-3.9c0-0.9-0.3-1.7-0.8-2.3c-0.3-0.3-1.6-2.3-1.9-5c-0.1-0.6-0.6-1.1-1.1-1.1H11z"/>
</mask>
<g class="st1">
	<path class="st2" d="M11,5.3H5c-0.6,0-1.1,0.5-1.1,1.1c-0.3,2.7-1.7,4.6-1.9,5c-0.5,0.6-0.8,1.4-0.8,2.3v3.9c0,1.3,0.9,2.3,2.1,2.3
		H11h7.8c1.1,0,2.1-1,2.1-2.3v-3.9c0-0.9-0.3-1.7-0.8-2.3c-0.3-0.3-1.6-2.3-1.9-5c-0.1-0.6-0.6-1.1-1.1-1.1H11z"/>
</g>
<defs>
	<filter id="Adobe_OpacityMaskFilter_1_" filterUnits="userSpaceOnUse" x="0" y="0" width="22" height="10.9">
		<feColorMatrix  type="matrix" values="1 0 0 0 0  0 1 0 0 0  0 0 1 0 0  0 0 0 1 0"/>
	</filter>
</defs>
<mask maskUnits="userSpaceOnUse" x="0" y="0" width="22" height="10.9" id="mask1_1_">
	<path class="st3" d="M11.4,1.2c0,0.2,0,0.3,0.1,0.5l-0.4,0.5c-0.1,0.1-0.2,0.1-0.3,0l-0.4-0.5c0.1-0.2,0.1-0.4,0.1-0.6
		c-0.1-0.6-0.5-1-1-1.1C9,0,8.5,0.5,8.5,1.2c0,0.7,0.5,1.2,1.1,1.2c0,0,0.1,0,0.1,0L10,2.9H4.5C3.2,2.9,2,4,1.8,5.4
		C1.6,6.7,1.1,8.6,0.2,9.8c-0.2,0.3-0.2,0.7,0.1,1c0.1,0.1,0.3,0.2,0.4,0.2c0.2,0,0.3-0.1,0.4-0.2c1.2-1.5,1.7-3.5,1.9-5
		c0.1-0.8,0.8-1.4,1.5-1.4h6.1h6.8c0.8,0,1.4,0.6,1.5,1.4c0.2,1.5,0.8,3.5,1.9,5c0.1,0.2,0.3,0.2,0.4,0.2c0.1,0,0.3-0.1,0.4-0.2
		c0.2-0.2,0.3-0.7,0.1-1c-1-1.2-1.4-3.1-1.6-4.4C20,4,18.8,2.9,17.5,2.9H12l0.4-0.5c0,0,0.1,0,0.1,0c0.6,0,1.1-0.6,1.1-1.3
		c0-0.6-0.5-1.1-1-1.2c0,0,0,0,0,0C11.9,0,11.4,0.5,11.4,1.2z"/>
</mask>
<g class="st4">
	<path class="st2" d="M11.4,1.2c0,0.2,0,0.3,0.1,0.5l-0.4,0.5c-0.1,0.1-0.2,0.1-0.3,0l-0.4-0.5c0.1-0.2,0.1-0.4,0.1-0.6
		c-0.1-0.6-0.5-1-1-1.1C9,0,8.5,0.5,8.5,1.2c0,0.7,0.5,1.2,1.1,1.2c0,0,0.1,0,0.1,0L10,2.9H4.5C3.2,2.9,2,4,1.8,5.4
		C1.6,6.7,1.1,8.6,0.2,9.8c-0.2,0.3-0.2,0.7,0.1,1c0.1,0.1,0.3,0.2,0.4,0.2c0.2,0,0.3-0.1,0.4-0.2c1.2-1.5,1.7-3.5,1.9-5
		c0.1-0.8,0.8-1.4,1.5-1.4h6.1h6.8c0.8,0,1.4,0.6,1.5,1.4c0.2,1.5,0.8,3.5,1.9,5c0.1,0.2,0.3,0.2,0.4,0.2c0.1,0,0.3-0.1,0.4-0.2
		c0.2-0.2,0.3-0.7,0.1-1c-1-1.2-1.4-3.1-1.6-4.4C20,4,18.8,2.9,17.5,2.9H12l0.4-0.5c0,0,0.1,0,0.1,0c0.6,0,1.1-0.6,1.1-1.3
		c0-0.6-0.5-1.1-1-1.2c0,0,0,0,0,0C11.9,0,11.4,0.5,11.4,1.2z"/>
</g>
</svg>
