<?xml version="1.0" encoding="utf-8"?>
<!-- Generator: Adobe Illustrator 23.1.1, SVG Export Plug-In . SVG Version: 6.00 Build 0)  -->
<svg version="1.1" id="圖層_1" xmlns="http://www.w3.org/2000/svg" xmlns:xlink="http://www.w3.org/1999/xlink" x="0px" y="0px"
	 viewBox="0 0 22 20" style="enable-background:new 0 0 22 20;" xml:space="preserve">
<style type="text/css">
	.st0{clip-path:url(#SVGID_2_);}
	.st1{fill:url(#SVGID_3_);}
	.st2{fill:url(#SVGID_4_);}
	.st3{fill:url(#SVGID_5_);}
</style>
<g>
	<g>
		<defs>
			<rect id="SVGID_1_" x="4.1" y="3.9" width="13.9" height="12.2"/>
		</defs>
		<clipPath id="SVGID_2_">
			<use xlink:href="#SVGID_1_"  style="overflow:visible;"/>
		</clipPath>
		<g class="st0">
			
				<radialGradient id="SVGID_3_" cx="-374.3065" cy="555.8196" r="0.5557" gradientTransform="matrix(11.7457 0 0 -11.7443 4407.4927 6537.7124)" gradientUnits="userSpaceOnUse">
				<stop  offset="0" style="stop-color:#06BEB6"/>
				<stop  offset="1" style="stop-color:#48B1BF"/>
			</radialGradient>
			<path class="st1" d="M17.9,8.5c-0.1-0.1-0.1-0.1-0.2-0.1l-2-0.5c0.1-0.4,0.2-0.7,0.2-1.1C15.9,6,15.6,5.4,15,4.9
				c-0.5-0.5-1.2-0.8-1.9-0.8s-1.4,0.3-1.9,0.8c-0.5,0.5-0.8,1.2-0.9,1.9c0,0.4,0.1,0.9,0.3,1.3L9.6,8.3c-0.8,0.2-0.9,0.2-1.7,0
				L4.5,7.5c-0.1,0-0.1,0-0.2,0c-0.1,0-0.1,0-0.2,0.1c0,0-0.1,0.1-0.1,0.1c0,0.1,0,0.1,0,0.2v6.7c0,0.1,0,0.2,0.1,0.2
				c0,0.1,0.1,0.1,0.2,0.1l3.4,1.1c0.3,0.1,0.7,0.2,1,0.2c0.4,0,0.7-0.1,1-0.2l0.1,0l2.5-1c0.6-0.2,0.9-0.2,1.7,0l3.4,0.8
				c0.1,0,0.1,0,0.2,0c0.1,0,0.1,0,0.2-0.1c0,0,0.1-0.1,0.1-0.1s0-0.1,0-0.2V8.7C17.9,8.6,17.9,8.5,17.9,8.5z M13.1,5.8
				c0.2,0,0.3,0,0.4,0.1c0.1,0.1,0.2,0.2,0.3,0.4c0.1,0.1,0.1,0.3,0,0.5c0,0.2-0.1,0.3-0.2,0.4c-0.1,0.1-0.3,0.2-0.4,0.2
				c-0.2,0-0.3,0-0.5,0c-0.1-0.1-0.3-0.2-0.4-0.3c-0.1-0.1-0.1-0.3-0.1-0.4c0-0.2,0.1-0.4,0.2-0.6C12.7,5.9,12.9,5.8,13.1,5.8
				L13.1,5.8z M14.3,14.1c-0.9-0.2-1.4-0.2-2.1,0l0,0l-2.5,1c-0.8,0.2-0.9,0.2-1.7,0l-3.1-1V8.3L7.7,9c0.9,0.2,1.2,0.2,2.1,0l0,0
				l1-0.3c0.6,1.5,1.4,3.2,1.5,3.5c0.1,0.1,0.2,0.3,0.3,0.3c0.1,0.1,0.3,0.1,0.4,0.1c0.2,0,0.3,0,0.4-0.1c0.1-0.1,0.2-0.2,0.3-0.3
				c0.1-0.3,1-2.1,1.6-3.6L17.2,9v5.9L14.3,14.1z"/>
			
				<radialGradient id="SVGID_4_" cx="-286.9619" cy="431.8271" r="0.5557" gradientTransform="matrix(3.3555 0 0 -3.3551 971.399 1460.3273)" gradientUnits="userSpaceOnUse">
				<stop  offset="0" style="stop-color:#396AFC"/>
				<stop  offset="1" style="stop-color:#2948FF"/>
			</radialGradient>
			<path class="st2" d="M10.5,10.8c0,0-1.1,0.7-1.9,0.7c-0.9,0-2-0.7-2-0.7c-0.1,0-0.2,0-0.3,0c-0.1,0-0.2,0.1-0.2,0.2
				C6,11,6,11.1,6,11.2c0,0.1,0.1,0.2,0.2,0.2c0.1,0,1.3,0.8,2.4,0.8c1.1,0,2.3-0.7,2.3-0.8c0.1-0.1,0.1-0.1,0.2-0.2
				c0-0.1,0-0.2,0-0.3s-0.1-0.1-0.2-0.2C10.7,10.7,10.6,10.8,10.5,10.8L10.5,10.8z"/>
			
				<radialGradient id="SVGID_5_" cx="-387.3648" cy="538.5154" r="0.5557" gradientTransform="matrix(13.8901 0 0 -8.1442 5525.3369 4443.4336)" gradientUnits="userSpaceOnUse">
				<stop  offset="0" style="stop-color:#396AFC"/>
				<stop  offset="1" style="stop-color:#2948FF"/>
			</radialGradient>
			<path class="st3" d="M15.5,10.7c0,0-0.1,0-0.1,0c0,0-0.1,0-0.1,0c0,0-0.1,0.1-0.1,0.1c0,0-0.1,0.1-0.1,0.1c0,0,0,0.1,0,0.1
				c0,0,0,0.1,0,0.1c0,0,0.1,0.1,0.1,0.1c0,0,0.1,0.1,0.1,0.1l1,0.3c0,0,0.1,0,0.1,0c0.1,0,0.1,0,0.1,0c0,0,0.1-0.1,0.1-0.1
				c0,0,0.1-0.1,0.1-0.1c0,0,0-0.1,0-0.2c0-0.1,0-0.1-0.1-0.1c0,0-0.1-0.1-0.1-0.1c0,0-0.1,0-0.1-0.1L15.5,10.7z"/>
		</g>
	</g>
</g>
</svg>
