<?xml version="1.0" encoding="utf-8"?>
<!-- Generator: Adobe Illustrator 22.0.1, SVG Export Plug-In . SVG Version: 6.00 Build 0)  -->
<svg version="1.1" xmlns="http://www.w3.org/2000/svg" xmlns:xlink="http://www.w3.org/1999/xlink" x="0px" y="0px"
	 viewBox="0 0 20 22" style="enable-background:new 0 0 20 22;" xml:space="preserve">
<style type="text/css">
.st0{
  fill: url(#icon_traffic);
  transition: fill .4s ease;
}
.st0:hover{
  fill: url(#icon_traffic1);
}
.st1{fill:url(#SVGID_1_);}
</style>
<defs>
    <radialGradient id="icon_traffic"
            x1="0%" y1="0%"
            x2="0%" y2="100%"
            spreadMethod="pad">
      <stop offset="0%"   stop-color="#2948FF" stop-opacity="1"/>
      <stop offset="100%" stop-color="#396AFC" stop-opacity="1"/>
    </radialGradient>
    <radialGradient id="icon_traffic1"
            x1="0%" y1="0%"
            x2="0%" y2="100%"
            spreadMethod="pad">
      <stop offset="0%"   stop-color="#396AFC" stop-opacity="1"/>
      <stop offset="100%" stop-color="#2948FF" stop-opacity="1"/>
    </radialGradient>
</defs>
<g>
	<path class="st0" d="M19.1,20.6L16,17.9c0.6-0.2,1.2-0.7,1.5-1.2c0.4-0.6,0.6-1.2,0.6-1.9v-9c0-0.9-0.4-1.7-1-2.3
		c-0.6-0.6-1.5-1-2.3-1H14l-0.7-1.4c-0.2-0.3-0.4-0.6-0.8-0.8C12.2,0.1,11.8,0,11.4,0H7.9C7.6,0,7.2,0.1,6.9,0.3
		C6.5,0.5,6.3,0.8,6.1,1.1L5.4,2.5H4.6c-0.9,0-1.7,0.4-2.3,1s-1,1.5-1,2.3v9c0,0.7,0.2,1.3,0.6,1.9c0.4,0.6,0.9,1,1.5,1.2l-3.1,2.7
		c-0.1,0.1-0.1,0.1-0.2,0.2C0,20.9,0,21,0,21.2c0,0.1,0,0.2,0,0.3c0,0.1,0.1,0.2,0.2,0.3c0.1,0.1,0.2,0.1,0.2,0.2
		C0.5,22,0.6,22,0.7,22c0.1,0,0.2,0,0.3,0c0.1,0,0.2-0.1,0.3-0.2l1.3-1.1h14.3l1.3,1.1c0.1,0.1,0.3,0.2,0.5,0.2h0.1
		c0.1,0,0.2,0,0.3-0.1c0.1,0,0.2-0.1,0.2-0.2c0.1-0.2,0.2-0.4,0.2-0.6C19.3,20.9,19.3,20.8,19.1,20.6z M14.2,11.4
		c-0.3,0.2-0.7,0.3-1.1,0.3H6.3c-0.4,0-0.8-0.1-1.1-0.3c-0.3-0.2-0.6-0.5-0.7-0.9L2.9,6.4h13.7l-1.6,4.1
		C14.8,10.9,14.5,11.2,14.2,11.4z"/>
	
		<radialGradient id="SVGID_1_" cx="-404.3569" cy="427.5297" r="0.9999" gradientTransform="matrix(5.7772 0 0 -5.7772 2345.7314 2483.7048)" gradientUnits="userSpaceOnUse">
		<stop  offset="0" style="stop-color:#4DD6FF"/>
		<stop  offset="1" style="stop-color:#E2E2E2"/>
	</radialGradient>
	<path class="st1" d="M7.9,17.9v-0.7c0-0.5,0.2-0.9,0.6-1.2c0.3-0.3,0.8-0.5,1.3-0.5s0.9,0.2,1.3,0.5c0.3,0.3,0.5,0.8,0.6,1.2v0.7
		h3.3c0.5,0,1-0.2,1.4-0.6c0.4-0.4,0.6-0.9,0.6-1.4V9.7l-0.9,2.2c-0.2,0.6-0.6,1.1-1.1,1.4c-0.5,0.3-1.1,0.5-1.7,0.5H6.3
		c-0.6,0-1.2-0.2-1.7-0.5c-0.5-0.3-0.9-0.8-1.1-1.4L2.6,9.7v6.1c0,0.5,0.2,1,0.6,1.4c0.4,0.4,0.9,0.6,1.4,0.6H7.9z M13.1,15.4
		c0.1-0.1,0.3-0.2,0.5-0.2h1.3c0.2,0,0.3,0.1,0.4,0.2c0.1,0.1,0.2,0.3,0.2,0.5c0,0.2-0.1,0.3-0.2,0.5c-0.1,0.1-0.3,0.2-0.4,0.2h-1.3
		c-0.2,0-0.3-0.1-0.5-0.2c-0.1-0.1-0.2-0.3-0.2-0.5C12.9,15.7,12.9,15.5,13.1,15.4z M4.2,16.3C4,16.2,4,16,4,15.9
		c0-0.2,0.1-0.3,0.2-0.5c0.1-0.1,0.3-0.2,0.5-0.2h1.3c0.2,0,0.3,0.1,0.5,0.2c0.1,0.1,0.2,0.3,0.2,0.5c0,0.2-0.1,0.3-0.2,0.5
		c-0.1,0.1-0.3,0.2-0.5,0.2H4.6C4.4,16.5,4.3,16.4,4.2,16.3z"/>
</g>
</svg>
