<?xml version="1.0" encoding="utf-8"?>
<!-- Generator: Adobe Illustrator 22.0.1, SVG Export Plug-In . SVG Version: 6.00 Build 0)  -->
<svg version="1.1" id="圖層_1" xmlns="http://www.w3.org/2000/svg" xmlns:xlink="http://www.w3.org/1999/xlink" x="0px" y="0px"
	 viewBox="0 0 24 15" style="enable-background:new 0 0 24 15;" xml:space="preserve">
<style type="text/css">
	.st0{fill:#FFFFFF;filter:url(#Adobe_OpacityMaskFilter);}
	.st1{mask:url(#mask0_1_);}
.st2{
  fill: url(#icon_airplane);
  transition: fill .4s ease;
}
.st2:hover{
  fill: url(#icon_airplane1);
}
</style>
<defs>
    <radialGradient id="icon_airplane"
            x1="0%" y1="0%"
            x2="0%" y2="100%"
            spreadMethod="pad">
      <stop offset="0%"   stop-color="#642A72" stop-opacity="1"/>
      <stop offset="100%" stop-color="#C6426E" stop-opacity="1"/>
    </radialGradient>
    <radialGradient id="icon_airplane1"
            x1="0%" y1="0%"
            x2="0%" y2="100%"
            spreadMethod="pad">
      <stop offset="0%"   stop-color="#C6426E" stop-opacity="1"/>
      <stop offset="100%" stop-color="#642A72" stop-opacity="1"/>
    </radialGradient>
	<filter id="Adobe_OpacityMaskFilter" filterUnits="userSpaceOnUse" x="0" y="0" width="23.5" height="15">
		<feColorMatrix  type="matrix" values="1 0 0 0 0  0 1 0 0 0  0 0 1 0 0  0 0 0 1 0"/>
	</filter>
</defs>
<mask maskUnits="userSpaceOnUse" x="0" y="0" width="23.5" height="15" id="mask0_1_">
	<path class="st0" d="M3.1,0.7l6,4.8c0,0-4.9,2.8-7.1,5.2c-2.2,2.4,0.9,1.2,3.1,0.8c2.2-0.5,11-3.4,15.3-6.1
		c4.2-2.7,3.1-3.9,3.1-3.9s-0.7-0.6-2.1-0.8c-0.6,0.9-1.5,2-2.2,2.2c-0.7,0.2-0.4-1,0-2c-0.4,0.1-0.9,0.2-1.5,0.4
		c0,0-2.3,0.9-3.7,1.6L5.5,0.2c0,0-0.3-0.2-0.7-0.2C4.3,0,3.7,0.1,3.1,0.7z M0,6.4l1.6,3.3c0,0,0.9-1,2.4-1.9L1.6,6.4
		c0,0-0.4-0.2-0.8-0.2C0.5,6.2,0.3,6.3,0,6.4z M13.7,9.6l3.7,5.4c1.5-0.7,1.2-2.4,1.2-2.4l-0.4-5.1C17,8.4,13.7,9.6,13.7,9.6z"/>
</mask>
<g class="st1">
	<path class="st2" d="M3.1,0.7l6,4.8c0,0-4.9,2.8-7.1,5.2c-2.2,2.4,0.9,1.2,3.1,0.8c2.2-0.5,11-3.4,15.3-6.1
		c4.2-2.7,3.1-3.9,3.1-3.9s-0.7-0.6-2.1-0.8c-0.6,0.9-1.5,2-2.2,2.2c-0.7,0.2-0.4-1,0-2c-0.4,0.1-0.9,0.2-1.5,0.4
		c0,0-2.3,0.9-3.7,1.6L5.5,0.2c0,0-0.3-0.2-0.7-0.2C4.3,0,3.7,0.1,3.1,0.7z M0,6.4l1.6,3.3c0,0,0.9-1,2.4-1.9L1.6,6.4
		c0,0-0.4-0.2-0.8-0.2C0.5,6.2,0.3,6.3,0,6.4z M13.7,9.6l3.7,5.4c1.5-0.7,1.2-2.4,1.2-2.4l-0.4-5.1C17,8.4,13.7,9.6,13.7,9.6z"/>
</g>
</svg>
