<?xml version="1.0" encoding="utf-8"?>
<!-- Generator: Adobe Illustrator 23.1.1, SVG Export Plug-In . SVG Version: 6.00 Build 0)  -->
<svg version="1.1" id="圖層_1" xmlns="http://www.w3.org/2000/svg" xmlns:xlink="http://www.w3.org/1999/xlink" x="0px" y="0px"
	 viewBox="0 0 37.3 38.8" style="enable-background:new 0 0 37.3 38.8;" xml:space="preserve">
<style type="text/css">
	.st0{fill:url(#SVGID_1_);}
	.st1{fill:url(#SVGID_2_);}
	.st2{fill:url(#SVGID_3_);}
	.st3{fill:url(#SVGID_4_);}
	.st4{fill:url(#SVGID_5_);}
	.st5{fill:url(#SVGID_6_);}
	.st6{fill:url(#SVGID_7_);}
	.st7{fill:url(#SVGID_8_);}
	.st8{fill:url(#SVGID_9_);}
	.st9{fill:url(#SVGID_10_);}
	.st10{fill:url(#SVGID_11_);}
	.st11{fill:url(#SVGID_12_);}
	.st12{fill:url(#SVGID_13_);}
	.st13{fill:url(#SVGID_14_);}
	.st14{fill:url(#SVGID_15_);}
	.st15{fill:url(#SVGID_16_);}
	.st16{fill:url(#SVGID_17_);}
	.st17{fill:url(#SVGID_18_);}
	.st18{fill:#C4C4C4;}
</style>
<radialGradient id="SVGID_1_" cx="-367.3842" cy="566.9731" r="0.9997" gradientTransform="matrix(12.0109 0 0 -12.004 4431.2612 6825.3696)" gradientUnits="userSpaceOnUse">
	<stop  offset="0" style="stop-color:#CB356B"/>
	<stop  offset="0.49" style="stop-color:#D76D77"/>
	<stop  offset="1" style="stop-color:#FFAF7B"/>
</radialGradient>
<path class="st0" d="M25.1,23.4h-4.4v-6.8c0-0.1,0-0.2,0.1-0.3c0.1-0.1,0.2-0.1,0.3-0.1h4v1.5l5.5-3.5l-5.6-3.5v1.5h-4.4
	c-0.1-0.9-0.5-1.7-1.2-2.3c-0.7-0.6-1.5-0.9-2.4-0.9h-4.8V7.4L6.7,11l5.6,3.5V13h4c0.1,0,0.2,0,0.3,0.1c0.1,0.1,0.1,0.2,0.1,0.3V19
	h-4.4v-1.5L6.7,21l5.6,3.5V23h4c0.1,0,0.2,0,0.3,0.1c0.1,0.1,0.1,0.2,0.1,0.3v8h4v-4h4.4V29l5.6-3.5l-5.6-3.5V23.4z M19.7,12.2
	l-0.2,0l-0.2,0l-0.2,0L19,12.4l-0.2,0.1l-0.2,0.1c-0.1,0-0.1,0-0.2,0.1l-0.1,0.1l-0.1,0.1l-0.1,0.1L17.9,13c0,0-0.1,0.1-0.1,0.1
	c0,0-0.1,0.1-0.1,0.1c0,0-0.1,0.1-0.1,0.1c0,0-0.1,0.1-0.1,0.1v-0.1c0-0.2,0-0.3-0.1-0.5c-0.1-0.1-0.1-0.3-0.3-0.4
	c-0.1-0.1-0.2-0.2-0.4-0.3c-0.1-0.1-0.3-0.1-0.5-0.1h-4.8V13l-3.3-2l3.3-2.1v0.9H17c0.7,0,1.3,0.2,1.9,0.7c0.5,0.4,0.8,1.1,0.9,1.7
	L19.7,12.2z M25.9,23.3l3.3,2.1l-3.3,2.1v-0.9h-5.2v-2.4h5.2V23.3z"/>
</svg>
