<?xml version="1.0" encoding="utf-8"?>
<!-- Generator: Adobe Illustrator 23.1.1, SVG Export Plug-In . SVG Version: 6.00 Build 0)  -->
<svg version="1.1" id="圖層_1" xmlns="http://www.w3.org/2000/svg" xmlns:xlink="http://www.w3.org/1999/xlink" x="0px" y="0px"
	 viewBox="0 0 25 22" style="enable-background:new 0 0 25 22;" xml:space="preserve">
<style type="text/css">
	.st0{fill-rule:evenodd;clip-rule:evenodd;fill:#FFFFFF;filter:url(#Adobe_OpacityMaskFilter);}
	.st1{mask:url(#mask0_2_);}
	.st2{fill-rule:evenodd;clip-rule:evenodd;fill:url(#SVGID_1_);}
</style>
<defs>
	<filter id="Adobe_OpacityMaskFilter" filterUnits="userSpaceOnUse" x="6.5" y="3.6" width="12.1" height="15">
		<feColorMatrix  type="matrix" values="1 0 0 0 0  0 1 0 0 0  0 0 1 0 0  0 0 0 1 0"/>
	</filter>
</defs>
<mask maskUnits="userSpaceOnUse" x="6.5" y="3.6" width="12.1" height="15" id="mask0_2_">
	<path class="st0" d="M9.7,6.4v0.3H8c-0.2,0-0.4,0.2-0.5,0.4l-1,9.5c-0.1,0.5,0.1,1,0.4,1.3c0.3,0.4,0.8,0.6,1.3,0.6h8.6
		c0.5,0,1-0.2,1.3-0.6c0.3-0.4,0.5-0.9,0.4-1.3l-1-9.5c0-0.2-0.2-0.4-0.5-0.4h-1.7V6.4c0-1.6-1.3-2.8-2.8-2.8
		C10.9,3.6,9.7,4.9,9.7,6.4z M10.6,6.4c0-1.1,0.9-1.9,1.9-1.9c1.1,0,1.9,0.9,1.9,1.9v0.3h-3.9V6.4z"/>
</mask>
<g class="st1">
	
		<radialGradient id="SVGID_1_" cx="-364.8063" cy="557.1206" r="0.712" gradientTransform="matrix(9.5391 0 0 -11.8257 3492.4387 6599.3921)" gradientUnits="userSpaceOnUse">
		<stop  offset="0" style="stop-color:#36D1DB"/>
		<stop  offset="1" style="stop-color:#5B85E4"/>
	</radialGradient>
	<path class="st2" d="M9.7,6.4v0.3H8c-0.2,0-0.4,0.2-0.5,0.4l-1,9.5c-0.1,0.5,0.1,1,0.4,1.3c0.3,0.4,0.8,0.6,1.3,0.6h8.6
		c0.5,0,1-0.2,1.3-0.6c0.3-0.4,0.5-0.9,0.4-1.3l-1-9.5c0-0.2-0.2-0.4-0.5-0.4h-1.7V6.4c0-1.6-1.3-2.8-2.8-2.8
		C10.9,3.6,9.7,4.9,9.7,6.4z M10.6,6.4c0-1.1,0.9-1.9,1.9-1.9c1.1,0,1.9,0.9,1.9,1.9v0.3h-3.9V6.4z"/>
</g>
</svg>
