<?xml version="1.0" encoding="utf-8"?>
<!-- Generator: Adobe Illustrator 22.0.1, SVG Export Plug-In . SVG Version: 6.00 Build 0)  -->
<svg version="1.1" xmlns="http://www.w3.org/2000/svg" xmlns:xlink="http://www.w3.org/1999/xlink" x="0px" y="0px"
	 viewBox="0 0 17 21" style="enable-background:new 0 0 17 21;" xml:space="preserve">
<style type="text/css">
	.st0{fill:#FFFFFF;filter:url(#Adobe_OpacityMaskFilter);}
	.st1{mask:url(#mask0_1_);}
.st2{
  fill: url(#icon_bag);
  transition: fill .4s ease;
}
.st2:hover{
  fill: url(#icon_bag1);
}
</style>
<defs>
    <radialGradient id="icon_bag"
            x1="0%" y1="0%"
            x2="0%" y2="100%"
            spreadMethod="pad">
      <stop offset="0%"   stop-color="#36D1DB" stop-opacity="1"/>
      <stop offset="100%" stop-color="#5B85E4" stop-opacity="1"/>
    </radialGradient>
    <radialGradient id="icon_bag1"
            x1="0%" y1="0%"
            x2="0%" y2="100%"
            spreadMethod="pad">
      <stop offset="0%"   stop-color="#5B85E4" stop-opacity="1"/>
      <stop offset="100%" stop-color="#36D1DB" stop-opacity="1"/>
    </radialGradient>
	<filter id="Adobe_OpacityMaskFilter" filterUnits="userSpaceOnUse" x="0" y="0" width="16.9" height="21">
		<feColorMatrix  type="matrix" values="1 0 0 0 0  0 1 0 0 0  0 0 1 0 0  0 0 0 1 0"/>
	</filter>
</defs>
<mask maskUnits="userSpaceOnUse" x="0" y="0" width="16.9" height="21" id="mask0_1_">
	<path class="st0" d="M4.5,4v0.4H2.1C1.8,4.4,1.5,4.7,1.5,5L0,18.3c-0.1,0.7,0.1,1.4,0.6,1.9C1.1,20.7,1.7,21,2.4,21h12.1
		c0.7,0,1.4-0.3,1.8-0.8c0.5-0.5,0.7-1.2,0.6-1.9L15.5,5c0-0.3-0.3-0.6-0.6-0.6h-2.4V4c0-2.2-1.8-4-4-4C6.3,0,4.5,1.8,4.5,4z M5.8,4
		c0-1.5,1.2-2.7,2.7-2.7c1.5,0,2.7,1.2,2.7,2.7v0.4H5.8V4z"/>
</mask>
<g class="st1">
	<path class="st2" d="M4.5,4v0.4H2.1C1.8,4.4,1.5,4.7,1.5,5L0,18.3c-0.1,0.7,0.1,1.4,0.6,1.9C1.1,20.7,1.7,21,2.4,21h12.1
		c0.7,0,1.4-0.3,1.8-0.8c0.5-0.5,0.7-1.2,0.6-1.9L15.5,5c0-0.3-0.3-0.6-0.6-0.6h-2.4V4c0-2.2-1.8-4-4-4C6.3,0,4.5,1.8,4.5,4z M5.8,4
		c0-1.5,1.2-2.7,2.7-2.7c1.5,0,2.7,1.2,2.7,2.7v0.4H5.8V4z"/>
</g>
</svg>
