<?xml version="1.0" encoding="utf-8"?>
<!-- Generator: Adobe Illustrator 23.1.1, SVG Export Plug-In . SVG Version: 6.00 Build 0)  -->
<svg version="1.1" id="圖層_1" xmlns="http://www.w3.org/2000/svg" xmlns:xlink="http://www.w3.org/1999/xlink" x="0px" y="0px"
	 viewBox="0 0 18.2 18.2" style="enable-background:new 0 0 18.2 18.2;" xml:space="preserve">
<style type="text/css">
	.st0{clip-path:url(#SVGID_2_);}
	.st1{fill:#FFFFFF;}
	.st2{clip-path:url(#SVGID_4_);}
	.st3{clip-path:url(#SVGID_6_);}
</style>
<g>
	<defs>
		<rect id="SVGID_1_" x="1.1" y="1.1" width="16" height="16"/>
	</defs>
	<clipPath id="SVGID_2_">
		<use xlink:href="#SVGID_1_"  style="overflow:visible;"/>
	</clipPath>
	<g class="st0">
		<path class="st1" d="M16.5,1.1h-11c-0.2,0-0.3,0.1-0.4,0.2C5,1.4,4.9,1.6,4.9,1.7v3.6h1.2v-3h9.8v13.5H6.1v-2.7H4.9v3.3
			c0,0.2,0.1,0.3,0.2,0.4c0.1,0.1,0.3,0.2,0.4,0.2h11c0.2,0,0.3-0.1,0.4-0.2c0.1-0.1,0.2-0.3,0.2-0.4V1.7c0-0.2-0.1-0.3-0.2-0.4
			C16.8,1.2,16.7,1.1,16.5,1.1z"/>
		<path class="st1" d="M7.9,12.7c0,0.1,0,0.2,0.1,0.3c0.1,0.1,0.1,0.2,0.2,0.2s0.2,0.1,0.3,0.1c0.1,0,0.2-0.1,0.3-0.1l4.7-3.6
			c0.1-0.1,0.1-0.1,0.2-0.2c0-0.1,0.1-0.2,0.1-0.3s0-0.2-0.1-0.3c0-0.1-0.1-0.2-0.2-0.2L8.8,5.1C8.7,5,8.6,4.9,8.5,4.9
			c-0.1,0-0.2,0-0.3,0.1C8.1,5.1,8,5.1,8,5.2C7.9,5.3,7.9,5.4,7.9,5.6v1.8H1.7c-0.1,0-0.2,0-0.2,0c-0.1,0-0.1,0.1-0.2,0.1
			C1.2,7.6,1.1,7.8,1.1,7.9v2.4c0,0.2,0.1,0.3,0.2,0.4c0.1,0.1,0.3,0.2,0.4,0.2h6.1V12.7z M2.3,9.7V8.5h6.1c0.2,0,0.3-0.1,0.4-0.2
			C9,8.2,9.1,8.1,9.1,7.9V6.8l3.1,2.3l-3.1,2.3v-1.1c0-0.2-0.1-0.3-0.2-0.4C8.8,9.8,8.6,9.7,8.5,9.7H2.3z"/>
	</g>
</g>
</svg>
