<?xml version="1.0" encoding="utf-8"?>
<!-- Generator: Adobe Illustrator 22.0.1, SVG Export Plug-In . SVG Version: 6.00 Build 0)  -->
<svg version="1.1"  xmlns="http://www.w3.org/2000/svg" xmlns:xlink="http://www.w3.org/1999/xlink" x="0px" y="0px"
	 viewBox="0 0 25 22" style="enable-background:new 0 0 25 22;" xml:space="preserve">
<style type="text/css">
	.st0{clip-path:url(#SVGID_2_);}
.st1{
  fill: url(#icon_maps);
  transition: fill .4s ease;
}
.st1:hover{
  fill: url(#icon_maps1);
}
</style>
<g>
<defs>
    <radialGradient id="icon_maps"
            x1="0%" y1="0%"
            x2="0%" y2="100%"
            spreadMethod="pad">
      <stop offset="0%"   stop-color="#06BEB6" stop-opacity="1"/>
      <stop offset="100%" stop-color="#036eb8" stop-opacity="1"/>
    </radialGradient>
    <radialGradient id="icon_maps1"
            x1="0%" y1="0%"
            x2="0%" y2="100%"
            spreadMethod="pad">
      <stop offset="0%"   stop-color="#036eb8" stop-opacity="1"/>
      <stop offset="100%" stop-color="#06BEB6" stop-opacity="1"/>
    </radialGradient>
		<rect id="SVGID_1_" width="25" height="21.9"/>
</defs>
	<clipPath id="SVGID_2_">
		<use xlink:href="#SVGID_1_"  style="overflow:visible;"/>
	</clipPath>
	<g class="st0">
		<path class="st1" d="M24.9,8.2C24.8,8,24.6,8,24.5,7.9L21,7c0.2-0.6,0.4-1.3,0.4-2c-0.1-1.3-0.7-2.5-1.6-3.4
			c-0.9-0.9-2.2-1.4-3.5-1.4s-2.5,0.5-3.5,1.4c-0.9,0.9-1.5,2.1-1.6,3.4c0.1,0.8,0.3,1.5,0.5,2.3L10,7.9c-1.4,0.3-1.7,0.3-3.1,0
			L0.8,6.4c-0.1,0-0.2,0-0.3,0c-0.1,0-0.2,0.1-0.3,0.1C0.2,6.6,0.1,6.7,0.1,6.8C0,6.9,0,7,0,7.1v12c0,0.1,0,0.3,0.1,0.4
			c0.1,0.1,0.2,0.2,0.3,0.2l6.1,1.9c0.6,0.2,1.2,0.3,1.9,0.3c0.6,0,1.3-0.1,1.9-0.3l0.1,0l4.5-1.9c1-0.3,1.6-0.3,3,0l6.1,1.5
			c0.1,0,0.2,0,0.3,0c0.1,0,0.2-0.1,0.3-0.1c0.1-0.1,0.1-0.1,0.2-0.2c0-0.1,0.1-0.2,0.1-0.3v-12C25,8.4,25,8.3,24.9,8.2z M16.3,3.3
			c0.3,0,0.6,0.1,0.8,0.2s0.4,0.4,0.5,0.7c0.1,0.3,0.1,0.6,0.1,0.8c-0.1,0.3-0.2,0.5-0.4,0.7c-0.2,0.2-0.5,0.3-0.7,0.4
			c-0.3,0.1-0.6,0-0.8-0.1c-0.3-0.1-0.5-0.3-0.7-0.5c-0.2-0.2-0.2-0.5-0.2-0.8c0-0.4,0.2-0.8,0.4-1C15.5,3.5,15.9,3.3,16.3,3.3
			L16.3,3.3z M18.4,18.4c-1.7-0.4-2.5-0.4-3.8,0l0,0L10,20.3c-1.4,0.3-1.7,0.3-3,0l-5.6-1.8V7.9l5.3,1.3c1.6,0.4,2.1,0.4,3.8,0l0,0
			l1.8-0.6c1,2.7,2.5,5.7,2.7,6.2c0.1,0.3,0.3,0.5,0.6,0.6c0.2,0.1,0.5,0.2,0.8,0.2c0.3,0,0.6-0.1,0.8-0.2c0.2-0.1,0.4-0.4,0.6-0.6
			c0.3-0.5,1.8-3.8,2.8-6.5l3.2,0.8v10.6L18.4,18.4z"/>
		<path class="st1" d="M11.5,12.4c0,0-1.9,1.2-3.5,1.2c-1.5,0-3.6-1.2-3.7-1.2c-0.2-0.1-0.3-0.1-0.5,0c-0.2,0-0.3,0.2-0.4,0.3
			c-0.1,0.1-0.1,0.3-0.1,0.5c0,0.2,0.1,0.3,0.3,0.4c0.1,0.1,2.4,1.4,4.3,1.4c1.9,0,4.1-1.3,4.2-1.4c0.2-0.1,0.3-0.2,0.3-0.4
			c0-0.2,0-0.4-0.1-0.5c-0.1-0.2-0.2-0.3-0.4-0.3C11.9,12.3,11.7,12.3,11.5,12.4L11.5,12.4z"/>
		<path class="st1" d="M20.6,12.3c-0.1,0-0.2,0-0.3,0c-0.1,0-0.2,0-0.2,0.1c-0.1,0-0.1,0.1-0.2,0.2c-0.1,0.1-0.1,0.1-0.1,0.2
			c0,0.1,0,0.2,0,0.3c0,0.1,0,0.2,0.1,0.2c0,0.1,0.1,0.1,0.2,0.2c0.1,0.1,0.1,0.1,0.2,0.1L22,14c0.1,0,0.2,0,0.3,0
			c0.1,0,0.2,0,0.3-0.1c0.1,0,0.2-0.1,0.2-0.2c0.1-0.1,0.1-0.2,0.1-0.2c0-0.1,0-0.2,0-0.3c0-0.1,0-0.2-0.1-0.3
			c0-0.1-0.1-0.1-0.2-0.2c-0.1-0.1-0.2-0.1-0.2-0.1L20.6,12.3z"/>
	</g>
</g>
</svg>
