<?xml version="1.0" encoding="utf-8"?>
<!-- Generator: Adobe Illustrator 22.0.1, SVG Export Plug-In . SVG Version: 6.00 Build 0)  -->
<svg version="1.1" xmlns="http://www.w3.org/2000/svg" xmlns:xlink="http://www.w3.org/1999/xlink" x="0px" y="0px"
	 viewBox="0 0 19 22.2" style="enable-background:new 0 0 19 22.2;" xml:space="preserve">
<style type="text/css">
.st0{
  fill: url(#icon_callfood);
  transition: fill .4s ease;
}
.st0:hover{
  fill: url(#icon_callfood1);
}
</style>
<defs>
    <linearGradient id="icon_callfood"
            x1="0%" y1="0%"
            x2="0%" y2="100%"
            spreadMethod="pad">
      <stop offset="0%"   stop-color="#FFDE25" stop-opacity="1"/>
      <stop offset="100%" stop-color="#E44D26" stop-opacity="1"/>
    </linearGradient>
    <linearGradient id="icon_callfood1"
            x1="0%" y1="0%"
            x2="0%" y2="100%"
            spreadMethod="pad">
      <stop offset="0%"   stop-color="#E44D26" stop-opacity="1"/>
      <stop offset="100%" stop-color="#FFDE25" stop-opacity="1"/>
    </linearGradient>
</defs>
<path class="st0" d="M13.5,2.6h-1.9V1.9c0-0.5-0.2-1-0.6-1.4C10.6,0.2,10.1,0,9.6,0c-0.5,0-1,0.2-1.4,0.6C7.9,0.9,7.7,1.4,7.7,1.9
	v0.7H5.8c-0.2,0-0.3,0.1-0.5,0.2C5.2,2.9,5.2,3.1,5.2,3.2v7.8c0,0.2,0.1,0.3,0.2,0.5s0.3,0.2,0.5,0.2h7.7c0.2,0,0.3-0.1,0.5-0.2
	c0.1-0.1,0.2-0.3,0.2-0.5V3.2c0-0.2-0.1-0.3-0.2-0.5C13.8,2.7,13.6,2.6,13.5,2.6z M10.3,2.6H9V1.9C9,1.8,9,1.6,9.2,1.5
	c0.1-0.1,0.3-0.2,0.5-0.2c0.2,0,0.3,0.1,0.5,0.2c0.1,0.1,0.2,0.3,0.2,0.5L10.3,2.6z"/>
<path class="st0" d="M18.9,10.7c-0.1-0.1-0.1-0.2-0.2-0.2c-0.1-0.1-0.2-0.1-0.3-0.1c-0.6,0-1.1,0.2-1.6,0.4
	c-0.5,0.3-0.9,0.7-1.1,1.2l-2,3.8c-0.2,0.3-0.4,0.6-0.7,0.8c-0.3,0.2-0.6,0.3-1,0.3H7.7c-0.2,0-0.3-0.1-0.5-0.2
	c-0.1-0.1-0.2-0.3-0.2-0.5c0-0.2,0.1-0.3,0.2-0.5c0.1-0.1,0.3-0.2,0.5-0.2H12c0.1,0,0.2,0,0.3-0.1c0.1-0.1,0.2-0.2,0.2-0.3l0.7-1.4
	c0-0.1,0.1-0.2,0.1-0.3c0-0.1,0-0.2-0.1-0.3c0-0.1-0.1-0.2-0.2-0.2c-0.1,0-0.2-0.1-0.3-0.1H6.2c-0.4,0-0.8,0.1-1.2,0.2
	c-0.4,0.2-0.7,0.4-1,0.7l-3.8,3.8C0.1,17.9,0.1,18,0,18c0,0.1,0,0.2,0,0.2c0,0.1,0,0.2,0,0.2c0,0.1,0.1,0.2,0.1,0.2L3.4,22
	c0.1,0.1,0.1,0.1,0.2,0.1c0.1,0,0.2,0,0.2,0c0.1,0,0.2,0,0.2,0c0.1,0,0.1-0.1,0.2-0.1l2.4-2.5H12c0.8,0,1.6-0.2,2.3-0.7
	c0.7-0.4,1.3-1,1.6-1.8l2.9-5.7c0.1-0.1,0.1-0.2,0.1-0.3C19,11,19,10.8,18.9,10.7z"/>
</svg>
