<?xml version="1.0" encoding="utf-8"?>
<!-- Generator: Adobe Illustrator 23.1.1, SVG Export Plug-In . SVG Version: 6.00 Build 0)  -->
<svg version="1.1" id="圖層_1" xmlns="http://www.w3.org/2000/svg" xmlns:xlink="http://www.w3.org/1999/xlink" x="0px" y="0px"
	 viewBox="0 0 37.3 38.8" style="enable-background:new 0 0 37.3 38.8;" xml:space="preserve">
<style type="text/css">
	.st0{fill-rule:evenodd;clip-rule:evenodd;fill:#FFFFFF;filter:url(#Adobe_OpacityMaskFilter);}
	.st1{mask:url(#mask0_1_);}
	.st2{fill-rule:evenodd;clip-rule:evenodd;fill:url(#SVGID_1_);}
</style>
<defs>
	<filter id="Adobe_OpacityMaskFilter" filterUnits="userSpaceOnUse" x="11.1" y="7.8" width="15" height="23.1">
		<feColorMatrix  type="matrix" values="1 0 0 0 0  0 1 0 0 0  0 0 1 0 0  0 0 0 1 0"/>
	</filter>
</defs>
<mask maskUnits="userSpaceOnUse" x="11.1" y="7.8" width="15" height="23.1" id="mask0_1_">
	<path class="st0" d="M11.1,15.4c0,1.7,1.2,4.8,3.5,9.2c1.7,3.2,3.4,6,3.4,6c0.3,0.5,1,0.5,1.3,0c0,0,1.7-2.8,3.4-6
		c2.3-4.4,3.5-7.5,3.5-9.2c0-4.2-3.4-7.6-7.5-7.6C14.5,7.8,11.1,11.2,11.1,15.4z M16,15.5c0-1.5,1.2-2.6,2.6-2.6
		c1.5,0,2.6,1.2,2.6,2.6c0,1.5-1.2,2.6-2.6,2.6C17.2,18.1,16,16.9,16,15.5z"/>
</mask>
<g class="st1">
	
		<radialGradient id="SVGID_1_" cx="-358.7336" cy="576.8153" r="1" gradientTransform="matrix(9.7512 0 0 -15.0462 3516.7471 8698.2783)" gradientUnits="userSpaceOnUse">
		<stop  offset="0" style="stop-color:#05BDB6"/>
		<stop  offset="1" style="stop-color:#48B1BF"/>
	</radialGradient>
	<path class="st2" d="M11.1,15.4c0,1.7,1.2,4.8,3.5,9.2c1.7,3.2,3.4,6,3.4,6c0.3,0.5,1,0.5,1.3,0c0,0,1.7-2.8,3.4-6
		c2.3-4.4,3.5-7.5,3.5-9.2c0-4.2-3.4-7.6-7.5-7.6C14.5,7.8,11.1,11.2,11.1,15.4z M16,15.5c0-1.5,1.2-2.6,2.6-2.6
		c1.5,0,2.6,1.2,2.6,2.6c0,1.5-1.2,2.6-2.6,2.6C17.2,18.1,16,16.9,16,15.5z"/>
</g>
</svg>
