<?xml version="1.0" encoding="utf-8"?>
<!-- Generator: Adobe Illustrator 23.1.1, SVG Export Plug-In . SVG Version: 6.00 Build 0)  -->
<svg version="1.1" id="圖層_1" xmlns="http://www.w3.org/2000/svg" xmlns:xlink="http://www.w3.org/1999/xlink" x="0px" y="0px"
	 viewBox="0 0 22 20" style="enable-background:new 0 0 22 20;" xml:space="preserve">
<style type="text/css">
	.st0{fill:url(#SVGID_1_);}
	.st1{fill:#FFFFFF;}
</style>
<g>
	
		<radialGradient id="SVGID_1_" cx="-370" cy="526.0273" r="0.6454" gradientTransform="matrix(10.5 0 0 -7.35 3896 3876.3003)" gradientUnits="userSpaceOnUse">
		<stop  offset="0" style="stop-color:#884371"/>
		<stop  offset="5.000000e-02" style="stop-color:#90486F"/>
		<stop  offset="0.35" style="stop-color:#BA6761"/>
		<stop  offset="0.61" style="stop-color:#D97E57"/>
		<stop  offset="0.84" style="stop-color:#EC8B51"/>
		<stop  offset="1" style="stop-color:#F3904F"/>
	</radialGradient>
	<path class="st0" d="M16.6,8c0.2-0.5,0.2-1,0.1-1.6s-0.4-1-0.8-1.4c-0.4-0.4-0.8-0.6-1.4-0.8C14,4.2,13.5,4.2,13,4.4l-1.2-1.2
		l-7.5,7.5L5.4,12c-0.2,0.5-0.2,1-0.1,1.6c0.1,0.5,0.4,1,0.8,1.4c0.4,0.4,0.8,0.6,1.4,0.8C8,15.8,8.5,15.8,9,15.6l1.2,1.2l7.5-7.5
		L16.6,8z"/>
	<path class="st1" d="M9.8,9.2C9.7,9,9.4,8.9,9.2,8.9c-0.2,0-0.5,0-0.7,0.1C8.3,9,8.1,9.2,8,9.4C7.8,9.6,7.8,9.8,7.8,10
		c0,0.2,0.1,0.5,0.2,0.7c0.1,0.2,0.3,0.4,0.5,0.4c0.2,0.1,0.5,0.1,0.7,0.1c0.2,0,0.4-0.2,0.6-0.3c0.1-0.1,0.2-0.2,0.3-0.4
		c0.1-0.1,0.1-0.3,0.1-0.5c0-0.2,0-0.3-0.1-0.5C10,9.4,9.9,9.3,9.8,9.2z M9.2,10.3c0,0-0.1,0.1-0.2,0.1c-0.1,0-0.1,0-0.2,0
		c-0.1,0-0.1-0.1-0.2-0.1c0-0.1-0.1-0.1-0.1-0.2s0-0.1,0.1-0.2c0-0.1,0.1-0.1,0.2-0.1c0.1,0,0.1,0,0.2,0c0.1,0,0.1,0,0.2,0.1
		c0,0,0.1,0.1,0.1,0.1c0,0,0,0.1,0,0.1c0,0,0,0.1,0,0.1C9.3,10.2,9.2,10.3,9.2,10.3L9.2,10.3z"/>
	<path class="st1" d="M13.9,9.1c-0.2-0.2-0.5-0.3-0.7-0.3c-0.3,0-0.6,0-0.8,0.2c-0.2,0.2-0.4,0.4-0.5,0.7c-0.1,0.3-0.1,0.6,0,0.8
		c0.1,0.3,0.3,0.5,0.5,0.6c0.2,0.1,0.5,0.2,0.8,0.1c0.3-0.1,0.5-0.2,0.7-0.4c0.2-0.2,0.3-0.5,0.3-0.8C14.2,9.6,14.1,9.3,13.9,9.1z
		 M13.3,10.2c-0.1,0.1-0.1,0.1-0.2,0.1c-0.1,0-0.2,0-0.2-0.1c-0.1,0-0.1-0.1-0.1-0.2c0-0.1,0-0.2,0-0.2c0-0.1,0.1-0.1,0.2-0.2
		c0.1,0,0.2,0,0.2,0c0.1,0,0.1,0.1,0.2,0.1c0.1,0.1,0.1,0.1,0.1,0.2C13.4,10.1,13.3,10.1,13.3,10.2z"/>
	<path class="st1" d="M11.1,7.1l-0.9,0.1l0.6,5.7l0.9-0.1L11.1,7.1z"/>
</g>
</svg>
