<?xml version="1.0" encoding="utf-8"?>
<!-- Generator: Adobe Illustrator 23.1.1, SVG Export Plug-In . SVG Version: 6.00 Build 0)  -->
<svg version="1.1" id="圖層_1" xmlns="http://www.w3.org/2000/svg" xmlns:xlink="http://www.w3.org/1999/xlink" x="0px" y="0px"
	 viewBox="0 0 22 20" style="enable-background:new 0 0 22 20;" xml:space="preserve">
<style type="text/css">
	.st0{fill-rule:evenodd;clip-rule:evenodd;fill:#FFFFFF;filter:url(#Adobe_OpacityMaskFilter);}
	.st1{mask:url(#mask0_2_);}
	.st2{fill-rule:evenodd;clip-rule:evenodd;fill:url(#SVGID_1_);}
	.st3{fill-rule:evenodd;clip-rule:evenodd;fill:#FFFFFF;filter:url(#Adobe_OpacityMaskFilter_1_);}
	.st4{mask:url(#mask1_2_);}
	.st5{fill-rule:evenodd;clip-rule:evenodd;fill:url(#SVGID_2_);}
	.st6{fill-rule:evenodd;clip-rule:evenodd;fill:#FFFFFF;filter:url(#Adobe_OpacityMaskFilter_2_);}
	.st7{mask:url(#mask2_2_);}
	.st8{fill-rule:evenodd;clip-rule:evenodd;fill:url(#SVGID_3_);}
	.st9{fill-rule:evenodd;clip-rule:evenodd;fill:#FFFFFF;filter:url(#Adobe_OpacityMaskFilter_3_);}
	.st10{mask:url(#mask3_2_);}
	.st11{fill-rule:evenodd;clip-rule:evenodd;fill:url(#SVGID_4_);}
</style>
<g>
	<defs>
		<filter id="Adobe_OpacityMaskFilter" filterUnits="userSpaceOnUse" x="5.5" y="4.4" width="4.5" height="4.5">
			<feColorMatrix  type="matrix" values="1 0 0 0 0  0 1 0 0 0  0 0 1 0 0  0 0 0 1 0"/>
		</filter>
	</defs>
	<mask maskUnits="userSpaceOnUse" x="5.5" y="4.4" width="4.5" height="4.5" id="mask0_2_">
		<path class="st0" d="M5.9,4.4c-0.2,0-0.4,0.2-0.4,0.4v3.6c0,0.2,0.2,0.4,0.4,0.4h3.6c0.2,0,0.4-0.2,0.4-0.4V4.8
			c0-0.2-0.2-0.4-0.4-0.4H5.9z"/>
	</mask>
	<g class="st1">
		
			<radialGradient id="SVGID_1_" cx="-301.0331" cy="451.8452" r="0.5908" gradientTransform="matrix(3.8245 0 0 -3.8243 1159.0288 1734.6521)" gradientUnits="userSpaceOnUse">
			<stop  offset="0" style="stop-color:#E44D26"/>
			<stop  offset="1" style="stop-color:#F06428"/>
		</radialGradient>
		<path class="st2" d="M5.9,4.4c-0.2,0-0.4,0.2-0.4,0.4v3.6c0,0.2,0.2,0.4,0.4,0.4h3.6c0.2,0,0.4-0.2,0.4-0.4V4.8
			c0-0.2-0.2-0.4-0.4-0.4H5.9z"/>
	</g>
	<defs>
		<filter id="Adobe_OpacityMaskFilter_1_" filterUnits="userSpaceOnUse" x="12" y="4.4" width="4.5" height="4.5">
			<feColorMatrix  type="matrix" values="1 0 0 0 0  0 1 0 0 0  0 0 1 0 0  0 0 0 1 0"/>
		</filter>
	</defs>
	<mask maskUnits="userSpaceOnUse" x="12" y="4.4" width="4.5" height="4.5" id="mask1_2_">
		<path class="st3" d="M12.4,4.4c-0.2,0-0.4,0.2-0.4,0.4v3.6c0,0.2,0.2,0.4,0.4,0.4h3.6c0.2,0,0.4-0.2,0.4-0.4V4.8
			c0-0.2-0.2-0.4-0.4-0.4H12.4z M12.9,8h2.7V5.3h-2.7V8z"/>
	</mask>
	<g class="st4">
		
			<radialGradient id="SVGID_2_" cx="-302.2138" cy="451.8452" r="0.5908" gradientTransform="matrix(3.8245 0 0 -3.8243 1170.0647 1734.6521)" gradientUnits="userSpaceOnUse">
			<stop  offset="0" style="stop-color:#E44D26"/>
			<stop  offset="1" style="stop-color:#F06428"/>
		</radialGradient>
		<path class="st5" d="M12.4,4.4c-0.2,0-0.4,0.2-0.4,0.4v3.6c0,0.2,0.2,0.4,0.4,0.4h3.6c0.2,0,0.4-0.2,0.4-0.4V4.8
			c0-0.2-0.2-0.4-0.4-0.4H12.4z M12.9,8h2.7V5.3h-2.7V8z"/>
	</g>
	<defs>
		<filter id="Adobe_OpacityMaskFilter_2_" filterUnits="userSpaceOnUse" x="5.5" y="11.1" width="4.5" height="4.5">
			<feColorMatrix  type="matrix" values="1 0 0 0 0  0 1 0 0 0  0 0 1 0 0  0 0 0 1 0"/>
		</filter>
	</defs>
	<mask maskUnits="userSpaceOnUse" x="5.5" y="11.1" width="4.5" height="4.5" id="mask2_2_">
		<path class="st6" d="M5.9,11.1c-0.2,0-0.4,0.2-0.4,0.4v3.6c0,0.2,0.2,0.4,0.4,0.4h3.6c0.2,0,0.4-0.2,0.4-0.4v-3.6
			c0-0.2-0.2-0.4-0.4-0.4H5.9z M6.4,14.7h2.7V12H6.4V14.7z"/>
	</mask>
	<g class="st7">
		
			<radialGradient id="SVGID_3_" cx="-301.0331" cy="453.055" r="0.5908" gradientTransform="matrix(3.8245 0 0 -3.8242 1159.0288 1745.9305)" gradientUnits="userSpaceOnUse">
			<stop  offset="0" style="stop-color:#E44D26"/>
			<stop  offset="1" style="stop-color:#F06428"/>
		</radialGradient>
		<path class="st8" d="M5.9,11.1c-0.2,0-0.4,0.2-0.4,0.4v3.6c0,0.2,0.2,0.4,0.4,0.4h3.6c0.2,0,0.4-0.2,0.4-0.4v-3.6
			c0-0.2-0.2-0.4-0.4-0.4H5.9z M6.4,14.7h2.7V12H6.4V14.7z"/>
	</g>
	<defs>
		<filter id="Adobe_OpacityMaskFilter_3_" filterUnits="userSpaceOnUse" x="12" y="11.1" width="4.5" height="4.5">
			<feColorMatrix  type="matrix" values="1 0 0 0 0  0 1 0 0 0  0 0 1 0 0  0 0 0 1 0"/>
		</filter>
	</defs>
	<mask maskUnits="userSpaceOnUse" x="12" y="11.1" width="4.5" height="4.5" id="mask3_2_">
		<path class="st9" d="M15.6,11.5v3.2h-3.2c-0.2,0-0.4,0.2-0.4,0.4c0,0.2,0.2,0.4,0.4,0.4h3.6c0.2,0,0.4-0.2,0.4-0.4v-3.6
			c0-0.2-0.2-0.4-0.4-0.4C15.8,11.1,15.6,11.3,15.6,11.5z"/>
	</mask>
	<g class="st10">
		
			<radialGradient id="SVGID_4_" cx="-302.2138" cy="453.055" r="0.5908" gradientTransform="matrix(3.8245 0 0 -3.8242 1170.0647 1745.9305)" gradientUnits="userSpaceOnUse">
			<stop  offset="0" style="stop-color:#E44D26"/>
			<stop  offset="1" style="stop-color:#F06428"/>
		</radialGradient>
		<path class="st11" d="M15.6,11.5v3.2h-3.2c-0.2,0-0.4,0.2-0.4,0.4c0,0.2,0.2,0.4,0.4,0.4h3.6c0.2,0,0.4-0.2,0.4-0.4v-3.6
			c0-0.2-0.2-0.4-0.4-0.4C15.8,11.1,15.6,11.3,15.6,11.5z"/>
	</g>
</g>
</svg>
