<?xml version="1.0" encoding="utf-8"?>
<!-- Generator: Adobe Illustrator 22.0.1, SVG Export Plug-In . SVG Version: 6.00 Build 0)  -->
<svg version="1.1" xmlns="http://www.w3.org/2000/svg" xmlns:xlink="http://www.w3.org/1999/xlink" x="0px" y="0px"
	 viewBox="0 0 21 22" style="enable-background:new 0 0 21 22;" xml:space="preserve">
<style type="text/css">
.st0{
  fill: url(#icon_onlineshop);
  transition: fill .4s ease;
}
.st0:hover{
  fill: url(#icon_onlineshop1);
}
</style>
<defs>
    <radialGradient id="icon_onlineshop"
            x1="0%" y1="0%"
            x2="0%" y2="100%"
            spreadMethod="pad">
      <stop offset="0%"   stop-color="#FFAF7B" stop-opacity="1"/>
      <stop offset="100%" stop-color="#CB356B" stop-opacity="1"/>
    </radialGradient>
    <radialGradient id="icon_onlineshop1"
            x1="0%" y1="0%"
            x2="0%" y2="100%"
            spreadMethod="pad">
      <stop offset="0%"   stop-color="#CB356B" stop-opacity="1"/>
      <stop offset="100%" stop-color="#FFAF7B" stop-opacity="1"/>
    </radialGradient>
</defs>
<path class="st0" d="M17,0l-0.5,2.4H0L1.6,12h12.9l-0.4,1.7H2.2v1.4h13.1l2.9-13.8H21V0H17z"/>
<path class="st0" d="M2.9,16.6c-0.5,0-1,0.1-1.4,0.4c-0.4,0.3-0.7,0.7-0.9,1.1c-0.2,0.5-0.2,1-0.1,1.5c0.1,0.5,0.3,0.9,0.7,1.3
	c0.4,0.4,0.8,0.6,1.3,0.7c0.5,0.1,1,0,1.5-0.1c0.5-0.2,0.9-0.5,1.1-0.9c0.3-0.4,0.4-0.9,0.4-1.4c0-0.7-0.3-1.3-0.7-1.8
	C4.2,16.8,3.6,16.6,2.9,16.6z M2.9,20.2c-0.2,0-0.4-0.1-0.6-0.2c-0.2-0.1-0.3-0.3-0.4-0.5c-0.1-0.2-0.1-0.4-0.1-0.6
	c0-0.2,0.1-0.4,0.3-0.6c0.2-0.2,0.4-0.3,0.6-0.3c0.2,0,0.4,0,0.6,0.1c0.2,0.1,0.4,0.2,0.5,0.4C3.9,18.7,4,18.9,4,19.1
	c0,0.3-0.1,0.6-0.3,0.8C3.5,20.1,3.2,20.2,2.9,20.2z"/>
<path class="st0" d="M13.8,16.6c-0.5,0-1,0.1-1.4,0.4c-0.4,0.3-0.7,0.7-0.9,1.1c-0.2,0.5-0.2,1-0.1,1.5s0.3,0.9,0.7,1.3
	s0.8,0.6,1.3,0.7c0.5,0.1,1,0,1.5-0.1c0.5-0.2,0.9-0.5,1.1-0.9c0.3-0.4,0.4-0.9,0.4-1.4c0-0.7-0.3-1.3-0.7-1.8
	C15.1,16.9,14.4,16.6,13.8,16.6z M13.8,20.2c-0.2,0-0.4-0.1-0.6-0.2s-0.3-0.3-0.4-0.5c-0.1-0.2-0.1-0.4-0.1-0.6
	c0-0.2,0.1-0.4,0.3-0.6c0.2-0.2,0.4-0.3,0.6-0.3c0.2,0,0.4,0,0.6,0.1c0.2,0.1,0.4,0.2,0.5,0.4c0.1,0.2,0.2,0.4,0.2,0.6
	c0,0.3-0.1,0.6-0.3,0.8C14.3,20.1,14.1,20.2,13.8,20.2z"/>
</svg>
