<?xml version="1.0" encoding="utf-8"?>
<!-- Generator: Adobe Illustrator 22.0.1, SVG Export Plug-In . SVG Version: 6.00 Build 0)  -->
<svg version="1.1" xmlns="http://www.w3.org/2000/svg" xmlns:xlink="http://www.w3.org/1999/xlink" x="0px" y="0px"
	 viewBox="0 0 21 21" style="enable-background:new 0 0 21 21;" xml:space="preserve">
<style type="text/css">
.st0{
  fill: url(#icon_coupon);
  transition: fill .4s ease;
}
.st0:hover{
  fill: url(#icon_coupon1);
}
</style>
<defs>
    <radialGradient id="icon_coupon"
            x1="0%" y1="0%"
            x2="0%" y2="100%"
            spreadMethod="pad">
      <stop offset="0%"   stop-color="#884371" stop-opacity="1"/>
      <stop offset="100%" stop-color="#F3904F" stop-opacity="1"/>
    </radialGradient>
    <radialGradient id="icon_coupon1"
            x1="0%" y1="0%"
            x2="0%" y2="100%"
            spreadMethod="pad">
      <stop offset="0%"   stop-color="#F3904F" stop-opacity="1"/>
      <stop offset="100%" stop-color="#884371" stop-opacity="1"/>
    </radialGradient>
</defs>
<g>
	<path class="st0" d="M7.7,10.2c-0.1-0.1-0.2-0.1-0.3-0.1c-0.1,0-0.2,0-0.3,0c-0.1,0-0.2,0.1-0.2,0.2c-0.1,0.1-0.1,0.2-0.1,0.3
		c0,0.1,0,0.2,0.1,0.3C7,10.9,7.1,11,7.2,11c0.1,0,0.2,0.1,0.3,0c0.1,0,0.2-0.1,0.3-0.1l0,0c0.1,0,0.1-0.1,0.1-0.2
		c0-0.1,0-0.1,0-0.2s0-0.1,0-0.2C7.8,10.3,7.8,10.2,7.7,10.2z"/>
	<path class="st0" d="M13.7,9.9c-0.1,0-0.2,0-0.4,0.1c-0.1,0.1-0.2,0.2-0.2,0.3c0,0.1-0.1,0.2,0,0.4c0,0.1,0.1,0.2,0.2,0.3
		c0.1,0.1,0.2,0.1,0.3,0.1c0.1,0,0.2-0.1,0.3-0.2c0.1-0.1,0.2-0.2,0.2-0.4c0-0.1,0-0.2-0.1-0.3C14,10,13.9,10,13.7,9.9z"/>
	<path class="st0" d="M19.2,7.5c0.3-0.8,0.3-1.6,0.1-2.4s-0.6-1.5-1.2-2.1c-0.6-0.6-1.3-1-2.1-1.2c-0.8-0.2-1.6-0.2-2.4,0.1L11.7,0
		L0,11.7l1.8,1.8c-0.3,0.8-0.3,1.6-0.1,2.4c0.2,0.8,0.6,1.5,1.2,2.1c0.6,0.6,1.3,1,2.1,1.2c0.8,0.2,1.6,0.2,2.4-0.1L9.3,21L21,9.3
		L19.2,7.5z M9.1,11.3c-0.1,0.2-0.2,0.4-0.4,0.6c-0.3,0.3-0.6,0.4-1,0.5c-0.4,0.1-0.7,0-1.1-0.1c-0.3-0.1-0.6-0.4-0.8-0.7
		c-0.2-0.3-0.3-0.7-0.3-1c0-0.4,0.1-0.7,0.3-1C6,9.2,6.3,9,6.6,8.8C7,8.7,7.4,8.7,7.7,8.7s0.7,0.2,1,0.5C8.9,9.4,9,9.6,9.1,9.8
		c0.1,0.2,0.1,0.5,0.1,0.7C9.2,10.8,9.2,11.1,9.1,11.3z M10.3,15L9.4,6.1L10.7,6l0.9,8.9L10.3,15z M15.1,11.6
		c-0.3,0.3-0.7,0.6-1.1,0.6c-0.4,0.1-0.9,0-1.2-0.2c-0.4-0.2-0.7-0.5-0.8-0.9c-0.2-0.4-0.2-0.8-0.1-1.3c0.1-0.4,0.4-0.8,0.7-1
		c0.4-0.2,0.8-0.3,1.2-0.3c0.4,0,0.8,0.2,1.1,0.5c0.3,0.3,0.5,0.8,0.5,1.3C15.5,10.9,15.4,11.3,15.1,11.6z"/>
</g>
</svg>
