<?xml version="1.0" encoding="utf-8"?>
<!-- Generator: Adobe Illustrator 23.1.1, SVG Export Plug-In . SVG Version: 6.00 Build 0)  -->
<svg version="1.1" id="圖層_1" xmlns="http://www.w3.org/2000/svg" xmlns:xlink="http://www.w3.org/1999/xlink" x="0px" y="0px"
	 viewBox="0 0 22 20" style="enable-background:new 0 0 22 20;" xml:space="preserve">
<style type="text/css">
	.st0{fill-rule:evenodd;clip-rule:evenodd;fill:#FFFFFF;filter:url(#Adobe_OpacityMaskFilter);}
	.st1{mask:url(#mask0_2_);}
	.st2{fill-rule:evenodd;clip-rule:evenodd;fill:url(#SVGID_1_);}
	.st3{fill-rule:evenodd;clip-rule:evenodd;fill:#FFFFFF;filter:url(#Adobe_OpacityMaskFilter_1_);}
	.st4{mask:url(#mask1_2_);}
	.st5{fill-rule:evenodd;clip-rule:evenodd;fill:url(#SVGID_2_);}
</style>
<g>
	<defs>
		<filter id="Adobe_OpacityMaskFilter" filterUnits="userSpaceOnUse" x="5.5" y="7.4" width="11" height="8.2">
			<feColorMatrix  type="matrix" values="1 0 0 0 0  0 1 0 0 0  0 0 1 0 0  0 0 0 1 0"/>
		</filter>
	</defs>
	<mask maskUnits="userSpaceOnUse" x="5.5" y="7.4" width="11" height="8.2" id="mask0_2_">
		<path class="st0" d="M11,7.4H7.6C7.3,7.4,7.1,7.7,7,8c-0.2,1.5-0.9,2.6-1.1,2.8c-0.3,0.3-0.4,0.8-0.4,1.3v2.2
			c0,0.7,0.5,1.3,1.2,1.3H11h4.3c0.6,0,1.2-0.6,1.2-1.3v-2.2c0-0.5-0.2-0.9-0.4-1.3C15.9,10.6,15.2,9.5,15,8c0-0.4-0.3-0.6-0.6-0.6
			H11z"/>
	</mask>
	<g class="st1">
		
			<radialGradient id="SVGID_1_" cx="-360.0475" cy="531.046" r="0.5567" gradientTransform="matrix(8.355 0 0 -7.8367 3019.2112 4173.0947)" gradientUnits="userSpaceOnUse">
			<stop  offset="0" style="stop-color:#36D1DB"/>
			<stop  offset="1" style="stop-color:#5B85E4"/>
		</radialGradient>
		<path class="st2" d="M11,7.4H7.6C7.3,7.4,7.1,7.7,7,8c-0.2,1.5-0.9,2.6-1.1,2.8c-0.3,0.3-0.4,0.8-0.4,1.3v2.2
			c0,0.7,0.5,1.3,1.2,1.3H11h4.3c0.6,0,1.2-0.6,1.2-1.3v-2.2c0-0.5-0.2-0.9-0.4-1.3C15.9,10.6,15.2,9.5,15,8c0-0.4-0.3-0.6-0.6-0.6
			H11z"/>
	</g>
	<defs>
		<filter id="Adobe_OpacityMaskFilter_1_" filterUnits="userSpaceOnUse" x="4.9" y="4.5" width="12.2" height="6.1">
			<feColorMatrix  type="matrix" values="1 0 0 0 0  0 1 0 0 0  0 0 1 0 0  0 0 0 1 0"/>
		</filter>
	</defs>
	<mask maskUnits="userSpaceOnUse" x="4.9" y="4.5" width="12.2" height="6.1" id="mask1_2_">
		<path class="st3" d="M11.2,5.1c0,0.1,0,0.2,0.1,0.3l-0.2,0.3c0,0-0.1,0-0.1,0l-0.2-0.3c0-0.1,0.1-0.2,0-0.3c0-0.3-0.3-0.6-0.6-0.6
			c-0.4,0-0.6,0.3-0.6,0.7c0,0.4,0.3,0.7,0.6,0.7c0,0,0,0,0.1,0l0.2,0.2H7.4C6.6,6.1,6,6.7,5.9,7.5C5.8,8.2,5.5,9.2,5,9.9
			c-0.1,0.2-0.1,0.4,0,0.5c0.1,0.1,0.1,0.1,0.2,0.1c0.1,0,0.2,0,0.3-0.1c0.6-0.8,0.9-2,1.1-2.8C6.6,7.2,7,6.8,7.4,6.8h3.4h3.8
			c0.4,0,0.8,0.3,0.9,0.8c0.1,0.8,0.4,2,1.1,2.8c0.1,0.1,0.2,0.1,0.3,0.1c0.1,0,0.2,0,0.2-0.1c0.1-0.1,0.2-0.4,0-0.5
			c-0.5-0.7-0.8-1.7-0.9-2.4c-0.1-0.8-0.8-1.4-1.5-1.4h-3.1l0.2-0.3c0,0,0,0,0.1,0c0.3,0,0.6-0.3,0.6-0.7c0-0.3-0.3-0.6-0.6-0.6
			c0,0,0,0,0,0C11.5,4.5,11.2,4.8,11.2,5.1z"/>
	</mask>
	<g class="st4">
		
			<radialGradient id="SVGID_2_" cx="-360.8841" cy="495.548" r="0.5567" gradientTransform="matrix(8.5003 0 0 -5.3365 3078.6228 2651.999)" gradientUnits="userSpaceOnUse">
			<stop  offset="0" style="stop-color:#36D1DB"/>
			<stop  offset="1" style="stop-color:#5B85E4"/>
		</radialGradient>
		<path class="st5" d="M11.2,5.1c0,0.1,0,0.2,0.1,0.3l-0.2,0.3c0,0-0.1,0-0.1,0l-0.2-0.3c0-0.1,0.1-0.2,0-0.3c0-0.3-0.3-0.6-0.6-0.6
			c-0.4,0-0.6,0.3-0.6,0.7c0,0.4,0.3,0.7,0.6,0.7c0,0,0,0,0.1,0l0.2,0.2H7.4C6.6,6.1,6,6.7,5.9,7.5C5.8,8.2,5.5,9.2,5,9.9
			c-0.1,0.2-0.1,0.4,0,0.5c0.1,0.1,0.1,0.1,0.2,0.1c0.1,0,0.2,0,0.3-0.1c0.6-0.8,0.9-2,1.1-2.8C6.6,7.2,7,6.8,7.4,6.8h3.4h3.8
			c0.4,0,0.8,0.3,0.9,0.8c0.1,0.8,0.4,2,1.1,2.8c0.1,0.1,0.2,0.1,0.3,0.1c0.1,0,0.2,0,0.2-0.1c0.1-0.1,0.2-0.4,0-0.5
			c-0.5-0.7-0.8-1.7-0.9-2.4c-0.1-0.8-0.8-1.4-1.5-1.4h-3.1l0.2-0.3c0,0,0,0,0.1,0c0.3,0,0.6-0.3,0.6-0.7c0-0.3-0.3-0.6-0.6-0.6
			c0,0,0,0,0,0C11.5,4.5,11.2,4.8,11.2,5.1z"/>
	</g>
</g>
</svg>
