<?xml version="1.0" encoding="utf-8"?>
<!-- Generator: Adobe Illustrator 22.0.1, SVG Export Plug-In . SVG Version: 6.00 Build 0)  -->
<svg version="1.1" xmlns="http://www.w3.org/2000/svg" xmlns:xlink="http://www.w3.org/1999/xlink" x="0px" y="0px"
	 viewBox="0 0 17 22" style="enable-background:new 0 0 17 22;" xml:space="preserve">
<style type="text/css">
.st0{fill:#FFFFFF;filter:url(#Adobe_OpacityMaskFilter);}
.st1{mask:url(#mask0_1_);}
.st3{fill:#FFFFFF;filter:url(#Adobe_OpacityMaskFilter_1_);}
.st4{mask:url(#mask1_1_);}
.st2{
  fill: url(#icon_foods);
  transition: fill .4s ease;
}
.st2:hover{
  fill: url(#icon_foods1);
}
</style>
<defs>
    <radialGradient id="icon_foods"
            x1="0%" y1="0%"
            x2="0%" y2="100%"
            spreadMethod="pad">
      <stop offset="0%"   stop-color="#44B649" stop-opacity="1"/>
      <stop offset="100%" stop-color="#DBE25B" stop-opacity="1"/>
    </radialGradient>
    <radialGradient id="icon_foods1"
            x1="0%" y1="0%"
            x2="0%" y2="100%"
            spreadMethod="pad">
      <stop offset="0%"   stop-color="#DBE25B" stop-opacity="1"/>
      <stop offset="100%" stop-color="#44B649" stop-opacity="1"/>
    </radialGradient>
	<filter id="Adobe_OpacityMaskFilter" filterUnits="userSpaceOnUse" x="12.2" y="0" width="4.5" height="21.8">
		<feColorMatrix  type="matrix" values="1 0 0 0 0  0 1 0 0 0  0 0 1 0 0  0 0 0 1 0"/>
	</filter>
</defs>
<mask maskUnits="userSpaceOnUse" x="12.2" y="0" width="4.5" height="21.8" id="mask0_1_">
	<path class="st0" d="M15,0.1L15,0.1C15,0.1,15,0.1,15,0.1c-0.1,0.1-0.2,0.1-0.3,0.2c-0.6,0.5-2.4,2.4-2.6,5c-0.2,4,1.7,5.6,2.4,7.1
		L14,21c0,0.4,0.9,0.8,1.3,0.8c0.4,0,1.3-0.4,1.3-0.8L16.1,0.8c0-0.4-0.4-0.8-0.8-0.8C15.2,0,15.1,0,15,0.1z"/>
</mask>
<g class="st1">
	<path class="st2" d="M15,0.1L15,0.1C15,0.1,15,0.1,15,0.1c-0.1,0.1-0.2,0.1-0.3,0.2c-0.6,0.5-2.4,2.4-2.6,5c-0.2,4,1.7,5.6,2.4,7.1
		L14,21c0,0.4,0.9,0.8,1.3,0.8c0.4,0,1.3-0.4,1.3-0.8L16.1,0.8c0-0.4-0.4-0.8-0.8-0.8C15.2,0,15.1,0,15,0.1z"/>
</g>
<defs>
	<filter id="Adobe_OpacityMaskFilter_1_" filterUnits="userSpaceOnUse" x="0" y="0.3" width="7.6" height="21.7">
		<feColorMatrix  type="matrix" values="1 0 0 0 0  0 1 0 0 0  0 0 1 0 0  0 0 0 1 0"/>
	</filter>
</defs>
<mask maskUnits="userSpaceOnUse" x="0" y="0.3" width="7.6" height="21.7" id="mask1_1_">
	<path class="st3" d="M6,1.1v4.8H5.6V1.1c0-0.4-0.4-0.8-0.8-0.8C4.4,0.3,4,0.6,4,1.1v4.8H3.6V1.1c0-0.4-0.4-0.8-0.8-0.8
		C2.4,0.3,2,0.6,2,1.1v4.8H1.6V1.2c0-0.4-0.4-0.8-0.8-0.8C0.4,0.5,0,0.8,0,1.2v5.2c0,0.9,0.6,1.8,1.4,2.2l1.4,0.7
		c0.2,0.1,0.3,0.1,0.5,0.2L2.7,21.3C2.7,21.7,3.6,22,4,22c0.4,0,1.3-0.3,1.3-0.7L4.8,9.5C5,9.4,5.2,9.3,5.3,9.2l1-0.6
		c0.7-0.4,1.3-1.4,1.3-2.3V1.1c0-0.4-0.4-0.8-0.8-0.8C6.4,0.3,6,0.6,6,1.1z"/>
</mask>
<g class="st4">
	<path class="st2" d="M6,1.1v4.8H5.6V1.1c0-0.4-0.4-0.8-0.8-0.8C4.4,0.3,4,0.6,4,1.1v4.8H3.6V1.1c0-0.4-0.4-0.8-0.8-0.8
		C2.4,0.3,2,0.6,2,1.1v4.8H1.6V1.2c0-0.4-0.4-0.8-0.8-0.8C0.4,0.5,0,0.8,0,1.2v5.2c0,0.9,0.6,1.8,1.4,2.2l1.4,0.7
		c0.2,0.1,0.3,0.1,0.5,0.2L2.7,21.3C2.7,21.7,3.6,22,4,22c0.4,0,1.3-0.3,1.3-0.7L4.8,9.5C5,9.4,5.2,9.3,5.3,9.2l1-0.6
		c0.7-0.4,1.3-1.4,1.3-2.3V1.1c0-0.4-0.4-0.8-0.8-0.8C6.4,0.3,6,0.6,6,1.1z"/>
</g>
</svg>
