<svg width="32" height="32" viewBox="0 0 32 32" fill="none" xmlns="http://www.w3.org/2000/svg">
<path d="M21.6956 14.3899H16.6581C17.4871 13.9542 18.4914 13.3431 18.4914 12.1263C18.4914 10.8138 17.3224 10.208 16.4669 9.76164C15.7601 9.39499 15.2978 9.13462 15.2978 8.81579C15.2978 8.49165 15.7601 8.23128 16.4669 7.86463C17.3224 7.42358 18.4914 6.8125 18.4914 5.5H16.8973C16.8973 5.82414 16.435 6.08451 15.7336 6.45116C14.878 6.89221 13.7037 7.50329 13.7037 8.81579C13.7037 10.1283 14.878 10.7341 15.7336 11.1804C16.435 11.5418 16.8973 11.8074 16.8973 12.1263C16.8973 12.4504 16.435 12.7108 15.7336 13.0774C15.149 13.3803 14.4264 13.7629 14.0225 14.3899H10.2657C7.2209 14.3899 4.75 17.1053 4.75 20.4423C4.75 23.7847 7.2209 26.5 10.2657 26.5C12.4284 26.5 14.2616 25.1184 15.1597 22.8601H16.8016C17.6996 25.1184 19.5329 26.5 21.6956 26.5C24.7351 26.5 27.2113 23.7847 27.2113 20.4423C27.2113 17.1053 24.7351 14.3899 21.6956 14.3899ZM12.5931 20.4636H11.1371V21.9195H9.8087V20.4636H8.35805V19.1351H9.81402V17.6792H11.1425V19.1351H12.5984V20.4636H12.5931ZM19.9155 20.5273C19.4904 20.5273 19.1716 20.2085 19.1716 19.794C19.1716 19.3849 19.4904 19.0607 19.8889 19.0607C20.314 19.0607 20.6328 19.3796 20.6328 19.794C20.6382 20.2085 20.314 20.5273 19.9155 20.5273ZM21.5628 22.1905C21.1536 22.1905 20.8295 21.8717 20.8295 21.4732C20.8295 21.0481 21.1483 20.7293 21.5628 20.7293C21.9719 20.7293 22.2961 21.0481 22.2961 21.4466C22.2961 21.8664 21.9772 22.1905 21.5628 22.1905ZM21.5628 18.8694C21.1536 18.8694 20.8295 18.5506 20.8295 18.1521C20.8295 17.727 21.1483 17.4081 21.5628 17.4081C21.9719 17.4081 22.2961 17.727 22.2961 18.1255C22.2961 18.5453 21.9772 18.8694 21.5628 18.8694ZM23.2366 20.5273C22.8115 20.5273 22.4927 20.2085 22.4927 19.794C22.4927 19.3849 22.8115 19.0607 23.21 19.0607C23.6351 19.0607 23.9539 19.3796 23.9539 19.794C23.9593 20.2085 23.6351 20.5273 23.2366 20.5273Z" fill="#13334C"/>
</svg>
