<svg width="33" height="32" viewBox="0 0 33 32" fill="none" xmlns="http://www.w3.org/2000/svg">
<path d="M22.1956 14.3899H17.1581C17.9871 13.9542 18.9914 13.3431 18.9914 12.1263C18.9914 10.8138 17.8224 10.208 16.9669 9.76164C16.2601 9.39499 15.7978 9.13462 15.7978 8.81579C15.7978 8.49165 16.2601 8.23128 16.9669 7.86463C17.8224 7.42358 18.9914 6.8125 18.9914 5.5H17.3973C17.3973 5.82414 16.935 6.08451 16.2336 6.45116C15.378 6.89221 14.2037 7.50329 14.2037 8.81579C14.2037 10.1283 15.378 10.7341 16.2336 11.1804C16.935 11.5418 17.3973 11.8074 17.3973 12.1263C17.3973 12.4504 16.935 12.7108 16.2336 13.0774C15.649 13.3803 14.9264 13.7629 14.5225 14.3899H10.7657C7.7209 14.3899 5.25 17.1053 5.25 20.4423C5.25 23.7847 7.7209 26.5 10.7657 26.5C12.9284 26.5 14.7616 25.1184 15.6597 22.8601H17.3016C18.1996 25.1184 20.0329 26.5 22.1956 26.5C25.2351 26.5 27.7113 23.7847 27.7113 20.4423C27.7113 17.1053 25.2351 14.3899 22.1956 14.3899ZM13.0931 20.4636H11.6371V21.9195H10.3087V20.4636H8.85805V19.1351H10.314V17.6792H11.6425V19.1351H13.0984V20.4636H13.0931ZM20.4155 20.5273C19.9904 20.5273 19.6716 20.2085 19.6716 19.794C19.6716 19.3849 19.9904 19.0607 20.3889 19.0607C20.814 19.0607 21.1328 19.3796 21.1328 19.794C21.1382 20.2085 20.814 20.5273 20.4155 20.5273ZM22.0628 22.1905C21.6536 22.1905 21.3295 21.8717 21.3295 21.4732C21.3295 21.0481 21.6483 20.7293 22.0628 20.7293C22.4719 20.7293 22.7961 21.0481 22.7961 21.4466C22.7961 21.8664 22.4772 22.1905 22.0628 22.1905ZM22.0628 18.8694C21.6536 18.8694 21.3295 18.5506 21.3295 18.1521C21.3295 17.727 21.6483 17.4081 22.0628 17.4081C22.4719 17.4081 22.7961 17.727 22.7961 18.1255C22.7961 18.5453 22.4772 18.8694 22.0628 18.8694ZM23.7366 20.5273C23.3115 20.5273 22.9927 20.2085 22.9927 19.794C22.9927 19.3849 23.3115 19.0607 23.71 19.0607C24.1351 19.0607 24.4539 19.3796 24.4539 19.794C24.4593 20.2085 24.1351 20.5273 23.7366 20.5273Z" fill="#13334C"/>
</svg>
