<svg width="32" height="32" viewBox="0 0 32 32" fill="none" xmlns="http://www.w3.org/2000/svg">
<path d="M11.2562 17.6238H9.95505V19.0499H8.53418V20.3511H9.95505V21.7771H11.2562V20.3511H12.6823V19.0499H11.2562V17.6238Z" fill="#13334C"/>
<path d="M21.5976 14.4074H16.6636C17.4755 13.9806 18.4592 13.3821 18.4592 12.1902C18.4592 10.9046 17.3142 10.3113 16.4762 9.87413C15.784 9.51501 15.3312 9.25998 15.3312 8.9425C15.3312 8.63022 15.784 8.36999 16.4762 8.01608C17.3142 7.58409 18.4592 6.98556 18.4592 5.70001H16.8978C16.8978 6.01229 16.445 6.27252 15.7528 6.62644C14.9148 7.05842 13.7698 7.65696 13.7698 8.9425C13.7698 10.228 14.9148 10.8214 15.7528 11.2586C16.445 11.6177 16.8978 11.8727 16.8978 12.1902C16.8978 12.5077 16.445 12.7627 15.7528 13.1218C15.1803 13.4185 14.4776 13.7932 14.0769 14.4074H10.3972C7.42536 14.4074 5 17.0669 5 20.3355C5 23.604 7.42536 26.2635 10.4024 26.2635C12.5207 26.2635 14.3163 24.9155 15.1959 22.7036H16.8041C17.6837 24.9155 19.4793 26.2635 21.5976 26.2635C24.5746 26.2635 27 23.604 27 20.3355C27 17.0669 24.5746 14.4074 21.5976 14.4074ZM21.5976 24.7021C19.9946 24.7021 18.6882 23.5779 18.1001 21.6887L17.9283 21.1422H14.0665L13.8947 21.6887C13.3066 23.5727 12.0002 24.7021 10.3972 24.7021C8.28413 24.7021 6.56139 22.7452 6.56139 20.3355C6.56139 17.9257 8.28413 15.9688 10.4024 15.9688H21.5976C23.7159 15.9688 25.4386 17.9309 25.4386 20.3355C25.4386 22.74 23.7159 24.7021 21.5976 24.7021Z" fill="#13334C"/>
<path d="M21.4726 17.6238C21.1187 17.6238 20.8376 17.8997 20.8376 18.2692C20.8376 18.6127 21.1135 18.8938 21.4726 18.8938C21.8317 18.8938 22.1076 18.6179 22.1076 18.2484C22.1076 17.9049 21.8265 17.6238 21.4726 17.6238Z" fill="#13334C"/>
<path d="M21.4726 20.5072C21.1187 20.5072 20.8376 20.7831 20.8376 21.1526C20.8376 21.4961 21.1135 21.7772 21.4726 21.7772C21.8317 21.7772 22.1076 21.5013 22.1076 21.1318C22.1076 20.7831 21.8265 20.5072 21.4726 20.5072Z" fill="#13334C"/>
<path d="M22.899 19.0655C22.5555 19.0655 22.2744 19.3414 22.2744 19.7005C22.2744 20.0596 22.5503 20.3355 22.9198 20.3355C23.2633 20.3355 23.5443 20.0596 23.5443 19.7005C23.5443 19.3414 23.2685 19.0655 22.899 19.0655Z" fill="#13334C"/>
<path d="M20.0206 19.0655C19.677 19.0655 19.396 19.3414 19.396 19.7005C19.396 20.0596 19.6718 20.3355 20.0414 20.3355C20.3849 20.3355 20.6659 20.0596 20.6659 19.7005C20.6659 19.3414 20.3901 19.0655 20.0206 19.0655Z" fill="#13334C"/>
</svg>
