<svg width="33" height="32" viewBox="0 0 33 32" fill="none" xmlns="http://www.w3.org/2000/svg">
<g clip-path="url(#clip0)">
<path d="M15.7963 13.8861C16.1415 13.977 16.4868 14.0194 16.832 14.0194C17.5286 14.0194 18.2191 13.8377 18.8369 13.4742C20.7509 12.3658 21.405 9.90671 20.2905 7.99272C19.7515 7.06601 18.8853 6.4058 17.8496 6.12718C16.8139 5.84856 15.7357 5.99393 14.809 6.533C13.8823 7.07206 13.2221 7.93821 12.9435 8.97394C12.6709 10.0097 12.8163 11.0878 13.3493 12.0145C13.8944 12.9473 14.7606 13.6136 15.7963 13.8861Z" fill="#13334C"/>
<path d="M11.2414 22.7293H22.4104H23.3189H24.2275C24.2275 19.1738 23.3492 15.5397 16.8259 15.5397C9.99367 15.5397 9.42432 19.089 9.42432 22.7293H10.3329H11.2414Z" fill="#13334C"/>
<path d="M26.6926 24.1829H6.8501V26H26.6926V24.1829Z" fill="#13334C"/>
</g>
<defs>
<clipPath id="clip0">
<rect x="6.8501" y="6" width="19.8425" height="20" fill="white"/>
</clipPath>
</defs>
</svg>
