<svg width="32" height="32" viewBox="0 0 32 32" fill="none" xmlns="http://www.w3.org/2000/svg">
<g clip-path="url(#clip0)">
<path d="M15.0463 13.8861C15.3915 13.977 15.7368 14.0194 16.082 14.0194C16.7786 14.0194 17.4691 13.8377 18.0869 13.4742C20.0009 12.3658 20.655 9.90671 19.5405 7.99272C19.0015 7.06601 18.1353 6.4058 17.0996 6.12718C16.0639 5.84856 14.9857 5.99393 14.059 6.533C13.1323 7.07206 12.4721 7.93821 12.1935 8.97394C11.9209 10.0097 12.0663 11.0878 12.5993 12.0145C13.1444 12.9473 14.0106 13.6136 15.0463 13.8861Z" fill="#13334C"/>
<path d="M10.4914 22.7293H21.6604H22.5689H23.4775C23.4775 19.1738 22.5992 15.5397 16.0759 15.5397C9.24367 15.5397 8.67432 19.089 8.67432 22.7293H9.58286H10.4914Z" fill="#13334C"/>
<path d="M25.9426 24.1829H6.1001V26H25.9426V24.1829Z" fill="#13334C"/>
</g>
<defs>
<clipPath id="clip0">
<rect x="6.1001" y="6" width="19.8425" height="20" fill="white"/>
</clipPath>
</defs>
</svg>
