<svg width="32" height="32" viewBox="0 0 32 32" fill="none" xmlns="http://www.w3.org/2000/svg">
<g clip-path="url(#clip0)">
<path d="M16.0053 21.1907C17.0372 21.1907 17.6689 20.065 19.1886 17.6635C20.5644 15.5059 21.4963 13.5485 21.4963 11.6348C21.49 8.50156 19.0885 6 16.0053 6C12.9159 6 10.4644 8.50156 10.4644 11.641C10.4644 13.5985 11.3962 15.5122 12.8158 17.6698C14.3355 20.065 15.0672 21.1907 16.0053 21.1907ZM16.0116 9.68355C17.0435 9.68355 17.8815 10.5216 17.8815 11.5535C17.8815 12.6479 17.0435 13.4859 16.0116 13.4859C14.9171 13.4859 14.0791 12.6479 14.0791 11.616C14.0729 10.5216 14.9109 9.68355 16.0116 9.68355Z" fill="#13334C"/>
<path d="M21.9963 18.339L20.9019 20.0088C23.1408 20.5278 24.4478 21.3096 24.4478 21.8349C24.4478 22.1976 23.6661 22.9794 21.5835 23.5047L22.0526 25.3308C24.9169 24.5991 26.3803 23.3484 26.3803 21.8412C26.374 20.1651 24.4979 19.0144 21.9963 18.339Z" fill="#13334C"/>
<path d="M14.0727 24.0238C10.2703 23.9737 7.55609 22.5666 7.55609 21.8349C7.55609 21.3158 8.80687 20.5341 11.1021 20.0088L10.0076 18.339C7.45602 19.0144 5.62988 20.1651 5.62988 21.8287C5.62988 24.5929 10.5329 26 15.3797 26C16.2115 26 18.613 25.8437 19.9701 25.581L14.548 22.5041L14.0727 24.0238Z" fill="#13334C"/>
</g>
<defs>
<clipPath id="clip0">
<rect x="5.62988" y="6" width="20.7442" height="20" fill="white"/>
</clipPath>
</defs>
</svg>
