<svg width="32" height="32" viewBox="0 0 32 32" fill="none" xmlns="http://www.w3.org/2000/svg">
<path d="M16.1282 13.4298C16.9402 13.4298 17.6056 12.7705 17.6056 11.9035C17.6056 11.0916 16.9463 10.4261 16.1282 10.4261C15.2613 10.4261 14.602 11.0855 14.602 11.9524C14.602 12.7705 15.2613 13.4298 16.1282 13.4298ZM14.6996 22.5873L14.2418 24.0647C10.5299 24.0159 7.88034 22.6422 7.88034 21.928C7.88034 21.4212 9.10134 20.6581 11.3419 20.1453L10.2735 18.5214C7.78266 19.1807 6 20.304 6 21.928C6 24.6264 10.7863 26 15.5177 26C16.3297 26 18.674 25.8474 19.9988 25.591L14.6996 22.5873ZM12.2576 11.8547C12.2576 9.56532 13.7839 7.8315 16.1221 7.8315C18.4603 7.8315 19.9866 9.55922 19.9866 11.8547C19.9866 13.9915 17.801 17.4042 16.1221 19.6386C14.4493 17.398 12.2576 14.0403 12.2576 11.8547ZM12.8193 18.1123C14.3944 20.6032 15.1575 21.7753 16.1282 21.7753C17.1966 21.7753 17.8559 20.6032 19.4371 18.1123C20.8596 15.8718 21.8303 13.8388 21.8303 11.8547C21.8303 8.60073 19.3394 6 16.1282 6C12.917 6 10.3773 8.59463 10.3773 11.8547C10.3773 13.8877 11.3419 15.8718 12.8193 18.1123ZM21.9768 18.5214L20.9084 20.1514C23.094 20.6581 24.37 21.4212 24.37 21.9341C24.37 22.2882 23.6068 23.0513 21.5739 23.5641L22.0317 25.3468C24.8278 24.6325 26.2564 23.4115 26.2564 21.9402C26.2503 20.2979 24.4188 19.1807 21.9768 18.5214Z" fill="#13334C"/>
</svg>
