<svg width="33" height="32" viewBox="0 0 33 32" fill="none" xmlns="http://www.w3.org/2000/svg">
<g clip-path="url(#clip0)">
<path d="M16.6252 21.1907C17.6571 21.1907 18.2887 20.065 19.8084 17.6635C21.1843 15.5059 22.1161 13.5485 22.1161 11.6348C22.1099 8.50156 19.7084 6 16.6252 6C13.5358 6 11.0842 8.50156 11.0842 11.641C11.0842 13.5985 12.0161 15.5122 13.4357 17.6698C14.9554 20.065 15.6871 21.1907 16.6252 21.1907ZM16.6314 9.68355C17.6633 9.68355 18.5014 10.5216 18.5014 11.5535C18.5014 12.6479 17.6633 13.4859 16.6314 13.4859C15.537 13.4859 14.699 12.6479 14.699 11.616C14.6927 10.5216 15.5308 9.68355 16.6314 9.68355Z" fill="#13334C"/>
<path d="M22.6164 18.339L21.522 20.0088C23.7609 20.5278 25.0679 21.3096 25.0679 21.8349C25.0679 22.1976 24.2862 22.9794 22.2036 23.5047L22.6727 25.3308C25.537 24.5991 27.0004 23.3483 27.0004 21.8411C26.9941 20.1651 25.118 19.0144 22.6164 18.339Z" fill="#13334C"/>
<path d="M14.6928 24.0238C10.8904 23.9737 8.1762 22.5666 8.1762 21.8349C8.1762 21.3158 9.42699 20.5341 11.7222 20.0088L10.6277 18.339C8.07614 19.0144 6.25 20.1651 6.25 21.8286C6.25 24.5929 11.1531 26 15.9998 26C16.8316 26 19.2331 25.8436 20.5902 25.581L15.1681 22.5041L14.6928 24.0238Z" fill="#13334C"/>
</g>
<defs>
<clipPath id="clip0">
<rect x="6.25" y="6" width="20.7442" height="20" fill="white"/>
</clipPath>
</defs>
</svg>
