<svg width="32" height="32" viewBox="0 0 32 32" fill="none" xmlns="http://www.w3.org/2000/svg">
<path d="M23.5909 20.1292C22.4797 18.7692 21.6952 18.0769 21.6952 14.3276C21.6952 10.8942 19.942 9.67101 18.4989 9.07692C18.3073 8.99817 18.1268 8.81731 18.0684 8.62043C17.8153 7.75894 17.1057 7 16.1624 7C15.2191 7 14.5091 7.75938 14.2586 8.6213C14.2001 8.82034 14.0197 8.99817 13.828 9.07692C12.3833 9.67187 10.6317 10.8908 10.6317 14.3276C10.6296 18.0769 9.84509 18.7692 8.73394 20.1292C8.27355 20.6925 8.67682 21.5385 9.48206 21.5385H22.8471C23.648 21.5385 24.0486 20.69 23.5909 20.1292Z" fill="#13334C" stroke="#13334C" stroke-width="1.5" stroke-linecap="round" stroke-linejoin="round"/>
<path d="M18.9315 21.5384V22.2307C18.9315 22.9652 18.6398 23.6695 18.1204 24.1889C17.6011 24.7082 16.8967 25 16.1623 25C15.4279 25 14.7235 24.7082 14.2042 24.1889C13.6848 23.6695 13.3931 22.9652 13.3931 22.2307V21.5384" stroke="#13334C" stroke-width="1.5" stroke-linecap="round" stroke-linejoin="round"/>
</svg>
