<svg width="48" height="48" viewBox="0 0 48 48" fill="none" xmlns="http://www.w3.org/2000/svg">
<circle cx="24" cy="24" r="21.75" fill="url(#paint0_linear)" stroke="#13334C" stroke-width="1.5"/>
<path d="M29.1201 21.4533C28.5269 21.4533 28.491 22.5698 27.4803 22.0465C26.7133 21.663 26.0143 22.3261 26.3638 23.0232C26.7832 23.7203 27.9337 23.8601 28.6667 23.6164C29.3997 23.3727 29.8191 22.8494 29.8191 22.2562C29.8172 21.8368 29.5036 21.4533 29.1201 21.4533Z" fill="#13334C"/>
<path d="M21.4331 23.9128C20.3809 23.9657 18.537 24.149 16.9841 24.3605C15.8261 24.5457 15.4048 25.1238 15.5106 26.4405C15.6428 27.5986 16.2738 28.0992 17.4848 27.967C19.1699 27.7573 21.2234 27.2302 21.9602 26.9147C22.9086 26.5199 23.1447 26.3102 23.0389 25.3354C22.8802 24.0432 22.3532 23.8335 21.4331 23.9128ZM20.1428 26.3612L20.037 26.3876C19.9048 26.3876 19.8273 26.4141 19.748 26.4141C19.6422 26.4141 19.6158 26.3876 19.6158 26.3876C19.5893 26.3612 19.5629 26.2818 19.5629 26.1515L19.51 25.1521C19.4835 24.916 19.4835 24.916 19.6951 24.8631L20.1957 24.8102C20.328 24.7837 20.4054 24.7837 20.4319 24.8102C20.4848 24.8366 20.4848 24.9424 20.4848 25.0199L20.5641 25.9947C20.5906 26.2818 20.5906 26.2818 20.1428 26.3612ZM21.7486 26.0438C21.5125 26.0967 21.3538 26.0967 21.3273 26.0967C21.3009 26.0702 21.2745 25.9645 21.2745 25.8341L21.1687 24.9386C21.1687 24.676 21.1687 24.676 21.4313 24.6496L21.6938 24.5967C21.7467 24.5967 21.7996 24.5967 21.8261 24.5967H21.9054C21.9319 24.6231 21.9583 24.7025 21.9583 24.8064L22.0906 25.7019C22.117 25.9399 22.117 25.9399 21.7486 26.0438Z" fill="#13334C"/>
<path d="M26.6196 19.6947C26.6252 19.6323 26.6649 19.075 26.3494 18.7293C26.2077 18.5744 26.0207 18.4932 25.8072 18.4932C25.2008 18.4932 24.8721 19.0618 24.8721 19.5964C24.8721 20.4881 25.3538 20.677 25.7581 20.677C26.0547 20.677 26.5629 20.5486 26.6196 19.6947Z" fill="#13334C"/>
<path d="M30.5817 18.8103C30.4892 18.1302 30.0074 17.6731 29.384 17.6731C29.1157 17.6731 28.8834 17.7713 28.7171 17.9546C28.5055 18.1869 28.4111 18.5402 28.4508 18.9445C28.481 19.328 28.5906 19.6057 28.787 19.7927C28.9684 19.9665 29.2178 20.0553 29.5276 20.0553C29.5729 20.0553 29.6201 20.0534 29.6693 20.0496C29.9281 20.0326 30.1623 19.9174 30.3305 19.7228C30.5251 19.4961 30.6157 19.1787 30.5855 18.8255L30.5817 18.8103Z" fill="#13334C"/>
<path d="M29.6178 11C25.7053 11 22.1839 13.728 21.0844 17.5479C18.4264 16.5145 15.4849 16.7941 13.131 18.3224C10.7601 19.864 9.3999 22.3558 9.3999 25.1593C9.3999 26.8426 9.86086 28.4257 10.6694 29.5384L9.53592 33.9572C9.43202 34.3029 9.49625 34.6127 9.70973 34.8073C9.80418 34.8923 9.9761 35 10.2557 35C10.4125 35 10.6052 34.966 10.8338 34.8734L15.296 33.0882C17.3741 33.7097 19.6468 33.4943 21.551 32.4912C23.3042 31.5674 24.6209 30.0598 25.2954 28.2103C26.6008 28.8583 27.9969 29.0435 29.6348 28.7903L34.0422 32.2361L34.0649 32.2531C34.4805 32.5309 34.7866 32.495 34.9755 32.4081C35.2343 32.3079 35.4005 32.0435 35.4005 31.7393L35.6348 26.7311C37.575 24.9874 38.6839 22.5372 38.6839 19.9924C38.6839 15.0353 34.6165 11 29.6178 11ZM21.8703 19.1744C22.3048 19.3426 22.8111 20.2361 22.8111 20.9843C22.8111 21.1297 22.762 21.1297 22.5447 20.9597C22.2557 20.7179 21.8212 19.9471 21.8703 19.1744ZM33.0107 24.0617C32.818 23.7651 32.4818 23.58 32.0662 23.5516C31.7752 23.5252 31.4843 23.5252 31.2463 23.5516C30.5756 23.6178 30.2053 24.0258 30.2053 24.7003C30.2053 25.3388 30.6398 25.7922 31.2727 25.8243C31.5617 25.8508 31.8583 25.8772 32.1531 25.8186C32.4383 25.762 32.7746 25.6562 32.9862 25.3596C33.876 25.3086 34.7469 25.0479 35.5857 24.5831C35.24 25.0327 34.8432 25.4351 34.4125 25.7752C34.2104 25.9263 34.1537 26.0812 34.1197 26.3136L33.9345 30.1977L30.3678 27.3564C30.1316 27.16 29.9559 27.1524 29.7444 27.2072C28.1593 27.6096 26.5989 27.3186 25.4635 26.4099C25.2425 26.2324 24.9648 26.1738 24.7211 26.2494C24.4981 26.3193 24.33 26.4893 24.262 26.7179C23.1606 30.4339 19.5032 32.6102 15.9308 31.6713L15.8571 31.6524C15.2695 31.505 15.0542 31.471 14.4194 31.7355L11.3986 32.9521L12.1505 30.0579C12.3262 29.3835 12.2431 29.1001 11.9049 28.5919C11.0718 27.364 10.7866 25.0176 11.257 23.2531C11.7141 21.5321 13.0743 19.9981 14.8955 19.1499C15.8854 18.6889 16.9415 18.4584 17.9937 18.4584C18.944 18.4584 19.8905 18.6474 20.7784 19.0252C20.75 19.9754 21.0882 21.0183 21.6455 21.6398C21.9912 22.0271 22.4049 22.2311 22.8394 22.2311C23.4837 22.2311 23.9182 21.7494 23.9182 21.0334C23.9182 20.102 23.4685 18.9099 22.4711 18.2242C23.2683 14.8955 26.2853 12.5057 29.7444 12.5057C33.8212 12.5057 37.1386 15.8665 37.1386 19.9962C37.1386 20.733 37.0554 21.3526 36.8779 21.9458C36.1222 22.8753 34.4522 23.8955 33.0107 24.0617Z" fill="#13334C"/>
<defs>
<linearGradient id="paint0_linear" x1="24" y1="1.5" x2="24" y2="46.5" gradientUnits="userSpaceOnUse">
<stop stop-color="white"/>
<stop offset="0.697917" stop-color="#FEFEFE"/>
<stop offset="1" stop-color="#ECECEC"/>
</linearGradient>
</defs>
</svg>
