<?xml version="1.0" encoding="utf-8"?>
<!-- Generator: Adobe Illustrator 23.1.1, SVG Export Plug-In . SVG Version: 6.00 Build 0)  -->
<svg version="1.1" id="圖層_1" xmlns="http://www.w3.org/2000/svg" xmlns:xlink="http://www.w3.org/1999/xlink" x="0px" y="0px"
	 viewBox="0 0 64 64" style="enable-background:new 0 0 64 64;" xml:space="preserve">
<style type="text/css">
	.st0{fill:#00C300;}
	.st1{fill-rule:evenodd;clip-rule:evenodd;fill:#FFFFFF;}
	.st2{opacity:1.000000e-02;enable-background:new    ;}
	.st3{fill:#FFFFFF;}
	.st4{fill:#3C599B;}
	.st5{fill:#DD4B39;}
</style>
<g>
	<path class="st4" d="M33.9,58h-3.7C16.9,58,6,47.1,6,33.9v-3.7C6,16.9,16.9,6,30.1,6h3.7C47.1,6,58,16.9,58,30.1v3.7
		C58,47.1,47.1,58,33.9,58z"/>
	<path class="st3" d="M33.6,45h-5.8V32H25v-4.5h2.8v-2.7c0-3.7,1.6-5.9,6.3-5.9h3.8v4.5h-2.4c-1.8,0-2,0.6-2,1.8v2.3h4.4L37.5,32
		h-3.9V45L33.6,45z"/>
</g>
</svg>
