<svg width="64" height="64" viewBox="0 0 64 64" fill="none" xmlns="http://www.w3.org/2000/svg">
<rect opacity="0.01" width="64" height="64" fill="black"/>
<path d="M33.884 58H30.116C16.8522 58 6 47.1478 6 33.884V30.116C6 16.8522 16.8522 6 30.116 6H33.884C47.1478 6 58 16.8522 58 30.116V33.884C57.9999 47.1478 47.1477 58 33.884 58Z" fill="#3C599B"/>
<path d="M33.644 45H27.8805V32H25V27.5184H27.8805V24.8292C27.8805 21.1754 29.5068 19 34.1257 19H37.9721V23.4815H35.5692C33.7704 23.4815 33.6508 24.1083 33.6508 25.2764L33.6441 27.5184H38L37.4898 32H33.6441V45H33.644Z" fill="white"/>
</svg>
