<?xml version="1.0" encoding="utf-8"?>
<!-- Generator: Adobe Illustrator 23.1.1, SVG Export Plug-In . SVG Version: 6.00 Build 0)  -->
<svg version="1.1" id="圖層_1" xmlns="http://www.w3.org/2000/svg" xmlns:xlink="http://www.w3.org/1999/xlink" x="0px" y="0px"
	 viewBox="0 0 64 64" style="enable-background:new 0 0 64 64;" xml:space="preserve">
<style type="text/css">
	.st0{opacity:1.000000e-02;enable-background:new    ;}
	.st1{fill:#DD4B39;}
	.st2{fill:#FFFFFF;}
</style>
<rect y="0" class="st0" width="64" height="64"/>
<path class="st1" d="M33.9,59h-3.8C16.9,59,6,48.1,6,34.9v-3.8C6,17.9,16.9,7,30.1,7h3.8C47.1,7,58,17.9,58,31.1v3.8
	C58,48.1,47.1,59,33.9,59z"/>
<g>
	<path class="st2" d="M32.2,31.7V36h7.1c-0.3,1.8-2.1,5.4-7.1,5.4c-4.3,0-7.7-3.5-7.7-7.9c0-4.4,3.5-7.9,7.7-7.9c2.4,0,4.1,1,5,1.9
		l3.4-3.3c-2.2-2-5-3.3-8.4-3.3c-6.9,0-12.5,5.6-12.5,12.5S25.3,46,32.2,46c7.2,0,12-5.1,12-12.2c0-0.8-0.1-1.4-0.2-2.1L32.2,31.7
		L32.2,31.7z"/>
</g>
</svg>
