<svg width="64" height="64" viewBox="0 0 64 64" fill="none" xmlns="http://www.w3.org/2000/svg">
<rect opacity="0.01" width="64" height="64" fill="black"/>
<path d="M33.884 59H30.116C16.8522 59 6 48.1478 6 34.884V31.116C6 17.8522 16.8522 7 30.116 7H33.884C47.1478 7 58 17.8522 58 31.116V34.884C57.9999 48.1478 47.1477 59 33.884 59Z" fill="#00C300"/>
<path fill-rule="evenodd" clip-rule="evenodd" d="M46.3 30.6009C46.3 24.0411 39.8845 18.7 32 18.7C24.1154 18.7 17.7 24.0398 17.7 30.6009C17.7 36.4848 22.7868 41.414 29.6599 42.3446C30.1254 42.4473 30.7584 42.6593 30.9183 43.0673C31.0639 43.438 31.0132 44.0179 30.9651 44.3939L30.761 45.6498L30.7555 45.6824C30.6876 46.0815 30.5172 47.0822 31.9999 46.4405C33.5261 45.7818 40.2341 41.4673 43.2345 37.9261C45.3067 35.5928 46.2998 33.2276 46.2998 30.5997V30.6009H46.3ZM40.7789 30.0543C41.1928 30.072 41.5144 30.4304 41.4971 30.8549C41.4809 31.2546 41.1687 31.5749 40.7789 31.5916H38.6859V32.9649H40.7789C41.1935 32.9826 41.5157 33.3417 41.4984 33.7669C41.4822 34.1673 41.1693 34.4881 40.7789 34.5048H37.9371C37.5232 34.504 37.1878 34.16 37.187 33.7355V27.909C37.187 27.4824 37.525 27.1384 37.9371 27.1384H40.7789C41.1928 27.169 41.5042 27.538 41.4742 27.9625C41.4473 28.3444 41.1512 28.6481 40.7789 28.6756H38.6859V30.0529H40.7789V30.0543ZM35.4358 34.506C35.8487 34.5046 36.1822 34.1601 36.1807 33.7367V27.9102C36.1583 27.5203 35.855 27.2092 35.4748 27.1862C35.0606 27.1612 34.7049 27.4853 34.6805 27.9102V31.5141L31.7685 27.4476C31.6269 27.2545 31.4049 27.1409 31.1692 27.1409C30.755 27.1409 30.4191 27.4853 30.4191 27.9102V33.7367C30.4191 34.1616 30.755 34.506 31.1692 34.506C31.5835 34.506 31.9193 34.1616 31.9193 33.7367V30.1328L34.8313 34.1994C34.9732 34.3916 35.1943 34.505 35.4293 34.506H35.4358ZM29.3428 33.7369C29.3428 34.1618 29.0069 34.5063 28.5927 34.5063C28.1784 34.5063 27.8426 34.1618 27.8426 33.7369V27.9104C27.8598 27.4859 28.2093 27.1561 28.6232 27.1738C29.0129 27.1905 29.3252 27.5107 29.3414 27.9104V33.7369H29.3428ZM23.5603 34.5063H26.4021V34.5062H26.4034C26.8181 34.5062 27.1542 34.1615 27.1542 33.7362C27.1542 33.3111 26.8181 32.9663 26.4034 32.9663H24.3104V27.9104C24.2942 27.5107 23.9819 27.1905 23.5922 27.1738C23.1783 27.1561 22.8288 27.4859 22.8116 27.9104V33.7369C22.8116 34.1613 23.1466 34.5055 23.5603 34.5063Z" fill="white"/>
</svg>
