<?xml version="1.0" encoding="utf-8"?>
<!-- Generator: Adobe Illustrator 23.1.1, SVG Export Plug-In . SVG Version: 6.00 Build 0)  -->
<svg version="1.1" id="圖層_1" xmlns="http://www.w3.org/2000/svg" xmlns:xlink="http://www.w3.org/1999/xlink" x="0px" y="0px"
	 viewBox="0 0 64 64" style="enable-background:new 0 0 64 64;" xml:space="preserve">
<style type="text/css">
	.st0{fill:#00C300;}
	.st1{fill-rule:evenodd;clip-rule:evenodd;fill:#FFFFFF;}
	.st2{opacity:1.000000e-02;enable-background:new    ;}
	.st3{fill:#FFFFFF;}
	.st4{fill:#3C599B;}
	.st5{fill:#DD4B39;}
</style>
<g>
	<path class="st0" d="M33.9,58h-3.8C16.9,58,6,47.1,6,33.9v-3.8C6,16.9,16.9,6,30.1,6h3.8C47.1,6,58,16.9,58,30.1v3.8
		C58,47.1,47.1,58,33.9,58z"/>
	<path class="st3" d="M24.6,25c0-0.4-0.1-0.8-0.4-1.1c-0.3-0.3-0.6-0.4-1.1-0.4c-0.5,0-0.9,0.1-1.3,0.4c-0.4,0.3-0.5,0.6-0.5,1.1
		c0,0.4,0.2,0.8,0.5,1c0.4,0.3,0.8,0.4,1.3,0.4c0.5,0,0.8-0.1,1.1-0.4C24.5,25.7,24.6,25.4,24.6,25z M37,33.2c0-0.3-0.1-0.6-0.4-0.8
		c-0.3-0.2-0.6-0.4-1.1-0.4c-0.3,0-0.6,0.1-0.8,0.4c-0.2,0.2-0.4,0.5-0.4,0.8c0,0.3,0.1,0.6,0.4,0.8c0.2,0.2,0.5,0.4,0.8,0.4
		c0.4,0,0.8-0.1,1.1-0.4C36.8,33.8,37,33.5,37,33.2z M33,25c0-0.4-0.1-0.8-0.4-1.1c-0.3-0.3-0.6-0.4-1.1-0.4c-0.5,0-0.9,0.1-1.3,0.4
		c-0.4,0.3-0.5,0.6-0.5,1.1c0,0.4,0.2,0.8,0.5,1c0.4,0.3,0.8,0.4,1.3,0.4c0.5,0,0.8-0.1,1.1-0.4C32.9,25.7,33,25.4,33,25z
		 M43.6,33.2c0-0.3-0.1-0.6-0.4-0.8c-0.3-0.2-0.6-0.4-1.1-0.4c-0.3,0-0.6,0.1-0.8,0.4c-0.2,0.2-0.4,0.5-0.4,0.8
		c0,0.3,0.1,0.6,0.4,0.8c0.2,0.2,0.5,0.4,0.8,0.4c0.4,0,0.8-0.1,1.1-0.4C43.4,33.8,43.6,33.5,43.6,33.2z M39.2,26.7
		c-0.3,0-0.7-0.1-1.2-0.1c-1.9,0-3.6,0.4-5.2,1.2c-1.6,0.8-2.8,2-3.7,3.4c-0.9,1.4-1.4,3-1.4,4.7c0,0.8,0.1,1.7,0.4,2.5
		c-0.4,0-0.8,0-1.1,0c-0.3,0-0.6,0-0.8,0c-0.3,0-0.6-0.1-0.9-0.1c-0.3-0.1-0.6-0.1-0.7-0.1c-0.1,0-0.5-0.1-0.9-0.2
		c-0.5-0.1-0.7-0.1-0.8-0.2l-4.2,2.1l1.2-3.5c-3.2-2.2-4.8-4.8-4.8-7.9c0-1.8,0.5-3.5,1.6-5c1.1-1.5,2.5-2.7,4.4-3.6
		c1.8-0.9,3.9-1.3,6-1.3c1.9,0,3.8,0.4,5.5,1.1c1.7,0.7,3.2,1.7,4.3,3C38.1,23.8,38.8,25.2,39.2,26.7z M49,35.8
		c0,1.3-0.4,2.5-1.1,3.6c-0.8,1.2-1.8,2.2-3.1,3.1l0.9,2.9l-3.3-1.8c-1.7,0.4-2.9,0.6-3.6,0.6c-1.9,0-3.6-0.4-5.2-1.1
		c-1.6-0.8-2.8-1.8-3.7-3.1c-0.9-1.3-1.4-2.7-1.4-4.3c0-1.5,0.5-3,1.4-4.3c0.9-1.3,2.1-2.3,3.7-3.1c1.6-0.8,3.3-1.1,5.2-1.1
		c1.8,0,3.5,0.4,5,1.1c1.6,0.8,2.8,1.8,3.8,3.1C48.5,32.9,49,34.3,49,35.8z"/>
</g>
</svg>
