<svg width="64" height="64" viewBox="0 0 64 64" fill="none" xmlns="http://www.w3.org/2000/svg">
<rect opacity="0.01" width="64" height="64" fill="black"/>
<path d="M33.884 59H30.116C16.8522 59 6 48.1478 6 34.884V31.116C6 17.8522 16.8522 7 30.116 7H33.884C47.1478 7 58 17.8522 58 31.116V34.884C57.9999 48.1478 47.1477 59 33.884 59Z" fill="#00C300"/>
<path d="M24.6289 25.9514C24.6289 25.5085 24.4906 25.152 24.2139 24.8819C23.9372 24.6119 23.5719 24.4768 23.1182 24.4768C22.6423 24.4768 22.2217 24.6146 21.8564 24.89C21.4912 25.1655 21.3086 25.5193 21.3086 25.9514C21.3086 26.3727 21.4912 26.721 21.8564 26.9965C22.2217 27.272 22.6423 27.4097 23.1182 27.4097C23.5719 27.4097 23.9372 27.2774 24.2139 27.0127C24.4906 26.748 24.6289 26.3943 24.6289 25.9514ZM36.9639 34.1666C36.9639 33.8642 36.8228 33.5941 36.5405 33.3565C36.2583 33.1188 35.8958 33 35.4531 33C35.1543 33 34.8804 33.1215 34.6313 33.3646C34.3823 33.6076 34.2578 33.875 34.2578 34.1666C34.2578 34.4691 34.3823 34.7419 34.6313 34.9849C34.8804 35.228 35.1543 35.3495 35.4531 35.3495C35.8958 35.3495 36.2583 35.2307 36.5405 34.993C36.8228 34.7554 36.9639 34.4799 36.9639 34.1666ZM33.0459 25.9514C33.0459 25.5085 32.9103 25.152 32.6392 24.8819C32.368 24.6119 32.0055 24.4768 31.5518 24.4768C31.0758 24.4768 30.6553 24.6146 30.29 24.89C29.9248 25.1655 29.7422 25.5193 29.7422 25.9514C29.7422 26.3727 29.9248 26.721 30.29 26.9965C30.6553 27.272 31.0758 27.4097 31.5518 27.4097C32.0055 27.4097 32.368 27.2774 32.6392 27.0127C32.9103 26.748 33.0459 26.3943 33.0459 25.9514ZM43.5879 34.1666C43.5879 33.8642 43.444 33.5941 43.1562 33.3565C42.8685 33.1188 42.5088 33 42.0771 33C41.7783 33 41.5044 33.1215 41.2554 33.3646C41.0063 33.6076 40.8818 33.875 40.8818 34.1666C40.8818 34.4691 41.0063 34.7419 41.2554 34.9849C41.5044 35.228 41.7783 35.3495 42.0771 35.3495C42.5088 35.3495 42.8685 35.2307 43.1562 34.993C43.444 34.7554 43.5879 34.4799 43.5879 34.1666ZM39.1719 27.7338C38.8288 27.6906 38.4414 27.669 38.0098 27.669C36.1393 27.669 34.4183 28.0848 32.8467 28.9166C31.2751 29.7484 30.0382 30.8746 29.1362 32.2951C28.2342 33.7156 27.7832 35.2685 27.7832 36.9537C27.7832 37.7963 27.9105 38.6173 28.165 39.4166C27.7777 39.449 27.4014 39.4653 27.0361 39.4653C26.7484 39.4653 26.4717 39.4571 26.2061 39.4409C25.9404 39.4247 25.6361 39.3896 25.293 39.3356C24.9499 39.2816 24.7036 39.2438 24.5542 39.2222C24.4048 39.2006 24.1032 39.1439 23.6494 39.0521C23.1956 38.9602 22.9189 38.9035 22.8193 38.8819L18.6191 40.9398L19.8145 37.4074C16.6048 35.2145 15 32.5679 15 29.4676C15 27.6419 15.5396 25.9622 16.6187 24.4282C17.6978 22.8943 19.1587 21.6871 21.0015 20.8067C22.8442 19.9263 24.8558 19.4861 27.0361 19.4861C28.984 19.4861 30.8241 19.8426 32.5562 20.5555C34.2882 21.2685 35.7381 22.2542 36.9058 23.5127C38.0734 24.7712 38.8288 26.1782 39.1719 27.7338ZM49 36.824C49 38.0879 48.6209 39.2951 47.8628 40.4456C47.1047 41.596 46.0781 42.6412 44.7832 43.581L45.6963 46.5139L42.3926 44.7477C40.7324 45.1473 39.526 45.3472 38.7734 45.3472C36.903 45.3472 35.182 44.9664 33.6104 44.2048C32.0387 43.4433 30.8019 42.4089 29.8999 41.1018C28.9979 39.7947 28.5469 38.3688 28.5469 36.824C28.5469 35.2793 28.9979 33.8534 29.8999 32.5463C30.8019 31.2392 32.0387 30.2048 33.6104 29.4433C35.182 28.6817 36.903 28.3009 38.7734 28.3009C40.5553 28.3009 42.2321 28.6817 43.8037 29.4433C45.3753 30.2048 46.6343 31.2419 47.5806 32.5544C48.5269 33.8669 49 35.2901 49 36.824Z" fill="white"/>
</svg>
