<svg width="48" height="48" viewBox="0 0 48 48" fill="none" xmlns="http://www.w3.org/2000/svg">
<path d="M35.0066 18.3621V26.8671H12.9934V15H11V32.8272H12.9934V28.8605H35.0066V32.8272H37V18.3621H35.0066Z" fill="#13334C"/>
<path d="M16.4086 25.113C16.6611 25.1794 16.9203 25.2127 17.1728 25.2127C17.691 25.2127 18.196 25.0798 18.6545 24.8073C20.0698 23.9834 20.5548 22.1628 19.7309 20.7475C18.9203 19.3389 17.0997 18.8539 15.6844 19.6778C15 20.0764 14.5083 20.7143 14.3023 21.4784C14.0963 22.2426 14.2027 23.0465 14.6013 23.7309C15 24.4153 15.6445 24.907 16.4086 25.113ZM16.2292 21.9901C16.2957 21.7376 16.4552 21.5249 16.6811 21.3987C16.8339 21.3123 17 21.2658 17.1661 21.2658C17.505 21.2658 17.8306 21.4386 18.01 21.7509C18.1429 21.9768 18.1761 22.2359 18.1096 22.4884C18.0432 22.7409 17.8837 22.9535 17.6578 23.0798C17.4319 23.2127 17.1661 23.2459 16.9203 23.1794C16.6678 23.113 16.4552 22.9535 16.3289 22.7276C16.196 22.5083 16.1628 22.2426 16.2292 21.9901Z" fill="#13334C"/>
<path d="M33.5315 20.3555H21.2524V25.2126H33.5382V20.3555H33.5315ZM31.5382 23.2193H23.2458V22.3488H31.5448V23.2193H31.5382Z" fill="#13334C"/>
</svg>
