<svg width="48" height="48" viewBox="0 0 48 48" fill="none" xmlns="http://www.w3.org/2000/svg">
<path d="M19.3965 12.0365L10 30.8945L22.7496 37.2498L32.1462 18.3983L19.3965 12.0365ZM21.8724 34.631L12.6123 30.0172L20.2738 14.6553L29.5338 19.2691L21.8724 34.631Z" fill="#13334C"/>
<path d="M25.05 10.75L23.8608 13.1479L25.6024 14.0121L25.9273 13.3623L35.1873 17.9826L27.5324 33.3445L26.6291 32.8962L25.7583 34.6377L28.4031 35.9568L37.7997 17.1053L25.05 10.75Z" fill="#13334C"/>
<path d="M23.0615 22.4728L21.6059 21.7515L20.6702 23.636L15.699 25.2151L16.1863 26.7682L19.6564 25.6635L18.2593 28.4643L16.5048 28.7957L16.8102 30.3942L18.3568 30.1018L19.0456 31.5119L20.5077 30.7906L19.7149 29.1856L21.112 26.3848L22.3207 29.8224L23.8543 29.283L22.1193 24.3638L23.0615 22.4728Z" fill="#13334C"/>
<path d="M21.2578 17.3163L20.3883 19.0611L25.9426 21.8289L26.812 20.0841L21.2578 17.3163Z" fill="#13334C"/>
</svg>
