<svg width="48" height="48" viewBox="0 0 48 48" fill="none" xmlns="http://www.w3.org/2000/svg">
<path d="M17.3481 25.1428C16.1723 25.8232 15.7693 27.3359 16.4497 28.5117C16.9055 29.2978 17.7378 29.7404 18.59 29.7404C19.0127 29.7404 19.4355 29.6347 19.8252 29.4101C21.001 28.7297 21.404 27.217 20.7236 26.0412C20.0366 24.8654 18.5239 24.4624 17.3481 25.1428ZM18.9929 27.9832C18.6032 28.2078 18.1077 28.0757 17.8765 27.686C17.6519 27.2963 17.7841 26.8008 18.1738 26.5696C18.2993 26.497 18.4446 26.4573 18.5833 26.4573C18.8674 26.4573 19.1382 26.6027 19.2902 26.8603C19.5148 27.2566 19.3826 27.7586 18.9929 27.9832Z" fill="#13334C"/>
<path d="M29.7932 24.8918C29.159 24.72 28.4918 24.8125 27.9237 25.1428C27.3557 25.4731 26.9461 26.0081 26.7744 26.6423C26.6026 27.2764 26.6951 27.9436 27.0254 28.5117C27.4812 29.2978 28.3135 29.7404 29.1656 29.7404C29.5884 29.7404 30.0111 29.6347 30.4009 29.4101C31.5767 28.7297 31.9796 27.217 31.2993 26.0412C30.9624 25.4731 30.4339 25.0635 29.7932 24.8918ZM29.5686 27.9832C29.1788 28.2078 28.6834 28.0757 28.4522 27.686C28.3399 27.4944 28.3135 27.2764 28.3729 27.0651C28.4258 26.8537 28.5645 26.6819 28.7495 26.5696C28.875 26.497 29.0137 26.4573 29.159 26.4573C29.2317 26.4573 29.2977 26.4639 29.3704 26.4838C29.5818 26.5366 29.7535 26.6753 29.8658 26.8603C30.0904 27.2566 29.9583 27.7587 29.5686 27.9832Z" fill="#13334C"/>
<path d="M35.1834 32.0259L36.4649 22.4278L31.6296 20.717V14.6463H28.122V11H19.9243V14.6463H16.2846V20.7236L11.4822 22.4278L12.7637 32.0259H11C11 34.7739 13.2327 37.0066 15.9807 37.0066C17.6123 37.0066 19.0589 36.2139 19.9705 34.9985C20.8821 36.2139 22.3288 37.0066 23.9604 37.0066C25.592 37.0066 27.0386 36.2139 27.9502 34.9985C28.8618 36.2139 30.3084 37.0066 31.94 37.0066C34.688 37.0066 36.9207 34.7739 36.9207 32.0259H35.1834ZM21.906 12.9817H26.1402V14.6463H21.906V12.9817ZM18.2663 16.628H29.6479V20.0168L23.9604 18.002L18.2663 20.0168V16.628ZM31.9334 35.0183C30.282 35.0183 28.9345 33.6707 28.9345 32.0193H26.9527C26.9527 33.6707 25.6052 35.0183 23.9538 35.0183C22.3023 35.0183 20.9548 33.6707 20.9548 32.0193H18.9731C18.9731 33.6707 17.6255 35.0183 15.9741 35.0183C14.3689 35.0183 13.0676 33.75 12.9883 32.1646H14.7718L13.6489 23.7556L22.9563 20.4527V31.7683H24.938V20.4527L34.2785 23.7556L33.1555 32.1646H34.906C34.8399 33.75 33.5386 35.0183 31.9334 35.0183Z" fill="#13334C"/>
</svg>
