<svg width="48" height="48" viewBox="0 0 48 48" fill="none" xmlns="http://www.w3.org/2000/svg">
<path d="M16.5437 26.2616C16.8664 26.3472 17.2021 26.3933 17.5247 26.3933C18.1897 26.3933 18.8415 26.2221 19.4275 25.8798C21.2447 24.8263 21.8636 22.4956 20.8101 20.6784C19.7567 18.8613 17.4194 18.2424 15.6088 19.2958C14.7266 19.8028 14.1011 20.6258 13.8377 21.6134C13.5744 22.601 13.7126 23.6215 14.2262 24.4971C14.7397 25.3728 15.5627 25.9983 16.5437 26.2616ZM15.7537 22.1137C15.8788 21.6397 16.1816 21.2447 16.603 21.0011C16.8927 20.8365 17.2087 20.7509 17.5182 20.7509C18.1502 20.7509 18.7625 21.0801 19.1049 21.6594C19.6119 22.5351 19.3156 23.6544 18.4399 24.1613C18.0185 24.405 17.5247 24.4708 17.0507 24.3457C16.5767 24.2206 16.1816 23.9177 15.938 23.4964C15.6944 23.0816 15.6286 22.5878 15.7537 22.1137Z" fill="#13334C"/>
<path d="M17.5247 28.3159C11 28.3159 11 33.5369 11 37.0001H12.9752C12.9752 32.2662 13.6072 30.291 17.5247 30.291C20.9681 30.291 22.0742 31.9239 22.0742 37.0001H24.0494C24.0428 33.9649 24.0428 28.3159 17.5247 28.3159Z" fill="#13334C"/>
<path d="M36.9934 17.8473L36.9868 16.017L26.2747 11.7111V11H24.2996V31.7658H26.2747V22.2915L36.9934 17.8473ZM34.0043 16.9519L26.2747 20.1517V13.8377L34.0043 16.9519Z" fill="#13334C"/>
</svg>
