<svg width="48" height="48" viewBox="0 0 48 48" fill="none" xmlns="http://www.w3.org/2000/svg">
<path d="M21.6842 18.2002L20.6934 21.0142H25.6675L26.9952 18.2002H35.543L35.9922 16.4233C36.23 15.4919 36.0318 14.4614 35.4769 13.748C35.0343 13.1799 34.3936 12.8496 33.7264 12.8496H19.1014L18.4871 11H12.6146L14.7417 18.2002H21.6842ZM17.0536 12.9817L17.668 14.8379H33.7264C33.8057 14.8379 33.8849 14.937 33.9114 14.97C34.0633 15.1682 34.1756 15.5447 34.0699 15.9411L34.0038 16.2185H27.9332L28.0521 15.9609H26.229L24.6238 19.3628H23.0252L24.2208 15.9609L22.4703 15.9675L22.3778 16.2185H16.2213L15.2635 12.9817H17.0536Z" fill="#13334C"/>
<path d="M25.8854 21.5891V25.2923H18.4672V34.0184H11.3V36.0001H18.4672H23.1639H25.8788H27.8605H36.6395V21.5891H25.8854ZM25.8854 34.0184H24.1944V31.9971H22.1334V34.025H20.4423V27.274H25.8788V34.0184H25.8854ZM34.6578 34.0184H32.2929V32.0169H30.232V34.0184H27.8671V25.2923V23.5708H34.6644V34.0184H34.6578Z" fill="#13334C"/>
<path d="M32.2929 28.3044H30.2319V30.3654H32.2929V28.3044Z" fill="#13334C"/>
<path d="M32.2929 24.592H30.2319V26.653H32.2929V24.592Z" fill="#13334C"/>
<path d="M24.201 28.7866H22.14V30.8476H24.201V28.7866Z" fill="#13334C"/>
<path d="M14.3849 27.0387H16.3666V24.4823H18.9296V22.5006H16.3666V19.9376H14.3849V22.5006H11.8219V24.4823H14.3849V27.0387Z" fill="#13334C"/>
</svg>
