<?xml version="1.0" encoding="utf-8"?>
<!-- Generator: Adobe Illustrator 22.0.1, SVG Export Plug-In . SVG Version: 6.00 Build 0)  -->
<svg version="1.1" id="圖層_1" xmlns="http://www.w3.org/2000/svg" xmlns:xlink="http://www.w3.org/1999/xlink" x="0px" y="0px"
	 viewBox="0 0 96 96" style="enable-background:new 0 0 96 96;" xml:space="preserve">
<style type="text/css">
	.st0{fill:#FFFFFF;}
</style>
<path class="st0" d="M48.6,73.8c5.2,0,9.4-4.1,9.4-9.2c0-5.1-4.2-9.2-9.4-9.2c-5.2,0-9.4,4.1-9.4,9.2C39.2,69.7,43.4,73.8,48.6,73.8
	z"/>
<path class="st0" d="M68.8,45.1c-0.1-0.1-0.3-0.2-0.4-0.4L68,44.4c-0.1-0.1-0.1-0.1-0.2-0.2c-11.1-9.8-28-9.4-38.6,0.9L28,46.3
	L26.2,48c-2.1,2-2.1,5.3,0,7.4c2.1,2,5.5,2,7.6,0l3-2.9c6.7-6.5,17.7-6.5,24.4,0l2.1,2c2.1,2,5.4,2,7.5,0c1-1,1.6-2.3,1.6-3.7
	c0-1.4-0.5-2.7-1.6-3.6L68.8,45.1z"/>
<path class="st0" d="M82.6,35.6L80.8,34c0,0,0,0,0,0l-1.4-1.3c-0.2-0.2-0.5-0.4-0.8-0.6c-17.8-14.5-44.9-14-62.1,1.3
	c-0.1,0.1-0.2,0.1-0.3,0.2l-3.2,2.9c-1.9,1.7-1.9,4.6,0,6.3c1.9,1.7,4.9,1.8,6.8,0l3.2-2.9c0,0,0,0,0.1-0.1
	c13.9-12.4,36.1-12.5,50.1-0.3l2.5,2.3c1.9,1.7,4.9,1.7,6.8,0C84.5,40.2,84.5,37.3,82.6,35.6z"/>
</svg>
