<svg width="97" height="98" viewBox="0 0 97 98" fill="none" xmlns="http://www.w3.org/2000/svg">
<mask id="mask0" mask-type="alpha" maskUnits="userSpaceOnUse" x="0" y="0" width="97" height="98">
<path fill-rule="evenodd" clip-rule="evenodd" d="M48.5115 0.667084C22.0014 0.667084 0.510986 22.3812 0.510986 49.1674C0.510986 75.9529 22.0014 97.6671 48.5115 97.6671C75.0211 97.6671 96.511 75.9529 96.511 49.1674C96.511 22.3812 75.0211 0.667084 48.5115 0.667084Z" fill="white"/>
</mask>
<g mask="url(#mask0)">
<path fill-rule="evenodd" clip-rule="evenodd" d="M48.5115 0.667084C22.0014 0.667084 0.510986 22.3812 0.510986 49.1674C0.510986 75.9529 22.0014 97.6671 48.5115 97.6671C75.0211 97.6671 96.511 75.9529 96.511 49.1674C96.511 22.3812 75.0211 0.667084 48.5115 0.667084Z" fill="url(#paint0_linear)"/>
</g>
<path d="M67.6025 41.3233C64.5672 41.3233 62.1066 39.1027 62.1066 36.3635C62.1066 33.6244 64.5672 31.4038 67.6025 31.4038C70.6378 31.4038 73.0984 33.6244 73.0984 36.3635C73.0984 39.1027 70.6378 41.3233 67.6025 41.3233Z" fill="white"/>
<path d="M62.937 55.1436C62.5998 52.8396 60.6895 51.4452 58.7112 52.1772L54.4778 53.7468C55.3362 52.128 56.1178 50.4673 56.735 48.7177C56.8204 48.4813 56.9285 48.2773 57.0475 48.0889L57.9177 45.4129C55.5016 46.4761 53.12 47.6281 50.7817 48.9109C50.6292 48.9937 50.4801 49.0513 50.3298 49.0981C52.1676 47.7481 53.1946 45.2545 52.7492 42.7082C52.7135 42.5078 52.6508 42.3218 52.5978 42.1286C55.5253 40.7006 58.5026 39.4047 61.536 38.2647C61.6473 38.2215 61.7533 38.2059 61.8592 38.1819C62.4333 37.9419 63.0787 37.8291 63.7997 37.8831C65.1132 37.9839 66.511 38.8743 67.3748 40.1378C68.7185 41.543 70.0633 42.9506 71.4082 44.357C73.727 43.4978 76.0481 42.6386 78.3669 41.7806C81.3149 40.691 82.5668 45.8401 79.6458 46.9213C76.9107 47.9329 74.1767 48.9457 71.4417 49.9549C70.6244 50.2573 69.7088 49.9009 69.1077 49.2721C68.5012 48.6373 67.8958 48.0037 67.2904 47.3701C66.5229 50.2909 65.8137 51.8184 65.8137 51.8184C65.8137 51.8184 65.4083 52.704 64.7046 53.6172C66.298 58.9259 68.1077 64.1482 69.9185 69.3741C71.033 72.5865 66.3888 73.9616 65.2883 70.7937C63.9392 66.9082 62.5922 63.019 61.3349 59.1011C62.7014 58.2107 63.1446 56.5535 62.937 55.1436Z" fill="white"/>
<path d="M47.6179 52.2344C44.5826 52.2344 42.122 50.0138 42.122 47.2746C42.122 44.5355 44.5826 42.3149 47.6179 42.3149C50.6532 42.3149 53.1138 44.5355 53.1138 47.2746C53.1138 50.0138 50.6532 52.2344 47.6179 52.2344Z" fill="white"/>
<path d="M29.585 66.748C30.6989 67.678 31.7263 68.6139 32.8288 69.4731C34.5293 66.826 36.1056 64.0746 37.2184 61.0952C37.3072 60.8588 37.4222 60.6524 37.5475 60.4676L38.4644 57.7906C35.9188 58.8561 33.4085 60.0093 30.945 61.2896C28.0281 62.8051 25.4643 58.2094 28.3914 56.6855C32.8892 54.348 37.527 52.337 42.2742 50.6439C42.3938 50.6019 42.5031 50.5851 42.617 50.5599C43.2207 50.3211 43.9007 50.2083 44.6615 50.2647C46.0453 50.3655 47.518 51.2534 48.428 52.5193C49.8449 53.9233 51.2595 55.332 52.6786 56.7383C55.1228 55.8791 57.5671 55.02 60.009 54.1632C63.1149 53.0713 64.4339 58.2226 61.3564 59.3013C58.4737 60.3152 55.5944 61.3268 52.7128 62.3371C51.8517 62.6407 50.8859 62.2819 50.2538 61.652C49.6137 61.0208 48.9781 60.3836 48.338 59.7501C47.5294 62.6731 46.7834 64.1982 46.7834 64.1982C46.7834 64.1982 46.3563 65.0849 45.6171 65.9993C47.2948 71.3089 49.2002 76.5298 51.108 81.7543C52.2823 84.9677 47.3893 86.3428 46.231 83.1726C44.3357 77.9901 42.4451 72.8064 40.7765 67.5424C40.6762 67.4896 40.5806 67.4524 40.4781 67.3876C40.3254 67.33 40.1831 67.2556 40.0453 67.1704C38.7594 69.7034 37.2696 72.1105 35.6762 74.4827C34.8698 75.6803 33.4962 76.1986 32.216 75.4379C29.9074 74.0676 28.0713 72.2473 26.0121 70.5242C23.4529 68.3823 27.0588 64.6374 29.585 66.748Z" fill="white"/>
<path d="M43.6206 26.4438C40.5853 26.4438 38.1247 24.2232 38.1247 21.484C38.1247 18.7448 40.5853 16.5243 43.6206 16.5243C46.6559 16.5243 49.1165 18.7448 49.1165 21.484C49.1165 24.2232 46.6559 26.4438 43.6206 26.4438Z" fill="white"/>
<path d="M26.5875 42.8132C27.7013 43.681 28.7287 44.5522 29.8312 45.3551C31.5327 42.8859 33.109 40.3228 34.2195 37.546C34.3084 37.3235 34.4245 37.1345 34.551 36.96L35.4667 34.4651C32.9211 35.4559 30.412 36.5317 27.9462 37.725C25.0305 39.1374 22.4656 34.8532 25.395 33.4363C29.8927 31.2556 34.5293 29.3824 39.2764 27.8045C39.3949 27.7654 39.5054 27.7486 39.6204 27.7273C40.2229 27.5037 40.904 27.3963 41.6625 27.4489C43.0486 27.5417 44.519 28.3726 45.4301 29.5502C46.847 30.8597 48.2627 32.1704 49.6795 33.4821C52.1237 32.6814 54.5679 31.8818 57.0109 31.0811C60.118 30.0657 61.4357 34.8632 58.3583 35.8708C55.4768 36.8147 52.5975 37.7585 49.7148 38.7001C48.8538 38.9819 47.888 38.6487 47.2581 38.0605C46.6169 37.4711 45.9791 36.8795 45.3413 36.2902C44.5315 39.0121 43.7844 40.4357 43.7844 40.4357C43.7844 40.4357 43.3573 41.261 42.6204 42.1132C42.6671 42.2552 42.7206 42.395 42.7673 42.5359C41.6238 43.9405 41.0851 45.8092 41.4621 47.708C41.6511 48.6653 42.0748 49.5208 42.6386 50.2645C42.5589 50.288 42.4757 50.307 42.3983 50.3338C42.2377 50.3651 42.109 50.3976 41.9734 50.4423C41.4689 50.61 40.9678 50.7957 40.4643 50.9713C39.5316 48.511 38.6284 46.0418 37.7787 43.5513C37.6808 43.5021 37.5851 43.4674 37.4826 43.4059C37.3311 43.3534 37.1887 43.2829 37.0532 43.2058C35.7639 45.5665 34.2765 47.8098 32.6808 50.0185C31.8744 51.1356 30.502 51.6188 29.2207 50.9097C26.9121 49.6326 25.0772 47.9351 23.0146 46.3303C20.4554 44.3364 24.059 40.8473 26.5875 42.8132Z" fill="white"/>
<defs>
<linearGradient id="paint0_linear" x1="0.510986" y1="97.6674" x2="96.5114" y2="97.6674" gradientUnits="userSpaceOnUse">
<stop stop-color="#E44D26"/>
<stop offset="1" stop-color="#F06428"/>
</linearGradient>
</defs>
</svg>
