<?xml version="1.0" encoding="utf-8"?>
<!-- Generator: Adobe Illustrator 22.0.1, SVG Export Plug-In . SVG Version: 6.00 Build 0)  -->
<svg version="1.1" id="圖層_1" xmlns="http://www.w3.org/2000/svg" xmlns:xlink="http://www.w3.org/1999/xlink" x="0px" y="0px"
	 viewBox="0 0 96 96" style="enable-background:new 0 0 96 96;" xml:space="preserve">
<style type="text/css">
	.st0{fill:#FFFFFF;}
</style>
<path class="st0" d="M24.3,49.5c0.3,1.4,1.5,2.4,3,2.5c0.5,0,0.9,0.4,1,0.8c0.1,0.5-0.1,0.9-0.6,1.1c-1.3,0.6-2.1,2-1.8,3.4l0.3,1.3
	c0.3,1.7,2.3,2.8,4,2.4c0.5-0.1,1-0.2,1.4-0.3c0.7-0.1,1.4-0.3,2.1-0.4c0.9-0.2,1.9-0.4,2.8-0.6c1.1-0.2,2.2-0.4,3.3-0.7
	c1.2-0.3,2.5-0.5,3.7-0.7c1.3-0.3,2.7-0.5,4-0.8c1.4-0.3,2.7-0.5,4.1-0.8c1.3-0.3,2.7-0.5,4-0.8c1.3-0.3,2.6-0.5,3.9-0.8
	c1.2-0.2,2.3-0.5,3.5-0.7c1-0.2,2-0.4,3.1-0.6c0.8-0.2,1.6-0.3,2.4-0.5c0.6-0.1,1.1-0.2,1.7-0.3c0.3-0.1,0.5-0.1,0.8-0.2
	c0,0,0,0,0,0c-0.1,0.7-0.1,1.4,0.2,2c0.6,1.4,2.1,2.1,3.5,1.8c0.4-0.1,0.9,0.1,1.1,0.5l0.6,1.2c0.2,0.4,0,0.8-0.3,1.1
	c-0.1,0.1-45.5,21-45.5,21c-0.4,0.1-0.9-0.1-1.1-0.5l-0.6-1.2c-0.2-0.4,0-0.8,0.3-1.1c1.1-0.9,1.5-2.5,0.9-3.9
	c-0.6-1.4-2.1-2.1-3.5-1.8c-0.4,0.1-0.9-0.1-1.1-0.5L25,70.3c-0.2-0.4,0-0.8,0.3-1.1c1.1-0.9,1.5-2.5,0.9-3.9
	c-0.6-1.4-2.1-2.1-3.5-1.8c-0.4,0.1-0.9-0.1-1.1-0.5l-0.6-1.2c-0.2-0.4,0-0.8,0.3-1.1c1.1-0.9,1.5-2.5,0.9-3.9
	c-0.6-1.4-2.1-2.1-3.5-1.8c-0.4,0.1-0.9-0.1-1.1-0.5l-0.6-1.4c-0.2-0.4,0-0.9,0.4-1l6.8-3.1L24.3,49.5z"/>
<path class="st0" d="M78.4,49.1c-0.1,0-49.1,9.9-49.2,9.9c-0.4,0-0.8-0.3-0.9-0.7l-0.3-1.3c-0.1-0.4,0.2-0.8,0.6-1
	c1.3-0.6,2.1-2.1,1.8-3.6c-0.3-1.5-1.6-2.5-3-2.6c-0.4,0-0.8-0.3-0.9-0.7l-0.2-1l-0.1-0.4c-0.1-0.4,0.2-0.8,0.6-1
	c1.3-0.6,2.1-2.1,1.8-3.6c-0.3-1.5-1.6-2.5-3-2.6c-0.4,0-0.8-0.3-0.9-0.7l-0.3-1.3c-0.1-0.4,0.2-0.8,0.6-1c1.3-0.6,2.1-2.1,1.8-3.6
	c-0.3-1.5-1.6-2.5-3-2.6c-0.4,0-0.8-0.3-0.9-0.7l-0.3-1.5c-0.1-0.4,0.2-0.8,0.6-0.9c0,0,49.2-9.9,49.3-9.9c0.4,0,0.7,0.3,0.8,0.6
	l0.3,1.5c0.1,0.4-0.2,0.8-0.6,1c-1.3,0.6-2.1,2.1-1.8,3.6c0.3,1.5,1.6,2.5,3,2.6c0.4,0,0.8,0.3,0.9,0.7l0.3,1.3
	c0.1,0.4-0.2,0.8-0.6,1c-1.3,0.6-2.1,2.1-1.8,3.6c0.3,1.5,1.6,2.5,3,2.6c0.4,0,0.8,0.3,0.9,0.7l0.3,1.3c0.1,0.4-0.2,0.8-0.6,1
	c-1.3,0.6-2.1,2.1-1.8,3.6c0.3,1.5,1.6,2.5,3,2.6c0.4,0,0.8,0.3,0.9,0.7l0.3,1.3C79.1,48.5,78.8,48.9,78.4,49.1z M36.4,32.9
	c-0.2-0.9-1-1.4-1.9-1.2c-0.9,0.2-1.4,1-1.2,1.9l2.1,10.3l1.3,6.4c0.2,0.7,0.8,1.3,1.5,1.3c0.1,0,0.2,0,0.3,0c0.9-0.2,1.4-1,1.2-1.9
	l-1.4-7.1L36.4,32.9z M64.8,27.2c-0.2-0.9-1-1.4-1.9-1.2c-0.9,0.2-1.4,1-1.2,1.9l0.7,3.6l0.8,4l0.7,3.3l1.2,5.8
	c0.2,0.7,0.8,1.3,1.5,1.3c0.1,0,0.2,0,0.3,0c0,0,0.1,0,0.1,0c0.8-0.2,1.3-1,1.1-1.8l-0.2-1.2l-0.6-3L64.8,27.2z"/>
</svg>
