<svg width="97" height="97" viewBox="0 0 97 97" fill="none" xmlns="http://www.w3.org/2000/svg">
<circle cx="48.546" cy="48.3382" r="48" fill="url(#paint0_radial)"/>
<path d="M26.7399 42.2289C26.7399 39.2816 29.1377 36.8838 32.085 36.8838H44.0835C45.9466 36.8838 47.5893 37.8426 48.5463 39.292C49.5034 37.8425 51.146 36.8838 53.0091 36.8838H65.0076C67.9549 36.8838 70.3526 39.2816 70.3526 42.2289V42.475H71.6907V37.2628C71.6907 34.0283 69.0593 31.397 65.8249 31.397H31.2675C28.0331 31.397 25.4017 34.0283 25.4017 37.2628V42.475H26.7398V42.2289H26.7399Z" fill="white"/>
<path d="M74.5348 44.9709H22.5572C21.3185 44.9709 20.3108 45.9787 20.3108 47.2174V60.2584C20.3108 61.4971 21.3185 62.5048 22.5572 62.5048H23.4924L22.3874 65.6233C22.1572 66.2729 22.4974 66.9863 23.1469 67.2164C23.2848 67.2651 23.4255 67.2884 23.5638 67.2884C24.0775 67.2884 24.5588 66.9687 24.7402 66.4568L26.1405 62.5047H70.9517L72.352 66.4568C72.5334 66.9687 73.0146 67.2884 73.5284 67.2884C73.6667 67.2884 73.8074 67.2651 73.9452 67.2164C74.5949 66.9861 74.935 66.2728 74.7047 65.6233L73.5998 62.5048H74.5349C75.7736 62.5048 76.7814 61.4971 76.7814 60.2584V47.2174C76.7814 45.9787 75.7736 44.9709 74.5348 44.9709Z" fill="white"/>
<path d="M53.0089 39.3799C51.438 39.3799 50.1599 40.6578 50.1599 42.2287V42.4749H67.8563V42.2287C67.8563 40.6578 66.5784 39.3799 65.0075 39.3799H53.0089Z" fill="white"/>
<path d="M32.0848 39.3799C30.5138 39.3799 29.2358 40.658 29.2358 42.2289V42.4749H46.9323V42.2287C46.9323 40.6578 45.6543 39.3799 44.0833 39.3799H32.0848Z" fill="white"/>
<defs>
<radialGradient id="paint0_radial" cx="0" cy="0" r="1" gradientUnits="userSpaceOnUse" gradientTransform="translate(48.5454 48.3381) scale(47.9996)">
<stop stop-color="#642A72"/>
<stop offset="1" stop-color="#C6426E"/>
</radialGradient>
</defs>
</svg>
