<?xml version="1.0" encoding="utf-8"?>
<!-- Generator: Adobe Illustrator 22.0.1, SVG Export Plug-In . SVG Version: 6.00 Build 0)  -->
<svg version="1.1" id="圖層_1" xmlns="http://www.w3.org/2000/svg" xmlns:xlink="http://www.w3.org/1999/xlink" x="0px" y="0px"
	 viewBox="0 0 96 96" style="enable-background:new 0 0 96 96;" xml:space="preserve">
<style type="text/css">
	.st0{fill:#FFFFFF;}
</style>
<path class="st0" d="M61.4,48c1.1-3.9,0.7-9.2,3.9-11.5c6.9-5,0.3-13,7.8-17.2c0,0-0.5-0.8-0.9-1.2c-2.8-2.7-7.8-2.7-11-6.2
	C58.1,17.1,50,15.6,47,19.6c-3.1,4.3-7.7,7.6-10.9,11.7c-3.9,4.9-9.1,9.5-11.2,14.9c-2.4,6.2-4.3,12.9,0.9,19.5
	c2.3,2.9,3.7,6.1,8,7.6c3.3,1.1,4.4,3.4,4.8,5.9c0.3,1.9-0.7,4.5,3.2,4.2c2.9-0.2,2.8-2.6,2.6-4.4c-0.4-4,0.7-8.1,4-10.6
	C56,62.7,59.2,55.7,61.4,48z"/>
</svg>
