<svg width="97" height="97" viewBox="0 0 97 97" fill="none" xmlns="http://www.w3.org/2000/svg">
<circle cx="48.1514" cy="48.3382" r="48" fill="url(#paint0_radial)"/>
<path d="M28.4011 25.5967V38.0031L46.7372 31.7626L48.1514 31.2813L49.5654 31.7626L67.901 38.003V25.5967H28.4011Z" fill="white"/>
<path d="M71.5848 73.6906C70.815 74.238 70.3908 74.5395 69.3267 74.5395C68.2626 74.5395 67.8384 74.238 67.0686 73.6906C66.0828 72.9896 64.7327 72.0297 62.2672 72.0297C59.8018 72.0297 58.4518 72.9897 57.466 73.6908C56.6963 74.2381 56.2725 74.5396 55.2085 74.5396C54.1446 74.5396 53.7205 74.2381 52.9508 73.6908C51.9651 72.9897 50.6151 72.0297 48.1497 72.0297C45.6843 72.0297 44.3344 72.9897 43.3486 73.6908C42.5789 74.2381 42.1552 74.5396 41.0912 74.5396C40.0273 74.5396 39.6033 74.2381 38.8339 73.6908C37.8481 72.9897 36.4982 72.0297 34.0329 72.0297C31.5675 72.0297 30.2175 72.9897 29.2318 73.6908C28.4621 74.2381 28.0384 74.5396 26.9744 74.5396C25.9105 74.5396 25.4865 74.2381 24.7171 73.6908C23.7313 72.9899 22.3813 72.0297 19.9159 72.0297V76.4185C20.9798 76.4185 21.4038 76.7201 22.1733 77.2674C23.159 77.9683 24.509 78.9284 26.9744 78.9284C29.4398 78.9284 30.7898 77.9683 31.7755 77.2672C32.5452 76.7199 32.9691 76.4184 34.0332 76.4184C35.0971 76.4184 35.5211 76.7199 36.2906 77.2672C37.2763 77.9683 38.6262 78.9284 41.0916 78.9284C43.557 78.9284 44.907 77.9682 45.8926 77.2672C46.6622 76.7199 47.0861 76.4184 48.1499 76.4184C49.2139 76.4184 49.6379 76.7199 50.4076 77.2672C51.3934 77.9683 52.7434 78.9284 55.2088 78.9284C57.6742 78.9284 59.0242 77.9683 60.0098 77.2672C60.7795 76.7199 61.2034 76.4184 62.2674 76.4184C63.3315 76.4184 63.7557 76.7199 64.5255 77.2674C65.5113 77.9683 66.8614 78.9282 69.327 78.9282C71.7925 78.9282 73.1426 77.9682 74.1284 77.2674C74.8982 76.7199 75.3224 76.4184 76.3865 76.4184V72.0296C73.9207 72.0296 72.5704 72.9896 71.5848 73.6906Z" fill="white"/>
<path d="M50.3454 14.9971V11.6323H45.9566V14.9971H35.5696V21.2079H60.8787V14.9971H50.3454Z" fill="white"/>
<path d="M20.8035 45.2252L30.0907 68.2753C31.1667 67.9042 32.4685 67.6408 34.0331 67.6408C37.6145 67.6408 39.8196 69.0212 41.0914 69.9117C42.0793 69.2198 43.6344 68.2353 45.9566 67.8291V36.6643L20.8035 45.2252Z" fill="white"/>
<path d="M50.3456 36.6643V67.8295C52.6669 68.236 54.2212 69.2203 55.2087 69.9118C56.4803 69.0213 58.6856 67.6408 62.2673 67.6408C63.7893 67.6408 65.0606 67.8914 66.1197 68.2464L75.5086 45.2283L50.3456 36.6643Z" fill="white"/>
<defs>
<radialGradient id="paint0_radial" cx="0" cy="0" r="1" gradientUnits="userSpaceOnUse" gradientTransform="translate(48.1514 48.3382) scale(48)">
<stop stop-color="#CB356B"/>
<stop offset="0.4876" stop-color="#D76D77"/>
<stop offset="1" stop-color="#FFAF7B"/>
</radialGradient>
</defs>
</svg>
