<svg width="96" height="97" viewBox="0 0 96 97" fill="none" xmlns="http://www.w3.org/2000/svg">
<circle cx="48" cy="48.3382" r="48" fill="url(#paint0_radial)"/>
<path d="M26.45 51.1916C26.7024 52.4592 27.8266 53.3826 29.1745 53.4399C29.5989 53.4571 29.9603 53.7669 30.0406 54.1856C30.1266 54.6043 29.9144 55.0287 29.5301 55.2065C28.3084 55.7801 27.6259 57.0649 27.884 58.3324L28.1249 59.5369C28.4404 61.1257 30.1955 62.118 31.7326 61.7394C32.1628 61.6362 32.6044 61.5559 33.0403 61.4698C33.6827 61.3436 34.3251 61.2117 34.9675 61.0855C35.8165 60.9135 36.6653 60.7472 37.5141 60.5751C38.5236 60.3744 39.5388 60.1678 40.5483 59.9671C41.6782 59.7377 42.8081 59.514 43.9381 59.2846C45.1426 59.0437 46.3528 58.8028 47.5573 58.5562C48.7962 58.3096 50.0351 58.0572 51.2682 57.8106C52.4956 57.5639 53.7173 57.3172 54.9448 57.0707C56.1148 56.8355 57.285 56.6003 58.455 56.3652C59.5275 56.153 60.5944 55.935 61.6669 55.7228C62.5961 55.5392 63.5253 55.35 64.4487 55.1664C65.1886 55.0173 65.9285 54.8682 66.6742 54.719C67.1846 54.6158 67.6952 54.5126 68.2056 54.4094C68.4408 54.3634 68.6759 54.3119 68.9111 54.266C68.9225 54.266 68.934 54.2602 68.9455 54.2602C68.8193 54.8567 68.8767 55.4934 69.152 56.0899C69.7314 57.3402 71.0792 57.9941 72.3754 57.7417C72.7597 57.6672 73.1784 57.8106 73.3448 58.1662L73.861 59.2846C74.0272 59.6402 73.861 60.0531 73.5569 60.2998C73.4996 60.3457 32.1571 79.4052 32.0883 79.4224C31.704 79.4969 31.2853 79.3535 31.119 78.9979L30.6028 77.8795C30.4364 77.5239 30.6028 77.111 30.9067 76.8643C31.9392 76.0441 32.3178 74.593 31.7384 73.3427C31.1591 72.0923 29.8112 71.4384 28.515 71.6908C28.1308 71.7654 27.712 71.622 27.5457 71.2664L27.0295 70.1479C26.8632 69.7923 27.0295 69.3794 27.3335 69.1327C28.3659 68.3125 28.7445 66.8614 28.1652 65.6111C27.5859 64.3608 26.238 63.7068 24.9417 63.9592C24.5574 64.0338 24.1387 63.8904 23.9724 63.5348L23.4562 62.4163C23.2899 62.0607 23.4562 61.6477 23.7603 61.4011C24.7927 60.5809 25.1712 59.1298 24.5919 57.8794C24.0126 56.6291 22.6647 55.9753 21.3685 56.2276C20.9842 56.3021 20.5655 56.1587 20.3992 55.8032L19.8314 54.5642C19.6651 54.2086 19.8199 53.7899 20.1755 53.6237L26.3528 50.773L26.45 51.1916Z" fill="white"/>
<path d="M75.6925 50.7959C75.6237 50.8303 30.9946 59.7836 30.9201 59.7836C30.53 59.7664 30.1515 59.5255 30.0769 59.1469L29.836 57.9424C29.7615 57.5581 30.0138 57.1911 30.3695 57.0247C31.5625 56.4626 32.268 55.1434 31.9984 53.7898C31.7288 52.4362 30.5645 51.4898 29.2453 51.4325C28.8552 51.4153 28.4767 51.1744 28.4021 50.7958L28.2243 49.9125L28.1612 49.5856C28.0866 49.2013 28.339 48.8342 28.6946 48.6679C29.8877 48.1058 30.5931 46.7866 30.3235 45.4331C30.0539 44.0794 28.8896 43.133 27.5704 43.0757C27.1804 43.0585 26.8018 42.8176 26.7273 42.439L26.4864 41.2345C26.4118 40.8502 26.6642 40.4832 27.0198 40.3168C28.2129 39.7547 28.9183 38.4355 28.6487 37.0819C28.3791 35.7283 27.2148 34.7819 25.8956 34.7246C25.5056 34.7074 25.1271 34.4665 25.0525 34.0879L24.7829 32.7515C24.7083 32.3672 24.955 31.9944 25.3392 31.9199C25.3392 31.9199 70.1862 22.9264 70.2321 22.9264C70.5648 22.9264 70.8573 23.1615 70.9261 23.4942L71.1957 24.8306C71.2703 25.2149 71.0179 25.582 70.6623 25.7483C69.4693 26.3104 68.7638 27.6296 69.0334 28.9832C69.3029 30.3368 70.4673 31.2832 71.7865 31.3406C72.1765 31.3578 72.555 31.5987 72.6296 31.9772L72.8705 33.1817C72.9451 33.566 72.6927 33.9331 72.3371 34.0994C71.1441 34.6615 70.4385 35.9807 70.7082 37.3343C70.9777 38.6879 72.1421 39.6343 73.4613 39.6916C73.8513 39.7088 74.2299 39.9497 74.3044 40.3283L74.5453 41.5328C74.6199 41.9171 74.3674 42.2841 74.0119 42.4505C72.8188 43.0126 72.1133 44.3318 72.383 45.6854C72.6525 47.039 73.8169 47.9854 75.1361 48.0428C75.5261 48.06 75.9047 48.3009 75.9792 48.6794L76.2201 49.8839C76.3005 50.2682 76.0482 50.6296 75.6925 50.7959ZM37.4644 36.0955C37.3096 35.3211 36.5525 34.8164 35.7782 34.9713C35.0039 35.1261 34.4991 35.8832 34.654 36.6575L36.5467 46.0755L37.7111 51.8799C37.8487 52.5625 38.4452 53.0328 39.1163 53.0328C39.2081 53.0328 39.3056 53.0214 39.3974 53.0042C40.1717 52.8493 40.6764 52.0922 40.5215 51.3179L39.2196 44.8424L37.4644 36.0955ZM63.3207 30.9047C63.1659 30.1304 62.4088 29.6257 61.6344 29.7805C60.8601 29.9354 60.3554 30.6925 60.5103 31.4668L61.1641 34.7189L61.904 38.4069L62.5005 41.378L63.5616 46.6892C63.6992 47.3717 64.2957 47.8421 64.9668 47.8421C65.0586 47.8421 65.1561 47.8306 65.2478 47.8134C65.2879 47.8076 65.3281 47.7962 65.3625 47.7847C66.0737 47.5782 66.5154 46.8612 66.3662 46.1271L66.1541 45.0546L65.5977 42.2785L63.3207 30.9047Z" fill="white"/>
<defs>
<radialGradient id="paint0_radial" cx="0" cy="0" r="1" gradientUnits="userSpaceOnUse" gradientTransform="translate(47.9994 48.3381) scale(47.9996)">
<stop stop-color="#3869FB"/>
<stop offset="1" stop-color="#2848FF"/>
</radialGradient>
</defs>
</svg>
