<?xml version="1.0" encoding="utf-8"?>
<!-- Generator: Adobe Illustrator 22.0.1, SVG Export Plug-In . SVG Version: 6.00 Build 0)  -->
<svg version="1.1" id="圖層_1" xmlns="http://www.w3.org/2000/svg" xmlns:xlink="http://www.w3.org/1999/xlink" x="0px" y="0px"
	 viewBox="0 0 96 96" style="enable-background:new 0 0 96 96;" xml:space="preserve">
<style type="text/css">
	.st0{fill:#FFFFFF;}
</style>
<path class="st0" d="M51.8,32.4c2.9,0,5.3-2.4,5.3-5.3c0-2.9-2.4-5.3-5.3-5.3c-2.9,0-5.3,2.4-5.3,5.3C46.5,30,48.9,32.4,51.8,32.4z"
	/>
<path class="st0" d="M72.9,23.9v-0.7c0-0.7-0.7-1.3-1.6-1.3c-0.9,0-1.6,0.6-1.6,1.3v5.7c-0.1,0.1-0.1,0.1-0.1,0.2
	c-2.8,4.7-7.4,6.5-12.3,4.4c-1.7-0.8-6.7-2.5-12,0.9c-0.1,0.1-0.3,0.2-0.4,0.3c-0.2,0.1-0.3,0.2-0.5,0.3l0,0.1
	c-3.6,3.6-5.2,8.4-5.2,13.5c0,3.2,4.7,3.1,4.8,0c0-2.7,0.6-5.2,1.8-7.4v0l0,3.5l0,17v13.5c0,1.5,1,2.6,2.5,2.6
	c1.5,0,2.6-1.2,2.6-2.6V55.9h2.3c0,4.5,0,14.8,0,19.4c0,3.1,4.8,3.1,4.8,0c0-4.5,0-9,0-13.6l0.2-17c0-1.6,0-3.1,0-4.1l-0.1-1.7
	c5.9,1.3,11.4-1,15.1-6.5c1.6-0.1,2.8-1.3,2.8-2.7v-3.1C76,25.1,74.6,23.9,72.9,23.9z"/>
<path class="st0" d="M33.2,57h1.6c1.3,0,2.3,1,2.3,2.2v16.4c0,1.2-1,2.2-2.3,2.2h-9c-1.3,0-2.3-1-2.3-2.2V59.2c0-1.2,1-2.2,2.3-2.2
	h1.6v-3.5c0-0.6,0.5-1,1.1-1h3.7c0.6,0,1.1,0.5,1.1,1V57z M27.8,57h4.9v-3.5c0-0.3-0.3-0.6-0.6-0.6h-3.7c-0.3,0-0.6,0.3-0.6,0.6V57z
	"/>
</svg>
