<?xml version="1.0" encoding="utf-8"?>
<!-- Generator: Adobe Illustrator 22.0.1, SVG Export Plug-In . SVG Version: 6.00 Build 0)  -->
<svg version="1.1" id="圖層_1" xmlns="http://www.w3.org/2000/svg" xmlns:xlink="http://www.w3.org/1999/xlink" x="0px" y="0px"
	 viewBox="0 0 96 96" style="enable-background:new 0 0 96 96;" xml:space="preserve">
<style type="text/css">
	.st0{fill:#FFFFFF;}
</style>
<path class="st0" d="M76.5,42l-5.3-5.3c-0.6-0.6-1.6-0.7-2.3-0.1c-2.4,1.9-5.8,1.8-8-0.4s-2.4-5.6-0.4-8c0.6-0.7,0.5-1.7-0.1-2.3
	L55,20.5c-0.7-0.7-1.8-0.7-2.5,0L19.5,53.6c-0.7,0.7-0.7,1.8,0,2.5l5.3,5.3c0,0,0,0,0,0c0.7,0.7,1.8,0.7,2.5,0
	c0.1-0.1,0.1-0.1,0.2-0.2c0.1-0.1,0.2-0.3,0.4-0.4c2.3-2.3,6.1-2.3,8.5,0c2.3,2.3,2.3,6.1,0,8.5c-0.1,0.1-0.3,0.3-0.5,0.4
	c-0.4,0.3-0.6,0.8-0.6,1.3c0,0.5,0.2,1,0.5,1.3l5.3,5.3c0.7,0.7,1.8,0.7,2.5,0l33.1-33.1C77.2,43.7,77.2,42.6,76.5,42z M54.2,53
	c0,0.1-0.1,0.3-0.2,0.3c-0.1,0.1-0.2,0.1-0.2,0.1c0,0-0.1,0-0.1,0l-5.4-1.9c0,1.7-0.2,3.2-0.4,4.5c0,0.2-0.1,0.4-0.1,0.6l2.8,1.6
	c0.1,0,0.1,0.1,0.1,0.2v1c0,0.1,0,0.1-0.1,0.2c0,0-0.1,0-0.1,0c0,0-0.1,0-0.1,0L47,58.4c-0.2,0.2-0.4,0.3-0.6,0.3
	c-0.3,0-0.5-0.2-0.6-0.3l-3.3,1.1c-0.1,0-0.1,0-0.2,0c-0.1,0-0.1-0.1-0.1-0.2v-1c0-0.1,0-0.2,0.1-0.2l2.8-1.6c0-0.2-0.1-0.4-0.1-0.6
	c-0.2-1.2-0.4-2.8-0.4-4.5l-5.4,1.9c-0.1,0-0.3,0-0.4-0.1c-0.1-0.1-0.2-0.2-0.2-0.3v-1.8c0-0.2,0.1-0.3,0.2-0.4l1.2-0.7v-0.6
	c0-0.4,0.3-0.7,0.7-0.7c0.3,0,0.6,0.2,0.6,0.5l1-0.6v-0.5c0-0.4,0.3-0.7,0.7-0.7c0.3,0,0.5,0.2,0.6,0.5l0.9-0.5
	c0.1-1.3,0.2-2.5,0.4-3.5c0.1-0.8,0.3-1.4,0.5-1.9c0.1-0.2,0.4-0.9,0.9-0.9c0.6,0,0.8,0.7,0.9,0.9c0.2,0.4,0.3,1.1,0.5,1.9
	c0.2,1,0.3,2.2,0.4,3.5l0.9,0.5c0.1-0.3,0.3-0.5,0.6-0.5c0.4,0,0.7,0.3,0.7,0.7v0.5l1,0.6c0.1-0.3,0.3-0.5,0.6-0.5
	c0.4,0,0.7,0.3,0.7,0.7v0.6l1.2,0.7c0.1,0.1,0.2,0.2,0.2,0.4L54.2,53L54.2,53z M65.5,48.3c-0.7,0.7-1.9,0.7-2.6,0L48.7,34
	c-0.7-0.7-0.7-1.9,0-2.6c0.7-0.7,1.9-0.7,2.6,0l14.3,14.3C66.3,46.5,66.3,47.6,65.5,48.3z"/>
</svg>
