<?xml version="1.0" encoding="utf-8"?>
<!-- Generator: Adobe Illustrator 22.0.1, SVG Export Plug-In . SVG Version: 6.00 Build 0)  -->
<svg version="1.1" id="圖層_1" xmlns="http://www.w3.org/2000/svg" xmlns:xlink="http://www.w3.org/1999/xlink" x="0px" y="0px"
	 viewBox="0 0 96 96" style="enable-background:new 0 0 96 96;" xml:space="preserve">
<style type="text/css">
	.st0{fill:#FFFFFF;}
</style>
<path class="st0" d="M23.3,41.8c0-3.3,2.7-6.1,6.1-6.1h13.6c2.1,0,4,1.1,5.1,2.7c1.1-1.6,2.9-2.7,5.1-2.7h13.6
	c3.3,0,6.1,2.7,6.1,6.1v0.3h1.5v-5.9c0-3.7-3-6.6-6.6-6.6H28.4c-3.7,0-6.6,3-6.6,6.6v5.9h1.5L23.3,41.8L23.3,41.8z"/>
<path class="st0" d="M77.5,44.9H18.5c-1.4,0-2.5,1.1-2.5,2.5v14.8c0,1.4,1.1,2.5,2.5,2.5h1.1l-1.3,3.5c-0.3,0.7,0.1,1.5,0.9,1.8
	c0.2,0.1,0.3,0.1,0.5,0.1c0.6,0,1.1-0.4,1.3-0.9l1.6-4.5h50.8l1.6,4.5c0.2,0.6,0.8,0.9,1.3,0.9c0.2,0,0.3,0,0.5-0.1
	c0.7-0.3,1.1-1.1,0.9-1.8l-1.3-3.5h1.1c1.4,0,2.5-1.1,2.5-2.5V47.4C80,46,78.9,44.9,77.5,44.9z"/>
<path class="st0" d="M53.1,38.6c-1.8,0-3.2,1.4-3.2,3.2v0.3h20.1v-0.3c0-1.8-1.4-3.2-3.2-3.2H53.1z"/>
<path class="st0" d="M29.3,38.6c-1.8,0-3.2,1.4-3.2,3.2v0.3h20.1v-0.3c0-1.8-1.4-3.2-3.2-3.2H29.3z"/>
</svg>
