<svg width="97" height="96" viewBox="0 0 97 96" fill="none" xmlns="http://www.w3.org/2000/svg">
<mask id="mask0" mask-type="alpha" maskUnits="userSpaceOnUse" x="0" y="0" width="97" height="96">
<path fill-rule="evenodd" clip-rule="evenodd" d="M48.3026 0.667084C21.793 0.667084 0.302612 21.9132 0.302612 48.1219C0.302612 74.3301 21.793 95.5762 48.3026 95.5762C74.7417 95.5762 96.1874 74.4462 96.3026 48.3343V47.9089C96.1874 21.7976 74.7417 0.667084 48.3026 0.667084Z" fill="white"/>
</mask>
<g mask="url(#mask0)">
<path fill-rule="evenodd" clip-rule="evenodd" d="M48.3026 0.667084C21.793 0.667084 0.302612 21.9132 0.302612 48.1219C0.302612 74.3301 21.793 95.5762 48.3026 95.5762C74.7417 95.5762 96.1874 74.4462 96.3026 48.3343V47.9089C96.1874 21.7976 74.7417 0.667084 48.3026 0.667084Z" fill="url(#paint0_radial)"/>
</g>
<path d="M52.0969 28.408C55.0992 28.408 57.5331 25.9653 57.5331 22.9522C57.5331 19.939 55.0992 17.4964 52.0969 17.4964C49.0946 17.4964 46.6608 19.939 46.6608 22.9522C46.6608 25.9653 49.0946 28.408 52.0969 28.408Z" fill="white"/>
<path d="M73.851 19.6185V18.8876C73.851 18.118 73.122 17.4964 72.222 17.4964C71.3258 17.4964 70.5968 18.118 70.5968 18.8876V24.7633C70.5443 24.8318 70.4928 24.8894 70.4471 24.9659C67.5108 29.8247 62.8327 31.7194 57.692 29.5387C55.8899 28.7006 50.7822 26.9221 45.3042 30.4443C45.1711 30.5148 45.0408 30.6042 44.9115 30.7065C44.756 30.8127 44.6015 30.919 44.446 31.0352L44.4635 31.1126C40.7097 34.8225 39.1342 39.7668 39.0506 45.0457C38.9991 48.3008 43.9357 48.2948 43.9872 45.0457C44.0319 42.2553 44.5743 39.6824 45.8524 37.4252V37.4272L45.8437 41.0865L45.8106 58.6659V72.6108C45.8106 74.1142 46.8856 75.3277 48.3961 75.3277C49.9055 75.3277 51.1312 74.1113 51.1312 72.6108V52.676H53.5475C53.5475 57.3462 53.5475 68.0052 53.5475 72.6734C53.5475 75.9265 58.4822 75.9265 58.4822 72.6734C58.4822 68.0052 58.4822 63.336 58.4822 58.6659L58.6921 41.0527C58.6941 39.3716 58.696 37.8681 58.698 36.8245L58.6144 35.0281C64.7154 36.3677 70.3995 33.9725 74.1834 28.3123C75.8221 28.1673 77.1032 26.9976 77.1032 25.5567V22.4039C77.1032 20.8657 75.6472 19.6185 73.851 19.6185Z" fill="white"/>
<path fill-rule="evenodd" clip-rule="evenodd" d="M32.8431 53.8077H34.4815C35.805 53.8077 36.8768 54.8362 36.8758 56.1038V73.0347C36.8758 74.3013 35.8039 75.3278 34.4804 75.3278H25.1372C23.8137 75.3278 22.7418 74.3003 22.7418 73.0347V56.1018C22.7418 54.8362 23.8137 53.8077 25.1372 53.8077H26.7755V50.2202C26.7755 49.6231 27.2799 49.1401 27.9012 49.1401H31.7164C32.3378 49.1401 32.8431 49.6231 32.8431 50.2202V53.8077ZM27.2965 53.8077H32.3234V50.2202C32.3234 49.9008 32.051 49.6389 31.7165 49.6389H27.9013C27.5689 49.6389 27.2965 49.9008 27.2965 50.2202V53.8077Z" fill="white"/>
<defs>
<radialGradient id="paint0_radial" cx="0" cy="0" r="1" gradientUnits="userSpaceOnUse" gradientTransform="translate(48.3026 48.1218) scale(48.0002 47.4547)">
<stop stop-color="#05BDB6"/>
<stop offset="1" stop-color="#48B1BF"/>
</radialGradient>
</defs>
</svg>
