<svg width="97" height="95" viewBox="0 0 97 95" fill="none" xmlns="http://www.w3.org/2000/svg">
<mask id="mask0" mask-type="alpha" maskUnits="userSpaceOnUse" x="0" y="0" width="97" height="95">
<path fill-rule="evenodd" clip-rule="evenodd" d="M0.0837402 47.1719C0.0837402 73.2249 21.5736 94.3448 48.0837 94.3448C74.5933 94.3448 96.0837 73.2249 96.0837 47.1719C96.0837 21.1194 74.5933 0 48.0837 0C21.5736 0 0.0837402 21.1194 0.0837402 47.1719Z" fill="white"/>
</mask>
<g mask="url(#mask0)">
<path fill-rule="evenodd" clip-rule="evenodd" d="M0.0837402 47.1719C0.0837402 73.2249 21.5736 94.3448 48.0837 94.3448C74.5933 94.3448 96.0837 73.2249 96.0837 47.1719C96.0837 21.1194 74.5933 0 48.0837 0C21.5736 0 0.0837402 21.1194 0.0837402 47.1719Z" fill="url(#paint0_radial)"/>
</g>
<path d="M48.6794 69.5169C52.9575 69.5169 56.4256 66.1321 56.4256 61.9568C56.4256 57.7815 52.9575 54.3967 48.6794 54.3967C44.4013 54.3967 40.9332 57.7815 40.9332 61.9568C40.9332 66.1321 44.4013 69.5169 48.6794 69.5169Z" fill="white"/>
<path d="M65.3604 45.8474C65.2557 45.7428 65.1451 45.6494 65.0375 45.5533L64.7204 45.262C64.668 45.2082 64.6098 45.1686 64.5429 45.1177C55.4162 37.0571 41.4484 37.3767 32.7378 45.8446L31.7166 46.8402L30.3027 48.2147C28.5803 49.889 28.5891 52.6183 30.3143 54.2955C32.0425 55.9783 34.85 55.9812 36.5694 54.3068L39.0075 51.9367C44.5469 46.5545 53.5572 46.5545 59.0937 51.9339L60.8538 53.5913C62.5587 55.2486 65.34 55.2458 67.0537 53.5771C67.8828 52.7739 68.3396 51.702 68.3425 50.5622C68.3454 49.428 67.8945 48.3561 67.0653 47.5557L65.3604 45.8474Z" fill="white"/>
<path d="M76.7202 38.0391L75.2741 36.7025C75.2683 36.6972 75.2654 36.6892 75.254 36.6866L74.1119 35.6258C73.9111 35.4428 73.693 35.2837 73.4635 35.1458C58.7923 23.2412 36.477 23.6072 22.2735 36.2358C22.2046 36.2941 22.1272 36.3339 22.0583 36.3975L19.4471 38.8135C17.8977 40.2429 17.9063 42.5686 19.4644 44.0086C21.0196 45.446 23.536 45.4566 25.0855 44.0219L27.6967 41.6113C27.7139 41.59 27.7282 41.5715 27.7454 41.5582C39.2316 31.3032 57.4523 31.2395 69.0303 41.3487L71.0847 43.2502C72.6313 44.6796 75.1535 44.6742 76.7088 43.2369C78.2611 41.7969 78.2668 39.4685 76.7202 38.0391Z" fill="white"/>
<defs>
<radialGradient id="paint0_radial" cx="0" cy="0" r="1" gradientUnits="userSpaceOnUse" gradientTransform="translate(48.0837 47.1722) scale(48.0002 47.1726)">
<stop stop-color="#F6971D"/>
<stop offset="1" stop-color="#FFD100"/>
</radialGradient>
</defs>
</svg>
