<svg width="22" height="16" viewBox="0 0 22 16" fill="none" xmlns="http://www.w3.org/2000/svg">
<path d="M11.0432 15.3775C12.5684 15.3775 13.8049 14.1708 13.8049 12.6822C13.8049 11.1936 12.5684 9.98682 11.0432 9.98682C9.51794 9.98682 8.28149 11.1936 8.28149 12.6822C8.28149 14.1708 9.51794 15.3775 11.0432 15.3775Z" fill="white"/>
<path d="M16.9903 6.93877C16.9529 6.90146 16.9135 6.86818 16.8752 6.8339L16.7621 6.73004C16.7434 6.71088 16.7227 6.69677 16.6988 6.67862C13.445 3.80484 8.46515 3.91878 5.35963 6.93776L4.99555 7.2927L4.49145 7.78275C3.8774 8.37969 3.88051 9.35274 4.4956 9.95069C5.11172 10.5506 6.11267 10.5517 6.72568 9.95472L7.5949 9.10973C9.56982 7.19085 12.7822 7.19085 14.7561 9.10872L15.3836 9.69961C15.9914 10.2905 16.983 10.2895 17.594 9.69457C17.8896 9.4082 18.0524 9.02604 18.0535 8.61967C18.0545 8.21533 17.8937 7.83317 17.5981 7.54781L16.9903 6.93877Z" fill="white"/>
<path d="M21.0403 4.15474L20.5248 3.67822C20.5227 3.67633 20.5217 3.6735 20.5176 3.67255L20.1104 3.29436C20.0388 3.22912 19.9611 3.17239 19.8792 3.12323C14.6486 -1.121 6.69277 -0.990529 1.62892 3.51182C1.60437 3.53262 1.57675 3.5468 1.5522 3.56949L0.621266 4.43082C0.0688463 4.94043 0.0719153 5.76961 0.627404 6.283C1.18187 6.79545 2.07904 6.79923 2.63146 6.28773L3.56239 5.4283C3.56853 5.42073 3.57364 5.41411 3.57978 5.40939C7.67485 1.75324 14.1709 1.73055 18.2987 5.33469L19.0312 6.0126C19.5826 6.52221 20.4818 6.52032 21.0363 6.00787C21.5897 5.49448 21.5917 4.66435 21.0403 4.15474Z" fill="white"/>
</svg>
