<svg width="20" height="20" viewBox="0 0 20 20" fill="none" xmlns="http://www.w3.org/2000/svg">
<path d="M19.8246 7.57256L18.0015 5.74943C17.7846 5.53253 17.4391 5.51457 17.2009 5.70768C16.3772 6.37552 15.1897 6.31269 14.4385 5.56155C13.6873 4.81041 13.6246 3.62289 14.2923 2.79921C14.4855 2.56098 14.4675 2.21539 14.2507 1.99854L12.4275 0.175409C12.1937 -0.0584455 11.8143 -0.0584936 11.5805 0.175409L0.175427 11.5805C-0.0584756 11.8143 -0.0584756 12.1936 0.175427 12.4274L1.99856 14.2505C1.99875 14.2508 1.99899 14.251 1.99913 14.2511C2.23299 14.485 2.61226 14.485 2.84611 14.2511C2.86787 14.2293 2.88766 14.2062 2.90544 14.1821C2.94632 14.1331 2.98922 14.086 3.03337 14.0418C3.8398 13.2354 5.15179 13.2354 5.95818 14.0417C6.76451 14.8481 6.76451 16.1602 5.95813 16.9665C5.9074 17.0173 5.85273 17.0664 5.79571 17.1126C5.66389 17.2196 5.58367 17.3773 5.57478 17.5467C5.56594 17.7161 5.62945 17.8814 5.74945 18.0013L7.57248 19.8244C7.80639 20.0584 8.18565 20.0584 8.41951 19.8244L19.8245 8.41949C20.0585 8.18569 20.0585 7.80646 19.8246 7.57256ZM12.1233 11.3653C12.1233 11.4123 12.1005 11.4562 12.0623 11.4833C12.0375 11.501 12.0081 11.5101 11.9784 11.5101C11.9625 11.5101 11.9463 11.5074 11.9309 11.5021L10.0692 10.8531C10.0521 11.4333 10.0045 11.9684 9.9313 12.3946C9.91804 12.4719 9.90401 12.5445 9.88941 12.6126L10.8588 13.1512C10.8838 13.1651 10.8992 13.1914 10.8992 13.22V13.5481C10.8992 13.5735 10.8869 13.5973 10.8662 13.6122C10.8527 13.6217 10.8367 13.6267 10.8206 13.6267C10.8119 13.6267 10.8032 13.6252 10.7948 13.6223L9.66175 13.2273C9.60968 13.2929 9.53834 13.3479 9.44337 13.3479C9.34839 13.3479 9.27701 13.2929 9.22493 13.2273L8.09188 13.6223C8.06781 13.6307 8.0412 13.6269 8.0205 13.6122C7.99969 13.5973 7.9874 13.5735 7.9874 13.5481V13.22C7.9874 13.1914 8.00287 13.165 8.02785 13.1512L8.99723 12.6126C8.98257 12.5445 8.9686 12.4719 8.95534 12.3946C8.88217 11.9684 8.83461 11.4333 8.81742 10.8531L6.95576 11.5021C6.91147 11.5174 6.86247 11.5106 6.82427 11.4833C6.78608 11.4562 6.76336 11.4123 6.76336 11.3653V10.7615C6.76336 10.7089 6.79185 10.6605 6.83777 10.635L7.25831 10.4013V10.2112C7.25831 10.0832 7.36198 9.97956 7.48986 9.97956C7.59617 9.97956 7.68547 10.0512 7.71276 10.1488L8.06661 9.95218V9.77693C8.06661 9.649 8.17028 9.54533 8.29816 9.54533C8.39976 9.54533 8.4859 9.61086 8.51717 9.70185L8.83111 9.52737C8.85436 9.07792 8.89658 8.66564 8.95534 8.32341C9.00198 8.05199 9.05703 7.83682 9.11915 7.68392C9.15066 7.60629 9.24655 7.37013 9.44341 7.37013C9.64028 7.37013 9.73616 7.60633 9.76768 7.68392C9.82979 7.83678 9.88484 8.05194 9.93149 8.32341C9.99024 8.6656 10.0325 9.07792 10.0557 9.52737L10.3696 9.70185C10.4008 9.61081 10.4869 9.54533 10.5886 9.54533C10.7165 9.54533 10.8202 9.649 10.8202 9.77693V9.95218L11.1739 10.1488C11.2012 10.0512 11.2907 9.97956 11.3969 9.97956C11.5249 9.97956 11.6284 10.0833 11.6284 10.2112V10.4013L12.0491 10.635C12.0949 10.6605 12.1235 10.7089 12.1235 10.7615V11.3653H12.1233ZM16.0507 9.7692C15.8069 10.0131 15.4113 10.0131 15.1675 9.7692L10.2308 4.83261C9.98698 4.58871 9.98698 4.1933 10.2308 3.94941C10.4747 3.70551 10.8702 3.70551 11.114 3.94941L16.0509 8.88614C16.2946 9.13004 16.2946 9.52545 16.0507 9.7692Z" fill="white"/>
</svg>
