<svg width="20" height="21" viewBox="0 0 20 21" fill="none" xmlns="http://www.w3.org/2000/svg">
<path d="M10.4658 3.89021C11.5362 3.89021 12.4039 3.01936 12.4039 1.9451C12.4039 0.870853 11.5362 0 10.4658 0C9.39543 0 8.52771 0.870853 8.52771 1.9451C8.52771 3.01936 9.39543 3.89021 10.4658 3.89021Z" fill="white"/>
<path d="M18.2214 0.756566V0.495999C18.2214 0.221624 17.9615 0 17.6407 0C17.3212 0 17.0613 0.221624 17.0613 0.495999V2.59081C17.0426 2.61523 17.0242 2.63577 17.0079 2.66303C15.961 4.39531 14.2932 5.0708 12.4604 4.29334C11.8179 3.99454 9.99694 3.36047 8.04391 4.61622C7.99644 4.64136 7.95 4.67322 7.90392 4.70969C7.84847 4.74757 7.79337 4.78545 7.73793 4.82687L7.74417 4.85448C6.40587 6.17715 5.84415 7.93987 5.81435 9.82191C5.79599 10.9824 7.556 10.9803 7.57437 9.82191C7.59031 8.82708 7.78367 7.90978 8.23935 7.10506V7.10577L8.23624 8.41038L8.22445 14.6778V19.6495C8.22445 20.1855 8.60771 20.6181 9.14622 20.6181C9.68438 20.6181 10.1213 20.1844 10.1213 19.6495V12.5423H10.9828C10.9828 14.2073 10.9828 18.0075 10.9828 19.6718C10.9828 20.8316 12.7421 20.8316 12.7421 19.6718C12.7421 18.0075 12.7421 16.3428 12.7421 14.6778L12.817 8.39834C12.8177 7.79897 12.8184 7.26296 12.8191 6.89088L12.7893 6.25043C14.9644 6.72802 16.9909 5.8741 18.34 3.85611C18.9242 3.80443 19.3809 3.38738 19.3809 2.87368V1.74963C19.3809 1.20123 18.8618 0.756566 18.2214 0.756566Z" fill="white"/>
<path fill-rule="evenodd" clip-rule="evenodd" d="M3.60133 12.9459H4.18543C4.65729 12.9459 5.03943 13.3125 5.03906 13.7645V19.8007C5.03906 20.2522 4.65692 20.6182 4.18507 20.6182H0.853997C0.382139 20.6182 0 20.2519 0 19.8007V13.7638C0 13.3125 0.382139 12.9459 0.853997 12.9459H1.4381V11.6668C1.4381 11.4539 1.61791 11.2817 1.83944 11.2817H3.19963C3.42116 11.2817 3.60133 11.4539 3.60133 11.6668V12.9459ZM1.6239 12.9459H3.41608V11.6668C3.41608 11.553 3.31897 11.4596 3.19971 11.4596H1.83952C1.721 11.4596 1.6239 11.553 1.6239 11.6668V12.9459Z" fill="white"/>
</svg>
