<svg width="20" height="13" viewBox="0 0 20 13" fill="none" xmlns="http://www.w3.org/2000/svg">
<path d="M2.27692 3.8363C2.27692 2.79249 3.12613 1.94325 4.16998 1.94325H8.41942C9.07928 1.94325 9.66107 2.28284 10 2.79617C10.339 2.2828 10.9207 1.94325 11.5806 1.94325H15.8301C16.8739 1.94325 17.7231 2.79249 17.7231 3.8363V3.92347H18.197V2.07747C18.197 0.931948 17.265 0 16.1195 0H3.88045C2.73493 0 1.80298 0.931948 1.80298 2.07747V3.92347H2.27688V3.8363H2.27692Z" fill="white"/>
<path d="M19.2043 4.80762H0.795612C0.356909 4.80762 0 5.16453 0 5.60323V10.2219C0 10.6606 0.356909 11.0175 0.795612 11.0175H1.1268L0.735478 12.122C0.653933 12.3521 0.774408 12.6047 1.00446 12.6862C1.05329 12.7035 1.10311 12.7117 1.15211 12.7117C1.33404 12.7117 1.5045 12.5985 1.56874 12.4172L2.06467 11.0175H17.9353L18.4313 12.4172C18.4955 12.5985 18.6659 12.7117 18.8479 12.7117C18.8969 12.7117 18.9467 12.7035 18.9955 12.6862C19.2256 12.6047 19.3461 12.352 19.2645 12.122L18.8732 11.0175H19.2044C19.6431 11.0175 20 10.6606 20 10.2219V5.60323C20 5.16453 19.6431 4.80762 19.2043 4.80762Z" fill="white"/>
<path d="M11.5806 2.82715C11.0242 2.82715 10.5715 3.27977 10.5715 3.83613V3.9233H16.839V3.83613C16.839 3.27977 16.3864 2.82715 15.83 2.82715H11.5806Z" fill="white"/>
<path d="M4.16991 2.82715C3.61351 2.82715 3.16089 3.27981 3.16089 3.83617V3.9233H9.42838V3.83613C9.42838 3.27977 8.97576 2.82715 8.41936 2.82715H4.16991Z" fill="white"/>
</svg>
