<svg width="97" height="97" viewBox="0 0 97 97" fill="none" xmlns="http://www.w3.org/2000/svg">
<circle cx="48.3948" cy="48.3382" r="48" fill="url(#paint0_radial)"/>
<path d="M76.1348 41.4842L70.9871 36.3365C70.3749 35.7241 69.3992 35.6734 68.7266 36.2187C66.4009 38.1043 63.048 37.9269 60.9269 35.806C58.806 33.6852 58.629 30.3322 60.5143 28.0065C61.0597 27.3339 61.0088 26.3581 60.3966 25.7458L55.2489 20.5981C54.5886 19.9378 53.5175 19.9377 52.8574 20.5981L20.6547 52.8006C19.9943 53.4609 19.9943 54.5318 20.6547 55.1921L25.8024 60.3396C25.803 60.3403 25.8036 60.341 25.804 60.3414C26.4643 61.0018 27.5352 61.0018 28.1955 60.3414C28.2569 60.2798 28.3128 60.2146 28.363 60.1465C28.4784 60.008 28.5996 59.875 28.7242 59.7503C31.0012 57.4734 34.7057 57.4734 36.9825 59.75C39.2592 62.0268 39.2592 65.7317 36.9824 68.0083C36.8391 68.1518 36.6848 68.2903 36.5238 68.4209C36.1516 68.723 35.9251 69.1683 35.9 69.6464C35.875 70.1248 36.0543 70.5914 36.3932 70.9301L41.5406 76.0778C42.201 76.7382 43.2719 76.7382 43.9322 76.0778L76.1344 43.8755C76.7952 43.2154 76.7951 42.1446 76.1348 41.4842ZM54.39 52.1932C54.39 52.3257 54.3256 52.4499 54.2177 52.5264C54.1476 52.5761 54.0646 52.602 53.9809 52.602C53.9359 52.602 53.8903 52.5943 53.8466 52.5793L48.5902 50.7469C48.5419 52.385 48.4073 53.8959 48.2007 55.0994C48.1633 55.3177 48.1237 55.5226 48.0825 55.7148L50.8195 57.2358C50.8901 57.275 50.9337 57.3492 50.9337 57.43V58.3563C50.9337 58.428 50.8989 58.4953 50.8404 58.5372C50.8024 58.5641 50.7573 58.5782 50.7118 58.5782C50.6871 58.5782 50.6626 58.5741 50.6389 58.5659L47.4397 57.4506C47.2926 57.6356 47.0912 57.7909 46.823 57.7909C46.5549 57.7909 46.3533 57.6356 46.2063 57.4506L43.0071 58.5659C42.9391 58.5896 42.864 58.5789 42.8055 58.5372C42.7468 58.4953 42.7121 58.4279 42.7121 58.3563V57.43C42.7121 57.3492 42.7558 57.2747 42.8263 57.2358L45.5634 55.7148C45.522 55.5226 45.4825 55.3177 45.4451 55.0994C45.2385 53.8959 45.1042 52.385 45.0557 50.7469L39.7992 52.5793C39.6742 52.6227 39.5358 52.6033 39.428 52.5264C39.3201 52.4499 39.256 52.3257 39.256 52.1932V50.4884C39.256 50.3398 39.3364 50.203 39.4661 50.131L40.6535 49.4713V48.9343C40.6535 48.5731 40.9462 48.2804 41.3073 48.2804C41.6074 48.2804 41.8596 48.4828 41.9366 48.7582L42.9357 48.2031V47.7083C42.9357 47.3471 43.2285 47.0544 43.5895 47.0544C43.8764 47.0544 44.1196 47.2394 44.2079 47.4963L45.0943 47.0037C45.16 45.7346 45.2792 44.5705 45.4451 43.6042C45.5768 42.8379 45.7322 42.2304 45.9076 41.7986C45.9966 41.5794 46.2673 40.9126 46.8232 40.9126C47.379 40.9126 47.6498 41.5796 47.7387 41.7986C47.9141 42.2302 48.0696 42.8377 48.2013 43.6042C48.3672 44.5704 48.4864 45.7346 48.552 47.0037L49.4383 47.4963C49.5263 47.2393 49.7694 47.0544 50.0566 47.0544C50.4178 47.0544 50.7105 47.3471 50.7105 47.7083V48.2031L51.7093 48.7582C51.7864 48.4828 52.0389 48.2804 52.339 48.2804C52.7002 48.2804 52.9926 48.5733 52.9926 48.9343V49.4713L54.1803 50.131C54.3097 50.203 54.3904 50.3398 54.3904 50.4884V52.1932H54.39ZM65.4791 47.6865C64.7906 48.3751 63.6737 48.3751 62.9853 47.6865L49.0464 33.7478C48.3579 33.0592 48.3579 31.9428 49.0464 31.2541C49.735 30.5655 50.8517 30.5655 51.5402 31.2541L65.4795 45.1931C66.1677 45.8818 66.1677 46.9982 65.4791 47.6865Z" fill="white"/>
<defs>
<radialGradient id="paint0_radial" cx="0" cy="0" r="1" gradientUnits="userSpaceOnUse" gradientTransform="translate(48.3946 48.3382) scale(48)">
<stop stop-color="#05BDB6"/>
<stop offset="1" stop-color="#48B1BF"/>
</radialGradient>
</defs>
</svg>
