<?xml version="1.0" encoding="utf-8"?>
<!-- Generator: Adobe Illustrator 22.0.1, SVG Export Plug-In . SVG Version: 6.00 Build 0)  -->
<svg version="1.1" id="圖層_1" xmlns="http://www.w3.org/2000/svg" xmlns:xlink="http://www.w3.org/1999/xlink" x="0px" y="0px"
	 viewBox="0 0 96 96" style="enable-background:new 0 0 96 96;" xml:space="preserve">
<style type="text/css">
	.st0{fill:#FFFFFF;}
</style>
<path class="st0" d="M65.3,40.8c-3,0-5.5-2.2-5.5-4.9c0-2.7,2.5-4.9,5.5-4.9c3,0,5.5,2.2,5.5,4.9C70.8,38.6,68.4,40.8,65.3,40.8z"/>
<path class="st0" d="M60.7,54.3c-0.3-2.3-2.2-3.6-4.2-2.9l-4.2,1.5c0.9-1.6,1.6-3.2,2.3-4.9c0.1-0.2,0.2-0.4,0.3-0.6l0.9-2.6
	c-2.4,1-4.8,2.2-7.1,3.4c-0.2,0.1-0.3,0.1-0.5,0.2c1.8-1.3,2.9-3.8,2.4-6.3c0-0.2-0.1-0.4-0.2-0.6c2.9-1.4,5.9-2.7,8.9-3.8
	c0.1,0,0.2-0.1,0.3-0.1c0.6-0.2,1.2-0.3,1.9-0.3c1.3,0.1,2.7,1,3.6,2.2c1.3,1.4,2.7,2.8,4,4.1c2.3-0.8,4.6-1.7,6.9-2.5
	c2.9-1.1,4.2,4,1.3,5c-2.7,1-5.5,2-8.2,3c-0.8,0.3-1.7-0.1-2.3-0.7c-0.6-0.6-1.2-1.2-1.8-1.9c-0.8,2.9-1.5,4.4-1.5,4.4
	s-0.4,0.9-1.1,1.8c1.6,5.2,3.4,10.3,5.2,15.5c1.1,3.2-3.5,4.5-4.6,1.4c-1.3-3.8-2.7-7.6-3.9-11.5C60.4,57.3,60.9,55.7,60.7,54.3z"/>
<path class="st0" d="M45.4,51.5c-3,0-5.5-2.2-5.5-4.9c0-2.7,2.5-4.9,5.5-4.9c3,0,5.5,2.2,5.5,4.9C50.9,49.3,48.4,51.5,45.4,51.5z"/>
<path class="st0" d="M27.4,65.7c1.1,0.9,2.1,1.8,3.2,2.7c1.7-2.6,3.3-5.3,4.4-8.2c0.1-0.2,0.2-0.4,0.3-0.6l0.9-2.6
	c-2.5,1-5,2.2-7.5,3.4c-2.9,1.5-5.5-3-2.5-4.5c4.5-2.3,9.1-4.3,13.8-5.9c0.1,0,0.2-0.1,0.3-0.1c0.6-0.2,1.3-0.3,2-0.3
	c1.4,0.1,2.8,1,3.8,2.2c1.4,1.4,2.8,2.8,4.2,4.1c2.4-0.8,4.9-1.7,7.3-2.5c3.1-1.1,4.4,4,1.3,5c-2.9,1-5.7,2-8.6,3
	c-0.9,0.3-1.8-0.1-2.5-0.7c-0.6-0.6-1.3-1.2-1.9-1.9c-0.8,2.9-1.6,4.4-1.6,4.4s-0.4,0.9-1.2,1.8c1.7,5.2,3.6,10.3,5.5,15.5
	c1.2,3.2-3.7,4.5-4.9,1.4c-1.9-5.1-3.8-10.2-5.4-15.3c-0.1-0.1-0.2-0.1-0.3-0.2c-0.2-0.1-0.3-0.1-0.4-0.2c-1.3,2.5-2.8,4.8-4.4,7.2
	c-0.8,1.2-2.2,1.7-3.5,0.9c-2.3-1.3-4.1-3.1-6.2-4.8C21.3,67.3,24.9,63.6,27.4,65.7z"/>
<path class="st0" d="M41.4,26.1c-3,0-5.5-2.2-5.5-4.9c0-2.7,2.5-4.9,5.5-4.9c3,0,5.5,2.2,5.5,4.9C46.9,24,44.4,26.1,41.4,26.1z"/>
<path class="st0" d="M24.4,42.2c1.1,0.9,2.1,1.7,3.2,2.5c1.7-2.4,3.3-4.9,4.4-7.7c0.1-0.2,0.2-0.4,0.3-0.6l0.9-2.4
	c-2.5,1-5,2-7.5,3.2c-2.9,1.4-5.5-2.8-2.5-4.2c4.5-2.1,9.1-4,13.8-5.5c0.1,0,0.2-0.1,0.3-0.1c0.6-0.2,1.3-0.3,2-0.3
	c1.4,0.1,2.8,0.9,3.8,2.1c1.4,1.3,2.8,2.6,4.2,3.9c2.4-0.8,4.9-1.6,7.3-2.4c3.1-1,4.4,3.7,1.3,4.7c-2.9,0.9-5.7,1.9-8.6,2.8
	c-0.9,0.3-1.8-0.1-2.5-0.6c-0.6-0.6-1.3-1.2-1.9-1.7c-0.8,2.7-1.6,4.1-1.6,4.1s-0.4,0.8-1.2,1.6c0,0.1,0.1,0.3,0.1,0.4
	c-1.1,1.4-1.7,3.2-1.3,5.1c0.2,0.9,0.6,1.8,1.2,2.5c-0.1,0-0.2,0-0.2,0.1c-0.2,0-0.3,0.1-0.4,0.1c-0.5,0.2-1,0.3-1.5,0.5
	c-0.9-2.4-1.8-4.8-2.7-7.3c-0.1,0-0.2-0.1-0.3-0.1c-0.2-0.1-0.3-0.1-0.4-0.2c-1.3,2.3-2.8,4.5-4.4,6.7c-0.8,1.1-2.2,1.6-3.5,0.9
	c-2.3-1.3-4.1-2.9-6.2-4.5C18.3,43.7,21.9,40.3,24.4,42.2z"/>
</svg>
