<?xml version="1.0" encoding="utf-8"?>
<!-- Generator: Adobe Illustrator 22.0.1, SVG Export Plug-In . SVG Version: 6.00 Build 0)  -->
<svg version="1.1" id="圖層_1" xmlns="http://www.w3.org/2000/svg" xmlns:xlink="http://www.w3.org/1999/xlink" x="0px" y="0px"
	 viewBox="0 0 96 96" style="enable-background:new 0 0 96 96;" xml:space="preserve">
<style type="text/css">
	.st0{fill:#FFFFFF;}
</style>
<path class="st0" d="M54.8,32.8c3.8,0,6.9-3.1,6.9-7s-3.1-7-6.9-7c-3.8,0-6.9,3.1-6.9,7S51,32.8,54.8,32.8z"/>
<path class="st0" d="M61.1,35.6c2.6,2.3,7.2,6.5,12,7c1.5,0.2,2.5,1.5,2.4,3C75.3,47,74.2,48,72.8,48c-0.1,0-0.2,0-0.3,0
	c-5.1-0.5-8.1-2.1-10.4-4l0.8,9.3c0.1,1.4-0.3,2.5-1.1,3.5c1.9,3.1,5.2,8.9,9.8,19.4c0.8,1.7,0,3.8-1.7,4.6C69.5,80.9,69,81,68.6,81
	c-1.3,0-2.6-0.8-3.1-2.1c-3.9-8.9-6.9-14.5-8.7-17.5c-1.2,2-3.1,5.8-5,9.5c-1.7,3.4-3.4,6.7-4.3,8.3c-0.6,1-1.6,1.6-2.7,1.7
	c-0.7,0-1.3-0.1-1.9-0.5c-1.6-1-2.2-3.1-1.2-4.7c1.5-2.6,4.8-8.9,7.4-13.7c1.1-2,2-3.7,2.6-4.8c-0.7-0.8-1.2-1.7-1.3-2.9l-0.8-9.8
	C47.7,47,45.9,50,44.7,53c-0.4,0.9-1.2,1.5-2.1,1.7L38.5,62l-3.4,6.1l-4.8,8.6c0.8,1.1,0.7,2.6-0.2,3.6c-1,1-2.7,1-3.7,0
	c-0.8-0.9-1-2.2-0.4-3.2l-3.5-2c-0.6-0.3-0.8-1-0.4-1.6l8.8-15.8c0.3-0.6,1-0.8,1.6-0.4l4.6,2.7l3.3-6c-0.7-0.7-0.9-1.9-0.5-2.9
	c2.8-7.2,8.4-13.5,10.5-15.7c0.3-0.3,1.1-1.1,1.2-1.1c1.5-1.2,2.6-1.3,3.3-1.3c0.1,0,0.1,0,0.2,0c0.8-0.1,1.5,0.1,1.5,0.1
	c1,0.2,2.1,0.6,3.1,1.3C59.8,34.4,60.4,34.9,61.1,35.6z M27.2,78.4c0,0.5,0.4,1,1,1c0.5,0,1-0.4,1-1c0-0.5-0.4-1-1-1
	C27.7,77.4,27.2,77.9,27.2,78.4z"/>
</svg>
