<svg width="16" height="22" viewBox="0 0 16 22" fill="none" xmlns="http://www.w3.org/2000/svg">
<path d="M11.7709 10.7954C12.1005 9.64042 11.9866 8.0787 12.9035 7.42347C14.9338 5.96795 13.0054 3.61731 15.1867 2.37608C15.201 2.36565 15.0393 2.13144 14.9278 2.0205C14.1128 1.21641 12.641 1.23253 11.7026 0.19043C10.7953 1.70853 8.43546 1.26287 7.55096 2.46237C6.63171 3.71592 5.30256 4.69544 4.34375 5.89968C3.19198 7.34003 1.66388 8.69694 1.05744 10.2729C0.35631 12.0868 -0.220173 14.0686 1.30913 16.0106C1.98868 16.8725 2.38419 17.8094 3.65701 18.2465C4.61342 18.5765 4.9454 19.2582 5.07484 19.9903C5.17072 20.5355 4.86151 21.3149 6.00489 21.2116C6.84384 21.1386 6.83425 20.4483 6.77792 19.9116C6.65687 18.7424 6.98527 17.5315 7.95246 16.8042C10.1745 15.1202 11.1285 13.0483 11.7709 10.7954Z" fill="white"/>
</svg>
