<svg width="97" height="96" viewBox="0 0 97 96" fill="none" xmlns="http://www.w3.org/2000/svg">
<mask id="mask0" mask-type="alpha" maskUnits="userSpaceOnUse" x="0" y="0" width="97" height="96">
<path fill-rule="evenodd" clip-rule="evenodd" d="M48.9709 0.305542C22.4609 0.305542 0.970581 21.6764 0.970581 48.0392C0.970581 74.4013 22.4609 95.7722 48.9709 95.7722C75.4803 95.7722 96.9706 74.4013 96.9706 48.0392C96.9706 21.6764 75.4803 0.305542 48.9709 0.305542Z" fill="white"/>
</mask>
<g mask="url(#mask0)">
<path fill-rule="evenodd" clip-rule="evenodd" d="M48.9709 0.305542C22.4609 0.305542 0.970581 21.6764 0.970581 48.0392C0.970581 74.4013 22.4609 95.7722 48.9709 95.7722C75.4803 95.7722 96.9706 74.4013 96.9706 48.0392C96.9706 21.6764 75.4803 0.305542 48.9709 0.305542Z" fill="url(#paint0_radial)"/>
</g>
<path d="M60.8798 48.2317C61.8081 44.9788 61.4874 40.5802 64.0698 38.7347C69.788 34.6353 64.3567 28.0146 70.5003 24.5187C70.5408 24.4893 70.0851 23.8297 69.7712 23.5172C67.4757 21.2525 63.3305 21.2979 60.6874 18.3628C58.132 22.6386 51.4855 21.3833 48.9943 24.7618C46.4052 28.2924 42.6616 31.0512 39.9611 34.443C36.7172 38.4997 32.4133 42.3215 30.7052 46.7601C28.7305 51.8691 27.1068 57.4509 31.4141 62.9204C33.328 65.3481 34.442 67.9867 38.0269 69.2179C40.7206 70.1473 41.6557 72.0675 42.0203 74.1292C42.2903 75.6649 41.4194 77.8602 44.6397 77.5691C47.0027 77.3634 46.9757 75.4192 46.817 73.9076C46.4761 70.6146 47.401 67.2042 50.1251 65.1558C56.3835 60.4126 59.0705 54.5772 60.8798 48.2317Z" fill="white"/>
<defs>
<radialGradient id="paint0_radial" cx="0" cy="0" r="1" gradientUnits="userSpaceOnUse" gradientTransform="translate(48.9708 48.039) scale(47.9999 47.7333)">
<stop stop-color="#DBE25B"/>
<stop offset="1" stop-color="#44B649"/>
</radialGradient>
</defs>
</svg>
