<svg width="97" height="97" viewBox="0 0 97 97" fill="none" xmlns="http://www.w3.org/2000/svg">
<circle cx="48.3026" cy="48.3382" r="48" fill="url(#paint0_radial)"/>
<path d="M75.3125 44.621C76.424 43.5377 76.8164 41.9479 76.3369 40.47C75.8564 38.9921 74.6046 37.9371 73.0668 37.7132L59.3937 35.7265C58.8114 35.6417 58.3082 35.2765 58.0481 34.7484L51.9352 22.3598C51.2489 20.9679 49.8558 20.1028 48.3032 20.1028C46.7518 20.1028 45.3588 20.9679 44.6724 22.3598L38.5584 34.7495C38.2983 35.2776 37.794 35.6428 37.2117 35.7276L23.5386 37.7144C22.0019 37.9371 20.749 38.9932 20.2684 40.4711C19.789 41.949 20.1814 43.5389 21.2929 44.6221L31.1859 54.2652C31.6076 54.6768 31.801 55.2693 31.7015 55.8483L29.3676 69.4648C29.1607 70.6634 29.475 71.8293 30.2507 72.7486C31.4561 74.1812 33.5605 74.6177 35.243 73.7334L47.471 67.304C47.9821 67.036 48.6255 67.0382 49.1355 67.304L61.3646 73.7334C61.9594 74.0467 62.5937 74.205 63.2484 74.205C64.4436 74.205 65.5767 73.6735 66.3558 72.7486C67.1326 71.8293 67.4458 70.6612 67.2389 69.4648L64.9039 55.8483C64.8044 55.2682 64.9977 54.6768 65.4195 54.2652L75.3125 44.621Z" fill="white"/>
<defs>
<radialGradient id="paint0_radial" cx="0" cy="0" r="1" gradientUnits="userSpaceOnUse" gradientTransform="translate(48.3026 48.3382) scale(48)">
<stop stop-color="#884371"/>
<stop offset="0.9986" stop-color="#F3904F"/>
</radialGradient>
</defs>
</svg>
