<svg width="100" height="100" viewBox="0 0 100 100" fill="none" xmlns="http://www.w3.org/2000/svg">
<path fill-rule="evenodd" clip-rule="evenodd" d="M49.9999 21.3598C54.5531 16.0387 61.5291 12.6582 68.7974 12.6582C81.6841 12.6582 91.7721 22.737 91.7721 35.612C91.7721 51.3608 77.5801 64.2321 56.0809 83.7306L56.0569 83.7524L49.9999 89.2405L43.943 83.7524L43.9189 83.7306C22.4197 64.2321 8.22778 51.3608 8.22778 35.612C8.22778 22.737 18.3158 12.6582 31.2025 12.6582C38.4708 12.6582 45.4468 16.0387 49.9999 21.3598ZM49.9999 77.9722L50.4385 77.5758C70.3012 59.5675 83.4177 47.6732 83.4177 35.612C83.4177 27.286 77.131 21.005 68.7974 21.005C62.3645 21.005 56.0987 25.1576 53.8847 30.8543H46.0942C43.9012 25.1576 37.6354 21.005 31.2025 21.005C22.8689 21.005 16.5822 27.286 16.5822 35.612C16.5822 47.6732 29.6987 59.5675 49.5613 77.5758L49.9999 77.9722Z" fill="white"/>
</svg>
