<?xml version="1.0" encoding="utf-8"?>
<!-- Generator: Adobe Illustrator 22.0.1, SVG Export Plug-In . SVG Version: 6.00 Build 0)  -->
<svg version="1.1" id="圖層_1" xmlns="http://www.w3.org/2000/svg" xmlns:xlink="http://www.w3.org/1999/xlink" x="0px" y="0px"
	 viewBox="0 0 96 96" style="enable-background:new 0 0 96 96;" xml:space="preserve">
<style type="text/css">
	.st0{fill:#FFFFFF;}
</style>
<path class="st0" d="M30.5,31.5v11l16.2-5.5l1.3-0.4l1.3,0.4l16.2,5.5v-11H30.5z"/>
<path class="st0" d="M68.7,74.1c-0.7,0.5-1.1,0.8-2,0.8c-0.9,0-1.3-0.3-2-0.8c-0.9-0.6-2.1-1.5-4.3-1.5c-2.2,0-3.4,0.8-4.3,1.5
	c-0.7,0.5-1.1,0.8-2,0.8s-1.3-0.3-2-0.8c-0.9-0.6-2.1-1.5-4.3-1.5c-2.2,0-3.4,0.8-4.3,1.5c-0.7,0.5-1.1,0.8-2,0.8
	c-0.9,0-1.3-0.3-2-0.8c-0.9-0.6-2.1-1.5-4.3-1.5c-2.2,0-3.4,0.8-4.3,1.5c-0.7,0.5-1.1,0.8-2,0.8c-0.9,0-1.3-0.3-2-0.8
	c-0.9-0.6-2.1-1.5-4.3-1.5v3.9c0.9,0,1.3,0.3,2,0.8c0.9,0.6,2.1,1.5,4.3,1.5c2.2,0,3.4-0.8,4.3-1.5c0.7-0.5,1.1-0.8,2-0.8
	c0.9,0,1.3,0.3,2,0.8c0.9,0.6,2.1,1.5,4.3,1.5c2.2,0,3.4-0.8,4.3-1.5c0.7-0.5,1.1-0.8,2-0.8c0.9,0,1.3,0.3,2,0.8
	c0.9,0.6,2.1,1.5,4.3,1.5c2.2,0,3.4-0.8,4.3-1.5c0.7-0.5,1.1-0.8,2-0.8c0.9,0,1.3,0.3,2,0.8c0.9,0.6,2.1,1.5,4.3,1.5
	c2.2,0,3.4-0.8,4.3-1.5c0.7-0.5,1.1-0.8,2-0.8v-3.9C70.8,72.6,69.6,73.5,68.7,74.1z"/>
<path class="st0" d="M49.9,22.1v-3h-3.9v3h-9.2v5.5h22.4v-5.5H49.9z"/>
<path class="st0" d="M23.8,48.9L32,69.3c1-0.3,2.1-0.6,3.5-0.6c3.2,0,5.1,1.2,6.2,2c0.9-0.6,2.3-1.5,4.3-1.8V41.3L23.8,48.9z"/>
<path class="st0" d="M49.9,41.3v27.6c2.1,0.4,3.4,1.2,4.3,1.8c1.1-0.8,3.1-2,6.3-2c1.3,0,2.5,0.2,3.4,0.5l8.3-20.4L49.9,41.3z"/>
</svg>
