<svg width="97" height="97" viewBox="0 0 97 97" fill="none" xmlns="http://www.w3.org/2000/svg">
<mask id="mask0" mask-type="alpha" maskUnits="userSpaceOnUse" x="0" y="0" width="97" height="97">
<path fill-rule="evenodd" clip-rule="evenodd" d="M48.3948 0.667084C21.8852 0.667084 0.394775 22.1575 0.394775 48.6676C0.394775 75.1772 21.8852 96.6676 48.3948 96.6676C74.9049 96.6676 96.3948 75.1772 96.3948 48.6676C96.3948 22.1575 74.9049 0.667084 48.3948 0.667084Z" fill="white"/>
</mask>
<g mask="url(#mask0)">
<path fill-rule="evenodd" clip-rule="evenodd" d="M48.3948 0.667084C21.8852 0.667084 0.394775 22.1575 0.394775 48.6676C0.394775 75.1772 21.8852 96.6676 48.3948 96.6676C74.9049 96.6676 96.3948 75.1772 96.3948 48.6676C96.3948 22.1575 74.9049 0.667084 48.3948 0.667084Z" fill="url(#paint0_radial)"/>
</g>
<path d="M54.9122 32.2271C58.5612 32.2271 61.5193 29.227 61.5193 25.5262C61.5193 21.8254 58.5612 18.8253 54.9122 18.8253C51.2633 18.8253 48.3052 21.8254 48.3052 25.5262C48.3052 29.227 51.2633 32.2271 54.9122 32.2271Z" fill="white"/>
<path fill-rule="evenodd" clip-rule="evenodd" d="M60.9417 34.8763C63.3892 37.0749 67.8556 41.0872 72.43 41.5659C73.8392 41.7134 74.8626 42.9949 74.72 44.429C74.5839 45.7703 73.4697 46.7681 72.1737 46.7681C72.0847 46.7681 71.9967 46.7636 71.9058 46.7537C67.0131 46.2389 64.1475 44.7359 61.9515 42.9518L62.7096 51.8231C62.8206 53.1359 62.3962 54.2547 61.6916 55.1546C63.4743 58.0937 66.6919 63.6743 71.0619 73.7271C71.7923 75.4024 71.0471 77.3624 69.4004 78.1037C68.9702 78.298 68.5235 78.3886 68.0803 78.3886C66.8271 78.3886 65.6331 77.6529 65.0944 76.4116C61.3887 67.8929 58.4677 62.5584 56.7533 59.6596C55.6418 61.6147 53.7909 65.257 52.007 68.7675C50.3588 72.011 48.7678 75.1419 47.8701 76.7254C47.3086 77.7164 46.3205 78.3034 45.2762 78.3803C44.6483 78.4264 44 78.2856 43.4141 77.944C41.8537 77.0283 41.3195 74.9984 42.2183 73.4097C43.6436 70.8949 46.861 64.9083 49.3453 60.2857C50.358 58.4012 51.249 56.7435 51.847 55.64C51.1793 54.9114 50.7288 53.9884 50.636 52.8882L49.8351 43.5223C48.1354 45.8469 46.3754 48.6522 45.2389 51.5638C44.8918 52.4508 44.1191 53.0356 43.257 53.1752L39.2699 60.2078L36.0533 66.0398L31.4618 74.2362C32.2446 75.2513 32.1691 76.7235 31.2453 77.6508C30.2515 78.646 28.6492 78.6337 27.6739 77.6207C26.8651 76.7869 26.7362 75.5324 27.2716 74.5627L23.9084 72.6383C23.3768 72.3378 23.1884 71.65 23.4861 71.1103L31.8949 55.992C32.1928 55.4517 32.8659 55.2621 33.3962 55.5658L37.8388 58.1052L40.9925 52.3874C40.3314 51.6725 40.0906 50.6126 40.4702 49.6369C43.1556 42.7679 48.5504 36.6958 50.4973 34.6425C50.7493 34.334 51.5484 33.6262 51.6617 33.5545C53.1184 32.4496 54.1451 32.3417 54.8468 32.2679C54.8986 32.2625 54.9485 32.2572 54.9968 32.2517C55.7309 32.1693 56.4412 32.3193 56.4412 32.3193C57.4406 32.4779 58.4852 32.9028 59.3686 33.5517C59.6923 33.7539 60.2321 34.2389 60.9417 34.8763ZM28.5026 75.9017C28.5026 76.4182 28.9147 76.8373 29.4227 76.8373C29.9303 76.8373 30.3421 76.4186 30.3423 75.9017C30.3423 75.385 29.9302 74.966 29.4227 74.966C28.9147 74.966 28.5026 75.3851 28.5026 75.9017Z" fill="white"/>
<defs>
<radialGradient id="paint0_radial" cx="0" cy="0" r="1" gradientUnits="userSpaceOnUse" gradientTransform="translate(48.3949 48.6675) scale(48.0002 48.0005)">
<stop stop-color="#3869FB"/>
<stop offset="1" stop-color="#2848FF"/>
</radialGradient>
</defs>
</svg>
