<svg width="48" height="48" viewBox="0 0 48 48" fill="none" xmlns="http://www.w3.org/2000/svg">
<path d="M19.6764 28.8006L14.9745 25.2043L20.682 17.7453L28.0012 23.3462L24.305 28.1746C24.4315 28.2146 24.5647 28.2545 24.6846 28.3012C25.1708 28.5009 25.6236 28.7807 26.0698 29.1536L38.3106 13.1434L36.7189 11.9313L33.4889 16.1536L27.6748 11.7048C25.9699 10.3995 23.3526 10.9523 21.8408 12.9302L13.3828 23.9856L10.912 22.0942L9.69995 23.6859L18.2245 30.2059C18.6108 29.6531 19.1036 29.1736 19.6764 28.8006ZM23.4259 14.149C24.2584 13.0634 25.6436 12.6705 26.4628 13.2965L32.2768 17.7453L29.2066 21.7612L21.8875 16.1536L23.4259 14.149Z" fill="#13334C"/>
<path d="M26.0765 34.6889C26.4495 33.7698 26.4495 32.7575 26.0632 31.8451C25.8367 31.3057 25.4838 30.8462 25.0509 30.4732C24.7512 30.2135 24.4182 29.9937 24.0453 29.8405C23.7655 29.7273 23.4792 29.6607 23.1928 29.6141C22.9997 29.5875 22.8065 29.5675 22.6067 29.5675C22.1272 29.5675 21.6544 29.6607 21.1948 29.8472C21.1615 29.8605 21.1349 29.8805 21.1083 29.8938C20.6288 30.1136 20.2025 30.4199 19.8562 30.7995C19.743 30.9261 19.6364 31.0659 19.5432 31.2058C19.41 31.4122 19.2901 31.632 19.1969 31.8585C18.8239 32.7775 18.8239 33.7898 19.2102 34.7022C19.8096 36.1274 21.1882 36.9799 22.6467 36.9799C23.1262 36.9799 23.6124 36.8866 24.0786 36.6935C24.991 36.3272 25.7036 35.6079 26.0765 34.6889ZM23.2994 34.8687C23.0796 34.9619 22.8598 35.0019 22.6334 35.0019C21.9607 35.0019 21.3214 34.6023 21.0483 33.943C20.8685 33.5168 20.8685 33.0506 21.0417 32.6243C21.0683 32.5577 21.1083 32.4978 21.1416 32.4379C21.328 32.1049 21.6144 31.8451 21.9674 31.692C22.0739 31.6453 22.1872 31.612 22.2937 31.5921C22.4003 31.5721 22.5202 31.5588 22.6334 31.5588C22.7466 31.5588 22.8531 31.5721 22.9597 31.5921C23.0663 31.612 23.1795 31.6453 23.2794 31.692C23.4925 31.7785 23.679 31.9051 23.8321 32.0583C23.992 32.2181 24.1252 32.4046 24.2117 32.6177C24.5914 33.4901 24.1785 34.5024 23.2994 34.8687Z" fill="#13334C"/>
</svg>
