<svg width="48" height="48" viewBox="0 0 48 48" fill="none" xmlns="http://www.w3.org/2000/svg">
<path d="M10.8776 24.3651V35.6602H14.7096C14.723 35.6937 14.7364 35.7205 14.7498 35.754C15.0847 36.3301 15.6274 36.7455 16.2705 36.9196C16.4849 36.9732 16.6993 37.0067 16.9136 37.0067C17.3491 37.0067 17.7778 36.8928 18.1664 36.6718C18.5818 36.4306 18.9033 36.0822 19.1244 35.6669H28.8853C28.8987 35.7004 28.9121 35.7272 28.9255 35.7607C29.2605 36.3368 29.8031 36.7522 30.4462 36.9263C30.6606 36.9799 30.875 37.0134 31.0894 37.0134C31.5248 37.0134 31.9536 36.8995 32.3421 36.6785C32.7575 36.4373 33.0791 36.0889 33.3001 35.6736H37.1053V30.0194L33.5279 24.3718H10.8776V24.3651ZM17.7109 34.7156C17.6573 34.9299 17.5166 35.1041 17.329 35.218C17.1347 35.3252 16.9136 35.3587 16.6993 35.2984C16.4849 35.2448 16.3107 35.1041 16.1968 34.9165C15.969 34.5213 16.103 34.0121 16.4983 33.7844C16.6256 33.7107 16.773 33.6705 16.9136 33.6705C17.2017 33.6705 17.4764 33.8179 17.6305 34.0791C17.7377 34.2801 17.7711 34.5012 17.7109 34.7156ZM31.8933 34.7156C31.8397 34.9299 31.699 35.1041 31.5114 35.218C31.1162 35.4458 30.607 35.3118 30.3792 34.9165C30.1515 34.5213 30.2854 34.0121 30.6807 33.7844C30.808 33.7107 30.9554 33.6705 31.0961 33.6705C31.3841 33.6705 31.6588 33.8179 31.8129 34.0791C31.9201 34.2801 31.9469 34.5012 31.8933 34.7156ZM35.0955 33.6504H33.4408C33.3872 33.5097 33.3336 33.3757 33.2532 33.2417C32.5632 32.0492 31.0291 31.6406 29.8366 32.3306C29.3073 32.6388 28.9456 33.1144 28.7513 33.6437H19.2651C19.2115 33.503 19.1579 33.369 19.0775 33.235C18.3875 32.0425 16.8533 31.6339 15.6609 32.3239C15.1316 32.6321 14.7699 33.1077 14.5756 33.637H12.8874V26.3749H32.4225L35.0955 30.5955V33.6504Z" fill="#13334C"/>
<path d="M19.7877 20.379L18.5148 23.2262H24.7184L26.42 20.379H36.3685L36.9781 18.4831C37.2863 17.5385 37.1188 16.4934 36.5359 15.6962C35.9598 14.899 35.0688 14.4434 34.0907 14.4434H17.3558L15.4197 11H10L13.2224 20.379H19.7877ZM14.2407 13.0098L16.1768 16.4599H34.0907C34.419 16.4599 34.7137 16.614 34.9147 16.882C35.1224 17.1701 35.1827 17.5251 35.0688 17.8668L34.908 18.3692H27.6259L27.8737 17.9472H25.9242L23.7671 21.5447H21.094L22.7019 17.9472H20.8663L20.6854 18.3692H14.656L12.8137 13.0098H14.2407Z" fill="#13334C"/>
<path d="M24.9462 29.1283H18.2134V30.6893H29.3208L24.9462 27.7014V29.1283Z" fill="#13334C"/>
</svg>
