<svg width="48" height="48" viewBox="0 0 48 48" fill="none" xmlns="http://www.w3.org/2000/svg">
<path d="M36.1365 34.5954L31.118 29.3865C32.9706 26.9566 32.8373 23.4671 30.6548 21.2021C29.4493 19.9522 27.8569 19.3114 26.2453 19.2796C26.2707 19.2162 26.3024 19.1464 26.3278 19.083C26.3786 18.9561 26.4293 18.8228 26.5055 18.6515C26.5245 18.6135 26.5372 18.5754 26.5372 18.5691C27.0892 17.9092 27.2161 17.1162 26.9052 16.285C26.8798 16.2089 26.8544 16.1327 26.829 16.0503C26.7973 15.9551 26.7719 15.8599 26.7402 15.7648C26.6577 15.53 26.6958 15.4666 26.8417 15.3524C26.994 15.2255 27.1399 15.0922 27.2858 14.959L27.4572 14.8067C27.7934 14.5085 27.8695 14.02 27.6475 13.6266C27.4952 13.3538 27.4127 13.2143 25.0779 12.0786C22.8573 11 22.7939 11 22.5592 11C22.3244 11 22.096 11.0888 21.9184 11.2474L21.6519 11.4949C21.4742 11.6598 21.3029 11.8248 21.1126 11.9771C20.9413 12.1166 20.77 12.2372 20.5987 12.3324C20.5733 12.3387 20.5479 12.3387 20.5225 12.345C20.4464 12.3577 20.3639 12.3704 20.2878 12.3895C19.0443 12.6813 18.1751 13.3665 17.7183 14.4134C17.5914 14.7179 17.4518 15.0288 17.2932 15.3016C17.2297 15.4031 17.1155 15.5998 17.0775 15.6315C16.7666 15.8155 16.627 15.898 13.5308 20.8658C13.1502 21.4749 12.7568 22.103 12.687 22.2045C12.0653 23.08 11.7861 24.0698 11.8622 25.1484C11.9384 26.1825 12.465 29.8053 12.668 30.8204C12.89 31.9244 13.5308 32.7174 14.565 33.1742C15.32 33.5105 15.7388 34.0371 15.891 34.8429C15.9354 35.0839 15.9481 35.3631 15.9608 35.655C15.9672 35.8072 15.9735 35.9658 15.9862 36.1181C16.0243 36.613 16.4367 37 16.9379 37H19.0887C19.4313 37 19.7422 36.816 19.9135 36.5242C20.3766 35.7184 20.3639 34.9063 20.3132 34.2718C20.3386 33.9546 20.7636 32.489 20.9794 31.899C21.1253 31.4929 21.3283 31.3533 21.4996 31.2709C21.709 31.163 21.8359 31.0488 22.2102 30.4968C23.3522 31.4041 24.7353 31.8673 26.1248 31.8673C27.3937 31.8673 28.6626 31.4802 29.7475 30.7125L34.7661 35.9214L36.1365 34.5954ZM26.7212 22.49C26.7148 22.5217 26.7021 22.5534 26.6958 22.5852L26.6704 22.6676C26.5816 22.9785 26.4928 23.2894 26.4103 23.6003C26.036 24.9453 25.6807 26.2143 25.1604 27.4451C24.8622 28.143 24.564 28.8155 24.1453 29.3929C24.1326 29.4119 24.1199 29.4373 24.1072 29.4627C23.6948 29.247 23.3015 28.9678 22.9652 28.6125C21.2839 26.8677 21.3347 24.0825 23.0794 22.4012C23.9296 21.5827 25.0272 21.1767 26.1248 21.1767C26.3976 21.1767 26.6704 21.2021 26.9369 21.2528C26.7656 21.6652 26.6958 22.0713 26.7212 22.49ZM19.1902 31.2455C19.1838 31.2709 18.3591 33.6247 18.4098 34.3543C18.4288 34.6462 18.4352 34.8873 18.4098 35.0966H17.8388C17.8261 34.9 17.8007 34.7033 17.7627 34.4939C17.4962 33.0791 16.6587 32.0259 15.339 31.4358C14.8632 31.2265 14.6411 30.9473 14.5333 30.4397C14.3366 29.488 13.829 25.9732 13.7593 25.0088C13.7148 24.368 13.8671 23.8287 14.2351 23.3084C14.3303 23.1752 14.5777 22.7755 15.1424 21.8682C15.9227 20.612 17.7246 17.7189 18.156 17.1923C18.5304 16.9322 18.7524 16.5578 18.9237 16.2787C19.1458 15.9043 19.3171 15.5173 19.4694 15.1684C19.6851 14.6798 20.0721 14.3943 20.7319 14.2357C20.7636 14.2294 20.8017 14.223 20.8334 14.2167C20.992 14.1913 21.2268 14.1532 21.4679 14.02C21.7597 13.8614 22.0452 13.6711 22.3244 13.4363C22.4703 13.3158 22.6099 13.1952 22.7431 13.0683C23.3903 13.3665 24.4498 13.8804 25.2302 14.2738C24.7607 14.8702 24.6529 15.6061 24.932 16.3992C24.9574 16.469 24.9764 16.5388 24.9955 16.6022C25.0272 16.7164 25.0653 16.8306 25.1033 16.9385C25.1858 17.1542 25.1477 17.2304 25.0589 17.3446C24.9003 17.5349 24.8115 17.7316 24.7353 17.9156C24.6655 18.0678 24.6084 18.2265 24.545 18.3851C24.4435 18.6452 24.3483 18.8926 24.2278 19.0703C24.1136 19.2479 23.993 19.451 23.8788 19.6794C23.1048 19.9712 22.3752 20.4217 21.747 21.0307C19.5265 23.1689 19.2219 26.5632 20.8778 29.0439C20.7256 29.2723 20.567 29.5198 20.4654 29.653C19.8754 30.0083 19.4503 30.5349 19.1902 31.2455ZM26.0423 29.9575C26.3849 29.3865 26.645 28.7965 26.8988 28.1938C27.4698 26.8487 27.8569 25.4592 28.2312 24.1142C28.3137 23.8097 28.4025 23.4988 28.4913 23.1942L28.5103 23.1308C28.5611 22.9595 28.6436 22.6994 28.6182 22.3948C28.6055 22.2679 28.6309 22.141 28.6817 22.0078C28.891 22.1601 29.094 22.325 29.278 22.5217C30.9593 24.2665 30.9086 27.0517 29.1638 28.733C28.2946 29.5705 27.1653 29.9766 26.0423 29.9575Z" fill="#13334C"/>
</svg>
