<svg width="48" height="48" viewBox="0 0 48 48" fill="none" xmlns="http://www.w3.org/2000/svg">
<path d="M11.5 23.2822V36.9999H36.4283V23.2822H11.5ZM34.4798 35.0514H25.1917V33H23.5679V35.0514H13.4485V25.2308H23.5679V27H25.1917V25.2308H34.4863V35.0514H34.4798Z" fill="#13334C"/>
<path d="M18.6577 16.2805L27.8223 21.5741H31.9207L17.9497 13.624L13.3577 21.5741H15.605L18.6577 16.2805Z" fill="#13334C"/>
<path d="M29.3551 13.663L33.9211 21.5741H36.1684L30.063 11L23.5614 14.7542L25.5164 15.8778L29.3551 13.663Z" fill="#13334C"/>
<path d="M19.2941 28.8421L18.4692 27.1663L17.6379 28.8421L15.7867 29.1149L17.1247 30.4204L16.813 32.265L18.4692 31.3946L20.1255 32.265L19.8072 30.4204L21.1517 29.1149L19.2941 28.8421Z" fill="#13334C"/>
<path d="M25.1918 28.8812H23.568V31.2389H25.1918V28.8812Z" fill="#13334C"/>
</svg>
