<svg width="48" height="48" viewBox="0 0 48 48" fill="none" xmlns="http://www.w3.org/2000/svg">
<path d="M20.8379 37H27.2058V24.5183H20.8379V37ZM22.8196 26.5H25.2241V35.0249H22.8196V26.5Z" fill="#13334C"/>
<path d="M11.7021 37H18.07V28.9741H11.7021V37ZM13.6839 30.9558H16.0883V35.0183H13.6839V30.9558Z" fill="#13334C"/>
<path d="M29.9669 16.4827V37H36.3348V16.4827H29.9669ZM34.3531 35.0183H31.9486V18.4644H34.3531V35.0183Z" fill="#13334C"/>
<path d="M25.1514 17.9426C24.3653 18.4248 23.4339 18.9004 22.4166 19.3298C21.7164 20.2017 20.6397 20.7632 19.4309 20.7632C19.1138 20.7632 18.8033 20.717 18.5127 20.6443C17.436 20.9217 16.4187 21.1133 15.5005 21.1992C16.5376 22.1504 17.9116 22.7383 19.4309 22.7383C22.2911 22.7515 24.6758 20.6707 25.1514 17.9426Z" fill="#13334C"/>
<path d="M14.3107 20.5056C16.147 20.5056 18.5581 19.8913 20.2294 19.3232C23.0566 18.3653 27.6608 16.2119 26.987 14.2302C26.7029 13.4045 25.6592 13.0412 23.8823 13.1468C22.8188 11.8389 21.1938 11 19.3772 11C16.2263 11 13.6633 13.5168 13.5708 16.6479C12.0977 17.6453 11.4834 18.5635 11.7675 19.3958C12.0449 20.2083 13.0358 20.5056 14.3107 20.5056ZM25.7319 14.6265C25.7253 14.7983 25.4809 15.0955 25.0251 15.4588C24.9392 15.1087 24.8269 14.7718 24.6816 14.4482C25.3818 14.4746 25.6857 14.6001 25.7319 14.6265ZM19.3772 12.9817C21.425 12.9817 23.1028 14.6001 23.2019 16.628C22.2969 17.1103 21.1674 17.6123 19.8066 18.0747C18.4458 18.5371 17.2436 18.8277 16.2395 18.9995C15.7903 18.3587 15.5459 17.6123 15.5459 16.8196C15.5459 14.6992 17.2634 12.9817 19.3772 12.9817ZM13.7294 18.1738C13.8152 18.5239 13.9275 18.8674 14.0729 19.1977C13.4982 19.1911 13.1282 19.1118 13.0225 19.0061C13.0292 18.907 13.1943 18.6164 13.7294 18.1738Z" fill="#13334C"/>
</svg>
