<svg width="13" height="19" viewBox="0 0 13 19" fill="none" xmlns="http://www.w3.org/2000/svg">
<path fill-rule="evenodd" clip-rule="evenodd" d="M4.10986 6.66697C4.10986 5.32915 5.16365 4.24023 6.45831 4.24023C7.75298 4.24023 8.80676 5.32915 8.80676 6.66697C8.80676 8.0048 7.75298 9.09371 6.45831 9.09371C5.16365 9.09371 4.10986 8.0048 4.10986 6.66697ZM4.69711 6.66647C4.69711 7.67005 5.48725 8.48653 6.45845 8.48653C7.42965 8.48653 8.21979 7.67005 8.21979 6.66647C8.21979 5.6629 7.42965 4.84642 6.45845 4.84642C5.48725 4.84642 4.69711 5.6629 4.69711 6.66647Z" fill="#8E8E8E"/>
<path fill-rule="evenodd" clip-rule="evenodd" d="M6.45891 0.600098C8.18398 0.600098 9.80599 1.26321 11.0259 2.46712C13.2834 4.69478 13.564 8.88618 11.6257 11.4359L6.45891 18.8006L1.28436 11.4256C-0.646162 8.88618 -0.365611 4.69478 1.89194 2.46712C3.11182 1.26321 4.73349 0.600098 6.45891 0.600098ZM6.45895 17.6321L11.0795 11.0468C12.8382 8.73243 12.5873 4.9472 10.5497 2.93658C9.45678 1.85832 8.00417 1.26434 6.45895 1.26434C4.91372 1.26434 3.46112 1.85832 2.36855 2.93658C0.330927 4.9472 0.0800131 8.73243 1.83102 11.0365L6.45895 17.6321Z" fill="#8E8E8E"/>
</svg>
