<svg width="51" height="48" viewBox="0 0 51 48" fill="none" xmlns="http://www.w3.org/2000/svg">
<path fill-rule="evenodd" clip-rule="evenodd" d="M47.2178 32.4444C48.2962 29.7609 48.8888 26.8404 48.8888 23.7853C48.8888 10.649 37.9456 0 24.4463 0C14.5826 0 6.08459 5.68615 2.22217 13.8733L2.3374 32.4444H47.2178Z" fill="#319DF5"/>
<mask id="mask0" mask-type="alpha" maskUnits="userSpaceOnUse" x="2" y="32" width="46" height="17">
<path fill-rule="evenodd" clip-rule="evenodd" d="M2.70557 32.4639H47.0376V48.0001H2.70557V32.4639Z" fill="white"/>
</mask>
<g mask="url(#mask0)">
<path fill-rule="evenodd" clip-rule="evenodd" d="M2.70557 32.4639L2.71483 34.0174C6.58534 42.283 14.9044 48.0002 24.5443 48.0002C34.7773 48.0002 43.5228 41.5583 47.0376 32.4639H2.70557Z" fill="#74727F"/>
</g>
<path fill-rule="evenodd" clip-rule="evenodd" d="M19.9999 32.4443H2.22217L2.23152 33.9258C4.92826 39.3645 9.76403 43.646 15.7007 45.7777C9.93617 42.2662 11.9299 32.4443 19.9999 32.4443Z" fill="#5F5E6A"/>
<path fill-rule="evenodd" clip-rule="evenodd" d="M12.9335 8.05759C12.8237 7.75952 12.4904 7.55566 12.1127 7.55566H8.77595C8.39821 7.55566 8.06498 7.75943 7.95521 8.05759L6.6665 11.5557H14.2221L12.9335 8.05759Z" fill="#EEEFEB"/>
<path fill-rule="evenodd" clip-rule="evenodd" d="M10.6665 7.55566H8.47813C8.15372 7.55566 7.86754 7.75943 7.77326 8.05758L6.6665 11.5557H9.70255L10.2914 8.05758C10.3416 7.75943 10.4939 7.55566 10.6665 7.55566Z" fill="#D6D6D0"/>
<path fill-rule="evenodd" clip-rule="evenodd" d="M14.062 11.5557H6.82674C6.49284 11.5557 6.22217 11.8248 6.22217 12.1568V13.7779C7.33829 13.6778 8.45742 13.6033 9.57892 13.5595C10.5524 13.5215 11.5234 13.4994 12.4659 13.4994C13.152 13.4994 13.8917 13.5843 14.6666 13.7355V12.1567C14.6666 11.8248 14.3959 11.5557 14.062 11.5557Z" fill="#363540"/>
<path fill-rule="evenodd" clip-rule="evenodd" d="M9.86739 11.5557H6.76942C6.46718 11.5557 6.22217 11.8248 6.22217 12.1568V13.7779C7.23247 13.6778 8.24549 13.6033 9.26066 13.5595C9.58201 13.5456 9.9026 13.5347 10.2222 13.5254C10.177 13.4472 10.1193 13.372 10.0436 13.3017C9.06716 12.3968 9.86739 11.5557 9.86739 11.5557Z" fill="#21212B"/>
<mask id="mask1" mask-type="alpha" maskUnits="userSpaceOnUse" x="0" y="12" width="51" height="22">
<path fill-rule="evenodd" clip-rule="evenodd" d="M0 12.9521H50.568V33.7171H0V12.9521Z" fill="white"/>
</mask>
<g mask="url(#mask1)">
<path fill-rule="evenodd" clip-rule="evenodd" d="M49.7802 24.7058C48.2202 23.4433 44.217 20.9903 36.6609 20.9903H32.0829C30.6677 20.9903 29.2813 20.5832 28.0857 19.8133C24.6185 17.5809 16.8366 12.9521 11.921 12.9521C11.0212 12.9521 10.0944 12.9737 9.16514 13.0108C6.82884 13.104 4.50272 13.3304 2.19605 13.6823C1.90993 14.3163 1.65077 14.9653 1.41738 15.6268L0.067358 22.115C0.024 22.7164 0 23.3231 0 23.9357C0 26.6985 0.447901 29.355 1.27388 31.8343H31.3244C31.3217 31.7601 31.3189 31.686 31.3189 31.611C31.3189 28.2994 33.9685 25.6051 37.2255 25.6051C40.4823 25.6051 43.132 28.2994 43.132 31.611C43.132 32.3519 42.9985 33.0614 42.7561 33.7171H43.2306C44.386 33.7171 45.538 33.5922 46.6673 33.3446L48.9202 32.8504C49.8815 32.6396 50.568 31.775 50.568 30.775V26.367C50.5679 25.72 50.2782 25.1088 49.7802 24.7058Z" fill="#FFC743"/>
</g>
<path fill-rule="evenodd" clip-rule="evenodd" d="M14.4136 31.6519C12.0925 30.977 11.8854 28.3282 11.8854 28.3282L11.0602 22.8322L9.90437 15.1039C8.95656 14.1385 9.86425 13.3428 9.87518 13.3335C9.60369 13.3416 9.33162 13.3506 9.05916 13.3614C6.74983 13.4538 4.45075 13.678 2.17081 14.0263C1.8879 14.6541 1.63184 15.2969 1.40106 15.9519L0.0665778 22.3764C0.023722 22.9717 0 23.5724 0 24.1791C0 26.9148 0.442713 29.5452 1.25912 32.0002H14.6666C14.6688 31.8479 14.5749 31.6989 14.4136 31.6519Z" fill="#FBB031"/>
<path fill-rule="evenodd" clip-rule="evenodd" d="M49.8665 24.749C49.0379 24.1846 47.5295 23.3423 45.1833 22.6665L44.4831 23.3526C43.8059 24.016 43.8451 25.0151 44.5728 25.6381L45.2015 26.1762C45.5681 26.4901 46.0656 26.6665 46.5843 26.6665H50.6667V26.17C50.6667 25.6164 50.3724 25.0937 49.8665 24.749Z" fill="#D6D6D0"/>
<path fill-rule="evenodd" clip-rule="evenodd" d="M50.6665 26.2166C50.6665 25.715 50.3774 25.2412 49.8803 24.9288C49.464 24.6672 48.8716 24.3396 48.085 24C47.2532 24.2686 46.6665 24.9132 46.6665 25.6667C46.6665 26.0367 46.8083 26.3806 47.0508 26.6667H50.6665V26.2166Z" fill="#EEEFEB"/>
<path fill-rule="evenodd" clip-rule="evenodd" d="M47.9816 29.7778C47.2583 29.7778 46.6665 30.266 46.6665 30.8626V31.3597C46.6665 31.9564 47.2583 32.4445 47.9816 32.4445H48.3801L49.0218 32.3303C49.9814 32.1596 50.6665 31.4596 50.6665 30.6499V29.7778H47.9816Z" fill="#FBB031"/>
<path fill-rule="evenodd" clip-rule="evenodd" d="M48.2753 31.3597V30.8626C48.2753 30.266 48.7514 29.7778 49.3332 29.7778H47.7244C47.1425 29.7778 46.6665 30.266 46.6665 30.8626V31.3597C46.6665 31.9564 47.1425 32.4445 47.7244 32.4445H48.045L48.5611 32.3303C48.6303 32.315 48.6968 32.2941 48.7621 32.2706C48.4701 32.077 48.2753 31.7409 48.2753 31.3597Z" fill="#F7991E"/>
<mask id="mask2" mask-type="alpha" maskUnits="userSpaceOnUse" x="0" y="22" width="29" height="10">
<path fill-rule="evenodd" clip-rule="evenodd" d="M0 22.7446H28.4232V31.967H0V22.7446Z" fill="white"/>
</mask>
<g mask="url(#mask2)">
<path fill-rule="evenodd" clip-rule="evenodd" d="M27.2852 22.7869C26.3301 23.4035 25.1967 23.712 24.0481 23.6677L0.0727239 22.7446C0.02473 23.3411 0 23.9438 0 24.5522C0 27.1458 0.443381 29.6396 1.26074 31.967H28.4232V24.5603C28.4232 24.3701 28.3598 24.185 28.2423 24.0322L27.2852 22.7869Z" fill="#FBB031"/>
</g>
<path fill-rule="evenodd" clip-rule="evenodd" d="M14.4136 31.6657C12.0925 31.0182 11.8854 28.4767 11.8854 28.4767L11.0602 23.2035L11.0432 23.0945L0.0725327 22.6665C0.0246982 23.2701 0 23.88 0 24.4958C0 27.1205 0.442713 29.6443 1.25912 31.9998H14.6666C14.6688 31.8538 14.5749 31.7107 14.4136 31.6657Z" fill="#F7991E"/>
<path fill-rule="evenodd" clip-rule="evenodd" d="M25.8446 25.3335H0C0.0439808 26.0817 0.106698 26.8226 0.187362 27.5557H25.8445C26.2986 27.5557 26.6667 27.0581 26.6667 26.4447C26.6668 25.8308 26.2986 25.3335 25.8446 25.3335Z" fill="#363540"/>
<path fill-rule="evenodd" clip-rule="evenodd" d="M11.1682 26.4445C11.1682 25.831 11.5406 25.3335 12 25.3335H0C0.0444969 26.0817 0.10795 26.8226 0.189561 27.5557H12C11.5406 27.5556 11.1682 27.0581 11.1682 26.4445Z" fill="#21212B"/>
<path fill-rule="evenodd" clip-rule="evenodd" d="M27.8203 21.1765C27.704 21.1119 27.589 21.0447 27.4755 20.9751C21.0404 17.0248 15.3137 14.6665 12.1563 14.6665C11.5559 14.6665 10.9174 14.6762 10.2513 14.6951L10.2222 18.2933L11.4061 22.0442L11.2605 22.1475L24.5625 22.6623C25.7258 22.7073 26.8737 22.3932 27.8409 21.7655C28.0615 21.6223 28.0507 21.3043 27.8203 21.1765Z" fill="#363540"/>
<path fill-rule="evenodd" clip-rule="evenodd" d="M6.12345 23.1112L6.22222 19.5065L4.92214 15.5557C3.78469 15.6833 2.64856 15.837 1.51465 16.0182C0.702026 18.1855 0.181638 20.486 0 22.877L6.12345 23.1112Z" fill="#21212B"/>
<path fill-rule="evenodd" clip-rule="evenodd" d="M7.55566 14.8072L8.68514 22.1092L11.5557 22.2221L10.387 14.6665C10.1276 14.674 9.86436 14.6827 9.59697 14.693C8.9165 14.7194 8.23594 14.7586 7.55566 14.8072Z" fill="#5F5E6A"/>
<path fill-rule="evenodd" clip-rule="evenodd" d="M5.1153 22.9983L8 23.1112L6.82645 15.5557C5.88375 15.6228 4.94136 15.7101 4 15.818L5.1153 22.9983Z" fill="#4B4A55"/>
<path fill-rule="evenodd" clip-rule="evenodd" d="M28.258 21.6214C28.1373 21.5568 28.0179 21.4897 27.9 21.4199C26.471 20.5748 25.0762 19.8032 23.7335 19.1113C23.7346 19.1143 24.6195 21.7837 22.2222 23.0081L24.8764 23.1071C26.0838 23.1521 27.2753 22.8381 28.2793 22.2103C28.5083 22.0673 28.4971 21.7493 28.258 21.6214Z" fill="#21212B"/>
<path fill-rule="evenodd" clip-rule="evenodd" d="M23.6815 20.8887H21.8176C21.307 20.8887 20.8892 21.3073 20.8892 21.8189V24.8473C20.8892 25.359 21.307 25.7776 21.8176 25.7776H23.6815C24.8346 25.7776 25.778 24.8322 25.778 23.6768V22.9892C25.778 21.8341 24.8346 20.8887 23.6815 20.8887Z" fill="#EEEFEB"/>
<path fill-rule="evenodd" clip-rule="evenodd" d="M22.6376 23.677V22.9894C22.6376 21.9866 23.2236 21.1429 23.9997 20.9374C23.8816 20.9061 23.7595 20.8887 23.634 20.8887H22.0981C21.6773 20.8887 21.333 21.3073 21.333 21.8189V24.8473C21.333 25.359 21.6773 25.7776 22.0981 25.7776H23.634C23.7595 25.7776 23.8816 25.7601 23.9997 25.7289C23.2236 25.5235 22.6376 24.6799 22.6376 23.677Z" fill="#D6D6D0"/>
<path fill-rule="evenodd" clip-rule="evenodd" d="M37.7776 24.4443C33.8566 24.4443 30.6665 27.7101 30.6665 31.724C30.6665 31.797 30.6698 31.8692 30.6719 31.9417H32.0625C32.0599 31.8693 32.057 31.7971 32.057 31.724C32.057 28.4949 34.6233 25.8678 37.7777 25.8678C40.932 25.8678 43.4981 28.4949 43.4981 31.724C43.4981 32.4464 43.3689 33.1382 43.1342 33.7777H43.5937C43.9324 33.7777 44.2708 33.7651 44.6084 33.7429C44.7896 33.1013 44.8887 32.4246 44.8887 31.724C44.8887 27.7101 41.6986 24.4443 37.7776 24.4443Z" fill="#F7991E"/>
<path fill-rule="evenodd" clip-rule="evenodd" d="M1.3335 31.5557C1.6518 32.4712 2.02881 33.3614 2.46105 34.2223H32.4446C31.9896 33.4282 31.731 32.52 31.731 31.5557H1.3335Z" fill="#F7991E"/>
<path fill-rule="evenodd" clip-rule="evenodd" d="M15.0689 31.9765C15.1849 31.8498 15.1779 31.6752 15.082 31.5557H1.3335C1.65312 32.4713 2.03171 33.3615 2.46576 34.2223H15.5557C14.174 33.3592 14.6086 32.4787 15.0689 31.9765Z" fill="#ED8718"/>
<path fill-rule="evenodd" clip-rule="evenodd" d="M37.5557 37.3335C34.2473 37.3335 31.5557 34.6419 31.5557 31.3334C31.5557 28.0251 34.2473 25.3335 37.5557 25.3335C40.8641 25.3335 43.5557 28.0251 43.5557 31.3334C43.5557 34.6419 40.8641 37.3335 37.5557 37.3335Z" fill="#21212B"/>
<path fill-rule="evenodd" clip-rule="evenodd" d="M41.3336 35.8269C40.2232 35.6647 40.1112 34.9855 40.1604 34.5502C40.1832 34.3483 40.0664 34.1565 39.8775 34.0873C39.4231 33.9207 39.2907 33.597 39.2578 33.3632C39.2337 33.1922 39.1108 33.055 38.9465 33.0072C36.1216 32.1879 36.2059 29.7069 36.3469 28.7673C36.3759 28.5744 36.2796 28.3798 36.1045 28.2981C35.6419 28.0825 35.6269 27.7012 35.6942 27.422C35.7409 27.2274 35.6515 27.025 35.4767 26.9309C34.8424 26.5894 34.8202 26.0303 34.8912 25.6621C34.9139 25.5445 34.8878 25.4281 34.8262 25.3335C32.6416 26.3026 31.1113 28.5088 31.1113 31.0703C31.1113 34.5239 33.8915 37.3335 37.3086 37.3335C38.844 37.3335 40.2498 36.765 41.3336 35.8269Z" fill="black"/>
<path fill-rule="evenodd" clip-rule="evenodd" d="M37.1108 28C39.1972 28 40.8886 29.6914 40.8886 31.7778C40.8886 33.8642 39.1972 35.5556 37.1108 35.5556C35.0244 35.5556 33.333 33.8642 33.333 31.7778C33.333 29.6914 35.0244 28 37.1108 28Z" fill="#D6D6D0"/>
<path fill-rule="evenodd" clip-rule="evenodd" d="M39.1114 34.3446C38.9509 34.191 38.8873 34.0143 38.8651 33.8713C38.8387 33.7006 38.7039 33.5637 38.5237 33.5161C35.4248 32.6987 35.5173 30.2233 35.672 29.2859C35.7038 29.0936 35.5981 28.8994 35.406 28.8179C35.1739 28.7195 35.0453 28.5864 34.9803 28.4443C33.7403 29.0296 32.8892 30.2166 32.8892 31.5836C32.8892 33.5286 34.6107 35.111 36.7268 35.111C37.6276 35.1112 38.456 34.8238 39.1114 34.3446Z" fill="#C6C6C1"/>
<path fill-rule="evenodd" clip-rule="evenodd" d="M38.0002 28.4961C36.478 28.4961 35.2395 29.6692 35.2395 31.1113C35.2395 32.5534 36.4779 33.7268 38.0002 33.7268C39.5223 33.7268 40.7607 32.5535 40.7607 31.1113C40.7607 29.6692 39.5224 28.4961 38.0002 28.4961ZM38.0001 35.1113C35.6718 35.1113 33.7778 33.317 33.7778 31.1113C33.7778 28.9057 35.6719 27.1113 38.0001 27.1113C40.3282 27.1113 42.2223 28.9057 42.2223 31.1113C42.2224 33.317 40.3282 35.1113 38.0001 35.1113Z" fill="#EEEFEB"/>
<path fill-rule="evenodd" clip-rule="evenodd" d="M40.8886 34.0706C40.835 33.9872 40.7515 33.9203 40.6465 33.8856C40.1578 33.7234 40.0154 33.4081 39.98 33.1804C39.9674 33.1001 39.9298 33.0274 39.8745 32.9686C39.3469 33.4042 38.6485 33.67 37.8835 33.67C36.243 33.67 34.9082 32.4487 34.9082 30.9475C34.9082 29.8003 35.6883 28.8172 36.7883 28.4172C36.7425 28.3451 36.675 28.2847 36.5883 28.2481C36.0908 28.0381 36.0746 27.6669 36.1469 27.3949C36.173 27.2971 36.1594 27.1976 36.1148 27.1113C34.4817 27.7441 33.333 29.2255 33.333 30.9476C33.333 33.2436 35.3743 35.1113 37.8835 35.1113C39.0345 35.1114 40.0863 34.7176 40.8886 34.0706Z" fill="#D6D6D0"/>
</svg>
