<?xml version="1.0" encoding="utf-8"?>
<!-- Generator: Adobe Illustrator 23.1.1, SVG Export Plug-In . SVG Version: 6.00 Build 0)  -->
<svg version="1.1" id="圖層_1" xmlns="http://www.w3.org/2000/svg" xmlns:xlink="http://www.w3.org/1999/xlink" x="0px" y="0px"
	 viewBox="0 0 28 28" style="enable-background:new 0 0 28 28;" xml:space="preserve">
<style type="text/css">
	.st0{fill:none;stroke:#FFFFFF;stroke-width:0.18;stroke-linecap:round;stroke-linejoin:round;}
	.st1{fill:#E9946F;}
	.st2{fill:#EF9A9B;}
	.st3{fill:#42394A;}
	.st4{fill:#439B95;}
	.st5{fill:#FFE0BC;}
	.st6{fill:#963820;}
	.st7{fill:#C12B28;}
	.st8{fill:#F7B119;}
	.st9{fill:#E67E69;}
	.st10{fill:#6AAF9F;}
	.st11{fill:#4F4558;}
	.st12{fill:#98D5CC;}
	.st13{fill:#C16326;}
	.st14{fill:#AA5C27;}
	.st15{fill:#EE3B4D;}
	.st16{opacity:0.73;}
	.st17{opacity:0.73;fill:#78C2FF;enable-background:new    ;}
	.st18{opacity:0.73;fill:#2180CC;enable-background:new    ;}
	.st19{opacity:0.74;}
	.st20{opacity:0.74;fill:#F7F7F7;enable-background:new    ;}
	.st21{fill:#DBDBDB;}
	.st22{fill:#C3DB60;}
	.st23{fill:#98B037;}
	.st24{fill:#FFFFFF;}
</style>
<g>
	<g class="st19">
		<path class="st20" d="M24.8,2.6H3.2c-0.8,0-1.5,0.7-1.5,1.5v19.7c0,0.8,0.7,1.5,1.5,1.5h21.6c0.8,0,1.5-0.7,1.5-1.5V4.1
			C26.4,3.3,25.7,2.6,24.8,2.6z"/>
	</g>
	<path class="st21" d="M14.2,19.6H4.6v1h9.6V19.6z"/>
	<path class="st21" d="M19.5,21.6H4.6v1h14.9V21.6z"/>
	<path class="st22" d="M10.1,5.6c0.6-0.3,1.3-0.4,2-0.5l0.3,0c0.2,0,0.3,0,0.5,0c0,0.3,0.2,0.5,0.4,0.7C13.5,5.9,13.7,6,14,6
		s0.5-0.1,0.7-0.3C14.9,5.5,15,5.3,15.1,5c0.1,0,0.3,0,0.5,0l0.3,0c1.1,0.1,2.3,0.4,2.8,1c0.9,1.3,1.1,4.5,1,10.7h-0.2v0.3h-1.3
		v-0.3h-0.3v-1.6h-0.5v0.7h-6.7v-0.7h-0.5v1.6H9.9v0.3H8.6v-0.3H8.4c-0.1-6.2,0.1-9.5,1-10.7C9.6,5.9,9.8,5.7,10.1,5.6L10.1,5.6z"/>
	<path class="st23" d="M15.5,5.1c0,0.4-0.2,0.8-0.4,1.1c-0.3,0.3-0.7,0.4-1.1,0.4s-0.8-0.2-1.1-0.4c-0.3-0.3-0.4-0.7-0.4-1.1
		c0.2,0,0.3,0,0.5,0c0,0.3,0.2,0.5,0.4,0.7C13.5,5.9,13.7,6,14,6c0.3,0,0.5-0.1,0.7-0.3C14.9,5.5,15,5.3,15.1,5
		C15.2,5,15.4,5,15.5,5.1z"/>
	<path class="st21" d="M24.9,21.1c0,0.4-0.1,0.8-0.3,1.1c-0.2,0.3-0.5,0.6-0.9,0.7c-0.4,0.2-0.8,0.2-1.1,0.1c-0.4-0.1-0.7-0.3-1-0.5
		c-0.3-0.3-0.5-0.6-0.5-1c-0.1-0.4,0-0.8,0.1-1.1c0.1-0.4,0.4-0.7,0.7-0.9c0.3-0.2,0.7-0.3,1.1-0.3c0.5,0,1,0.2,1.4,0.6
		C24.7,20.1,24.9,20.6,24.9,21.1z"/>
	<path class="st24" d="M22.8,22l-0.9-0.9l0.4-0.4l0.5,0.5l0.9-0.9l0.4,0.4L22.8,22z"/>
</g>
</svg>
