<svg width="31" height="27" viewBox="0 0 31 27" fill="none" xmlns="http://www.w3.org/2000/svg">
<g opacity="0.73">
<path opacity="0.73" d="M12.4114 21.9898L12.3864 26.3756L0 26.3078L0.0321076 20.522L11.0236 20.5863L11.0807 20.6434L12.3507 21.9291L12.4114 21.9898Z" fill="#78C2FF"/>
<path opacity="0.73" d="M12.4113 21.9895L11.0271 21.9824L11.0342 20.5967L11.0592 20.6217L11.1163 20.6788L12.3185 21.8967L12.4113 21.9895Z" fill="#2180CC"/>
<path opacity="0.73" d="M7.44532 23.4576C7.44743 23.7227 7.37071 23.9824 7.22492 24.2037C7.07913 24.425 6.87086 24.5979 6.62662 24.7003C6.38239 24.8027 6.11323 24.8301 5.85342 24.7789C5.59361 24.7277 5.35489 24.6002 5.16765 24.4128C4.98041 24.2253 4.85312 23.9864 4.80198 23.7263C4.75084 23.4662 4.77816 23.1967 4.88047 22.9522C4.98278 22.7077 5.15545 22.4992 5.3765 22.3533C5.59755 22.2073 5.85698 22.1305 6.12177 22.1326C6.47222 22.1345 6.80778 22.2747 7.05559 22.5228C7.30339 22.7709 7.44344 23.1068 7.44532 23.4576Z" fill="#2180CC"/>
<path opacity="0.73" d="M10.1781 23.4718C10.1773 23.584 10.1432 23.6934 10.08 23.7861C10.0168 23.8788 9.92744 23.9505 9.82334 23.9921C9.71925 24.0337 9.60513 24.0432 9.49558 24.0196C9.38602 23.9959 9.286 23.9401 9.20828 23.8592C9.13057 23.7784 9.0787 23.6762 9.05929 23.5657C9.03989 23.4552 9.05383 23.3414 9.09934 23.2388C9.14485 23.1363 9.21986 23.0497 9.31478 22.99C9.40971 22.9304 9.52024 22.9004 9.63227 22.904C9.77926 22.9086 9.91862 22.9706 10.0206 23.0767C10.1226 23.1828 10.1791 23.3246 10.1781 23.4718Z" fill="#2180CC"/>
<path opacity="0.73" d="M2.05128 23.4255C2.05199 23.3139 2.08574 23.205 2.14826 23.1126C2.21078 23.0202 2.29927 22.9484 2.40254 22.9063C2.5058 22.8643 2.6192 22.8538 2.7284 22.8763C2.8376 22.8988 2.9377 22.9531 3.01602 23.0326C3.09435 23.112 3.1474 23.2129 3.16846 23.3225C3.18951 23.4321 3.17764 23.5455 3.13432 23.6483C3.09101 23.7511 3.01821 23.8388 2.92513 23.9002C2.83205 23.9617 2.72286 23.9941 2.61138 23.9934C2.53736 23.9929 2.46415 23.9778 2.39594 23.949C2.32774 23.9203 2.26586 23.8783 2.21385 23.8256C2.16184 23.7728 2.12071 23.7104 2.09282 23.6417C2.06493 23.5731 2.05081 23.4996 2.05128 23.4255Z" fill="#2180CC"/>
</g>
<g opacity="0.73">
<path opacity="0.73" d="M28.5899 15.3218L30.9623 19.0111L20.5416 25.722L17.4165 20.8576L26.6599 14.9039L26.742 14.9218L28.5043 15.3039L28.5899 15.3218Z" fill="#78C2FF"/>
<path opacity="0.73" d="M28.5901 15.3219L27.4235 16.0718L26.6743 14.9076L26.71 14.9147L26.7885 14.9326L28.4616 15.2933L28.5901 15.3219Z" fill="#2180CC"/>
<path opacity="0.73" d="M25.2295 19.2755C25.3717 19.4971 25.445 19.7559 25.4402 20.0192C25.4354 20.2826 25.3528 20.5386 25.2028 20.7549C25.0527 20.9712 24.842 21.1382 24.5972 21.2347C24.3524 21.3311 24.0846 21.3528 23.8275 21.297C23.5704 21.2411 23.3356 21.1102 23.1528 20.9208C22.97 20.7314 22.8474 20.492 22.8004 20.2329C22.7535 19.9737 22.7843 19.7065 22.889 19.4649C22.9937 19.2233 23.1676 19.0182 23.3887 18.8755C23.686 18.6847 24.0466 18.6197 24.3917 18.6947C24.7367 18.7697 25.038 18.9785 25.2295 19.2755Z" fill="#2180CC"/>
<path opacity="0.73" d="M27.5271 17.7861C27.608 17.912 27.6356 18.065 27.6038 18.2114C27.572 18.3577 27.4834 18.4855 27.3576 18.5664C27.2318 18.6474 27.0789 18.6751 26.9328 18.6432C26.7866 18.6114 26.659 18.5228 26.5781 18.3968C26.5381 18.3344 26.5107 18.2647 26.4975 18.1918C26.4843 18.1188 26.4857 18.0439 26.5014 17.9715C26.5171 17.899 26.547 17.8304 26.5892 17.7694C26.6314 17.7085 26.6853 17.6565 26.7476 17.6164C26.8099 17.5763 26.8795 17.5489 26.9524 17.5357C27.0253 17.5225 27.1 17.5239 27.1724 17.5396C27.2448 17.5554 27.3134 17.5852 27.3742 17.6275C27.4351 17.6698 27.487 17.7237 27.5271 17.7861Z" fill="#2180CC"/>
<path opacity="0.73" d="M20.6918 22.1862C20.6316 22.0921 20.6007 21.9824 20.6029 21.8707C20.6051 21.7591 20.6403 21.6506 20.7041 21.559C20.7679 21.4674 20.8574 21.3969 20.9613 21.3562C21.0651 21.3156 21.1787 21.3067 21.2877 21.3307C21.3966 21.3547 21.4959 21.4105 21.5732 21.4911C21.6504 21.5717 21.702 21.6734 21.7215 21.7833C21.7409 21.8932 21.7274 22.0065 21.6825 22.1087C21.6377 22.2109 21.5636 22.2976 21.4695 22.3576C21.3436 22.438 21.191 22.465 21.0452 22.4329C20.8994 22.4008 20.7723 22.312 20.6918 22.1862Z" fill="#2180CC"/>
</g>
<g opacity="0.73">
<path opacity="0.73" d="M14.6413 13.454L12.2939 17.1612L1.83398 10.5146L4.93058 5.63245L14.2097 11.5254L14.2275 11.6075L14.6235 13.3718L14.6413 13.454Z" fill="#78C2FF"/>
<path opacity="0.73" d="M14.6411 13.4541L13.4709 12.7148L14.213 11.5398L14.2201 11.5755L14.238 11.6541L14.6125 13.3255L14.6411 13.4541Z" fill="#2180CC"/>
<path opacity="0.73" d="M9.65741 12.0574C9.51669 12.2812 9.3128 12.4581 9.07158 12.5657C8.83035 12.6734 8.56264 12.7069 8.30235 12.6622C8.04206 12.6174 7.8009 12.4963 7.60942 12.3142C7.41793 12.1321 7.28474 11.8972 7.2267 11.6392C7.16867 11.3813 7.18841 11.1119 7.28341 10.8652C7.37842 10.6185 7.54443 10.4056 7.7604 10.2534C7.97638 10.1013 8.23261 10.0167 8.49664 10.0104C8.76067 10.0041 9.02063 10.0764 9.24358 10.2181C9.54156 10.4076 9.75242 10.7075 9.82998 11.0522C9.90754 11.397 9.84549 11.7584 9.65741 12.0574Z" fill="#2180CC"/>
<path opacity="0.73" d="M11.962 13.5218C11.9227 13.5851 11.8712 13.6399 11.8107 13.6831C11.7501 13.7264 11.6816 13.7572 11.6091 13.7738C11.5366 13.7904 11.4615 13.7925 11.3882 13.7799C11.3149 13.7673 11.2447 13.7404 11.1819 13.7005C11.119 13.6607 11.0647 13.6088 11.0219 13.5479C10.9792 13.4869 10.949 13.4181 10.9329 13.3453C10.9169 13.2726 10.9154 13.1974 10.9285 13.1241C10.9417 13.0508 10.9691 12.9809 11.0094 12.9182C11.0898 12.7964 11.214 12.7102 11.3561 12.6777C11.4983 12.6451 11.6475 12.6686 11.7729 12.7432C11.8366 12.7817 11.8921 12.8324 11.9361 12.8925C11.9801 12.9525 12.0118 13.0207 12.0294 13.0931C12.047 13.1655 12.0501 13.2406 12.0385 13.3142C12.0269 13.3878 12.0009 13.4584 11.962 13.5218Z" fill="#2180CC"/>
<path opacity="0.73" d="M5.10159 9.1647C5.16156 9.07056 5.24808 8.99634 5.35019 8.95144C5.45231 8.90654 5.56544 8.89298 5.67525 8.91247C5.78507 8.93197 5.88664 8.98364 5.96712 9.06094C6.04759 9.13825 6.10335 9.23772 6.12733 9.34677C6.15131 9.45581 6.14245 9.56953 6.10185 9.67352C6.06125 9.77752 5.99075 9.86712 5.89926 9.93098C5.80778 9.99485 5.69942 10.0301 5.58791 10.0323C5.4764 10.0345 5.36675 10.0035 5.27283 9.94329C5.14711 9.86268 5.05848 9.73542 5.02637 9.58945C4.99427 9.44348 5.02132 9.29072 5.10159 9.1647Z" fill="#2180CC"/>
</g>
<g opacity="0.73">
<path opacity="0.73" d="M24.9155 0.603826L27.5876 4.07887L17.7662 11.6397L14.2451 7.05391L22.957 0.34668L23.039 0.357394L24.8299 0.58954L24.9155 0.603826Z" fill="#78C2FF"/>
<path opacity="0.73" d="M24.9152 0.603908L23.8164 1.44675L22.9709 0.350342L23.0066 0.353913L23.0887 0.364627L24.7832 0.586051L24.9152 0.603908Z" fill="#2180CC"/>
<path opacity="0.73" d="M21.8973 4.8111C22.0586 5.02032 22.1543 5.27275 22.1723 5.53643C22.1902 5.80012 22.1296 6.06321 21.9981 6.2924C21.8667 6.5216 21.6702 6.7066 21.4337 6.82399C21.1972 6.94138 20.9312 6.98589 20.6694 6.95187C20.4076 6.91786 20.1617 6.80686 19.963 6.63292C19.7642 6.45897 19.6214 6.22991 19.5528 5.97471C19.4841 5.71951 19.4926 5.44965 19.5772 5.19929C19.6618 4.94893 19.8186 4.72931 20.0279 4.56824C20.3081 4.35261 20.6623 4.25708 21.0128 4.30262C21.3633 4.34815 21.6814 4.53102 21.8973 4.8111Z" fill="#2180CC"/>
<path opacity="0.73" d="M24.0592 3.14671C24.1274 3.23515 24.1678 3.34186 24.1754 3.45333C24.1829 3.5648 24.1572 3.67601 24.1016 3.77286C24.046 3.86971 23.9629 3.94784 23.8628 3.99736C23.7628 4.04688 23.6503 4.06556 23.5396 4.05102C23.429 4.03648 23.3251 3.98939 23.2413 3.91571C23.1574 3.84203 23.0972 3.74507 23.0684 3.63713C23.0396 3.52919 23.0435 3.41512 23.0795 3.30937C23.1155 3.20363 23.1821 3.11097 23.2708 3.04313C23.3292 2.99783 23.396 2.96456 23.4674 2.94523C23.5387 2.92591 23.6132 2.92092 23.6865 2.93055C23.7598 2.94018 23.8305 2.96423 23.8944 3.00133C23.9584 3.03843 24.0144 3.08784 24.0592 3.14671Z" fill="#2180CC"/>
<path opacity="0.73" d="M17.62 8.10391C17.5746 8.04562 17.5411 7.9789 17.5215 7.9076C17.5019 7.8363 17.4966 7.76183 17.5059 7.68847C17.5152 7.61511 17.5389 7.54432 17.5756 7.48016C17.6123 7.41601 17.6614 7.35975 17.7199 7.31465C17.8079 7.24592 17.9143 7.2049 18.0257 7.1968C18.137 7.18869 18.2482 7.21386 18.3453 7.26912C18.4423 7.32437 18.5208 7.40722 18.5707 7.50717C18.6206 7.60711 18.6398 7.71965 18.6258 7.83051C18.6117 7.94137 18.5651 8.04556 18.4919 8.12988C18.4186 8.2142 18.322 8.27485 18.2143 8.30413C18.1066 8.33342 17.9926 8.33002 17.8868 8.29438C17.781 8.25873 17.6881 8.19244 17.62 8.10391Z" fill="#2180CC"/>
</g>
</svg>
