<?xml version="1.0" encoding="utf-8"?>
<!-- Generator: Adobe Illustrator 23.1.1, SVG Export Plug-In . SVG Version: 6.00 Build 0)  -->
<svg version="1.1" id="圖層_1" xmlns="http://www.w3.org/2000/svg" xmlns:xlink="http://www.w3.org/1999/xlink" x="0px" y="0px"
	 viewBox="0 0 28 28" style="enable-background:new 0 0 28 28;" xml:space="preserve">
<style type="text/css">
	.st0{fill:none;stroke:#FFFFFF;stroke-width:0.18;stroke-linecap:round;stroke-linejoin:round;}
	.st1{fill:#E9946F;}
	.st2{fill:#EF9A9B;}
	.st3{fill:#42394A;}
	.st4{fill:#439B95;}
	.st5{fill:#FFE0BC;}
	.st6{fill:#963820;}
	.st7{fill:#C12B28;}
	.st8{fill:#F7B119;}
	.st9{fill:#E67E69;}
	.st10{fill:#6AAF9F;}
	.st11{fill:#4F4558;}
	.st12{fill:#98D5CC;}
	.st13{fill:#C16326;}
	.st14{fill:#AA5C27;}
	.st15{fill:#EE3B4D;}
	.st16{opacity:0.73;}
	.st17{opacity:0.73;fill:#78C2FF;enable-background:new    ;}
	.st18{opacity:0.73;fill:#2180CC;enable-background:new    ;}
	.st19{opacity:0.74;}
	.st20{opacity:0.74;fill:#F7F7F7;enable-background:new    ;}
	.st21{fill:#DBDBDB;}
	.st22{fill:#C3DB60;}
	.st23{fill:#98B037;}
	.st24{fill:#FFFFFF;}
</style>
<g>
	<path class="st0" d="M12.9,9.8c0,0-0.2,0.4-0.2,0.4c0,0,0.2-0.1,0.2-0.1"/>
	<path class="st1" d="M9,17.3c-0.2,0.1-0.5,0.2-0.6,0.4c-0.3,0.4-0.2,0.5,0,0.4c0.2-0.1,0.2-0.4,0.8-0.5C9.3,17.6,9,17.3,9,17.3z"/>
	<path class="st1" d="M16.1,17.3c0,0.3,0.1,0.6,0.2,0.9c0,0.1,0.1,0.2,0.2,0.3c0.1,0.1,0.2,0.1,0.3,0.1c0.2,0-0.3-0.2-0.3-0.5
		C16.5,17.8,16.7,17.3,16.1,17.3z"/>
	<path class="st2" d="M8.8,17.3c0.4-0.2,0.8-0.4,1.1-0.8c0.3-0.3,0.6-0.7,0.7-1.2c0.4-1.4,1-3.6,1-3.6l0.6,1.1c0,0,0.2-0.1-1,2.8
		c-0.2,0.5-0.6,1-1,1.3c-0.4,0.4-1,0.6-1.5,0.7L8.8,17.3z"/>
	<path class="st3" d="M15.3,26.1c0.1,0.1,0.2,0.3,0.3,0.4c-0.3,0.2-0.7,0.4-1.1,0.5c-0.1,0,0.6-0.5,0.6-0.6c0-0.1-0.1-0.1-0.1-0.2
		L15.3,26.1z"/>
	<path class="st3" d="M12,26.5c0,0.2,0.1,0.3,0.1,0.5c-0.4,0.1-0.8,0.1-1.2,0c-0.1-0.1,0.8-0.2,0.8-0.3c0-0.1,0-0.1,0-0.2L12,26.5z"
		/>
	<path class="st2" d="M13.7,11.5c0,0,2.6,1.6,2.8,6l-0.3,0.1C16,17.7,16,14.9,13.9,13C13.1,12.4,13.3,11.4,13.7,11.5z"/>
	<path class="st4" d="M11.4,17.2c0,0-1.2,2.8-1.1,4.7c0,1.1,1.1,4.7,1.1,4.7l0.7-0.1c0,0-1-3.4-0.9-4.8c0.1-1,1.5-3.8,1.5-3.8
		s-0.5,3.4,0.1,4.7c0.4,0.9,2.1,3.7,2.1,3.7l0.4-0.2c0,0-1.7-3.3-1.7-4.2c0-0.9,0.5-4.5,0.5-4.5S11.6,17.3,11.4,17.2z"/>
	<path class="st2" d="M11.4,17.2c0,0,0.7,0.5,2.8,0.1c0,0,0.4-5.7-0.6-5.9c-1-0.2-1.4-0.2-1.9,0.4c-0.4,0.4-0.6,2.1-0.3,2.2
		c0.3,0,0.5,0,0.6,0.3C12,14.6,11.4,17.2,11.4,17.2z"/>
	<path class="st1" d="M14.3,8.5c0,0,0.2,1.1,0,1.6c-0.2,0.5-0.9-0.4-0.9,1.3c0,0-0.6,0.5-0.7-0.3C12.6,10,12.9,7.6,14.3,8.5z"/>
	<path class="st3" d="M11.2,13.5c0,0,1.5-0.6,1.7-1.7c0.2-1.2,0.2-1.6,1.1-2.6c1.3-1.4-0.9-0.9-1.3-0.8c-0.3,0.1-0.2,1.3-0.5,1.6
		c-0.4,0.3-1.1,0.2-1.1,1c0,0.8,0.4,1.6-0.1,1.8C10.5,12.8,10.6,13.6,11.2,13.5z"/>
	<path class="st1" d="M14.4,8.9c0,0.3,0.1,0.6,0.2,0.9c0.1,0.2-0.4,0-0.4,0C14.2,9.5,14.2,9.2,14.4,8.9z"/>
	<path class="st1" d="M16.8,18.5c0,0,0.2,1.9,0.7,1.8c0.6-0.1,0.9-2.6,1.7-3l0.3,0.8c0,0-0.6,0.2-0.7,0.6s-0.5,2-1.4,2.1
		c-0.9,0.1-0.7-2-0.9-2.4C16.1,17.7,16.7,17.6,16.8,18.5z"/>
	<path class="st5" d="M18.2,19.1c0,0,0.4,0.5,0.4,0.4c0.4-0.5,0.7-1,0.9-1.6c0-0.2,0-0.9-0.1-0.9C19.3,17.2,18.7,17.3,18.2,19.1z"/>
	<path class="st1" d="M20.8,17.2c0,0,0.6,0.3,0.9,1.3c0.3,1,0.5,2.5,1,2.9c0.2,0.2,0.5,0.2,0.7,0.2c0,0-0.9,0.4-1.4-0.8
		c-0.4-1-0.9-2.3-1.2-2.4L20.8,17.2z"/>
	<path class="st5" d="M21.5,19.5c0,0,0.6-0.2,0.6-0.3c0-0.1-0.5-1.8-1.3-2.1c-0.1,0.3-0.1,0.6-0.1,0.9
		C20.7,18.4,21.3,19.1,21.5,19.5z"/>
	<path class="st1" d="M18.8,21.2c0,0-0.3,1.8-0.4,2.6c-0.1,0.7,0.4,1.7,0.6,2.9c0.1,0.5,0.1,0.2,0.1,0.2c0.1-0.2,0.2-0.1,0.2-0.2
		c0-0.1-0.3-2-0.2-2.5c0.2-0.8,0.6-2.5,0.6-2.5s0.5,1.9,0.6,2.6c0,0.3,1.5,1.9,1.4,2.1c-0.1,0.2-0.4,0.1-0.2,0.1
		c0.2,0,0.5-0.1,0.5-0.2c0-0.1-1.2-2-1.2-2.5c0-1.7-0.1-3.7,0-4.7c0.1-1-0.9-1.2-1.3-1.1C19.1,18.1,19.8,18.5,18.8,21.2z"/>
	<path class="st3" d="M21.8,25.9c0.1,0.1,0.2,0.3,0.2,0.4c-0.3,0.2-0.6,0.4-0.9,0.5c-0.1,0,0.5-0.5,0.5-0.5c0-0.1-0.1-0.1-0.1-0.2
		L21.8,25.9z"/>
	<path class="st3" d="M18,23c0,0,3.1,0.3,3.3-0.1c0.1-0.2,0.1-5.4-0.5-5.7c-0.5-0.3-1.4-0.1-1.5,0.1C19,17.7,18,21.9,18,23z"/>
	<path class="st5" d="M18.5,25L19,25c0,0,0.1,1.4,0.2,1.6l-0.3-0.1C18.9,26.5,18.7,25.7,18.5,25z"/>
	<path class="st5" d="M20.6,24.8c0.2-0.1,0.3-0.1,0.5-0.2c0,0,0.7,1.4,0.7,1.4l-0.3,0.1L20.6,24.8z"/>
	<path class="st5" d="M20.5,17.1c0,0,0.1,1-0.3,1.1c-0.2,0.1-0.6,0.1-0.7-0.2c0-0.3,0.1-0.7,0.2-1C19.8,17,20.3,16.6,20.5,17.1z"/>
	<path class="st3" d="M19.2,26.5c0,0,0.1,0.3,0,0.4c0,0-0.9,0.1-0.9,0c0-0.1,0.5-0.1,0.5-0.2c0-0.1,0-0.1,0-0.2L19.2,26.5z"/>
	<path class="st1" d="M19.8,16.2c0.1,0.3,0,0.6-0.1,0.9c-0.1,0.2,0.7,0.1,0.8,0c-0.1-0.4-0.1-0.7,0-1.1c-0.1,0-0.2,0-0.3,0
		C20,16,19.9,16.1,19.8,16.2z"/>
	<path class="st6" d="M20.9,14.7c0,0,0.4-0.6,0.8-0.2c0.4,0.4,0.1,1.6,0.2,1.9c0.1,0.3,0.6,0.4,0.4,0.4C22,16.9,20.5,17.2,20.9,14.7
		z"/>
	<path class="st6" d="M19.5,14.7c0,0-0.4-0.5-0.8-0.1c-0.4,0.4-0.2,1.5-0.2,1.8c-0.1,0.3-0.3,0.4-0.1,0.4
		C18.7,16.8,19.7,17,19.5,14.7z"/>
	<path class="st1" d="M19.5,14.7c0,0-0.4,1.5,0.3,1.7c0.5,0.1,0.9-0.9,0.8-1.6C20.5,14.2,19.5,14.4,19.5,14.7z"/>
	<path class="st6" d="M19.3,15c0,0,0.1-0.5,0.3-0.6c0.2-0.1,0.4-0.2,0.7-0.1c0.2,0,0.3,0.1,0.4,0.2c0.1,0.1,0.2,0.2,0.3,0.4
		c0.1,0.4-0.1,0.4,0,0.6s0.1,0,0,0.2c-0.1,0.2-0.6,0.6-0.6,0.4c0-0.1,0.1-0.7,0-0.8C20.3,15.2,19.1,15.5,19.3,15z"/>
	<path class="st1" d="M20.4,15.6C20.4,15.6,20.4,15.6,20.4,15.6c-0.1,0.1-0.1,0.1-0.1,0.2c0,0,0,0.1,0,0.1s0,0,0.1,0.1
		C20.8,16,20.8,15.2,20.4,15.6z"/>
	<path class="st2" d="M19.4,14.6c-0.1,0.2-0.1,0.4-0.1,0.5C19.3,15.3,18.9,14.8,19.4,14.6z"/>
	<path class="st2" d="M20.9,14.7c0.1,0.2,0.2,0.4,0.2,0.6C21,15.5,21.3,14.9,20.9,14.7z"/>
	<path class="st1" d="M19.5,15.4c-0.1,0.1-0.2,0.2-0.4,0.3c-0.1,0,0.2,0.1,0.2,0.1C19.5,15.9,19.7,15.6,19.5,15.4z"/>
	<path class="st7" d="M7.5,9.3c0,0,0.2-4.3-0.3-4.7C6.6,4.2,4.7,4.5,4.6,4.9c-0.1,0.5-0.3,4-0.3,4S7.3,9.4,7.5,9.3z"/>
	<path class="st1" d="M4.8,5.4c0,0-2.3-0.1-2.7-1.6C1.7,2.3,3.8,0.5,4.3,0.5c0.3,0-0.3,0.2-0.6,0.6C3.4,1.6,2.3,3.3,3.3,3.9
		c0.6,0.3,1.2,0.6,1.8,0.6L4.8,5.4z"/>
	<path class="st1" d="M7.3,5.5c0,0,2.3-0.1,2.7-1.6c0.4-1.5-1.6-3.3-2.2-3.3c-0.3,0,0.3,0.2,0.6,0.6C8.7,1.7,9.8,3.4,8.7,4
		C8.2,4.4,7.5,4.6,6.9,4.7L7.3,5.5z"/>
	<path class="st8" d="M6.8,10.1c0,0,4.3,1.5,3.4,3.3c-0.7,1.3-3.7-0.7-3.8-1c0-0.1,0.1-0.3,0.1-0.4c0,0,2.6,1.5,2.9,1
		c0.4-0.6-2.7-1.9-2.7-1.9L6.8,10.1z"/>
	<path class="st8" d="M4.1,10.1c0,0-4.7,1.7-3.3,3.6c0.7,1,2.4-0.8,2.5-1c0-0.1-0.2-0.2-0.2-0.2s-1.6,1.3-1.7,0.7
		c-0.3-1,2.9-2.1,2.9-2.1L4.1,10.1z"/>
	<path class="st5" d="M3.9,9.6c0.1-0.3,0.2-0.5,0.4-0.7C4.5,8.7,7.7,9,7.5,9.3c-0.1,0.2-0.6,1.3-0.6,1.3S4,10.3,3.9,9.6z"/>
	<path class="st3" d="M9,26.3c0,0,0.3,0.3,0.3,0.4c-0.3,0.3-0.6,0.5-1,0.7c-0.1,0,0.6-0.6,0.5-0.7c0-0.1-0.1-0.1-0.1-0.2L9,26.3z"/>
	<path class="st3" d="M2.8,26.9c0,0.2,0,0.4,0,0.6c-0.4,0-0.8,0-1.2-0.1c-0.1-0.1,0.8-0.1,0.8-0.2c0-0.1,0-0.1,0-0.2L2.8,26.9z"/>
	<path class="st6" d="M5,6.4C4.8,6.4,4.7,6.5,4.6,6.6S4.5,6.9,4.4,7C4.3,7.5,4.9,8,5,7.9C5,7.8,5,6.4,5,6.4z"/>
	<path class="st1" d="M4.9,11c0,0,0-2.8,0-3.2c0-0.4,0.9-0.2,1,0C6,8.1,6,11,6,11H4.9z"/>
	<path class="st1" d="M6.3,6c0,0,0.2,2.8,0,2.8C6,8.9,5.1,8.7,5,8.2C4.9,7.8,4.5,6.4,6.3,6z"/>
	<path class="st6" d="M5.1,7.3c0,0,0-0.6,0.5-0.7c0.4,0,1.1-0.1,1-1C6.5,5,5.8,6,5,6.4S4.7,7.9,5.1,7.3z"/>
	<path class="st8" d="M6,9.7c0,0-0.7,1.1-0.9,0.9C5,10.3,4.9,10,4.9,9.7c0-0.2-1.1,0.5-1.3,2s0.1,5.5,0.1,5.5h3.9
		c0,0,0.1-5.4-0.2-6.2C7,10.2,6,9.7,6,9.7z"/>
	<path class="st3" d="M3.7,17.2c0,0-1.8,3.9-1.8,5.3S2.2,27,2.2,27h0.6c0,0,0.1-4,0.2-4.9c0.1-1.3,2.4-4,2.4-4s0.1,4.1,0.9,5.4
		c0.8,1.3,2.3,3.1,2.3,3.1l0.5-0.3c0,0-1.9-3.3-1.9-4.1c0-0.9,0.3-5,0.3-5H3.7z"/>
	<path class="st1" d="M6.4,9.6c0,0-0.7,0.5-1,1.9c-0.3,1.4,0.4,2.2,0.4,2.2l0.2-0.2c-0.2-0.6-0.3-1.2-0.2-1.8
		c0.1-0.6,0.5-1.1,0.9-1.5C6.9,10.1,7,9.7,6.4,9.6z"/>
	<path class="st5" d="M5.5,10.9c0.3,0.1,0.7,0.2,1.1,0.3c0.1,0,0.4-0.8,0.8-1.6c0,0-1-0.4-1.1-0.4C6,9.4,5.7,10,5.5,10.9z"/>
	<path class="st1" d="M4.4,9.3c-0.6,0.5-1,1.2-1.1,2c-0.1,0.4,0,0.9,0.1,1.3c0.1,0.4,0.4,0.8,0.7,1.2l0.2-0.2
		c-0.4-0.5-0.5-1.2-0.5-1.8c0-0.7,0.3-1.3,0.7-1.8C4.5,10,5,9.4,4.4,9.3z"/>
	<path class="st5" d="M3.6,10.4c0.3,0.2,0.6,0.3,0.9,0.4c0.1,0,0.1-0.4,0.4-1.1c0,0-0.4-0.7-0.6-0.6C4.1,9.2,3.8,9.5,3.6,10.4z"/>
	<path class="st7" d="M6.3,4.4c0.7,0,1.3,0,2-0.2c0.1,0,0.3,1.2,0.3,1.2C8.1,5.6,7.6,5.7,7.2,5.8C6.9,5.8,6.3,4.4,6.3,4.4z"/>
	<path class="st7" d="M3.9,4.2c0,0-0.4,0.9-0.2,1.2c0.5,0.2,1,0.3,1.5,0.4l0.5-1.4C5.7,4.5,4.6,4.3,3.9,4.2z"/>
	<path class="st1" d="M5.6,3.7c0,0,0,0.6,0,0.7c0,0.1,0.5,0.2,0.7,0C6.3,4,6.3,3.7,6.3,3.3C6.3,3.3,5.7,3.6,5.6,3.7z"/>
	<path class="st1" d="M6.3,6.6c0,0.3,0.2,0.6,0.4,0.8c0.3,0.2-0.3,0.1-0.3,0.2C6.3,7.7,5.9,6.9,6.3,6.6z"/>
	<path class="st3" d="M6.1,13.4c0,0,0.3,0.2,0.3,0.2c0,0.1-0.6,0.6-0.7,0.6c-0.1,0,0.3-0.4,0.3-0.5c0-0.1-0.1-0.1-0.1-0.2L6.1,13.4z
		"/>
	<path class="st3" d="M4.3,13.6c0,0,0.3,0.2,0.3,0.2c0,0.1-0.6,0.6-0.7,0.6c-0.1,0,0.3-0.4,0.3-0.5c0-0.1-0.1-0.1-0.1-0.2L4.3,13.6z
		"/>
	<path class="st5" d="M3.8,12.2c-0.2,0-0.3,0.1-0.5,0.1c0.1,0.5,0.4,1,0.8,1.4l0.2-0.2C4.1,13.2,3.9,12.7,3.8,12.2z"/>
	<path class="st5" d="M5.9,12.1c0,0-0.4-0.1-0.5,0c0,0.5,0.2,1.1,0.5,1.5l0.2-0.2C5.9,13,5.9,12.6,5.9,12.1z"/>
	<path class="st9" d="M6.2,12c0,0-0.6-0.2-0.8,0.2c-0.1,0.1,0.7,0.3,0.8,0.1C6.3,12.2,6.3,12,6.2,12z"/>
	<path class="st9" d="M3.1,12.5c0,0,0.5-0.6,0.9-0.3c0.1,0.1-0.6,0.5-0.8,0.5S3.1,12.5,3.1,12.5z"/>
	<path class="st1" d="M5.3,2.2c0,0-0.3,1.5,0.5,1.7c0.5,0.1,0.9-1,0.7-1.6C6.3,1.5,5.3,1.8,5.3,2.2z"/>
	<path class="st1" d="M6.4,2.8c0,0-0.2,0.3,0,0.5C6.7,3.6,7.2,2.6,6.4,2.8z"/>
	<path class="st3" d="M5.2,1.6c0,0,0,0.1,0,0.1c0,0,0,0.1,0,0.1c0,0,0,0.1,0.1,0.1c0,0,0.1,0.1,0.1,0.1c0.4,0.2,0.7,0,0.9,0.2
		c0.2,0.2,0.1,0.8,0.2,0.8c0.2-0.1,0.3-0.3,0.3-0.5s0.1-0.4,0-0.6C6.6,1.5,5.7,1.8,5.7,1.4C5.7,1.1,5.3,1.4,5.2,1.6z"/>
	<path class="st1" d="M5.3,2.9c0,0-0.2,0-0.3,0c0,0,0.2-0.3,0.2-0.5C5.3,2.3,5.7,2.8,5.3,2.9z"/>
	<path class="st6" d="M5.1,7.1c0,0-0.1,0.5,0.1,0.6s1.2-0.3,1.2-0.1c0.1,0.2,0.3,1-0.1,1.2C5.8,9,4.9,8.6,4.9,7.7
		C5,6.8,5.1,7,5.1,7.1z"/>
	<path class="st1" d="M5,7.8c0,0,0.1-0.7-0.2-0.6S4.8,8.2,5,7.8z"/>
	<path class="st10" d="M24,1.2c0,0,1-0.9,2,0.6c0.6,0.9,0.6,3.5,0.8,4c0.2,0.4,1.8,3.1-0.7,3.9c-2.9,0.9-4.5-0.9-4-2.4
		s0.9-1.5,1-2.4C23.2,3,23.4,1.5,24,1.2z"/>
	<path class="st11" d="M24.7,10.9c0,0-0.1-8,0.1-7.9c0.2,0.1,0.2,7.9,0.2,7.9H24.7z"/>
	<path class="st11" d="M24.7,5.8c0,0-1.4-1.6-1.3-1.6c0.1,0,1.3,1.4,1.3,1.4L26,4.1C26.3,4.2,24.7,5.8,24.7,5.8z"/>
	<path class="st11" d="M24.7,7.4c0,0-1.4-1.6-1.3-1.6c0.1,0,1.3,1.4,1.3,1.4L26,5.7C26.3,5.8,24.7,7.4,24.7,7.4z"/>
	<path class="st11" d="M24.7,9.1c0,0-1.4-1.6-1.3-1.6c0.1,0,1.3,1.4,1.3,1.4L26,7.4C26.3,7.5,24.7,9.1,24.7,9.1z"/>
	<path class="st12" d="M19,4.3c0,0,0.8-0.8,1.7,0.5c0.5,0.8,0.5,3,0.7,3.3c0.2,0.4,1.5,2.6-0.6,3.3c-2.5,0.8-3.8-0.7-3.4-2
		c0.4-1.3,0.8-1.3,0.8-2C18.3,5.9,18.4,4.6,19,4.3z"/>
	<path class="st11" d="M19.5,12.5c0,0-0.1-6.7,0-6.6c0.2,0.1,0.1,6.6,0.1,6.6H19.5z"/>
	<path class="st11" d="M19.6,8.2c0,0-1.2-1.4-1.1-1.4c0.1,0,1.1,1.2,1.1,1.2l1.1-1.3C20.9,6.8,19.6,8.2,19.6,8.2z"/>
	<path class="st11" d="M19.6,9.5c0,0-1.2-1.4-1.1-1.4c0.1,0,1.1,1.2,1.1,1.2l1.1-1.3C20.9,8.2,19.6,9.5,19.6,9.5z"/>
	<path class="st11" d="M19.6,11c0,0-1.2-1.4-1.1-1.4c0.1,0,1.1,1.2,1.1,1.2l1.1-1.3C20.9,9.6,19.6,11,19.6,11z"/>
</g>
</svg>
