<?xml version="1.0" encoding="utf-8"?>
<!-- Generator: Adobe Illustrator 23.1.1, SVG Export Plug-In . SVG Version: 6.00 Build 0)  -->
<svg version="1.1" id="圖層_1" xmlns="http://www.w3.org/2000/svg" xmlns:xlink="http://www.w3.org/1999/xlink" x="0px" y="0px"
	 viewBox="0 0 28 28" style="enable-background:new 0 0 28 28;" xml:space="preserve">
<style type="text/css">
	.st0{fill:none;stroke:#FFFFFF;stroke-width:0.18;stroke-linecap:round;stroke-linejoin:round;}
	.st1{fill:#E9946F;}
	.st2{fill:#EF9A9B;}
	.st3{fill:#42394A;}
	.st4{fill:#439B95;}
	.st5{fill:#FFE0BC;}
	.st6{fill:#963820;}
	.st7{fill:#C12B28;}
	.st8{fill:#F7B119;}
	.st9{fill:#E67E69;}
	.st10{fill:#6AAF9F;}
	.st11{fill:#4F4558;}
	.st12{fill:#98D5CC;}
	.st13{fill:#C16326;}
	.st14{fill:#AA5C27;}
	.st15{fill:#EE3B4D;}
	.st16{opacity:0.73;}
	.st17{opacity:0.73;fill:#78C2FF;enable-background:new    ;}
	.st18{opacity:0.73;fill:#2180CC;enable-background:new    ;}
	.st19{opacity:0.74;}
	.st20{opacity:0.74;fill:#F7F7F7;enable-background:new    ;}
	.st21{fill:#DBDBDB;}
	.st22{fill:#C3DB60;}
	.st23{fill:#98B037;}
	.st24{fill:#FFFFFF;}
</style>
<g>
	<g class="st16">
		<path class="st17" d="M11.4,21.3l0,3.7L0.9,25l0-4.9l9.3,0.1l0,0L11.4,21.3L11.4,21.3z"/>
		<path class="st18" d="M11.4,21.3l-1.2,0l0-1.2l0,0l0,0L11.4,21.3L11.4,21.3z"/>
		<path class="st18" d="M7.2,22.5c0,0.2-0.1,0.4-0.2,0.6s-0.3,0.3-0.5,0.4c-0.2,0.1-0.4,0.1-0.7,0.1c-0.2,0-0.4-0.2-0.6-0.3
			C5.1,23.2,5,23,5,22.8c0-0.2,0-0.4,0.1-0.7c0.1-0.2,0.2-0.4,0.4-0.5c0.2-0.1,0.4-0.2,0.6-0.2c0.3,0,0.6,0.1,0.8,0.3
			C7.1,22,7.2,22.3,7.2,22.5z"/>
		<path class="st18" d="M9.5,22.6c0,0.1,0,0.2-0.1,0.3C9.4,22.9,9.3,23,9.2,23c-0.1,0-0.2,0-0.3,0c-0.1,0-0.2-0.1-0.2-0.1
			c-0.1-0.1-0.1-0.2-0.1-0.2c0-0.1,0-0.2,0-0.3c0-0.1,0.1-0.2,0.2-0.2C8.9,22.1,9,22.1,9,22.1c0.1,0,0.2,0.1,0.3,0.1
			C9.5,22.3,9.5,22.4,9.5,22.6z"/>
		<path class="st18" d="M2.6,22.5c0-0.1,0-0.2,0.1-0.3s0.1-0.1,0.2-0.2c0.1,0,0.2,0,0.3,0c0.1,0,0.2,0.1,0.2,0.1
			c0.1,0.1,0.1,0.2,0.1,0.2c0,0.1,0,0.2,0,0.3c0,0.1-0.1,0.2-0.2,0.2C3.3,23,3.2,23,3.1,23C3,23,3,23,2.9,23c-0.1,0-0.1-0.1-0.2-0.1
			c0,0-0.1-0.1-0.1-0.2C2.6,22.6,2.6,22.6,2.6,22.5z"/>
	</g>
	<g class="st16">
		<path class="st17" d="M25.1,15.7l2,3.1l-8.8,5.7l-2.6-4.1l7.8-5l0.1,0L25.1,15.7L25.1,15.7z"/>
		<path class="st18" d="M25.1,15.7l-1,0.6l-0.6-1l0,0l0.1,0l1.4,0.3L25.1,15.7z"/>
		<path class="st18" d="M22.3,19c0.1,0.2,0.2,0.4,0.2,0.6c0,0.2-0.1,0.4-0.2,0.6c-0.1,0.2-0.3,0.3-0.5,0.4c-0.2,0.1-0.4,0.1-0.7,0.1
			c-0.2,0-0.4-0.2-0.6-0.3c-0.2-0.2-0.3-0.4-0.3-0.6c0-0.2,0-0.4,0.1-0.7c0.1-0.2,0.2-0.4,0.4-0.5c0.3-0.2,0.6-0.2,0.8-0.2
			C21.8,18.6,22.1,18.8,22.3,19z"/>
		<path class="st18" d="M24.2,17.7c0.1,0.1,0.1,0.2,0.1,0.4c0,0.1-0.1,0.2-0.2,0.3c-0.1,0.1-0.2,0.1-0.4,0.1c-0.1,0-0.2-0.1-0.3-0.2
			c0-0.1-0.1-0.1-0.1-0.2c0-0.1,0-0.1,0-0.2c0-0.1,0-0.1,0.1-0.2c0-0.1,0.1-0.1,0.1-0.1c0.1,0,0.1-0.1,0.2-0.1s0.1,0,0.2,0
			c0.1,0,0.1,0,0.2,0.1C24.1,17.6,24.2,17.7,24.2,17.7z"/>
		<path class="st18" d="M18.4,21.5c-0.1-0.1-0.1-0.2-0.1-0.3c0-0.1,0-0.2,0.1-0.3s0.1-0.1,0.2-0.2c0.1,0,0.2,0,0.3,0
			c0.1,0,0.2,0.1,0.2,0.1c0.1,0.1,0.1,0.2,0.1,0.2c0,0.1,0,0.2,0,0.3c0,0.1-0.1,0.2-0.2,0.2c-0.1,0.1-0.2,0.1-0.4,0.1
			C18.6,21.7,18.5,21.6,18.4,21.5z"/>
	</g>
	<g class="st16">
		<path class="st17" d="M13.3,14.1l-2,3.1l-8.9-5.6l2.6-4.1l7.9,5l0,0.1L13.3,14.1L13.3,14.1z"/>
		<path class="st18" d="M13.3,14.1l-1-0.6l0.6-1l0,0l0,0.1l0.3,1.4L13.3,14.1z"/>
		<path class="st18" d="M9.1,12.9c-0.1,0.2-0.3,0.3-0.5,0.4c-0.2,0.1-0.4,0.1-0.7,0.1c-0.2,0-0.4-0.1-0.6-0.3
			C7.2,13,7.1,12.8,7,12.5c0-0.2,0-0.4,0-0.7c0.1-0.2,0.2-0.4,0.4-0.5c0.2-0.1,0.4-0.2,0.6-0.2c0.2,0,0.4,0.1,0.6,0.2
			C9,11.5,9.1,11.8,9.2,12C9.3,12.3,9.2,12.6,9.1,12.9z"/>
		<path class="st18" d="M11,14.1c0,0.1-0.1,0.1-0.1,0.1c-0.1,0-0.1,0.1-0.2,0.1c-0.1,0-0.1,0-0.2,0c-0.1,0-0.1,0-0.2-0.1
			c-0.1,0-0.1-0.1-0.1-0.1c0-0.1-0.1-0.1-0.1-0.2c0-0.1,0-0.1,0-0.2c0-0.1,0-0.1,0.1-0.2c0.1-0.1,0.2-0.2,0.3-0.2
			c0.1,0,0.2,0,0.4,0.1c0.1,0,0.1,0.1,0.1,0.1c0,0.1,0.1,0.1,0.1,0.2c0,0.1,0,0.1,0,0.2C11.1,14,11.1,14.1,11,14.1z"/>
		<path class="st18" d="M5.2,10.4c0.1-0.1,0.1-0.1,0.2-0.2c0.1,0,0.2,0,0.3,0c0.1,0,0.2,0.1,0.2,0.1c0.1,0.1,0.1,0.1,0.1,0.2
			c0,0.1,0,0.2,0,0.3C6,11,6,11,5.9,11.1c-0.1,0.1-0.2,0.1-0.3,0.1c-0.1,0-0.2,0-0.3-0.1c-0.1-0.1-0.2-0.2-0.2-0.3
			C5.1,10.7,5.1,10.6,5.2,10.4z"/>
	</g>
	<g class="st16">
		<path class="st17" d="M22,3.2l2.3,2.9l-8.3,6.4l-3-3.9L20.3,3l0.1,0L22,3.2L22,3.2z"/>
		<path class="st18" d="M22,3.2l-0.9,0.7L20.3,3l0,0l0.1,0l1.4,0.2L22,3.2z"/>
		<path class="st18" d="M19.4,6.8c0.1,0.2,0.2,0.4,0.2,0.6c0,0.2,0,0.4-0.1,0.6c-0.1,0.2-0.3,0.4-0.5,0.5s-0.4,0.1-0.6,0.1
			c-0.2,0-0.4-0.1-0.6-0.3c-0.2-0.1-0.3-0.3-0.3-0.6c-0.1-0.2-0.1-0.4,0-0.7c0.1-0.2,0.2-0.4,0.4-0.5c0.2-0.2,0.5-0.3,0.8-0.2
			C19,6.4,19.3,6.5,19.4,6.8z"/>
		<path class="st18" d="M21.3,5.4c0.1,0.1,0.1,0.2,0.1,0.3c0,0.1,0,0.2-0.1,0.3c0,0.1-0.1,0.1-0.2,0.2c-0.1,0-0.2,0.1-0.3,0
			c-0.1,0-0.2-0.1-0.3-0.1c-0.1-0.1-0.1-0.1-0.1-0.2s0-0.2,0-0.3c0-0.1,0.1-0.2,0.2-0.2c0,0,0.1-0.1,0.2-0.1c0.1,0,0.1,0,0.2,0
			c0.1,0,0.1,0,0.2,0.1C21.2,5.3,21.2,5.3,21.3,5.4z"/>
		<path class="st18" d="M15.8,9.5c0,0-0.1-0.1-0.1-0.2c0-0.1,0-0.1,0-0.2c0-0.1,0-0.1,0.1-0.2c0-0.1,0.1-0.1,0.1-0.1
			c0.1-0.1,0.2-0.1,0.3-0.1c0.1,0,0.2,0,0.3,0.1c0.1,0,0.1,0.1,0.2,0.2c0,0.1,0.1,0.2,0,0.3c0,0.1-0.1,0.2-0.1,0.3
			c-0.1,0.1-0.1,0.1-0.2,0.1c-0.1,0-0.2,0-0.3,0C15.9,9.7,15.9,9.6,15.8,9.5z"/>
	</g>
</g>
</svg>
