<svg width="29" height="27" viewBox="0 0 29 27" fill="none" xmlns="http://www.w3.org/2000/svg">
<g opacity="0.74">
<path opacity="0.74" d="M26.4457 0.34668H1.74357C0.780623 0.34668 0 1.12817 0 2.09219V24.6301C0 25.5941 0.780623 26.3756 1.74357 26.3756H26.4457C27.4086 26.3756 28.1892 25.5941 28.1892 24.6301V2.09219C28.1892 1.12817 27.4086 0.34668 26.4457 0.34668Z" fill="#F7F7F7"/>
</g>
<path d="M14.2677 19.7583H3.34253V20.8466H14.2677V19.7583Z" fill="#DBDBDB"/>
<path d="M20.3838 22.0676H3.34253V23.1559H20.3838V22.0676Z" fill="#DBDBDB"/>
<path d="M9.6604 3.74423C10.3993 3.43878 11.182 3.25257 11.9791 3.19254L12.3465 3.15637C12.5272 3.15637 12.7019 3.13225 12.8645 3.12622C12.9009 3.42675 13.0461 3.70351 13.2724 3.90425C13.4988 4.10499 13.7907 4.21583 14.0931 4.21583C14.3955 4.21583 14.6874 4.10499 14.9138 3.90425C15.1402 3.70351 15.2853 3.42675 15.3217 3.12622C15.4844 3.12622 15.659 3.14431 15.8397 3.15637L16.2101 3.19254C17.4327 3.31916 18.827 3.6357 19.369 4.37732C20.423 5.82136 20.6338 9.52641 20.4832 16.6351H20.2573V16.9968H18.7908V16.626H18.4897V14.8172H17.9356V15.5709H10.2566V14.8172H9.69051V16.626H9.42852V16.9878H7.96199V16.626H7.70603C7.55546 9.51737 7.76626 5.81231 8.81722 4.36827C9.02539 4.10785 9.29283 3.9011 9.59716 3.76534L9.6604 3.74423Z" fill="#C3DB60"/>
<path d="M15.8428 3.15637C15.8428 3.6201 15.6588 4.06484 15.3312 4.39275C15.0037 4.72066 14.5594 4.90488 14.0962 4.90488C13.633 4.90488 13.1887 4.72066 12.8612 4.39275C12.5336 4.06484 12.3496 3.6201 12.3496 3.15637C12.5303 3.15637 12.7049 3.13225 12.8676 3.12622C12.904 3.42674 13.0491 3.7035 13.2755 3.90424C13.5019 4.10499 13.7938 4.21582 14.0962 4.21582C14.3986 4.21582 14.6905 4.10499 14.9169 3.90424C15.1432 3.7035 15.2884 3.42674 15.3248 3.12622C15.4874 3.13225 15.6591 3.14431 15.8428 3.15637Z" fill="#98B037"/>
<path d="M26.5842 21.4496C26.5848 21.8963 26.453 22.3332 26.2056 22.7049C25.9581 23.0766 25.606 23.3665 25.194 23.5379C24.7819 23.7093 24.3283 23.7544 23.8906 23.6676C23.4528 23.5808 23.0507 23.366 22.7349 23.0503C22.4192 22.7347 22.2041 22.3323 22.1168 21.8942C22.0295 21.4561 22.074 21.002 22.2446 20.5892C22.4153 20.1764 22.7044 19.8236 23.0753 19.5753C23.4463 19.3271 23.8825 19.1946 24.3287 19.1946C24.9264 19.1946 25.4996 19.4321 25.9225 19.8549C26.3454 20.2777 26.5834 20.8512 26.5842 21.4496Z" fill="#DBDBDB"/>
<path d="M24.1088 22.5078L23.1121 21.5069L23.5517 21.0667L24.1088 21.6244L25.1086 20.6266L25.5482 21.0667L24.1088 22.5078Z" fill="white"/>
</svg>
