<svg width="27" height="27" viewBox="0 0 27 27" fill="none" xmlns="http://www.w3.org/2000/svg">
<path d="M1.91991 16.0424C1.91991 16.0424 0.84477 24.0895 1.00506 24.0895H1.37648L2.34997 16.0424H1.91991Z" fill="#42394A"/>
<path d="M25.7841 15.9445L26.6989 24.1873H26.3079L25.354 15.9445H25.7841Z" fill="#42394A"/>
<path d="M2.7408 17.8231C2.7408 17.8231 1.84549 26.015 2.00579 26.015H2.39675L3.17867 17.8231H2.7408Z" fill="#42394A"/>
<path d="M25.0687 17.8231C25.0687 17.8231 25.9758 26.015 25.8076 26.015H25.4167L24.6348 17.8231H25.0687Z" fill="#42394A"/>
<path d="M1.98633 15.9757C1.98633 15.9757 25.1625 15.8622 25.6708 15.9405L25.2251 18.1245H2.5024L1.98633 15.9757Z" fill="#C16326"/>
<path d="M8.69128 25.1736C8.62107 25.3798 8.57642 25.5938 8.55835 25.8109C9.05455 25.9676 9.57548 26.0313 10.0948 25.9985C10.2004 25.8969 9.09006 25.6623 9.09006 25.5333C9.09759 25.4377 9.11595 25.3432 9.14479 25.2518L8.69128 25.1736Z" fill="#42394A"/>
<path d="M4.63307 24.0033C4.42892 24.075 4.2335 24.1695 4.05054 24.2851C4.22644 24.7746 4.49157 25.2271 4.83246 25.6197C4.97321 25.6393 4.4806 24.6178 4.57834 24.5395C4.65896 24.4864 4.74557 24.4431 4.83637 24.4103L4.63307 24.0033Z" fill="#42394A"/>
<path d="M3.60089 14.4689C3.60089 14.4689 2.37327 16.5237 4.55092 17.4004C6.72858 18.2772 8.46054 17.8545 7.88974 20.1833C7.28374 22.6804 4.461 24.0033 4.461 24.0033L4.8246 24.6334C4.8246 24.6334 9.36757 22.2068 9.12517 19.4553C8.88278 16.7037 6.19296 16.2184 6.19296 16.2184C6.19296 16.2184 8.99616 16.8446 9.81718 17.9601C10.6382 19.0756 9.30502 23.882 8.46445 25.2362L9.21509 25.338C9.21509 25.338 12.2177 19.6627 10.951 17.3691C9.68425 15.0755 6.65039 14.7585 6.65039 14.7585L3.60089 14.4689Z" fill="#439B95"/>
<path d="M1.38037 6.41392L2.25613 7.84641L2.10756 6.11255L1.38037 6.41392Z" fill="#AA5C27"/>
<path d="M1.37646 7.58807C1.43778 7.27491 1.6134 6.99584 1.86908 6.80527C2.05674 6.69568 2.65101 6.76613 2.52981 6.90312C2.40861 7.04011 1.8378 7.11839 1.65405 7.85422L1.37646 7.58807Z" fill="#E9946F"/>
<path d="M1.85734 7.52944C1.85734 7.52944 0.0706424 12.3632 1.20834 12.6724C2.88556 13.1264 2.00981 8.69971 4.54715 7.54901V9.60775C4.54715 9.60775 4.19919 10.2888 3.81996 11.005C3.27262 12.0344 3.21006 13.6195 1.17706 13.5452C-1.55967 13.4512 1.33345 7.39246 1.33345 7.39246L1.85734 7.52944Z" fill="#EF9A9B"/>
<path d="M1.41934 6.44428C1.41934 6.44428 0.762526 5.95558 1.45844 5.61544C2.15435 5.27531 2.27555 6.15106 2.0136 6.29962C1.84008 6.41936 1.62848 6.47087 1.41934 6.44428Z" fill="#439B95"/>
<path d="M7.72954 5.29843C7.72954 5.29843 7.78427 5.11056 8.21824 4.84441C8.65221 4.57826 9.00016 3.64674 8.94152 4.1125C8.85924 4.5811 8.60208 5.00085 8.22215 5.28669C7.78427 5.67808 10.177 10.9071 8.94934 11.502C7.27993 12.324 6.25952 8.684 6.25952 8.684L7.12746 8.53527C7.32456 8.62643 7.48165 8.78648 7.56924 8.98537C7.75299 9.59204 8.10486 10.5001 8.52319 10.2887C9.15655 9.97952 7.5106 6.17907 7.72954 5.29843Z" fill="#E9946F"/>
<path d="M6.93576 14.8016C6.93576 14.8016 5.82934 15.2713 3.28809 15.373C3.28809 15.373 4.17557 6.54316 5.55958 6.28093C6.666 6.07349 8.4527 9.80349 7.53393 9.80349C6.84584 9.82697 6.97486 10.7115 6.91621 11.1264C6.85757 11.5413 6.93576 14.8016 6.93576 14.8016Z" fill="#EF9A9B"/>
<path d="M6.81874 2.12814C6.81874 2.12814 7.39345 3.44715 7.22925 4.17514C7.06504 4.90314 5.88825 4.45304 6.40822 6.68399C6.40822 6.68399 5.41127 7.60768 5.37608 5.97165C5.34872 4.5548 4.84047 1.38841 6.81874 2.12814Z" fill="#E9946F"/>
<path d="M6.9986 2.60962C7.10168 3.00414 7.2752 3.37673 7.51076 3.70942C7.66715 3.88555 7.04943 3.80335 7.04943 3.80335C6.91544 3.41913 6.89776 3.00386 6.9986 2.60962Z" fill="#E9946F"/>
<path d="M3.62435 9.02061C3.62435 9.02061 5.46968 8.04603 5.60652 6.51176C5.74336 4.9775 5.57915 4.36301 6.61911 2.92658C8.03439 0.969609 5.26638 1.88547 4.82851 2.08117C4.39063 2.27687 4.78941 3.75634 4.3789 4.18688C3.96839 4.61741 2.96753 4.65264 3.06527 5.64678C3.16301 6.64092 3.79637 7.60376 3.26075 7.97558C2.72513 8.34741 2.8737 9.34938 3.62435 9.02061Z" fill="#42394A"/>
<path d="M7.73332 5.82688L8.18293 5.71338C8.18293 5.71338 8.51133 6.54705 9.13687 8.74278C9.56693 10.2536 9.73113 11.6861 8.4957 11.7722C7.26026 11.8583 6.68945 9.5921 6.68945 9.5921L7.61603 9.09895C7.61603 9.09895 8.00699 10.4375 8.5387 10.3005C8.8241 10.2144 7.73332 5.82688 7.73332 5.82688Z" fill="#EF9A9B"/>
<path d="M15.8577 4.91888L16.1743 6.56665L16.6435 4.89148L15.8577 4.91888Z" fill="#AA5C27"/>
<path d="M16.3542 25.5298C16.4254 25.7397 16.47 25.9578 16.4872 26.1788C15.9896 26.3353 15.4674 26.399 14.9468 26.3664C14.8451 26.2648 15.9554 26.0302 15.9554 25.9012C15.9453 25.8057 15.9256 25.7114 15.8968 25.6197L16.3542 25.5298Z" fill="#42394A"/>
<path d="M20.3341 24.3595C20.5324 24.4467 20.7189 24.5585 20.8893 24.6922C20.6695 25.1659 20.3601 25.5925 19.9784 25.9485C19.8376 25.9485 20.4201 24.9818 20.3263 24.8957C20.2497 24.8364 20.1672 24.7853 20.08 24.7431L20.3341 24.3595Z" fill="#42394A"/>
<path d="M22.156 13.5374C22.156 13.5374 23.5752 16.3163 21.3976 17.193C19.2199 18.0697 16.753 18.2772 17.3199 20.6021C17.9219 23.1031 20.6352 24.3595 20.6352 24.3595L20.17 25.0053C20.17 25.0053 15.627 22.5786 15.8694 19.8271C16.1118 17.0756 18.7703 16.5746 18.7703 16.5746C18.7703 16.5746 15.7638 17.4748 14.9272 18.5707C14.0905 19.6666 15.6895 24.2225 16.5301 25.5728L15.7795 25.6746C15.7795 25.6746 12.2608 20.6334 13.4337 18.2967C14.7278 15.7566 18.3207 15.1147 18.3207 15.1147L22.156 13.5374Z" fill="#42394A"/>
<path d="M22.8128 15.9444C22.8128 15.9444 22.0661 5.93247 19.4349 5.8268C17.8046 5.75243 17.7694 6.86791 17.4019 7.07143C17.0344 7.27496 17.9649 14.8015 17.7928 15.1733C17.6208 15.5452 22.5352 16.5041 22.8128 15.9444Z" fill="#F7B119"/>
<path d="M18.8719 1.65063C19.0445 1.7204 19.197 1.83206 19.3158 1.97554C19.4346 2.11902 19.5158 2.28983 19.5522 2.47256C19.7047 3.13011 18.9814 3.70155 18.868 3.58804C18.7546 3.47454 18.8719 1.65063 18.8719 1.65063Z" fill="#963820"/>
<path d="M19.7242 6.0226C19.7242 6.0226 19.7242 3.95209 19.689 3.52547C19.6538 3.09884 18.5513 3.2554 18.4105 3.52547C18.2698 3.79553 18.262 7.0011 18.262 7.0011L19.7242 6.0226Z" fill="#E9946F"/>
<path d="M17.9493 1.07837C17.9493 1.07837 17.6404 4.71442 17.9493 4.78878C18.2581 4.86315 19.4154 4.55786 19.5718 4.00599C19.7282 3.45413 20.2169 1.55196 17.9493 1.07837Z" fill="#E9946F"/>
<path d="M19.4544 2.80137C19.4544 2.80137 19.4544 1.95594 18.7624 1.94029C18.215 1.94029 17.3158 1.83461 17.5191 0.679982C17.6833 -0.275033 18.5395 1.07138 19.6499 1.61151C20.8345 2.17904 19.9431 3.58025 19.4544 2.80137Z" fill="#963820"/>
<path d="M17.8829 1.9873C17.8224 2.37202 17.6589 2.73314 17.4099 3.03233C17.0776 3.29457 17.7696 3.18498 17.8008 3.29848C17.8321 3.41199 18.3052 2.30434 17.8829 1.9873Z" fill="#E9946F"/>
<path d="M19.4349 2.5861C19.4349 2.5861 19.517 3.24365 19.3567 3.41977C19.1964 3.5959 17.9063 3.05578 17.8203 3.29844C17.7343 3.5411 17.4293 4.53916 17.9493 4.78965C18.4693 5.04014 19.6773 4.47262 19.65 3.29844C19.6226 2.12426 19.517 2.34735 19.4349 2.5861Z" fill="#963820"/>
<path d="M19.5796 3.43067C19.5796 3.43067 19.4506 2.57056 19.7946 2.69566C20.1387 2.82077 19.8611 3.96629 19.5796 3.43067Z" fill="#EE3B4D"/>
<path d="M15.4392 6.01474C15.606 5.73563 15.8709 5.52902 16.182 5.43547C16.3971 5.39633 16.9327 5.67814 16.7646 5.76033C16.5965 5.84252 16.0413 5.71728 15.6112 6.3396L15.4392 6.01474Z" fill="#E9946F"/>
<path d="M23.3838 16.0853C23.0901 16.2135 22.8546 16.4465 22.723 16.739C22.6566 16.9464 22.8599 17.5218 22.9654 17.3652C23.071 17.2087 23.0202 16.645 23.6965 16.3006L23.3838 16.0853Z" fill="#E9946F"/>
<path d="M15.8577 6.21834C15.8577 6.21834 14.4698 10.9347 15.4393 11.2752C16.9015 11.7762 15.9906 7.36121 18.2034 6.097V8.3671C18.1528 8.93991 18.0212 9.50262 17.8125 10.0384C17.3355 11.1734 16.9836 13.1695 15.2634 12.7155C12.6635 12.054 15.4002 5.93262 15.4002 5.93262L15.8577 6.21834Z" fill="#F7B119"/>
<path d="M19.8767 5.93262C19.8767 5.93262 23.4853 7.23596 24.2203 11.236C24.8458 14.6373 23.6964 16.3946 23.6964 16.3946L23.2038 16.1128C23.2038 16.1128 23.7981 14.8056 23.5009 12.5041C23.11 9.47475 20.2403 8.0031 20.2403 8.0031L19.8767 5.93262Z" fill="#F7B119"/>
<path d="M15.9204 5.01968C15.9204 5.01968 15.4121 4.3785 16.1706 4.23776C16.929 4.09701 16.8157 4.96104 16.5263 5.04314C16.3286 5.11215 16.1121 5.10377 15.9204 5.01968Z" fill="#EF9A9B"/>
</svg>
