<svg width="28" height="28" viewBox="0 0 28 28" fill="none" xmlns="http://www.w3.org/2000/svg">
<path d="M12.393 9.66882C12.393 9.66882 12.1514 10.0232 12.1833 10.048C12.2153 10.0728 12.3681 9.94166 12.3681 9.94166" stroke="white" stroke-width="0.18" stroke-linecap="round" stroke-linejoin="round"/>
<path d="M8.45248 17.1997C8.20441 17.26 7.98628 17.4071 7.83779 17.6143C7.52512 17.9934 7.65658 18.0714 7.83779 17.9686C8.019 17.8658 8.019 17.5647 8.65501 17.4903C8.79358 17.4832 8.45248 17.1997 8.45248 17.1997Z" fill="#E9946F"/>
<path d="M15.6333 17.1889C15.6822 17.4788 15.7486 17.7655 15.8323 18.0474C15.8587 18.148 15.9175 18.2373 15.9997 18.3013C16.0819 18.3654 16.1828 18.4008 16.2871 18.4021C16.4896 18.4021 15.9637 18.168 15.9602 17.8913C15.9566 17.6146 16.2196 17.1428 15.6333 17.1889Z" fill="#E9946F"/>
<path d="M8.33521 17.1855C8.77003 17.0115 9.16212 16.7458 9.48467 16.4067C9.80722 16.0675 10.0526 15.6628 10.2041 15.2203C10.6305 13.8014 11.2452 11.6482 11.2452 11.6482L11.8848 12.7124C11.8848 12.7124 12.1157 12.5776 10.9041 15.5502C10.6896 16.0754 10.3461 16.5382 9.90517 16.8959C9.46427 17.2537 8.94023 17.4947 8.3814 17.597L8.33521 17.1855Z" fill="#EF9A9B"/>
<path d="M14.8339 25.9614C14.9368 26.092 15.0227 26.235 15.0897 26.3871C14.771 26.6272 14.4092 26.8042 14.0238 26.9085C13.9243 26.8624 14.6704 26.4119 14.6385 26.3232C14.61 26.255 14.573 26.1906 14.5283 26.1317L14.8339 25.9614Z" fill="#42394A"/>
<path d="M11.4691 26.3409C11.5076 26.5023 11.5266 26.6676 11.526 26.8335C11.1352 26.9219 10.731 26.9339 10.3357 26.8689C10.2646 26.7874 11.1316 26.6846 11.1387 26.589C11.1396 26.5152 11.1325 26.4415 11.1174 26.3693L11.4691 26.3409Z" fill="#42394A"/>
<path d="M13.1995 11.3183C13.1995 11.3183 15.8145 12.8933 15.9886 17.3168L15.6831 17.4232C15.5303 17.5331 15.5196 14.7769 13.3771 12.8933C12.631 12.2406 12.7909 11.2971 13.1995 11.3183Z" fill="#EF9A9B"/>
<path d="M10.8794 17.0649C10.8794 17.0649 9.72464 19.8637 9.81347 21.7189C9.86321 22.8434 10.8794 26.3729 10.8794 26.3729L11.59 26.3197C11.59 26.3197 10.62 22.9179 10.6982 21.5664C10.755 20.5944 12.2367 17.7921 12.2367 17.7921C12.2367 17.7921 11.7748 21.1975 12.3753 22.5064C12.8087 23.45 14.4609 26.1601 14.4609 26.1601L14.8731 25.9295C14.8731 25.9295 13.1498 22.6057 13.1854 21.7189C13.2209 20.8321 13.6935 17.1855 13.6935 17.1855C13.6935 17.1855 11.1175 17.1111 10.8794 17.0649Z" fill="#439B95"/>
<path d="M10.8792 17.0649C10.8792 17.0649 11.5898 17.6076 13.7217 17.1855C13.7217 17.1855 14.141 11.5099 13.0928 11.2616C12.0446 11.0133 11.7426 11.0274 11.1741 11.6482C10.7868 12.0703 10.5452 13.7766 10.8934 13.8156C11.2416 13.8546 11.4051 13.8156 11.4513 14.1313C11.4974 14.447 10.8792 17.0649 10.8792 17.0649Z" fill="#EF9A9B"/>
<path d="M13.8069 8.34579C13.8069 8.34579 14.0414 9.40997 13.8069 9.94205C13.5724 10.4741 12.8796 9.53057 12.9329 11.2829C12.9329 11.2829 12.3324 11.7441 12.2436 10.953C12.1192 9.87466 12.4354 7.49091 13.8069 8.34579Z" fill="#E9946F"/>
<path d="M10.659 13.3119C10.659 13.3119 12.1549 12.7337 12.3965 11.5808C12.6381 10.428 12.567 9.94555 13.4909 8.94878C14.7415 7.59374 12.5493 8.03714 12.2011 8.14356C11.8529 8.24998 12.0199 9.41346 11.6681 9.70434C11.3164 9.99521 10.5489 9.94555 10.5347 10.6976C10.5205 11.4496 10.9184 12.2477 10.4743 12.4712C10.0301 12.6946 10.0728 13.4999 10.659 13.3119Z" fill="#42394A"/>
<path d="M13.8567 8.73242C13.8743 9.04443 13.9477 9.35077 14.0735 9.63695C14.1658 9.78948 13.7181 9.63695 13.7181 9.63695C13.6743 9.3284 13.7225 9.01378 13.8567 8.73242Z" fill="#E9946F"/>
<path d="M16.344 18.3206C16.344 18.3206 16.4968 20.1971 17.0547 20.0729C17.6125 19.9488 17.9678 17.4728 18.7673 17.1003L19.0231 17.8595C19.0231 17.8595 18.4439 18.0794 18.3373 18.5015C18.2307 18.9236 17.8221 20.5164 16.9161 20.5979C16.01 20.6795 16.2055 18.5725 15.9994 18.1894C15.6334 17.5118 16.2126 17.5047 16.344 18.3206Z" fill="#E9946F"/>
<path d="M17.6658 19.0087C17.6658 19.0087 18.0211 19.4805 18.0957 19.4096C18.4469 18.9237 18.7491 18.4045 18.9982 17.8594C18.9982 17.6821 18.9769 16.9265 18.8845 16.9833C18.7921 17.04 18.2236 17.1393 17.6658 19.0087Z" fill="#FFE0BC"/>
<path d="M20.3198 17.0649C20.3198 17.0649 20.9167 17.3203 21.2436 18.3171C21.5705 19.3139 21.7482 20.8002 22.2278 21.2329C22.4344 21.3836 22.6827 21.4667 22.9385 21.4706C22.9385 21.4706 22.0502 21.9034 21.5528 20.7044C21.1513 19.7431 20.6645 18.381 20.3944 18.2816L20.3198 17.0649Z" fill="#E9946F"/>
<path d="M20.9629 19.4096C20.9629 19.4096 21.5811 19.2216 21.5882 19.1081C21.5953 18.9946 21.137 17.3345 20.2914 16.9797C20.2241 17.2808 20.1825 17.5869 20.167 17.8949C20.167 18.2177 20.7959 18.9272 20.9629 19.4096Z" fill="#FFE0BC"/>
<path d="M18.2696 21.0341C18.2696 21.0341 17.9356 22.8503 17.8396 23.5988C17.7437 24.3473 18.1949 25.2979 18.3939 26.4614C18.4827 26.9616 18.4827 26.6743 18.5005 26.6281C18.5787 26.4295 18.6995 26.5607 18.6782 26.4295C18.6568 26.2983 18.4152 24.4289 18.5218 23.9464C18.6959 23.1448 19.1294 21.4634 19.1294 21.4634C19.1294 21.4634 19.6553 23.3469 19.7583 24.0741C19.8009 24.3863 21.2755 26.0216 21.1795 26.2025C21.0836 26.3834 20.8242 26.3444 20.9841 26.3515C21.144 26.3586 21.4567 26.2734 21.4709 26.1599C21.4851 26.0464 20.3126 24.1132 20.3197 23.6307C20.3446 21.9281 20.1989 19.9132 20.3197 18.9413C20.4405 17.9693 19.3959 17.721 18.9979 17.8594C18.6 17.9977 19.3035 18.3489 18.2696 21.0341Z" fill="#E9946F"/>
<path d="M21.3362 25.7804C21.4221 25.9011 21.4925 26.032 21.5458 26.1702C21.2844 26.3834 20.9821 26.5414 20.6575 26.6343C20.5722 26.5883 21.1692 26.1772 21.1443 26.0922C21.1204 26.0316 21.0906 25.9735 21.0555 25.9186L21.3362 25.7804Z" fill="#42394A"/>
<path d="M17.4561 22.822C17.4561 22.822 20.5686 23.1129 20.7142 22.6801C20.7711 22.5134 20.8493 17.3025 20.2523 16.9549C19.7265 16.6463 18.8666 16.9017 18.7423 17.1003C18.4758 17.5473 17.5307 21.7649 17.4561 22.822Z" fill="#42394A"/>
<path d="M18.0103 24.9043L18.5183 24.844C18.5183 24.844 18.6534 26.1991 18.6782 26.4296L18.3727 26.3516C18.3727 26.3516 18.1666 25.5322 18.0103 24.9043Z" fill="#FFE0BC"/>
<path d="M20.0996 24.6134C20.2641 24.5344 20.4339 24.4669 20.6077 24.4113C20.6077 24.4361 21.3539 25.7805 21.3539 25.7805L21.0732 25.9188L20.0996 24.6134Z" fill="#FFE0BC"/>
<path d="M19.9646 16.9372C19.9646 16.9372 20.0783 17.934 19.6733 18.0617C19.4245 18.1397 19.0266 18.1929 18.9982 17.8595C18.9895 17.514 19.0729 17.1725 19.2398 16.8698C19.3144 16.8414 19.8367 16.4477 19.9646 16.9372Z" fill="#FFE0BC"/>
<path d="M18.6712 26.3587C18.6712 26.3587 18.7529 26.6669 18.7103 26.713C18.6677 26.7591 17.8576 26.8157 17.822 26.713C17.7865 26.6102 18.3159 26.6386 18.3514 26.5571C18.37 26.4854 18.3772 26.4113 18.3728 26.3374L18.6712 26.3587Z" fill="#42394A"/>
<path d="M19.3285 16.0291C19.3973 16.3458 19.3467 16.6768 19.1863 16.9585C19.0762 17.1855 19.9289 17.0472 19.9609 16.9372C19.8915 16.5859 19.8915 16.2244 19.9609 15.8731C19.8504 15.8519 19.7367 15.8549 19.6275 15.8818C19.5183 15.9088 19.4163 15.959 19.3285 16.0291Z" fill="#E9946F"/>
<path d="M20.3874 14.5818C20.3874 14.5818 20.8066 13.9752 21.1904 14.3725C21.5741 14.7698 21.3289 15.9581 21.3822 16.2489C21.4355 16.5398 21.9365 16.6285 21.7375 16.6746C21.5386 16.7207 19.993 17.0187 20.3874 14.5818Z" fill="#963820"/>
<path d="M19.0407 14.5819C19.0407 14.5819 18.6641 14.0533 18.2839 14.4471C17.9037 14.8408 18.0991 15.9582 18.0458 16.2491C17.9925 16.5399 17.7545 16.6038 17.957 16.6534C18.1595 16.7031 19.1864 16.8663 19.0407 14.5819Z" fill="#963820"/>
<path d="M18.9909 14.6066C18.9909 14.6066 18.5965 16.1106 19.3284 16.288C19.8685 16.4192 20.2735 15.4012 20.1385 14.7165C20.0035 14.0319 19.0157 14.2554 18.9909 14.6066Z" fill="#E9946F"/>
<path d="M18.7529 14.8514C18.7529 14.8514 18.8915 14.3832 19.0727 14.2732C19.2665 14.1527 19.4987 14.1096 19.7229 14.1526C19.8844 14.1817 20.0363 14.25 20.1651 14.3515C20.294 14.4529 20.3959 14.5844 20.462 14.7344C20.5899 15.0891 20.3696 15.1529 20.462 15.2877C20.5544 15.4225 20.5686 15.2877 20.5046 15.5289C20.4407 15.7701 19.897 16.0965 19.9326 15.9546C19.9681 15.8127 20.0285 15.2451 19.9006 15.1316C19.7727 15.0181 18.6144 15.3835 18.7529 14.8514Z" fill="#963820"/>
<path d="M19.9147 15.4402C19.8922 15.4618 19.8753 15.4886 19.8656 15.5182C19.8558 15.5478 19.8534 15.5794 19.8587 15.6101C19.8639 15.6409 19.8766 15.6699 19.8957 15.6946C19.9148 15.7193 19.9396 15.739 19.968 15.752C20.2523 15.9079 20.3375 15.0787 19.9147 15.4402Z" fill="#E9946F"/>
<path d="M18.8843 14.4861C18.8042 14.6579 18.756 14.8428 18.7422 15.0317C18.7635 15.2054 18.426 14.6703 18.8843 14.4861Z" fill="#EF9A9B"/>
<path d="M20.3875 14.5818C20.4878 14.756 20.545 14.9516 20.5544 15.1523C20.5118 15.3401 20.8138 14.7235 20.3875 14.5818Z" fill="#EF9A9B"/>
<path d="M19.0301 15.2983C18.9269 15.4027 18.8068 15.489 18.6748 15.5535C18.5504 15.5924 18.8773 15.6137 18.9235 15.6704C18.9697 15.7271 19.2291 15.4188 19.0301 15.2983Z" fill="#E9946F"/>
<path d="M6.99928 9.19353C6.99928 9.19353 7.24444 4.88363 6.66529 4.46861C6.08613 4.05358 4.24562 4.31253 4.09995 4.78431C3.95427 5.25609 3.80859 8.73594 3.80859 8.73594C3.80859 8.73594 6.8003 9.25029 6.99928 9.19353Z" fill="#C12B28"/>
<path d="M4.28827 5.29156C4.28827 5.29156 1.98586 5.17805 1.60568 3.67047C1.22549 2.16288 3.26853 0.34668 3.8086 0.34668C4.06797 0.34668 3.47461 0.559516 3.16549 0.995829C2.85637 1.43214 1.77623 3.15611 2.84215 3.77688C3.39451 4.11116 4.01034 4.32737 4.65068 4.41184L4.28827 5.29156Z" fill="#E9946F"/>
<path d="M6.779 5.39786C6.779 5.39786 9.08141 5.28435 9.46159 3.78032C9.84177 2.27629 7.8165 0.453003 7.25867 0.453003C6.99929 0.453003 7.59266 0.665837 7.90178 1.10215C8.2109 1.53846 9.29459 3.26242 8.218 3.88673C7.66044 4.22089 7.04002 4.43702 6.39526 4.52169L6.779 5.39786Z" fill="#E9946F"/>
<path d="M6.30986 9.92432C6.30986 9.92432 10.5985 11.3822 9.68531 13.2552C9.02443 14.5996 5.951 12.5457 5.86572 12.2974C5.88624 12.1487 5.92937 12.0039 5.99363 11.8682C5.99363 11.8682 8.60516 13.3651 8.88231 12.8827C9.23762 12.2726 6.13576 10.9885 6.13576 10.9885L6.30986 9.92432Z" fill="#F7B119"/>
<path d="M3.59909 9.92432C3.59909 9.92432 -1.12654 11.666 0.252067 13.5673C0.962687 14.5251 2.68594 12.7905 2.77122 12.5422C2.79609 12.4677 2.59001 12.3755 2.59001 12.3755C2.59001 12.3755 0.984006 13.6312 0.848988 13.0849C0.589612 12.0456 3.77674 10.9566 3.77674 10.9566L3.59909 9.92432Z" fill="#F7B119"/>
<path d="M3.36084 9.48439C3.4489 9.20317 3.6023 8.9467 3.80853 8.73592C4.03593 8.55147 7.16976 8.87781 7.00632 9.19352C6.90683 9.38507 6.37742 10.467 6.37742 10.467C6.37742 10.467 3.49586 10.1477 3.36084 9.48439Z" fill="#FFE0BC"/>
<path d="M8.52722 26.1599C8.52722 26.1599 8.83279 26.4721 8.83989 26.5466C8.55725 26.8293 8.22322 27.0556 7.85569 27.2134C7.75265 27.1815 8.42773 26.6317 8.38154 26.5466C8.34224 26.4835 8.29574 26.4251 8.24297 26.3727L8.52722 26.1599Z" fill="#42394A"/>
<path d="M2.26301 26.7346C2.28172 26.9397 2.28172 27.1461 2.26301 27.3512C1.86206 27.3977 1.45591 27.3688 1.06561 27.2661C1.00166 27.174 1.87217 27.1598 1.89349 27.0677C1.90185 26.9935 1.90185 26.9186 1.89349 26.8445L2.26301 26.7346Z" fill="#42394A"/>
<path d="M4.45527 6.25635C4.32224 6.30955 4.20471 6.39524 4.11346 6.50555C4.02221 6.61586 3.96014 6.74728 3.93296 6.88775C3.81571 7.3879 4.36999 7.8242 4.45527 7.73907C4.54054 7.65394 4.45527 6.25635 4.45527 6.25635Z" fill="#963820"/>
<path d="M4.38062 10.9034C4.38062 10.9034 4.40904 8.06556 4.42681 7.71084C4.44457 7.35611 5.30087 7.5051 5.40746 7.71084C5.51405 7.91658 5.52471 10.9034 5.52471 10.9034H4.38062Z" fill="#E9946F"/>
<path d="M5.76277 5.85205C5.76277 5.85205 5.99727 8.63307 5.76277 8.68983C5.52826 8.74658 4.63644 8.51247 4.51563 8.10099C4.39483 7.68951 4.02175 6.21387 5.76277 5.85205Z" fill="#E9946F"/>
<path d="M4.61864 7.16798C4.61864 7.16798 4.61864 6.51883 5.14805 6.51173C5.56732 6.51173 6.25662 6.4266 6.10384 5.54333C5.97593 4.81614 5.3186 5.85194 4.46586 6.25278C3.61312 6.65362 4.22425 7.76392 4.61864 7.16798Z" fill="#963820"/>
<path d="M5.52484 9.54115C5.52484 9.54115 4.78225 10.6337 4.65078 10.4386C4.51781 10.1551 4.43143 9.85207 4.39496 9.54115C4.34877 9.3496 3.32903 10.0768 3.08742 11.5418C2.84581 13.0068 3.22954 17.0188 3.22954 17.0188H7.10597C7.10597 17.0188 7.19835 11.5879 6.86792 10.8323C6.53748 10.0768 5.52484 9.54115 5.52484 9.54115Z" fill="#F7B119"/>
<path d="M3.22946 17.0188C3.22946 17.0188 1.47778 20.9421 1.47778 22.3113C1.47778 23.6805 1.74782 26.8447 1.74782 26.8447H2.32697C2.32697 26.8447 2.46199 22.886 2.56503 21.9317C2.70716 20.6583 4.95271 17.9659 4.95271 17.9659C4.95271 17.9659 5.01667 22.0736 5.86586 23.3506C6.71505 24.6277 8.1505 26.419 8.1505 26.419L8.65504 26.1423C8.65504 26.1423 6.77901 22.8789 6.77901 22.0275C6.77901 21.1762 7.10589 17.0188 7.10589 17.0188H3.22946Z" fill="#42394A"/>
<path d="M5.92617 9.43469C5.92617 9.43469 5.21555 9.90648 4.95262 11.3183C4.68969 12.7301 5.38255 13.4892 5.38255 13.4892L5.61705 13.3083C5.36974 12.7459 5.31189 12.1185 5.4522 11.5204C5.59252 10.9224 5.92341 10.3859 6.39518 9.99161C6.39518 9.99161 6.52309 9.51273 5.92617 9.43469Z" fill="#E9946F"/>
<path d="M4.97412 10.7791C5.32383 10.8974 5.67965 10.9969 6.04005 11.0771C6.13243 11.0771 6.41668 10.2364 6.81818 9.51273C6.81818 9.51273 5.84818 9.08705 5.68474 9.158C5.5213 9.22895 5.21218 9.84618 4.97412 10.7791Z" fill="#FFE0BC"/>
<path d="M3.90801 9.16516C3.31333 9.67984 2.92786 10.394 2.82431 11.1729C2.76821 11.6191 2.80967 12.0721 2.94585 12.5008C3.08202 12.9295 3.30967 13.3236 3.6131 13.6559L3.84761 13.475C3.48322 12.9342 3.30303 12.2906 3.33375 11.6396C3.36447 10.9885 3.60446 10.3646 4.01816 9.86042C4.01816 9.86042 4.49072 9.2432 3.90801 9.16516Z" fill="#E9946F"/>
<path d="M3.0874 10.2293C3.38203 10.3876 3.68852 10.5228 4.0041 10.6337C4.09648 10.6337 4.14623 10.2081 4.39494 9.54472C4.39494 9.54472 3.95791 8.89202 3.79447 8.97361C3.63103 9.0552 3.2615 9.33898 3.0874 10.2293Z" fill="#FFE0BC"/>
<path d="M5.75562 4.27346C6.42956 4.29074 7.10349 4.23843 7.76667 4.11738C7.83773 4.09965 8.07934 5.29153 8.07934 5.29153C7.61929 5.46782 7.14336 5.59967 6.6581 5.68527C6.4307 5.66754 5.75562 4.27346 5.75562 4.27346Z" fill="#C12B28"/>
<path d="M3.4179 4.04639C3.4179 4.04639 3.04838 4.95803 3.19761 5.29147C3.67575 5.4488 4.16205 5.58024 4.65438 5.68521L5.13049 4.2876C5.2513 4.36209 4.12852 4.17409 3.4179 4.04639Z" fill="#C12B28"/>
<path d="M5.13403 3.56765C5.13403 3.56765 5.15179 4.19198 5.13403 4.27712C5.11626 4.36225 5.59238 4.50769 5.86597 4.27712C5.80208 3.90066 5.76527 3.52013 5.75582 3.13843C5.75582 3.13843 5.20509 3.42576 5.13403 3.56765Z" fill="#E9946F"/>
<path d="M5.76275 6.50122C5.80787 6.7941 5.93054 7.06963 6.11806 7.29932C6.37388 7.50151 5.84447 7.41638 5.80539 7.50151C5.7663 7.58664 5.43942 6.73178 5.76275 6.50122Z" fill="#E9946F"/>
<path d="M5.61714 13.3083C5.61714 13.3083 5.87652 13.4926 5.86942 13.5564C5.86231 13.6202 5.2796 14.1729 5.19432 14.1269C5.10905 14.0808 5.52832 13.7725 5.50345 13.6733C5.47305 13.606 5.43229 13.5438 5.38264 13.4891L5.61714 13.3083Z" fill="#42394A"/>
<path d="M3.83345 13.4714C3.83345 13.4714 4.09283 13.6557 4.08572 13.7195C4.07862 13.7832 3.49591 14.336 3.41063 14.2899C3.32536 14.2439 3.74462 13.9356 3.71975 13.8364C3.68935 13.7691 3.64859 13.7069 3.59895 13.6521L3.83345 13.4714Z" fill="#42394A"/>
<path d="M3.33237 12.1094C3.16451 12.1269 2.99966 12.1662 2.84204 12.2264C2.97503 12.7538 3.2348 13.2408 3.59885 13.6453L3.83335 13.4644C3.58274 13.0481 3.41279 12.5884 3.33237 12.1094Z" fill="#FFE0BC"/>
<path d="M5.36128 11.9958C5.36128 11.9958 4.97754 11.9284 4.89582 11.9958C4.88417 12.5342 5.05578 13.0607 5.38259 13.4892L5.6171 13.3083C5.44515 12.8921 5.35817 12.4459 5.36128 11.9958Z" fill="#FFE0BC"/>
<path d="M5.65258 11.8256C5.65258 11.8256 5.06632 11.659 4.83892 12.0063C4.75009 12.1445 5.51756 12.2614 5.65258 12.1551C5.7876 12.0488 5.83734 11.9071 5.65258 11.8256Z" fill="#E67E69"/>
<path d="M2.58999 12.375C2.58999 12.375 3.12295 11.8117 3.46405 12.0526C3.59907 12.1447 2.84936 12.5876 2.68592 12.538C2.52248 12.4884 2.58999 12.375 2.58999 12.375Z" fill="#E67E69"/>
<path d="M4.81785 2.01393C4.81785 2.01393 4.5336 3.53923 5.2762 3.66693C5.82337 3.75916 6.15381 2.71273 5.98682 2.04231C5.81982 1.37188 4.81785 1.66275 4.81785 2.01393Z" fill="#E9946F"/>
<path d="M5.87652 2.68438C5.87652 2.68438 5.64556 2.97847 5.83743 3.14146C6.17142 3.42138 6.72571 2.47532 5.87652 2.68438Z" fill="#E9946F"/>
<path d="M4.71109 1.49152C4.69127 1.53051 4.67988 1.57322 4.67765 1.61689C4.67542 1.66055 4.68241 1.7042 4.69815 1.745C4.71389 1.7858 4.73804 1.82284 4.76904 1.85373C4.80004 1.88461 4.83719 1.90865 4.87809 1.92429C5.31156 2.08392 5.55673 1.89237 5.73794 2.09101C5.91914 2.28966 5.81966 2.91398 5.92625 2.92462C6.08756 2.80496 6.20815 2.63871 6.2717 2.44837C6.33525 2.25803 6.33869 2.0528 6.28156 1.86044C6.10035 1.36382 5.21563 1.63341 5.19076 1.30707C5.16589 0.980717 4.76439 1.24321 4.71109 1.49152Z" fill="#42394A"/>
<path d="M4.79984 2.72998C4.79984 2.72998 4.55823 2.75124 4.53336 2.72998C4.50848 2.70872 4.77852 2.4288 4.78207 2.27998C4.78563 2.13117 5.24398 2.69101 4.79984 2.72998Z" fill="#E9946F"/>
<path d="M4.61878 7.00488C4.61878 7.00488 4.55482 7.50859 4.67918 7.63984C4.80354 7.77109 5.84104 7.33478 5.905 7.51923C5.96896 7.70369 6.16793 8.49828 5.75932 8.68984C5.35072 8.88139 4.43046 8.44862 4.45178 7.54761C4.4731 6.6466 4.55837 6.82042 4.61878 7.00488Z" fill="#963820"/>
<path d="M4.50855 7.64978C4.50855 7.64978 4.6187 6.99426 4.34511 7.08639C4.07152 7.17852 4.29536 8.0608 4.50855 7.64978Z" fill="#E9946F"/>
<path d="M23.5282 1.09103C23.5282 1.09103 24.516 0.190026 25.5286 1.65858C26.1753 2.59506 26.0865 5.17745 26.321 5.61376C26.5555 6.05007 28.0975 8.69632 25.5855 9.51573C22.6613 10.4522 21.0517 8.66439 21.5527 7.12134C22.0537 5.57829 22.4694 5.6315 22.5583 4.76242C22.7395 2.90367 22.8816 1.38545 23.5282 1.09103Z" fill="#6AAF9F"/>
<path d="M24.1608 10.804C24.1608 10.804 24.0329 2.7907 24.2176 2.90776C24.4024 3.02482 24.3704 10.804 24.3704 10.804H24.1608Z" fill="#4F4558"/>
<path d="M24.2317 5.63925C24.2317 5.63925 22.8389 4.01812 22.9775 4.01812C23.116 4.01812 24.2317 5.43705 24.2317 5.43705L25.5002 3.93298C25.7737 4.0394 24.2317 5.63925 24.2317 5.63925Z" fill="#4F4558"/>
<path d="M24.2317 7.24966C24.2317 7.24966 22.8389 5.63213 22.9775 5.63213C23.116 5.63213 24.2317 7.05102 24.2317 7.05102L25.5002 5.547C25.7737 5.6676 24.2317 7.24966 24.2317 7.24966Z" fill="#4F4558"/>
<path d="M24.2317 8.95236C24.2317 8.95236 22.8389 7.33124 22.9775 7.33124C23.116 7.33124 24.2317 8.75016 24.2317 8.75016L25.5002 7.24255C25.7737 7.35252 24.2317 8.95236 24.2317 8.95236Z" fill="#4F4558"/>
<path d="M18.4757 4.20958C18.4757 4.20958 19.3036 3.45047 20.1563 4.68846C20.6999 5.4724 20.6253 7.64331 20.8243 8.00868C21.0233 8.37405 22.3059 10.6017 20.206 11.2757C17.7473 12.0632 16.3936 10.5662 16.8164 9.26441C17.2392 7.96257 17.5874 8.00868 17.662 7.28149C17.8255 5.73489 17.9392 4.45434 18.4757 4.20958Z" fill="#98D5CC"/>
<path d="M19.0018 12.3718C19.0018 12.3718 18.8916 5.63206 19.048 5.73493C19.2043 5.8378 19.1866 12.3718 19.1866 12.3718H19.0018Z" fill="#4F4558"/>
<path d="M19.0726 8.03354C19.0726 8.03354 17.9036 6.67141 18.0067 6.67141C18.1097 6.67141 19.0726 7.86682 19.0726 7.86682L20.1385 6.60046C20.3695 6.6856 19.0726 8.03354 19.0726 8.03354Z" fill="#4F4558"/>
<path d="M19.0726 9.38513C19.0726 9.38513 17.9036 8.02296 18.0067 8.02296C18.1097 8.02296 19.0726 9.22196 19.0726 9.22196L20.1385 7.95557C20.3695 8.0407 19.0726 9.38513 19.0726 9.38513Z" fill="#4F4558"/>
<path d="M19.0726 10.8145C19.0726 10.8145 17.9036 9.45241 18.0067 9.45241C18.1097 9.45241 19.0726 10.6514 19.0726 10.6514L20.1385 9.38501C20.3695 9.47014 19.0726 10.8145 19.0726 10.8145Z" fill="#4F4558"/>
</svg>
