<?xml version="1.0" encoding="utf-8"?>
<!-- Generator: Adobe Illustrator 23.1.1, SVG Export Plug-In . SVG Version: 6.00 Build 0)  -->
<svg version="1.1" id="圖層_1" xmlns="http://www.w3.org/2000/svg" xmlns:xlink="http://www.w3.org/1999/xlink" x="0px" y="0px"
	 viewBox="0 0 28 28" style="enable-background:new 0 0 28 28;" xml:space="preserve">
<style type="text/css">
	.st0{fill:none;stroke:#FFFFFF;stroke-width:0.18;stroke-linecap:round;stroke-linejoin:round;}
	.st1{fill:#E9946F;}
	.st2{fill:#EF9A9B;}
	.st3{fill:#42394A;}
	.st4{fill:#439B95;}
	.st5{fill:#FFE0BC;}
	.st6{fill:#963820;}
	.st7{fill:#C12B28;}
	.st8{fill:#F7B119;}
	.st9{fill:#E67E69;}
	.st10{fill:#6AAF9F;}
	.st11{fill:#4F4558;}
	.st12{fill:#98D5CC;}
	.st13{fill:#C16326;}
	.st14{fill:#AA5C27;}
	.st15{fill:#EE3B4D;}
	.st16{opacity:0.73;}
	.st17{opacity:0.73;fill:#78C2FF;enable-background:new    ;}
	.st18{opacity:0.73;fill:#2180CC;enable-background:new    ;}
	.st19{opacity:0.74;}
	.st20{opacity:0.74;fill:#F7F7F7;enable-background:new    ;}
	.st21{fill:#DBDBDB;}
	.st22{fill:#C3DB60;}
	.st23{fill:#98B037;}
	.st24{fill:#FFFFFF;}
</style>
<g>
	<path class="st3" d="M2.6,16.7c0,0-1.1,8-0.9,8H2l1-8H2.6z"/>
	<path class="st3" d="M26.4,16.6l0.9,8.2H27l-1-8.2H26.4z"/>
	<path class="st3" d="M3.4,18.5c0,0-0.9,8.2-0.7,8.2H3l0.8-8.2H3.4z"/>
	<path class="st3" d="M25.7,18.5c0,0,0.9,8.2,0.7,8.2h-0.4l-0.8-8.2H25.7z"/>
	<path class="st13" d="M2.6,16.6c0,0,23.2-0.1,23.7,0l-0.4,2.2H3.2L2.6,16.6z"/>
	<path class="st3" d="M9.3,25.8c-0.1,0.2-0.1,0.4-0.1,0.6c0.5,0.2,1,0.2,1.5,0.2c0.1-0.1-1-0.3-1-0.5c0-0.1,0-0.2,0.1-0.3L9.3,25.8z
		"/>
	<path class="st3" d="M5.3,24.6c-0.2,0.1-0.4,0.2-0.6,0.3c0.2,0.5,0.4,0.9,0.8,1.3c0.1,0-0.4-1-0.3-1.1c0.1-0.1,0.2-0.1,0.3-0.1
		L5.3,24.6z"/>
	<path class="st4" d="M4.3,15.1c0,0-1.2,2.1,1,2.9c2.2,0.9,3.9,0.5,3.3,2.8c-0.6,2.5-3.4,3.8-3.4,3.8l0.4,0.6c0,0,4.5-2.4,4.3-5.2
		c-0.2-2.8-2.9-3.2-2.9-3.2s2.8,0.6,3.6,1.7s-0.5,5.9-1.4,7.3L9.9,26c0,0,3-5.7,1.7-8c-1.3-2.3-4.3-2.6-4.3-2.6L4.3,15.1z"/>
	<path class="st14" d="M2,7.1l0.9,1.4L2.8,6.8L2,7.1z"/>
	<path class="st1" d="M2,8.2c0.1-0.3,0.2-0.6,0.5-0.8c0.2-0.1,0.8,0,0.7,0.1c-0.1,0.1-0.7,0.2-0.9,1L2,8.2z"/>
	<path class="st2" d="M2.5,8.2c0,0-1.8,4.8-0.6,5.1c1.7,0.5,0.8-4,3.3-5.1v2.1c0,0-0.3,0.7-0.7,1.4c-0.5,1-0.6,2.6-2.6,2.5
		C-0.9,14.1,2,8,2,8L2.5,8.2z"/>
	<path class="st4" d="M2.1,7.1c0,0-0.7-0.5,0-0.8c0.7-0.3,0.8,0.5,0.6,0.7C2.5,7.1,2.3,7.1,2.1,7.1z"/>
	<path class="st1" d="M8.4,5.9c0,0,0.1-0.2,0.5-0.5c0.4-0.3,0.8-1.2,0.7-0.7C9.5,5.2,9.3,5.6,8.9,5.9c-0.4,0.4,2,5.6,0.7,6.2
		C7.9,13,6.9,9.3,6.9,9.3l0.9-0.1C8,9.3,8.1,9.4,8.2,9.6c0.2,0.6,0.5,1.5,1,1.3C9.8,10.6,8.2,6.8,8.4,5.9z"/>
	<path class="st2" d="M7.6,15.4c0,0-1.1,0.5-3.6,0.6c0,0,0.9-8.8,2.3-9.1c1.1-0.2,2.9,3.5,2,3.5c-0.7,0-0.6,0.9-0.6,1.3
		C7.5,12.2,7.6,15.4,7.6,15.4z"/>
	<path class="st1" d="M7.5,2.8c0,0,0.6,1.3,0.4,2C7.7,5.5,6.5,5.1,7.1,7.3c0,0-1,0.9-1-0.7C6,5.2,5.5,2,7.5,2.8z"/>
	<path class="st1" d="M7.6,3.2C7.8,3.6,7.9,4,8.2,4.3c0.2,0.2-0.5,0.1-0.5,0.1C7.6,4.1,7.5,3.6,7.6,3.2z"/>
	<path class="st3" d="M4.3,9.7c0,0,1.8-1,2-2.5c0.1-1.5,0-2.1,1-3.6c1.4-2-1.4-1-1.8-0.8C5,2.9,5.4,4.4,5,4.8
		C4.6,5.3,3.6,5.3,3.7,6.3s0.7,2,0.2,2.3C3.4,9,3.5,10,4.3,9.7z"/>
	<path class="st2" d="M8.4,6.5l0.4-0.1c0,0,0.3,0.8,1,3c0.4,1.5,0.6,2.9-0.6,3c-1.2,0.1-1.8-2.2-1.8-2.2l0.9-0.5
		c0,0,0.4,1.3,0.9,1.2C9.5,10.9,8.4,6.5,8.4,6.5z"/>
	<path class="st14" d="M16.5,5.6l0.3,1.6l0.5-1.7L16.5,5.6z"/>
	<path class="st3" d="M17,26.2c0.1,0.2,0.1,0.4,0.1,0.6c-0.5,0.2-1,0.2-1.5,0.2c-0.1-0.1,1-0.3,1-0.5c0-0.1,0-0.2-0.1-0.3L17,26.2z"
		/>
	<path class="st3" d="M21,25c0.2,0.1,0.4,0.2,0.6,0.3c-0.2,0.5-0.5,0.9-0.9,1.3c-0.1,0,0.4-1,0.3-1.1c-0.1-0.1-0.2-0.1-0.2-0.2
		L21,25z"/>
	<path class="st3" d="M22.8,14.2c0,0,1.4,2.8-0.8,3.7c-2.2,0.9-4.6,1.1-4.1,3.4c0.6,2.5,3.3,3.8,3.3,3.8l-0.5,0.6
		c0,0-4.5-2.4-4.3-5.2s2.9-3.3,2.9-3.3s-3,0.9-3.8,2c-0.8,1.1,0.8,5.7,1.6,7l-0.8,0.1c0,0-3.5-5-2.3-7.4c1.3-2.5,4.9-3.2,4.9-3.2
		L22.8,14.2z"/>
	<path class="st8" d="M23.5,16.6c0,0-0.7-10-3.4-10.1c-1.6-0.1-1.7,1-2,1.2c-0.4,0.2,0.6,7.7,0.4,8.1C18.3,16.2,23.2,17.1,23.5,16.6
		z"/>
	<path class="st6" d="M19.5,2.3c0.2,0.1,0.3,0.2,0.4,0.3c0.1,0.1,0.2,0.3,0.2,0.5c0.2,0.7-0.6,1.2-0.7,1.1
		C19.4,4.1,19.5,2.3,19.5,2.3z"/>
	<path class="st1" d="M20.4,6.7c0,0,0-2.1,0-2.5c0-0.4-1.1-0.3-1.3,0c-0.1,0.3-0.1,3.5-0.1,3.5L20.4,6.7z"/>
	<path class="st1" d="M18.6,1.7c0,0-0.3,3.6,0,3.7c0.3,0.1,1.5-0.2,1.6-0.8C20.4,4.1,20.9,2.2,18.6,1.7z"/>
	<path class="st6" d="M20.1,3.4c0,0,0-0.8-0.7-0.9c-0.5,0-1.4-0.1-1.2-1.3c0.2-1,1,0.4,2.1,0.9C21.5,2.8,20.6,4.2,20.1,3.4z"/>
	<path class="st1" d="M18.5,2.6c-0.1,0.4-0.2,0.7-0.5,1c-0.3,0.3,0.4,0.2,0.4,0.3C18.5,4.1,19,2.9,18.5,2.6z"/>
	<path class="st6" d="M20.1,3.2c0,0,0.1,0.7-0.1,0.8c-0.2,0.2-1.5-0.4-1.5-0.1c-0.1,0.2-0.4,1.2,0.1,1.5c0.5,0.3,1.7-0.3,1.7-1.5
		C20.3,2.8,20.2,3,20.1,3.2z"/>
	<path class="st15" d="M20.2,4.1c0,0-0.1-0.9,0.2-0.7C20.8,3.5,20.5,4.6,20.2,4.1z"/>
	<path class="st1" d="M16.1,6.7c0.2-0.3,0.4-0.5,0.7-0.6c0.2,0,0.8,0.2,0.6,0.3c-0.2,0.1-0.7,0-1.2,0.6L16.1,6.7z"/>
	<path class="st1" d="M24,16.7c-0.3,0.1-0.5,0.4-0.7,0.7c-0.1,0.2,0.1,0.8,0.2,0.6c0.1-0.2,0.1-0.7,0.7-1.1L24,16.7z"/>
	<path class="st8" d="M16.5,6.9c0,0-1.4,4.7-0.4,5.1c1.5,0.5,0.6-3.9,2.8-5.2V9c-0.1,0.6-0.2,1.1-0.4,1.7c-0.5,1.1-0.8,3.1-2.5,2.7
		c-2.6-0.7,0.1-6.8,0.1-6.8L16.5,6.9z"/>
	<path class="st8" d="M20.5,6.6c0,0,3.6,1.3,4.3,5.3c0.6,3.4-0.5,5.2-0.5,5.2l-0.5-0.3c0,0,0.6-1.3,0.3-3.6c-0.4-3-3.3-4.5-3.3-4.5
		L20.5,6.6z"/>
	<path class="st2" d="M16.6,5.7c0,0-0.5-0.6,0.3-0.8c0.8-0.1,0.6,0.7,0.4,0.8C17,5.8,16.8,5.7,16.6,5.7z"/>
</g>
</svg>
