<?xml version="1.0" encoding="utf-8"?>
<!-- Generator: Adobe Illustrator 23.1.1, SVG Export Plug-In . SVG Version: 6.00 Build 0)  -->
<svg version="1.1" id="圖層_1" xmlns="http://www.w3.org/2000/svg" xmlns:xlink="http://www.w3.org/1999/xlink" x="0px" y="0px"
	 viewBox="0 0 18.2 18.2" style="enable-background:new 0 0 18.2 18.2;" xml:space="preserve">
<style type="text/css">
	.st0{clip-path:url(#SVGID_2_);}
	.st1{fill:#FFFFFF;}
	.st2{clip-path:url(#SVGID_4_);}
	.st3{clip-path:url(#SVGID_6_);}
</style>
<g>
	<defs>
		<rect id="SVGID_5_" x="0.7" y="1.1" width="16.8" height="16"/>
	</defs>
	<clipPath id="SVGID_2_">
		<use xlink:href="#SVGID_5_"  style="overflow:visible;"/>
	</clipPath>
	<g class="st0">
		<path class="st1" d="M14.7,17.1H3.5c-1.6,0-2.8-1.3-2.8-2.8V3.9c0-1.5,1.3-2.8,2.8-2.8h11.2c1.6,0,2.8,1.3,2.8,2.8v10.4
			C17.5,15.9,16.3,17.1,14.7,17.1z M3.5,2.4c-0.4,0-0.8,0.2-1.1,0.4C2.2,3.1,2,3.5,2,3.9v10.4c0,0.4,0.2,0.8,0.5,1.1
			c0.3,0.3,0.7,0.4,1.1,0.4h11.2c0.4,0,0.8-0.2,1.1-0.4c0.3-0.3,0.5-0.7,0.5-1.1V3.9c0-0.4-0.2-0.8-0.5-1.1
			c-0.3-0.3-0.7-0.4-1.1-0.4H3.5z"/>
		<path class="st1" d="M14.1,5.9h-1.5v6.5h1.5V5.9z"/>
		<path class="st1" d="M11.3,5.9h-0.8v6.5h0.8V5.9z"/>
		<path class="st1" d="M7.4,5.9H7v6.5h0.4V5.9z"/>
		<path class="st1" d="M9.4,5.9H8.6v6.5h0.8V5.9z"/>
		<path class="st1" d="M5.7,5.9H4.2v6.5h1.5V5.9z"/>
	</g>
</g>
</svg>
