<?xml version="1.0" encoding="utf-8"?>
<!-- Generator: Adobe Illustrator 23.1.1, SVG Export Plug-In . SVG Version: 6.00 Build 0)  -->
<svg version="1.1" id="圖層_1" xmlns="http://www.w3.org/2000/svg" xmlns:xlink="http://www.w3.org/1999/xlink" x="0px" y="0px"
	 viewBox="0 0 37.3 38.8" style="enable-background:new 0 0 37.3 38.8;" xml:space="preserve">
<style type="text/css">
	.st0{fill:#C4C4C4;}
</style>
<g>
	<path class="st0" d="M16.2,18.9h-4c-1.1,0-2-0.9-2-2v-4c0-1.1,0.9-2,2-2h4c1.1,0,2,0.9,2,2v4C18.1,18,17.3,18.9,16.2,18.9z"/>
	<path class="st0" d="M25.2,18.9h-4c-1.1,0-2-0.9-2-2v-4c0-1.1,0.9-2,2-2h4c1.1,0,2,0.9,2,2v4C27.1,18,26.3,18.9,25.2,18.9z"/>
	<path class="st0" d="M16.2,27.9h-4c-1.1,0-2-0.9-2-2v-4c0-1.1,0.9-2,2-2h4c1.1,0,2,0.9,2,2v4C18.1,27,17.3,27.9,16.2,27.9z"/>
	<path class="st0" d="M25.2,27.9h-4c-1.1,0-2-0.9-2-2v-4c0-1.1,0.9-2,2-2h4c1.1,0,2,0.9,2,2v4C27.1,27,26.3,27.9,25.2,27.9z"/>
</g>
</svg>
