<?xml version="1.0" encoding="utf-8"?>
<!-- Generator: Adobe Illustrator 23.1.1, SVG Export Plug-In . SVG Version: 6.00 Build 0)  -->
<svg version="1.1" xmlns="http://www.w3.org/2000/svg" xmlns:xlink="http://www.w3.org/1999/xlink" x="0px" y="0px"
	 viewBox="0 0 26.7 26.7" style="enable-background:new 0 0 26.7 26.7;" xml:space="preserve">
<style type="text/css">
	.st0{display:none;}
	.st1{display:inline;}
	.st2{fill-rule:evenodd;clip-rule:evenodd;fill:#FFFFFF;}
	.st3{fill:#FFFFFF;}
	.st4{fill:#B46660;}
</style>
<g id="圖層_1" class="st0">
	<rect x="-1.6" y="-1.6" class="st1" width="30" height="30"/>
</g>
<g id="圖層_2">
	<g>
		<path class="st3" d="M20.2,4.4c0-0.2-0.1-0.4-0.2-0.5c-0.1-0.1-0.3-0.2-0.5-0.2c-0.1,0-0.2,0-0.3,0.1l0,0c-0.1,0-0.1,0.1-0.2,0.1
			c-0.5,0.4-2.1,2.1-2.2,4.4c-0.2,3.5,1.5,4.9,2.1,6.2l-0.5,7.6c0,0.4,0.8,0.7,1.1,0.7c0.4,0,1.1-0.3,1.1-0.7L20.2,4.4z"/>
		<path class="st3" d="M12,4c-0.2,0-0.4,0.1-0.5,0.2c-0.1,0.1-0.2,0.3-0.2,0.5v4.2H11V4.7c0-0.2-0.1-0.3-0.2-0.5
			C10.6,4.1,10.5,4,10.3,4c-0.2,0-0.3,0.1-0.5,0.2C9.7,4.3,9.6,4.5,9.6,4.7v4.2H9.2V4.7c0-0.2-0.1-0.3-0.2-0.4
			C8.9,4.2,8.7,4.1,8.5,4.1c-0.2,0-0.3,0.1-0.5,0.2C8,4.4,7.9,4.5,7.8,4.7v4.2H7.5v-4c0-0.2-0.1-0.4-0.2-0.5
			C7.1,4.2,6.9,4.1,6.8,4.1c-0.2,0-0.4,0.1-0.5,0.2C6.1,4.5,6.1,4.7,6.1,4.8v4.6c0,0.4,0.1,0.8,0.3,1.1s0.5,0.6,0.9,0.8l1.2,0.6
			c0.1,0.1,0.3,0.1,0.4,0.2L8.4,22.4c0,0.3,0.8,0.6,1.1,0.6c0.4,0,1.1-0.3,1.1-0.6L10.3,12c0.2,0,0.3-0.1,0.5-0.2l0.9-0.5
			c0.3-0.2,0.6-0.5,0.8-0.9c0.2-0.3,0.3-0.7,0.3-1.1V4.7c0-0.2-0.1-0.4-0.2-0.5C12.4,4.1,12.2,4,12,4z"/>
	</g>
</g>
</svg>
