<?xml version="1.0" encoding="utf-8"?>
<!-- Generator: Adobe Illustrator 23.1.1, SVG Export Plug-In . SVG Version: 6.00 Build 0)  -->
<svg version="1.1" id="圖層_1" xmlns="http://www.w3.org/2000/svg" xmlns:xlink="http://www.w3.org/1999/xlink" x="0px" y="0px"
	 viewBox="0 0 37.3 38.8" style="enable-background:new 0 0 37.3 38.8;" xml:space="preserve">
<style type="text/css">
	.st0{fill:url(#SVGID_1_);}
	.st1{fill:url(#SVGID_2_);}
	.st2{fill:url(#SVGID_3_);}
	.st3{fill:url(#SVGID_4_);}
	.st4{fill:url(#SVGID_5_);}
	.st5{fill:url(#SVGID_6_);}
	.st6{fill:url(#SVGID_7_);}
	.st7{fill:url(#SVGID_8_);}
	.st8{fill:url(#SVGID_9_);}
	.st9{fill:url(#SVGID_10_);}
	.st10{fill:url(#SVGID_11_);}
	.st11{fill:url(#SVGID_12_);}
	.st12{fill:url(#SVGID_13_);}
	.st13{fill:url(#SVGID_14_);}
	.st14{fill:url(#SVGID_15_);}
	.st15{fill:url(#SVGID_16_);}
	.st16{fill:url(#SVGID_17_);}
	.st17{fill:url(#SVGID_18_);}
	.st18{fill:#C4C4C4;}
</style>
<g>
	
		<radialGradient id="SVGID_1_" cx="-371.3581" cy="574.4171" r="1.0002" gradientTransform="matrix(13.4518 0 0 -14.2293 5014.0815 8192.9756)" gradientUnits="userSpaceOnUse">
		<stop  offset="0" style="stop-color:#F7971E"/>
		<stop  offset="1" style="stop-color:#FFD200"/>
	</radialGradient>
	<path class="st0" d="M35,19.3c-0.2-1.1-0.8-2.2-1.7-2.9c-0.8-0.7-1.9-1.1-3-1.2h-2.2l-1.2-1.3c-1.2-1.4-2.7-2.5-4.4-3.3
		c-1.7-0.8-3.5-1.2-5.3-1.2h-6.8c-0.4,0-0.9,0.2-1.2,0.5c-0.3,0.3-0.5,0.8-0.5,1.2v4.1H7c-1.2,0-2.3,0.4-3.2,1.3
		c-0.9,0.8-1.5,1.9-1.6,3.1c-0.2,1.2,0.1,2.5,0.7,3.5c0.6,1,1.6,1.8,2.7,2.1l0.3,0.1L6,25.7c0.2,1,0.7,2,1.5,2.7
		c0.8,0.7,1.7,1.1,2.7,1.1c1,0,2-0.3,2.8-1c0.8-0.6,1.4-1.6,1.6-2.6l0.1-0.4h8.3l0.1,0.4c0.2,1,0.8,2,1.6,2.6c0.8,0.6,1.8,1,2.8,1
		c1,0,2-0.4,2.7-1.1c0.8-0.7,1.3-1.6,1.4-2.7c0.1-0.4,0.4-0.5,1-0.8c0.1,0,0.2-0.1,0.3-0.1c0.9-0.5,1.5-1.4,1.9-2.3
		C35.2,21.4,35.3,20.3,35,19.3L35,19.3z"/>
	
		<linearGradient id="SVGID_2_" gradientUnits="userSpaceOnUse" x1="10.147" y1="27.398" x2="26.4191" y2="27.398" gradientTransform="matrix(1 0 0 -1 0 40.3988)">
		<stop  offset="0" style="stop-color:#D9A77A"/>
		<stop  offset="1" style="stop-color:#FFFCDC"/>
	</linearGradient>
	<path class="st1" d="M10.1,10.8h7.1c3.1,0,6.1,1.3,8.3,3.6l0.9,0.9H10.1V10.8z"/>
	
		<radialGradient id="SVGID_3_" cx="-394.7325" cy="606.4127" r="1" gradientTransform="matrix(60.9446 0 0 -64.4669 24224.248 39417.7539)" gradientUnits="userSpaceOnUse">
		<stop  offset="0" style="stop-color:#D9A77A"/>
		<stop  offset="1" style="stop-color:#FFFCDC"/>
	</radialGradient>
	<path class="st2" d="M10.3,28.1c-0.6,0-1.2-0.2-1.7-0.6C8,27.1,7.7,26.6,7.4,26c-0.2-0.6-0.3-1.3-0.2-1.9c0.1-0.6,0.4-1.2,0.8-1.7
		c0.4-0.5,1-0.8,1.6-0.9c0.6-0.1,1.2-0.1,1.8,0.2c0.6,0.2,1,0.7,1.4,1.2c0.3,0.5,0.5,1.2,0.5,1.8c0,0.9-0.3,1.7-0.9,2.3
		C11.9,27.7,11.1,28,10.3,28.1z"/>
	
		<radialGradient id="SVGID_4_" cx="-394.7325" cy="606.4127" r="1" gradientTransform="matrix(60.9446 0 0 -64.4669 24575.7266 39417.7539)" gradientUnits="userSpaceOnUse">
		<stop  offset="0" style="stop-color:#D9A77A"/>
		<stop  offset="1" style="stop-color:#FFFCDC"/>
	</radialGradient>
	<path class="st3" d="M27.3,28.1c-0.6,0-1.2-0.2-1.7-0.6c-0.5-0.4-0.9-0.9-1.1-1.5c-0.2-0.6-0.3-1.3-0.2-1.9
		c0.1-0.6,0.4-1.2,0.8-1.7s1-0.8,1.6-0.9c0.6-0.1,1.2-0.1,1.8,0.2c0.6,0.2,1,0.7,1.4,1.2c0.3,0.5,0.5,1.2,0.5,1.8
		c0,0.9-0.3,1.7-0.9,2.3C28.9,27.7,28.1,28,27.3,28.1z"/>
	
		<radialGradient id="SVGID_5_" cx="-400.9774" cy="613.2697" r="1" gradientTransform="matrix(1073.62 0 0 -264.914 432104.4375 162727.7656)" gradientUnits="userSpaceOnUse">
		<stop  offset="0" style="stop-color:#F7971E"/>
		<stop  offset="1" style="stop-color:#FFD200"/>
	</radialGradient>
	<path class="st4" d="M32.1,23.6l-0.5,0.3l-0.2-0.6c-0.3-1-0.9-1.8-1.7-2.4c-0.8-0.6-1.7-0.9-2.7-0.8c-1,0-1.9,0.4-2.6,1.1
		c-0.7,0.6-1.3,1.5-1.5,2.5l-0.1,0.4h-8.3l-0.1-0.4c-0.2-1-0.7-1.9-1.5-2.5c-0.7-0.6-1.7-1-2.6-1c-1,0-1.9,0.3-2.7,0.9
		c-0.8,0.6-1.4,1.4-1.6,2.4L5.9,24l-0.5-0.3c-0.7-0.4-1.3-1-1.6-1.8c-0.3-0.8-0.4-1.6-0.2-2.5c0.2-0.8,0.6-1.6,1.2-2.1
		c0.6-0.5,1.4-0.8,2.2-0.8h23.4c0.8,0,1.6,0.3,2.2,0.8c0.6,0.5,1.1,1.2,1.3,2c0.2,0.8,0.1,1.7-0.2,2.4
		C33.3,22.5,32.8,23.2,32.1,23.6z"/>
	
		<radialGradient id="SVGID_6_" cx="-379.1605" cy="585.0979" r="1" gradientTransform="matrix(18.1814 0 0 -19.2321 6990.0444 11439.8115)" gradientUnits="userSpaceOnUse">
		<stop  offset="0" style="stop-color:#F7971E"/>
		<stop  offset="1" style="stop-color:#FFD200"/>
	</radialGradient>
	<path class="st5" d="M10.3,26.5c-0.3,0-0.7-0.1-0.9-0.3c-0.3-0.2-0.5-0.5-0.6-0.8c-0.1-0.3-0.2-0.7-0.1-1c0.1-0.3,0.2-0.7,0.5-0.9
		c0.2-0.3,0.5-0.4,0.9-0.5c0.3-0.1,0.7,0,1,0.1c0.3,0.1,0.6,0.4,0.8,0.7c0.2,0.3,0.3,0.6,0.3,1c0,0.5-0.2,0.9-0.5,1.2
		C11.2,26.3,10.8,26.5,10.3,26.5z"/>
	
		<radialGradient id="SVGID_7_" cx="-379.1605" cy="585.0979" r="1" gradientTransform="matrix(18.1814 0 0 -19.2321 7189.4175 11439.8115)" gradientUnits="userSpaceOnUse">
		<stop  offset="0" style="stop-color:#F7971E"/>
		<stop  offset="1" style="stop-color:#FFD200"/>
	</radialGradient>
	<path class="st6" d="M27.3,26.5c-0.3,0-0.7-0.1-0.9-0.3c-0.3-0.2-0.5-0.5-0.6-0.8c-0.1-0.3-0.2-0.7-0.1-1c0.1-0.3,0.2-0.7,0.5-0.9
		c0.2-0.3,0.5-0.4,0.9-0.5c0.3-0.1,0.7,0,1,0.1c0.3,0.1,0.6,0.4,0.8,0.7c0.2,0.3,0.3,0.6,0.3,1c0,0.5-0.2,0.9-0.5,1.2
		C28.1,26.3,27.7,26.5,27.3,26.5z"/>
</g>
</svg>
