<svg width="61" height="10" viewBox="0 0 61 10" fill="none" xmlns="http://www.w3.org/2000/svg">
<path d="M1.36805 6.02147C8.60186 7.5095 15.9451 8.79636 23.3363 9.59761C27.5193 10.0866 31.7414 10.1284 35.933 9.72248C40.7658 9.23687 45.561 8.49459 50.3254 7.676C53.3215 7.16264 56.3108 6.63541 59.283 6.02147C61.6772 5.53587 60.6511 2.44187 58.2569 2.93094C51.3925 4.31838 44.4357 5.5324 37.4379 6.35099C33.4314 6.85524 29.384 6.93545 25.361 6.59032C20.5556 6.14981 15.7844 5.37284 11.0576 4.55078C8.16065 4.0513 5.26712 3.5206 2.39412 2.93094C-4.74015e-05 2.42799 -1.02612 5.52546 1.36805 6.02147Z" fill="#2681FE"/>
<path d="M1.71009 3.81548C8.94971 5.67666 16.2846 7.13335 23.6817 8.17899C27.8569 8.77536 32.0902 8.82782 36.2785 8.33508C41.1113 7.74194 45.9064 6.84011 50.6708 5.84461C53.667 5.2168 56.6563 4.55776 59.6284 3.82935C62.0226 3.23622 60.9965 -0.527221 58.6024 0.0659112C51.7379 1.75166 44.7812 3.23275 37.7834 4.22824C33.785 4.84292 29.726 4.94198 25.7031 4.52307C20.8976 3.98891 16.1264 3.04545 11.3996 2.04302C8.50269 1.43254 5.60916 0.783913 2.73616 0.0659112C0.341994 -0.537627 -0.684078 3.22581 1.71009 3.81548Z" fill="#85B9FF"/>
</svg>
